<svg width="180" height="140" viewBox="0 0 180 140" fill="none" xmlns="http://www.w3.org/2000/svg">
<rect width="180" height="140" rx="10" fill="#F5F5F5"/>
<path d="M78.5 63H88V72.5C88 72.775 88.225 73 88.5 73H91.5C91.775 73 92 72.775 92 72.5V63H101.5C101.775 63 102 62.775 102 62.5V59.5C102 59.225 101.775 59 101.5 59H92V49.5C92 49.225 91.775 49 91.5 49H88.5C88.225 49 88 49.225 88 49.5V59H78.5C78.225 59 78 59.225 78 59.5V62.5C78 62.775 78.225 63 78.5 63Z" fill="#686868"/>
<path d="M34.008 96.04V87.56H29.624L29.544 89.544C29.512 90.2907 29.464 91 29.4 91.672C29.3467 92.3333 29.256 92.936 29.128 93.48C29.0107 94.024 28.8453 94.4773 28.632 94.84C28.4187 95.2027 28.1573 95.4427 27.848 95.56L25.608 95.24C26.0133 95.2613 26.344 95.1227 26.6 94.824C26.8667 94.5253 27.0747 94.1093 27.224 93.576C27.3733 93.0427 27.4853 92.4187 27.56 91.704C27.6347 90.9787 27.688 90.1947 27.72 89.352L27.848 85.8H36.056V96.04H34.008ZM25.224 99.384L25.24 95.24H37.672V99.384H35.752V97H27.16V99.384H25.224ZM43.0739 97.112C42.1992 97.112 41.4205 96.9253 40.7379 96.552C40.0552 96.168 39.5165 95.6453 39.1219 94.984C38.7272 94.3227 38.5299 93.5707 38.5299 92.728C38.5299 91.8747 38.7272 91.1227 39.1219 90.472C39.5165 89.8107 40.0552 89.2933 40.7379 88.92C41.4205 88.5467 42.1992 88.36 43.0739 88.36C43.9592 88.36 44.7432 88.5467 45.4259 88.92C46.1192 89.2933 46.6579 89.8053 47.0419 90.456C47.4365 91.1067 47.6339 91.864 47.6339 92.728C47.6339 93.5707 47.4365 94.3227 47.0419 94.984C46.6579 95.6453 46.1192 96.168 45.4259 96.552C44.7432 96.9253 43.9592 97.112 43.0739 97.112ZM43.0739 95.4C43.5645 95.4 44.0019 95.2933 44.3859 95.08C44.7699 94.8667 45.0685 94.5573 45.2819 94.152C45.5059 93.7467 45.6179 93.272 45.6179 92.728C45.6179 92.1733 45.5059 91.6987 45.2819 91.304C45.0685 90.8987 44.7699 90.5893 44.3859 90.376C44.0019 90.1627 43.5699 90.056 43.0899 90.056C42.5992 90.056 42.1619 90.1627 41.7779 90.376C41.4045 90.5893 41.1059 90.8987 40.8819 91.304C40.6579 91.6987 40.5459 92.1733 40.5459 92.728C40.5459 93.272 40.6579 93.7467 40.8819 94.152C41.1059 94.5573 41.4045 94.8667 41.7779 95.08C42.1619 95.2933 42.5939 95.4 43.0739 95.4ZM53.6896 97.16C52.9856 97.16 52.3563 97.0533 51.8016 96.84C51.247 96.6267 50.767 96.3013 50.3616 95.864C49.967 95.416 49.663 94.8507 49.4496 94.168C49.2363 93.4853 49.1296 92.6747 49.1296 91.736C49.1296 91.0533 49.1883 90.4293 49.3056 89.864C49.423 89.2987 49.599 88.792 49.8336 88.344C50.0683 87.8853 50.3616 87.48 50.7136 87.128C51.0763 86.776 51.4976 86.4827 51.9776 86.248C52.4576 86.0133 53.0016 85.832 53.6096 85.704L57.5776 84.856L57.8656 86.648L54.2656 87.384C54.063 87.4267 53.8176 87.4907 53.5296 87.576C53.2523 87.6507 52.9643 87.768 52.6656 87.928C52.3776 88.0773 52.1056 88.296 51.8496 88.584C51.6043 88.8613 51.4016 89.224 51.2416 89.672C51.0923 90.1093 51.0176 90.6587 51.0176 91.32C51.0176 91.5227 51.023 91.6773 51.0336 91.784C51.055 91.88 51.071 91.9867 51.0816 92.104C51.103 92.2107 51.1136 92.3707 51.1136 92.584L50.3616 91.8C50.575 91.256 50.8683 90.792 51.2416 90.408C51.6256 90.0133 52.0683 89.7147 52.5696 89.512C53.0816 89.2987 53.6363 89.192 54.2336 89.192C55.0336 89.192 55.743 89.3573 56.3616 89.688C56.9803 90.0187 57.4656 90.4827 57.8176 91.08C58.1696 91.6773 58.3456 92.3547 58.3456 93.112C58.3456 93.9013 58.1536 94.6 57.7696 95.208C57.3856 95.816 56.8416 96.296 56.1376 96.648C55.4443 96.9893 54.6283 97.16 53.6896 97.16ZM53.8496 95.544C54.3296 95.544 54.751 95.4427 55.1136 95.24C55.487 95.0267 55.775 94.7387 55.9776 94.376C56.191 94.0133 56.2976 93.608 56.2976 93.16C56.2976 92.712 56.191 92.3227 55.9776 91.992C55.775 91.6507 55.487 91.3787 55.1136 91.176C54.751 90.9733 54.319 90.872 53.8176 90.872C53.3376 90.872 52.9056 90.968 52.5216 91.16C52.1483 91.352 51.855 91.6187 51.6416 91.96C51.439 92.2907 51.3376 92.6747 51.3376 93.112C51.3376 93.56 51.4443 93.9707 51.6576 94.344C51.871 94.7173 52.1643 95.0107 52.5376 95.224C52.9216 95.4373 53.359 95.544 53.8496 95.544ZM65.3561 97V95.272L65.2441 94.904V91.88C65.2441 91.2933 65.0681 90.84 64.7161 90.52C64.3641 90.1893 63.8308 90.024 63.1161 90.024C62.6361 90.024 62.1615 90.0987 61.6921 90.248C61.2335 90.3973 60.8441 90.6053 60.5241 90.872L59.7401 89.416C60.1988 89.064 60.7428 88.8027 61.3721 88.632C62.0121 88.4507 62.6735 88.36 63.3561 88.36C64.5935 88.36 65.5481 88.6587 66.2201 89.256C66.9028 89.8427 67.2441 90.7547 67.2441 91.992V97H65.3561ZM62.6681 97.112C62.0281 97.112 61.4681 97.0053 60.9881 96.792C60.5081 96.568 60.1348 96.264 59.8681 95.88C59.6121 95.4853 59.4841 95.0427 59.4841 94.552C59.4841 94.072 59.5961 93.64 59.8201 93.256C60.0548 92.872 60.4335 92.568 60.9561 92.344C61.4788 92.12 62.1721 92.008 63.0361 92.008H65.5161V93.336H63.1801C62.4975 93.336 62.0388 93.448 61.8041 93.672C61.5695 93.8853 61.4521 94.152 61.4521 94.472C61.4521 94.8347 61.5961 95.1227 61.8841 95.336C62.1721 95.5493 62.5721 95.656 63.0841 95.656C63.5748 95.656 64.0121 95.544 64.3961 95.32C64.7908 95.096 65.0735 94.7653 65.2441 94.328L65.5801 95.528C65.3881 96.0293 65.0415 96.4187 64.5401 96.696C64.0495 96.9733 63.4255 97.112 62.6681 97.112ZM69.719 97V88.456H73.895C74.9297 88.456 75.7403 88.648 76.327 89.032C76.9243 89.416 77.223 89.96 77.223 90.664C77.223 91.3573 76.9457 91.9013 76.391 92.296C75.8363 92.68 75.1003 92.872 74.183 92.872L74.423 92.376C75.4577 92.376 76.2257 92.568 76.727 92.952C77.239 93.3253 77.495 93.8747 77.495 94.6C77.495 95.3573 77.2123 95.9493 76.647 96.376C76.0817 96.792 75.223 97 74.071 97H69.719ZM71.623 95.544H73.911C74.455 95.544 74.8657 95.4587 75.143 95.288C75.4203 95.1067 75.559 94.8347 75.559 94.472C75.559 94.088 75.431 93.8053 75.175 93.624C74.919 93.4427 74.519 93.352 73.975 93.352H71.623V95.544ZM71.623 92.024H73.719C74.231 92.024 74.615 91.9333 74.871 91.752C75.1377 91.56 75.271 91.2933 75.271 90.952C75.271 90.6 75.1377 90.3387 74.871 90.168C74.615 89.9973 74.231 89.912 73.719 89.912H71.623V92.024ZM79.6253 97V88.456H81.6253V94.088L86.3453 88.456H88.1693V97H86.1693V91.368L81.4653 97H79.6253ZM92.6356 97V89.672L93.0996 90.152H89.6276V88.456H97.6276V90.152H94.1716L94.6356 89.672V97H92.6356ZM103.366 91.272C104.465 91.272 105.302 91.5173 105.878 92.008C106.454 92.4987 106.742 93.192 106.742 94.088C106.742 95.016 106.422 95.7413 105.782 96.264C105.142 96.776 104.241 97.0267 103.078 97.016L99.0784 97V88.456H101.078V91.256L103.366 91.272ZM102.902 95.544C103.489 95.5547 103.937 95.432 104.246 95.176C104.556 94.92 104.71 94.5467 104.71 94.056C104.71 93.5653 104.556 93.2133 104.246 93C103.948 92.776 103.5 92.6587 102.902 92.648L101.078 92.632V95.528L102.902 95.544ZM118.346 97.16C118.335 97.16 118.287 97.16 118.202 97.16C118.127 97.16 118.053 97.16 117.978 97.16C117.914 97.16 117.871 97.16 117.85 97.16C116.047 97.1387 114.65 96.7493 113.658 95.992C112.666 95.224 112.17 94.1307 112.17 92.712C112.17 91.304 112.666 90.2267 113.658 89.48C114.65 88.7333 116.063 88.3493 117.898 88.328C117.919 88.328 117.962 88.328 118.026 88.328C118.101 88.328 118.17 88.328 118.234 88.328C118.309 88.328 118.351 88.328 118.362 88.328C120.207 88.328 121.642 88.7067 122.666 89.464C123.701 90.2107 124.218 91.2933 124.218 92.712C124.218 94.1413 123.701 95.24 122.666 96.008C121.642 96.776 120.202 97.16 118.346 97.16ZM118.282 95.496C119.189 95.496 119.935 95.3947 120.522 95.192C121.109 94.9787 121.546 94.6693 121.834 94.264C122.122 93.848 122.266 93.3307 122.266 92.712C122.266 92.104 122.122 91.6027 121.834 91.208C121.546 90.8027 121.109 90.504 120.522 90.312C119.935 90.1093 119.189 90.008 118.282 90.008C118.261 90.008 118.207 90.008 118.122 90.008C118.047 90.008 117.999 90.008 117.978 90.008C117.093 90.008 116.367 90.1147 115.802 90.328C115.237 90.5307 114.815 90.8293 114.538 91.224C114.271 91.6187 114.138 92.1147 114.138 92.712C114.138 93.32 114.271 93.8267 114.538 94.232C114.815 94.6373 115.237 94.9467 115.802 95.16C116.378 95.3733 117.103 95.4853 117.978 95.496C117.999 95.496 118.047 95.496 118.122 95.496C118.207 95.496 118.261 95.496 118.282 95.496ZM117.242 100.104V85.128H119.13V100.104H117.242ZM129.965 97.112C129.09 97.112 128.311 96.9253 127.629 96.552C126.946 96.168 126.407 95.6453 126.013 94.984C125.618 94.3227 125.421 93.5707 125.421 92.728C125.421 91.8747 125.618 91.1227 126.013 90.472C126.407 89.8107 126.946 89.2933 127.629 88.92C128.311 88.5467 129.09 88.36 129.965 88.36C130.85 88.36 131.634 88.5467 132.317 88.92C133.01 89.2933 133.549 89.8053 133.933 90.456C134.327 91.1067 134.525 91.864 134.525 92.728C134.525 93.5707 134.327 94.3227 133.933 94.984C133.549 95.6453 133.01 96.168 132.317 96.552C131.634 96.9253 130.85 97.112 129.965 97.112ZM129.965 95.4C130.455 95.4 130.893 95.2933 131.277 95.08C131.661 94.8667 131.959 94.5573 132.173 94.152C132.397 93.7467 132.509 93.272 132.509 92.728C132.509 92.1733 132.397 91.6987 132.173 91.304C131.959 90.8987 131.661 90.5893 131.277 90.376C130.893 90.1627 130.461 90.056 129.981 90.056C129.49 90.056 129.053 90.1627 128.669 90.376C128.295 90.5893 127.997 90.8987 127.773 91.304C127.549 91.6987 127.437 92.1733 127.437 92.728C127.437 93.272 127.549 93.7467 127.773 94.152C127.997 94.5573 128.295 94.8667 128.669 95.08C129.053 95.2933 129.485 95.4 129.965 95.4ZM137.964 97V89.672L138.428 90.152H134.956V88.456H142.956V90.152H139.5L139.964 89.672V97H137.964ZM147.84 97.112C146.965 97.112 146.186 96.9253 145.504 96.552C144.821 96.168 144.282 95.6453 143.888 94.984C143.493 94.3227 143.296 93.5707 143.296 92.728C143.296 91.8747 143.493 91.1227 143.888 90.472C144.282 89.8107 144.821 89.2933 145.504 88.92C146.186 88.5467 146.965 88.36 147.84 88.36C148.725 88.36 149.509 88.5467 150.192 88.92C150.885 89.2933 151.424 89.8053 151.808 90.456C152.202 91.1067 152.4 91.864 152.4 92.728C152.4 93.5707 152.202 94.3227 151.808 94.984C151.424 95.6453 150.885 96.168 150.192 96.552C149.509 96.9253 148.725 97.112 147.84 97.112ZM147.84 95.4C148.33 95.4 148.768 95.2933 149.152 95.08C149.536 94.8667 149.834 94.5573 150.048 94.152C150.272 93.7467 150.384 93.272 150.384 92.728C150.384 92.1733 150.272 91.6987 150.048 91.304C149.834 90.8987 149.536 90.5893 149.152 90.376C148.768 90.1627 148.336 90.056 147.856 90.056C147.365 90.056 146.928 90.1627 146.544 90.376C146.17 90.5893 145.872 90.8987 145.648 91.304C145.424 91.6987 145.312 92.1733 145.312 92.728C145.312 93.272 145.424 93.7467 145.648 94.152C145.872 94.5573 146.17 94.8667 146.544 95.08C146.928 95.2933 147.36 95.4 147.84 95.4Z" fill="#686868"/>
</svg>
