<svg width="30" height="30" viewBox="0 0 30 30" fill="none" xmlns="http://www.w3.org/2000/svg">
<path d="M10.676 20.112C9.91067 20.112 9.22467 19.916 8.618 19.524C8.02067 19.132 7.54467 18.5627 7.19 17.816C6.84467 17.0693 6.672 16.164 6.672 15.1C6.672 14.036 6.84467 13.1307 7.19 12.384C7.54467 11.6373 8.02067 11.068 8.618 10.676C9.22467 10.284 9.91067 10.088 10.676 10.088C11.432 10.088 12.1133 10.284 12.72 10.676C13.3267 11.068 13.8027 11.6373 14.148 12.384C14.4933 13.1307 14.666 14.036 14.666 15.1C14.666 16.164 14.4933 17.0693 14.148 17.816C13.8027 18.5627 13.3267 19.132 12.72 19.524C12.1133 19.916 11.432 20.112 10.676 20.112ZM10.676 18.866C11.1893 18.866 11.6373 18.726 12.02 18.446C12.412 18.166 12.7153 17.746 12.93 17.186C13.154 16.626 13.266 15.9307 13.266 15.1C13.266 14.2693 13.154 13.574 12.93 13.014C12.7153 12.454 12.412 12.034 12.02 11.754C11.6373 11.474 11.1893 11.334 10.676 11.334C10.1627 11.334 9.71 11.474 9.318 11.754C8.926 12.034 8.618 12.454 8.394 13.014C8.17933 13.574 8.072 14.2693 8.072 15.1C8.072 15.9307 8.17933 16.626 8.394 17.186C8.618 17.746 8.926 18.166 9.318 18.446C9.71 18.726 10.1627 18.866 10.676 18.866ZM18.9196 18.166V12.034H20.0956V18.166H18.9196ZM16.3716 15.66V14.554H22.6436V15.66H16.3716Z" fill="#4E4E4E"/>
<circle cx="15" cy="15" r="14.5" stroke="#4E4E4E"/>
</svg>
