<svg width="224" height="72" viewBox="0 0 224 72" fill="none" xmlns="http://www.w3.org/2000/svg">
<rect width="224" height="72" rx="10" fill="black"/>
<path d="M49.5238 36.9118C49.5 32.8491 51.3407 29.7872 55.0579 27.5295C52.9789 24.551 49.8336 22.9128 45.6875 22.5971C41.7618 22.2873 37.4668 24.8846 35.8941 24.8846C34.2321 24.8846 30.4315 22.7043 27.4411 22.7043C21.2696 22.7996 14.7109 27.6248 14.7109 37.442C14.7109 40.3431 15.2411 43.3395 16.3015 46.4252C17.7192 50.4879 22.8304 60.4421 28.1619 60.2813C30.9498 60.2157 32.9216 58.3035 36.5494 58.3035C40.07 58.3035 41.8929 60.2813 45.0024 60.2813C50.3816 60.2038 55.0043 51.1551 56.3506 47.0805C49.1366 43.679 49.5238 37.1203 49.5238 36.9118V36.9118ZM43.263 18.7429C46.2832 15.1567 46.0092 11.8923 45.9198 10.7188C43.2511 10.8736 40.1653 12.5356 38.408 14.5789C36.472 16.7711 35.3342 19.4815 35.5784 22.5375C38.4616 22.7579 41.0946 21.2746 43.263 18.7429V18.7429Z" fill="white"/>
<path d="M67.504 28V16.8H72.4C73.616 16.8 74.6827 17.0347 75.6 17.504C76.5173 17.9733 77.232 18.624 77.744 19.456C78.256 20.288 78.512 21.2693 78.512 22.4C78.512 23.52 78.256 24.5013 77.744 25.344C77.232 26.176 76.5173 26.8267 75.6 27.296C74.6827 27.7653 73.616 28 72.4 28H67.504ZM69.584 26.24H72.304C73.1467 26.24 73.872 26.08 74.48 25.76C75.0987 25.44 75.5733 24.992 75.904 24.416C76.2453 23.84 76.416 23.168 76.416 22.4C76.416 21.6213 76.2453 20.9493 75.904 20.384C75.5733 19.808 75.0987 19.36 74.48 19.04C73.872 18.72 73.1467 18.56 72.304 18.56H69.584V26.24ZM84.3708 28.112C83.4961 28.112 82.7174 27.9253 82.0348 27.552C81.3521 27.168 80.8134 26.6453 80.4188 25.984C80.0241 25.3227 79.8268 24.5707 79.8268 23.728C79.8268 22.8747 80.0241 22.1227 80.4188 21.472C80.8134 20.8107 81.3521 20.2933 82.0348 19.92C82.7174 19.5467 83.4961 19.36 84.3708 19.36C85.2561 19.36 86.0401 19.5467 86.7228 19.92C87.4161 20.2933 87.9548 20.8053 88.3388 21.456C88.7334 22.1067 88.9308 22.864 88.9308 23.728C88.9308 24.5707 88.7334 25.3227 88.3388 25.984C87.9548 26.6453 87.4161 27.168 86.7228 27.552C86.0401 27.9253 85.2561 28.112 84.3708 28.112ZM84.3708 26.4C84.8614 26.4 85.2988 26.2933 85.6828 26.08C86.0668 25.8667 86.3654 25.5573 86.5788 25.152C86.8028 24.7467 86.9148 24.272 86.9148 23.728C86.9148 23.1733 86.8028 22.6987 86.5788 22.304C86.3654 21.8987 86.0668 21.5893 85.6828 21.376C85.2988 21.1627 84.8668 21.056 84.3868 21.056C83.8961 21.056 83.4588 21.1627 83.0748 21.376C82.7014 21.5893 82.4028 21.8987 82.1788 22.304C81.9548 22.6987 81.8428 23.1733 81.8428 23.728C81.8428 24.272 81.9548 24.7467 82.1788 25.152C82.4028 25.5573 82.7014 25.8667 83.0748 26.08C83.4588 26.2933 83.8908 26.4 84.3708 26.4ZM92.4969 28L89.3609 19.456H91.2489L93.9369 26.992H93.0409L95.8569 19.456H97.5369L100.273 26.992H99.3929L102.161 19.456H103.937L100.785 28H98.8649L96.3689 21.328H96.9609L94.4169 28H92.4969ZM110.16 19.36C110.843 19.36 111.451 19.4933 111.984 19.76C112.528 20.0267 112.955 20.4373 113.264 20.992C113.573 21.536 113.728 22.24 113.728 23.104V28H111.728V23.36C111.728 22.6027 111.547 22.0373 111.184 21.664C110.832 21.2907 110.336 21.104 109.696 21.104C109.227 21.104 108.811 21.2 108.448 21.392C108.085 21.584 107.803 21.872 107.6 22.256C107.408 22.6293 107.312 23.104 107.312 23.68V28H105.312V19.456H107.216V21.76L106.88 21.056C107.179 20.512 107.611 20.096 108.176 19.808C108.752 19.5093 109.413 19.36 110.16 19.36ZM116.265 28V16.128H118.265V28H116.265ZM124.73 28.112C123.855 28.112 123.077 27.9253 122.394 27.552C121.711 27.168 121.173 26.6453 120.778 25.984C120.383 25.3227 120.186 24.5707 120.186 23.728C120.186 22.8747 120.383 22.1227 120.778 21.472C121.173 20.8107 121.711 20.2933 122.394 19.92C123.077 19.5467 123.855 19.36 124.73 19.36C125.615 19.36 126.399 19.5467 127.082 19.92C127.775 20.2933 128.314 20.8053 128.698 21.456C129.093 22.1067 129.29 22.864 129.29 23.728C129.29 24.5707 129.093 25.3227 128.698 25.984C128.314 26.6453 127.775 27.168 127.082 27.552C126.399 27.9253 125.615 28.112 124.73 28.112ZM124.73 26.4C125.221 26.4 125.658 26.2933 126.042 26.08C126.426 25.8667 126.725 25.5573 126.938 25.152C127.162 24.7467 127.274 24.272 127.274 23.728C127.274 23.1733 127.162 22.6987 126.938 22.304C126.725 21.8987 126.426 21.5893 126.042 21.376C125.658 21.1627 125.226 21.056 124.746 21.056C124.255 21.056 123.818 21.1627 123.434 21.376C123.061 21.5893 122.762 21.8987 122.538 22.304C122.314 22.6987 122.202 23.1733 122.202 23.728C122.202 24.272 122.314 24.7467 122.538 25.152C122.762 25.5573 123.061 25.8667 123.434 26.08C123.818 26.2933 124.25 26.4 124.73 26.4ZM136.357 28V26.272L136.245 25.904V22.88C136.245 22.2933 136.069 21.84 135.717 21.52C135.365 21.1893 134.832 21.024 134.117 21.024C133.637 21.024 133.163 21.0987 132.693 21.248C132.235 21.3973 131.845 21.6053 131.525 21.872L130.741 20.416C131.2 20.064 131.744 19.8027 132.373 19.632C133.013 19.4507 133.675 19.36 134.357 19.36C135.595 19.36 136.549 19.6587 137.221 20.256C137.904 20.8427 138.245 21.7547 138.245 22.992V28H136.357ZM133.669 28.112C133.029 28.112 132.469 28.0053 131.989 27.792C131.509 27.568 131.136 27.264 130.869 26.88C130.613 26.4853 130.485 26.0427 130.485 25.552C130.485 25.072 130.597 24.64 130.821 24.256C131.056 23.872 131.435 23.568 131.957 23.344C132.48 23.12 133.173 23.008 134.037 23.008H136.517V24.336H134.181C133.499 24.336 133.04 24.448 132.805 24.672C132.571 24.8853 132.453 25.152 132.453 25.472C132.453 25.8347 132.597 26.1227 132.885 26.336C133.173 26.5493 133.573 26.656 134.085 26.656C134.576 26.656 135.013 26.544 135.397 26.32C135.792 26.096 136.075 25.7653 136.245 25.328L136.581 26.528C136.389 27.0293 136.043 27.4187 135.541 27.696C135.051 27.9733 134.427 28.112 133.669 28.112ZM144.444 28.112C143.622 28.112 142.881 27.9307 142.22 27.568C141.569 27.1947 141.057 26.6827 140.684 26.032C140.31 25.3813 140.124 24.6133 140.124 23.728C140.124 22.8427 140.31 22.0747 140.684 21.424C141.057 20.7733 141.569 20.2667 142.22 19.904C142.881 19.5413 143.622 19.36 144.444 19.36C145.158 19.36 145.798 19.52 146.364 19.84C146.929 20.1493 147.377 20.624 147.708 21.264C148.038 21.904 148.204 22.7253 148.204 23.728C148.204 24.72 148.044 25.5413 147.724 26.192C147.404 26.832 146.961 27.312 146.396 27.632C145.83 27.952 145.18 28.112 144.444 28.112ZM144.684 26.4C145.164 26.4 145.59 26.2933 145.964 26.08C146.348 25.8667 146.652 25.5573 146.876 25.152C147.11 24.7467 147.228 24.272 147.228 23.728C147.228 23.1733 147.11 22.6987 146.876 22.304C146.652 21.8987 146.348 21.5893 145.964 21.376C145.59 21.1627 145.164 21.056 144.684 21.056C144.204 21.056 143.772 21.1627 143.388 21.376C143.014 21.5893 142.71 21.8987 142.476 22.304C142.252 22.6987 142.14 23.1733 142.14 23.728C142.14 24.272 142.252 24.7467 142.476 25.152C142.71 25.5573 143.014 25.8667 143.388 26.08C143.772 26.2933 144.204 26.4 144.684 26.4ZM147.276 28V25.984L147.356 23.712L147.196 21.44V16.128H149.18V28H147.276ZM160.074 28.112C159.199 28.112 158.421 27.9253 157.738 27.552C157.055 27.168 156.517 26.6453 156.122 25.984C155.727 25.3227 155.53 24.5707 155.53 23.728C155.53 22.8747 155.727 22.1227 156.122 21.472C156.517 20.8107 157.055 20.2933 157.738 19.92C158.421 19.5467 159.199 19.36 160.074 19.36C160.959 19.36 161.743 19.5467 162.426 19.92C163.119 20.2933 163.658 20.8053 164.042 21.456C164.437 22.1067 164.634 22.864 164.634 23.728C164.634 24.5707 164.437 25.3227 164.042 25.984C163.658 26.6453 163.119 27.168 162.426 27.552C161.743 27.9253 160.959 28.112 160.074 28.112ZM160.074 26.4C160.565 26.4 161.002 26.2933 161.386 26.08C161.77 25.8667 162.069 25.5573 162.282 25.152C162.506 24.7467 162.618 24.272 162.618 23.728C162.618 23.1733 162.506 22.6987 162.282 22.304C162.069 21.8987 161.77 21.5893 161.386 21.376C161.002 21.1627 160.57 21.056 160.09 21.056C159.599 21.056 159.162 21.1627 158.778 21.376C158.405 21.5893 158.106 21.8987 157.882 22.304C157.658 22.6987 157.546 23.1733 157.546 23.728C157.546 24.272 157.658 24.7467 157.882 25.152C158.106 25.5573 158.405 25.8667 158.778 26.08C159.162 26.2933 159.594 26.4 160.074 26.4ZM171.394 19.36C172.077 19.36 172.685 19.4933 173.218 19.76C173.762 20.0267 174.189 20.4373 174.498 20.992C174.808 21.536 174.962 22.24 174.962 23.104V28H172.962V23.36C172.962 22.6027 172.781 22.0373 172.418 21.664C172.066 21.2907 171.57 21.104 170.93 21.104C170.461 21.104 170.045 21.2 169.682 21.392C169.32 21.584 169.037 21.872 168.834 22.256C168.642 22.6293 168.546 23.104 168.546 23.68V28H166.546V19.456H168.45V21.76L168.114 21.056C168.413 20.512 168.845 20.096 169.41 19.808C169.986 19.5093 170.648 19.36 171.394 19.36ZM185.137 28.112C184.199 28.112 183.473 27.872 182.961 27.392C182.449 26.9013 182.193 26.1813 182.193 25.232V17.568H184.193V25.184C184.193 25.5893 184.295 25.904 184.497 26.128C184.711 26.352 185.004 26.464 185.377 26.464C185.825 26.464 186.199 26.3467 186.497 26.112L187.057 27.536C186.823 27.728 186.535 27.872 186.193 27.968C185.852 28.064 185.5 28.112 185.137 28.112ZM180.785 21.12V19.52H186.481V21.12H180.785ZM193.551 19.36C194.233 19.36 194.841 19.4933 195.375 19.76C195.919 20.0267 196.345 20.4373 196.655 20.992C196.964 21.536 197.119 22.24 197.119 23.104V28H195.119V23.36C195.119 22.6027 194.937 22.0373 194.575 21.664C194.223 21.2907 193.727 21.104 193.087 21.104C192.617 21.104 192.201 21.2 191.839 21.392C191.476 21.584 191.193 21.872 190.991 22.256C190.799 22.6293 190.703 23.104 190.703 23.68V28H188.703V16.128H190.703V21.76L190.271 21.056C190.569 20.512 191.001 20.096 191.567 19.808C192.143 19.5093 192.804 19.36 193.551 19.36ZM203.687 28.112C202.738 28.112 201.906 27.9253 201.191 27.552C200.487 27.168 199.938 26.6453 199.543 25.984C199.159 25.3227 198.967 24.5707 198.967 23.728C198.967 22.8747 199.154 22.1227 199.527 21.472C199.911 20.8107 200.434 20.2933 201.095 19.92C201.767 19.5467 202.53 19.36 203.383 19.36C204.215 19.36 204.957 19.5413 205.607 19.904C206.258 20.2667 206.77 20.7787 207.143 21.44C207.517 22.1013 207.703 22.88 207.703 23.776C207.703 23.8613 207.698 23.9573 207.687 24.064C207.687 24.1707 207.682 24.272 207.671 24.368H200.551V23.04H206.615L205.831 23.456C205.842 22.9653 205.741 22.5333 205.527 22.16C205.314 21.7867 205.021 21.4933 204.647 21.28C204.285 21.0667 203.863 20.96 203.383 20.96C202.893 20.96 202.461 21.0667 202.087 21.28C201.725 21.4933 201.437 21.792 201.223 22.176C201.021 22.5493 200.919 22.992 200.919 23.504V23.824C200.919 24.336 201.037 24.7893 201.271 25.184C201.506 25.5787 201.837 25.8827 202.263 26.096C202.69 26.3093 203.181 26.416 203.735 26.416C204.215 26.416 204.647 26.3413 205.031 26.192C205.415 26.0427 205.757 25.808 206.055 25.488L207.127 26.72C206.743 27.168 206.258 27.5147 205.671 27.76C205.095 27.9947 204.434 28.112 203.687 28.112Z" fill="white"/>
<path d="M72.88 55L80.44 38.2H83.512L91.096 55H87.832L81.328 39.856H82.576L76.096 55H72.88ZM76.36 51.112L77.2 48.664H86.272L87.112 51.112H76.36ZM100.049 55.168C99.0086 55.168 98.0566 54.928 97.1926 54.448C96.3446 53.968 95.6646 53.248 95.1526 52.288C94.6566 51.312 94.4086 50.08 94.4086 48.592C94.4086 47.088 94.6486 45.856 95.1286 44.896C95.6246 43.936 96.2966 43.224 97.1446 42.76C97.9926 42.28 98.9606 42.04 100.049 42.04C101.313 42.04 102.425 42.312 103.385 42.856C104.361 43.4 105.129 44.16 105.689 45.136C106.265 46.112 106.553 47.264 106.553 48.592C106.553 49.92 106.265 51.08 105.689 52.072C105.129 53.048 104.361 53.808 103.385 54.352C102.425 54.896 101.313 55.168 100.049 55.168ZM92.9446 59.656V42.184H95.8006V45.208L95.7046 48.616L95.9446 52.024V59.656H92.9446ZM99.7126 52.6C100.433 52.6 101.073 52.44 101.633 52.12C102.209 51.8 102.665 51.336 103.001 50.728C103.337 50.12 103.505 49.408 103.505 48.592C103.505 47.76 103.337 47.048 103.001 46.456C102.665 45.848 102.209 45.384 101.633 45.064C101.073 44.744 100.433 44.584 99.7126 44.584C98.9926 44.584 98.3446 44.744 97.7686 45.064C97.1926 45.384 96.7366 45.848 96.4006 46.456C96.0646 47.048 95.8966 47.76 95.8966 48.592C95.8966 49.408 96.0646 50.12 96.4006 50.728C96.7366 51.336 97.1926 51.8 97.7686 52.12C98.3446 52.44 98.9926 52.6 99.7126 52.6ZM116.502 55.168C115.462 55.168 114.51 54.928 113.646 54.448C112.798 53.968 112.118 53.248 111.606 52.288C111.11 51.312 110.862 50.08 110.862 48.592C110.862 47.088 111.102 45.856 111.582 44.896C112.078 43.936 112.75 43.224 113.598 42.76C114.446 42.28 115.414 42.04 116.502 42.04C117.766 42.04 118.878 42.312 119.838 42.856C120.814 43.4 121.582 44.16 122.142 45.136C122.718 46.112 123.006 47.264 123.006 48.592C123.006 49.92 122.718 51.08 122.142 52.072C121.582 53.048 120.814 53.808 119.838 54.352C118.878 54.896 117.766 55.168 116.502 55.168ZM109.398 59.656V42.184H112.254V45.208L112.158 48.616L112.398 52.024V59.656H109.398ZM116.166 52.6C116.886 52.6 117.526 52.44 118.086 52.12C118.662 51.8 119.118 51.336 119.454 50.728C119.79 50.12 119.958 49.408 119.958 48.592C119.958 47.76 119.79 47.048 119.454 46.456C119.118 45.848 118.662 45.384 118.086 45.064C117.526 44.744 116.886 44.584 116.166 44.584C115.446 44.584 114.798 44.744 114.222 45.064C113.646 45.384 113.19 45.848 112.854 46.456C112.518 47.048 112.35 47.76 112.35 48.592C112.35 49.408 112.518 50.12 112.854 50.728C113.19 51.336 113.646 51.8 114.222 52.12C114.798 52.44 115.446 52.6 116.166 52.6ZM137.98 55.24C136.668 55.24 135.412 55.056 134.212 54.688C133.012 54.304 132.06 53.816 131.356 53.224L132.436 50.8C133.108 51.328 133.94 51.768 134.932 52.12C135.924 52.472 136.94 52.648 137.98 52.648C138.86 52.648 139.572 52.552 140.116 52.36C140.66 52.168 141.06 51.912 141.316 51.592C141.572 51.256 141.7 50.88 141.7 50.464C141.7 49.952 141.516 49.544 141.148 49.24C140.78 48.92 140.3 48.672 139.708 48.496C139.132 48.304 138.484 48.128 137.764 47.968C137.06 47.808 136.348 47.624 135.628 47.416C134.924 47.192 134.276 46.912 133.684 46.576C133.108 46.224 132.636 45.76 132.268 45.184C131.9 44.608 131.716 43.872 131.716 42.976C131.716 42.064 131.956 41.232 132.436 40.48C132.932 39.712 133.676 39.104 134.668 38.656C135.676 38.192 136.948 37.96 138.484 37.96C139.492 37.96 140.492 38.088 141.484 38.344C142.476 38.6 143.34 38.968 144.076 39.448L143.092 41.872C142.34 41.424 141.564 41.096 140.764 40.888C139.964 40.664 139.196 40.552 138.46 40.552C137.596 40.552 136.892 40.656 136.348 40.864C135.82 41.072 135.428 41.344 135.172 41.68C134.932 42.016 134.812 42.4 134.812 42.832C134.812 43.344 134.988 43.76 135.34 44.08C135.708 44.384 136.18 44.624 136.756 44.8C137.348 44.976 138.004 45.152 138.724 45.328C139.444 45.488 140.156 45.672 140.86 45.88C141.58 46.088 142.228 46.36 142.804 46.696C143.396 47.032 143.868 47.488 144.22 48.064C144.588 48.64 144.772 49.368 144.772 50.248C144.772 51.144 144.524 51.976 144.028 52.744C143.548 53.496 142.804 54.104 141.796 54.568C140.788 55.016 139.516 55.24 137.98 55.24ZM152.401 55.168C150.993 55.168 149.905 54.808 149.137 54.088C148.369 53.352 147.985 52.272 147.985 50.848V39.352H150.985V50.776C150.985 51.384 151.137 51.856 151.441 52.192C151.761 52.528 152.201 52.696 152.761 52.696C153.433 52.696 153.993 52.52 154.441 52.168L155.281 54.304C154.929 54.592 154.497 54.808 153.985 54.952C153.473 55.096 152.945 55.168 152.401 55.168ZM145.873 44.68V42.28H154.417V44.68H145.873ZM163.087 55.168C161.775 55.168 160.607 54.888 159.583 54.328C158.559 53.752 157.751 52.968 157.159 51.976C156.567 50.984 156.271 49.856 156.271 48.592C156.271 47.312 156.567 46.184 157.159 45.208C157.751 44.216 158.559 43.44 159.583 42.88C160.607 42.32 161.775 42.04 163.087 42.04C164.415 42.04 165.591 42.32 166.615 42.88C167.655 43.44 168.463 44.208 169.039 45.184C169.631 46.16 169.927 47.296 169.927 48.592C169.927 49.856 169.631 50.984 169.039 51.976C168.463 52.968 167.655 53.752 166.615 54.328C165.591 54.888 164.415 55.168 163.087 55.168ZM163.087 52.6C163.823 52.6 164.479 52.44 165.055 52.12C165.631 51.8 166.079 51.336 166.399 50.728C166.735 50.12 166.903 49.408 166.903 48.592C166.903 47.76 166.735 47.048 166.399 46.456C166.079 45.848 165.631 45.384 165.055 45.064C164.479 44.744 163.831 44.584 163.111 44.584C162.375 44.584 161.719 44.744 161.143 45.064C160.583 45.384 160.135 45.848 159.799 46.456C159.463 47.048 159.295 47.76 159.295 48.592C159.295 49.408 159.463 50.12 159.799 50.728C160.135 51.336 160.583 51.8 161.143 52.12C161.719 52.44 162.367 52.6 163.087 52.6ZM172.796 55V42.184H175.652V45.712L175.316 44.68C175.7 43.816 176.3 43.16 177.116 42.712C177.948 42.264 178.98 42.04 180.212 42.04V44.896C180.084 44.864 179.964 44.848 179.852 44.848C179.74 44.832 179.628 44.824 179.516 44.824C178.38 44.824 177.476 45.16 176.804 45.832C176.132 46.488 175.796 47.472 175.796 48.784V55H172.796ZM188.664 55.168C187.24 55.168 185.992 54.888 184.92 54.328C183.864 53.752 183.04 52.968 182.448 51.976C181.872 50.984 181.584 49.856 181.584 48.592C181.584 47.312 181.864 46.184 182.424 45.208C183 44.216 183.784 43.44 184.776 42.88C185.784 42.32 186.928 42.04 188.208 42.04C189.456 42.04 190.568 42.312 191.544 42.856C192.52 43.4 193.288 44.168 193.848 45.16C194.408 46.152 194.688 47.32 194.688 48.664C194.688 48.792 194.68 48.936 194.664 49.096C194.664 49.256 194.656 49.408 194.64 49.552H183.96V47.56H193.056L191.88 48.184C191.896 47.448 191.744 46.8 191.424 46.24C191.104 45.68 190.664 45.24 190.104 44.92C189.56 44.6 188.928 44.44 188.208 44.44C187.472 44.44 186.824 44.6 186.264 44.92C185.72 45.24 185.288 45.688 184.968 46.264C184.664 46.824 184.512 47.488 184.512 48.256V48.736C184.512 49.504 184.688 50.184 185.04 50.776C185.392 51.368 185.888 51.824 186.528 52.144C187.168 52.464 187.904 52.624 188.736 52.624C189.456 52.624 190.104 52.512 190.68 52.288C191.256 52.064 191.768 51.712 192.216 51.232L193.824 53.08C193.248 53.752 192.52 54.272 191.64 54.64C190.776 54.992 189.784 55.168 188.664 55.168Z" fill="white"/>
</svg>
