<svg width="257" height="120" viewBox="0 0 257 120" fill="none" xmlns="http://www.w3.org/2000/svg">
<path d="M256.267 88.726C256.267 86.3855 254.363 84.4822 252.023 84.4822H186.244C183.903 84.4822 182 86.3855 182 88.726C182 91.0665 183.903 92.9698 186.244 92.9698H252.023C254.363 92.9698 256.267 91.0665 256.267 88.726Z" fill="#3F3D56"/>
<path d="M219.672 73.7773C234.278 73.7773 246.118 62.1865 246.118 47.8886C246.118 33.5907 234.278 22 219.672 22C205.067 22 193.227 33.5907 193.227 47.8886C193.227 62.1865 205.067 73.7773 219.672 73.7773Z" fill="#6C63FF"/>
<path d="M217.719 58.5779C217.7 58.5779 217.68 58.5779 217.66 58.5768C216.957 58.5572 216.308 58.1904 215.93 57.5967L206.966 43.5391C206.336 42.5507 206.626 41.239 207.614 40.6091C208.602 39.9822 209.913 40.2692 210.544 41.2577L217.824 52.6743L231.503 33.6445C232.189 32.6923 233.517 32.4779 234.465 33.1596C235.417 33.8434 235.633 35.1696 234.949 36.1207L219.442 57.6941C219.043 58.2494 218.401 58.5779 217.719 58.5779V58.5779Z" fill="white"/>
<path d="M116.141 68.9187L128.961 85.3717L122.905 211.527L75.4709 210.518L67.3969 100.511L77.4888 72.2517L81.1408 65.9187L85.5082 57.7188L113.508 59.7188L116.141 68.9187H116.141V68.9187Z" fill="#E6E6E6"/>
<path d="M135.079 146.936L132.516 172.719L135.665 202.388L139.602 210.432L148.602 242.432C148.602 242.432 157.787 256.426 137.602 257.432C117.417 258.438 51.2564 251.891 51.2564 251.891C51.2564 251.891 43.0075 251.687 46.6024 234.432C52.4095 224.452 48.6653 210.388 48.6653 210.388L56.3024 182.253L54.2844 156.013L40.1544 87.3837C52.7032 77.5222 66.7586 70.464 82.0384 65.6837L95.4209 100.874L115.346 68.7117L122.915 74.2627C133.125 76.9398 142.109 81.0566 149.215 87.3827L135.079 146.936Z" fill="#2F2E41"/>
<path d="M102.013 56.5521C88.1788 56.5521 76.9639 45.3372 76.9639 31.5028C76.9639 17.6685 88.1788 6.45349 102.013 6.45349C115.848 6.45349 127.062 17.6685 127.062 31.5028C127.062 45.3372 115.848 56.5521 102.013 56.5521Z" fill="#FFB6B6"/>
<path d="M83.6129 52.0843C82.2331 52.3196 80.6133 48.9752 79.0655 45.718C75.8252 38.8994 73.7653 34.5648 73.6086 28.4377C73.475 23.2158 74.9257 24.5863 76.337 12.9765C76.8025 9.14727 83.3444 9.15464 84.6759 7.33634C86.925 4.26494 83.4742 2.99825 89.0698 1.15319C99.5509 -2.30268 104.29 3.06589 110.947 3.5284C111.115 3.5401 114.415 6.76709 116.257 6.93396C119.486 7.22632 124.144 6.72339 126.232 1.80401C128.185 -2.79568 129.478 10.6456 127.733 12.309C126.251 13.7213 123.695 17.2661 123.63 17.5239C123.556 17.8157 129.708 11.0016 130.734 13.8097C131.473 15.8306 129.147 26.228 127.268 26.6188C125.697 26.9455 121.854 21.7661 122.721 23.8903C124.732 28.8168 112.64 31.9602 98.1647 22.0714C97.6513 21.7206 98.1362 22.28 96.3457 26.6188C94.0874 32.091 93.5778 32.3874 93.6172 33.8947C93.7026 37.1574 96.1523 38.118 95.4362 40.261C94.8562 41.9967 92.5897 43.3404 90.8888 42.9895C88.9693 42.5934 88.6402 40.2188 87.2508 40.261C86.0607 40.2972 84.6482 42.0898 84.5224 43.899C84.2573 47.7104 89.8999 48.7587 90.8888 53.9033C91.4468 56.8067 84.8808 51.8682 83.6129 52.0843Z" fill="#2F2E41"/>
<path d="M56.5938 134.432L45.5938 168.432L42.4358 237.873L24.0223 237.497L22.5938 161.432C22.5938 161.432 31.7706 105.227 34.8434 92.5936C37.9163 79.9607 66.25 84.6424 66.25 84.6424L56.5938 134.432V134.432V134.432Z" fill="#2F2E41"/>
<path d="M129.604 130.135L123.868 79.7427C123.868 79.7427 152.481 77.2894 154.557 90.1237C156.634 102.958 161.391 159.709 161.391 159.709L154.023 235.429L135.636 234.365L137.914 164.89L129.604 130.135V130.135Z" fill="#2F2E41"/>
</svg>
