<svg width="20" height="20" viewBox="0 0 20 20" fill="none" xmlns="http://www.w3.org/2000/svg">
<path d="M14.5407 2.81568C15.629 2.21157 16.4811 1.26459 16.9862 0.143218C17.0722 -0.0477399 17.3468 -0.0477392 17.4328 0.143219C17.9378 1.2646 18.79 2.21156 19.8783 2.81568C20.0406 2.90578 20.0406 3.13638 19.8783 3.22648C18.79 3.8306 17.9378 4.77758 17.4328 5.89894C17.3468 6.0899 17.0722 6.0899 16.9862 5.89894C16.4811 4.77756 15.629 3.83059 14.5407 3.22648C14.3784 3.13638 14.3784 2.90578 14.5407 2.81568Z" fill="#686868"/>
<path d="M10.0408 0.636423C9.68078 -0.16301 8.53107 -0.163002 8.17103 0.636423L7.1156 2.97993C6.14159 5.14263 4.48649 6.93749 2.39626 8.09779L0.521498 9.13847C-0.173835 9.52445 -0.173831 10.5124 0.521498 10.8984L2.39626 11.9391C4.48649 13.0994 6.14159 14.8942 7.1156 17.0569L8.17103 19.4004C8.53107 20.1999 9.68079 20.1999 10.0408 19.4004L11.0963 17.0569C12.0703 14.8942 13.7254 13.0994 15.8156 11.9391L17.6904 10.8984C18.3857 10.5124 18.3857 9.52445 17.6904 9.13847L15.8156 8.09779C13.7254 6.93749 12.0703 5.14263 11.0963 2.97993L10.0408 0.636423Z" fill="#686868"/>
</svg>
