<svg width="25" height="19" viewBox="0 0 25 19" fill="none" xmlns="http://www.w3.org/2000/svg">
<path d="M21.1139 0.605758C21.546 0.212926 22.1208 -0.00424764 22.7173 6.29633e-05C23.3138 0.00437357 23.8852 0.229832 24.3109 0.628863C24.7366 1.02789 24.9834 1.56929 24.9992 2.1388C25.015 2.70832 24.7985 3.26141 24.3954 3.68137L12.1589 18.2979C11.9485 18.5143 11.6946 18.688 11.4123 18.8086C11.13 18.9292 10.8251 18.9942 10.5159 18.9996C10.2067 19.0051 9.89953 18.951 9.61274 18.8404C9.32595 18.7299 9.06544 18.5653 8.84679 18.3564L0.732068 10.6059C0.506086 10.4048 0.324832 10.1622 0.199119 9.89276C0.0734051 9.62328 0.00580698 9.33238 0.000357955 9.0374C-0.00509107 8.74243 0.0517208 8.44943 0.167403 8.17588C0.283086 7.90233 0.455269 7.65384 0.673682 7.44523C0.892095 7.23662 1.15226 7.07216 1.43866 6.96167C1.72507 6.85118 2.03183 6.79692 2.34067 6.80212C2.6495 6.80733 2.95408 6.87189 3.23622 6.99196C3.51836 7.11203 3.77229 7.28515 3.98286 7.50099L10.4047 13.6317L21.0557 0.6702C21.0748 0.647649 21.0953 0.626134 21.117 0.605758H21.1139Z" fill="#385AD4"/>
</svg>
