<svg width="24" height="24" viewBox="0 0 24 24" fill="none" xmlns="http://www.w3.org/2000/svg">
<rect width="24" height="24" rx="4" fill="#F8F8F8"/>
<path fill-rule="evenodd" clip-rule="evenodd" d="M8.88889 5C8.45933 5 8.11111 5.34822 8.11111 5.77778V6.55556H6.55556C5.69645 6.55556 5 7.252 5 8.11111V17.4444C5 18.3036 5.69645 19 6.55556 19H17.4444C18.3036 19 19 18.3036 19 17.4444V8.11111C19 7.252 18.3036 6.55556 17.4444 6.55556H15.8889V5.77778C15.8889 5.34822 15.5407 5 15.1111 5C14.6816 5 14.3333 5.34822 14.3333 5.77778V6.55556H9.66667V5.77778C9.66667 5.34822 9.31844 5 8.88889 5ZM17.4444 8.11111V10.4444H6.55556V8.11111L17.4444 8.11111ZM6.55556 12V17.4444H17.4444V12H6.55556Z" fill="#5276F9"/>
</svg>
