<svg width="14" height="14" viewBox="0 0 14 14" fill="none" xmlns="http://www.w3.org/2000/svg">
<path fill-rule="evenodd" clip-rule="evenodd" d="M3.88889 0C3.45933 0 3.11111 0.348223 3.11111 0.777778V1.55556H1.55556C0.696446 1.55556 0 2.252 0 3.11111V12.4444C0 13.3036 0.696446 14 1.55556 14H12.4444C13.3036 14 14 13.3036 14 12.4444V3.11111C14 2.252 13.3036 1.55556 12.4444 1.55556H10.8889V0.777778C10.8889 0.348223 10.5407 0 10.1111 0C9.68156 0 9.33333 0.348223 9.33333 0.777778V1.55556H4.66667V0.777778C4.66667 0.348223 4.31844 0 3.88889 0ZM12.4444 3.11111V5.44444H1.55556V3.11111L12.4444 3.11111ZM1.55556 7V12.4444H12.4444V7H1.55556Z" fill="#5276F9"/>
</svg>
