<svg width="16" height="18" viewBox="0 0 16 18" fill="none" xmlns="http://www.w3.org/2000/svg">
<path d="M8 14.7C8.15823 14.7 8.3129 14.6531 8.44446 14.5652C8.57602 14.4773 8.67855 14.3524 8.7391 14.2062C8.79965 14.06 8.8155 13.8992 8.78463 13.744C8.75376 13.5888 8.67757 13.4462 8.56569 13.3344C8.4538 13.2225 8.31126 13.1463 8.15607 13.1154C8.00089 13.0846 7.84003 13.1004 7.69385 13.1609C7.54767 13.2215 7.42273 13.324 7.33482 13.4556C7.24692 13.5872 7.2 13.7418 7.2 13.9C7.2 14.1122 7.28429 14.3157 7.43431 14.4657C7.58434 14.6158 7.78783 14.7 8 14.7ZM12 14.7C12.1582 14.7 12.3129 14.6531 12.4445 14.5652C12.576 14.4773 12.6786 14.3524 12.7391 14.2062C12.7997 14.06 12.8155 13.8992 12.7846 13.744C12.7538 13.5888 12.6776 13.4462 12.5657 13.3344C12.4538 13.2225 12.3113 13.1463 12.1561 13.1154C12.0009 13.0846 11.84 13.1004 11.6939 13.1609C11.5477 13.2215 11.4227 13.324 11.3348 13.4556C11.2469 13.5872 11.2 13.7418 11.2 13.9C11.2 14.1122 11.2843 14.3157 11.4343 14.4657C11.5843 14.6158 11.7878 14.7 12 14.7ZM12 11.5C12.1582 11.5 12.3129 11.4531 12.4445 11.3652C12.576 11.2773 12.6786 11.1524 12.7391 11.0062C12.7997 10.86 12.8155 10.6992 12.7846 10.544C12.7538 10.3888 12.6776 10.2462 12.5657 10.1344C12.4538 10.0225 12.3113 9.94629 12.1561 9.91542C12.0009 9.88455 11.84 9.9004 11.6939 9.96095C11.5477 10.0215 11.4227 10.124 11.3348 10.2556C11.2469 10.3872 11.2 10.5418 11.2 10.7C11.2 10.9122 11.2843 11.1157 11.4343 11.2657C11.5843 11.4158 11.7878 11.5 12 11.5ZM8 11.5C8.15823 11.5 8.3129 11.4531 8.44446 11.3652C8.57602 11.2773 8.67855 11.1524 8.7391 11.0062C8.79965 10.86 8.8155 10.6992 8.78463 10.544C8.75376 10.3888 8.67757 10.2462 8.56569 10.1344C8.4538 10.0225 8.31126 9.94629 8.15607 9.91542C8.00089 9.88455 7.84003 9.9004 7.69385 9.96095C7.54767 10.0215 7.42273 10.124 7.33482 10.2556C7.24692 10.3872 7.2 10.5418 7.2 10.7C7.2 10.9122 7.28429 11.1157 7.43431 11.2657C7.58434 11.4158 7.78783 11.5 8 11.5ZM13.6 1.90005H12.8V1.10005C12.8 0.887876 12.7157 0.684392 12.5657 0.534363C12.4157 0.384334 12.2122 0.300049 12 0.300049C11.7878 0.300049 11.5843 0.384334 11.4343 0.534363C11.2843 0.684392 11.2 0.887876 11.2 1.10005V1.90005H4.8V1.10005C4.8 0.887876 4.71571 0.684392 4.56569 0.534363C4.41566 0.384334 4.21217 0.300049 4 0.300049C3.78783 0.300049 3.58434 0.384334 3.43431 0.534363C3.28429 0.684392 3.2 0.887876 3.2 1.10005V1.90005H2.4C1.76348 1.90005 1.15303 2.15291 0.702944 2.60299C0.252856 3.05308 0 3.66353 0 4.30005V15.5C0 16.1366 0.252856 16.747 0.702944 17.1971C1.15303 17.6472 1.76348 17.9 2.4 17.9H13.6C14.2365 17.9 14.847 17.6472 15.2971 17.1971C15.7471 16.747 16 16.1366 16 15.5V4.30005C16 3.66353 15.7471 3.05308 15.2971 2.60299C14.847 2.15291 14.2365 1.90005 13.6 1.90005ZM14.4 15.5C14.4 15.7122 14.3157 15.9157 14.1657 16.0657C14.0157 16.2158 13.8122 16.3 13.6 16.3H2.4C2.18783 16.3 1.98434 16.2158 1.83431 16.0657C1.68429 15.9157 1.6 15.7122 1.6 15.5V8.30005H14.4V15.5ZM14.4 6.70005H1.6V4.30005C1.6 4.08788 1.68429 3.88439 1.83431 3.73436C1.98434 3.58433 2.18783 3.50005 2.4 3.50005H3.2V4.30005C3.2 4.51222 3.28429 4.7157 3.43431 4.86573C3.58434 5.01576 3.78783 5.10005 4 5.10005C4.21217 5.10005 4.41566 5.01576 4.56569 4.86573C4.71571 4.7157 4.8 4.51222 4.8 4.30005V3.50005H11.2V4.30005C11.2 4.51222 11.2843 4.7157 11.4343 4.86573C11.5843 5.01576 11.7878 5.10005 12 5.10005C12.2122 5.10005 12.4157 5.01576 12.5657 4.86573C12.7157 4.7157 12.8 4.51222 12.8 4.30005V3.50005H13.6C13.8122 3.50005 14.0157 3.58433 14.1657 3.73436C14.3157 3.88439 14.4 4.08788 14.4 4.30005V6.70005ZM4 11.5C4.15823 11.5 4.3129 11.4531 4.44446 11.3652C4.57602 11.2773 4.67855 11.1524 4.7391 11.0062C4.79965 10.86 4.8155 10.6992 4.78463 10.544C4.75376 10.3888 4.67757 10.2462 4.56569 10.1344C4.4538 10.0225 4.31126 9.94629 4.15607 9.91542C4.00089 9.88455 3.84003 9.9004 3.69385 9.96095C3.54767 10.0215 3.42273 10.124 3.33482 10.2556C3.24692 10.3872 3.2 10.5418 3.2 10.7C3.2 10.9122 3.28429 11.1157 3.43431 11.2657C3.58434 11.4158 3.78783 11.5 4 11.5ZM4 14.7C4.15823 14.7 4.3129 14.6531 4.44446 14.5652C4.57602 14.4773 4.67855 14.3524 4.7391 14.2062C4.79965 14.06 4.8155 13.8992 4.78463 13.744C4.75376 13.5888 4.67757 13.4462 4.56569 13.3344C4.4538 13.2225 4.31126 13.1463 4.15607 13.1154C4.00089 13.0846 3.84003 13.1004 3.69385 13.1609C3.54767 13.2215 3.42273 13.324 3.33482 13.4556C3.24692 13.5872 3.2 13.7418 3.2 13.9C3.2 14.1122 3.28429 14.3157 3.43431 14.4657C3.58434 14.6158 3.78783 14.7 4 14.7Z" fill="#686868"/>
</svg>
