<svg width="24" height="24" viewBox="0 0 24 24" fill="none" xmlns="http://www.w3.org/2000/svg">
<rect width="24" height="24" rx="4" fill="#F8F8F8"/>
<path d="M6 9.5C6 8.67157 6.67157 8 7.5 8H16.5C17.3284 8 18 8.67157 18 9.5V9.5C18 10.7426 16.9926 11.75 15.75 11.75H8.25C7.00736 11.75 6 10.7426 6 9.5V9.5Z" stroke="#5276F9" stroke-width="1.5" stroke-linecap="round" stroke-linejoin="round"/>
<path d="M9.75 7C9.75 5.89543 10.6454 5 11.75 5H12.25C13.3546 5 14.25 5.89543 14.25 7V8H9.75V7Z" stroke="#5276F9" stroke-width="1.5" stroke-linecap="round" stroke-linejoin="round"/>
<rect x="6" y="8" width="12" height="9" rx="2" stroke="#5276F9" stroke-width="1.5" stroke-linecap="round" stroke-linejoin="round"/>
<path d="M9.75 11V12.5" stroke="#5276F9" stroke-width="1.5" stroke-linecap="round" stroke-linejoin="round"/>
<path d="M14.25 11V12.5" stroke="#5276F9" stroke-width="1.5" stroke-linecap="round" stroke-linejoin="round"/>
</svg>
