<svg width="18" height="18" viewBox="0 0 18 18" fill="none" xmlns="http://www.w3.org/2000/svg">
<path d="M3 7.5C3 6.67157 3.67157 6 4.5 6H13.5C14.3284 6 15 6.67157 15 7.5V7.5C15 8.74264 13.9926 9.75 12.75 9.75H5.25C4.00736 9.75 3 8.74264 3 7.5V7.5Z" stroke="#5276F9" stroke-width="1.5" stroke-linecap="round" stroke-linejoin="round"/>
<path d="M6.75 5C6.75 3.89543 7.64543 3 8.75 3H9.25C10.3546 3 11.25 3.89543 11.25 5V6H6.75V5Z" stroke="#5276F9" stroke-width="1.5" stroke-linecap="round" stroke-linejoin="round"/>
<rect x="3" y="6" width="12" height="9" rx="2" stroke="#5276F9" stroke-width="1.5" stroke-linecap="round" stroke-linejoin="round"/>
<path d="M6.75 9V10.5" stroke="#5276F9" stroke-width="1.5" stroke-linecap="round" stroke-linejoin="round"/>
<path d="M11.25 9V10.5" stroke="#5276F9" stroke-width="1.5" stroke-linecap="round" stroke-linejoin="round"/>
</svg>
