<svg width="45" height="30" viewBox="0 0 45 30" fill="none" xmlns="http://www.w3.org/2000/svg">
<path d="M3.00001 30C2.29168 30 1.69751 29.76 1.21751 29.28C0.737508 28.8 0.498342 28.2067 0.500009 27.5C0.500009 26.7917 0.740009 26.1975 1.22001 25.7175C1.70001 25.2375 2.29334 24.9983 3.00001 25H30.5C31.2083 25 31.8025 25.24 32.2825 25.72C32.7625 26.2 33.0017 26.7933 33 27.5C33 28.2083 32.76 28.8025 32.28 29.2825C31.8 29.7625 31.2067 30.0017 30.5 30H3.00001ZM3.00001 17.5C2.29168 17.5 1.69751 17.26 1.21751 16.78C0.737508 16.3 0.498342 15.7067 0.500009 15C0.500009 14.2917 0.740009 13.6975 1.22001 13.2175C1.70001 12.7375 2.29334 12.4983 3.00001 12.5H23C23.7083 12.5 24.3025 12.74 24.7825 13.22C25.2625 13.7 25.5017 14.2933 25.5 15C25.5 15.7083 25.26 16.3025 24.78 16.7825C24.3 17.2625 23.7067 17.5017 23 17.5H3.00001ZM3.00001 5.00001C2.29168 5.00001 1.69751 4.76001 1.21751 4.28001C0.737508 3.80001 0.498342 3.20668 0.500009 2.50001C0.500009 1.79168 0.740009 1.19751 1.22001 0.717509C1.70001 0.237509 2.29334 -0.00165802 3.00001 8.6505e-06H30.5C31.2083 8.6505e-06 31.8025 0.240009 32.2825 0.720009C32.7625 1.20001 33.0017 1.79334 33 2.50001C33 3.20834 32.76 3.80251 32.28 4.28251C31.8 4.76251 31.2067 5.00168 30.5 5.00001H3.00001ZM36.5 15L43.75 22.25C44.2083 22.7083 44.4375 23.2917 44.4375 24C44.4375 24.7083 44.2083 25.2917 43.75 25.75C43.2917 26.2083 42.7083 26.4375 42 26.4375C41.2917 26.4375 40.7083 26.2083 40.25 25.75L31.25 16.75C30.75 16.25 30.5 15.6667 30.5 15C30.5 14.3333 30.75 13.75 31.25 13.25L40.25 4.25001C40.7083 3.79167 41.2917 3.56251 42 3.56251C42.7083 3.56251 43.2917 3.79167 43.75 4.25001C44.2083 4.70834 44.4375 5.29167 44.4375 6.00001C44.4375 6.70834 44.2083 7.29168 43.75 7.75001L36.5 15Z" fill="white"/>
</svg>
