<svg width="30" height="30" viewBox="0 0 30 30" fill="none" xmlns="http://www.w3.org/2000/svg">
<rect x="1" y="1" width="28" height="28" rx="4" fill="white" stroke="#385AD4" stroke-width="2"/>
<path d="M21.202 7.44635C21.5131 7.15689 21.927 6.99687 22.3565 7.00005C22.7859 7.00322 23.1973 7.16935 23.5038 7.46337C23.8104 7.7574 23.9881 8.15632 23.9994 8.57596C24.0108 8.9956 23.8549 9.40315 23.5647 9.71259L14.7544 20.4826C14.6029 20.6421 14.4201 20.7701 14.2168 20.859C14.0136 20.9478 13.7941 20.9957 13.5714 20.9997C13.3488 21.0038 13.1277 20.9639 12.9212 20.8824C12.7147 20.801 12.5271 20.6797 12.3697 20.5258L6.52709 14.8149C6.36438 14.6667 6.23388 14.488 6.14337 14.2894C6.05285 14.0908 6.00418 13.8765 6.00026 13.6591C5.99633 13.4418 6.03724 13.2259 6.12053 13.0243C6.20382 12.8228 6.32779 12.6397 6.48505 12.486C6.64231 12.3322 6.82963 12.2111 7.03584 12.1297C7.24205 12.0482 7.46292 12.0083 7.68528 12.0121C7.90764 12.0159 8.12693 12.0635 8.33008 12.152C8.53322 12.2404 8.71605 12.368 8.86766 12.527L13.4914 17.0444L21.1601 7.49383C21.1739 7.47721 21.1886 7.46136 21.2042 7.44635H21.202Z" fill="#385AD4"/>
</svg>
