<svg width="219" height="219" viewBox="0 0 219 219" fill="none" xmlns="http://www.w3.org/2000/svg">
<path d="M219 167.491H0V167.601H219V167.491Z" fill="#EBEBEB"/>
<path d="M197.056 171.661H157.242V171.771H197.056V171.661Z" fill="#EBEBEB"/>
<path d="M145.074 170.474H134.172V170.584H145.074V170.474Z" fill="#EBEBEB"/>
<path d="M169.988 175.73H153.086V175.839H169.988V175.73Z" fill="#EBEBEB"/>
<path d="M32.8929 174.994H22.9766V175.104H32.8929V174.994Z" fill="#EBEBEB"/>
<path d="M48.5669 174.994H36.7891V175.104H48.5669V174.994Z" fill="#EBEBEB"/>
<path d="M98.6175 173.146H78.1016V173.255H98.6175V173.146Z" fill="#EBEBEB"/>
<path d="M103.804 147.956H19.231C18.5684 147.955 17.9334 147.691 17.4653 147.222C16.9973 146.754 16.7344 146.118 16.7344 145.456V26.5692C16.7401 25.9104 17.0056 25.2806 17.473 24.8164C17.9405 24.3522 18.5722 24.0912 19.231 24.0901H103.804C104.468 24.0901 105.104 24.3536 105.573 24.8226C106.042 25.2916 106.305 25.9278 106.305 26.5911V145.456C106.305 146.119 106.042 146.755 105.573 147.224C105.104 147.693 104.468 147.956 103.804 147.956ZM19.231 24.1777C18.5975 24.1788 17.9903 24.4313 17.5428 24.8797C17.0952 25.328 16.8439 25.9357 16.8439 26.5692V145.456C16.8439 146.089 17.0952 146.697 17.5428 147.145C17.9903 147.593 18.5975 147.846 19.231 147.847H103.804C104.438 147.846 105.046 147.593 105.494 147.145C105.942 146.697 106.195 146.089 106.196 145.456V26.5692C106.195 25.9353 105.942 25.3277 105.494 24.8794C105.046 24.4312 104.438 24.1788 103.804 24.1777H19.231Z" fill="#EBEBEB"/>
<path d="M198.548 147.956H113.97C113.307 147.955 112.671 147.691 112.203 147.223C111.734 146.754 111.47 146.118 111.469 145.456V26.5692C111.476 25.91 111.742 25.2802 112.21 24.8161C112.678 24.3521 113.311 24.0912 113.97 24.0901H198.548C199.206 24.0924 199.836 24.3539 200.303 24.8179C200.769 25.282 201.034 25.9112 201.04 26.5692V145.456C201.04 146.117 200.777 146.752 200.31 147.221C199.843 147.69 199.209 147.954 198.548 147.956ZM113.97 24.1777C113.336 24.1788 112.728 24.4312 112.28 24.8794C111.832 25.3277 111.579 25.9353 111.578 26.5692V145.456C111.579 146.089 111.832 146.697 112.28 147.145C112.728 147.593 113.336 147.846 113.97 147.847H198.548C199.181 147.846 199.789 147.593 200.237 147.145C200.686 146.697 200.938 146.089 200.939 145.456V26.5692C200.938 25.9353 200.686 25.3277 200.237 24.8794C199.789 24.4312 199.181 24.1788 198.548 24.1777H113.97Z" fill="#EBEBEB"/>
<path d="M22.9765 167.487H75.3438L75.3437 51.6752H22.9765L22.9765 167.487Z" fill="#F0F0F0"/>
<path d="M22.9756 167.487H72.8594L72.8594 51.6752H22.9756L22.9756 167.487Z" fill="#F5F5F5"/>
<path d="M70.2344 164.863V54.3076H25.6065L25.6065 164.863H70.2344Z" fill="#F0F0F0"/>
<path d="M40.0245 106.434H30.9273C30.6175 106.433 30.3207 106.309 30.1016 106.09C29.8825 105.871 29.759 105.574 29.7578 105.265C29.759 104.955 29.8825 104.658 30.1016 104.439C30.3207 104.22 30.6175 104.096 30.9273 104.095H40.0245C40.3343 104.096 40.6311 104.22 40.8502 104.439C41.0693 104.658 41.1928 104.955 41.194 105.265C41.1928 105.574 41.0693 105.871 40.8502 106.09C40.6311 106.309 40.3343 106.433 40.0245 106.434Z" fill="white"/>
<path d="M26.2891 164.863L26.2891 54.3076H25.6058L25.6058 164.863H26.2891Z" fill="#F0F0F0"/>
<path d="M99.8755 165.292H107.672V131.479H99.8755V165.292Z" fill="#F0F0F0"/>
<path d="M67.7242 167.439H106.172V165.297H67.7242V167.439Z" fill="#F0F0F0"/>
<path d="M99.8737 131.483H66.2266V165.297H99.8737V131.483Z" fill="#F5F5F5"/>
<path d="M96.8042 135.644H69.2891V146.734H96.8042V135.644Z" fill="#F0F0F0"/>
<path d="M96.8042 150.041H69.2891V161.131H96.8042V150.041Z" fill="#F0F0F0"/>
<path d="M79.9609 136.577H86.141C86.3417 136.576 86.5337 136.496 86.6756 136.354C86.8174 136.212 86.8976 136.02 86.8988 135.819C86.8988 135.618 86.8191 135.425 86.6771 135.282C86.5351 135.139 86.3424 135.059 86.141 135.057H79.9609C79.7595 135.059 79.5668 135.139 79.4248 135.282C79.2828 135.425 79.2031 135.618 79.2031 135.819C79.2043 136.02 79.2845 136.212 79.4263 136.354C79.5682 136.496 79.7603 136.576 79.9609 136.577Z" fill="#F5F5F5"/>
<path d="M79.9609 150.979H86.141C86.3394 150.978 86.5295 150.899 86.671 150.76C86.8125 150.621 86.8942 150.432 86.8988 150.234C86.8976 150.033 86.8174 149.841 86.6756 149.7C86.5337 149.558 86.3417 149.477 86.141 149.476H79.9609C79.7603 149.477 79.5682 149.558 79.4263 149.7C79.2845 149.841 79.2043 150.033 79.2031 150.234C79.2077 150.432 79.2894 150.621 79.4309 150.76C79.5724 150.899 79.7625 150.978 79.9609 150.979Z" fill="#F5F5F5"/>
<path d="M85.6172 130.818C85.4642 130.816 85.3178 130.755 85.2097 130.647C85.1015 130.539 85.0402 130.392 85.0391 130.239V112.671C85.0391 112.518 85.1 112.371 85.2084 112.262C85.3168 112.154 85.4639 112.093 85.6172 112.093C85.7702 112.094 85.9166 112.155 86.0248 112.264C86.133 112.372 86.1942 112.518 86.1954 112.671V130.239C86.1942 130.392 86.133 130.539 86.0248 130.647C85.9166 130.755 85.7702 130.816 85.6172 130.818Z" fill="#F5F5F5"/>
<path d="M91.0217 130.134H80.2031V131.496H91.0217V130.134Z" fill="#F0F0F0"/>
<path d="M88.6094 120.305C88.5335 120.305 88.4606 120.276 88.4065 120.222C88.3524 120.169 88.3215 120.097 88.3203 120.021V111.252C88.3214 111.176 88.3523 111.103 88.4062 111.049C88.4602 110.995 88.5331 110.964 88.6094 110.963C88.6857 110.964 88.7586 110.995 88.8126 111.049C88.8665 111.103 88.8973 111.176 88.8985 111.252V120.012C88.8991 120.05 88.892 120.088 88.8777 120.124C88.8635 120.16 88.8423 120.192 88.8154 120.219C88.7885 120.247 88.7564 120.268 88.721 120.283C88.6857 120.298 88.6477 120.305 88.6094 120.305Z" fill="#F0F0F0"/>
<path d="M77.2031 114.274C77.2031 114.274 77.4177 105.996 85.6171 105.996C93.8165 105.996 94.0267 114.266 94.0267 114.266L77.2031 114.274Z" fill="#F0F0F0"/>
<path d="M148.177 125.969C148.409 125.969 148.646 125.969 148.882 125.991C151.305 126.166 153.583 127.21 155.296 128.932C157.01 130.654 158.044 132.936 158.207 135.36C158.276 136.461 158.167 137.566 157.883 138.632C156.785 142.907 156.255 147.309 156.306 151.723V164.574C156.307 164.797 156.263 165.017 156.178 165.223C156.093 165.429 155.968 165.615 155.811 165.773C155.653 165.93 155.466 166.054 155.26 166.139C155.054 166.223 154.834 166.266 154.611 166.265H113.82V125.969H148.177Z" fill="#F0F0F0"/>
<path d="M103.773 136.021C103.778 134.592 104.087 133.181 104.68 131.881C105.273 130.581 106.136 129.422 107.213 128.483C108.289 127.543 109.553 126.843 110.921 126.431C112.29 126.019 113.73 125.903 115.146 126.091C116.563 126.28 117.922 126.768 119.135 127.524C120.348 128.28 121.385 129.285 122.178 130.474C122.972 131.662 123.502 133.006 123.735 134.416C123.967 135.826 123.897 137.269 123.527 138.649C122.433 142.925 121.904 147.327 121.955 151.741V164.592C121.955 164.814 121.911 165.033 121.826 165.238C121.741 165.443 121.616 165.629 121.459 165.786C121.302 165.942 121.116 166.066 120.911 166.151C120.706 166.235 120.486 166.279 120.264 166.278H107.383C107.161 166.278 106.942 166.234 106.737 166.15C106.533 166.065 106.347 165.941 106.19 165.784C106.034 165.628 105.909 165.442 105.825 165.237C105.74 165.033 105.696 164.813 105.696 164.592V150.97C105.733 146.83 105.209 142.705 104.137 138.706C103.895 137.831 103.773 136.928 103.773 136.021Z" fill="#F5F5F5"/>
<path d="M127.676 166.265H164.297V141.798H127.676V166.265Z" fill="#F0F0F0"/>
<path d="M194.562 147.334H145.546V109.811C145.546 107.794 146.347 105.86 147.773 104.434C149.199 103.008 151.133 102.207 153.15 102.207H186.959C188.975 102.207 190.909 103.008 192.335 104.434C193.761 105.86 194.563 107.794 194.562 109.811V147.334Z" fill="#E0E0E0"/>
<path d="M184.984 147.334H135.968V109.443C135.968 107.523 136.731 105.681 138.088 104.324C139.446 102.966 141.288 102.203 143.208 102.203H177.727C179.647 102.203 181.488 102.966 182.846 104.324C184.204 105.681 184.967 107.523 184.967 109.443V147.334H184.984Z" fill="#F5F5F5"/>
<path d="M161.901 149.529H128.144C127.564 149.529 127.007 149.298 126.596 148.887C126.185 148.477 125.954 147.92 125.954 147.339V141.789C125.954 141.209 126.185 140.651 126.596 140.241C127.007 139.83 127.564 139.599 128.144 139.599H161.901C162.077 139.599 162.245 139.669 162.369 139.793C162.493 139.917 162.562 140.085 162.562 140.261V148.872C162.561 149.046 162.491 149.214 162.367 149.337C162.243 149.46 162.076 149.529 161.901 149.529Z" fill="#E0E0E0"/>
<path d="M198.174 125.969C198.406 125.969 198.638 125.969 198.879 125.991C201.301 126.167 203.577 127.212 205.29 128.933C207.003 130.655 208.036 132.937 208.199 135.36C208.273 136.461 208.163 137.566 207.875 138.632C206.777 142.909 206.247 147.312 206.299 151.728V164.579C206.299 164.801 206.255 165.02 206.17 165.225C206.085 165.43 205.96 165.616 205.803 165.773C205.646 165.929 205.46 166.053 205.254 166.138C205.049 166.222 204.83 166.266 204.608 166.265H163.812V125.969H198.174Z" fill="#F0F0F0"/>
<path d="M153.766 136.021C153.748 133.401 154.754 130.879 156.57 128.99C158.385 127.101 160.866 125.997 163.485 125.911C166.103 125.825 168.651 126.765 170.586 128.531C172.521 130.297 173.69 132.749 173.844 135.364C173.913 136.465 173.804 137.57 173.52 138.636C172.422 142.912 171.891 147.313 171.943 151.728V164.579C171.943 165.026 171.765 165.455 171.449 165.771C171.133 166.087 170.704 166.265 170.257 166.265H157.371C157.149 166.265 156.93 166.221 156.725 166.137C156.521 166.052 156.335 165.928 156.178 165.771C156.022 165.614 155.897 165.429 155.813 165.224C155.728 165.019 155.684 164.8 155.684 164.579V150.97C155.721 146.831 155.198 142.705 154.129 138.706C153.888 137.831 153.766 136.928 153.766 136.021Z" fill="#F5F5F5"/>
<path d="M114.535 167.491H197.452C197.613 167.491 197.772 167.46 197.921 167.398C198.07 167.336 198.204 167.246 198.318 167.132C198.431 167.018 198.521 166.883 198.583 166.734C198.644 166.585 198.675 166.426 198.674 166.265H113.313C113.312 166.426 113.343 166.585 113.404 166.734C113.465 166.883 113.555 167.018 113.669 167.132C113.782 167.246 113.917 167.336 114.066 167.398C114.214 167.46 114.374 167.491 114.535 167.491Z" fill="#E0E0E0"/>
<path d="M163.643 73.5271H190.312V44.4395H163.643V73.5271Z" fill="#E0E0E0"/>
<path d="M162.052 73.5271H189.414V44.4395H162.052V73.5271Z" fill="#F5F5F5"/>
<path d="M187.125 71.2363V46.7302H164.345V71.2363H187.125Z" fill="white"/>
<path d="M175.736 52.7878L181.965 63.5802H169.508L175.736 52.7878Z" fill="#F5F5F5"/>
<path d="M126.229 90.5083H152.898V61.4207H126.229V90.5083Z" fill="#E0E0E0"/>
<path d="M124.638 90.5083H152V61.4207H124.638V90.5083Z" fill="#F5F5F5"/>
<path d="M149.711 88.2178V63.7117H126.931V88.2178H149.711Z" fill="white"/>
<path d="M135.537 80.3337L132.834 75.6515C132.553 75.1628 132.406 74.6087 132.406 74.0449C132.407 73.4811 132.556 72.9273 132.838 72.4392C133.12 71.9511 133.526 71.5458 134.014 71.264C134.502 70.9821 135.056 70.8337 135.62 70.8335H141.038C141.602 70.8342 142.155 70.983 142.644 71.2648C143.132 71.5466 143.537 71.9517 143.82 72.4395C144.102 72.9273 144.252 73.4807 144.253 74.0444C144.255 74.6081 144.108 75.1622 143.828 75.6515L141.126 80.3337C140.844 80.8261 140.437 81.2354 139.947 81.52C139.456 81.8047 138.899 81.9546 138.331 81.9546C137.764 81.9546 137.207 81.8047 136.716 81.52C136.225 81.2354 135.819 80.8261 135.537 80.3337Z" fill="#F5F5F5"/>
<path d="M109.502 187.271C156.404 187.271 194.426 185.051 194.426 182.313C194.426 179.575 156.404 177.355 109.502 177.355C62.5998 177.355 24.5781 179.575 24.5781 182.313C24.5781 185.051 62.5998 187.271 109.502 187.271Z" fill="#F5F5F5"/>
<path d="M138.624 43.4934H37.6562L44.3007 180.999H145.268L138.624 43.4934Z" fill="#385AD4"/>
<path opacity="0.2" d="M138.624 43.4934H37.6562L44.3007 180.999H145.268L138.624 43.4934Z" fill="black"/>
<path d="M139.554 43.4934H38.5859L45.2348 180.999H146.203L139.554 43.4934Z" fill="#385AD4"/>
<path opacity="0.2" d="M134.224 48.1187H43.2031L49.5629 174.784L128.709 174.679L141.863 163.019L134.224 48.1187Z" fill="black"/>
<path d="M134.92 48.1143C135.891 86.0478 138.954 123.899 144.096 161.495C136.884 166.459 129.708 171.423 122.569 176.387H54.4948C48.0695 133.905 44.2983 91.0649 43.2031 48.1143H134.92Z" fill="white"/>
<path d="M144.098 161.495C136.886 166.459 129.71 171.423 122.57 176.387C124.13 169.817 125.755 163.247 127.445 156.677L144.098 161.495Z" fill="#EBEBEB"/>
<path d="M67.8882 59.7036C68.0605 64.3406 68.262 68.9805 68.4927 73.6233H54.5774C54.3438 68.9805 54.1423 64.3406 53.973 59.7036H67.8882ZM69.3074 58.2363H52.4531C52.6488 63.8515 52.8926 69.4696 53.1846 75.0906H70.0432C69.7512 69.4725 69.5074 63.8544 69.3117 58.2363H69.3074Z" fill="#385AD4"/>
<path d="M124.747 64.929H77.0836C77.0398 63.8822 77.0004 62.831 76.9609 61.7842H124.62C124.659 62.831 124.703 63.8822 124.747 64.929Z" fill="#E0E0E0"/>
<path d="M114.679 71.5428H77.3789C77.3307 70.4916 77.2782 69.4448 77.2344 68.3979H114.53C114.58 69.4462 114.629 70.4945 114.679 71.5428Z" fill="#E0E0E0"/>
<path d="M69.2524 86.9649C69.5444 91.6077 69.8699 96.2505 70.2291 100.893H56.3095C55.9503 96.2505 55.6247 91.6077 55.3327 86.9649H69.2524ZM70.6277 85.4976H53.7734C54.118 91.1186 54.5107 96.7396 54.9517 102.361H71.8278C71.3898 96.7425 70.9956 91.1215 70.6452 85.4976H70.6277Z" fill="#385AD4"/>
<path d="M96.0974 92.1946H78.5774C78.5073 91.1434 78.4329 90.0966 78.3672 89.0454H95.8872C95.9529 90.0966 96.023 91.1434 96.0974 92.1946Z" fill="#E0E0E0"/>
<path d="M112.678 92.1946H99.7962C99.7261 91.1434 99.6516 90.0966 99.5859 89.0454H112.468C112.533 90.0966 112.603 91.1434 112.678 92.1946Z" fill="#E0E0E0"/>
<path d="M120.763 98.8128H79.0525C78.9736 97.7616 78.8992 96.7148 78.8203 95.6636H120.531C120.61 96.7148 120.684 97.7616 120.763 98.8128Z" fill="#E0E0E0"/>
<path d="M71.3465 114.239C71.764 118.882 72.2137 123.525 72.6955 128.167H58.7759C58.2941 123.525 57.8444 118.882 57.4268 114.239H71.3465ZM72.6867 112.772H55.8281C56.3245 118.396 56.8676 124.018 57.4575 129.639H74.3161C73.7321 124.015 73.189 118.393 72.6867 112.772Z" fill="#385AD4"/>
<path d="M128.816 122.942H81.1484L81.4638 126.087H129.131L128.816 122.942Z" fill="#E0E0E0"/>
<path d="M117.816 116.324H80.5156C80.612 117.371 80.7083 118.422 80.8091 119.469H118.105C118.008 118.422 117.908 117.384 117.816 116.324Z" fill="#E0E0E0"/>
<path d="M74.1593 141.513C74.7024 146.156 75.2762 150.798 75.8807 155.437H61.961C61.3566 150.801 60.7828 146.159 60.2397 141.513H74.1593ZM75.4733 140.046H58.6016C59.244 145.67 59.9375 151.29 60.6821 156.905H77.5232C76.7844 151.29 76.0909 145.67 75.4427 140.046H75.4733Z" fill="#385AD4"/>
<path d="M131.435 146.73H83.7673C83.6403 145.679 83.5133 144.632 83.3906 143.581H131.054C131.181 144.645 131.303 145.692 131.435 146.73Z" fill="#E0E0E0"/>
<path d="M106.292 153.357H84.5939C84.4581 152.31 84.3267 151.259 84.1953 150.212H105.894C106.025 151.259 106.157 152.31 106.292 153.357Z" fill="#E0E0E0"/>
<path d="M119.252 153.357H109.883C109.747 152.31 109.616 151.259 109.484 150.212H118.853C118.985 151.259 119.134 152.31 119.252 153.357Z" fill="#E0E0E0"/>
<path d="M61.7537 71.6348L61.1361 70.6537C59.787 68.5075 57.0364 66.5934 56.0859 66.0328L56.7955 64.7757C58.6602 65.9081 60.3263 67.3389 61.7274 69.0112C63.8473 66.1247 66.9834 63.142 71.2758 59.9358L72.1824 61.1184C67.601 64.5479 64.3948 67.6884 62.3712 70.7106L61.7537 71.6348Z" fill="#385AD4"/>
<path d="M63.4216 98.9048L62.7778 97.9236C61.3762 95.7774 58.573 93.859 57.6094 93.2984L58.2795 92.0413C60.1798 93.174 61.885 94.6057 63.3297 96.2811C65.3707 93.3903 68.4236 90.4076 72.6328 87.197C72.9438 87.5912 73.2591 87.9854 73.5701 88.384C69.0806 91.8179 65.9577 94.954 64.0173 97.9806C63.8158 98.2872 63.6187 98.5982 63.4216 98.9048Z" fill="#385AD4"/>
<path d="M65.8406 126.249L65.1704 125.268C63.7075 123.122 60.8517 121.203 59.875 120.647C60.0852 120.209 60.313 119.806 60.5145 119.39C62.4444 120.525 64.1852 121.954 65.6741 123.625C67.6407 120.735 70.6148 117.756 74.732 114.541L75.7043 115.728C71.3243 119.162 68.2583 122.298 66.4056 125.325L65.8406 126.249Z" fill="#385AD4"/>
<path d="M109.992 168.831C107.408 168.831 105.919 167.876 104.605 167.036C103.291 166.195 102.161 165.467 99.9794 165.467C97.7981 165.467 96.8258 166.23 95.7965 167.036C94.7672 167.841 93.5057 168.831 90.9215 168.831C88.3373 168.831 86.8481 167.876 85.5385 167.036C84.2289 166.195 83.0988 165.467 80.9132 165.467C78.7276 165.467 77.7596 166.23 76.7303 167.036C75.701 167.841 74.4396 168.831 71.8598 168.831C69.2799 168.831 67.7864 167.876 66.4724 167.036C65.1584 166.195 64.0327 165.467 61.8471 165.467C61.7901 165.029 61.7288 164.627 61.6719 164.206C64.2561 164.206 65.7409 165.161 67.0549 166.002C68.3689 166.843 69.4946 167.57 71.6758 167.57C73.857 167.57 74.8294 166.808 75.8587 166.002C76.888 165.196 78.1538 164.206 80.738 164.206C83.3222 164.206 84.8027 165.161 86.1167 166.002C87.4307 166.843 88.5607 167.57 90.7419 167.57C92.9232 167.57 93.8955 166.808 94.9248 166.002C95.9541 165.196 97.22 164.206 99.8042 164.206C102.388 164.206 103.873 165.161 105.187 166.002C106.501 166.843 107.627 167.57 109.812 167.57C109.869 167.99 109.935 168.411 109.992 168.831Z" fill="#EBEBEB"/>
<path d="M113.698 46.8966C112.217 42.9546 108.796 40.366 105.117 40.366H97.6186C97.0604 40.3612 96.5159 40.1925 96.0526 39.8811C95.5894 39.5697 95.2277 39.1291 95.0125 38.614C94.4824 37.3551 93.596 36.2786 92.4622 35.5167C91.3284 34.7549 89.9967 34.341 88.6308 34.326C87.3095 34.3126 86.0184 34.7213 84.9454 35.4925C83.8725 36.2638 83.0737 37.3573 82.6653 38.614C82.4989 39.1282 82.1723 39.5757 81.7333 39.8909C81.2944 40.2061 80.766 40.3726 80.2256 40.366H72.7314C69.0479 40.366 65.8767 42.9677 64.7817 46.8966L64.3438 48.4603H114.276L113.698 46.8966Z" fill="#263238"/>
<path d="M113.965 50.002H64.8215C64.407 49.9972 64.0098 49.8354 63.7099 49.5493C63.4099 49.2632 63.2296 48.8741 63.2053 48.4603C63.1945 48.2615 63.2245 48.0626 63.2936 47.8758C63.3626 47.6891 63.4691 47.5184 63.6066 47.3744C63.744 47.2304 63.9095 47.116 64.0928 47.0383C64.2762 46.9607 64.4735 46.9214 64.6726 46.9229H113.816C114.23 46.9276 114.627 47.0888 114.926 47.374C115.226 47.6592 115.407 48.0473 115.432 48.4603C115.444 48.6594 115.414 48.8588 115.345 49.0461C115.277 49.2334 115.17 49.4045 115.033 49.5491C114.895 49.6936 114.73 49.8083 114.546 49.8862C114.362 49.9641 114.165 50.0036 113.965 50.002Z" fill="#385AD4"/>
<path opacity="0.2" d="M113.965 50.002H64.8215C64.407 49.9972 64.0098 49.8354 63.7099 49.5493C63.4099 49.2632 63.2296 48.8741 63.2053 48.4603C63.1945 48.2615 63.2245 48.0626 63.2936 47.8758C63.3626 47.6891 63.4691 47.5184 63.6066 47.3744C63.744 47.2304 63.9095 47.116 64.0928 47.0383C64.2762 46.9607 64.4735 46.9214 64.6726 46.9229H113.816C114.23 46.9276 114.627 47.0888 114.926 47.374C115.226 47.6592 115.407 48.0473 115.432 48.4603C115.444 48.6594 115.414 48.8588 115.345 49.0461C115.277 49.2334 115.17 49.4045 115.033 49.5491C114.895 49.6936 114.73 49.8083 114.546 49.8862C114.362 49.9641 114.165 50.0036 113.965 50.002Z" fill="black"/>
<path d="M158.077 179.681H154.867L154.547 172.248H157.757L158.077 179.681Z" fill="#FFC3BD"/>
<path d="M177.346 179.681H174.135L172.523 172.248H175.73L177.346 179.681Z" fill="#FFC3BD"/>
<path d="M173.908 179.309H177.513C177.576 179.308 177.638 179.33 177.687 179.37C177.737 179.41 177.771 179.465 177.784 179.528L178.419 182.383C178.434 182.453 178.432 182.524 178.415 182.593C178.399 182.662 178.366 182.726 178.321 182.78C178.276 182.835 178.22 182.879 178.156 182.909C178.091 182.939 178.021 182.954 177.951 182.953C176.694 182.931 176.08 182.856 174.495 182.856C173.518 182.856 171.508 182.957 170.163 182.957C168.818 182.957 168.639 181.643 169.191 181.507C171.665 180.964 172.594 180.22 173.387 179.506C173.531 179.379 173.716 179.309 173.908 179.309Z" fill="#263238"/>
<path d="M154.893 179.309H158.397C158.46 179.308 158.522 179.33 158.572 179.37C158.621 179.41 158.655 179.465 158.668 179.528L159.303 182.383C159.319 182.45 159.32 182.52 159.305 182.587C159.29 182.654 159.261 182.717 159.219 182.772C159.177 182.826 159.124 182.871 159.063 182.902C159.001 182.933 158.934 182.951 158.865 182.953C157.6 182.931 155.773 182.856 154.183 182.856C152.326 182.856 150.723 182.957 148.542 182.957C147.228 182.957 146.86 181.643 147.412 181.507C149.921 180.955 151.971 180.899 154.139 179.558C154.364 179.409 154.624 179.323 154.893 179.309Z" fill="#263238"/>
<path d="M161.179 62.5991C160.741 64.9468 160.487 67.8551 162.129 69.4232C162.129 69.4232 161.187 71.8059 156.825 71.8059C152.839 71.8059 154.836 69.4232 154.836 69.4232C157.464 68.7968 157.315 65.56 156.86 63.7292L161.179 62.5991Z" fill="#FFC3BD"/>
<path d="M153.586 69.7516C153.674 69.1691 154.698 68.4902 155.864 68.2362C157.029 67.9821 161.505 67.4171 162.872 67.9821C164.238 68.5471 162.635 70.2203 162.635 70.2203L153.586 69.7516Z" fill="#385AD4"/>
<path opacity="0.4" d="M153.586 69.7516C153.674 69.1691 154.698 68.4902 155.864 68.2362C157.029 67.9821 161.505 67.4171 162.872 67.9821C164.238 68.5471 162.635 70.2203 162.635 70.2203L153.586 69.7516Z" fill="white"/>
<path opacity="0.2" d="M154.547 172.252L154.713 176.081H157.924L157.757 172.252H154.547Z" fill="black"/>
<path opacity="0.2" d="M175.734 172.252H172.523L173.356 176.081H176.566L175.734 172.252Z" fill="black"/>
<path d="M168.782 72.314L164.914 74.8982C164.914 74.8982 170.468 84.7751 170.004 86.3562C169.369 88.5112 168.484 93.2197 167.279 95.6112C167.437 96.128 168.238 97.3062 168.685 97.5077C171.751 95.1776 174.848 87.8717 174.734 85.8263C174.467 81.1878 168.782 72.314 168.782 72.314Z" fill="#FFC3BD"/>
<path d="M167.277 95.6198L164.211 95.3833L165.818 98.7603C165.818 98.7603 168.495 98.8785 168.941 96.8331L167.277 95.6198Z" fill="#B55B52"/>
<path d="M182.434 112.089L182.176 112.575L180.441 115.856L118.867 83.299L120.856 79.5322L182.434 112.089Z" fill="#385AD4"/>
<path d="M186.418 104.568L185.148 106.968L184.43 108.326L122.852 75.7697L124.84 72.0029L186.418 104.568Z" fill="#385AD4"/>
<path d="M122.868 75.7586L120.875 79.5208L182.428 112.125L184.421 108.363L122.868 75.7586Z" fill="#385AD4"/>
<path opacity="0.2" d="M122.868 75.7586L120.875 79.5208L182.428 112.125L184.421 108.363L122.868 75.7586Z" fill="black"/>
<path d="M116.213 72.5023L114.422 75.8924L118.868 83.299L124.838 72.0073L116.213 72.5023Z" fill="#385AD4"/>
<path opacity="0.8" d="M116.213 72.5023L114.422 75.8924L118.868 83.299L124.838 72.0073L116.213 72.5023Z" fill="white"/>
<path d="M112.516 72.7168L114.421 75.8923L116.212 72.5022L112.516 72.7168Z" fill="#385AD4"/>
<path d="M161.75 96.9207L163.353 99.9078L165.837 98.7603L164.229 95.3833L161.75 96.9207Z" fill="#B55B52"/>
<path d="M167.862 70.1501C170.897 70.5881 174.375 81.1001 174.375 81.1001L167.998 84.7004C167.998 84.7004 165.19 79.716 163.81 75.993C162.356 72.0992 164.608 69.677 167.862 70.1501Z" fill="#263238"/>
<path opacity="0.2" d="M166.094 73.7548C164.714 72.4934 165.559 77.8939 166.216 81.3498C166.554 82.0243 166.873 82.6375 167.145 83.1499C168.682 80.4343 167.995 75.4937 166.094 73.7548Z" fill="black"/>
<path d="M149.883 70.3166C149.883 70.3166 146.094 80.0051 149.69 98.0508H166.873C166.991 95.4228 165.336 82.5631 167.876 70.1502C165.978 69.7837 164.059 69.5409 162.13 69.4231C159.701 69.2828 157.266 69.2828 154.837 69.4231C153.165 69.5903 151.508 69.889 149.883 70.3166Z" fill="#263238"/>
<path d="M152.528 74.8193L148.2 73.1067C148.2 73.1067 143.216 83.2814 141.63 83.7939C139.497 84.4947 135.117 86.4219 132.463 86.7986C132.13 87.2366 131.613 88.5506 131.696 89.0324C135.354 90.2281 143.137 88.6425 144.749 87.3899C148.446 84.5341 152.528 74.8193 152.528 74.8193Z" fill="#FFC3BD"/>
<path opacity="0.2" d="M153.01 73.6629C152.297 72.016 150.93 71.3284 149.506 71.5693C148.955 73.5884 148.022 78.0254 148.192 84.7093L149.213 85.1998C149.213 85.1998 154.232 76.4792 153.01 73.6629Z" fill="black"/>
<path d="M153.7 72.5109C154.777 75.3841 149.32 83.8375 149.32 83.8375L142.898 80.3335C143.863 77.7043 145.107 75.186 146.608 72.8218C148.864 69.4536 152.513 69.3616 153.7 72.5109Z" fill="#263238"/>
<path d="M132.616 86.7898L128.797 87.6001L130.733 91.1348C131.8 90.6037 132.77 89.8958 133.602 89.0411L132.616 86.7898Z" fill="#FFC3BD"/>
<path d="M126.992 88.4017L128.516 90.5129L130.733 91.1523L128.797 87.6177L126.992 88.4017Z" fill="#FFC3BD"/>
<path d="M153.9 59.222C153.9 59.4804 153.737 59.66 153.567 59.66C153.396 59.66 153.273 59.4323 153.291 59.1738C153.308 58.9154 153.453 58.7358 153.624 58.7358C153.794 58.7358 153.917 58.9636 153.9 59.222Z" fill="#263238"/>
<path d="M154.128 59.2439C153.774 60.0156 153.316 60.7349 152.766 61.3813C152.935 61.5182 153.132 61.6161 153.343 61.6684C153.554 61.7206 153.774 61.7258 153.988 61.6836L154.128 59.2439Z" fill="#ED847E"/>
<path d="M153.573 58.3286C153.55 58.3237 153.528 58.3148 153.507 58.3023C153.49 58.2917 153.476 58.2777 153.464 58.2612C153.453 58.2448 153.445 58.2262 153.441 58.2065C153.437 58.1869 153.436 58.1667 153.44 58.147C153.444 58.1273 153.452 58.1087 153.463 58.0921C153.59 57.887 153.764 57.7149 153.971 57.5901C154.177 57.4652 154.41 57.3911 154.65 57.3738C154.69 57.3759 154.728 57.3927 154.757 57.421C154.785 57.4493 154.802 57.4871 154.804 57.5271C154.804 57.5677 154.788 57.6067 154.759 57.6355C154.73 57.6642 154.691 57.6804 154.65 57.6804C154.464 57.6978 154.284 57.7588 154.125 57.8584C153.966 57.9581 153.832 58.0936 153.735 58.2542C153.719 58.2819 153.695 58.304 153.666 58.3174C153.637 58.3307 153.604 58.3347 153.573 58.3286Z" fill="#263238"/>
<path d="M162.61 58.9987C162.234 62.1611 162.172 64.027 160.477 65.5687C157.924 67.8814 154.091 66.2038 153.513 62.9889C152.996 60.0981 153.701 55.4159 156.881 54.3297C157.581 54.0876 158.331 54.0283 159.06 54.1575C159.789 54.2866 160.473 54.5999 161.047 55.0677C161.621 55.5354 162.066 56.1421 162.339 56.8301C162.613 57.5181 162.706 58.2646 162.61 58.9987Z" fill="#FFC3BD"/>
<path d="M156.239 59.6163C155.131 59.8353 153.362 57.3737 154.807 55.2844C154.076 54.9209 151.689 56.3575 150.791 55.0173C149.893 53.677 152.385 52.963 151.908 51.8286C153.598 52.1746 150.813 54.2858 152.42 54.0799C154.027 53.8741 155.88 50.9044 157.676 52.1221C160.851 54.2551 165.179 50.6986 163.414 55.153C165.577 54.715 167.058 57.273 164.995 59.0469C160.882 62.5728 163.414 63.037 160.808 63.2166C159.502 63.313 156.467 61.7581 156.239 59.6163Z" fill="#263238"/>
<path d="M157.881 60.4441C157.73 60.7603 157.516 61.0429 157.254 61.2754C156.991 61.5078 156.685 61.6854 156.353 61.7976C155.477 62.0998 154.973 61.3158 155.179 60.4529C155.363 59.6733 156.055 58.5783 156.961 58.6571C157.16 58.6765 157.351 58.7456 157.517 58.8579C157.682 58.9702 157.817 59.1222 157.908 59.3C158 59.4777 158.045 59.6756 158.04 59.8755C158.036 60.0754 157.981 60.2709 157.881 60.4441Z" fill="#FFC3BD"/>
<path d="M155.781 98.0508C155.781 98.0508 159.425 122.579 161.423 131.777C163.613 141.851 171.86 175.353 171.86 175.353H177.738C177.738 175.353 172.303 142.652 171.05 132.688C169.697 121.878 166.858 98.0639 166.858 98.0639L155.781 98.0508Z" fill="#385AD4"/>
<path opacity="0.2" d="M155.781 98.0508C155.781 98.0508 159.425 122.579 161.423 131.777C163.613 141.851 171.86 175.353 171.86 175.353H177.738C177.738 175.353 172.303 142.652 171.05 132.688C169.697 121.878 166.858 98.0639 166.858 98.0639L155.781 98.0508Z" fill="white"/>
<path opacity="0.2" d="M160.107 106.627C159.835 106.241 159.59 106.11 159.362 106.189H159.314C159.262 106.212 159.214 106.241 159.17 106.276C159.123 106.314 159.081 106.357 159.043 106.404L158.973 106.491L158.881 106.636C158.805 106.763 158.739 106.896 158.684 107.034C158.648 107.117 158.613 107.205 158.583 107.293C158.552 107.38 158.504 107.516 158.469 107.639C158.434 107.761 158.368 107.972 158.32 108.151C158.32 108.199 158.298 108.243 158.285 108.291C158.272 108.339 158.237 108.493 158.215 108.594C158.193 108.694 158.175 108.769 158.158 108.856C158.119 109.027 158.083 109.207 158.048 109.391C158.013 109.575 157.974 109.789 157.939 109.995C157.939 110.065 157.917 110.135 157.904 110.21C157.86 110.473 157.821 110.74 157.781 111.016C158.754 117.121 159.91 124.121 160.847 129.004C160.891 128.847 160.939 128.68 160.979 128.501C161.17 127.686 161.316 126.861 161.417 126.03C162.244 119.736 161.863 109.137 160.107 106.627Z" fill="black"/>
<path d="M149.694 98.0508C149.694 98.0508 149.256 122.044 149.602 131.834C149.965 142.013 153.522 175.34 153.522 175.34H158.958C158.958 175.34 159.155 142.604 159.396 132.609C159.658 121.712 160.972 98.0508 160.972 98.0508H149.694Z" fill="#385AD4"/>
<path opacity="0.2" d="M149.694 98.0508C149.694 98.0508 149.256 122.044 149.602 131.834C149.965 142.013 153.522 175.34 153.522 175.34H158.958C158.958 175.34 159.155 142.604 159.396 132.609C159.658 121.712 160.972 98.0508 160.972 98.0508H149.694Z" fill="white"/>
<path d="M159.32 173.676C159.342 173.676 159.32 175.45 159.32 175.45H153.052L152.789 173.457L159.32 173.676Z" fill="#263238"/>
<path d="M177.736 173.807C177.763 173.807 178.03 175.45 178.03 175.45H171.569L171 173.566L177.736 173.807Z" fill="#263238"/>
<path d="M172.85 179.869C172.632 179.887 172.414 179.83 172.233 179.707C172.174 179.659 172.128 179.597 172.1 179.526C172.073 179.456 172.064 179.379 172.075 179.304C172.075 179.26 172.087 179.217 172.11 179.18C172.132 179.142 172.164 179.111 172.202 179.089C172.557 178.91 173.595 179.527 173.713 179.615C173.725 179.624 173.734 179.636 173.74 179.65C173.745 179.664 173.747 179.679 173.744 179.694C173.741 179.709 173.735 179.722 173.725 179.733C173.714 179.744 173.701 179.752 173.687 179.755C173.413 179.824 173.132 179.862 172.85 179.869ZM172.373 179.208C172.339 179.2 172.305 179.2 172.272 179.208C172.257 179.217 172.244 179.229 172.236 179.245C172.227 179.26 172.223 179.278 172.224 179.295C172.217 179.346 172.223 179.398 172.241 179.447C172.26 179.495 172.29 179.538 172.329 179.571C172.686 179.737 173.094 179.759 173.468 179.633C173.133 179.422 172.762 179.277 172.373 179.208Z" fill="#385AD4"/>
<path d="M173.673 179.76C173.662 179.763 173.649 179.763 173.638 179.76C173.305 179.58 172.666 178.884 172.731 178.52C172.742 178.464 172.773 178.414 172.816 178.378C172.86 178.343 172.915 178.323 172.972 178.323C173.03 178.314 173.089 178.318 173.145 178.335C173.201 178.352 173.253 178.381 173.296 178.419C173.669 178.722 173.734 179.65 173.734 179.69C173.734 179.703 173.731 179.716 173.725 179.729C173.719 179.741 173.71 179.751 173.699 179.76C173.691 179.761 173.682 179.761 173.673 179.76ZM173.025 178.446H173.012C172.911 178.446 172.902 178.503 172.898 178.525C172.858 178.735 173.266 179.265 173.599 179.514C173.576 179.149 173.443 178.8 173.217 178.511C173.189 178.487 173.157 178.47 173.121 178.46C173.085 178.45 173.048 178.448 173.012 178.454L173.025 178.446Z" fill="#385AD4"/>
<path d="M153.555 179.869C153.28 179.895 153.005 179.825 152.775 179.672C152.725 179.626 152.686 179.569 152.662 179.505C152.637 179.441 152.628 179.372 152.635 179.304C152.635 179.262 152.647 179.222 152.668 179.186C152.69 179.151 152.721 179.122 152.758 179.103C153.148 178.884 154.44 179.541 154.584 179.615C154.599 179.622 154.611 179.633 154.618 179.647C154.625 179.662 154.627 179.678 154.624 179.694C154.622 179.71 154.615 179.724 154.604 179.735C154.592 179.746 154.578 179.753 154.562 179.755C154.231 179.826 153.894 179.864 153.555 179.869ZM152.972 179.208C152.924 179.206 152.876 179.215 152.832 179.234C152.818 179.242 152.805 179.255 152.797 179.269C152.789 179.284 152.784 179.3 152.784 179.317C152.778 179.362 152.783 179.407 152.799 179.449C152.815 179.492 152.842 179.529 152.876 179.558C153.073 179.733 153.603 179.764 154.313 179.646C153.894 179.426 153.441 179.278 152.972 179.208Z" fill="#385AD4"/>
<path d="M154.551 179.76H154.52C154.131 179.584 153.364 178.884 153.425 178.529C153.425 178.446 153.5 178.336 153.706 178.319C153.784 178.307 153.863 178.312 153.939 178.334C154.014 178.356 154.084 178.394 154.144 178.446C154.551 178.783 154.634 179.646 154.639 179.685C154.64 179.698 154.639 179.711 154.633 179.723C154.628 179.734 154.619 179.744 154.608 179.751C154.591 179.761 154.57 179.764 154.551 179.76ZM153.767 178.446H153.736C153.601 178.446 153.592 178.511 153.587 178.533C153.552 178.748 154.074 179.295 154.463 179.532C154.426 179.164 154.272 178.818 154.025 178.542C153.951 178.486 153.86 178.455 153.767 178.454V178.446Z" fill="#385AD4"/>
</svg>
