<svg width="44" height="44" viewBox="0 0 44 44" fill="none" xmlns="http://www.w3.org/2000/svg">
<circle cx="22" cy="22" r="22" fill="white"/>
<path d="M27.769 23.9287C27.5702 23.9287 27.3625 23.8653 27.1638 23.82C26.7614 23.731 26.3659 23.613 25.9805 23.4667C25.5615 23.3138 25.1009 23.3217 24.6874 23.489C24.2738 23.6562 23.9366 23.9709 23.7405 24.3725L23.5418 24.7802C22.662 24.2894 21.8536 23.6798 21.1392 22.9684C20.4299 22.2519 19.8221 21.4411 19.3327 20.5588L19.712 20.3052C20.1125 20.1085 20.4263 19.7703 20.5931 19.3555C20.7598 18.9408 20.7677 18.4788 20.6153 18.0586C20.4719 17.6713 20.3542 17.2748 20.263 16.8719C20.2179 16.6726 20.1817 16.4643 20.1546 16.2559C20.0449 15.6178 19.7117 15.04 19.2149 14.6265C18.7181 14.2129 18.0904 13.9909 17.4449 14.0003H14.7352C14.3459 13.9966 13.9604 14.0771 13.605 14.2363C13.2495 14.3955 12.9324 14.6296 12.6753 14.9227C12.4181 15.2159 12.227 15.5611 12.1149 15.935C12.0027 16.3088 11.9722 16.7026 12.0254 17.0893C12.5066 20.8844 14.2348 24.4105 16.937 27.1107C19.6391 29.8109 23.1613 31.5312 26.947 32H27.2902C27.9563 32.001 28.5994 31.7559 29.0967 31.3115C29.3825 31.0552 29.6108 30.741 29.7665 30.3896C29.9222 30.0383 30.0017 29.6578 30 29.2733V26.5557C29.9889 25.9265 29.7604 25.3206 29.3536 24.8415C28.9467 24.3624 28.3866 24.0397 27.769 23.9287ZM28.2206 29.3639C28.2204 29.4925 28.1929 29.6196 28.14 29.7368C28.087 29.8539 28.0098 29.9584 27.9135 30.0433C27.8145 30.1338 27.6967 30.201 27.5686 30.2402C27.4405 30.2793 27.3053 30.2895 27.1728 30.2698C23.7901 29.8348 20.648 28.2827 18.2422 25.8584C15.8364 23.4341 14.3038 20.2756 13.8861 16.881C13.8717 16.7483 13.8843 16.614 13.9232 16.4864C13.962 16.3587 14.0262 16.2402 14.1119 16.1381C14.1966 16.0415 14.3008 15.9641 14.4176 15.911C14.5344 15.8579 14.6611 15.8303 14.7894 15.8302H17.4991C17.7091 15.8255 17.9142 15.8944 18.0791 16.025C18.244 16.1556 18.3583 16.3398 18.4023 16.5458C18.4385 16.7934 18.4836 17.038 18.5378 17.2796C18.6422 17.7571 18.781 18.2264 18.9533 18.6837L17.6888 19.2725C17.5807 19.3222 17.4834 19.3929 17.4026 19.4805C17.3218 19.568 17.259 19.6707 17.2179 19.7827C17.1768 19.8946 17.1581 20.0136 17.1629 20.1328C17.1678 20.252 17.1961 20.3691 17.2462 20.4773C18.5461 23.2699 20.7844 25.5147 23.5689 26.8184C23.7888 26.909 24.0354 26.909 24.2553 26.8184C24.368 26.778 24.4715 26.7155 24.5599 26.6347C24.6483 26.5538 24.7198 26.4561 24.7702 26.3473L25.3302 25.0791C25.7972 25.2466 26.2737 25.3857 26.7573 25.4958C26.9982 25.5502 27.2421 25.5955 27.489 25.6317C27.6944 25.6759 27.878 25.7905 28.0083 25.9559C28.1385 26.1212 28.2072 26.3269 28.2025 26.5376L28.2206 29.3639ZM27.3715 21.211C27.6111 21.211 27.8408 21.1156 28.0102 20.9457C28.1796 20.7758 28.2748 20.5454 28.2748 20.3052V16.6817C28.2748 16.4414 28.1796 16.211 28.0102 16.0411C27.8408 15.8712 27.6111 15.7758 27.3715 15.7758C27.132 15.7758 26.9022 15.8712 26.7328 16.0411C26.5635 16.211 26.4683 16.4414 26.4683 16.6817V20.3052C26.4683 20.5454 26.5635 20.7758 26.7328 20.9457C26.9022 21.1156 27.132 21.211 27.3715 21.211ZM23.7586 21.211C23.9981 21.211 24.2279 21.1156 24.3973 20.9457C24.5666 20.7758 24.6618 20.5454 24.6618 20.3052V16.6817C24.6618 16.4414 24.5666 16.211 24.3973 16.0411C24.2279 15.8712 23.9981 15.7758 23.7586 15.7758C23.519 15.7758 23.2893 15.8712 23.1199 16.0411C22.9505 16.211 22.8553 16.4414 22.8553 16.6817V20.3052C22.8553 20.5454 22.9505 20.7758 23.1199 20.9457C23.2893 21.1156 23.519 21.211 23.7586 21.211Z" fill="#5276F9"/>
</svg>
