<svg width="24" height="28" viewBox="0 0 24 28" fill="none" xmlns="http://www.w3.org/2000/svg">
<path d="M21.3347 14.5264L12.7009 23.1742C11.569 24.1801 10.0955 24.7156 8.58191 24.671C7.0683 24.6265 5.6289 24.0053 4.55815 22.9345C3.48739 21.8638 2.86621 20.4244 2.82165 18.9108C2.7771 17.3971 3.31254 15.9237 4.31845 14.7918L15.495 3.61527C16.1623 2.98141 17.0475 2.628 17.9678 2.628C18.8881 2.628 19.7733 2.98141 20.4406 3.61527C21.0907 4.27411 21.4553 5.16248 21.4553 6.08808C21.4553 7.01368 21.0907 7.90204 20.4406 8.56089L10.8008 18.1867C10.7054 18.2894 10.5907 18.3724 10.4633 18.4308C10.3358 18.4892 10.1981 18.5219 10.058 18.5271C9.9179 18.5323 9.77814 18.5099 9.64671 18.461C9.51528 18.4122 9.39475 18.338 9.29201 18.2426C9.18927 18.1472 9.10633 18.0325 9.04792 17.905C8.9895 17.7776 8.95677 17.6398 8.95158 17.4997C8.94639 17.3596 8.96885 17.2199 9.01767 17.0884C9.06649 16.957 9.14073 16.8365 9.23613 16.7337L16.4031 9.58075C16.6662 9.31768 16.814 8.96087 16.814 8.58883C16.814 8.21679 16.6662 7.85998 16.4031 7.59691C16.14 7.33384 15.7832 7.18604 15.4112 7.18604C15.0391 7.18604 14.6823 7.33384 14.4193 7.59691L7.25229 14.7778C6.89367 15.1337 6.60903 15.557 6.41479 16.0234C6.22055 16.4897 6.12055 16.9899 6.12055 17.4951C6.12055 18.0003 6.22055 18.5006 6.41479 18.9669C6.60903 19.4333 6.89367 19.8566 7.25229 20.2124C7.98488 20.9103 8.95784 21.2995 9.96959 21.2995C10.9813 21.2995 11.9543 20.9103 12.6869 20.2124L22.3127 10.5727C23.4232 9.3809 24.0278 7.80462 23.999 6.1759C23.9703 4.54719 23.3105 2.99322 22.1586 1.84136C21.0068 0.689512 19.4528 0.0297162 17.8241 0.000979459C16.1954 -0.0277573 14.6191 0.576809 13.4273 1.68731L2.25079 12.8639C0.743628 14.5331 -0.0613227 16.7196 0.00364808 18.9676C0.0686189 21.2157 0.9985 23.352 2.59955 24.9314C4.2006 26.5108 6.34933 27.4116 8.59807 27.446C10.8468 27.4804 13.0221 26.6459 14.6707 25.1161L23.3186 16.4823C23.4488 16.352 23.5522 16.1974 23.6227 16.0272C23.6932 15.857 23.7294 15.6746 23.7294 15.4903C23.7294 15.3061 23.6932 15.1237 23.6227 14.9535C23.5522 14.7833 23.4488 14.6287 23.3186 14.4984C23.1883 14.3682 23.0337 14.2648 22.8635 14.1943C22.6933 14.1238 22.5109 14.0876 22.3267 14.0876C22.1424 14.0876 21.96 14.1238 21.7898 14.1943C21.6196 14.2648 21.465 14.3682 21.3347 14.4984V14.5264Z" fill="#4E4E4E"/>
</svg>
