<svg width="17" height="17" viewBox="0 0 17 17" fill="none" xmlns="http://www.w3.org/2000/svg">
<path d="M13.1829 0.117137C12.7795 -0.123599 12.2632 0.0186111 12.0298 0.434773C11.7965 0.850934 11.9343 1.38345 12.3378 1.62419C13.2178 2.1493 13.9978 2.8339 14.6403 3.63977C14.9363 4.0111 15.4682 4.06454 15.8281 3.75915C16.1881 3.45376 16.2399 2.90518 15.9439 2.53385C15.1738 1.56805 14.2389 0.747227 13.1829 0.117137Z" fill="#666060"/>
<path d="M3.89982 1.62419C4.30327 1.38346 4.44113 0.850934 4.20775 0.434773C3.97437 0.0186114 3.45812 -0.123599 3.05468 0.117138C1.99873 0.747227 1.06375 1.56805 0.29371 2.53385C-0.00234785 2.90518 0.0494672 3.45376 0.409442 3.75915C0.769418 4.06454 1.30124 4.0111 1.5973 3.63977C2.23982 2.8339 3.01981 2.1493 3.89982 1.62419Z" fill="#666060"/>
<path d="M8.11877 4.81272C7.65268 4.81272 7.27485 5.20247 7.27485 5.68324V9.15341C7.27186 9.38015 7.35423 9.60787 7.52195 9.78087L9.29877 11.6137C9.62833 11.9537 10.1627 11.9537 10.4922 11.6137C10.8218 11.2737 10.8218 10.7226 10.4922 10.3826L8.96268 8.80482V5.68324C8.96268 5.20247 8.58485 4.81272 8.11877 4.81272Z" fill="#666060"/>
<path fill-rule="evenodd" clip-rule="evenodd" d="M0.523521 9.16532C0.523521 4.83835 3.92403 1.33065 8.11877 1.33065C12.3135 1.33065 15.714 4.83835 15.714 9.16532C15.714 13.4923 12.3135 17 8.11877 17C3.92403 17 0.523521 13.4923 0.523521 9.16532ZM8.11877 3.07168C4.85619 3.07168 2.21135 5.7999 2.21135 9.16532C2.21135 12.5307 4.85619 15.259 8.11877 15.259C11.3813 15.259 14.0262 12.5307 14.0262 9.16532C14.0262 5.7999 11.3813 3.07168 8.11877 3.07168Z" fill="#666060"/>
</svg>
