<svg width="13" height="12" viewBox="0 0 13 12" fill="none" xmlns="http://www.w3.org/2000/svg">
<path d="M11.9167 4.28543L7.69167 3.96399L8.31458 1.56926C8.47708 0.856732 8.29346 0.447699 7.70602 0.267425L6.7665 0.00357569C6.74426 -0.00225284 6.72073 -0.000929677 6.69931 0.00735371C6.67788 0.0156371 6.65968 0.0304506 6.64733 0.0496487L3.15358 5.46967C3.13421 5.50084 3.10708 5.52658 3.0748 5.54445C3.04251 5.56231 3.00614 5.5717 2.96915 5.57173H0V11.1428H3.18527C3.325 11.1428 3.46383 11.165 3.5964 11.2087L5.66285 11.8899C5.88379 11.9628 6.11516 12 6.34806 12H11.167C11.6816 12 12.0201 11.6378 12.1211 11.1385L13 7.32786V5.3569C13 4.76598 12.5125 4.339 11.9167 4.28543Z" fill="#2C981B"/>
</svg>
