<svg width="24" height="24" viewBox="0 0 24 24" fill="none" xmlns="http://www.w3.org/2000/svg">
<rect width="24" height="24" rx="4" fill="#F8F8F8"/>
<path d="M13.929 9.86904C12.1173 8.05732 9.73253 7.16365 7.33756 7.18299C6.86796 7.18678 6.49036 6.80918 6.49415 6.33958C6.49794 5.86998 6.88169 5.48623 7.35129 5.48244C10.1788 5.45961 13.0005 6.5161 15.1412 8.65685C17.282 10.7976 18.3385 13.6192 18.3156 16.4468C18.3119 16.9164 17.9281 17.3001 17.4585 17.3039C16.9889 17.3077 16.6113 16.9301 16.6151 16.4605C16.6344 14.0656 15.7408 11.6808 13.929 9.86904Z" fill="#385AD4"/>
<path d="M7.3101 10.5841C8.83465 10.5718 10.3517 11.1404 11.5047 12.2934C12.6577 13.4464 13.2263 14.9634 13.214 16.488C13.2102 16.9576 13.5878 17.3352 14.0574 17.3314C14.527 17.3276 14.9107 16.9439 14.9145 16.4743C14.9303 14.5171 14.1989 12.5632 12.7169 11.0812C11.2349 9.59921 9.28096 8.86775 7.32383 8.88355C6.85423 8.88734 6.47048 9.2711 6.46669 9.74069C6.46289 10.2103 6.8405 10.5879 7.3101 10.5841Z" fill="#385AD4"/>
<path d="M7.28264 13.9852C7.93677 13.9799 8.58609 14.2235 9.08031 14.7178C9.57454 15.212 9.81815 15.8613 9.81287 16.5154C9.80908 16.985 10.1867 17.3627 10.6563 17.3589C11.1259 17.3551 11.5096 16.9713 11.5134 16.5017C11.5222 15.415 11.1158 14.3289 10.2925 13.5056C9.46923 12.6823 8.38308 12.2759 7.29637 12.2847C6.82677 12.2884 6.44302 12.6722 6.43922 13.1418C6.43543 13.6114 6.81304 13.989 7.28264 13.9852Z" fill="#385AD4"/>
<path d="M6.65599 17.1422C6.98536 17.4716 7.52373 17.4672 7.85846 17.1325C8.1932 16.7977 8.19755 16.2594 7.86817 15.93C7.5388 15.6006 7.00043 15.605 6.6657 15.9397C6.33096 16.2744 6.32662 16.8128 6.65599 17.1422Z" fill="#385AD4"/>
</svg>
