<svg width="13" height="13" viewBox="0 0 13 13" fill="none" xmlns="http://www.w3.org/2000/svg">
<path d="M7.92905 4.86904C6.11733 3.05732 3.73253 2.16365 1.33756 2.18299C0.867964 2.18678 0.490356 1.80918 0.494147 1.33958C0.497939 0.869985 0.881695 0.486229 1.35129 0.482437C4.17884 0.459607 7.00047 1.5161 9.14123 3.65685C11.282 5.79761 12.3385 8.61925 12.3156 11.4468C12.3119 11.9164 11.9281 12.3001 11.4585 12.3039C10.9889 12.3077 10.6113 11.9301 10.6151 11.4605C10.6344 9.06555 9.74076 6.68075 7.92905 4.86904Z" fill="#EF2C2C"/>
<path d="M1.3101 5.5841C2.83465 5.57179 4.35171 6.14043 5.50468 7.2934C6.65765 8.44637 7.22629 9.96344 7.21398 11.488C7.21019 11.9576 7.5878 12.3352 8.05739 12.3314C8.52699 12.3276 8.91075 11.9439 8.91454 11.4743C8.93034 9.51713 8.19888 7.56323 6.71686 6.08122C5.23485 4.59921 3.28096 3.86775 1.32383 3.88355C0.854233 3.88734 0.470478 4.27109 0.466685 4.74069C0.462894 5.21029 0.840503 5.58789 1.3101 5.5841Z" fill="#EF2C2C"/>
<path d="M1.28264 8.98521C1.93677 8.97993 2.58609 9.22355 3.08031 9.71777C3.57454 10.212 3.81815 10.8613 3.81287 11.5154C3.80908 11.985 4.18669 12.3627 4.65628 12.3589C5.12588 12.3551 5.50964 11.9713 5.51343 11.5017C5.5222 10.415 5.11576 9.32885 4.2925 8.50559C3.46923 7.68232 2.38308 7.27588 1.29637 7.28466C0.826772 7.28845 0.443016 7.6722 0.439225 8.1418C0.435433 8.61139 0.813042 8.989 1.28264 8.98521Z" fill="#EF2C2C"/>
<path d="M0.65599 12.1422C0.985364 12.4716 1.52373 12.4672 1.85846 12.1325C2.1932 11.7977 2.19755 11.2594 1.86817 10.93C1.5388 10.6006 1.00043 10.605 0.665699 10.9397C0.330964 11.2744 0.326617 11.8128 0.65599 12.1422Z" fill="#EF2C2C"/>
</svg>
