<svg width="13" height="16" viewBox="0 0 13 16" fill="none" xmlns="http://www.w3.org/2000/svg">
<path fill-rule="evenodd" clip-rule="evenodd" d="M0 2.16675C0 1.76892 0.158035 1.38739 0.43934 1.10609C0.720644 0.824783 1.10218 0.666748 1.5 0.666748L9.707 0.666748L13 3.95975V14.1667C13 14.5646 12.842 14.9461 12.5607 15.2274C12.2794 15.5087 11.8978 15.6667 11.5 15.6667H1.5C1.10218 15.6667 0.720644 15.5087 0.43934 15.2274C0.158035 14.9461 0 14.5646 0 14.1667V2.16675ZM3 4.66375H10V5.66375H3V4.66375ZM10 7.66175H3V8.66175H10V7.66175ZM10 10.6667H3V11.6667H10V10.6667Z" fill="white"/>
</svg>
