<svg width="40" height="40" viewBox="0 0 40 40" fill="none" xmlns="http://www.w3.org/2000/svg">
<rect width="40" height="40" rx="5" fill="#EEEEEE"/>
<path d="M29 21.749V26.749C29 28.749 28 29.749 26 29.749H14C12 29.749 11 28.749 11 26.749V21.749C11 19.749 12 18.749 14 18.749H19.25V24.749C19.25 25.163 19.586 25.499 20 25.499C20.414 25.499 20.75 25.163 20.75 24.749V18.749H26C28 18.749 29 19.749 29 21.749ZM20.75 13.56L22.47 15.28C22.616 15.426 22.808 15.5 23 15.5C23.192 15.5 23.384 15.427 23.53 15.28C23.823 14.987 23.823 14.512 23.53 14.219L20.53 11.219C20.461 11.15 20.3779 11.095 20.2859 11.057C20.1029 10.981 19.8959 10.981 19.7129 11.057C19.6209 11.095 19.538 11.15 19.469 11.219L16.469 14.219C16.176 14.512 16.176 14.987 16.469 15.28C16.762 15.573 17.237 15.573 17.53 15.28L19.25 13.56V18.749H20.75V13.56Z" fill="black"/>
</svg>
