<svg width="44" height="44" viewBox="0 0 44 44" fill="none" xmlns="http://www.w3.org/2000/svg">
<circle cx="22" cy="22" r="22" fill="#5276F9"/>
<path fill-rule="evenodd" clip-rule="evenodd" d="M27.0646 13.1746C27.3371 13.361 27.5 13.6699 27.5 14V30C27.5 30.3301 27.3371 30.639 27.0646 30.8254C26.7921 31.0118 26.4452 31.0517 26.1376 30.932L17.3124 27.5H12C11.4477 27.5 11 27.0523 11 26.5V17.5C11 16.9477 11.4477 16.5 12 16.5H17.3124L26.1376 13.068C26.4452 12.9483 26.7921 12.9883 27.0646 13.1746ZM25.5 28.5382L18.5 25.8159V18.1841L25.5 15.4618V28.5382ZM13 18.5V25.5H16.5V18.5H13Z" fill="white"/>
<path d="M30 17.5C29.4477 17.5 29 17.9477 29 18.5C29 19.0523 29.4477 19.5 30 19.5H31C31.5523 19.5 32 19.0523 32 18.5C32 17.9477 31.5523 17.5 31 17.5H30Z" fill="white"/>
<path d="M28.5 22.5C28.5 21.9477 28.9477 21.5 29.5 21.5H32C32.5523 21.5 33 21.9477 33 22.5C33 23.0523 32.5523 23.5 32 23.5H29.5C28.9477 23.5 28.5 23.0523 28.5 22.5Z" fill="white"/>
<path d="M30 25.5C29.4477 25.5 29 25.9477 29 26.5C29 27.0523 29.4477 27.5 30 27.5H31C31.5523 27.5 32 27.0523 32 26.5C32 25.9477 31.5523 25.5 31 25.5H30Z" fill="white"/>
</svg>
