<svg width="276" height="276" viewBox="0 0 276 276" fill="none" xmlns="http://www.w3.org/2000/svg">
<path d="M138 263.15C206.106 263.15 261.317 233.125 261.317 196.088C261.317 159.05 206.106 129.025 138 129.025C69.8944 129.025 14.6836 159.05 14.6836 196.088C14.6836 233.125 69.8944 263.15 138 263.15Z" fill="#F5F5F5"/>
<path d="M138.002 192.577C148.264 192.577 156.583 187.773 156.583 181.846C156.583 175.92 148.264 171.115 138.002 171.115C127.741 171.115 119.422 175.92 119.422 181.846C119.422 187.773 127.741 192.577 138.002 192.577Z" fill="#E0E0E0"/>
<path d="M207.294 221.253C223.515 221.253 236.666 213.661 236.666 204.295C236.666 194.93 223.515 187.338 207.294 187.338C191.072 187.338 177.922 194.93 177.922 204.295C177.922 213.661 191.072 221.253 207.294 221.253Z" fill="#E0E0E0"/>
<path d="M63.161 223.087C79.3826 223.087 92.5329 215.495 92.5329 206.129C92.5329 196.764 79.3826 189.172 63.161 189.172C46.9393 189.172 33.7891 196.764 33.7891 206.129C33.7891 215.495 46.9393 223.087 63.161 223.087Z" fill="#E0E0E0"/>
<path d="M251.157 192.245L245.61 189.976C244.913 185.181 244.511 180.347 244.406 175.502C244.406 166.439 250.053 155.354 257.218 157.209C264.383 159.064 255.198 169.204 253.707 177.037C252.217 184.87 251.157 192.245 251.157 192.245Z" fill="#EF2C2C"/>
<path opacity="0.3" d="M251.157 192.245L245.61 189.976C244.913 185.181 244.511 180.347 244.406 175.502C244.406 166.439 250.053 155.354 257.218 157.209C264.383 159.064 255.198 169.204 253.707 177.037C252.217 184.87 251.157 192.245 251.157 192.245Z" fill="black"/>
<path d="M248.468 191.544C248.529 191.536 248.584 191.504 248.621 191.455C248.658 191.407 248.675 191.345 248.667 191.285C246.023 171.413 254.96 160.373 255.048 160.279C255.088 160.231 255.107 160.17 255.101 160.108C255.095 160.047 255.065 159.99 255.018 159.95C254.97 159.911 254.909 159.892 254.847 159.897C254.786 159.903 254.729 159.933 254.689 159.981C254.601 160.091 245.532 171.264 248.203 191.345C248.207 191.376 248.217 191.405 248.233 191.432C248.249 191.459 248.269 191.482 248.294 191.5C248.319 191.519 248.347 191.532 248.377 191.54C248.407 191.547 248.438 191.549 248.468 191.544Z" fill="white"/>
<path d="M254.007 193.569L251.109 192.255C250.241 187.79 250.373 183.188 251.495 178.78C253.355 171.638 259.549 167.233 262.668 167.961C266.482 168.85 266.852 172.377 265.737 174.834C264.406 177.743 255.232 185.62 254.007 193.569Z" fill="#EF2C2C"/>
<path opacity="0.1" d="M254.007 193.569L251.109 192.255C250.241 187.79 250.373 183.188 251.495 178.78C253.355 171.638 259.549 167.233 262.668 167.961C266.482 168.85 266.852 172.377 265.737 174.834C264.406 177.743 255.232 185.62 254.007 193.569Z" fill="black"/>
<path d="M252.499 193.112C252.561 193.105 252.618 193.073 252.657 193.025C252.697 192.976 252.715 192.914 252.709 192.852C251.406 180.244 262.407 170.551 262.523 170.457C262.565 170.412 262.589 170.353 262.589 170.292C262.589 170.23 262.565 170.171 262.523 170.126C262.502 170.104 262.476 170.087 262.448 170.075C262.419 170.063 262.389 170.057 262.358 170.057C262.327 170.057 262.296 170.063 262.268 170.075C262.24 170.087 262.214 170.104 262.192 170.126C262.076 170.226 250.898 180.062 252.218 192.924C252.231 192.986 252.268 193.04 252.32 193.075C252.373 193.11 252.437 193.123 252.499 193.112Z" fill="white"/>
<path d="M30.9094 187.167L34.7182 184.992C34.7182 184.992 36.5398 174.94 35.1764 166.296C33.2554 154.152 24.9809 149.951 21.978 151.16C18.9752 152.369 18.2686 155.968 23.6948 162.99C26.8964 167.13 31.0143 175.89 30.9094 187.167Z" fill="#EF2C2C"/>
<g opacity="0.15">
<path d="M30.9094 187.167L34.7182 184.992C34.7182 184.992 36.5398 174.94 35.1764 166.296C33.2554 154.152 24.9809 149.951 21.978 151.16C18.9752 152.369 18.2686 155.968 23.6948 162.99C26.8964 167.13 31.0143 175.89 30.9094 187.167Z" fill="black"/>
</g>
<path d="M32.2915 182.342H32.2529C32.2179 182.338 32.1843 182.326 32.1539 182.308C32.1235 182.29 32.097 182.267 32.0759 182.238C32.0548 182.21 32.0396 182.178 32.0311 182.144C32.0226 182.109 32.0211 182.074 32.0266 182.039C33.5942 170.662 29.0237 158.198 23.879 153.175C23.8471 153.152 23.8205 153.122 23.8011 153.087C23.7817 153.053 23.77 153.015 23.7666 152.975C23.7633 152.936 23.7684 152.896 23.7817 152.859C23.795 152.822 23.8161 152.788 23.8437 152.759C23.8712 152.731 23.9046 152.709 23.9414 152.695C23.9782 152.68 24.0177 152.674 24.0572 152.676C24.0966 152.678 24.1351 152.689 24.1701 152.708C24.2051 152.726 24.2357 152.752 24.2599 152.783C29.4929 157.872 34.1573 170.568 32.5675 182.105C32.5581 182.171 32.525 182.232 32.4742 182.276C32.4234 182.319 32.3585 182.343 32.2915 182.342Z" fill="white"/>
<path d="M20.356 193.267C19.7543 193.609 18.5178 192.858 18.0431 192.538C17.2288 191.977 16.5714 191.217 16.1332 190.33C15.6438 189.329 15.4779 188.2 15.6585 187.101C15.754 186.52 15.8905 185.946 16.067 185.384L16.5472 183.728C16.7364 183.197 16.8189 182.635 16.7901 182.072C16.6466 180.929 15.6309 180.134 14.7146 179.444C13.6934 178.683 12.639 177.678 12.6446 176.304C12.7158 175.239 13.1413 174.228 13.8534 173.433C14.5048 172.6 15.2831 171.866 15.8793 170.988C16.3466 170.372 16.5864 169.613 16.5582 168.841C16.495 168.37 16.3373 167.918 16.0946 167.51C15.5361 166.661 15.0487 165.768 14.6373 164.839C14.3006 163.878 14.3502 162.686 15.101 161.996C15.435 161.746 15.8156 161.566 16.2204 161.465C16.6252 161.365 17.0459 161.346 17.458 161.411C18.2418 161.503 18.9956 161.767 19.666 162.183C21.8464 163.392 23.0884 165.976 25.4013 166.909C26.317 167.194 27.2499 167.421 28.1944 167.587C28.6684 167.675 29.1188 167.862 29.5162 168.135C29.9137 168.408 30.2494 168.761 30.5018 169.172C31.3518 170.866 29.7786 172.953 30.3748 174.752C30.9268 176.342 32.4503 176.96 33.317 178.39C33.6722 179.022 33.8154 179.752 33.7254 180.471C33.6484 181.689 33.351 182.882 32.8478 183.993C32.2815 185.098 31.6339 186.158 30.9102 187.167C30.8771 187.206 20.4498 193.2 20.356 193.267Z" fill="#EF2C2C"/>
<path d="M26.5315 189.978C26.4952 189.976 26.4596 189.968 26.4267 189.952C26.3937 189.937 26.3641 189.916 26.3395 189.889C26.3149 189.862 26.2958 189.831 26.2833 189.797C26.2707 189.763 26.265 189.727 26.2665 189.69C26.7136 178.926 21.6408 167.058 17.9534 163.581C17.9032 163.53 17.875 163.462 17.875 163.39C17.875 163.319 17.9032 163.251 17.9534 163.2C18.005 163.149 18.0744 163.121 18.1466 163.121C18.2189 163.121 18.2882 163.149 18.3398 163.2C22.0768 166.705 27.2601 178.794 26.802 189.718C26.7991 189.788 26.7694 189.854 26.7189 189.902C26.6685 189.951 26.6013 189.978 26.5315 189.978Z" fill="white"/>
<path d="M24.9196 177.254H24.8368C22.2863 176.552 19.6675 176.128 17.026 175.989C16.9528 175.989 16.8826 175.96 16.8308 175.909C16.7791 175.857 16.75 175.787 16.75 175.713C16.75 175.64 16.7791 175.57 16.8308 175.518C16.8826 175.467 16.9528 175.438 17.026 175.438C19.7143 175.577 22.3796 176.008 24.9748 176.724C25.0089 176.734 25.0406 176.751 25.0683 176.773C25.0959 176.795 25.1188 176.823 25.1357 176.854C25.1526 176.886 25.1632 176.92 25.1669 176.955C25.1705 176.991 25.1671 177.026 25.157 177.06C25.1409 177.112 25.1097 177.159 25.0675 177.193C25.0253 177.227 24.9738 177.248 24.9196 177.254Z" fill="white"/>
<path d="M221.811 200.797L216.666 200.206L215.336 189.84L221.623 191.706L221.811 200.797Z" fill="#B16668"/>
<path d="M210.539 209.252C210.464 209.457 210.434 209.674 210.449 209.891C210.464 210.108 210.525 210.319 210.627 210.511C211.179 211.151 212.603 211.902 214.546 212.04C216.406 212.173 218.062 211.924 219.15 211.234C219.623 210.99 220.028 210.632 220.328 210.193C220.629 209.753 220.816 209.246 220.872 208.717C220.977 207.663 220.872 206.641 221.363 205.83C221.855 205.019 222.567 204.229 222.727 203.821C222.918 203.116 222.918 202.373 222.727 201.668L210.539 209.252Z" fill="#263238"/>
<path d="M215.622 200.025C215.606 200.425 215.533 200.821 215.407 201.201C215.122 202.018 214.741 202.798 214.27 203.524C214.039 203.91 213.78 204.279 213.497 204.628C212.945 205.296 212.238 205.848 211.642 206.489C211.01 207.093 210.604 207.896 210.494 208.763C210.417 210.22 212.735 210.717 213.955 210.932C215.271 211.162 216.621 211.094 217.907 210.734C218.583 210.558 219.193 210.191 219.665 209.677C220.137 209.163 220.45 208.523 220.568 207.836C220.64 207.427 220.612 207.013 220.662 206.61C220.823 205.68 221.211 204.803 221.794 204.06C222.132 203.631 222.422 203.166 222.66 202.674C223.041 201.775 222.737 200.759 222.495 199.865C222.285 199.086 222.031 198.209 221.755 198.269C221.755 198.672 221.755 198.728 221.484 198.998C221.214 199.269 221.109 199.865 220.723 200.168C220.846 199.832 220.936 199.484 220.993 199.131C221.017 198.989 220.988 198.843 220.91 198.722C220.782 198.607 220.629 198.524 220.463 198.479C219.889 198.287 219.297 198.152 218.697 198.076C217.877 197.982 217.049 197.982 216.229 198.076C216.059 198.107 215.904 198.197 215.793 198.33C215.694 198.477 215.64 198.65 215.639 198.827C215.611 199.037 215.633 199.638 215.622 200.025Z" fill="#455A64"/>
<path d="M214.073 203.833C214.625 203.424 216.574 203.419 217.236 203.491C217.912 203.548 218.561 203.776 219.124 204.153C219.207 204.212 219.307 204.239 219.408 204.231C219.509 204.223 219.604 204.18 219.676 204.109C219.718 204.067 219.75 204.017 219.771 203.962C219.792 203.907 219.8 203.848 219.796 203.79C219.792 203.731 219.775 203.674 219.747 203.622C219.719 203.57 219.679 203.526 219.632 203.491C219.014 203.034 218.279 202.76 217.512 202.701C216.556 202.631 215.595 202.687 214.653 202.867C214.653 202.867 213.913 203.347 214.073 203.833Z" fill="#F5F5F5"/>
<path d="M212.824 205.344C213.509 204.942 215.584 204.997 216.252 205.068C216.914 205.136 217.546 205.378 218.085 205.77C218.168 205.827 218.268 205.854 218.369 205.846C218.469 205.838 218.564 205.795 218.637 205.725C218.679 205.684 218.711 205.634 218.732 205.579C218.752 205.524 218.761 205.465 218.757 205.406C218.753 205.347 218.736 205.29 218.707 205.239C218.679 205.187 218.64 205.142 218.593 205.107C217.687 204.638 216.699 204.349 215.684 204.257C214.028 204.141 213.625 204.472 213.625 204.472C213.435 204.549 213.264 204.667 213.126 204.818C212.987 204.969 212.884 205.149 212.824 205.344Z" fill="#F5F5F5"/>
<path d="M218.16 201.138C217.226 201.031 216.281 201.089 215.367 201.309C215.08 201.469 214.887 201.927 215.074 202.043C215.908 201.818 216.774 201.732 217.636 201.789C218.248 201.851 218.845 202.015 219.402 202.275C219.546 202.341 219.711 202.424 219.855 202.507C219.901 202.536 219.953 202.555 220.007 202.563C220.061 202.57 220.116 202.566 220.169 202.55C220.221 202.535 220.269 202.508 220.31 202.472C220.352 202.436 220.384 202.391 220.407 202.341C220.446 202.26 220.454 202.167 220.428 202.08C220.403 201.993 220.346 201.919 220.269 201.872C219.626 201.48 218.907 201.229 218.16 201.138Z" fill="#F5F5F5"/>
<path d="M202.629 196.082L197.738 194.718V184.832L203.805 185.097L202.629 196.082Z" fill="#B16668"/>
<path d="M187.404 201.375C187.266 201.802 187.292 202.264 187.476 202.673C187.658 203.048 189.64 204.168 192.311 203.986C194.29 203.844 196.196 203.177 197.831 202.054C198.847 201.381 199.907 201.254 201.232 201.182C202.556 201.11 204.29 200.442 204.582 199.824C204.731 199.271 204.716 198.686 204.538 198.141L187.404 201.375Z" fill="#263238"/>
<path d="M198.169 193.04L197.959 192.996C197.843 192.969 197.722 192.969 197.606 192.996C197.477 193.038 197.363 193.115 197.274 193.217C197.014 193.553 196.786 193.913 196.595 194.293C196.043 195.204 194.857 195.949 193.576 196.65C192.704 197.119 191.848 197.484 190.949 197.887C190.049 198.29 188.807 198.555 188.089 199.04C187.04 199.747 186.902 201.519 188.089 202.22C189.116 202.827 191.832 203.484 194.675 202.678C196.22 202.237 197.942 200.586 199.974 200.426C201.265 200.321 203.711 199.962 204.544 198.98C204.853 198.544 204.439 197.164 204.103 195.971C203.733 194.669 203.385 192.659 202.955 192.753C202.958 192.846 202.94 192.939 202.9 193.023C202.861 193.108 202.802 193.182 202.728 193.239C202.568 193.405 202.353 193.509 202.176 193.658C201.875 193.955 201.631 194.305 201.459 194.691C201.388 194.862 201.259 195.003 201.094 195.088C200.873 195.165 200.713 195.033 200.542 194.945C200.3 194.833 200.025 194.814 199.769 194.889C199.796 194.631 199.842 194.374 199.907 194.122C199.932 194.043 199.932 193.958 199.907 193.879C199.876 193.799 199.818 193.733 199.742 193.692C199.269 193.367 198.733 193.145 198.169 193.04Z" fill="#455A64"/>
<path d="M194.801 195.927C194.893 195.749 195.029 195.596 195.196 195.484C195.363 195.372 195.555 195.304 195.756 195.287C196.341 195.176 197.379 195.612 198.024 196.142C198.086 196.192 198.135 196.255 198.166 196.328C198.197 196.4 198.21 196.479 198.203 196.557C198.197 196.636 198.171 196.712 198.128 196.778C198.086 196.844 198.027 196.899 197.958 196.937C197.871 196.986 197.771 197.007 197.672 196.996C197.573 196.985 197.48 196.943 197.406 196.877C196.694 196.234 195.76 195.894 194.801 195.927Z" fill="#F5F5F5"/>
<path d="M192.973 196.948C193.101 196.767 193.27 196.62 193.467 196.518C193.664 196.416 193.883 196.363 194.104 196.363C195.012 196.403 195.883 196.73 196.594 197.296C196.652 197.345 196.697 197.406 196.727 197.476C196.756 197.546 196.768 197.622 196.761 197.697C196.755 197.772 196.73 197.845 196.689 197.909C196.649 197.973 196.593 198.026 196.528 198.063C196.442 198.115 196.341 198.137 196.241 198.126C196.142 198.115 196.048 198.072 195.976 198.003C195.585 197.615 195.113 197.318 194.593 197.136C194.074 196.954 193.52 196.89 192.973 196.948Z" fill="#F5F5F5"/>
<path d="M190.992 197.866C191.138 197.7 191.318 197.566 191.52 197.476C191.722 197.385 191.941 197.34 192.162 197.342C193.036 197.396 193.871 197.724 194.547 198.28C194.605 198.329 194.651 198.391 194.68 198.462C194.709 198.532 194.721 198.608 194.714 198.684C194.708 198.76 194.683 198.833 194.642 198.897C194.602 198.961 194.546 199.015 194.481 199.053C194.395 199.105 194.294 199.127 194.195 199.116C194.095 199.105 194.002 199.062 193.929 198.992C193.56 198.59 193.103 198.279 192.593 198.084C192.083 197.888 191.535 197.814 190.992 197.866Z" fill="#F5F5F5"/>
<path d="M220.686 131.582C221.023 141.777 221.045 163.857 221.045 163.857C221.15 165.127 221.26 167.379 221.354 171.95C221.492 178.574 221.812 194.93 221.812 194.93C221.812 194.93 218.649 196.414 215.74 195.206C215.74 195.206 211.7 172.209 210.872 165.651C210.149 159.927 208.763 146.503 208.763 146.503L206.853 163.543C206.853 163.543 206.853 167.959 206.594 171.856C206.378 174.892 203.431 190.53 203.431 190.53C201.506 191.042 199.472 190.974 197.585 190.337C197.585 190.337 197.32 166.33 197.265 163.543C197.204 160.374 198.021 126.117 198.021 126.117L220.686 131.582Z" fill="#455A64"/>
<path d="M208.774 146.502L208.045 140.723C205.692 140.121 203.467 139.1 201.477 137.709C201.477 137.709 202.879 139.586 206.997 141.573L207.924 146.817L206.875 163.543L208.774 146.502Z" fill="#37474F"/>
<path d="M197.76 102.971C196.27 104.925 188.602 115.446 188.602 115.446L181.52 109.959C179.864 108.662 179.373 106.961 178.335 105.786C177.297 104.61 176.16 104.328 174.995 103.346C173.831 102.363 173.384 101.618 172.986 102.457C172.589 103.296 173.875 104.759 174.09 105.112C174.306 105.466 175.636 106.31 173.88 106.216C172.125 106.122 168.747 104.119 167.93 103.749C167.113 103.379 167.091 104.389 167.477 105.052C167.864 105.714 167.67 107.558 168.123 108.744C168.576 109.931 169.371 110.66 170.988 111.46C172.495 112.211 176.16 112.68 177.353 113.431C179.969 116.114 184.904 121.12 186.151 122.048C187.868 123.323 189.53 124.499 192.157 121.97C194.785 119.442 202.397 109.523 202.397 109.523L203.97 100.089C201.387 99.9952 199.56 100.613 197.76 102.971Z" fill="#B16668"/>
<path d="M188.602 115.446C189.573 116.163 190.583 117.775 190.677 118.498C190.666 117.813 190.513 117.138 190.228 116.514C189.943 115.891 189.532 115.334 189.021 114.877L188.602 115.446Z" fill="#9A4A4D"/>
<path d="M204.578 99.8577C204.578 99.8577 200.935 99.8135 199.334 100.934C197.733 102.055 196.546 103.694 193.946 107.475C191.667 110.787 190.562 112.377 190.562 112.377C192.055 114.585 194.228 116.244 196.75 117.102L203.551 108.679L204.578 99.8577Z" fill="#37474F"/>
<path d="M211.626 99.6807C213.691 99.8795 216.594 99.9015 218.636 100.111C220.055 100.696 222.793 103.081 222.589 104.781C221.827 111.135 220.287 121.551 220.287 121.551L220.795 132.591C217.952 135.428 204.649 136.538 197.793 132C197.793 132 198.014 112.173 198.488 108.816C199.333 102.805 200.073 100.575 203.175 100.045C206.277 99.5151 211.626 99.6807 211.626 99.6807Z" fill="#EF2C2C"/>
<path d="M223.316 103.131C224.807 105.085 232.479 115.606 232.479 115.606L239.567 110.119C241.223 108.816 241.714 107.116 242.752 105.946C243.79 104.776 244.927 104.489 246.092 103.506C247.256 102.523 247.704 101.778 248.101 102.612C248.498 103.445 247.212 104.919 246.997 105.272C246.782 105.626 245.451 106.47 247.207 106.376C248.962 106.283 252.335 104.273 253.157 103.903C253.98 103.534 253.991 104.544 253.61 105.206C253.229 105.869 253.411 107.718 252.964 108.905C252.517 110.091 251.717 110.815 250.099 111.62C248.592 112.371 244.927 112.84 243.735 113.591C241.118 116.268 236.183 121.28 234.936 122.202C233.219 123.477 231.558 124.653 228.93 122.131C226.302 119.608 220.297 111.753 220.297 111.753L217.117 100.249C219.695 100.155 221.522 100.774 223.316 103.131Z" fill="#B16668"/>
<path d="M232.482 115.607C231.51 116.325 230.5 117.937 230.406 118.66C230.417 117.974 230.569 117.297 230.854 116.673C231.14 116.049 231.551 115.491 232.062 115.033L232.482 115.607Z" fill="#9A4A4D"/>
<path d="M216.754 99.9745C216.754 99.9745 220.027 99.7702 221.75 101.078C223.301 102.271 224.51 103.838 227.137 107.62C229.417 110.932 230.521 112.521 230.521 112.521C229.025 114.728 226.851 116.387 224.328 117.247L219.696 111.539C217.284 108.481 214.894 103.827 216.754 99.9745Z" fill="#37474F"/>
<path d="M212.138 84.733C212.149 85.9994 211.784 87.2405 211.09 88.2995C210.395 89.3585 209.402 90.1878 208.236 90.6825C207.071 91.1771 205.784 91.315 204.54 91.0787C203.296 90.8423 202.15 90.2423 201.247 89.3546C200.344 88.4668 199.724 87.3312 199.466 86.0913C199.208 84.8514 199.324 83.5629 199.798 82.3888C200.273 81.2146 201.085 80.2075 202.132 79.4949C203.179 78.7822 204.413 78.396 205.68 78.385C206.521 78.3777 207.355 78.5362 208.134 78.8512C208.914 79.1663 209.624 79.6319 210.224 80.2214C210.824 80.8108 211.301 81.5127 211.63 82.2868C211.958 83.0609 212.131 83.8921 212.138 84.733Z" fill="#263238"/>
<path d="M216.847 89.248C216.847 89.248 215.848 94.1332 215.44 94.9336C215.168 95.4307 214.715 95.8042 214.176 95.9769L214.214 92.5435L216.847 89.248Z" fill="#263238"/>
<path d="M215.485 82.2773C215.847 82.2308 216.215 82.2678 216.56 82.3855C216.906 82.5032 217.22 82.6984 217.478 82.9562C218.339 83.8229 217.886 86.5608 216.849 89.249L214.895 89.4919L215.485 82.2773Z" fill="#263238"/>
<path d="M214.308 89.4976C214.7 89.7294 215.252 88.9456 215.732 88.4598C216.212 87.974 217.78 87.2454 218.586 88.8959C219.392 90.5464 217.923 92.8261 216.687 93.2236C214.551 93.9191 214.214 92.5446 214.214 92.5446L214.126 100.504C211.498 103.943 204.107 103.717 207.154 100.129V97.7776C206.202 97.9371 205.236 97.9945 204.272 97.9487C202.694 97.7224 201.695 96.4859 201.198 94.7857C200.408 92.0588 200.094 89.8508 200.701 84.4578C201.363 78.5514 208.225 78.43 211.951 80.7318C215.677 83.0336 214.308 89.4976 214.308 89.4976Z" fill="#B16668"/>
<path d="M214.313 90.1537C214.506 90.1537 215.246 88.9062 215.732 88.4591C216.399 87.8353 215.483 82.2767 215.483 82.2767C215.712 81.7834 215.788 81.2325 215.699 80.6958C215.61 80.1591 215.362 79.6616 214.986 79.2683C214.053 78.2581 212.751 77.0272 208.556 77.5571C205.558 77.938 202.307 78.904 199.663 77.6344C199.427 78.4951 199.454 79.4065 199.739 80.2521C200.024 81.0977 200.555 81.8391 201.264 82.3816C201.264 82.3816 202.224 82.9888 204.736 83.2703C207.051 83.4226 209.376 83.3579 211.68 83.0771C212.409 82.9722 212.569 83.6732 212.977 85.5997C213.336 87.2833 213.651 90.1482 214.313 90.1537Z" fill="#263238"/>
<path d="M215.483 82.7068L217.84 81.4151C217.764 81.2556 217.656 81.1133 217.522 80.997C217.389 80.8807 217.234 80.7927 217.065 80.7385C216.897 80.6843 216.719 80.6649 216.543 80.6816C216.367 80.6982 216.196 80.7506 216.041 80.8355C215.725 81.0157 215.491 81.3108 215.387 81.6593C215.283 82.0079 215.318 82.383 215.483 82.7068Z" fill="#263238"/>
<path d="M207.137 97.7764C207.137 97.7764 210.647 97.0367 211.867 96.3743C212.587 95.992 213.173 95.4013 213.551 94.6797C213.373 95.3987 213.052 96.0745 212.607 96.6669C211.718 97.8261 207.148 98.7093 207.148 98.7093L207.137 97.7764Z" fill="#9A4A4D"/>
<path d="M206.856 88.9341C206.854 89.0281 206.871 89.1214 206.906 89.2088C206.941 89.2961 206.993 89.3756 207.058 89.4429C207.124 89.5101 207.202 89.5636 207.289 89.6004C207.375 89.6372 207.468 89.6565 207.562 89.6573C207.709 89.6628 207.854 89.6241 207.978 89.5464C208.103 89.4687 208.201 89.3554 208.261 89.2211C208.32 89.0869 208.338 88.9379 208.312 88.7934C208.286 88.6489 208.217 88.5155 208.115 88.4105C208.012 88.3055 207.88 88.2337 207.737 88.2043C207.593 88.1749 207.443 88.1894 207.308 88.2457C207.172 88.3021 207.057 88.3978 206.976 88.5205C206.895 88.6433 206.853 88.7873 206.856 88.9341Z" fill="#263238"/>
<path d="M208.948 86.5109L207.381 85.7988C207.29 86.0132 207.285 86.2545 207.367 86.4725C207.449 86.6904 207.612 86.8683 207.822 86.9691C207.926 87.015 208.038 87.0396 208.151 87.0414C208.265 87.0431 208.378 87.0219 208.483 86.9792C208.588 86.9364 208.683 86.8729 208.763 86.7925C208.843 86.712 208.906 86.6162 208.948 86.5109Z" fill="#263238"/>
<path d="M202.242 85.6445L200.879 86.7154C200.943 86.8083 201.026 86.8869 201.122 86.9463C201.219 87.0057 201.326 87.0446 201.438 87.0607C201.55 87.0767 201.664 87.0695 201.773 87.0396C201.882 87.0096 201.983 86.9575 202.071 86.8865C202.252 86.74 202.371 86.5301 202.402 86.2994C202.434 86.0687 202.377 85.8345 202.242 85.6445Z" fill="#263238"/>
<path d="M201.418 88.7632C201.425 88.895 201.47 89.022 201.548 89.1285C201.626 89.2349 201.734 89.316 201.857 89.3618C201.981 89.4075 202.116 89.4159 202.244 89.3858C202.373 89.3558 202.49 89.2886 202.58 89.1927C202.671 89.0968 202.731 88.9764 202.754 88.8463C202.777 88.7163 202.761 88.5825 202.709 88.4615C202.656 88.3405 202.569 88.2376 202.458 88.1656C202.348 88.0936 202.218 88.0557 202.086 88.0567C201.996 88.0588 201.907 88.0788 201.824 88.1156C201.742 88.1523 201.667 88.205 201.605 88.2707C201.543 88.3364 201.494 88.4138 201.462 88.4983C201.43 88.5828 201.415 88.6729 201.418 88.7632Z" fill="#263238"/>
<path d="M205.074 88.1934L204.677 92.4162L202.496 91.5771L205.074 88.1934Z" fill="#9A4A4D"/>
<path d="M206.273 94.0016C206.272 94.1361 206.311 94.2679 206.385 94.3803C206.459 94.4926 206.565 94.5805 206.689 94.6328C206.813 94.685 206.949 94.6992 207.081 94.6737C207.214 94.6481 207.335 94.5839 207.431 94.4891C207.526 94.3944 207.591 94.2734 207.618 94.1416C207.645 94.0097 207.631 93.8729 207.58 93.7485C207.529 93.6242 207.442 93.5178 207.33 93.4429C207.218 93.3681 207.087 93.3281 206.952 93.3281C206.773 93.3281 206.601 93.3989 206.474 93.525C206.347 93.6512 206.275 93.8224 206.273 94.0016Z" fill="#9A4A4D"/>
<path d="M223.505 49.0292C224.558 49.2636 225.572 49.6445 226.519 50.1608C227.424 50.6481 228.236 51.293 228.915 52.0652C229.568 52.8133 230.05 53.6949 230.328 54.6485C230.618 55.6594 230.641 56.7284 230.394 57.7508C230.231 58.5623 229.908 59.3334 229.445 60.0195C229.028 60.6098 228.528 61.1361 227.96 61.5817C227.404 62.0134 226.811 62.3957 226.188 62.7243L224.433 63.6517C223.903 63.9282 223.4 64.2534 222.931 64.6232C222.507 64.9448 222.182 65.379 221.993 65.8762C221.897 66.0979 221.743 66.289 221.546 66.4282C221.451 66.5005 221.341 66.5505 221.225 66.5744C221.108 66.5983 220.988 66.5955 220.872 66.5662L218.289 66.0142C218.165 65.9881 218.047 65.9375 217.943 65.8655C217.839 65.7935 217.75 65.7014 217.682 65.5947C217.609 65.4948 217.562 65.3792 217.542 65.2574C217.523 65.1356 217.533 65.011 217.571 64.8937C217.786 64.0907 218.162 63.3396 218.675 62.6857C219.138 62.1086 219.672 61.5929 220.265 61.1511C220.838 60.732 221.445 60.3626 222.081 60.0471C222.71 59.7325 223.295 59.4289 223.836 59.1308C224.331 58.8695 224.796 58.5548 225.222 58.1924C225.594 57.8794 225.852 57.4525 225.956 56.978C226.051 56.5635 226.045 56.1321 225.937 55.7207C225.83 55.3093 225.624 54.93 225.338 54.6154C224.624 53.8354 223.67 53.3166 222.627 53.1416C220.699 52.711 219.069 53.3605 217.737 55.0901C217.609 55.2795 217.446 55.4426 217.257 55.5704C217.154 55.6226 217.042 55.6538 216.928 55.6624C216.813 55.6709 216.698 55.6565 216.589 55.6201L213.829 55.0073C213.731 54.9886 213.639 54.9506 213.556 54.8956C213.474 54.8407 213.403 54.7698 213.348 54.6872C213.288 54.6026 213.248 54.5058 213.23 54.4036C213.211 54.3015 213.216 54.1966 213.243 54.0965C213.476 53.2482 213.911 52.4694 214.513 51.8278C215.188 51.0823 215.99 50.4619 216.881 49.9952C217.858 49.4825 218.911 49.132 220 48.9574C221.162 48.753 222.353 48.7774 223.505 49.0292ZM220.591 68.6473C220.712 68.6731 220.826 68.7238 220.927 68.7959C221.028 68.8681 221.112 68.9603 221.176 69.0668C221.244 69.1698 221.29 69.2856 221.312 69.407C221.334 69.5285 221.33 69.6531 221.303 69.7733L220.64 72.7652C220.585 73.004 220.439 73.2119 220.232 73.3448C220.026 73.4777 219.777 73.5252 219.536 73.4773L216.611 72.8314C216.49 72.8056 216.376 72.7556 216.276 72.6844C216.175 72.6132 216.09 72.5224 216.026 72.4174C215.957 72.3148 215.91 72.1991 215.888 72.0774C215.866 71.9558 215.87 71.831 215.899 71.7109L216.561 68.7135C216.616 68.4747 216.763 68.2668 216.969 68.1339C217.175 68.001 217.425 67.9535 217.665 68.0014L220.591 68.6473Z" fill="#EF2C2C"/>
<path d="M232.183 77.1752C232.914 77.0548 233.657 77.0399 234.391 77.131C235.098 77.2112 235.784 77.4168 236.417 77.7382C237.022 78.0479 237.553 78.4847 237.974 79.0188C238.42 79.5913 238.707 80.2709 238.807 80.9895C238.922 81.5486 238.922 82.1251 238.807 82.6841C238.693 83.1706 238.507 83.6375 238.255 84.0697C238.01 84.4863 237.729 84.8815 237.416 85.2509L236.528 86.2997C236.26 86.6135 236.02 86.9496 235.81 87.3044C235.623 87.6198 235.528 87.981 235.534 88.3477C235.533 88.5199 235.483 88.6883 235.391 88.8334C235.348 88.9028 235.291 88.9621 235.224 89.0069C235.156 89.0518 235.079 89.0811 234.999 89.0928L233.194 89.3909C233.019 89.4183 232.841 89.3768 232.697 89.275C232.626 89.2288 232.567 89.1669 232.524 89.0942C232.481 89.0214 232.455 88.9398 232.448 88.8555C232.373 88.2897 232.416 87.7145 232.575 87.1664C232.719 86.6746 232.928 86.2047 233.199 85.7698C233.458 85.3535 233.751 84.9602 234.077 84.5941C234.403 84.2297 234.695 83.8875 234.971 83.5563C235.22 83.262 235.436 82.9418 235.617 82.6013C235.775 82.3057 235.831 81.9662 235.777 81.6353C235.732 81.3445 235.617 81.069 235.442 80.8325C235.267 80.5959 235.037 80.4054 234.772 80.2774C234.118 79.9579 233.375 79.8684 232.664 80.0235C232.02 80.1184 231.422 80.4094 230.949 80.8568C230.477 81.3043 230.154 81.8865 230.025 82.5241C229.99 82.6798 229.926 82.8276 229.837 82.9601C229.73 83.0775 229.582 83.1488 229.423 83.1588L227.503 83.4735C227.366 83.4959 227.226 83.4664 227.111 83.3907C227.05 83.3516 226.999 83.2997 226.961 83.2386C226.923 83.1776 226.898 83.1089 226.89 83.0374C226.823 82.4344 226.905 81.8243 227.127 81.26C227.367 80.6075 227.722 80.0035 228.176 79.477C228.671 78.8992 229.256 78.4052 229.909 78.0142C230.606 77.5895 231.378 77.3045 232.183 77.1752ZM235.335 90.5281C235.42 90.5138 235.507 90.5168 235.59 90.5367C235.674 90.5566 235.752 90.5931 235.821 90.644C235.89 90.6931 235.949 90.7555 235.993 90.8275C236.038 90.8996 236.068 90.9798 236.081 91.0635L236.423 93.1501C236.437 93.2347 236.434 93.3213 236.414 93.4047C236.394 93.4881 236.358 93.5667 236.307 93.6358C236.259 93.7055 236.196 93.7645 236.124 93.8092C236.052 93.8538 235.971 93.8831 235.887 93.8953L233.845 94.232C233.761 94.2457 233.676 94.2426 233.593 94.2226C233.511 94.2027 233.433 94.1665 233.365 94.1161C233.294 94.0682 233.234 94.0062 233.188 93.934C233.143 93.8618 233.113 93.781 233.1 93.6965L232.758 91.6045C232.732 91.4325 232.776 91.2575 232.88 91.1178C232.983 90.9781 233.138 90.8852 233.31 90.8593L235.335 90.5281Z" fill="#EF2C2C"/>
<g opacity="0.2">
<path d="M232.183 77.1752C232.914 77.0548 233.657 77.0399 234.391 77.131C235.098 77.2112 235.784 77.4168 236.417 77.7382C237.022 78.0479 237.553 78.4847 237.974 79.0188C238.42 79.5913 238.707 80.2709 238.807 80.9895C238.922 81.5486 238.922 82.1251 238.807 82.6841C238.693 83.1706 238.507 83.6375 238.255 84.0697C238.01 84.4863 237.729 84.8815 237.416 85.2509L236.528 86.2997C236.26 86.6135 236.02 86.9496 235.81 87.3044C235.623 87.6198 235.528 87.981 235.534 88.3477C235.533 88.5199 235.483 88.6883 235.391 88.8334C235.348 88.9028 235.291 88.9621 235.224 89.0069C235.156 89.0518 235.079 89.0811 234.999 89.0928L233.194 89.3909C233.019 89.4183 232.841 89.3768 232.697 89.275C232.626 89.2288 232.567 89.1669 232.524 89.0942C232.481 89.0214 232.455 88.9398 232.448 88.8555C232.373 88.2897 232.416 87.7145 232.575 87.1664C232.719 86.6746 232.928 86.2047 233.199 85.7698C233.458 85.3535 233.751 84.9602 234.077 84.5941C234.403 84.2297 234.695 83.8875 234.971 83.5563C235.22 83.262 235.436 82.9418 235.617 82.6013C235.775 82.3057 235.831 81.9662 235.777 81.6353C235.732 81.3445 235.617 81.069 235.442 80.8325C235.267 80.5959 235.037 80.4054 234.772 80.2774C234.118 79.9579 233.375 79.8684 232.664 80.0235C232.02 80.1184 231.422 80.4094 230.949 80.8568C230.477 81.3043 230.154 81.8865 230.025 82.5241C229.99 82.6798 229.926 82.8276 229.837 82.9601C229.73 83.0775 229.582 83.1488 229.423 83.1588L227.503 83.4735C227.366 83.4959 227.226 83.4664 227.111 83.3907C227.05 83.3516 226.999 83.2997 226.961 83.2386C226.923 83.1776 226.898 83.1089 226.89 83.0374C226.823 82.4344 226.905 81.8243 227.127 81.26C227.367 80.6075 227.722 80.0035 228.176 79.477C228.671 78.8992 229.256 78.4052 229.909 78.0142C230.606 77.5895 231.378 77.3045 232.183 77.1752ZM235.335 90.5281C235.42 90.5138 235.507 90.5168 235.59 90.5367C235.674 90.5566 235.752 90.5931 235.821 90.644C235.89 90.6931 235.949 90.7555 235.993 90.8275C236.038 90.8996 236.068 90.9798 236.081 91.0635L236.423 93.1501C236.437 93.2347 236.434 93.3213 236.414 93.4047C236.394 93.4881 236.358 93.5667 236.307 93.6358C236.259 93.7055 236.196 93.7645 236.124 93.8092C236.052 93.8538 235.971 93.8831 235.887 93.8953L233.845 94.232C233.761 94.2457 233.676 94.2426 233.593 94.2226C233.511 94.2027 233.433 94.1665 233.365 94.1161C233.294 94.0682 233.234 94.0062 233.188 93.934C233.143 93.8618 233.113 93.781 233.1 93.6965L232.758 91.6045C232.732 91.4325 232.776 91.2575 232.88 91.1178C232.983 90.9781 233.138 90.8852 233.31 90.8593L235.335 90.5281Z" fill="black"/>
</g>
<path d="M251.006 83.0988C251.17 83.2183 251.28 83.3971 251.314 83.5972C251.348 83.7972 251.303 84.0026 251.188 84.1696L249.731 86.212C249.611 86.376 249.432 86.4868 249.232 86.5208C249.032 86.5548 248.827 86.5094 248.66 86.3942L246.661 84.9756C246.579 84.9179 246.509 84.8441 246.456 84.7588C246.403 84.6734 246.368 84.5781 246.352 84.4788C246.323 84.2853 246.369 84.0881 246.479 83.9268L247.937 81.8788C248.055 81.7142 248.233 81.6031 248.433 81.5697C248.628 81.5405 248.826 81.588 248.985 81.7022L251.006 83.0988ZM259.44 69.2491C260.161 69.7574 260.804 70.3673 261.35 71.0596C261.878 71.7185 262.283 72.4662 262.548 73.2676C262.801 74.0335 262.886 74.8451 262.796 75.6468C262.693 76.5004 262.37 77.3126 261.858 78.0038C261.477 78.5627 260.989 79.041 260.423 79.4114C259.919 79.7239 259.373 79.9602 258.8 80.1124C258.245 80.2606 257.678 80.3603 257.105 80.4105L255.482 80.5485C254.998 80.593 254.518 80.6779 254.047 80.8024C253.626 80.9137 253.244 81.1391 252.943 81.4538C252.799 81.5946 252.62 81.6955 252.424 81.7464C252.329 81.7688 252.231 81.7701 252.135 81.7501C252.04 81.73 251.95 81.6892 251.872 81.6304L250.106 80.3774C249.937 80.2561 249.823 80.074 249.786 79.8696C249.765 79.7731 249.766 79.6731 249.79 79.5774C249.814 79.4816 249.86 79.3927 249.924 79.3176C250.335 78.7789 250.851 78.3299 251.442 77.9983C251.973 77.7069 252.541 77.4878 253.131 77.3469C253.696 77.2102 254.273 77.1216 254.853 77.082C255.405 77.0488 255.957 77.0047 256.465 76.955C256.921 76.9157 257.371 76.8249 257.806 76.6845C258.186 76.5689 258.516 76.33 258.745 76.0056C258.95 75.7245 259.083 75.3975 259.133 75.0531C259.183 74.7087 259.149 74.3573 259.032 74.0294C258.744 73.2159 258.192 72.5222 257.464 72.0588C256.15 71.1204 254.715 71.0891 253.158 71.9649C253.001 72.0652 252.827 72.1363 252.645 72.1747C252.55 72.1814 252.455 72.1693 252.365 72.1389C252.275 72.1086 252.192 72.0607 252.121 71.998L250.244 70.6622C250.107 70.5693 250.012 70.4267 249.979 70.2648C249.963 70.1819 249.965 70.0967 249.985 70.0147C250.005 69.9328 250.042 69.8561 250.095 69.79C250.532 69.2254 251.1 68.7763 251.751 68.4818C252.498 68.1364 253.299 67.9253 254.119 67.858C255.017 67.7848 255.921 67.8556 256.796 68.0678C257.747 68.2824 258.646 68.6839 259.44 69.2491Z" fill="#EF2C2C"/>
<g opacity="0.6">
<path d="M251.006 83.0988C251.17 83.2183 251.28 83.3971 251.314 83.5972C251.348 83.7972 251.303 84.0026 251.188 84.1696L249.731 86.212C249.611 86.376 249.432 86.4868 249.232 86.5208C249.032 86.5548 248.827 86.5094 248.66 86.3942L246.661 84.9756C246.579 84.9179 246.509 84.8441 246.456 84.7588C246.403 84.6734 246.368 84.5781 246.352 84.4788C246.323 84.2853 246.369 84.0881 246.479 83.9268L247.937 81.8788C248.055 81.7142 248.233 81.6031 248.433 81.5697C248.628 81.5405 248.826 81.588 248.985 81.7022L251.006 83.0988ZM259.44 69.2491C260.161 69.7574 260.804 70.3673 261.35 71.0596C261.878 71.7185 262.283 72.4662 262.548 73.2676C262.801 74.0335 262.886 74.8451 262.796 75.6468C262.693 76.5004 262.37 77.3126 261.858 78.0038C261.477 78.5627 260.989 79.041 260.423 79.4114C259.919 79.7239 259.373 79.9602 258.8 80.1124C258.245 80.2606 257.678 80.3603 257.105 80.4105L255.482 80.5485C254.998 80.593 254.518 80.6779 254.047 80.8024C253.626 80.9137 253.244 81.1391 252.943 81.4538C252.799 81.5946 252.62 81.6955 252.424 81.7464C252.329 81.7688 252.231 81.7701 252.135 81.7501C252.04 81.73 251.95 81.6892 251.872 81.6304L250.106 80.3774C249.937 80.2561 249.823 80.074 249.786 79.8696C249.765 79.7731 249.766 79.6731 249.79 79.5774C249.814 79.4816 249.86 79.3927 249.924 79.3176C250.335 78.7789 250.851 78.3299 251.442 77.9983C251.973 77.7069 252.541 77.4878 253.131 77.3469C253.696 77.2102 254.273 77.1216 254.853 77.082C255.405 77.0488 255.957 77.0047 256.465 76.955C256.921 76.9157 257.371 76.8249 257.806 76.6845C258.186 76.5689 258.516 76.33 258.745 76.0056C258.95 75.7245 259.083 75.3975 259.133 75.0531C259.183 74.7087 259.149 74.3573 259.032 74.0294C258.744 73.2159 258.192 72.5222 257.464 72.0588C256.15 71.1204 254.715 71.0891 253.158 71.9649C253.001 72.0652 252.827 72.1363 252.645 72.1747C252.55 72.1814 252.455 72.1693 252.365 72.1389C252.275 72.1086 252.192 72.0607 252.121 71.998L250.244 70.6622C250.107 70.5693 250.012 70.4267 249.979 70.2648C249.963 70.1819 249.965 70.0967 249.985 70.0147C250.005 69.9328 250.042 69.8561 250.095 69.79C250.532 69.2254 251.1 68.7763 251.751 68.4818C252.498 68.1364 253.299 67.9253 254.119 67.858C255.017 67.7848 255.921 67.8556 256.796 68.0678C257.747 68.2824 258.646 68.6839 259.44 69.2491Z" fill="white"/>
</g>
<path d="M73.1282 192.386C73.073 190.73 74.2654 174.545 74.2654 174.545L66.3828 180.264C68.0002 189.913 68.3479 192.192 68.3755 193.771C68.3422 193.903 68.3273 194.038 68.3314 194.174C68.3314 196.051 70.4566 197.061 72.1071 198.314C73.5099 199.411 75.0039 200.386 76.5727 201.229C77.7706 201.83 80.2104 201.885 80.5085 201.113C78.4992 199.578 75.5791 197.282 73.9783 195.532C73.2166 194.693 73.189 194.031 73.1282 192.386Z" fill="#FFA8A7"/>
<path d="M83.9339 203.139C84.0233 203.396 84.0391 203.674 83.9797 203.94C83.9202 204.206 83.7878 204.451 83.5972 204.646C82.1495 205.69 80.3477 206.118 78.5851 205.838C76.079 205.512 74.7211 204.8 73.7219 203.961C72.7228 203.122 71.3152 201.941 70.1781 201.692C69.2741 201.52 68.4142 201.167 67.6499 200.655C67.3132 200.329 67.3574 198.883 67.3574 198.883L83.9339 203.139Z" fill="#263238"/>
<path d="M68.359 193.312C68.2661 193.315 68.1772 193.35 68.1077 193.412C68.0381 193.473 67.9922 193.557 67.9781 193.649C67.9008 194.047 67.818 195.206 67.6524 195.857C67.3962 197.009 67.3143 198.192 67.4095 199.368C67.5475 200.113 69.2587 200.627 70.3572 201.024C71.649 201.586 72.8477 202.342 73.9121 203.265C75.4482 204.414 77.2816 205.098 79.1947 205.236C81.1267 205.236 83.3016 204.595 83.8039 203.701C84.4167 202.597 83.9364 201.951 81.0715 200.621C80.5195 200.373 78.6262 199.241 77.9748 198.832C76.2194 197.728 74.4807 196.188 73.6692 194.234C73.6038 193.995 73.4599 193.785 73.2607 193.638C73.0869 193.563 72.894 193.544 72.7087 193.583C72.2303 193.653 71.7651 193.794 71.3287 194.002C70.9479 194.185 70.4014 194.4 70.4069 194.891C70.4186 195.061 70.4559 195.229 70.5173 195.388C70.5504 195.493 70.578 195.625 70.5173 195.686C70.4566 195.747 70.3241 195.686 70.2468 195.609C69.9659 195.321 69.7093 195.011 69.4795 194.681C69.3438 194.513 69.1902 194.359 69.0214 194.223C68.8525 194.128 68.6902 194.021 68.5356 193.903C68.3259 193.754 68.37 193.544 68.359 193.312Z" fill="#455A64"/>
<path d="M73.9098 203.291C73.4075 202.883 72.8776 202.48 72.3477 202.127C72.3477 202.127 75.7149 204.175 77.0728 203.231C77.3248 203.071 77.5091 202.824 77.5906 202.537C77.672 202.25 77.6449 201.942 77.5144 201.674C77.5144 201.442 79.6561 200.443 80.5062 200.344C80.7436 200.476 80.9423 200.581 81.0582 200.636C83.9231 201.967 84.4033 202.607 83.7906 203.716C83.2883 204.611 81.7151 205.312 79.2201 205.312C77.5972 205.345 75.069 204.241 73.9098 203.291Z" fill="#37474F"/>
<path d="M77.2781 201.007C79.0611 201.719 78.2993 202.05 77.8025 202.111C77.3057 202.171 74.3084 200.455 72.4757 198.986C70.6431 197.518 69.3679 195.823 68.6614 195.271C68.3964 195.067 68.1094 194.813 67.8555 194.576C67.9051 194.184 67.9438 193.825 67.9769 193.638C67.9911 193.546 68.0369 193.462 68.1065 193.4C68.176 193.339 68.265 193.304 68.3578 193.301C68.3578 193.533 68.3247 193.748 68.5013 193.919C68.6559 194.036 68.8182 194.143 68.9871 194.239C69.1559 194.375 69.3095 194.529 69.4452 194.697C69.675 195.027 69.9316 195.337 70.2125 195.625C72.1988 197.857 74.5981 199.685 77.2781 201.007Z" fill="#263238"/>
<path d="M77.6763 201.863C77.6355 201.862 77.5965 201.846 77.5659 201.819C77.548 201.805 77.533 201.788 77.5219 201.768C77.5107 201.748 77.5037 201.726 77.5011 201.704C77.4985 201.681 77.5005 201.658 77.5069 201.636C77.5133 201.614 77.524 201.594 77.5383 201.576C77.9582 201.14 78.4666 200.799 79.0294 200.577C79.5921 200.354 80.1961 200.254 80.8006 200.285C80.848 200.29 80.8914 200.314 80.9213 200.351C80.9512 200.388 80.9654 200.436 80.9607 200.483C80.9552 200.529 80.9318 200.571 80.8957 200.6C80.8596 200.629 80.8136 200.643 80.7675 200.638C80.2217 200.615 79.6772 200.707 79.1688 200.906C78.6603 201.106 78.199 201.409 77.8143 201.797C77.7975 201.818 77.7764 201.834 77.7526 201.845C77.7288 201.857 77.7028 201.863 77.6763 201.863Z" fill="#F5F5F5"/>
<path d="M76.1258 200.93C76.0837 200.932 76.0424 200.918 76.0098 200.891C75.9784 200.858 75.9609 200.813 75.9609 200.767C75.9609 200.721 75.9784 200.677 76.0098 200.643C76.4306 200.209 76.9394 199.869 77.502 199.647C78.0646 199.426 78.6681 199.327 79.2722 199.357C79.319 199.362 79.3619 199.386 79.3914 199.422C79.4209 199.459 79.4346 199.506 79.4295 199.553C79.4244 199.6 79.4008 199.643 79.3641 199.672C79.3273 199.702 79.2804 199.715 79.2335 199.71C78.6876 199.686 78.1427 199.777 77.634 199.977C77.1253 200.176 76.6642 200.48 76.2803 200.869C76.2615 200.891 76.2376 200.908 76.2106 200.919C76.1837 200.93 76.1545 200.933 76.1258 200.93Z" fill="#F5F5F5"/>
<path d="M74.5677 199.996C74.5275 199.997 74.4884 199.983 74.4573 199.958C74.4246 199.925 74.4062 199.88 74.4062 199.834C74.4062 199.787 74.4246 199.742 74.4573 199.709C74.8783 199.275 75.387 198.936 75.9496 198.714C76.5122 198.492 77.1156 198.393 77.7196 198.423C77.7428 198.425 77.7654 198.432 77.7861 198.443C77.8067 198.454 77.825 198.468 77.8399 198.486C77.8548 198.504 77.866 198.525 77.8728 198.547C77.8796 198.57 77.882 198.593 77.8797 198.616C77.8776 198.64 77.871 198.662 77.8601 198.683C77.8492 198.704 77.8344 198.722 77.8164 198.737C77.7985 198.752 77.7778 198.763 77.7554 198.77C77.7331 198.776 77.7097 198.779 77.6865 198.776C77.1406 198.753 76.5957 198.843 76.087 199.043C75.5783 199.243 75.1171 199.547 74.7333 199.936C74.7128 199.959 74.6869 199.976 74.6581 199.987C74.6292 199.997 74.5981 200.001 74.5677 199.996Z" fill="#F5F5F5"/>
<path d="M73.1287 198.966C73.0885 198.966 73.0494 198.952 73.0183 198.927C73.0014 198.911 72.9879 198.892 72.9788 198.87C72.9696 198.849 72.9648 198.826 72.9648 198.803C72.9648 198.779 72.9696 198.756 72.9788 198.735C72.9879 198.714 73.0014 198.694 73.0183 198.678C73.4386 198.244 73.9473 197.904 74.51 197.682C75.0727 197.46 75.6765 197.361 76.2806 197.392C76.3265 197.398 76.3684 197.421 76.3973 197.457C76.4262 197.493 76.4398 197.539 76.4351 197.586C76.4296 197.631 76.4062 197.673 76.3701 197.702C76.334 197.731 76.288 197.745 76.2419 197.74C75.6963 197.718 75.1521 197.81 74.6437 198.01C74.1354 198.209 73.674 198.512 73.2887 198.899C73.27 198.923 73.2454 198.942 73.2174 198.953C73.1893 198.965 73.1588 198.969 73.1287 198.966Z" fill="#F5F5F5"/>
<path d="M71.72 197.933C71.6802 197.932 71.6419 197.918 71.6096 197.895C71.5769 197.862 71.5586 197.817 71.5586 197.77C71.5586 197.724 71.5769 197.679 71.6096 197.646C72.0648 197.173 72.6221 196.809 73.2392 196.583C73.8562 196.357 74.5166 196.275 75.17 196.344C75.1934 196.345 75.2162 196.351 75.237 196.362C75.2578 196.372 75.2761 196.387 75.2907 196.406C75.3053 196.424 75.3158 196.445 75.3217 196.468C75.3275 196.49 75.3285 196.514 75.3246 196.537C75.319 196.583 75.2957 196.625 75.2596 196.654C75.2234 196.682 75.1774 196.696 75.1314 196.691C74.5374 196.633 73.9378 196.707 73.3763 196.91C72.8148 197.112 72.3056 197.437 71.8856 197.862C71.8663 197.886 71.841 197.906 71.812 197.919C71.7831 197.931 71.7514 197.936 71.72 197.933Z" fill="#F5F5F5"/>
<path d="M58.2785 181.913L50.3242 181.77C50.4401 187.08 51.2847 192.97 51.4282 197.949C51.4282 198.887 51.4282 205.235 51.7594 207.167C52.3114 210.065 55.7338 209.673 55.916 207.94C56.0981 206.207 55.6952 198.793 55.7062 198.004C55.6731 194.813 57.169 189.42 57.9584 183.685C57.9915 183.426 58.2399 182.189 58.2785 181.913Z" fill="#FFA8A7"/>
<path d="M57.2086 209.143C57.3564 210.472 57.1665 211.816 56.6566 213.051C56.4042 213.542 55.9969 213.936 55.4978 214.171C54.9988 214.407 54.4359 214.471 53.8966 214.354C52.7209 214.183 51.1698 213.554 50.695 212.146C50.2455 210.85 50.0872 209.47 50.2314 208.105L57.2086 209.143Z" fill="#263238"/>
<path d="M51.4059 197.342C50.9367 197.425 51.025 199.715 50.9808 202.017C50.9312 204.49 50.3074 205.572 50.2467 207.598C50.1749 209.916 50.4012 210.91 51.3507 212.224C52.3001 213.537 55.2644 214.597 56.4622 212.478C57.4392 210.75 57.3068 208.956 56.97 206.682C56.6333 204.407 56.3684 202.685 56.28 200.886C56.1917 199.086 56.1531 197.491 55.728 197.342C55.728 197.596 55.728 197.921 55.728 198.17C55.728 198.418 55.7667 199.274 55.5017 199.329C55.4609 199.116 55.4369 198.9 55.43 198.683C55.4422 198.483 55.377 198.285 55.2478 198.131C55.0881 198.013 54.8942 197.951 54.6958 197.955C54.223 197.901 53.7474 197.875 53.2716 197.877C53.0343 197.877 52.7914 197.877 52.5596 197.916C52.3556 197.931 52.1558 197.982 51.9689 198.065C51.9139 198.088 51.8643 198.123 51.8235 198.167C51.7826 198.211 51.7513 198.262 51.7316 198.319C51.715 198.406 51.715 198.496 51.7316 198.584C51.7509 198.741 51.7509 198.901 51.7316 199.059C51.7316 199.13 51.6819 199.219 51.6101 199.208C51.5384 199.197 51.5273 199.13 51.5218 199.075C51.4887 198.799 51.5218 198.595 51.4887 198.275C51.4887 198.126 51.4887 197.921 51.4887 197.772C51.4887 197.623 51.4114 197.491 51.4059 197.342Z" fill="#455A64"/>
<path d="M50.2873 206.936C50.2873 207.273 50.2155 209.486 50.8393 209.818C51.4631 210.149 51.7059 208.426 51.7059 208.426C51.7059 208.426 53.1687 207.814 55.4651 208.553C55.3878 208.918 55.8404 210.055 56.42 209.746C56.9996 209.437 56.972 206.914 56.972 206.881C57.2867 209.089 57.386 210.8 56.42 212.478C55.2222 214.598 52.2469 213.527 51.3085 212.224C50.3701 210.921 50.1438 209.917 50.2045 207.598C50.2321 207.367 50.2707 207.151 50.2873 206.936Z" fill="#37474F"/>
<path d="M51.887 208.554C51.9588 209.382 51.1198 209.188 50.9652 208.002C50.8106 206.815 51.175 204.005 50.9652 201.996C51.0094 199.694 50.921 197.403 51.3902 197.32C51.3875 197.348 51.3875 197.376 51.3902 197.403L51.4454 198.568C51.4346 198.733 51.4346 198.899 51.4454 199.065C51.6 200.754 51.6938 204.033 51.6994 205.589C51.7091 206.58 51.7717 207.569 51.887 208.554Z" fill="#263238"/>
<path d="M55.198 208.553C55.3061 207.576 55.3596 206.594 55.3581 205.611C55.3581 204.065 55.4574 200.825 55.612 199.125C55.6718 198.81 55.6959 198.49 55.6838 198.17C55.6838 197.938 55.6838 197.618 55.6838 197.397C55.6838 197.397 55.6838 197.364 55.6838 197.342C55.9929 197.458 56.1033 198.369 56.1695 199.517C56.1695 200.185 56.1695 201.013 56.1088 202.017C55.899 204.027 56.2634 206.875 56.1088 208.04C55.9542 209.204 55.1428 209.381 55.198 208.553Z" fill="#263238"/>
<path d="M55.5264 208.613H55.4656C54.2729 208.202 52.9765 208.202 51.7838 208.613C51.7621 208.622 51.7389 208.626 51.7156 208.625C51.6923 208.625 51.6694 208.619 51.6481 208.61C51.6268 208.6 51.6076 208.587 51.5916 208.57C51.5756 208.553 51.5631 208.533 51.5547 208.511C51.5464 208.49 51.5424 208.466 51.543 208.443C51.5437 208.42 51.5489 208.397 51.5583 208.376C51.5678 208.354 51.5814 208.335 51.5983 208.319C51.6152 208.303 51.6351 208.291 51.6568 208.282C52.9294 207.828 54.32 207.828 55.5926 208.282C55.6143 208.29 55.6342 208.302 55.651 208.318C55.6678 208.334 55.6813 208.353 55.6906 208.374C55.6999 208.395 55.7048 208.418 55.705 208.441C55.7053 208.464 55.7008 208.487 55.692 208.509C55.6784 208.541 55.6553 208.568 55.6257 208.587C55.596 208.606 55.5614 208.615 55.5264 208.613Z" fill="#F5F5F5"/>
<path d="M55.7508 206.781C55.7309 206.786 55.71 206.786 55.6901 206.781C54.349 206.365 52.9132 206.365 51.5722 206.781C51.5501 206.789 51.5266 206.792 51.5032 206.791C51.4798 206.789 51.4569 206.783 51.4359 206.773C51.4148 206.763 51.396 206.748 51.3806 206.731C51.3651 206.713 51.3533 206.693 51.3458 206.671C51.3381 206.649 51.3349 206.626 51.3363 206.603C51.3377 206.58 51.3437 206.557 51.354 206.537C51.3643 206.516 51.3787 206.498 51.3963 206.483C51.4138 206.468 51.4342 206.457 51.4563 206.45C52.873 205.999 54.3948 205.999 55.8115 206.45C55.8503 206.464 55.8828 206.492 55.9034 206.528C55.9239 206.563 55.9312 206.605 55.924 206.646C55.9168 206.687 55.8955 206.724 55.8638 206.75C55.8322 206.777 55.7922 206.792 55.7508 206.792V206.781Z" fill="#F5F5F5"/>
<path d="M51.4993 205.048C51.4655 205.047 51.4326 205.037 51.4043 205.018C51.3761 205 51.3535 204.974 51.3392 204.943C51.3205 204.901 51.3193 204.853 51.3358 204.809C51.3523 204.766 51.3853 204.731 51.4275 204.711C52.8219 204.163 54.3705 204.153 55.7717 204.684C55.7934 204.692 55.8133 204.704 55.8301 204.72C55.847 204.736 55.8605 204.755 55.8697 204.776C55.879 204.797 55.8839 204.82 55.8842 204.843C55.8844 204.866 55.88 204.889 55.8711 204.91C55.8539 204.953 55.8205 204.987 55.7782 205.006C55.7359 205.025 55.688 205.026 55.6448 205.01C55.6448 205.01 53.4809 204.159 51.5765 205.01C51.554 205.028 51.5276 205.041 51.4993 205.048Z" fill="#F5F5F5"/>
<path d="M51.4612 203.424C51.4278 203.425 51.3951 203.415 51.3668 203.398C51.3384 203.38 51.3157 203.355 51.3011 203.325C51.282 203.283 51.28 203.236 51.2954 203.192C51.3109 203.149 51.3426 203.114 51.3839 203.093C52.0759 202.778 52.8262 202.61 53.5866 202.602C54.3471 202.593 55.101 202.744 55.7999 203.044C55.8208 203.053 55.8396 203.067 55.8552 203.083C55.8708 203.1 55.8828 203.12 55.8905 203.142C55.8982 203.164 55.9015 203.186 55.9002 203.209C55.8988 203.232 55.8929 203.255 55.8827 203.275C55.8732 203.296 55.8596 203.315 55.8427 203.331C55.8258 203.346 55.806 203.358 55.7843 203.366C55.7627 203.374 55.7397 203.377 55.7168 203.376C55.6939 203.374 55.6714 203.368 55.6508 203.358C54.9951 203.087 54.291 202.951 53.5813 202.96C52.8715 202.968 52.1709 203.121 51.5219 203.408C51.5027 203.417 51.4822 203.422 51.4612 203.424Z" fill="#F5F5F5"/>
<path d="M51.4215 201.609C51.3811 201.609 51.3416 201.596 51.3098 201.571C51.278 201.546 51.2557 201.511 51.2467 201.472C51.2376 201.432 51.2424 201.391 51.2601 201.355C51.2779 201.318 51.3075 201.289 51.3442 201.272C53.4473 200.234 55.716 201.228 55.8099 201.272C55.8318 201.28 55.8518 201.293 55.8684 201.31C55.885 201.326 55.8979 201.346 55.9063 201.368C55.9146 201.39 55.9182 201.413 55.9168 201.437C55.9154 201.46 55.9091 201.483 55.8982 201.504C55.8789 201.546 55.8438 201.579 55.8004 201.596C55.757 201.612 55.7089 201.611 55.6664 201.592C55.6664 201.592 53.4584 200.626 51.5043 201.592C51.4787 201.605 51.4501 201.611 51.4215 201.609Z" fill="#F5F5F5"/>
<path d="M52.9401 130.273C50.136 138.04 50.6272 142.914 51.1075 151.056C51.5491 158.519 52.2501 165.094 52.2501 165.094C52.1397 166.418 50.2961 169.002 50.0421 174.853C49.9608 178.973 50.1451 183.094 50.5941 187.19C50.5941 187.19 54.2649 188.532 57.3672 187.19C57.3672 187.19 60.5412 173.175 61.4078 166.325C62.1585 160.346 63.4723 152.707 63.4723 152.707L66.2323 166.297C65.6928 168.123 65.4159 170.017 65.4098 171.922C65.4098 175.118 66.8947 184.005 66.8947 184.005C66.8947 184.005 71.0071 185.335 73.6125 183.023C73.6125 183.023 74.6448 170.233 75.0091 165.359C75.4948 158.856 74.7883 141.032 73.2261 131.907L52.9401 130.273Z" fill="#455A64"/>
<path d="M63.5078 152.685L64.656 142.462C64.656 142.462 69.7951 141.777 72.1245 139.586C71.4563 140.631 70.5656 141.516 69.516 142.177C68.4664 142.838 67.2838 143.26 66.0525 143.411L64.3965 152.928L66.2733 166.275L63.5078 152.685Z" fill="#37474F"/>
<path d="M76.2146 122.694C73.714 120.122 69.1987 114.304 69.1987 114.304L66.6484 105.472C67.2185 105.501 67.7896 105.501 68.3596 105.472C71.1196 105.654 71.9311 105.891 73.6478 107.768C75.0112 109.264 80.2111 116.363 82.0161 118.753L86.813 112.642C87.9667 110.903 87.779 108.955 88.3752 107.536C88.9713 106.118 89.9373 105.494 90.7101 104.224C91.4829 102.955 91.6651 102.105 92.2999 102.761C92.9347 103.418 92.2005 105.185 92.1067 105.588C92.0128 105.991 91.0413 107.189 92.6587 106.565C94.276 105.941 96.7711 102.988 97.4114 102.386C98.0517 101.784 98.394 102.717 98.2504 103.457C98.1069 104.197 98.8024 105.864 98.5485 107.084C98.3905 108.311 97.7803 109.435 96.8373 110.236C95.6726 111.406 92.8243 112.847 91.7092 114.387C90.5942 115.927 88.2151 120.713 86.7412 123.594C84.892 127.259 83.3188 128.468 81.2212 127.232C79.1236 125.995 77.1364 123.649 76.2146 122.694Z" fill="#FFA8A7"/>
<path d="M67.4571 105.379C68.8685 105.238 70.2933 105.427 71.6192 105.931C73.1151 106.605 74.1307 108.051 75.5935 110.011C77.0563 111.97 79.6673 115.398 79.6673 115.398C79.6673 115.398 78.9608 118.373 74.3019 121.045L66.6953 113.212L67.4571 105.379Z" fill="#37474F"/>
<path d="M82.0135 118.748C81.1036 119.606 80.494 120.734 80.2747 121.966C80.2747 121.966 79.7227 120.194 81.605 118.201L82.0135 118.748Z" fill="#F28F8F"/>
<path d="M72.9682 121.061C76.363 118.268 75.2424 114.63 74.0059 112.179C71.5275 107.283 68.9496 105.357 67.8732 105.373L61.1223 105.439C57.8986 105.881 55.4035 105.66 54.6252 105.842C52.638 106.312 52.5938 107.945 52.5166 110.06C52.4338 112.378 51.247 111.986 51.8486 115.817C52.5583 117.241 53.1813 118.706 53.7144 120.205C54.0787 121.53 55.1054 123.639 54.559 125.781C54.3492 126.609 53.7862 127.437 52.9416 129.705C51.984 132.255 51.2724 134.891 50.8164 137.577C50.8164 137.577 52.787 137.119 55.0282 134.734C55.0282 134.734 58.0918 138.835 65.461 138.421C73.1062 137.991 73.7796 134.005 73.7796 134.005L72.6094 126.829C72.786 123.931 72.8633 122.883 72.9682 121.061Z" fill="#EF2C2C"/>
<path opacity="0.1" d="M68.5569 120.337C68.5569 120.337 65.7969 122.545 62.5567 121.485C61.6541 121.214 60.8358 120.717 60.1797 120.041C59.5236 119.365 59.0516 118.532 58.8086 117.621C58.8086 117.621 58.5326 121.292 62.6064 122.473C63.6961 122.804 64.8633 122.774 65.9351 122.39C67.0069 122.005 67.9263 121.285 68.5569 120.337Z" fill="black"/>
<path d="M49.2309 102.221C48.2318 101.493 42.8498 108.696 45.3669 110.501C47.884 112.307 50.5667 107.189 50.0258 104.772C49.4848 102.354 49.2309 102.221 49.2309 102.221Z" fill="#37474F"/>
<path d="M44.3464 98.6442C45.6933 96.7785 46.6096 95.3709 47.8406 93.7701C48.5361 92.8593 48.9832 92.2134 49.6511 91.2806C50.1148 90.6402 50.3853 90.0993 50.9042 89.8951C51.4834 89.6401 52.0011 89.2636 52.4222 88.7911C52.68 88.4924 52.9179 88.177 53.1343 87.8471C53.9123 86.7697 54.8419 85.8104 55.8943 84.9988C56.9983 84.1432 58.2071 83.4808 59.3332 82.6638C60.0011 82.1781 60.7187 81.3777 59.8852 80.6546C59.6262 80.4455 59.3186 80.305 58.991 80.2461C56.9817 79.8431 55.2429 80.5662 53.2888 81.1017C52.4391 81.3333 51.6086 81.6305 50.8048 81.9904C50.4058 82.1524 50.0336 82.3739 49.7008 82.6473C49.2386 83.1303 48.8649 83.6908 48.5968 84.3033C47.7412 85.8765 45.9362 87.2786 44.6721 88.5095C43.1872 89.9558 41.8624 91.2695 40.1678 92.8758C38.6442 94.311 37.1483 95.6358 35.7518 97.2035C34.5981 98.4952 35.0452 99.4888 35.1998 99.8255C36.1934 101.78 37.2753 102.47 38.578 103.69C39.0086 104.087 39.4446 104.479 39.8807 104.871C41.5698 106.394 43.259 107.818 45.0143 109.287C46.8911 110.832 47.6639 111.583 49.3365 113.085C50.3919 114.054 51.2716 115.199 51.9364 116.468C54.8344 116.949 57.6827 112.516 55.1987 107.333C54.7902 106.494 54.1723 105.776 53.4047 105.246C50.3467 103.066 44.3464 98.6442 44.3464 98.6442Z" fill="#FFA8A7"/>
<path d="M44.3473 98.6445C43.4433 99.7924 42.2286 100.656 40.8477 101.134C40.8477 101.134 42.6969 101.576 45.1809 99.2628L44.3473 98.6445Z" fill="#F28F8F"/>
<path d="M54.8574 105.798C54.1785 105.328 52.528 104.329 49.2325 102.221C49.2325 102.221 49.7404 103.286 48.94 105.963C48.1396 108.64 46.4505 110.335 45.3906 110.528C45.3906 110.528 47.2343 111.986 48.9345 113.631C50.6346 115.276 52.0312 116.44 53.0137 118.35C53.0137 118.35 55.4425 117.726 55.9945 113.608C56.3809 110.722 56.1491 107.332 54.8574 105.798Z" fill="#455A64"/>
<path d="M73.2916 92.5399C73.7769 91.5143 73.9906 90.3814 73.9123 89.2495C73.834 88.1177 73.4663 87.0249 72.8445 86.0759C70.7524 83.1007 67.2251 81.6599 63.328 81.7041H62.1191C56.8585 81.7924 52.0782 86.3078 51.9844 91.3917C51.9844 94.9687 51.9844 98.2752 53.955 100.715C55.7711 102.984 58.6029 103.729 60.993 104.093C65.5636 104.789 70.6972 104.259 72.7727 101.146C72.7727 101.146 70.0127 101.698 70.3605 98.8382C70.4101 98.3856 69.9796 97.8887 69.2233 97.3754C69.753 96.4578 70.3765 95.5976 71.0836 94.8086C71.8619 94.0303 72.7617 93.5942 73.2916 92.5399Z" fill="#263238"/>
<path d="M71.9305 95.151C71.9029 100.478 70.1972 101.819 69.3416 102.217C68.486 102.614 66.808 102.404 65.1796 102.167L65.2348 105.363C65.2348 105.363 67.1392 107.289 67.0288 108.758C66.9184 110.226 64.1142 110.414 61.989 109.039C60.8183 108.264 59.7564 107.336 58.8316 106.279C58.6551 106.075 58.5555 105.815 58.55 105.545L58.4176 98.0324C58.4176 98.0324 57.5454 98.9874 55.9556 97.9386C55.6122 97.7286 55.3162 97.4496 55.0863 97.1192C54.8565 96.7887 54.6979 96.4141 54.6205 96.0191C54.5432 95.6241 54.5488 95.2173 54.6371 94.8246C54.7253 94.4319 54.8942 94.0618 55.1332 93.7378C55.3577 93.5195 55.6275 93.353 55.9234 93.2502C56.2193 93.1475 56.5341 93.1108 56.8457 93.1429C57.1573 93.175 57.4581 93.2751 57.7268 93.4361C57.9955 93.597 58.2257 93.815 58.401 94.0746C58.8868 94.9798 58.8426 95.6202 59.505 95.5153C60.1674 95.4104 60.195 94.6928 60.2392 94.1794C60.2833 93.6661 60.2392 93.5005 60.3054 92.827C61.8786 92.4903 63.507 90.2989 63.6892 88.6981C64.7549 89.2222 65.9295 89.4871 67.1171 89.4709C68.878 89.3494 69.7888 88.9962 70.6554 87.7266C70.8619 88.017 71.0272 88.3347 71.1467 88.6705C71.3919 89.3502 71.5766 90.0503 71.6987 90.7626C71.8953 92.2166 71.9728 93.6843 71.9305 95.151Z" fill="#FFA8A7"/>
<path d="M65.1807 102.167C63.464 101.968 59.9256 101.019 59.3516 99.6387C59.5836 100.339 60.0248 100.952 60.6156 101.394C61.6865 102.277 65.1972 103.232 65.1972 103.232L65.1807 102.167Z" fill="#F28F8F"/>
<path d="M66.9058 99.2959C66.9091 99.4347 66.871 99.5714 66.7965 99.6886C66.7219 99.8058 66.6143 99.8982 66.4872 99.9541C66.36 100.01 66.2192 100.027 66.0824 100.003C65.9457 99.9784 65.8192 99.914 65.7191 99.8178C65.619 99.7215 65.5497 99.5977 65.5201 99.4621C65.4904 99.3264 65.5017 99.185 65.5526 99.0557C65.6034 98.9265 65.6915 98.8153 65.8056 98.7362C65.9198 98.6571 66.0549 98.6136 66.1937 98.6114C66.3787 98.6085 66.5574 98.6787 66.6908 98.807C66.8242 98.9352 66.9014 99.1109 66.9058 99.2959Z" fill="#B16668"/>
<path d="M66.006 94.0515C66.0151 94.1495 66.0047 94.2482 65.9754 94.3421C65.9462 94.436 65.8986 94.5232 65.8355 94.5986C65.7724 94.6741 65.695 94.7363 65.6077 94.7816C65.5204 94.827 65.425 94.8546 65.327 94.863C65.1761 94.8791 65.0237 94.8497 64.8896 94.7787C64.7554 94.7076 64.6456 94.5981 64.5741 94.4642C64.5026 94.3302 64.4728 94.178 64.4884 94.027C64.5041 93.876 64.5645 93.7331 64.6619 93.6167C64.7593 93.5002 64.8893 93.4156 65.0352 93.3735C65.1811 93.3315 65.3362 93.334 65.4806 93.3807C65.6251 93.4275 65.7522 93.5163 65.8459 93.6358C65.9395 93.7553 65.9952 93.9001 66.006 94.0515Z" fill="#263238"/>
<path d="M70.9877 93.7379C71.0015 93.9178 70.9437 94.0958 70.8269 94.2333C70.7101 94.3708 70.5437 94.4566 70.364 94.4721C70.2734 94.4832 70.1815 94.4747 70.0946 94.4471C70.0076 94.4195 69.9276 94.3735 69.86 94.3122C69.7925 94.2509 69.7389 94.1758 69.703 94.0919C69.6671 94.008 69.6496 93.9174 69.6519 93.8262C69.6428 93.7368 69.6517 93.6466 69.678 93.5607C69.7043 93.4748 69.7476 93.395 69.8052 93.3261C69.8628 93.2572 69.9336 93.2005 70.0134 93.1593C70.0933 93.1182 70.1806 93.0934 70.2701 93.0865C70.4514 93.079 70.6282 93.1431 70.7625 93.265C70.8968 93.3869 70.9777 93.5568 70.9877 93.7379Z" fill="#263238"/>
<path d="M67.5469 93.0469L68.0768 97.496L70.3566 96.5466L67.5469 93.0469Z" fill="#F28F8F"/>
<path d="M63.3477 92.1316L64.6725 90.873C64.8374 91.0566 64.9254 91.2965 64.9183 91.5432C64.9111 91.7898 64.8092 92.0243 64.6338 92.1979C64.5464 92.2807 64.4431 92.345 64.3301 92.3867C64.2171 92.4284 64.0968 92.4468 63.9765 92.4406C63.8562 92.4344 63.7385 92.4038 63.6304 92.3507C63.5223 92.2976 63.4261 92.223 63.3477 92.1316Z" fill="#263238"/>
<path d="M69.9774 90.4629L71.4457 91.5669C71.3781 91.6666 71.2909 91.7514 71.1893 91.8161C71.0877 91.8808 70.9739 91.924 70.855 91.9432C70.7361 91.9623 70.6146 91.9569 70.4978 91.9273C70.3811 91.8977 70.2716 91.8446 70.1761 91.7711C69.9839 91.6185 69.8565 91.3988 69.8196 91.1561C69.7827 90.9134 69.8391 90.6657 69.9774 90.4629Z" fill="#263238"/>
<path d="M48.8129 50.0287C49.8713 49.8269 50.9533 49.7785 52.0255 49.8852C53.0502 49.975 54.0504 50.248 54.9787 50.6911C55.8694 51.1163 56.6568 51.7303 57.2861 52.4906C57.9497 53.3043 58.3909 54.2762 58.5667 55.3113C58.7322 56.1236 58.7322 56.961 58.5667 57.7733C58.4183 58.4803 58.1653 59.1612 57.816 59.7936C57.4769 60.4089 57.0835 60.9927 56.6402 61.5379C56.1986 62.0899 55.7791 62.5977 55.3872 63.089C55.0124 63.5514 54.6798 64.0465 54.3936 64.5684C54.1305 65.0317 54.0024 65.5595 54.0238 66.0919C54.027 66.3394 53.9641 66.5833 53.8416 66.7985C53.7838 66.9001 53.7045 66.9879 53.6091 67.0556C53.5137 67.1234 53.4047 67.1693 53.2896 67.1904L50.6897 67.6817C50.5662 67.7062 50.439 67.7057 50.3157 67.6801C50.1925 67.6545 50.0756 67.6043 49.9721 67.5326C49.8644 67.4709 49.7734 67.3839 49.707 67.279C49.6406 67.1742 49.6009 67.0547 49.5912 66.9309C49.4645 66.1142 49.5058 65.2802 49.7126 64.4801C49.9089 63.7671 50.1965 63.0824 50.5682 62.4432C50.9277 61.8344 51.3395 61.2581 51.7992 60.7209C52.2574 60.1689 52.6714 59.6721 53.0522 59.1864C53.4024 58.7501 53.7058 58.2783 53.9575 57.7788C54.174 57.3453 54.2419 56.8526 54.1507 56.3767C54.0774 55.9572 53.9028 55.562 53.6421 55.2253C53.3815 54.8887 53.0425 54.6207 52.6548 54.4447C51.693 54.0076 50.6127 53.9046 49.5857 54.1521C47.65 54.5201 46.408 55.7603 45.8597 57.8726C45.8114 58.0953 45.7256 58.3081 45.6058 58.5019C45.4527 58.6788 45.2371 58.7896 45.0041 58.811L42.2441 59.3354C42.0535 59.3693 41.857 59.332 41.6921 59.2305C41.6054 59.1733 41.5316 59.0985 41.4756 59.011C41.4195 58.9236 41.3823 58.8254 41.3664 58.7227C41.2472 57.8519 41.3419 56.9652 41.6424 56.1393C41.9549 55.1854 42.4333 54.294 43.0555 53.5063C43.7532 52.6438 44.5843 51.8983 45.5174 51.2983C46.5231 50.6652 47.6424 50.2339 48.8129 50.0287ZM53.8526 69.2107C54.0981 69.1682 54.3504 69.2228 54.5564 69.3629C54.7624 69.5029 54.9059 69.7175 54.9566 69.9614L55.5086 72.9753C55.5338 73.0961 55.5336 73.2208 55.5079 73.3415C55.4823 73.4622 55.4318 73.5763 55.3596 73.6764C55.2918 73.7791 55.2041 73.8671 55.1017 73.9354C54.9993 74.0036 54.8843 74.0507 54.7634 74.0738L51.8213 74.6258C51.6996 74.6511 51.574 74.6509 51.4524 74.6253C51.3308 74.5996 51.2158 74.5491 51.1147 74.4768C51.012 74.409 50.924 74.3213 50.8557 74.2189C50.7875 74.1165 50.7404 74.0015 50.7173 73.8806L50.1653 70.8667C50.1422 70.7455 50.144 70.6208 50.1706 70.5003C50.1972 70.3798 50.2479 70.2659 50.3198 70.1657C50.3859 70.0614 50.4731 69.9722 50.5758 69.9038C50.6785 69.8353 50.7944 69.7891 50.916 69.7682L53.8526 69.2107Z" fill="#EF2C2C"/>
<path d="M76.8643 62.4657C77.5153 62.8266 78.1103 63.2803 78.6307 63.8125C79.1365 64.3113 79.5463 64.8988 79.8396 65.5458C80.1209 66.1646 80.2658 66.8367 80.2646 67.5165C80.2639 68.241 80.0736 68.9527 79.7126 69.5809C79.4422 70.0844 79.0766 70.5305 78.6362 70.8947C78.2417 71.201 77.8047 71.4483 77.339 71.6289C76.8864 71.8057 76.419 71.9424 75.9424 72.0373L74.5956 72.3023C74.1915 72.38 73.7959 72.4964 73.4143 72.6501C73.0708 72.7775 72.7704 72.9995 72.5476 73.2904C72.4391 73.424 72.2959 73.5252 72.1336 73.5829C72.0574 73.6115 71.9758 73.6228 71.8947 73.6161C71.8136 73.6095 71.735 73.5849 71.6644 73.5443L70.0692 72.6501C69.914 72.5652 69.7989 72.4223 69.749 72.2526C69.7219 72.172 69.7137 72.0862 69.7252 72.002C69.7367 71.9177 69.7675 71.8372 69.8152 71.7669C70.1092 71.2788 70.4999 70.8561 70.9634 70.5249C71.3835 70.2314 71.84 69.9939 72.3213 69.8183C72.783 69.654 73.2575 69.5285 73.74 69.4429C74.2202 69.3601 74.6673 69.2773 75.0868 69.189C75.4654 69.1099 75.8353 68.9934 76.1908 68.8413C76.4977 68.7059 76.7531 68.4756 76.9195 68.1844C77.0645 67.9282 77.1452 67.6408 77.1548 67.3466C77.1644 67.0524 77.1026 66.7603 76.9747 66.4953C76.6594 65.8379 76.1326 65.3053 75.4788 64.9828C74.9155 64.6573 74.2656 64.5134 73.6176 64.5707C72.9696 64.628 72.355 64.8837 71.8576 65.3029C71.7346 65.4029 71.5943 65.4796 71.4436 65.5293C71.2856 65.5555 71.1235 65.5199 70.991 65.4299L69.2908 64.4805C69.1705 64.4128 69.0799 64.3025 69.0369 64.1713C69.0154 64.1027 69.0088 64.0304 69.0173 63.959C69.0259 63.8876 69.0495 63.8189 69.0866 63.7573C69.4088 63.2442 69.85 62.8163 70.3728 62.5098C70.9678 62.1507 71.622 61.9002 72.3048 61.7701C73.0521 61.6236 73.8183 61.5994 74.5735 61.6984C75.3793 61.8045 76.1571 62.065 76.8643 62.4657ZM71.0462 74.8581C71.1212 74.8996 71.1871 74.9557 71.2402 75.0229C71.2932 75.0902 71.3324 75.1674 71.3553 75.25C71.3798 75.3314 71.3875 75.4168 71.378 75.5013C71.3685 75.5857 71.342 75.6673 71.3001 75.7413L70.2679 77.5905C70.1841 77.7409 70.0442 77.8521 69.8787 77.8997C69.7132 77.9473 69.5356 77.9274 69.3847 77.8444L67.5796 76.8342C67.5037 76.7948 67.4372 76.7393 67.3847 76.6716C67.3323 76.604 67.2952 76.5257 67.276 76.4423C67.2498 76.3614 67.2407 76.276 67.2492 76.1914C67.2578 76.1068 67.2838 76.025 67.3257 75.951L68.358 74.1018C68.3998 74.0277 68.4561 73.9627 68.5233 73.9105C68.5906 73.8584 68.6677 73.8202 68.7499 73.7982C68.8311 73.7724 68.9168 73.764 69.0014 73.7736C69.086 73.7831 69.1677 73.8103 69.2412 73.8534L71.0462 74.8581Z" fill="#EF2C2C"/>
<g opacity="0.2">
<path d="M76.8643 62.4657C77.5153 62.8266 78.1103 63.2803 78.6307 63.8125C79.1365 64.3113 79.5463 64.8988 79.8396 65.5458C80.1209 66.1646 80.2658 66.8367 80.2646 67.5165C80.2639 68.241 80.0736 68.9527 79.7126 69.5809C79.4422 70.0844 79.0766 70.5305 78.6362 70.8947C78.2417 71.201 77.8047 71.4483 77.339 71.6289C76.8864 71.8057 76.419 71.9424 75.9424 72.0373L74.5956 72.3023C74.1915 72.38 73.7959 72.4964 73.4143 72.6501C73.0708 72.7775 72.7704 72.9995 72.5476 73.2904C72.4391 73.424 72.2959 73.5252 72.1336 73.5829C72.0574 73.6115 71.9758 73.6228 71.8947 73.6161C71.8136 73.6095 71.735 73.5849 71.6644 73.5443L70.0692 72.6501C69.914 72.5652 69.7989 72.4223 69.749 72.2526C69.7219 72.172 69.7137 72.0862 69.7252 72.002C69.7367 71.9177 69.7675 71.8372 69.8152 71.7669C70.1092 71.2788 70.4999 70.8561 70.9634 70.5249C71.3835 70.2314 71.84 69.9939 72.3213 69.8183C72.783 69.654 73.2575 69.5285 73.74 69.4429C74.2202 69.3601 74.6673 69.2773 75.0868 69.189C75.4654 69.1099 75.8353 68.9934 76.1908 68.8413C76.4977 68.7059 76.7531 68.4756 76.9195 68.1844C77.0645 67.9282 77.1452 67.6408 77.1548 67.3466C77.1644 67.0524 77.1026 66.7603 76.9747 66.4953C76.6594 65.8379 76.1326 65.3053 75.4788 64.9828C74.9155 64.6573 74.2656 64.5134 73.6176 64.5707C72.9696 64.628 72.355 64.8837 71.8576 65.3029C71.7346 65.4029 71.5943 65.4796 71.4436 65.5293C71.2856 65.5555 71.1235 65.5199 70.991 65.4299L69.2908 64.4805C69.1705 64.4128 69.0799 64.3025 69.0369 64.1713C69.0154 64.1027 69.0088 64.0304 69.0173 63.959C69.0259 63.8876 69.0495 63.8189 69.0866 63.7573C69.4088 63.2442 69.85 62.8163 70.3728 62.5098C70.9678 62.1507 71.622 61.9002 72.3048 61.7701C73.0521 61.6236 73.8183 61.5994 74.5735 61.6984C75.3793 61.8045 76.1571 62.065 76.8643 62.4657ZM71.0462 74.8581C71.1212 74.8996 71.1871 74.9557 71.2402 75.0229C71.2932 75.0902 71.3324 75.1674 71.3553 75.25C71.3798 75.3314 71.3875 75.4168 71.378 75.5013C71.3685 75.5857 71.342 75.6673 71.3001 75.7413L70.2679 77.5905C70.1841 77.7409 70.0442 77.8521 69.8787 77.8997C69.7132 77.9473 69.5356 77.9274 69.3847 77.8444L67.5796 76.8342C67.5037 76.7948 67.4372 76.7393 67.3847 76.6716C67.3323 76.604 67.2952 76.5257 67.276 76.4423C67.2498 76.3614 67.2407 76.276 67.2492 76.1914C67.2578 76.1068 67.2838 76.025 67.3257 75.951L68.358 74.1018C68.3998 74.0277 68.4561 73.9627 68.5233 73.9105C68.5906 73.8584 68.6677 73.8202 68.7499 73.7982C68.8311 73.7724 68.9168 73.764 69.0014 73.7736C69.086 73.7831 69.1677 73.8103 69.2412 73.8534L71.0462 74.8581Z" fill="black"/>
</g>
<path d="M37.9828 82.7352C38.0563 82.6658 38.1431 82.6119 38.238 82.5768C38.3328 82.5417 38.4338 82.5261 38.5348 82.531C38.6384 82.5324 38.7407 82.5547 38.8355 82.5964C38.9303 82.6381 39.0158 82.6985 39.0868 82.7739L40.787 84.6176C40.8569 84.6928 40.9113 84.7811 40.947 84.8774C40.9826 84.9737 40.9989 85.0761 40.9948 85.1788C40.9907 85.2814 40.9663 85.3822 40.923 85.4753C40.8798 85.5685 40.8186 85.6522 40.7428 85.7216L38.9433 87.3776C38.8681 87.4475 38.7798 87.5019 38.6835 87.5375C38.5872 87.5732 38.4847 87.5895 38.3821 87.5854C38.2795 87.5813 38.1787 87.5569 38.0855 87.5136C37.9924 87.4704 37.9087 87.4091 37.8393 87.3334L36.1391 85.4897C36.0685 85.4149 36.0135 85.3267 35.9774 85.2303C35.9414 85.1339 35.9249 85.0313 35.929 84.9284C35.9331 84.8256 35.9577 84.7246 36.0014 84.6314C36.0451 84.5382 36.1069 84.4547 36.1833 84.3857L37.9828 82.7352ZM26.17 71.6124C26.8155 71.0092 27.5442 70.5017 28.3339 70.1055C29.0837 69.7265 29.8948 69.4835 30.7295 69.3879C31.5308 69.2994 32.3418 69.3822 33.1087 69.6308C33.9234 69.9088 34.652 70.3939 35.2228 71.0384C35.7005 71.5237 36.0759 72.0999 36.3268 72.733C36.5293 73.2883 36.6483 73.8706 36.6801 74.4608C36.7116 75.0354 36.6931 75.6116 36.6249 76.183C36.5531 76.735 36.4869 77.287 36.4262 77.8004C36.3663 78.2837 36.3496 78.7714 36.3765 79.2576C36.3949 79.6947 36.5365 80.1176 36.785 80.4776C36.892 80.6425 36.9529 80.8331 36.9616 81.0296C36.9664 81.1263 36.949 81.2229 36.9107 81.3118C36.8725 81.4008 36.8143 81.4799 36.7408 81.5429L35.1511 83.0168C35.0003 83.1535 34.8025 83.2266 34.5991 83.221C34.4981 83.2247 34.3978 83.2041 34.3065 83.1609C34.2152 83.1176 34.1357 83.053 34.0747 82.9726C33.633 82.4591 33.2989 81.8622 33.0921 81.2172C32.9192 80.638 32.8227 80.0386 32.8051 79.4343C32.7878 78.8511 32.8211 78.2675 32.9044 77.69C32.9872 77.138 33.0535 76.586 33.1087 76.0892C33.1581 75.6323 33.1581 75.1715 33.1087 74.7147C33.0726 74.3212 32.9077 73.9505 32.6395 73.6604C32.4061 73.4017 32.1133 73.2038 31.7863 73.0836C31.4593 72.9634 31.108 72.9245 30.7627 72.9704C29.9109 73.0805 29.1193 73.4686 28.5105 74.0744C27.3255 75.1784 26.9999 76.5786 27.5335 78.2751C27.5989 78.4518 27.6326 78.6387 27.6328 78.8271C27.6192 78.92 27.5872 79.0093 27.5389 79.0898C27.4906 79.1703 27.4268 79.2405 27.3513 79.2963L25.6567 80.864C25.5382 80.9783 25.3797 81.0418 25.2151 81.0406C25.1307 81.0392 25.0477 81.0197 24.9715 80.9836C24.8954 80.9474 24.8278 80.8953 24.7735 80.8308C24.3042 80.2879 23.9762 79.6376 23.8185 78.9375C23.6312 78.1364 23.5882 77.3083 23.6915 76.4921C23.8049 75.5974 24.0621 74.7269 24.4533 73.9143C24.8699 73.0424 25.4531 72.2604 26.17 71.6124Z" fill="#EF2C2C"/>
<g opacity="0.6">
<path d="M37.9828 82.7352C38.0563 82.6658 38.1431 82.6119 38.238 82.5768C38.3328 82.5417 38.4338 82.5261 38.5348 82.531C38.6384 82.5324 38.7407 82.5547 38.8355 82.5964C38.9303 82.6381 39.0158 82.6985 39.0868 82.7739L40.787 84.6176C40.8569 84.6928 40.9113 84.7811 40.947 84.8774C40.9826 84.9737 40.9989 85.0761 40.9948 85.1788C40.9907 85.2814 40.9663 85.3822 40.923 85.4753C40.8798 85.5685 40.8186 85.6522 40.7428 85.7216L38.9433 87.3776C38.8681 87.4475 38.7798 87.5019 38.6835 87.5375C38.5872 87.5732 38.4847 87.5895 38.3821 87.5854C38.2795 87.5813 38.1787 87.5569 38.0855 87.5136C37.9924 87.4704 37.9087 87.4091 37.8393 87.3334L36.1391 85.4897C36.0685 85.4149 36.0135 85.3267 35.9774 85.2303C35.9414 85.1339 35.9249 85.0313 35.929 84.9284C35.9331 84.8256 35.9577 84.7246 36.0014 84.6314C36.0451 84.5382 36.1069 84.4547 36.1833 84.3857L37.9828 82.7352ZM26.17 71.6124C26.8155 71.0092 27.5442 70.5017 28.3339 70.1055C29.0837 69.7265 29.8948 69.4835 30.7295 69.3879C31.5308 69.2994 32.3418 69.3822 33.1087 69.6308C33.9234 69.9088 34.652 70.3939 35.2228 71.0384C35.7005 71.5237 36.0759 72.0999 36.3268 72.733C36.5293 73.2883 36.6483 73.8706 36.6801 74.4608C36.7116 75.0354 36.6931 75.6116 36.6249 76.183C36.5531 76.735 36.4869 77.287 36.4262 77.8004C36.3663 78.2837 36.3496 78.7714 36.3765 79.2576C36.3949 79.6947 36.5365 80.1176 36.785 80.4776C36.892 80.6425 36.9529 80.8331 36.9616 81.0296C36.9664 81.1263 36.949 81.2229 36.9107 81.3118C36.8725 81.4008 36.8143 81.4799 36.7408 81.5429L35.1511 83.0168C35.0003 83.1535 34.8025 83.2266 34.5991 83.221C34.4981 83.2247 34.3978 83.2041 34.3065 83.1609C34.2152 83.1176 34.1357 83.053 34.0747 82.9726C33.633 82.4591 33.2989 81.8622 33.0921 81.2172C32.9192 80.638 32.8227 80.0386 32.8051 79.4343C32.7878 78.8511 32.8211 78.2675 32.9044 77.69C32.9872 77.138 33.0535 76.586 33.1087 76.0892C33.1581 75.6323 33.1581 75.1715 33.1087 74.7147C33.0726 74.3212 32.9077 73.9505 32.6395 73.6604C32.4061 73.4017 32.1133 73.2038 31.7863 73.0836C31.4593 72.9634 31.108 72.9245 30.7627 72.9704C29.9109 73.0805 29.1193 73.4686 28.5105 74.0744C27.3255 75.1784 26.9999 76.5786 27.5335 78.2751C27.5989 78.4518 27.6326 78.6387 27.6328 78.8271C27.6192 78.92 27.5872 79.0093 27.5389 79.0898C27.4906 79.1703 27.4268 79.2405 27.3513 79.2963L25.6567 80.864C25.5382 80.9783 25.3797 81.0418 25.2151 81.0406C25.1307 81.0392 25.0477 81.0197 24.9715 80.9836C24.8954 80.9474 24.8278 80.8953 24.7735 80.8308C24.3042 80.2879 23.9762 79.6376 23.8185 78.9375C23.6312 78.1364 23.5882 77.3083 23.6915 76.4921C23.8049 75.5974 24.0621 74.7269 24.4533 73.9143C24.8699 73.0424 25.4531 72.2604 26.17 71.6124Z" fill="white"/>
</g>
<path d="M150.388 121.246C148.815 120.346 142.191 116.515 139.939 115.213C139.492 114.959 139.21 114.793 139.188 114.777C138.068 114.152 136.76 113.956 135.506 114.225C134.43 114.443 133.4 114.844 132.459 115.411C132.305 115.5 132.15 115.605 132.001 115.704C129.456 117.31 127.27 119.838 125.449 123.316C123.594 126.703 122.599 130.494 122.551 134.356C122.551 138.014 123.526 140.581 125.476 142.056C125.674 142.204 125.88 142.338 126.095 142.459C127.922 143.497 137.085 148.807 137.289 148.923H137.339C137.113 148.8 136.898 148.66 136.693 148.504C134.739 147.032 133.764 144.467 133.767 140.809C133.815 136.947 134.811 133.156 136.665 129.769C138.59 126.089 140.925 123.452 143.67 121.859C146.283 120.35 148.539 120.153 150.438 121.268L150.388 121.246Z" fill="#EF2C2C"/>
<path opacity="0.4" d="M150.44 121.28C148.541 120.176 146.285 120.371 143.672 121.865C141.122 123.337 138.923 125.729 137.076 129.041L125.859 122.544C127.593 119.447 129.641 117.168 131.998 115.683C132.147 115.589 132.301 115.479 132.456 115.39C133.395 114.822 134.426 114.423 135.503 114.209C136.756 113.937 138.066 114.134 139.185 114.761L139.935 115.197C142.188 116.494 148.812 120.325 150.385 121.225L150.44 121.28Z" fill="black"/>
<path opacity="0.3" d="M137.339 148.907H137.289C137.085 148.791 127.905 143.481 126.095 142.443C125.88 142.322 125.674 142.187 125.476 142.04C123.526 140.568 122.551 138.003 122.551 134.345C122.597 130.483 123.593 126.692 125.449 123.305C125.581 123.046 125.719 122.792 125.863 122.549L137.074 129.024C136.936 129.267 136.798 129.521 136.665 129.775C134.811 133.162 133.815 136.953 133.767 140.815C133.767 144.472 134.743 147.037 136.693 148.509C136.898 148.658 137.114 148.79 137.339 148.907Z" fill="black"/>
<path d="M145.498 26.5225C150.941 23.3761 155.574 22.0385 159.397 22.5095C160.953 22.6954 162.456 23.1949 163.813 23.9778C163.775 23.9578 163.738 23.9357 163.703 23.9116C162.389 23.1719 154.473 18.6069 152.663 17.5415C151.282 16.7343 149.748 16.223 148.159 16.0401C144.331 15.5727 139.696 16.9085 134.254 20.0476C125.79 24.9309 118.982 32.1069 113.83 41.5756C108.678 51.0442 106.129 60.7097 106.184 70.5721L117.396 77.0471C117.318 67.1773 119.867 57.51 125.041 48.045C130.215 38.5801 137.034 31.4059 145.498 26.5225Z" fill="#EF2C2C"/>
<path opacity="0.2" d="M163.726 23.9177C162.388 23.1725 160.919 22.6945 159.398 22.5101C155.579 22.039 150.945 23.3767 145.499 26.5231C137.035 31.4028 130.227 38.5788 125.075 48.0511C124.86 48.443 124.65 48.8405 124.446 49.2324L113.207 42.7464C113.411 42.3545 113.621 41.957 113.836 41.5651C119.01 32.1038 125.818 24.9278 134.26 20.0371C139.71 16.8944 144.345 15.5586 148.165 16.0296C149.755 16.2144 151.289 16.7276 152.67 17.5366C154.497 18.613 162.412 23.1835 163.726 23.9177Z" fill="black"/>
<path opacity="0.3" d="M124.416 49.2211C119.665 58.307 117.327 67.5787 117.4 77.0363L106.189 70.5614C106.119 61.1001 108.458 51.8283 113.205 42.7461L124.416 49.2211Z" fill="black"/>
<path d="M153.115 44.8723C151.08 43.7904 148.362 44.2136 144.962 46.1419C144.847 48.165 144.43 50.1596 143.725 52.0594C142.875 54.3483 140.402 59.0698 136.306 66.2237C132.063 73.6205 128.994 80.6843 127.099 87.415C125.219 94.0603 124.265 100.933 124.262 107.839L124.317 111.278L131.968 115.694L135.534 117.753L135.473 114.308V114.264C135.485 107.381 136.44 100.531 138.31 93.9065C140.205 87.1758 143.276 80.1139 147.523 72.7207C151.615 65.5668 154.086 60.8435 154.936 58.5509C155.785 56.2844 156.219 53.8835 156.217 51.4632C156.217 48.1696 155.183 45.9727 153.115 44.8723Z" fill="#EF2C2C"/>
<path opacity="0.3" d="M153.838 61.0288C152.572 63.6637 150.467 67.5534 147.523 72.6981C143.273 80.0949 140.202 87.1586 138.31 93.8894C136.438 100.519 135.483 107.374 135.473 114.264V114.352L135.534 117.796L131.968 115.743L124.317 111.327L124.262 107.883C124.265 100.977 125.22 94.1039 127.099 87.4586C128.994 80.7278 132.063 73.6641 136.306 66.2673C139.25 61.1153 141.359 57.2274 142.632 54.6035L153.838 61.0288Z" fill="black"/>
<path opacity="0.4" d="M156.218 51.4632C156.219 53.8758 155.787 56.2689 154.942 58.5288C154.705 59.1747 154.335 60.0082 153.838 61.0294L142.633 54.5599C143.122 53.5369 143.49 52.7034 143.737 52.0594C144.442 50.1596 144.858 48.165 144.973 46.1419C148.374 44.2136 151.091 43.7904 153.126 44.8723C155.161 45.9543 156.192 48.1512 156.218 51.4632Z" fill="black"/>
<path d="M132.575 68.2717L117.4 77.0375C117.323 67.1677 119.871 57.5003 125.045 48.0354C130.219 38.5704 137.027 31.3944 145.469 26.5074C150.912 23.361 155.545 22.0233 159.369 22.4943C163.192 22.9654 166.252 25.0611 168.548 28.7816C170.848 32.5021 171.998 37.1426 171.998 42.7031C171.976 45.9313 171.606 49.1478 170.894 52.2968C170.034 56.0638 168.873 59.7556 167.422 63.3368C166.495 65.6773 164.274 69.9976 160.76 76.2978C157.4 82.3036 155.295 86.3902 154.445 88.5577C153.501 91.1306 152.801 93.7863 152.353 96.49C151.684 100.531 151.315 104.616 151.249 108.711L135.555 117.775L135.495 114.331C135.498 107.425 136.453 100.552 138.332 93.9066C140.227 87.1759 143.298 80.114 147.545 72.7208C151.637 65.5669 154.108 60.8436 154.958 58.551C155.8 56.2831 156.226 53.8822 156.217 51.4633C156.217 48.1513 155.185 45.9543 153.12 44.8724C151.056 43.7905 148.285 44.2431 144.807 46.2303C141.252 48.2838 138.336 51.3639 136.058 55.4708C133.83 59.3734 132.631 63.7784 132.575 68.2717Z" fill="#EF2C2C"/>
<path d="M143.643 121.897C146.458 120.267 148.861 120.166 150.852 121.594C152.843 123.022 153.838 125.563 153.838 129.217C153.778 133.1 152.764 136.908 150.885 140.307C148.92 144.042 146.544 146.713 143.759 148.322C140.973 149.93 138.607 149.996 136.66 148.52C134.71 147.048 133.734 144.482 133.734 140.82C133.782 136.958 134.778 133.167 136.632 129.78C138.564 126.107 140.901 123.48 143.643 121.897Z" fill="#EF2C2C"/>
</svg>
