<svg width="20" height="21" viewBox="0 0 20 21" fill="none" xmlns="http://www.w3.org/2000/svg">
<path d="M9.98676 5.31512C6.94223 5.31512 3.81918 7.05765 1.36058 10.5427C1.29041 10.6433 1.25195 10.7622 1.25007 10.8843C1.24819 11.0065 1.28298 11.1265 1.35004 11.2291C3.2391 14.1533 6.32035 16.4401 9.98676 16.4401C13.6133 16.4401 16.7579 14.1464 18.6504 11.2156C18.7159 11.115 18.7507 10.9979 18.7507 10.8782C18.7507 10.7585 18.7159 10.6414 18.6504 10.5408C16.7536 7.64365 13.586 5.31512 9.98676 5.31512Z" stroke="#385AD4" stroke-width="1.00189" stroke-linecap="round" stroke-linejoin="round"/>
<path d="M10.0004 13.9683C11.7266 13.9683 13.1259 12.5845 13.1259 10.8776C13.1259 9.1706 11.7266 7.78683 10.0004 7.78683C8.27431 7.78683 6.875 9.1706 6.875 10.8776C6.875 12.5845 8.27431 13.9683 10.0004 13.9683Z" fill="#385AD4" stroke="#385AD4" stroke-width="1.00189" stroke-miterlimit="10"/>
</svg>
