<svg width="20" height="16" viewBox="0 0 20 16" fill="none" xmlns="http://www.w3.org/2000/svg">
<path d="M19.9165 7.59735C17.8972 2.90899 14.0986 0 10 0C5.90143 0 2.10275 2.90899 0.0834557 7.59735C0.0284116 7.72347 0 7.8596 0 7.99721C0 8.13482 0.0284116 8.27095 0.0834557 8.39707C2.10275 13.0854 5.90143 15.9944 10 15.9944C14.0986 15.9944 17.8972 13.0854 19.9165 8.39707C19.9716 8.27095 20 8.13482 20 7.99721C20 7.8596 19.9716 7.72347 19.9165 7.59735ZM10 13.9951C6.8311 13.9951 3.83215 11.7059 2.10275 7.99721C3.83215 4.28851 6.8311 1.9993 10 1.9993C13.1689 1.9993 16.1679 4.28851 17.8972 7.99721C16.1679 11.7059 13.1689 13.9951 10 13.9951ZM10 3.99861C9.20915 3.99861 8.43606 4.23312 7.77849 4.67249C7.12093 5.11187 6.60841 5.73636 6.30577 6.46701C6.00312 7.19766 5.92394 8.00165 6.07823 8.7773C6.23251 9.55296 6.61334 10.2654 7.17256 10.8247C7.73177 11.3839 8.44426 11.7647 9.21991 11.919C9.99556 12.0733 10.7996 11.9941 11.5302 11.6914C12.2609 11.3888 12.8853 10.8763 13.3247 10.2187C13.7641 9.56115 13.9986 8.78806 13.9986 7.99721C13.9986 6.93672 13.5773 5.91966 12.8274 5.16977C12.0776 4.41989 11.0605 3.99861 10 3.99861ZM10 9.99652C9.60458 9.99652 9.21803 9.87926 8.88925 9.65957C8.56046 9.43989 8.30421 9.12764 8.15288 8.76231C8.00156 8.39699 7.96197 7.995 8.03911 7.60717C8.11626 7.21934 8.30667 6.8631 8.58628 6.58349C8.86589 6.30388 9.22213 6.11347 9.60996 6.03633C9.99778 5.95918 10.3998 5.99878 10.7651 6.1501C11.1304 6.30142 11.4427 6.55768 11.6624 6.88646C11.882 7.21524 11.9993 7.60179 11.9993 7.99721C11.9993 8.52746 11.7887 9.03599 11.4137 9.41093C11.0388 9.78588 10.5302 9.99652 10 9.99652Z" fill="#4E4E4E"/>
</svg>
