<svg width="20" height="21" viewBox="0 0 20 21" fill="none" xmlns="http://www.w3.org/2000/svg">
<path d="M9.98676 5.19312C6.94223 5.19312 3.81918 6.93565 1.36058 10.4207C1.29041 10.5213 1.25195 10.6402 1.25007 10.7623C1.24819 10.8845 1.28298 11.0045 1.35004 11.1071C3.2391 14.0313 6.32035 16.3181 9.98676 16.3181C13.6133 16.3181 16.7579 14.0244 18.6504 11.0936C18.7159 10.993 18.7507 10.8759 18.7507 10.7562C18.7507 10.6365 18.7159 10.5194 18.6504 10.4188C16.7536 7.52164 13.586 5.19312 9.98676 5.19312Z" stroke="#686868" stroke-width="1.00189" stroke-linecap="round" stroke-linejoin="round"/>
<path d="M10.0004 13.8462C11.7266 13.8462 13.1259 12.4625 13.1259 10.7555C13.1259 9.04856 11.7266 7.66479 10.0004 7.66479C8.27431 7.66479 6.875 9.04856 6.875 10.7555C6.875 12.4625 8.27431 13.8462 10.0004 13.8462Z" fill="#686868" stroke="#686868" stroke-width="1.00189" stroke-miterlimit="10"/>
</svg>
