<svg width="215" height="132" viewBox="0 0 215 132" fill="none" xmlns="http://www.w3.org/2000/svg">
<path d="M209.043 131.775H15.3542C14.032 131.773 12.7644 131.249 11.8295 130.317C10.8946 129.386 10.3687 128.123 10.3672 126.805V7.79833C10.3683 6.83314 10.7535 5.90778 11.4384 5.22527C12.1234 4.54276 13.052 4.15883 14.0207 4.15771H210.313C211.298 4.15883 212.243 4.54939 212.94 5.2437C213.637 5.93801 214.029 6.87938 214.03 7.86127V126.805C214.028 128.123 213.502 129.386 212.567 130.317C211.632 131.249 210.365 131.773 209.043 131.775Z" fill="#F2F2F2"/>
<path d="M201.976 124.737H21.4629C18.8168 124.737 16.6641 122.729 16.6641 120.26V16.6268C16.6641 14.7957 18.2593 13.3059 20.2201 13.3059H203.159C205.153 13.3059 206.774 14.8203 206.774 16.6815V120.26C206.774 122.729 204.622 124.737 201.976 124.737Z" fill="white"/>
<path d="M213.96 7.51415H10.2969V4.98424C10.2988 3.66239 10.8268 2.39527 11.7652 1.46087C12.7035 0.526468 13.9754 0.00109127 15.302 0H208.955C210.281 0.00108491 211.553 0.526457 212.492 1.46086C213.43 2.39526 213.958 3.66238 213.96 4.98424V7.51415Z" fill="#CCCCCC"/>
<path d="M19.3884 5.05465C20.1034 5.05465 20.683 4.47709 20.683 3.76463C20.683 3.05217 20.1034 2.47461 19.3884 2.47461C18.6734 2.47461 18.0938 3.05217 18.0938 3.76463C18.0938 4.47709 18.6734 5.05465 19.3884 5.05465Z" fill="white"/>
<path d="M24.3024 5.05465C25.0174 5.05465 25.5971 4.47709 25.5971 3.76463C25.5971 3.05217 25.0174 2.47461 24.3024 2.47461C23.5874 2.47461 23.0078 3.05217 23.0078 3.76463C23.0078 4.47709 23.5874 5.05465 24.3024 5.05465Z" fill="white"/>
<path d="M29.2165 5.05465C29.9315 5.05465 30.5111 4.47709 30.5111 3.76463C30.5111 3.05217 29.9315 2.47461 29.2165 2.47461C28.5015 2.47461 27.9219 3.05217 27.9219 3.76463C27.9219 4.47709 28.5015 5.05465 29.2165 5.05465Z" fill="white"/>
<path d="M50.2745 105.462H5.28924C3.88694 105.461 2.54252 104.905 1.55094 103.917C0.559358 102.929 0.00159191 101.589 0 100.192V47.1405C0.00117589 46.0955 0.418309 45.0936 1.15989 44.3546C1.90147 43.6156 2.90694 43.1999 3.95571 43.1987H51.5448C52.6104 43.2 53.6319 43.6223 54.3853 44.373C55.1388 45.1238 55.5626 46.1417 55.5638 47.2034V100.192C55.5622 101.589 55.0044 102.929 54.0128 103.917C53.0213 104.905 51.6768 105.461 50.2745 105.462Z" fill="white"/>
<path d="M50.2745 105.462H5.28924C3.88694 105.461 2.54252 104.905 1.55094 103.917C0.559358 102.929 0.00159191 101.589 0 100.192V47.1405C0.00117589 46.0955 0.418309 45.0936 1.15989 44.3546C1.90147 43.6156 2.90694 43.1999 3.95571 43.1987H51.5448C52.6104 43.2 53.6319 43.6223 54.3853 44.373C55.1388 45.1238 55.5626 46.1417 55.5638 47.2034V100.192C55.5622 101.589 55.0044 102.929 54.0128 103.917C53.0213 104.905 51.6768 105.461 50.2745 105.462ZM3.95571 43.8011C3.0672 43.8021 2.21537 44.1542 1.5871 44.7803C0.958843 45.4063 0.605464 46.2552 0.604485 47.1405V100.192C0.60588 101.43 1.0999 102.616 1.97816 103.491C2.85642 104.367 4.04719 104.859 5.28924 104.86H50.2745C51.5166 104.859 52.7073 104.366 53.5856 103.491C54.4639 102.616 54.9579 101.43 54.9593 100.192V47.2034C54.9583 46.3014 54.5982 45.4366 53.9581 44.7987C53.318 44.1609 52.4501 43.8021 51.5448 43.8011H3.95571Z" fill="#3F3D56"/>
<path d="M27.7782 77.1159C32.9067 77.1159 37.0641 72.9733 37.0641 67.863C37.0641 62.7528 32.9067 58.6101 27.7782 58.6101C22.6497 58.6101 18.4922 62.7528 18.4922 67.863C18.4922 72.9733 22.6497 77.1159 27.7782 77.1159Z" fill="#6C63FF"/>
<path d="M42.6593 90.0512H12.9062V89.9568C12.9093 87.2282 13.9985 84.6124 15.9348 82.683C17.871 80.7536 20.4962 79.6684 23.2345 79.6653H32.331C35.0693 79.6684 37.6945 80.7536 39.6308 82.683C41.567 84.6124 42.6562 87.2282 42.6593 89.9568V90.0512Z" fill="#6C63FF"/>
<path d="M97.414 95.6068H194.083C195.365 95.6068 196.595 95.0991 197.502 94.1954C198.409 93.2917 198.919 92.0661 198.919 90.7881V47.2552C198.919 45.9772 198.409 44.7516 197.502 43.8479C196.595 42.9442 195.365 42.4365 194.083 42.4365H97.414C96.1314 42.4365 94.9014 42.9442 93.9945 43.8479C93.0876 44.7516 92.5781 45.9772 92.5781 47.2552V90.7881C92.5781 92.0661 93.0876 93.2917 93.9945 94.1954C94.9014 95.0991 96.1314 95.6068 97.414 95.6068Z" fill="#F2F2F2"/>
<path d="M183.529 71.431H106.457C105.816 71.431 105.201 71.1771 104.747 70.7253C104.294 70.2734 104.039 69.6606 104.039 69.0216C104.039 68.3826 104.294 67.7698 104.747 67.318C105.201 66.8661 105.816 66.6123 106.457 66.6123H183.529C184.17 66.6123 184.785 66.8661 185.239 67.318C185.692 67.7698 185.947 68.3826 185.947 69.0216C185.947 69.6606 185.692 70.2734 185.239 70.7253C184.785 71.1771 184.17 71.431 183.529 71.431Z" fill="white"/>
<path d="M183.529 81.6705H106.457C105.816 81.6705 105.201 81.4166 104.747 80.9648C104.294 80.5129 104.039 79.9001 104.039 79.2611C104.039 78.6221 104.294 78.0093 104.747 77.5575C105.201 77.1056 105.816 76.8518 106.457 76.8518H183.529C184.17 76.8518 184.785 77.1056 185.239 77.5575C185.692 78.0093 185.947 78.6221 185.947 79.2611C185.947 79.9001 185.692 80.5129 185.239 80.9648C184.785 81.4166 184.17 81.6705 183.529 81.6705Z" fill="white"/>
<path d="M169.928 61.1912H106.457C105.816 61.1912 105.201 60.9374 104.747 60.4855C104.294 60.0337 104.039 59.4209 104.039 58.7819C104.039 58.1429 104.294 57.5301 104.747 57.0782C105.201 56.6264 105.816 56.3726 106.457 56.3726H169.928C170.569 56.3726 171.184 56.6264 171.638 57.0782C172.091 57.5301 172.346 58.1429 172.346 58.7819C172.346 59.4209 172.091 60.0337 171.638 60.4855C171.184 60.9374 170.569 61.1912 169.928 61.1912Z" fill="white"/>
</svg>
