<svg width="205" height="143" viewBox="0 0 205 143" fill="none" xmlns="http://www.w3.org/2000/svg">
<path d="M205 15.0183H0V142.674H205V15.0183Z" fill="#E6E6E6"/>
<path d="M51.2958 39.6108H13.75V64.0156H51.2958V39.6108Z" fill="white"/>
<path d="M97.9442 39.6108H60.3984V64.0156H97.9442V39.6108Z" fill="white"/>
<path d="M144.6 39.6108H107.055V64.0156H144.6V39.6108Z" fill="white"/>
<path d="M191.257 39.6108H153.711V64.0156H191.257V39.6108Z" fill="white"/>
<path d="M51.2958 74.153H13.75V98.5577H51.2958V74.153Z" fill="white"/>
<path d="M97.9442 74.153H60.3984V98.5577H97.9442V74.153Z" fill="white"/>
<path d="M144.6 74.153H107.055V98.5577H144.6V74.153Z" fill="white"/>
<path d="M191.257 74.153H153.711V98.5577H191.257V74.153Z" fill="white"/>
<path d="M51.2958 108.695H13.75V133.1H51.2958V108.695Z" fill="white"/>
<path d="M97.9442 108.695H60.3984V133.1H97.9442V108.695Z" fill="white"/>
<path d="M144.6 108.695H107.055V133.1H144.6V108.695Z" fill="white"/>
<path d="M191.257 108.695H153.711V133.1H191.257V108.695Z" fill="white"/>
<path d="M53.6944 30.0366C56.8048 30.0366 59.3262 27.5151 59.3262 24.4047C59.3262 21.2943 56.8048 18.7728 53.6944 18.7728C50.584 18.7728 48.0625 21.2943 48.0625 24.4047C48.0625 27.5151 50.584 30.0366 53.6944 30.0366Z" fill="white"/>
<path d="M146.804 30.0367C149.914 30.0367 152.436 27.5152 152.436 24.4048C152.436 21.2944 149.914 18.7729 146.804 18.7729C143.693 18.7729 141.172 21.2944 141.172 24.4048C141.172 27.5152 143.693 30.0367 146.804 30.0367Z" fill="white"/>
<path d="M55.943 0H51.4375V25.9066H55.943V0Z" fill="#E6E6E6"/>
<path d="M149.06 0H144.555V25.9066H149.06V0Z" fill="#E6E6E6"/>
<path d="M134.933 51.4746C134.931 53.5136 134.194 55.4833 132.856 57.022C131.518 58.5606 129.67 59.5648 127.651 59.85C125.632 60.1352 123.578 59.6822 121.866 58.5744C120.155 57.4665 118.9 55.7782 118.334 53.8196C117.767 51.861 117.926 49.7637 118.782 47.913C119.638 46.0624 121.132 44.5827 122.992 43.7459C124.851 42.9091 126.95 42.7714 128.903 43.358C130.855 43.9447 132.531 45.2163 133.621 46.9392C134.48 48.296 134.935 49.869 134.933 51.4746Z" fill="#6C63FF"/>
<path d="M133.622 46.9391L125.264 55.2953C124.739 54.482 121.812 50.7027 121.812 50.7027C122.188 50.3236 122.588 49.9704 123.01 49.6453L125.437 52.8809L132.643 45.6748C133.009 46.0644 133.336 46.4877 133.622 46.9391Z" fill="white"/>
<path d="M87.6676 51.4746C87.6656 53.5136 86.928 55.4833 85.5901 57.0219C84.2523 58.5606 82.4041 59.5648 80.3852 59.85C78.3664 60.1352 76.3124 59.6822 74.6007 58.5744C72.889 57.4665 71.6346 55.7782 71.0679 53.8196C70.5013 51.861 70.6604 49.7637 71.5162 47.913C72.372 46.0624 73.8668 44.5827 75.7261 43.7459C77.5854 42.9091 79.6843 42.7714 81.637 43.358C83.5897 43.9447 85.2651 45.2163 86.3554 46.9392C87.214 48.296 87.6691 49.869 87.6676 51.4746Z" fill="#6C63FF"/>
<path d="M86.3563 46.9393L77.9986 55.2955C77.4733 54.4823 74.5469 50.7029 74.5469 50.7029C74.9219 50.3239 75.3221 49.9706 75.7448 49.6455L78.1715 52.8811L85.3776 45.675C85.7431 46.0646 86.0708 46.4879 86.3563 46.9393Z" fill="white"/>
<path d="M41.0114 51.4747C41.0095 53.5136 40.2718 55.4834 38.934 57.022C37.5961 58.5607 35.7479 59.5648 33.7291 59.85C31.7102 60.1352 29.6562 59.6823 27.9445 58.5745C26.2327 57.4666 24.9783 55.7783 24.4117 53.8196C23.845 51.861 24.0042 49.7637 24.86 47.9131C25.7157 46.0624 27.2106 44.5827 29.0699 43.7459C30.9292 42.9091 33.0281 42.7714 34.9808 43.358C36.9335 43.9447 38.6089 45.2163 39.6992 46.9392C40.5578 48.296 41.0129 49.869 41.0114 51.4747Z" fill="#6C63FF"/>
<path d="M39.7001 46.9393L31.3424 55.2955C30.8171 54.4823 27.8906 50.7029 27.8906 50.7029C28.2657 50.3239 28.6659 49.9706 29.0885 49.6455L31.5153 52.8811L38.7214 45.675C39.0868 46.0646 39.4145 46.4879 39.7001 46.9393Z" fill="white"/>
</svg>
