<svg width="140" height="140" viewBox="0 0 140 140" fill="none" xmlns="http://www.w3.org/2000/svg">
<path d="M70.3648 0.728027C52.2678 0.735016 34.8836 7.77368 21.8917 20.3542C8.8998 32.9348 1.31987 50.0699 0.756194 68.1329C0.736297 68.8382 0.726562 69.5535 0.726562 70.2688C0.726563 84.0227 4.81074 97.4676 12.4627 108.904C20.1147 120.339 30.9907 129.253 43.7154 134.516C56.4401 139.779 70.4421 141.157 83.9506 138.473C97.4592 135.79 109.867 129.167 119.607 119.442C129.346 109.716 135.978 97.3251 138.665 83.8355C141.352 70.3459 139.973 56.3636 134.702 43.6567C129.431 30.9498 120.506 20.089 109.054 12.4478C97.6019 4.80653 84.138 0.728027 70.3648 0.728027ZM70.3648 137.823C52.429 137.804 35.2332 130.681 22.5507 118.016C9.86815 105.351 2.7349 88.1795 2.7162 70.2688C2.7162 69.3449 2.73611 68.4309 2.77595 67.5269C3.31465 54.2941 7.73671 41.5113 15.4922 30.7681C23.2477 20.0248 33.9944 11.7951 46.3962 7.10215C58.7979 2.40922 72.3075 1.46017 85.2451 4.37301C98.1826 7.28585 109.977 13.9321 119.163 23.4852C128.348 33.0384 134.519 45.077 136.907 58.1042C139.296 71.1314 137.797 84.5723 132.597 96.7557C127.398 108.939 118.726 119.327 107.662 126.629C96.5971 133.93 83.6271 137.823 70.3648 137.823Z" fill="#3F3D56"/>
<path d="M129.062 70.269C129.062 85.8141 122.878 100.722 111.871 111.715C100.863 122.707 85.9339 128.882 70.367 128.882C54.8001 128.882 39.8708 122.707 28.8633 111.715C17.8558 100.722 11.6719 85.8141 11.6719 70.269C11.6719 68.4112 11.7613 66.5833 11.9303 64.7752C13.3448 49.7726 20.4912 35.8903 31.8857 26.0108C43.2802 16.1314 58.0473 11.0139 73.1208 11.7208C88.1943 12.4278 102.416 18.905 112.833 29.8075C123.25 40.7099 129.062 55.2 129.062 70.269Z" fill="#E6E6E6"/>
<path d="M87.8406 74.1636C86.4178 72.2957 84.5463 70.8162 82.3991 69.862C79.7508 68.7474 77.0158 67.8504 74.2214 67.1797V51.2251C78.5168 51.8718 82.5452 53.706 85.8509 56.5201L89.0943 49.6157C87.229 47.9563 85.0876 46.635 82.7669 45.7115C80.1947 44.6714 77.4947 43.9798 74.7387 43.6551V35.5685H67.2279V43.7346C64.3276 44.0599 61.5298 44.998 59.0206 46.4864C56.7538 47.8261 54.8456 49.694 53.4591 51.9304C52.136 54.1129 51.4503 56.6215 51.4797 59.1726C51.3504 61.9372 52.1525 64.6654 53.7578 66.9214C55.2354 68.8747 57.1868 70.4201 59.4281 71.4118C62.1187 72.5592 64.9008 73.4797 67.7452 74.1636V89.4527C62.6764 89.0709 57.8467 87.1465 53.907 83.939L50.6641 90.8534C52.8669 92.6721 55.372 94.091 58.0656 95.0457C61.017 96.1004 64.1004 96.7423 67.228 96.9531V104.97H74.7388V96.8041C78.9107 96.3489 82.823 94.5575 85.8908 91.6978C87.2418 90.404 88.3091 88.8441 89.0249 87.1169C89.7408 85.3897 90.0896 83.5329 90.0494 81.6641C90.1741 78.9876 89.3964 76.3466 87.8406 74.1636ZM67.7453 65.4909C65.9156 64.9368 64.2146 64.0251 62.741 62.8086C62.1572 62.2899 61.6957 61.6485 61.3895 60.9305C61.0834 60.2126 60.9403 59.4358 60.9704 58.656C60.9161 56.8866 61.5673 55.168 62.7808 53.8776C64.1263 52.5237 65.8622 51.624 67.7453 51.3046V65.4909ZM78.9371 86.6313C77.6679 87.9311 76.0154 88.7909 74.2214 89.0851V75.9319C75.9362 76.3913 77.5402 77.1922 78.9371 78.2864C79.4666 78.738 79.8874 79.303 80.1681 79.9394C80.4488 80.5758 80.5823 81.2671 80.5586 81.9621C80.6277 83.6671 80.0484 85.3351 78.9371 86.6313Z" fill="#6C63FF"/>
<rect x="37.8281" y="100.412" width="84.2699" height="6.19632" rx="3" transform="rotate(-45 37.8281 100.412)" fill="#D9D9D9" fill-opacity="0.84"/>
</svg>
