<svg width="218" height="134" viewBox="0 0 218 134" fill="none" xmlns="http://www.w3.org/2000/svg">
<path d="M131.542 118.639L123.679 120.754L131.599 115.87C131.429 108.084 128.719 100.011 128.719 100.011C128.719 100.011 111.792 104.928 107.349 113.443C102.907 121.957 106.404 127.579 112.631 130.845C118.858 134.112 125.457 133.787 129.9 125.273C130.889 123.377 131.378 121.074 131.542 118.639Z" fill="#F2F2F2"/>
<path d="M122.177 120.303L121.958 120.723C119.388 125.588 116.581 128.964 113.573 130.8C113.529 130.827 113.485 130.852 113.442 130.879L113.319 130.674L113.203 130.476C116.499 128.519 119.266 124.759 121.509 120.516C121.582 120.38 121.657 120.242 121.728 120.102C122.661 118.297 123.502 116.417 124.25 114.555C124.309 114.411 124.367 114.264 124.425 114.117C125.399 111.654 126.211 109.238 126.862 107.11C126.909 106.96 126.953 106.809 126.997 106.659C128.084 103.054 128.687 100.345 128.816 99.7432C128.833 99.6701 128.841 99.6294 128.843 99.62L129.069 99.6672L129.072 99.6662L129.301 99.7144C129.298 99.7238 129.272 99.8607 129.215 100.111C129.007 101.05 128.418 103.586 127.446 106.829C127.402 106.975 127.357 107.126 127.311 107.277C126.784 109.004 126.155 110.913 125.421 112.877C125.237 113.371 125.05 113.855 124.86 114.33C124.804 114.478 124.746 114.625 124.687 114.768C123.879 116.782 123.043 118.627 122.177 120.303Z" fill="white"/>
<path d="M127.443 106.829C127.294 106.775 127.144 106.72 126.993 106.659C126.584 106.496 126.183 106.311 125.793 106.107C124.128 105.236 122.68 104.002 121.554 102.496C121.409 102.56 121.265 102.625 121.117 102.69C122.293 104.292 123.818 105.602 125.576 106.522C125.993 106.741 126.421 106.937 126.858 107.11C127.007 107.169 127.157 107.225 127.307 107.277C128.539 107.713 129.83 107.959 131.136 108.007C131.106 107.846 131.078 107.688 131.05 107.533C129.82 107.478 128.604 107.241 127.443 106.829V106.829Z" fill="white"/>
<path d="M124.856 114.33C124.709 114.263 124.564 114.192 124.421 114.117C124.376 114.097 124.331 114.073 124.287 114.05C122.485 113.104 120.937 111.736 119.776 110.061C118.615 108.386 117.875 106.455 117.619 104.431C117.472 104.51 117.326 104.589 117.18 104.671C117.47 106.735 118.246 108.7 119.444 110.404C120.643 112.107 122.228 113.499 124.07 114.466C124.128 114.496 124.186 114.526 124.245 114.555C124.391 114.629 124.537 114.7 124.683 114.768C126.954 115.815 129.479 116.184 131.954 115.83C131.952 115.673 131.949 115.516 131.945 115.357C129.533 115.714 127.069 115.357 124.856 114.33V114.33Z" fill="white"/>
<path d="M122.175 120.303C122.024 120.239 121.874 120.172 121.726 120.102C121.568 120.026 121.41 119.949 121.255 119.868C118.834 118.594 116.89 116.569 115.713 114.095C114.537 111.621 114.191 108.831 114.728 106.144C114.547 106.263 114.367 106.381 114.19 106.502C113.742 109.229 114.163 112.029 115.392 114.503C116.621 116.977 118.597 118.999 121.038 120.283C121.193 120.365 121.35 120.444 121.507 120.516C121.657 120.589 121.806 120.657 121.956 120.723C125.006 122.03 128.437 122.126 131.555 120.992C131.592 120.815 131.621 120.637 131.651 120.458C128.593 121.643 125.194 121.588 122.175 120.303V120.303Z" fill="white"/>
<path d="M28.2756 119.377L36.1391 121.492L28.2188 116.609C28.3891 108.823 31.0993 100.75 31.0993 100.75C31.0993 100.75 48.0261 105.667 52.4686 114.181C56.9111 122.696 53.4142 128.317 47.187 131.584C40.9599 134.85 34.3607 134.526 29.9182 126.011C28.9294 124.116 28.4401 121.813 28.2756 119.377Z" fill="#F2F2F2"/>
<path d="M37.6472 121.042L37.8662 121.461C40.4364 126.327 43.2429 129.703 46.2513 131.538C46.2947 131.566 46.3391 131.59 46.3825 131.618L46.5053 131.413L46.6209 131.215C43.3247 129.257 40.5582 125.498 38.3153 121.255C38.2417 121.119 38.167 120.981 38.0964 120.84C37.1628 119.036 36.3219 117.156 35.5744 115.293C35.5153 115.15 35.4572 115.003 35.399 114.856C34.4251 112.392 33.613 109.976 32.9622 107.848C32.9155 107.698 32.8709 107.547 32.8274 107.398C31.7404 103.792 31.1375 101.084 31.0083 100.482C30.9912 100.409 30.9832 100.368 30.9809 100.359L30.7548 100.406L30.7516 100.405L30.5234 100.453C30.5257 100.462 30.5523 100.599 30.6092 100.85C30.8167 101.789 31.4061 104.325 32.3775 107.568C32.4221 107.714 32.4667 107.865 32.5134 108.015C33.0398 109.742 33.6688 111.651 34.4035 113.616C34.5873 114.109 34.774 114.594 34.9636 115.069C35.0197 115.216 35.0778 115.363 35.1369 115.507C35.9447 117.52 36.7814 119.365 37.6472 121.042Z" fill="white"/>
<path d="M28.7652 108.272C28.7377 108.426 28.7092 108.584 28.6797 108.745C29.9854 108.698 31.2763 108.451 32.5083 108.015C32.6579 107.963 32.8086 107.908 32.9571 107.848C33.3945 107.675 33.8224 107.479 34.2392 107.261C35.9972 106.341 37.5224 105.03 38.6981 103.429C38.5505 103.363 38.406 103.299 38.2616 103.234C37.1356 104.741 35.687 105.975 34.0224 106.845C33.632 107.05 33.2314 107.234 32.8223 107.398C32.6717 107.458 32.521 107.514 32.3725 107.568C31.2112 107.979 29.9956 108.216 28.7652 108.272V108.272Z" fill="white"/>
<path d="M27.8685 116.096C27.8641 116.254 27.8617 116.412 27.8594 116.569C30.3345 116.923 32.8589 116.554 35.1305 115.507C35.2767 115.438 35.4219 115.367 35.568 115.293C35.6271 115.265 35.6851 115.234 35.7432 115.204C37.585 114.238 39.1707 112.845 40.369 111.142C41.5673 109.439 42.3436 107.474 42.6337 105.41C42.4878 105.328 42.341 105.249 42.1941 105.17C41.9385 107.193 41.1986 109.125 40.0375 110.8C38.8765 112.474 37.3288 113.843 35.5264 114.789C35.4828 114.811 35.4372 114.835 35.3926 114.856C35.2497 114.931 35.1045 115.002 34.9572 115.069C32.7443 116.095 30.2808 116.452 27.8685 116.096V116.096Z" fill="white"/>
<path d="M28.1641 121.196C28.1946 121.376 28.224 121.554 28.2607 121.73C31.3783 122.864 34.8094 122.768 37.859 121.461C38.0095 121.395 38.1589 121.328 38.3082 121.255C38.4658 121.183 38.6223 121.103 38.7777 121.022C41.2188 119.738 43.1943 117.715 44.4236 115.241C45.6529 112.767 46.0735 109.968 45.6256 107.241C45.4487 107.119 45.2687 107.002 45.0876 106.882C45.6245 109.57 45.2787 112.359 44.1021 114.833C42.9256 117.307 40.9815 119.333 38.5609 120.606C38.4055 120.688 38.2479 120.765 38.0893 120.84C37.941 120.91 37.7916 120.978 37.6401 121.041C34.6216 122.327 31.2226 122.382 28.1641 121.196V121.196Z" fill="white"/>
<path d="M65.1432 125.339L69.8246 126.598L65.1094 123.691C65.2108 119.056 66.8242 114.25 66.8242 114.25C66.8242 114.25 76.9012 117.177 79.5459 122.246C82.1907 127.315 80.1088 130.661 76.4017 132.606C72.6945 134.551 68.7658 134.358 66.1211 129.289C65.5324 128.16 65.2411 126.789 65.1432 125.339Z" fill="#F2F2F2"/>
<path d="M70.7175 126.33L70.8479 126.58C72.378 129.476 74.0488 131.486 75.8398 132.579C75.8656 132.595 75.892 132.61 75.9179 132.626L75.991 132.504L76.0598 132.386C74.0975 131.221 72.4505 128.983 71.1153 126.457C71.0714 126.376 71.027 126.294 70.985 126.21C70.4291 125.136 69.9285 124.017 69.4835 122.908C69.4483 122.822 69.4137 122.735 69.3791 122.648C68.7993 121.181 68.3159 119.743 67.9284 118.476C67.9006 118.387 67.8741 118.296 67.8481 118.208C67.2011 116.061 66.8421 114.449 66.7652 114.09C66.7551 114.047 66.7503 114.023 66.7489 114.017L66.6143 114.045L66.6124 114.044L66.4766 114.073C66.4779 114.079 66.4937 114.16 66.5276 114.31C66.6512 114.869 67.002 116.378 67.5804 118.309C67.6069 118.396 67.6334 118.486 67.6612 118.575C67.9746 119.603 68.3491 120.74 68.7865 121.909C68.8959 122.203 69.007 122.492 69.1199 122.774C69.1533 122.862 69.1879 122.95 69.2231 123.035C69.704 124.234 70.2021 125.332 70.7175 126.33Z" fill="white"/>
<path d="M65.4337 118.728C65.4173 118.82 65.4004 118.914 65.3828 119.01C66.1601 118.981 66.9286 118.835 67.6621 118.575C67.7512 118.544 67.8409 118.511 67.9293 118.476C68.1896 118.373 68.4444 118.256 68.6925 118.126C69.7391 117.578 70.6471 116.798 71.3471 115.845C71.2592 115.806 71.1732 115.768 71.0871 115.729C70.4168 116.626 69.5544 117.36 68.5634 117.879C68.331 118 68.0926 118.11 67.849 118.208C67.7594 118.244 67.6697 118.277 67.5812 118.309C66.8899 118.554 66.1662 118.695 65.4337 118.728V118.728Z" fill="white"/>
<path d="M64.9039 123.386C64.9012 123.48 64.8998 123.574 64.8984 123.667C66.372 123.878 67.8748 123.658 69.2271 123.035C69.3142 122.994 69.4006 122.952 69.4876 122.908C69.5228 122.891 69.5573 122.873 69.5919 122.855C70.6884 122.28 71.6324 121.451 72.3457 120.437C73.0591 119.423 73.5213 118.253 73.694 117.024C73.6071 116.975 73.5197 116.928 73.4323 116.881C73.2801 118.086 72.8396 119.236 72.1484 120.233C71.4572 121.23 70.5358 122.045 69.4628 122.608C69.4369 122.621 69.4097 122.635 69.3832 122.648C69.2981 122.692 69.2117 122.735 69.124 122.774C67.8066 123.385 66.3399 123.598 64.9039 123.386V123.386Z" fill="white"/>
<path d="M65.0781 126.422C65.0963 126.529 65.1138 126.635 65.1356 126.74C66.9917 127.415 69.0343 127.358 70.8498 126.58C70.9394 126.541 71.0283 126.501 71.1172 126.457C71.211 126.414 71.3042 126.367 71.3967 126.318C72.8499 125.554 74.026 124.35 74.7578 122.877C75.4897 121.404 75.7401 119.738 75.4734 118.114C75.3681 118.042 75.2609 117.972 75.1532 117.901C75.4728 119.501 75.2669 121.161 74.5665 122.634C73.866 124.107 72.7087 125.313 71.2676 126.071C71.1751 126.119 71.0813 126.165 70.9869 126.21C70.8986 126.252 70.8096 126.292 70.7194 126.33C68.9225 127.095 66.899 127.128 65.0781 126.422V126.422Z" fill="white"/>
<path d="M158.645 82.7244L158.625 82.7227C154.902 82.1062 150.765 82.1065 145.98 82.7234H145.978C145.859 82.7248 145.74 82.7025 145.629 82.6578C145.519 82.6131 145.418 82.5469 145.333 82.4629C145.248 82.3789 145.18 82.2789 145.134 82.1686C145.087 82.0583 145.063 81.9399 145.062 81.8201V77.4746C145.063 77.2348 145.158 77.005 145.327 76.8355C145.496 76.666 145.725 76.5706 145.964 76.5703C150.178 76.0194 154.446 76.0197 158.66 76.5713H158.662C158.898 76.5748 159.124 76.6716 159.289 76.8407C159.455 77.0098 159.547 77.2375 159.547 77.4746V81.8201C159.546 82.0599 159.451 82.2897 159.282 82.4592C159.113 82.6287 158.884 82.7241 158.645 82.7244V82.7244Z" fill="white"/>
<path d="M158.645 82.7244L158.625 82.7227C154.902 82.1062 150.765 82.1065 145.98 82.7234H145.978C145.859 82.7248 145.74 82.7025 145.629 82.6578C145.519 82.6131 145.418 82.5469 145.333 82.4629C145.248 82.3789 145.18 82.2789 145.134 82.1686C145.087 82.0583 145.063 81.9399 145.062 81.8201V77.4746C145.063 77.2348 145.158 77.005 145.327 76.8355C145.496 76.666 145.725 76.5706 145.964 76.5703C150.178 76.0194 154.446 76.0197 158.66 76.5713H158.662C158.898 76.5748 159.124 76.6716 159.289 76.8407C159.455 77.0098 159.547 77.2375 159.547 77.4746V81.8201C159.546 82.0599 159.451 82.2897 159.282 82.4592C159.113 82.6287 158.884 82.7241 158.645 82.7244V82.7244ZM152.144 76.4041C150.082 76.4004 148.023 76.5378 145.981 76.8153C145.894 76.8139 145.807 76.8299 145.725 76.8623C145.644 76.8948 145.57 76.943 145.508 77.0043C145.445 77.0656 145.395 77.1387 145.361 77.2194C145.327 77.3002 145.309 77.3869 145.308 77.4746V81.8201C145.308 81.9946 145.377 82.1619 145.5 82.2853C145.623 82.4086 145.79 82.478 145.964 82.4782C150.754 81.8597 154.91 81.8596 158.655 82.4781C158.827 82.4754 158.991 82.4049 159.112 82.2818C159.233 82.1587 159.301 81.9929 159.301 81.8201V77.4746C159.301 77.3001 159.232 77.1328 159.109 77.0095C158.986 76.8861 158.819 76.8167 158.645 76.8165C156.488 76.5453 154.317 76.4075 152.144 76.4041V76.4041Z" fill="#6C63FF"/>
<path d="M152.304 81.1631C153.253 81.1631 154.023 80.3916 154.023 79.4399C154.023 78.4883 153.253 77.7168 152.304 77.7168C151.355 77.7168 150.586 78.4883 150.586 79.4399C150.586 80.3916 151.355 81.1631 152.304 81.1631Z" fill="#6C63FF"/>
<path d="M147.888 78.5396H146.415C146.317 78.5395 146.224 78.5006 146.155 78.4314C146.086 78.3622 146.047 78.2683 146.047 78.1704V77.6781C146.047 77.5802 146.086 77.4863 146.155 77.4171C146.224 77.3479 146.317 77.3089 146.415 77.3088H147.888C147.986 77.3089 148.079 77.3479 148.148 77.4171C148.217 77.4863 148.256 77.5802 148.256 77.6781V78.1704C148.256 78.2683 148.217 78.3622 148.148 78.4314C148.079 78.5006 147.986 78.5395 147.888 78.5396V78.5396Z" fill="#6C63FF"/>
<path d="M158.201 81.9859H156.728C156.63 81.9858 156.536 81.9469 156.467 81.8777C156.398 81.8084 156.359 81.7146 156.359 81.6167V81.1244C156.359 81.0265 156.398 80.9326 156.467 80.8634C156.536 80.7942 156.63 80.7552 156.728 80.7551H158.201C158.298 80.7552 158.392 80.7942 158.461 80.8634C158.53 80.9326 158.569 81.0265 158.569 81.1244V81.6167C158.569 81.7146 158.53 81.8084 158.461 81.8777C158.392 81.9469 158.298 81.9858 158.201 81.9859V81.9859Z" fill="#6C63FF"/>
<path d="M156.553 80.927L156.535 80.9177C153.344 78.8978 149.533 77.2852 144.885 75.9875L144.883 75.9868C144.773 75.9415 144.672 75.8748 144.587 75.7904C144.503 75.706 144.435 75.6057 144.39 75.4951C144.344 75.3846 144.32 75.2661 144.32 75.1463C144.32 75.0266 144.344 74.9081 144.39 74.7976L146.075 70.7941C146.169 70.5733 146.345 70.3987 146.567 70.3084C146.788 70.2182 147.037 70.2197 147.257 70.3127C151.353 71.4483 155.285 73.1128 158.953 75.2642L158.954 75.2649C159.171 75.3603 159.341 75.5374 159.428 75.7577C159.515 75.9781 159.512 76.224 159.419 76.4421L157.734 80.4456C157.641 80.6664 157.464 80.8411 157.243 80.9313C157.021 81.0216 156.773 81.02 156.553 80.927V80.927Z" fill="white"/>
<path d="M156.553 80.927L156.535 80.9177C153.344 78.8978 149.533 77.2852 144.885 75.9875L144.883 75.9868C144.773 75.9415 144.672 75.8748 144.587 75.7904C144.503 75.706 144.435 75.6057 144.39 75.4951C144.344 75.3846 144.32 75.2661 144.32 75.1463C144.32 75.0266 144.344 74.9081 144.39 74.7976L146.075 70.7941C146.169 70.5733 146.345 70.3987 146.567 70.3084C146.788 70.2182 147.037 70.2197 147.257 70.3127C151.353 71.4483 155.285 73.1128 158.953 75.2642L158.954 75.2649C159.171 75.3603 159.341 75.5374 159.428 75.7577C159.515 75.9781 159.512 76.224 159.419 76.4421L157.734 80.4456C157.641 80.6664 157.464 80.8411 157.243 80.9313C157.021 81.0216 156.773 81.02 156.553 80.927V80.927ZM153.014 72.5691C151.117 71.762 149.167 71.0856 147.177 70.5449C147.097 70.5095 147.011 70.4903 146.924 70.4885C146.836 70.4867 146.749 70.5023 146.668 70.5344C146.586 70.5665 146.512 70.6144 146.449 70.6754C146.386 70.7364 146.336 70.8092 146.302 70.8898L144.616 74.8933C144.549 75.0541 144.548 75.2352 144.613 75.3969C144.679 75.5585 144.805 75.6875 144.966 75.7555C149.618 77.0533 153.447 78.6739 156.657 80.7039C156.817 80.7686 156.996 80.7677 157.155 80.7015C157.314 80.6353 157.441 80.509 157.508 80.3499L159.193 76.3464C159.261 76.1856 159.262 76.0045 159.196 75.8428C159.131 75.6812 159.004 75.5522 158.844 75.4842C156.962 74.3934 155.015 73.4198 153.014 72.5691V72.5691Z" fill="#6C63FF"/>
<path d="M151.984 77.152C152.933 77.152 153.703 76.3805 153.703 75.4288C153.703 74.4772 152.933 73.7057 151.984 73.7057C151.035 73.7057 150.266 74.4772 150.266 75.4288C150.266 76.3805 151.035 77.152 151.984 77.152Z" fill="#6C63FF"/>
<path d="M148.262 72.8762L146.905 72.3018C146.815 72.2636 146.744 72.1912 146.707 72.1005C146.67 72.0099 146.671 71.9082 146.709 71.818L146.899 71.3644C146.938 71.2743 147.01 71.203 147.1 71.1661C147.191 71.1293 147.292 71.1299 147.382 71.1679L148.739 71.7422C148.829 71.7804 148.9 71.8528 148.937 71.9435C148.974 72.0342 148.973 72.1358 148.935 72.226L148.744 72.6796C148.706 72.7697 148.634 72.8411 148.543 72.8779C148.453 72.9148 148.352 72.9141 148.262 72.8762V72.8762Z" fill="#6C63FF"/>
<path d="M156.426 80.0718L155.069 79.4975C154.979 79.4593 154.908 79.3869 154.871 79.2962C154.834 79.2055 154.835 79.1039 154.873 79.0137L155.064 78.5601C155.102 78.47 155.174 78.3986 155.264 78.3618C155.355 78.3249 155.456 78.3256 155.546 78.3635L156.903 78.9379C156.993 78.9761 157.064 79.0484 157.101 79.1391C157.138 79.2298 157.137 79.3314 157.099 79.4217L156.908 79.8753C156.87 79.9654 156.798 80.0367 156.707 80.0736C156.617 80.1104 156.516 80.1098 156.426 80.0718Z" fill="#6C63FF"/>
<path d="M11.1683 89.0458H9.69531V90.2766H11.1683V89.0458Z" fill="#F0F0F0"/>
<path d="M150.494 90.2766H147.591V89.0458H150.494V90.2766ZM144.688 90.2766H141.786V89.0458H144.688V90.2766ZM138.883 90.2766H135.981V89.0458H138.883V90.2766ZM133.078 90.2766H130.175V89.0458H133.078V90.2766ZM127.273 90.2766H124.37V89.0458H127.273V90.2766ZM121.467 90.2766H118.565V89.0458H121.467L121.467 90.2766ZM115.662 90.2766H112.76V89.0458H115.662V90.2766ZM109.857 90.2766H106.954V89.0458H109.857V90.2766ZM104.052 90.2766H101.149V89.0458H104.052V90.2766ZM98.2464 90.2766H95.3437V89.0458H98.2464L98.2464 90.2766ZM92.4412 90.2766H89.5385V89.0458H92.4412L92.4412 90.2766ZM86.6359 90.2766H83.7332V89.0458H86.6359L86.6359 90.2766ZM80.8307 90.2766H77.928V89.0458H80.8307L80.8307 90.2766ZM75.0253 90.2766H72.1228V89.0458H75.0254L75.0253 90.2766ZM69.2201 90.2766H66.3176V89.0458H69.2201L69.2201 90.2766ZM63.4149 90.2766H60.5123V89.0458H63.4149L63.4149 90.2766ZM57.6096 90.2766H54.707V89.0458H57.6097L57.6096 90.2766ZM51.8044 90.2766H48.9018V89.0458H51.8045L51.8044 90.2766ZM45.9991 90.2766H43.0966V89.0458H45.9991L45.9991 90.2766ZM40.1938 90.2766H37.2913V89.0458H40.1939L40.1938 90.2766ZM34.3886 90.2766H31.4861V89.0458H34.3887L34.3886 90.2766ZM28.5834 90.2766H25.6808V89.0458H28.5835L28.5834 90.2766ZM22.7781 90.2766H19.8756V89.0458H22.7782L22.7781 90.2766ZM16.9729 90.2766H14.0703V89.0458H16.973L16.9729 90.2766Z" fill="#F0F0F0"/>
<path d="M11.1683 57.7832H9.69531V59.014H11.1683V57.7832Z" fill="#F0F0F0"/>
<path d="M150.494 59.014H147.591V57.7832H150.494V59.014ZM144.688 59.014H141.786V57.7832H144.688V59.014ZM138.883 59.014H135.981V57.7832H138.883V59.014ZM133.078 59.014H130.175V57.7832H133.078V59.014ZM127.273 59.014H124.37V57.7832H127.273V59.014ZM121.467 59.014H118.565V57.7832H121.467L121.467 59.014ZM115.662 59.014H112.76V57.7832H115.662V59.014ZM109.857 59.014H106.954V57.7832H109.857V59.014ZM104.052 59.014H101.149V57.7832H104.052V59.014ZM98.2464 59.014H95.3437V57.7832H98.2464L98.2464 59.014ZM92.4412 59.014H89.5385V57.7832H92.4412L92.4412 59.014ZM86.6359 59.014H83.7332V57.7832H86.6359L86.6359 59.014ZM80.8307 59.014H77.928V57.7832H80.8307L80.8307 59.014ZM75.0253 59.014H72.1228V57.7832H75.0254L75.0253 59.014ZM69.2201 59.014H66.3176V57.7832H69.2201L69.2201 59.014ZM63.4149 59.014H60.5123V57.7832H63.4149L63.4149 59.014ZM57.6096 59.014H54.707V57.7832H57.6097L57.6096 59.014ZM51.8044 59.014H48.9018V57.7832H51.8045L51.8044 59.014ZM45.9991 59.014H43.0966V57.7832H45.9991L45.9991 59.014ZM40.1938 59.014H37.2913V57.7832H40.1939L40.1938 59.014ZM34.3886 59.014H31.4861V57.7832H34.3887L34.3886 59.014ZM28.5834 59.014H25.6808V57.7832H28.5835L28.5834 59.014ZM22.7781 59.014H19.8756V57.7832H22.7782L22.7781 59.014ZM16.9729 59.014H14.0703V57.7832H16.973L16.9729 59.014Z" fill="#F0F0F0"/>
<path d="M11.1683 26.5206H9.69531V27.7514H11.1683V26.5206Z" fill="#F0F0F0"/>
<path d="M150.494 27.7514H147.591V26.5206H150.494V27.7514ZM144.688 27.7514H141.786V26.5206H144.688V27.7514ZM138.883 27.7514H135.981V26.5206H138.883V27.7514ZM133.078 27.7514H130.175V26.5206H133.078V27.7514ZM127.273 27.7514H124.37V26.5206H127.273V27.7514ZM121.467 27.7514H118.565V26.5206H121.467L121.467 27.7514ZM115.662 27.7514H112.76V26.5206H115.662V27.7514ZM109.857 27.7514H106.954V26.5206H109.857V27.7514ZM104.052 27.7514H101.149V26.5206H104.052V27.7514ZM98.2464 27.7514H95.3437V26.5206H98.2464L98.2464 27.7514ZM92.4412 27.7514H89.5385V26.5206H92.4412L92.4412 27.7514ZM86.6359 27.7514H83.7332V26.5206H86.6359L86.6359 27.7514ZM80.8307 27.7514H77.928V26.5206H80.8307L80.8307 27.7514ZM75.0253 27.7514H72.1228V26.5206H75.0254L75.0253 27.7514ZM69.2201 27.7514H66.3176V26.5206H69.2201L69.2201 27.7514ZM63.4149 27.7514H60.5123V26.5206H63.4149L63.4149 27.7514ZM57.6096 27.7514H54.707V26.5206H57.6097L57.6096 27.7514ZM51.8044 27.7514H48.9018V26.5206H51.8045L51.8044 27.7514ZM45.9991 27.7514H43.0966V26.5206H45.9991L45.9991 27.7514ZM40.1938 27.7514H37.2913V26.5206H40.1939L40.1938 27.7514ZM34.3886 27.7514H31.4861V26.5206H34.3887L34.3886 27.7514ZM28.5834 27.7514H25.6808V26.5206H28.5835L28.5834 27.7514ZM22.7781 27.7514H19.8756V26.5206H22.7782L22.7781 27.7514ZM16.9729 27.7514H14.0703V26.5206H16.973L16.9729 27.7514Z" fill="#F0F0F0"/>
<path d="M57.6933 89.415H45.6641V133.724H57.6933V89.415Z" fill="#3F3D56"/>
<path d="M59.9043 89.415H47.875V133.724H59.9043V89.415Z" fill="#6C63FF"/>
<path d="M86.1699 58.1525H74.1406V133.724H86.1699V58.1525Z" fill="#3F3D56"/>
<path d="M88.3808 58.1525H76.3516V133.724H88.3808V58.1525Z" fill="#6C63FF"/>
<path d="M114.646 26.8899H102.617V133.724H114.646V26.8899Z" fill="#3F3D56"/>
<path d="M116.857 26.8899H104.828V133.724H116.857V26.8899Z" fill="#6C63FF"/>
<path d="M9.82095 30.09C11.4479 30.09 12.7669 28.7675 12.7669 27.1361C12.7669 25.5047 11.4479 24.1821 9.82095 24.1821C8.19394 24.1821 6.875 25.5047 6.875 27.1361C6.875 28.7675 8.19394 30.09 9.82095 30.09Z" fill="#F0F0F0"/>
<path d="M9.82095 61.3526C11.4479 61.3526 12.7669 60.0301 12.7669 58.3986C12.7669 56.7672 11.4479 55.4447 9.82095 55.4447C8.19394 55.4447 6.875 56.7672 6.875 58.3986C6.875 60.0301 8.19394 61.3526 9.82095 61.3526Z" fill="#F0F0F0"/>
<path d="M9.82095 92.6152C11.4479 92.6152 12.7669 91.2926 12.7669 89.6612C12.7669 88.0298 11.4479 86.7073 9.82095 86.7073C8.19394 86.7073 6.875 88.0298 6.875 89.6612C6.875 91.2926 8.19394 92.6152 9.82095 92.6152Z" fill="#F0F0F0"/>
<path d="M183.934 77.3089L183.914 77.3072C180.191 76.6907 176.054 76.6909 171.269 77.3079H171.267C171.148 77.3093 171.029 77.287 170.918 77.2423C170.808 77.1976 170.707 77.1314 170.622 77.0474C170.537 76.9634 170.469 76.8634 170.423 76.7531C170.376 76.6428 170.352 76.5243 170.352 76.4046V72.059C170.352 71.8193 170.447 71.5895 170.616 71.4199C170.785 71.2504 171.014 71.1551 171.253 71.1548C175.467 70.6038 179.735 70.6042 183.949 71.1558H183.951C184.187 71.1593 184.413 71.2561 184.578 71.4251C184.744 71.5942 184.837 71.822 184.836 72.059V76.4046C184.836 76.6444 184.74 76.8742 184.571 77.0437C184.402 77.2132 184.173 77.3086 183.934 77.3089Z" fill="white"/>
<path d="M183.934 77.3087L183.914 77.307C180.191 76.6906 176.054 76.6908 171.269 77.3078H171.267C171.148 77.3092 171.029 77.2869 170.918 77.2422C170.808 77.1975 170.707 77.1312 170.622 77.0473C170.537 76.9633 170.469 76.8633 170.423 76.753C170.376 76.6426 170.352 76.5242 170.352 76.4045V72.0589C170.352 71.8192 170.447 71.5893 170.616 71.4198C170.785 71.2503 171.014 71.155 171.253 71.1547C175.467 70.6037 179.735 70.604 183.949 71.1556H183.951C184.187 71.1591 184.413 71.2559 184.578 71.425C184.744 71.5941 184.837 71.8219 184.836 72.0589V76.4045C184.836 76.6442 184.74 76.8741 184.571 77.0436C184.402 77.2131 184.173 77.3085 183.934 77.3087ZM177.433 70.9884C175.372 70.9847 173.313 71.1221 171.27 71.3996C171.183 71.3982 171.096 71.4142 171.014 71.4467C170.933 71.4791 170.859 71.5274 170.797 71.5887C170.734 71.65 170.684 71.7231 170.65 71.8038C170.616 71.8845 170.598 71.9712 170.597 72.0589V76.4045C170.597 76.579 170.666 76.7462 170.789 76.8696C170.913 76.993 171.079 77.0624 171.253 77.0626C176.043 76.444 180.199 76.4439 183.944 77.0624C184.116 77.0597 184.28 76.9892 184.401 76.8662C184.522 76.7431 184.59 76.5773 184.59 76.4045V72.0589C184.59 71.8844 184.521 71.7172 184.398 71.5938C184.275 71.4704 184.108 71.401 183.934 71.4008C181.777 71.1296 179.606 70.9919 177.433 70.9884V70.9884Z" fill="#6C63FF"/>
<path d="M177.593 75.7475C178.543 75.7475 179.312 74.9761 179.312 74.0244C179.312 73.0727 178.543 72.3013 177.593 72.3013C176.644 72.3013 175.875 73.0727 175.875 74.0244C175.875 74.9761 176.644 75.7475 177.593 75.7475Z" fill="#6C63FF"/>
<path d="M173.177 73.1241H171.704C171.607 73.124 171.513 73.0851 171.444 73.0159C171.375 72.9466 171.336 72.8528 171.336 72.7549V72.2626C171.336 72.1647 171.375 72.0708 171.444 72.0016C171.513 71.9324 171.607 71.8934 171.704 71.8933H173.177C173.275 71.8934 173.368 71.9324 173.437 72.0016C173.506 72.0708 173.545 72.1647 173.545 72.2626V72.7549C173.545 72.8528 173.506 72.9466 173.437 73.0159C173.368 73.0851 173.275 73.124 173.177 73.1241V73.1241Z" fill="#6C63FF"/>
<path d="M183.482 76.5704H182.009C181.911 76.5703 181.818 76.5314 181.749 76.4621C181.68 76.3929 181.641 76.2991 181.641 76.2012V75.7088C181.641 75.6109 181.68 75.5171 181.749 75.4479C181.818 75.3786 181.911 75.3397 182.009 75.3396H183.482C183.579 75.3397 183.673 75.3786 183.742 75.4479C183.811 75.5171 183.85 75.6109 183.85 75.7088V76.2012C183.85 76.2991 183.811 76.3929 183.742 76.4621C183.673 76.5314 183.579 76.5703 183.482 76.5704V76.5704Z" fill="#6C63FF"/>
<path d="M171.326 62.1814L171.307 62.1868C167.599 62.8909 163.716 64.3163 159.436 66.5444L159.434 66.5451C159.323 66.5875 159.204 66.6074 159.084 66.6036C158.965 66.5998 158.848 66.5724 158.739 66.5229C158.63 66.4734 158.532 66.4028 158.45 66.3152C158.369 66.2276 158.305 66.1248 158.264 66.0126L156.766 61.9331C156.684 61.7079 156.694 61.4594 156.794 61.242C156.895 61.0246 157.077 60.8561 157.301 60.7735C161.068 58.8043 165.074 57.3341 169.22 56.3999L169.222 56.3994C169.445 56.3212 169.69 56.3344 169.904 56.436C170.117 56.5377 170.283 56.7196 170.364 56.9424L171.861 61.0219C171.943 61.247 171.933 61.4955 171.833 61.7129C171.733 61.9303 171.55 62.0988 171.326 62.1814ZM163.045 58.4883C161.109 59.195 159.223 60.0334 157.401 60.9977C157.319 61.0265 157.243 61.0715 157.178 61.1299C157.113 61.1884 157.06 61.2592 157.022 61.3383C156.985 61.4174 156.963 61.5032 156.959 61.5908C156.954 61.6783 156.967 61.7659 156.997 61.8485L158.494 65.928C158.554 66.0917 158.677 66.2249 158.835 66.2983C158.993 66.3717 159.174 66.3794 159.337 66.3196C163.62 64.0887 167.522 62.6565 171.25 61.9469C171.411 61.885 171.541 61.7622 171.612 61.605C171.683 61.4478 171.69 61.2687 171.63 61.1064L170.133 57.027C170.073 56.8633 169.95 56.7301 169.792 56.6566C169.634 56.5832 169.454 56.5756 169.29 56.6353C167.172 57.1238 165.087 57.7426 163.045 58.4883V58.4883Z" fill="#6C63FF"/>
<path d="M164.84 62.9006C165.731 62.5735 166.187 61.5842 165.859 60.6908C165.531 59.7974 164.543 59.3383 163.652 59.6653C162.761 59.9923 162.305 60.9817 162.633 61.8751C162.961 62.7684 163.949 63.2276 164.84 62.9006Z" fill="#6C63FF"/>
<path d="M159.785 61.9604L158.403 62.4679C158.311 62.5014 158.21 62.4971 158.121 62.4559C158.032 62.4147 157.964 62.34 157.93 62.2481L157.76 61.786C157.726 61.694 157.731 61.5925 157.771 61.5038C157.812 61.415 157.887 61.3462 157.979 61.3124L159.361 60.8049C159.453 60.7714 159.554 60.7757 159.643 60.8169C159.732 60.8581 159.8 60.9328 159.834 61.0247L160.004 61.4868C160.037 61.5788 160.033 61.6803 159.992 61.769C159.951 61.8578 159.877 61.9266 159.785 61.9604V61.9604Z" fill="#6C63FF"/>
<path d="M170.653 61.6429L169.27 62.1504C169.178 62.1839 169.077 62.1796 168.988 62.1384C168.899 62.0972 168.831 62.0225 168.797 61.9306L168.627 61.4685C168.594 61.3765 168.598 61.275 168.639 61.1863C168.68 61.0975 168.754 61.0287 168.846 60.9949L170.228 60.4874C170.32 60.4539 170.421 60.4582 170.51 60.4994C170.599 60.5406 170.668 60.6153 170.701 60.7072L170.871 61.1693C170.905 61.2613 170.901 61.3628 170.86 61.4515C170.819 61.5403 170.744 61.6091 170.653 61.6429V61.6429Z" fill="#6C63FF"/>
<path d="M154.519 59.3231L154.499 59.3231C150.737 59.0181 146.615 59.3621 141.897 60.3746L141.895 60.3747C141.777 60.3861 141.657 60.3737 141.543 60.3384C141.429 60.303 141.323 60.2454 141.231 60.1688C141.139 60.0922 141.063 59.9981 141.008 59.892C140.952 59.786 140.919 59.6699 140.908 59.5507L140.547 55.2201C140.527 54.9812 140.603 54.7443 140.757 54.5613C140.912 54.3783 141.132 54.2642 141.37 54.2441C145.524 53.3448 149.777 52.9905 154.022 53.19L154.024 53.1899C154.26 53.1737 154.493 53.2514 154.672 53.4062C154.851 53.5609 154.962 53.7802 154.981 54.0165L155.342 58.347C155.362 58.586 155.286 58.8229 155.132 59.0059C154.977 59.1889 154.757 59.3029 154.519 59.3231ZM147.515 53.5649C145.46 53.7325 143.42 54.0405 141.408 54.4868C141.32 54.4927 141.235 54.5158 141.157 54.5549C141.078 54.594 141.009 54.6483 140.951 54.7145C140.894 54.7808 140.851 54.8578 140.823 54.9411C140.796 55.0244 140.785 55.1123 140.792 55.1997L141.153 59.5303C141.167 59.7041 141.25 59.8651 141.383 59.9778C141.516 60.0905 141.688 60.1458 141.861 60.1315C146.583 59.1171 150.725 58.7716 154.508 59.0768C154.679 59.0598 154.837 58.9759 154.948 58.8432C155.058 58.7105 155.112 58.5396 155.098 58.3674L154.736 54.0369C154.722 53.863 154.639 53.7021 154.506 53.5894C154.373 53.4766 154.201 53.4214 154.028 53.4356C151.856 53.3445 149.681 53.3877 147.515 53.5649V53.5649Z" fill="#6C63FF"/>
<path d="M148.069 58.2942C149.015 58.2154 149.718 57.3826 149.639 56.4342C149.559 55.4859 148.729 54.781 147.783 54.8599C146.837 54.9387 146.134 55.7715 146.214 56.7199C146.293 57.6682 147.123 58.3731 148.069 58.2942Z" fill="#6C63FF"/>
<path d="M143.453 56.0471L141.985 56.1695C141.888 56.1775 141.791 56.1464 141.717 56.0832C141.642 56.02 141.595 55.9296 141.587 55.8321L141.546 55.3415C141.538 55.2439 141.569 55.1472 141.632 55.0724C141.695 54.9977 141.785 54.9511 141.883 54.9429L143.35 54.8205C143.448 54.8125 143.544 54.8435 143.619 54.9068C143.693 54.97 143.74 55.0603 143.748 55.1579L143.789 55.6485C143.797 55.7461 143.766 55.8428 143.703 55.9175C143.64 55.9923 143.55 56.0388 143.453 56.0471V56.0471Z" fill="#6C63FF"/>
<path d="M154.007 58.6246L152.54 58.747C152.442 58.755 152.346 58.724 152.271 58.6607C152.197 58.5975 152.15 58.5072 152.142 58.4096L152.101 57.919C152.093 57.8214 152.124 57.7247 152.187 57.6499C152.25 57.5752 152.34 57.5286 152.437 57.5204L153.905 57.398C154.002 57.39 154.099 57.421 154.174 57.4843C154.248 57.5475 154.295 57.6378 154.303 57.7354L154.344 58.226C154.352 58.3236 154.321 58.4203 154.258 58.4951C154.195 58.5698 154.105 58.6164 154.007 58.6246V58.6246Z" fill="#6C63FF"/>
</svg>
