<svg width="44" height="43" viewBox="0 0 44 43" fill="none" xmlns="http://www.w3.org/2000/svg">
<path d="M35.7481 6.72021H8.24805C5.96987 6.72021 4.12305 8.52507 4.12305 10.7515V32.2515C4.12305 34.4779 5.96987 36.2827 8.24805 36.2827H35.7481C38.0262 36.2827 39.8731 34.4779 39.8731 32.2515V10.7515C39.8731 8.52507 38.0262 6.72021 35.7481 6.72021Z" stroke="black" stroke-width="2" stroke-linejoin="round"/>
<path d="M28.877 17.4738C30.3969 17.4738 31.629 16.2697 31.629 14.7843C31.629 13.299 30.3969 12.0948 28.877 12.0948C27.3571 12.0948 26.125 13.299 26.125 14.7843C26.125 16.2697 27.3571 17.4738 28.877 17.4738Z" stroke="black" stroke-width="2" stroke-miterlimit="10"/>
<path d="M26.123 28.2024L18.332 20.6026C17.8362 20.1182 17.1698 19.8371 16.4691 19.8169C15.7683 19.7966 15.0861 20.0386 14.5619 20.4934L4.12305 29.5637" stroke="black" stroke-width="2" stroke-linecap="round" stroke-linejoin="round"/>
<path d="M19.248 36.281L29.8476 25.9224C30.3323 25.4477 30.9811 25.1673 31.6666 25.1362C32.3521 25.1051 33.0247 25.3256 33.5523 25.7544L39.873 30.906" stroke="black" stroke-width="2" stroke-linecap="round" stroke-linejoin="round"/>
</svg>
