<svg width="36" height="37" viewBox="0 0 36 37" fill="none" xmlns="http://www.w3.org/2000/svg">
<path d="M16.5 11H12V14H16.5V11Z" fill="#385AD4"/>
<path d="M12 17H16.5V20H12V17Z" fill="#385AD4"/>
<path d="M16.5 23H12V26H16.5V23Z" fill="#385AD4"/>
<path fill-rule="evenodd" clip-rule="evenodd" d="M9 5C7.34315 5 6 6.34315 6 8V29H4.5C3.67157 29 3 29.6716 3 30.5C3 31.3284 3.67157 32 4.5 32H31.5C32.3284 32 33 31.3284 33 30.5C33 29.6716 32.3284 29 31.5 29H30V17C30 15.3431 28.6569 14 27 14H22.5V8C22.5 6.34315 21.1569 5 19.5 5H9ZM22.5 17H27V29H22.5V17ZM19.5 29V8H9V29H19.5Z" fill="#385AD4"/>
</svg>
