<svg width="36" height="37" viewBox="0 0 36 37" fill="none" xmlns="http://www.w3.org/2000/svg">
<path d="M7.5 5C5.84315 5 4.5 6.34315 4.5 8V29C4.5 30.6569 5.84315 32 7.5 32H28.5C30.1569 32 31.5 30.6569 31.5 29V20C31.5 19.1716 30.8284 18.5 30 18.5C29.1716 18.5 28.5 19.1716 28.5 20V29H7.5V8H16.5C17.3284 8 18 7.32843 18 6.5C18 5.67157 17.3284 5 16.5 5H7.5Z" fill="#385AD4"/>
<path d="M31.5 12.5C31.5 13.3284 30.8284 14 30 14C29.1716 14 28.5 13.3284 28.5 12.5V10.1213L18.6213 20H21C21.8284 20 22.5 20.6716 22.5 21.5C22.5 22.3284 21.8284 23 21 23H15.375C14.3395 23 13.5 22.1605 13.5 21.125V15.5C13.5 14.6716 14.1716 14 15 14C15.8284 14 16.5 14.6716 16.5 15.5V17.8787L26.3787 8H24C23.1716 8 22.5 7.32843 22.5 6.5C22.5 5.67157 23.1716 5 24 5H29.625C30.6605 5 31.5 5.83947 31.5 6.875V12.5Z" fill="#385AD4"/>
</svg>
