<svg width="267" height="73" viewBox="0 0 267 73" fill="none" xmlns="http://www.w3.org/2000/svg">
<rect width="267" height="73" rx="10" fill="black"/>
<path d="M58.7066 46.4594C66.0479 42.4279 71.6138 39.3562 72.0935 39.1177C73.6277 38.3012 75.2128 36.1412 72.0935 34.4635C71.0864 33.936 65.6638 30.9594 58.7066 27.1217L49.0625 36.862L58.706 46.4594H58.7066Z" fill="#FFD900"/>
<path d="M49.0606 36.8621L18.3516 67.8142C19.0719 67.9099 19.8857 67.7186 20.8456 67.1911C22.8599 66.0888 44.2129 54.4265 58.7052 46.4616L49.0606 36.8621V36.8621Z" fill="#F43249"/>
<path d="M49.0611 36.862L58.7046 27.169C58.7046 27.169 23.0059 7.68579 20.8455 6.53616C20.0327 6.05277 19.1206 5.90985 18.3047 6.05277L49.0611 36.8615V36.862Z" fill="#00EE76"/>
<path d="M49.0602 36.862L18.3033 6.05328C17.055 6.34174 16 7.44461 16 9.6992V64.1667C16 66.2316 16.8165 67.7186 18.3506 67.8615L49.0597 36.8615L49.0602 36.862Z" fill="#00D3FF"/>
<path d="M137.963 39.6913C133.208 39.6913 129.278 43.3773 129.278 48.4311C129.278 53.4437 133.166 57.1709 137.964 57.1709C142.76 57.1709 146.648 53.485 146.648 48.4311C146.648 43.3773 142.76 39.6913 137.963 39.6913ZM137.963 53.6931C135.357 53.6931 133.084 51.4971 133.084 48.3921C133.084 45.2441 135.359 43.0911 137.963 43.0911C140.567 43.0911 142.842 45.2441 142.842 48.3921C142.842 51.4971 140.567 53.6931 137.963 53.6931ZM119.064 39.6913C114.266 39.6913 110.379 43.3773 110.379 48.4311C110.379 53.4437 114.266 57.1709 119.064 57.1709C123.86 57.1709 127.748 53.485 127.748 48.4311C127.748 43.3773 123.86 39.6913 119.063 39.6913H119.064ZM119.064 53.6931C116.457 53.6931 114.185 51.4971 114.185 48.3921C114.185 45.2441 116.459 43.0911 119.064 43.0911C121.67 43.0911 123.943 45.2441 123.943 48.3921C123.943 51.4971 121.709 53.6931 119.064 53.6931ZM96.6073 42.384V46.07H105.374C105.125 48.1409 104.424 49.6734 103.389 50.7097C102.108 51.9933 100.123 53.4024 96.6073 53.4024C91.1888 53.4024 87.0134 49.0121 87.0134 43.5855C87.0134 38.1588 91.1911 33.6855 96.6073 33.6855C99.5425 33.6855 101.653 34.8457 103.224 36.3374L105.829 33.7268C103.636 31.6151 100.701 30 96.6073 30C89.2037 30 83 36.0879 83 43.5029C83 50.9184 89.2037 57.0063 96.6073 57.0063C100.618 57.0063 103.597 55.6815 105.995 53.1947C108.435 50.751 109.179 47.3122 109.179 44.5374C109.179 43.668 109.098 42.8807 108.972 42.2176L96.6073 42.384V42.384ZM188.5 45.2418C187.796 43.2947 185.564 39.6913 181.096 39.6913C176.629 39.6913 172.949 43.2126 172.949 48.4311C172.949 53.3181 176.629 57.1709 181.51 57.1709C185.48 57.1709 187.755 54.7272 188.705 53.3181L185.77 51.3302C184.777 52.7806 183.454 53.7321 181.51 53.7321C179.566 53.7321 178.202 52.8627 177.332 51.0807L188.87 46.2351L188.5 45.2418V45.2418ZM176.754 48.1839C176.672 44.8277 179.361 43.0888 181.261 43.0888C182.792 43.0888 184.032 43.8345 184.487 44.9533L176.754 48.1839V48.1839ZM167.366 56.5917H171.172V30.9928H167.366V56.5917V56.5917ZM161.164 41.6384H161.041C160.173 40.602 158.56 39.6913 156.491 39.6913C152.148 39.6913 148.22 43.5442 148.22 48.4311C148.22 53.3181 152.189 57.1301 156.491 57.1301C158.558 57.1301 160.171 56.2189 161.041 55.1413H161.164V56.384C161.164 59.7402 159.385 61.52 156.532 61.52C154.216 61.52 152.768 59.8223 152.189 58.4132L148.882 59.8223C149.832 62.1422 152.356 65 156.532 65C160.998 65 164.762 62.3486 164.762 55.9287V40.2292H161.164V41.6384V41.6384ZM156.822 53.6931C154.216 53.6931 152.025 51.4971 152.025 48.4334C152.025 45.3697 154.218 43.1319 156.822 43.1319C159.387 43.1319 161.454 45.3697 161.454 48.4334C161.452 51.4558 159.385 53.6931 156.822 53.6931ZM206.241 30.9933H197.143V56.5917H200.949V46.8981H206.241C210.46 46.8981 214.595 43.8322 214.595 38.9457C214.595 34.0588 210.46 30.9928 206.241 30.9928V30.9933ZM206.365 43.3383H200.988V34.5549H206.365C209.177 34.5549 210.831 36.9161 210.831 38.9452C210.791 40.9336 209.179 43.3383 206.365 43.3383ZM229.774 39.6501C227.044 39.6501 224.19 40.8515 223.033 43.5855L226.383 44.9946C227.128 43.5855 228.451 43.1301 229.858 43.1301C231.843 43.1301 233.828 44.3311 233.869 46.4428V46.6922C233.165 46.2782 231.72 45.6972 229.899 45.6972C226.26 45.6972 222.578 47.7268 222.578 51.4558C222.578 54.8941 225.557 57.0888 228.864 57.0888C231.429 57.0888 232.834 55.9287 233.702 54.5626H233.826V56.5509H237.506V46.7331C237.465 42.2189 234.116 39.6496 229.774 39.6496V39.6501ZM229.319 53.6519C228.078 53.6519 226.34 53.0296 226.34 51.4989C226.34 49.5106 228.49 48.7649 230.352 48.7649C232.005 48.7649 232.791 49.1377 233.826 49.6344C233.536 51.9955 231.51 53.6519 229.319 53.6519V53.6519ZM250.782 40.2315L246.439 51.2907H246.316L241.809 40.231H237.716L244.497 55.7223L240.651 64.38H244.62L255 40.231H250.782L250.782 40.2315ZM216.705 56.5917H220.511V30.9928H216.705V56.5917Z" fill="white"/>
<path d="M89.736 26.16C88.8613 26.16 88.056 26.0213 87.32 25.744C86.5947 25.456 85.96 25.056 85.416 24.544C84.872 24.0213 84.4507 23.408 84.152 22.704C83.8533 22 83.704 21.232 83.704 20.4C83.704 19.568 83.8533 18.8 84.152 18.096C84.4507 17.392 84.872 16.784 85.416 16.272C85.9707 15.7493 86.616 15.3493 87.352 15.072C88.088 14.784 88.8933 14.64 89.768 14.64C90.7173 14.64 91.5707 14.7947 92.328 15.104C93.096 15.4133 93.7413 15.8667 94.264 16.464L92.952 17.744C92.5147 17.3067 92.04 16.9867 91.528 16.784C91.0267 16.5707 90.472 16.464 89.864 16.464C89.2773 16.464 88.7333 16.56 88.232 16.752C87.7307 16.944 87.2987 17.216 86.936 17.568C86.5733 17.92 86.2907 18.336 86.088 18.816C85.896 19.296 85.8 19.824 85.8 20.4C85.8 20.9653 85.896 21.488 86.088 21.968C86.2907 22.448 86.5733 22.8693 86.936 23.232C87.2987 23.584 87.7253 23.856 88.216 24.048C88.7067 24.24 89.2507 24.336 89.848 24.336C90.4027 24.336 90.936 24.2507 91.448 24.08C91.9707 23.8987 92.4667 23.6 92.936 23.184L94.12 24.736C93.5333 25.2053 92.8507 25.5627 92.072 25.808C91.304 26.0427 90.5253 26.16 89.736 26.16ZM92.152 24.464V20.272H94.12V24.736L92.152 24.464ZM98.7834 19.456H104.351V21.168H98.7834V19.456ZM98.9434 24.256H105.263V26H96.8634V14.8H105.039V16.544H98.9434V24.256ZM109.854 26V16.56H106.142V14.8H115.646V16.56H111.934V26H109.854ZM121.629 26V14.8H123.709V26H121.629ZM129.01 26V16.56H125.298V14.8H134.802V16.56H131.09V26H129.01ZM146.033 26.16C145.159 26.16 144.353 26.016 143.617 25.728C142.881 25.44 142.241 25.04 141.697 24.528C141.153 24.0053 140.732 23.3973 140.433 22.704C140.135 22 139.985 21.232 139.985 20.4C139.985 19.568 140.135 18.8053 140.433 18.112C140.732 17.408 141.153 16.8 141.697 16.288C142.241 15.7653 142.881 15.36 143.617 15.072C144.353 14.784 145.153 14.64 146.017 14.64C146.892 14.64 147.692 14.784 148.417 15.072C149.153 15.36 149.793 15.7653 150.337 16.288C150.881 16.8 151.303 17.408 151.601 18.112C151.9 18.8053 152.049 19.568 152.049 20.4C152.049 21.232 151.9 22 151.601 22.704C151.303 23.408 150.881 24.016 150.337 24.528C149.793 25.04 149.153 25.44 148.417 25.728C147.692 26.016 146.897 26.16 146.033 26.16ZM146.017 24.336C146.583 24.336 147.105 24.24 147.585 24.048C148.065 23.856 148.481 23.584 148.833 23.232C149.185 22.8693 149.457 22.4533 149.649 21.984C149.852 21.504 149.953 20.976 149.953 20.4C149.953 19.824 149.852 19.3013 149.649 18.832C149.457 18.352 149.185 17.936 148.833 17.584C148.481 17.2213 148.065 16.944 147.585 16.752C147.105 16.56 146.583 16.464 146.017 16.464C145.452 16.464 144.929 16.56 144.449 16.752C143.98 16.944 143.564 17.2213 143.201 17.584C142.849 17.936 142.572 18.352 142.369 18.832C142.177 19.3013 142.081 19.824 142.081 20.4C142.081 20.9653 142.177 21.488 142.369 21.968C142.572 22.448 142.849 22.8693 143.201 23.232C143.553 23.584 143.969 23.856 144.449 24.048C144.929 24.24 145.452 24.336 146.017 24.336ZM154.254 26V14.8H155.966L162.99 23.424H162.142V14.8H164.206V26H162.494L155.47 17.376H156.318V26H154.254Z" fill="white"/>
</svg>
