<svg width="40" height="40" viewBox="0 0 40 40" fill="none" xmlns="http://www.w3.org/2000/svg">
<rect width="40" height="40" rx="5" fill="#EEEEEE"/>
<path d="M31.7639 24.1111C30.4722 23.3611 29.6805 21.9861 29.6805 20.5C29.6805 19.0139 30.4722 17.6389 31.7639 16.8889C31.9861 16.75 32.0695 16.4722 31.9306 16.25L29.6111 12.25C29.5278 12.0972 29.375 12.0139 29.2222 12.0139C29.1389 12.0139 29.0555 12.0417 28.9861 12.0833C28.3472 12.4444 27.625 12.6389 26.9028 12.6389C26.1666 12.6389 25.4444 12.4444 24.7917 12.0694C23.5 11.3194 22.7083 9.95833 22.7083 8.47222C22.7083 8.20833 22.5 8 22.25 8H16.75C16.5 8 16.2917 8.20833 16.2917 8.47222C16.2917 9.95833 15.5 11.3194 14.2083 12.0694C13.5556 12.4444 12.8334 12.6389 12.0972 12.6389C11.375 12.6389 10.6528 12.4444 10.0139 12.0833C9.79169 11.9444 9.51389 12.0278 9.38889 12.25L7.05557 16.25C7.0139 16.3194 7 16.4028 7 16.4722C7 16.6389 7.08335 16.7917 7.23613 16.8889C8.5278 17.6389 9.31946 19 9.31946 20.4861C9.31946 21.9861 8.52777 23.3611 7.24999 24.1111H7.23613C7.01391 24.25 6.93054 24.5278 7.06943 24.75L9.38889 28.75C9.47222 28.9028 9.625 28.9861 9.77778 28.9861C9.86111 28.9861 9.94446 28.9583 10.0139 28.9167C11.3195 28.1806 12.9167 28.1806 14.2083 28.9306C15.4861 29.6806 16.2778 31.0417 16.2778 32.5278C16.2778 32.7917 16.4861 33 16.75 33H22.25C22.5 33 22.7083 32.7917 22.7083 32.5278C22.7083 31.0417 23.5 29.6806 24.7917 28.9306C25.4444 28.5556 26.1666 28.3611 26.9028 28.3611C27.625 28.3611 28.3472 28.5556 28.9861 28.9167C29.2083 29.0556 29.4861 28.9722 29.6111 28.75L31.9444 24.75C31.9861 24.6806 32 24.5972 32 24.5278C32 24.3611 31.9166 24.2083 31.7639 24.1111ZM19.5 24.6667C17.1944 24.6667 15.3333 22.8056 15.3333 20.5C15.3333 18.1944 17.1944 16.3333 19.5 16.3333C21.8056 16.3333 23.6667 18.1944 23.6667 20.5C23.6667 22.8056 21.8056 24.6667 19.5 24.6667Z" fill="black"/>
</svg>
