<svg width="24" height="24" viewBox="0 0 24 24" fill="none" xmlns="http://www.w3.org/2000/svg">
<path fill-rule="evenodd" clip-rule="evenodd" d="M12 24C18.6274 24 24 18.6274 24 12C24 5.37258 18.6274 0 12 0C5.37258 0 0 5.37258 0 12C0 18.6274 5.37258 24 12 24ZM15.6 8.4C15.6 10.3882 13.9882 12 12 12C10.0118 12 8.4 10.3882 8.4 8.4C8.4 6.41178 10.0118 4.8 12 4.8C13.9882 4.8 15.6 6.41178 15.6 8.4ZM19.2 18C18 19.8 14.8281 21.6 12 21.6C9.17179 21.6 6 19.8 4.8 18C5.74547 15.7939 7.79983 14.4 10.2 14.4H13.8C16.2002 14.4 18.2545 15.7939 19.2 18Z" fill="white"/>
</svg>
