<svg width="24" height="24" viewBox="0 0 24 24" fill="none" xmlns="http://www.w3.org/2000/svg">
<path d="M0 3.56403C0 1.59567 1.59567 0 3.56403 0H13.0681C15.0365 0 16.6321 1.59567 16.6321 3.56403V7.12806H14.2561V3.56403C14.2561 2.90791 13.7242 2.37602 13.0681 2.37602H3.56403C3.35964 2.37602 3.16731 2.42763 2.99935 2.51854L7.36085 4.41442C8.66226 4.98012 9.50408 6.26396 9.50408 7.683V21.3842H13.0681C13.7242 21.3842 14.2561 20.8523 14.2561 20.1962V16.6321H16.6321V20.1962C16.6321 22.1645 15.0365 23.7602 13.0681 23.7602H3.56403C1.59567 23.7602 0 22.1645 0 20.1962V3.56403Z" fill="white"/>
<path d="M19.2077 14.7851C18.8437 15.3311 18.9913 16.0687 19.5372 16.4326C20.0831 16.7966 20.8207 16.649 21.1847 16.1031L24 11.8801L21.1847 7.65708C20.8207 7.11116 20.0831 6.96364 19.5372 7.32759C18.9913 7.69154 18.8437 8.42914 19.2077 8.97506L20.3524 10.6921L11.8801 10.6921V13.0681L20.3524 13.0681L19.2077 14.7851Z" fill="white"/>
</svg>
