<svg width="68" height="68" viewBox="0 0 68 68" fill="none" xmlns="http://www.w3.org/2000/svg">
<g filter="url(#filter0_d_806_10316)">
<rect x="9" y="8" width="50" height="50" rx="25" fill="#5276F9"/>
</g>
<path d="M42.2863 35.0548L42.9372 34.2957L42.2863 35.0548ZM25.7163 35.0548L26.3672 35.814L25.7163 35.0548ZM28.3346 27.3333C28.3346 25.1241 30.1255 23.3333 32.3346 23.3333V21.3333C29.0209 21.3333 26.3346 24.0195 26.3346 27.3333H28.3346ZM28.3346 32.5605V27.3333H26.3346V32.5605H28.3346ZM25.668 37.3333C25.668 36.7258 25.9376 36.1823 26.3672 35.814L25.0654 34.2957C24.2115 35.0277 23.668 36.1176 23.668 37.3333H25.668ZM25.668 37.6666V37.3333H23.668V37.6666H25.668ZM27.3346 38.6666H26.668V40.6666H27.3346V38.6666ZM40.668 38.6666H27.3346V40.6666H40.668V38.6666ZM41.3346 38.6666H40.668V40.6666H41.3346V38.6666ZM42.3346 37.3333V37.6666H44.3346V37.3333H42.3346ZM41.6354 35.814C42.065 36.1823 42.3346 36.7258 42.3346 37.3333H44.3346C44.3346 36.1176 43.7911 35.0277 42.9372 34.2957L41.6354 35.814ZM39.668 27.3333V32.5605H41.668V27.3333H39.668ZM35.668 23.3333C37.8771 23.3333 39.668 25.1241 39.668 27.3333H41.668C41.668 24.0195 38.9817 21.3333 35.668 21.3333V23.3333ZM32.3346 23.3333H35.668V21.3333H32.3346V23.3333ZM42.9372 34.2957C42.5563 33.9691 42.2254 33.6613 41.9888 33.3437C41.7568 33.0323 41.668 32.7808 41.668 32.5605H39.668C39.668 33.3597 40.0013 34.0236 40.385 34.5386C40.7641 35.0474 41.2423 35.477 41.6354 35.814L42.9372 34.2957ZM23.668 37.6666C23.668 39.3234 25.0111 40.6666 26.668 40.6666V38.6666C26.1157 38.6666 25.668 38.2189 25.668 37.6666H23.668ZM41.3346 40.6666C42.9915 40.6666 44.3346 39.3234 44.3346 37.6666H42.3346C42.3346 38.2189 41.8869 38.6666 41.3346 38.6666V40.6666ZM26.3346 32.5605C26.3346 32.7808 26.2458 33.0323 26.0138 33.3437C25.7772 33.6613 25.4463 33.9691 25.0654 34.2957L26.3672 35.814C26.7603 35.477 27.2385 35.0474 27.6176 34.5386C28.0013 34.0236 28.3346 33.3597 28.3346 32.5605H26.3346Z" fill="white"/>
<path d="M36.3955 43.5024C36.1737 43.9572 35.827 44.3395 35.396 44.6047C34.965 44.8698 34.4674 45.0069 33.9615 44.9998C33.4555 44.9928 32.962 44.8419 32.5385 44.5648C32.1151 44.2877 31.7793 43.8959 31.5702 43.435" stroke="white" stroke-width="2" stroke-linecap="round" stroke-linejoin="round"/>
<path d="M34 21V22.3333" stroke="white" stroke-width="2" stroke-linecap="round" stroke-linejoin="round"/>
<defs>
<filter id="filter0_d_806_10316" x="0" y="0" width="68" height="68" filterUnits="userSpaceOnUse" color-interpolation-filters="sRGB">
<feFlood flood-opacity="0" result="BackgroundImageFix"/>
<feColorMatrix in="SourceAlpha" type="matrix" values="0 0 0 0 0 0 0 0 0 0 0 0 0 0 0 0 0 0 127 0" result="hardAlpha"/>
<feOffset dy="1"/>
<feGaussianBlur stdDeviation="4.5"/>
<feComposite in2="hardAlpha" operator="out"/>
<feColorMatrix type="matrix" values="0 0 0 0 0 0 0 0 0 0.0935363 0 0 0 0 0.429167 0 0 0 0.1 0"/>
<feBlend mode="normal" in2="BackgroundImageFix" result="effect1_dropShadow_806_10316"/>
<feBlend mode="normal" in="SourceGraphic" in2="effect1_dropShadow_806_10316" result="shape"/>
</filter>
</defs>
</svg>
