<svg width="14" height="14" viewBox="0 0 14 14" fill="none" xmlns="http://www.w3.org/2000/svg">
<path fill-rule="evenodd" clip-rule="evenodd" d="M6.06667 0.298667C6.61975 -0.0995557 7.38025 -0.0995554 7.93333 0.298667L13.3778 4.21867C13.7695 4.50069 14 4.9433 14 5.41333V12.5067C14 13.3314 13.3036 14 12.4444 14H8.63333C8.16082 14 7.77778 13.6323 7.77778 13.1787V8.77333C7.77778 8.36096 7.42955 8.02667 7 8.02667C6.57045 8.02667 6.22222 8.36096 6.22222 8.77333V13.1787C6.22222 13.6323 5.83918 14 5.36667 14H1.55556C0.696446 14 0 13.3314 0 12.5067V5.41333C0 4.9433 0.230524 4.50069 0.622222 4.21867L6.06667 0.298667ZM7 1.49333L1.55556 5.41333V12.5067H4.66667V8.77333C4.66667 7.53622 5.71134 6.53333 7 6.53333C8.28866 6.53333 9.33333 7.53622 9.33333 8.77333V12.5067H12.4444V5.41333L7 1.49333Z" fill="#EF2C2C"/>
</svg>
