<svg width="24" height="24" viewBox="0 0 24 24" fill="none" xmlns="http://www.w3.org/2000/svg">
<rect width="24" height="24" rx="4" fill="#F8F8F8"/>
<path fill-rule="evenodd" clip-rule="evenodd" d="M11.0667 4.29867C11.6198 3.90044 12.3802 3.90044 12.9333 4.29867L18.3778 8.21867C18.7695 8.50069 19 8.9433 19 9.41333V16.5067C19 17.3314 18.3036 18 17.4444 18H13.6333C13.1608 18 12.7778 17.6323 12.7778 17.1787V12.7733C12.7778 12.361 12.4296 12.0267 12 12.0267C11.5704 12.0267 11.2222 12.361 11.2222 12.7733V17.1787C11.2222 17.6323 10.8392 18 10.3667 18H6.55556C5.69645 18 5 17.3314 5 16.5067V9.41333C5 8.9433 5.23052 8.50069 5.62222 8.21867L11.0667 4.29867ZM12 5.49333L6.55556 9.41333V16.5067H9.66667V12.7733C9.66667 11.5362 10.7113 10.5333 12 10.5333C13.2887 10.5333 14.3333 11.5362 14.3333 12.7733V16.5067H17.4444V9.41333L12 5.49333Z" fill="#5276F9"/>
</svg>
