<svg width="37" height="18" viewBox="0 0 37 18" fill="none" xmlns="http://www.w3.org/2000/svg">
<path d="M28.3103 2C31.9394 2 35 5.06728 35 9C35 12.9327 31.9394 16 28.3103 16C26.6594 16 25.0111 15.1081 23.1229 13.4309C22.1968 12.6084 21.2805 11.6592 20.3262 10.6422C20.1313 10.4345 19.9339 10.223 19.7346 10.0094C19.4033 9.65443 19.0666 9.29363 18.7267 8.93471C20.3029 7.14608 21.71 5.56135 23.1738 4.31319C24.9676 2.78369 26.5832 2 28.3103 2Z" stroke="#5276F9" stroke-width="4"/>
<path d="M8.68966 16C5.06063 16 2 12.9327 2 9C2 5.06728 5.06063 2 8.68966 2C10.3406 2 11.9889 2.89192 13.8771 4.56907C14.8032 5.39164 15.7195 6.34076 16.6738 7.35778C16.8687 7.56549 17.0661 7.77699 17.2654 7.99061C17.5967 8.34557 17.9334 8.70637 18.2733 9.06529C16.6971 10.8539 15.29 12.4386 13.8262 13.6868C12.0324 15.2163 10.4168 16 8.68966 16Z" stroke="#5276F9" stroke-width="4"/>
</svg>
