<svg width="162" height="125" viewBox="0 0 162 125" fill="none" xmlns="http://www.w3.org/2000/svg">
<path d="M23.8321 111.051C55.3321 128.351 106.432 128.355 137.932 111.051C169.432 93.747 169.432 65.7015 137.932 48.401C106.432 31.1005 55.3321 31.097 23.8321 48.401C-7.66794 65.705 -7.67844 93.7505 23.8321 111.051Z" fill="#FAFAFA"/>
<path d="M100.829 75.659L105.001 78.067C105.236 78.186 105.496 78.248 105.759 78.248C106.022 78.248 106.282 78.186 106.517 78.067L141.146 58.075C141.237 58.044 141.317 57.9851 141.373 57.9066C141.429 57.8281 141.459 57.734 141.459 57.6375C141.459 57.5409 141.429 57.4468 141.373 57.3683C141.317 57.2899 141.237 57.231 141.146 57.2L136.974 54.792C136.739 54.673 136.479 54.611 136.216 54.611C135.953 54.611 135.693 54.673 135.458 54.792L100.829 74.784C100.738 74.815 100.658 74.8739 100.602 74.9523C100.546 75.0308 100.516 75.1249 100.516 75.2215C100.516 75.318 100.546 75.4121 100.602 75.4906C100.658 75.5691 100.738 75.628 100.829 75.659Z" fill="#E0E0E0"/>
<path d="M47.7823 108.955L51.9543 111.363C52.1892 111.482 52.4488 111.544 52.712 111.544C52.9753 111.544 53.2349 111.482 53.4698 111.363L88.0953 91.3705C88.1867 91.3395 88.2661 91.2806 88.3224 91.2021C88.3786 91.1237 88.4088 91.0296 88.4088 90.933C88.4088 90.8365 88.3786 90.7423 88.3224 90.6639C88.2661 90.5854 88.1867 90.5265 88.0953 90.4955L83.9233 88.0875C83.6884 87.9685 83.4288 87.9065 83.1655 87.9065C82.9023 87.9065 82.6427 87.9685 82.4078 88.0875L47.7823 108.08C47.6909 108.111 47.6115 108.169 47.5552 108.248C47.499 108.326 47.4688 108.42 47.4688 108.517C47.4688 108.614 47.499 108.708 47.5552 108.786C47.6115 108.865 47.6909 108.923 47.7823 108.955Z" fill="#E0E0E0"/>
<path d="M7.4073 80.09L11.5793 82.498C11.8142 82.617 12.0738 82.679 12.337 82.679C12.6003 82.679 12.8599 82.617 13.0948 82.498L47.7238 62.506C47.8152 62.475 47.8946 62.4161 47.9509 62.3376C48.0071 62.2592 48.0373 62.165 48.0373 62.0685C48.0373 61.972 48.0071 61.8778 47.9509 61.7994C47.8946 61.7209 47.8152 61.662 47.7238 61.631L43.5518 59.223C43.3169 59.104 43.0573 59.042 42.7941 59.042C42.5308 59.042 42.2712 59.104 42.0363 59.223L7.4073 79.215C7.31588 79.246 7.23647 79.3049 7.18023 79.3834C7.12399 79.4619 7.09375 79.556 7.09375 79.6525C7.09375 79.749 7.12399 79.8432 7.18023 79.9216C7.23647 80.0001 7.31588 80.059 7.4073 80.09Z" fill="#E0E0E0"/>
<path d="M104.745 76.3175L102.705 75.138C102.484 74.9945 102.3 74.8008 102.168 74.5727C102.036 74.3446 101.96 74.0886 101.945 73.8255V20.7795C101.96 20.5163 102.036 20.2603 102.168 20.0322C102.3 19.8041 102.484 19.6105 102.705 19.467L135.605 0.47946C135.84 0.360422 136.1 0.298401 136.364 0.298401C136.628 0.298401 136.888 0.360422 137.124 0.47946L139.164 1.65896C139.385 1.80246 139.569 1.99614 139.701 2.22422C139.833 2.4523 139.91 2.70833 139.924 2.97146V56.0175C139.91 56.2806 139.833 56.5366 139.701 56.7647C139.569 56.9928 139.385 57.1865 139.164 57.33L106.264 76.3175C106.029 76.4365 105.769 76.4985 105.505 76.4985C105.241 76.4985 104.981 76.4365 104.745 76.3175Z" fill="#F0F0F0"/>
<path d="M139.91 2.97101C139.91 2.48801 139.56 2.29201 139.15 2.53351L106.25 21.521C106.025 21.6602 105.839 21.8556 105.711 22.088L102.155 20.03C102.115 20.1014 102.079 20.175 102.047 20.2505C102.174 19.9273 102.399 19.6519 102.691 19.463L135.591 0.475511C135.826 0.358109 136.086 0.296997 136.349 0.296997C136.612 0.296997 136.871 0.358109 137.106 0.475511L139.147 1.65851C139.369 1.80162 139.553 1.99513 139.686 2.22323C139.818 2.45134 139.895 2.70757 139.91 2.97101Z" fill="#FAFAFA"/>
<path d="M107.875 25.434V60.959C107.875 61.3615 108.158 61.5225 108.505 61.309L136.298 45.2615C136.482 45.1411 136.635 44.9792 136.744 44.7889C136.854 44.5986 136.917 44.3852 136.928 44.166V8.65503C136.928 8.25253 136.645 8.08803 136.298 8.30503L108.494 24.3385C108.313 24.4601 108.162 24.6225 108.055 24.8127C107.947 25.003 107.886 25.2158 107.875 25.434Z" fill="#FAFAFA"/>
<path d="M106.086 76.3975C106.044 76.4152 106.001 76.4292 105.956 76.4395L105.809 76.4745C105.607 76.5095 105.399 76.5095 105.197 76.4745L105.004 76.429L104.913 76.3975C104.855 76.375 104.799 76.348 104.745 76.317L102.705 75.1375C102.484 74.994 102.3 74.8004 102.168 74.5723C102.036 74.3442 101.96 74.0882 101.945 73.825V20.779C101.945 20.6857 101.957 20.5928 101.98 20.5025C102.02 20.3367 102.084 20.1775 102.169 20.03L105.725 22.088C105.589 22.3136 105.513 22.5703 105.505 22.8335V75.8795C105.505 76.296 105.75 76.499 106.086 76.3975Z" fill="#E0E0E0"/>
<path d="M114.182 62.9785L114.567 63.794C114.572 63.806 114.579 63.8168 114.588 63.8258C114.597 63.8349 114.608 63.8419 114.62 63.8466C114.631 63.8512 114.644 63.8533 114.657 63.8527C114.67 63.852 114.682 63.8488 114.693 63.843L115.551 63.514C115.687 63.4615 115.743 63.654 115.645 63.8395L115.022 65.005C114.985 65.0736 114.969 65.1513 114.973 65.229L115.12 66.279C115.145 66.447 115.001 66.6675 114.879 66.65L114.112 66.5555C114.081 66.5562 114.05 66.5649 114.023 66.5808C113.997 66.5968 113.974 66.6194 113.958 66.6465L113.188 67.6265C113.066 67.784 112.926 67.728 112.947 67.532L113.094 66.307C113.102 66.2775 113.102 66.2465 113.094 66.217C113.086 66.1875 113.07 66.1606 113.048 66.139L112.425 65.691C112.327 65.6175 112.38 65.362 112.516 65.257L113.377 64.5955C113.437 64.5457 113.48 64.4784 113.5 64.403L113.885 63.143C113.948 62.9505 114.123 62.849 114.182 62.9785Z" fill="#37474F"/>
<path d="M118.518 60.476L118.903 61.2915C118.907 61.3033 118.914 61.3141 118.923 61.3231C118.931 61.3322 118.942 61.3392 118.953 61.3439C118.965 61.3485 118.977 61.3506 118.99 61.3501C119.002 61.3495 119.015 61.3462 119.026 61.3405L119.887 61.0115C120.023 60.959 120.076 61.1515 119.978 61.337L119.344 62.5025C119.303 62.5696 119.286 62.6485 119.295 62.7265L119.442 63.7765C119.463 63.941 119.323 64.1615 119.201 64.1475L118.431 64.053C118.4 64.0542 118.37 64.0628 118.343 64.078C118.316 64.0932 118.294 64.1147 118.277 64.1405L117.51 65.124C117.388 65.2815 117.244 65.2255 117.269 65.0295L117.416 63.8045C117.422 63.7746 117.421 63.7437 117.412 63.7144C117.404 63.6851 117.388 63.6583 117.367 63.6365L116.747 63.1885C116.646 63.115 116.702 62.8595 116.838 62.7545L117.696 62.093C117.757 62.0434 117.801 61.9761 117.822 61.9005L118.207 60.6405C118.294 60.448 118.459 60.35 118.518 60.476Z" fill="#37474F"/>
<path d="M122.847 57.9735L123.229 58.789C123.233 58.8009 123.24 58.8117 123.249 58.8208C123.258 58.8298 123.269 58.8369 123.281 58.8415C123.293 58.8461 123.306 58.8482 123.318 58.8476C123.331 58.847 123.343 58.8437 123.355 58.838L124.212 58.509C124.349 58.4565 124.405 58.649 124.307 58.8345L123.694 60C123.657 60.0686 123.64 60.1462 123.645 60.224L123.792 61.274C123.817 61.442 123.673 61.6625 123.551 61.6485L122.784 61.554C122.753 61.5549 122.723 61.5633 122.696 61.5786C122.67 61.5938 122.647 61.6154 122.63 61.6415L121.86 62.625C121.738 62.779 121.598 62.7265 121.619 62.5305L121.766 61.3055C121.774 61.276 121.773 61.2449 121.765 61.2154C121.757 61.186 121.742 61.1591 121.72 61.1375L121.097 60.7C120.999 60.6265 121.052 60.371 121.188 60.266L122.049 59.6045C122.108 59.5533 122.152 59.4866 122.175 59.412L122.557 58.152C122.62 57.9455 122.795 57.844 122.847 57.9735Z" fill="#37474F"/>
<path d="M127.192 55.471L127.577 56.2865C127.582 56.2981 127.589 56.3086 127.598 56.3174C127.607 56.3261 127.618 56.333 127.629 56.3376C127.641 56.3421 127.654 56.3443 127.666 56.344C127.679 56.3436 127.691 56.3407 127.703 56.3355L128.56 56.0065C128.697 55.954 128.749 56.1465 128.651 56.332L128.032 57.4975C127.993 57.5655 127.976 57.6436 127.983 57.7215L128.13 58.7715C128.154 58.9395 128.011 59.16 127.888 59.146L127.122 59.0515C127.09 59.0522 127.06 59.0605 127.032 59.0757C127.005 59.091 126.981 59.1127 126.964 59.139L126.198 60.1225C126.075 60.2765 125.932 60.2205 125.956 60.028L126.103 58.803C126.111 58.7732 126.11 58.742 126.101 58.7125C126.093 58.683 126.077 58.6563 126.054 58.635L125.435 58.1835C125.333 58.1135 125.389 57.858 125.526 57.753L126.383 57.0915C126.443 57.0413 126.487 56.9743 126.509 56.899L126.894 55.639C126.954 55.45 127.132 55.3415 127.192 55.471Z" fill="#37474F"/>
<path d="M131.529 52.9685L131.91 53.784C131.915 53.7956 131.922 53.8061 131.931 53.8148C131.94 53.8236 131.951 53.8304 131.963 53.835C131.975 53.8396 131.987 53.8418 132 53.8414C132.012 53.8411 132.025 53.8382 132.036 53.833L132.894 53.504C133.03 53.4515 133.086 53.644 132.988 53.826L132.365 54.995C132.328 55.0632 132.312 55.1414 132.32 55.219L132.467 56.269C132.488 56.437 132.344 56.6575 132.225 56.6435L131.455 56.549C131.424 56.5499 131.394 56.5583 131.367 56.5736C131.34 56.5888 131.318 56.6104 131.301 56.6365L130.531 57.62C130.412 57.774 130.269 57.718 130.293 57.5255L130.437 56.3005C130.444 56.2709 130.444 56.2399 130.436 56.2104C130.428 56.181 130.413 56.1541 130.391 56.1325L129.768 55.681C129.67 55.611 129.726 55.3555 129.863 55.2505L130.72 54.589C130.779 54.5378 130.823 54.4711 130.846 54.3965L131.228 53.1365C131.291 52.9405 131.466 52.839 131.529 52.9685Z" fill="#37474F"/>
<mask id="mask0_2090_1426" style="mask-type:luminance" maskUnits="userSpaceOnUse" x="107" y="8" width="30" height="54">
<path d="M107.875 25.434V60.959C107.875 61.3615 108.158 61.5225 108.505 61.309L136.298 45.2615C136.482 45.1411 136.635 44.9792 136.744 44.7889C136.854 44.5986 136.917 44.3852 136.928 44.166V8.65503C136.928 8.25253 136.645 8.08803 136.298 8.30503L108.494 24.3385C108.313 24.4601 108.162 24.6225 108.055 24.8127C107.947 25.003 107.886 25.2158 107.875 25.434Z" fill="white"/>
</mask>
<g mask="url(#mask0_2090_1426)">
<path d="M127.578 28.752C128.299 28.626 129.269 28.8185 130.518 29.9945C131.6 31.013 133.644 34.4465 133.969 35.0555C134.295 35.6645 129.195 44.5335 129.195 44.5335L128.264 42.0835L130.924 35.7345L128.397 32.987L127.578 28.752Z" fill="#9A4A4D"/>
<path d="M126.344 28.5805C126.344 28.5805 128.069 28.276 129.392 28.878C130.267 29.2735 133.592 32.6825 134.121 33.456C134.649 34.2295 134.495 34.4605 134.254 35.1325C134.086 35.6015 133.82 36.0496 132.7 38.2581C131.979 39.6791 130.488 42.241 130.488 42.241L128.902 40.7255L130.778 35.8255L128.395 32.9835L126.344 28.5805Z" fill="#407BFF"/>
<path opacity="0.1" d="M126.344 28.5805C126.344 28.5805 128.069 28.276 129.392 28.878C130.267 29.2735 133.592 32.6825 134.121 33.456C134.649 34.2295 134.495 34.4605 134.254 35.1325C134.086 35.6015 133.82 36.0496 132.7 38.2581C131.979 39.6791 130.488 42.241 130.488 42.241L128.902 40.7255L130.778 35.8255L128.395 32.9835L126.344 28.5805Z" fill="black"/>
<path d="M118.068 47.211C118.068 49.3985 117.918 62.1455 117.918 62.1455C117.862 62.7825 117.256 64.0075 117.218 66.286C117.148 69.583 117.655 77.241 117.655 77.241C117.655 77.241 118.768 77.6925 120.207 76.842C120.207 76.842 122.006 65.5685 122.415 62.2435C122.765 59.3385 124.183 52.468 124.183 52.468L125.761 60.8295C125.499 62.0417 125.402 63.2839 125.474 64.522C125.583 66.006 126.976 73.3035 126.976 73.3035C126.976 73.3035 128.054 73.8425 129.622 73.0375C129.622 73.0375 129.758 61.1795 129.786 59.7935C129.814 58.2115 129.128 44.789 129.128 44.789L118.068 47.211Z" fill="#37474F"/>
<path d="M124 51.537C125.204 50.9471 126.287 50.1362 127.192 49.1465C127.192 49.1465 126.576 50.4065 124.742 51.803L125.645 60.1855L124 51.537Z" fill="#263238"/>
<path d="M122.043 29.7285C121.263 30.054 119.691 30.586 119.338 32.203C118.914 34.142 118.778 38.2265 118.778 38.2265L118.648 47.288C120.227 48.1595 126.019 47.764 129.341 44.754C129.341 44.754 128.931 33.974 128.931 32.287C128.931 30.6 127.993 28.7345 125.403 29.039L122.043 29.7285Z" fill="#F5F5F5"/>
<path d="M125.35 28.871C126.068 29.3514 126.592 30.0706 126.83 30.901C127.145 32.2135 127.18 47.463 127.18 47.463C127.18 47.463 128.801 46.875 129.56 46.147C129.56 46.147 129.462 34.121 129.308 32.147C129.074 29.1685 129.098 28.297 125.336 28.647L125.35 28.871Z" fill="#407BFF"/>
<path d="M121.355 29.3505C121.355 29.3505 123.511 30.299 123.536 35.5805C123.557 40.1305 123.711 48.0755 123.711 48.0755C123.711 48.0755 120.137 49.2305 117.873 48.2785C117.873 48.2785 117.603 37.2465 117.645 35.521C117.694 33.5505 118.153 30.929 118.783 30.565C119.613 30.105 120.472 29.6993 121.355 29.3505Z" fill="#407BFF"/>
<path opacity="0.1" d="M121.117 32.2835L122.108 33.3335L121.614 34.814L122.913 37.915L121.345 34.8595L121.894 33.449L121.117 32.2835Z" fill="black"/>
<path opacity="0.1" d="M128.089 30.6595L127.875 31.965L128.729 32.9275L127.539 36.886L128.46 33.015L127.672 32.112L128.089 30.6595Z" fill="black"/>
<path d="M127.872 23.4919C129.154 22.0919 129.241 20.0851 128.066 19.0094C126.891 17.9337 124.9 18.1966 123.618 19.5966C122.336 20.9965 122.249 23.0034 123.424 24.0791C124.599 25.1547 126.59 24.8918 127.872 23.4919Z" fill="#263238"/>
<path d="M120.305 24.7445C120.305 24.7445 120.816 27.051 121.005 27.408C121.074 27.5159 121.166 27.6073 121.274 27.6756C121.382 27.744 121.504 27.7877 121.631 27.8035L121.596 26.1235L120.305 24.7445Z" fill="#263238"/>
<path d="M120.946 21.199C120.756 21.2137 120.571 21.2669 120.403 21.3553C120.234 21.4438 120.085 21.5657 119.966 21.7135C119.546 22.2175 119.78 23.5195 120.316 24.7445L121.275 24.685L120.946 21.199Z" fill="#263238"/>
<path d="M121.552 24.65C121.359 24.797 121.083 24.475 120.852 24.2685C120.621 24.062 119.84 23.859 119.452 24.7445C119.063 25.63 119.802 26.6135 120.404 26.6975C121.454 26.841 121.615 26.1375 121.615 26.1375L121.692 30.0365C122.42 30.8415 124.054 31.65 124.936 31.3385C125.636 31.09 125.79 29.8755 125.118 29.2175V28.0625C125.59 28.0521 126.059 27.9923 126.518 27.884C127.292 27.6285 127.778 26.932 128.013 26.05C128.391 24.65 128.534 23.5265 128.216 20.9365C127.866 18.098 124.488 18.665 122.668 20.1315C120.848 21.598 121.552 24.65 121.552 24.65Z" fill="#B16668"/>
<path d="M121.552 24.9581C121.454 24.9791 121.087 24.4331 120.852 24.2581C120.502 24.0166 120.95 21.2026 120.95 21.2026C120.833 20.9554 120.792 20.6789 120.832 20.4083C120.873 20.1378 120.993 19.8854 121.178 19.6836C121.633 19.0991 122.27 18.3781 124.328 18.2556C125.801 18.1716 127.404 18.3466 128.699 17.4821C128.807 17.9261 128.793 18.3912 128.657 18.8276C128.522 19.264 128.27 19.6555 127.929 19.9601C127.411 20.3096 126.835 20.5644 126.228 20.7126C125.109 20.9964 123.965 21.1768 122.812 21.2516C122.462 21.2516 122.378 21.6226 122.186 22.6061C122.018 23.4636 121.878 24.8951 121.552 24.9581Z" fill="#263238"/>
<path d="M120.947 21.4091L119.781 20.989C119.849 20.8201 119.976 20.6817 120.138 20.5998C120.301 20.5179 120.487 20.4983 120.663 20.5446C120.742 20.5788 120.813 20.6294 120.871 20.6929C120.928 20.7565 120.972 20.8315 120.999 20.9132C121.026 20.9949 121.035 21.0813 121.026 21.1667C121.017 21.2522 120.99 21.3348 120.947 21.4091Z" fill="#263238"/>
<path d="M125.113 28.0485C125.113 28.0485 123.384 28.003 122.778 27.7895C122.429 27.6697 122.133 27.4289 121.945 27.1105C122.032 27.4394 122.194 27.7438 122.418 27.9995C122.862 28.486 125.113 28.507 125.113 28.507V28.0485Z" fill="#9A4A4D"/>
<path d="M124.7 23.6491C124.699 23.7484 124.663 23.8441 124.599 23.9205C124.536 23.9968 124.448 24.0492 124.35 24.0691C124.307 24.0783 124.262 24.0773 124.218 24.0662C124.175 24.0551 124.135 24.0342 124.101 24.0051C124.067 23.976 124.041 23.9394 124.023 23.8983C124.006 23.8572 123.998 23.8126 124 23.7681C124.002 23.6687 124.038 23.573 124.102 23.4967C124.165 23.4203 124.253 23.3679 124.35 23.3481C124.394 23.3388 124.439 23.3398 124.483 23.3509C124.526 23.362 124.566 23.3829 124.6 23.412C124.634 23.4412 124.66 23.4777 124.678 23.5188C124.695 23.5599 124.703 23.6045 124.7 23.6491Z" fill="#263238"/>
<path d="M124.326 22.4066L123.584 22.9456C123.535 22.8383 123.526 22.7171 123.558 22.6036C123.59 22.4902 123.661 22.3918 123.759 22.3261C123.8 22.2897 123.848 22.2627 123.9 22.2469C123.952 22.2311 124.007 22.2268 124.061 22.2345C124.115 22.2422 124.167 22.2615 124.213 22.2913C124.258 22.321 124.297 22.3603 124.326 22.4066Z" fill="#263238"/>
<path d="M124.943 25.994L125.734 26.1515C125.699 26.2635 125.626 26.3597 125.528 26.4236C125.429 26.4875 125.312 26.515 125.195 26.5015C125.143 26.4881 125.095 26.4637 125.053 26.4298C125.011 26.396 124.977 26.3535 124.953 26.3054C124.929 26.2573 124.916 26.2045 124.914 26.1508C124.913 26.0971 124.922 26.0436 124.943 25.994Z" fill="#9A4A4D"/>
<path d="M127.785 22.0845L127.109 21.6855C127.164 21.584 127.255 21.5071 127.364 21.4707C127.474 21.4342 127.593 21.441 127.697 21.4895C127.742 21.5227 127.78 21.5644 127.809 21.6124C127.838 21.6603 127.857 21.7135 127.865 21.7688C127.873 21.8241 127.87 21.8805 127.857 21.9347C127.843 21.9889 127.818 22.0398 127.785 22.0845Z" fill="#263238"/>
<path d="M127.575 23.0435C127.572 23.1425 127.536 23.2376 127.473 23.3137C127.409 23.3898 127.322 23.4425 127.225 23.4635C127.182 23.4727 127.137 23.4718 127.093 23.4607C127.05 23.4496 127.01 23.4287 126.976 23.3995C126.942 23.3704 126.916 23.3339 126.898 23.2928C126.881 23.2517 126.873 23.2071 126.875 23.1625C126.877 23.063 126.912 22.967 126.976 22.8905C127.04 22.814 127.128 22.7618 127.225 22.7425C127.269 22.7333 127.314 22.7343 127.358 22.7454C127.401 22.7565 127.441 22.7774 127.475 22.8065C127.509 22.8356 127.535 22.8722 127.553 22.9133C127.57 22.9544 127.578 22.9989 127.575 23.0435Z" fill="#263238"/>
<path d="M125.812 23.026L125.924 25.0875L127.013 24.524L125.812 23.026Z" fill="#9A4A4D"/>
<path d="M126.186 30.8625C125.972 31.405 125.58 31.678 124.873 31.8845C124.54 31.9759 124.191 31.9919 123.85 31.9313C123.51 31.8708 123.188 31.7352 122.906 31.5345L123.792 30.4845L124.912 31.132L125.006 30.173L126.186 30.8625Z" fill="#407BFF"/>
<path opacity="0.1" d="M126.186 30.8625C125.972 31.405 125.58 31.678 124.873 31.8845C124.54 31.9759 124.191 31.9919 123.85 31.9313C123.51 31.8708 123.188 31.7352 122.906 31.5345L123.792 30.4845L124.912 31.132L125.006 30.173L126.186 30.8625Z" fill="black"/>
<path d="M125.644 30.684C125.749 30.9812 125.789 31.2976 125.76 31.6115C125.723 31.9137 125.615 32.2028 125.445 32.455C125.34 32.5428 125.218 32.6074 125.086 32.6448C124.955 32.6822 124.817 32.6915 124.682 32.672C124.45 32.5085 124.263 32.2904 124.136 32.037C124.009 31.7836 123.946 31.5028 123.954 31.2195L124.927 31.16L125.644 30.684Z" fill="#407BFF"/>
<path d="M125.434 32.455C125.434 32.455 126.585 38.5975 126.631 39.105C126.676 39.6125 125.969 41.555 125.532 41.646C125.094 41.737 124.233 40.246 124.219 39.7805C124.205 39.315 124.671 32.6755 124.671 32.6755L125.434 32.455Z" fill="#407BFF"/>
<path opacity="0.1" d="M124.667 32.672C124.802 32.7041 124.943 32.701 125.077 32.663C125.21 32.625 125.332 32.5534 125.43 32.455L125.447 32.5495C125.345 32.6538 125.221 32.7344 125.085 32.7858C124.948 32.8372 124.802 32.8581 124.656 32.847L124.667 32.672Z" fill="black"/>
<path d="M124.915 31.1601L121.674 29.2631V28.5316C121.674 28.5316 120.922 28.9516 120.75 30.3096C121.265 31.3604 122.173 32.1664 123.277 32.5531L123.956 31.2196L124.915 31.1601Z" fill="#E0E0E0"/>
<path d="M125.113 28.2585C125.311 28.2526 125.508 28.2907 125.69 28.37C125.871 28.4492 126.033 28.5678 126.163 28.717C126.489 29.1965 126.415 31.251 126.415 31.251L125.645 30.684L124.945 31.16C125.012 30.46 125.145 29.2035 125.145 29.2035L125.113 28.2585Z" fill="#E0E0E0"/>
<path d="M116.352 47.0501C116.618 47.2811 116.821 47.561 117.325 48.0545C117.549 48.3088 117.817 48.521 118.116 48.6811C118.51 48.8641 118.931 48.9823 119.362 49.0311C119.945 49.0874 120.532 48.9909 121.067 48.7511C121.379 48.6119 121.661 48.4121 121.896 48.163C122.131 47.9166 122.284 47.6036 122.334 47.267C122.35 47.2063 122.35 47.1423 122.334 47.0815C122.288 46.98 122.169 46.9486 122.064 46.9241C121.439 46.8308 120.82 46.7023 120.209 46.539C119.726 46.3675 119.422 46.189 119.509 46.119C119.597 46.049 119.884 46.182 120.36 46.119C120.836 46.056 121.263 45.699 121.245 45.447C121.228 45.195 121.224 45.2441 120.759 45.2476C120.255 45.1872 119.747 45.1603 119.24 45.167C118.8 45.22 118.354 45.1855 117.927 45.0656C116.968 44.8556 114.301 41.2821 114.301 41.2821L118.932 35.2481C118.932 35.2481 120.09 32.798 118.753 30.7505C118.753 30.7505 118.162 30.9115 117.003 32.1505C115.845 33.3895 111.298 41.1 111.004 41.5515C110.71 42.003 110.791 42.6016 111.333 43.1511C111.876 43.7006 116.352 47.0501 116.352 47.0501Z" fill="#9A4A4D"/>
<path d="M118.996 30.4495C118.996 30.4495 120.525 32.959 118.996 35.3495C117.466 37.74 114.558 41.219 114.558 41.219L117.092 44.4915L115.667 46.5425C115.667 46.5425 111.18 43.3925 110.816 42.997C110.452 42.6015 110.4 42.388 110.816 41.3765C111.233 40.365 116.35 31.0305 118.996 30.4495Z" fill="#407BFF"/>
<path opacity="0.1" d="M118.996 30.4495C118.996 30.4495 120.525 32.959 118.996 35.3495C117.466 37.74 114.558 41.219 114.558 41.219L117.092 44.4915L115.667 46.5425C115.667 46.5425 111.18 43.3925 110.816 42.997C110.452 42.6015 110.4 42.388 110.816 41.3765C111.233 40.365 116.35 31.0305 118.996 30.4495Z" fill="black"/>
</g>
<path d="M52.1516 109.392L50.1111 108.212C49.89 108.069 49.706 107.875 49.5741 107.647C49.4421 107.419 49.3658 107.163 49.3516 106.9V53.854C49.3653 53.5903 49.4413 53.3335 49.5733 53.1048C49.7053 52.8761 49.8896 52.6818 50.1111 52.538L83.0111 33.5505C83.2465 33.4315 83.5067 33.3694 83.7706 33.3694C84.0344 33.3694 84.2946 33.4315 84.5301 33.5505L86.5706 34.73C86.7916 34.8735 86.9756 35.0672 87.1076 35.2953C87.2395 35.5233 87.3158 35.7794 87.3301 36.0425V89.0885C87.3158 89.3516 87.2395 89.6077 87.1076 89.8357C86.9756 90.0638 86.7916 90.2575 86.5706 90.401L53.6706 109.392C53.4351 109.511 53.1749 109.573 52.9111 109.573C52.6472 109.573 52.387 109.511 52.1516 109.392Z" fill="#407BFF"/>
<path d="M49.375 53.574C49.3931 53.4962 49.4177 53.4201 49.4485 53.3465C49.4172 53.42 49.3926 53.4961 49.375 53.574Z" fill="#407BFF"/>
<path opacity="0.4" d="M87.3021 36.046C87.3021 35.5595 86.9521 35.3635 86.5426 35.605L53.6426 54.5925C53.4185 54.7337 53.2332 54.9286 53.1036 55.1595L49.5616 53.105C49.5213 53.1764 49.4851 53.25 49.4531 53.3255C49.5796 53.0018 49.805 52.7262 50.0971 52.538L82.9971 33.5505C83.232 33.4315 83.4916 33.3695 83.7549 33.3695C84.0182 33.3695 84.2778 33.4315 84.5126 33.5505L86.5531 34.73C86.7727 34.875 86.9549 35.0698 87.085 35.2984C87.2152 35.5271 87.2896 35.7832 87.3021 36.046Z" fill="white"/>
<path d="M55.2734 58.5055V94.0305C55.2734 94.433 55.5569 94.5975 55.9069 94.3805L83.6969 78.333C83.88 78.213 84.0324 78.0516 84.1418 77.862C84.2512 77.6723 84.3146 77.4596 84.3269 77.241V41.73C84.3269 41.324 84.0469 41.163 83.6969 41.3625L55.9069 57.41C55.7227 57.5301 55.5694 57.6918 55.4593 57.8821C55.3493 58.0724 55.2856 58.286 55.2734 58.5055Z" fill="#FAFAFA"/>
<path opacity="0.1" d="M53.4781 109.469L53.3486 109.514L53.2051 109.546C53.0012 109.581 52.7929 109.581 52.5891 109.546C52.5242 109.534 52.4599 109.519 52.3966 109.5L52.3056 109.469C52.2477 109.448 52.1916 109.422 52.1376 109.392L50.0971 108.212C49.8788 108.067 49.6977 107.873 49.5682 107.645C49.4388 107.417 49.3646 107.162 49.3516 106.9V53.8505C49.3513 53.7572 49.3631 53.6643 49.3866 53.574C49.4273 53.4096 49.4909 53.2517 49.5756 53.105L53.1316 55.1595C52.9955 55.3863 52.9196 55.6441 52.9111 55.9085V108.951C52.8971 109.367 53.1421 109.57 53.4781 109.469Z" fill="black"/>
<path d="M61.5834 96.05L61.9649 96.8655C61.9694 96.8774 61.9764 96.8883 61.9854 96.8973C61.9943 96.9064 62.0051 96.9134 62.017 96.9181C62.0289 96.9227 62.0416 96.9248 62.0543 96.9241C62.0671 96.9235 62.0795 96.9203 62.0909 96.9145L62.9484 96.5855C63.0849 96.533 63.1409 96.7255 63.0429 96.911L62.4199 98.0765C62.3822 98.1448 62.3663 98.223 62.3744 98.3005L62.5214 99.3505C62.5424 99.5185 62.3989 99.739 62.2799 99.725L61.5099 99.627C61.4788 99.6286 61.4485 99.6377 61.4217 99.6536C61.3949 99.6694 61.3723 99.6915 61.3559 99.718L60.5859 100.702C60.4669 100.856 60.3234 100.8 60.3479 100.607L60.4914 99.382C60.4994 99.352 60.4994 99.3203 60.4915 99.2902C60.4835 99.2601 60.4678 99.2327 60.4459 99.2105L59.8229 98.7625C59.7249 98.6925 59.7809 98.437 59.9174 98.332L60.7749 97.6705C60.8347 97.6185 60.8784 97.5505 60.9009 97.4745L61.2824 96.218C61.3454 96.022 61.5204 95.9205 61.5834 96.05Z" fill="#455A64"/>
<path d="M65.9168 93.5475L66.3018 94.363C66.3063 94.3749 66.3133 94.3857 66.3223 94.3948C66.3313 94.4038 66.342 94.4109 66.3539 94.4155C66.3658 94.4201 66.3785 94.4222 66.3912 94.4216C66.404 94.421 66.4164 94.4177 66.4278 94.412L67.2853 94.083C67.4218 94.0305 67.4778 94.223 67.3763 94.4085L66.7568 95.574C66.7199 95.6426 66.7029 95.7202 66.7078 95.798L66.8548 96.848C66.8793 97.016 66.7358 97.2365 66.6133 97.219L65.8468 97.1245C65.8156 97.1258 65.7852 97.1347 65.7584 97.1506C65.7315 97.1665 65.709 97.1888 65.6928 97.2155L64.9228 98.1955C64.8003 98.353 64.6568 98.297 64.6813 98.101L64.8283 96.876C64.8364 96.8462 64.8361 96.8147 64.8274 96.7851C64.8188 96.7555 64.8021 96.7288 64.7793 96.708L64.1598 96.26C64.0618 96.19 64.1143 95.9345 64.2508 95.8295L65.1048 95.175C65.1636 95.1228 65.2062 95.0547 65.2273 94.979L65.6123 93.719C65.6788 93.5195 65.8573 93.418 65.9168 93.5475Z" fill="#455A64"/>
<path d="M70.2475 91.045L70.6325 91.8605C70.6366 91.8723 70.6432 91.8831 70.6518 91.8921C70.6605 91.9012 70.671 91.9082 70.6826 91.9129C70.6942 91.9175 70.7066 91.9196 70.7191 91.919C70.7316 91.9185 70.7438 91.9152 70.755 91.9095L71.616 91.5805C71.7525 91.528 71.805 91.7205 71.707 91.906L71.084 93.0715C71.0463 93.1398 71.0304 93.2179 71.0385 93.2955L71.1855 94.3455C71.2065 94.5135 71.0665 94.734 70.944 94.7165L70.174 94.622C70.1428 94.6236 70.1126 94.6327 70.0858 94.6485C70.0589 94.6644 70.0363 94.6865 70.02 94.713L69.2535 95.693C69.131 95.8505 68.9875 95.7945 69.012 95.5985L69.159 94.3735C69.1653 94.3436 69.1641 94.3127 69.1555 94.2834C69.147 94.2541 69.1313 94.2273 69.11 94.2055L68.487 93.7575C68.389 93.6875 68.445 93.432 68.5815 93.327L69.439 92.662C69.5015 92.6139 69.5459 92.546 69.565 92.4695L69.95 91.2095C69.999 91.017 70.1845 90.9155 70.2475 91.045Z" fill="#455A64"/>
<path d="M74.5809 88.5425L74.9659 89.358C74.9704 89.3699 74.9774 89.3808 74.9864 89.3898C74.9953 89.3989 75.0061 89.4059 75.018 89.4105C75.0299 89.4152 75.0426 89.4172 75.0553 89.4166C75.068 89.416 75.0805 89.4127 75.0919 89.407L75.9494 89.078C76.0859 89.0255 76.1419 89.218 76.0439 89.4035L75.4209 90.569C75.3839 90.6376 75.3669 90.7152 75.3719 90.793L75.5189 91.843C75.5434 92.011 75.3999 92.2315 75.2774 92.214L74.5109 92.1195C74.4795 92.1201 74.4489 92.1288 74.4219 92.1448C74.3949 92.1607 74.3725 92.1834 74.3569 92.2105L73.5869 93.1905C73.4644 93.348 73.3244 93.292 73.3454 93.096L73.4924 91.871C73.5001 91.8415 73.5 91.8104 73.492 91.781C73.484 91.7515 73.4685 91.7246 73.4469 91.703L72.8239 91.255C72.7259 91.1815 72.7784 90.9295 72.9149 90.8245L73.7759 90.1595C73.8346 90.1086 73.8772 90.0417 73.8984 89.967L74.2834 88.707C74.3464 88.5145 74.5214 88.413 74.5809 88.5425Z" fill="#455A64"/>
<path d="M78.9184 86.04L79.3034 86.8555C79.3075 86.8673 79.3141 86.8781 79.3227 86.8871C79.3314 86.8962 79.3419 86.9032 79.3535 86.9079C79.3651 86.9125 79.3776 86.9146 79.39 86.9141C79.4025 86.9135 79.4147 86.9102 79.4259 86.9045L80.2869 86.5755C80.4234 86.523 80.4759 86.7155 80.3779 86.901L79.7584 88.0665C79.7174 88.1336 79.7001 88.2125 79.7094 88.2905L79.8564 89.3405C79.8774 89.5085 79.7374 89.729 79.6149 89.7115L78.8449 89.617C78.8137 89.6183 78.7833 89.6273 78.7564 89.6431C78.7295 89.659 78.707 89.6813 78.6909 89.708L77.9244 90.688C77.8019 90.8455 77.6584 90.7895 77.6829 90.5935L77.8299 89.3685C77.8362 89.3386 77.835 89.3077 77.8264 89.2784C77.8179 89.2491 77.8022 89.2223 77.7809 89.2005L77.1614 88.7525C77.0599 88.679 77.1159 88.427 77.2524 88.3185L78.1099 87.657C78.1707 87.6073 78.2147 87.5401 78.2359 87.4645L78.6209 86.2045C78.6804 86.012 78.8589 85.9 78.9184 86.04Z" fill="#455A64"/>
<mask id="mask1_2090_1426" style="mask-type:luminance" maskUnits="userSpaceOnUse" x="55" y="41" width="30" height="54">
<path d="M55.2734 58.5055V94.0305C55.2734 94.433 55.5569 94.5975 55.9069 94.3805L83.6969 78.333C83.88 78.213 84.0324 78.0516 84.1418 77.862C84.2512 77.6723 84.3146 77.4596 84.3269 77.241V41.73C84.3269 41.324 84.0469 41.163 83.6969 41.3625L55.9069 57.41C55.7227 57.5301 55.5694 57.6918 55.4593 57.8821C55.3493 58.0724 55.2856 58.286 55.2734 58.5055Z" fill="white"/>
</mask>
<g mask="url(#mask1_2090_1426)">
<path d="M72.3281 63.5C73.9941 63.318 74.7396 63.3145 75.8526 64.3505C76.8396 65.264 79.5136 68.1515 79.8321 68.6905C80.1506 69.2295 75.5516 78.081 75.5516 78.081L74.6346 75.8235L76.8151 70.283L73.2451 67.5845L72.3281 63.5Z" fill="#FFA8A7"/>
<path d="M65.3934 55.7616L64.1719 55.3241C64.242 55.1441 64.3764 54.9966 64.549 54.9099C64.7216 54.8233 64.9202 54.8038 65.1064 54.8551C65.1883 54.8918 65.2615 54.9454 65.3213 55.0125C65.381 55.0795 65.4259 55.1584 65.453 55.244C65.4801 55.3296 65.4888 55.42 65.4785 55.5092C65.4682 55.5983 65.4392 55.6844 65.3934 55.7616Z" fill="#263238"/>
<path d="M65.4076 55.4011L65.0156 54.1411C65.0892 54.0924 65.1729 54.0612 65.2604 54.0497C65.3478 54.0382 65.4368 54.0468 65.5204 54.0748C65.6041 54.1028 65.6803 54.1495 65.7432 54.2113C65.8061 54.2731 65.8541 54.3484 65.8836 54.4316C65.9248 54.6232 65.9003 54.823 65.8139 54.9989C65.7276 55.1749 65.5844 55.3165 65.4076 55.4011Z" fill="#263238"/>
<path d="M75.1293 62.576L68.9553 63.6646C66.4668 64.1056 64.4473 62.443 64.4473 59.951V58.8556C64.3668 55.9191 66.7083 53.0491 69.6588 52.4471C72.6093 51.8451 75.0663 53.7386 75.1468 56.6786L75.1293 62.576Z" fill="#263238"/>
<path d="M73.0073 54.1585C72.9111 54.9255 72.6599 55.6649 72.2687 56.3316C71.8776 56.9983 71.3549 57.5784 70.7323 58.0365C69.1188 59.265 67.8903 59.468 67.8903 59.468C67.8903 59.468 67.4808 58.012 68.6428 56.0485C69.8048 54.085 71.1663 53.5355 71.9993 53.553C72.2097 53.5347 72.4205 53.5834 72.6016 53.6922C72.7826 53.8009 72.9247 53.9642 73.0073 54.1585Z" fill="#407BFF"/>
<path d="M64.9598 79.3445C63.9098 82.3335 64.7358 87.104 65.0823 90.8245C65.3868 94.062 65.7823 96.792 65.7823 96.792C65.3632 98.0984 65.1703 99.4667 65.2118 100.838C65.2573 103.4 66.1533 110.4 66.1533 110.4C66.5655 110.554 67.01 110.6 67.4449 110.534C67.8798 110.468 68.2906 110.291 68.6383 110.022C68.6383 110.022 68.9883 105.7 69.3383 102.697C69.6883 99.5465 69.8248 97.2995 70.1398 95.448C70.5353 93.1415 70.7768 85.9735 70.7768 85.9735L72.5548 93.25C72.0339 94.4328 71.6102 95.656 71.2878 96.9075C70.8188 98.808 70.1398 106.417 70.1398 106.417C70.445 106.704 70.8223 106.903 71.2316 106.992C71.6409 107.082 72.0668 107.058 72.4638 106.925C72.4638 106.925 76.3453 94.839 76.7688 93.5895C77.3568 91.878 76.1773 81.2485 75.8518 77.759L64.9598 79.3445Z" fill="#37474F"/>
<path d="M70.7734 85.9666L70.9169 84.1221C71.9524 83.9544 72.9214 83.5038 73.7169 82.8201C73.1638 83.567 72.4205 84.152 71.5644 84.5141L71.3894 86.2046L72.1664 91.7031L70.7734 85.9666Z" fill="#263238"/>
<path d="M67.8729 64.8686C67.2769 65.0526 66.6925 65.2723 66.1229 65.5266C67.0504 67.5461 65.8009 70.5771 65.8009 70.5771L67.0609 74.8471C65.9935 76.1415 65.271 77.6851 64.9609 79.3341C65.7519 80.1076 70.6029 81.4096 75.8494 77.7591C75.8494 77.7591 75.3699 74.3991 75.1494 72.4006C75.9369 68.9706 75.7409 68.2986 75.5169 67.4691C74.8834 65.1346 74.2114 64.8441 72.3074 63.5106L71.1489 63.7136L67.8729 64.8686Z" fill="#407BFF"/>
<g opacity="0.1">
<path d="M66.3359 72.3936L68.9084 75.3616L67.0604 74.8471L66.3359 72.3936Z" fill="black"/>
</g>
<path d="M73.0122 54.1586C73.5862 54.3756 74.3212 55.6461 74.3352 58.6211C74.3352 61.1446 73.5442 61.9286 73.1382 62.1911C72.7322 62.4536 71.9377 62.5061 71.1642 62.5411V63.7171C71.1642 63.7171 72.5642 64.8546 72.5117 65.5616C72.4592 66.2686 70.7372 66.9301 69.7117 66.4576C69.0061 66.0832 68.3779 65.5784 67.8602 64.9701L67.7482 61.3756C67.7482 61.3756 67.3072 61.9041 66.5197 61.3931C66.3618 61.2996 66.2248 61.1744 66.1176 61.0253C66.0104 60.8763 65.9352 60.7067 65.8967 60.5272C65.8582 60.3477 65.8574 60.1622 65.8941 59.9823C65.9309 59.8024 66.0044 59.6321 66.1102 59.4821C66.5932 58.8836 67.5102 58.8346 67.8777 59.4821C67.8777 59.4821 69.1062 59.2756 70.7162 58.0506C71.3435 57.5921 71.8707 57.0105 72.2655 56.3413C72.6603 55.6721 72.9144 54.9294 73.0122 54.1586Z" fill="#FFA8A7"/>
<path d="M71.1879 58.7051C71.1927 58.7952 71.1665 58.8843 71.1137 58.9576C71.0608 59.0308 70.9845 59.0837 70.8974 59.1076C70.858 59.1207 70.8161 59.1244 70.775 59.1184C70.7339 59.1125 70.6948 59.0969 70.6608 59.0731C70.6268 59.0493 70.5988 59.0179 70.5791 58.9813C70.5594 58.9447 70.5486 58.9041 70.5474 58.8626C70.5426 58.7724 70.5688 58.6833 70.6217 58.6101C70.6745 58.5368 70.7508 58.4839 70.8379 58.4601C70.8773 58.4469 70.9193 58.4432 70.9603 58.4492C71.0014 58.4552 71.0406 58.4707 71.0746 58.4945C71.1086 58.5183 71.1366 58.5498 71.1563 58.5863C71.1759 58.6229 71.1868 58.6635 71.1879 58.7051Z" fill="#263238"/>
<path d="M71.3323 60.8156L72.0743 60.8996C72.0472 61.003 71.9856 61.0941 71.8997 61.1578C71.8138 61.2215 71.7087 61.2538 71.6018 61.2496C71.5548 61.2402 71.5103 61.2213 71.4709 61.194C71.4316 61.1667 71.3982 61.1316 71.373 61.091C71.3477 61.0503 71.3311 61.0049 71.3241 60.9575C71.3171 60.9101 71.3199 60.8618 71.3323 60.8156Z" fill="#F28F8F"/>
<path d="M73.7639 57.2L73.1094 56.8885C73.1552 56.7926 73.2349 56.717 73.3331 56.6762C73.4313 56.6355 73.5411 56.6326 73.6414 56.668C73.6852 56.6942 73.7233 56.7289 73.7533 56.7701C73.7833 56.8113 73.8047 56.8582 73.8162 56.9079C73.8276 56.9576 73.8289 57.0091 73.8199 57.0593C73.8109 57.1095 73.7919 57.1574 73.7639 57.2Z" fill="#263238"/>
<path d="M70.5873 57.4906L70.1043 58.0296C70.0246 57.9593 69.9742 57.8616 69.9632 57.7559C69.9522 57.6503 69.9813 57.5443 70.0448 57.4591C70.0816 57.4238 70.1253 57.3965 70.1731 57.3789C70.221 57.3613 70.272 57.3537 70.3229 57.3566C70.3738 57.3596 70.4235 57.373 70.469 57.3961C70.5145 57.4191 70.5548 57.4513 70.5873 57.4906Z" fill="#263238"/>
<path d="M73.6366 57.9771C73.6406 58.0676 73.6136 58.1567 73.5602 58.2299C73.5068 58.303 73.43 58.3558 73.3426 58.3796C73.3032 58.3935 73.2611 58.3978 73.2197 58.3922C73.1783 58.3865 73.1388 58.3711 73.1046 58.3471C73.0703 58.3232 73.0423 58.2914 73.0228 58.2544C73.0034 58.2174 72.993 58.1763 72.9926 58.1346C72.9885 58.0445 73.0149 57.9557 73.0677 57.8826C73.1204 57.8096 73.1963 57.7565 73.2831 57.7321C73.3227 57.719 73.3648 57.7154 73.406 57.7214C73.4473 57.7273 73.4866 57.7428 73.5209 57.7666C73.5551 57.7903 73.5834 57.8217 73.6035 57.8582C73.6236 57.8947 73.6349 57.9354 73.6366 57.9771Z" fill="#263238"/>
<path d="M72.1953 57.9316L72.2338 59.9896L73.2313 59.4751L72.1953 57.9316Z" fill="#F28F8F"/>
<path d="M71.1626 62.5375C70.3506 62.597 68.6671 62.457 68.3906 61.855C68.5 62.1601 68.7164 62.4151 68.9996 62.5725C69.5071 62.898 71.1696 63.045 71.1696 63.045L71.1626 62.5375Z" fill="#F28F8F"/>
<path d="M63.9545 80.8565C64.203 81.0245 64.3885 81.2521 64.854 81.6266C65.0634 81.8242 65.3112 81.9767 65.582 82.0745C65.957 82.1752 66.3463 82.2119 66.7335 82.183C67.2927 82.1332 67.8317 81.9495 68.305 81.6475C68.5967 81.4658 68.8559 81.2362 69.0715 80.9685C69.284 80.7099 69.424 80.3995 69.4775 80.069C69.492 80.014 69.492 79.9561 69.4775 79.901C69.4355 79.817 69.327 79.8065 69.2255 79.7995C68.6544 79.8145 68.0829 79.7958 67.514 79.7435C67.073 79.6665 66.7895 79.537 66.884 79.467C66.9785 79.397 67.234 79.467 67.668 79.3165C68.102 79.166 68.501 78.7811 68.4835 78.5536C68.466 78.3261 68.466 78.368 68.0355 78.4485C67.5655 78.4765 67.0979 78.535 66.6355 78.6235C66.2433 78.7409 65.8321 78.7813 65.4245 78.7425C64.539 78.704 62.2185 75.7045 62.2185 75.7045L65.8025 70.577C65.8025 70.577 67.36 67.1856 66.1245 65.5266C65.0446 65.8879 64.1193 66.6048 63.4995 67.56C62.4215 69.142 59.072 75.106 58.792 75.561C58.6483 75.7913 58.5994 76.0684 58.6555 76.3339C58.7116 76.5995 58.8684 76.8331 59.093 76.9855C59.59 77.409 63.9545 80.8565 63.9545 80.8565Z" fill="#FFA8A7"/>
</g>
<path d="M11.2609 80.5555L9.22044 79.376C8.99954 79.2315 8.81571 79.0371 8.68378 78.8085C8.55184 78.5799 8.47551 78.3235 8.46094 78.06V25.0175C8.47551 24.7539 8.55184 24.4975 8.68378 24.2689C8.81571 24.0403 8.99954 23.8459 9.22044 23.7015L42.1204 4.71398C42.3553 4.59497 42.6149 4.53296 42.8782 4.53296C43.1415 4.53296 43.4011 4.59497 43.6359 4.71398L45.6799 5.89348C45.9004 6.03812 46.0837 6.23262 46.215 6.46124C46.3463 6.68986 46.422 6.94618 46.4359 7.20948V60.252C46.4218 60.5152 46.346 60.7714 46.2147 61C46.0833 61.2286 45.9002 61.4231 45.6799 61.568L12.7799 80.5555C12.5445 80.6745 12.2843 80.7365 12.0204 80.7365C11.7566 80.7365 11.4964 80.6745 11.2609 80.5555Z" fill="#37474F"/>
<path d="M8.49219 24.7375C8.51243 24.6604 8.53696 24.5844 8.56569 24.51C8.53489 24.5837 8.5103 24.6598 8.49219 24.7375Z" fill="#407BFF"/>
<path d="M46.4244 7.20947C46.4244 6.72297 46.0744 6.50947 45.6649 6.77197L12.7649 25.756C12.5495 25.8999 12.3728 26.0946 12.2504 26.323L8.69094 24.2685C8.65035 24.3392 8.61524 24.4129 8.58594 24.489C8.71087 24.1654 8.9351 23.8897 9.22644 23.7015L42.1264 4.71398C42.3618 4.59657 42.6212 4.53546 42.8842 4.53546C43.1472 4.53546 43.4066 4.59657 43.6419 4.71398L45.6824 5.89348C45.9011 6.03885 46.0822 6.23383 46.2112 6.46253C46.3401 6.69123 46.4132 6.94717 46.4244 7.20947Z" fill="#455A64"/>
<path d="M14.3906 29.669V65.194C14.3906 65.5965 14.6741 65.761 15.0241 65.544L42.8141 49.5C42.9983 49.38 43.1517 49.2182 43.2617 49.0279C43.3718 48.8376 43.4355 48.624 43.4476 48.4045V12.8935C43.4476 12.491 43.1641 12.3265 42.8141 12.5435L15.0241 28.5875C14.8418 28.7061 14.6896 28.8657 14.5796 29.0534C14.4696 29.2411 14.4049 29.4519 14.3906 29.669Z" fill="#FAFAFA"/>
<path d="M12.5979 80.65C12.5573 80.6688 12.5152 80.684 12.4719 80.6955L12.3249 80.727C12.1223 80.762 11.9151 80.762 11.7124 80.727C11.6475 80.7171 11.5832 80.703 11.5199 80.685L11.4289 80.65C11.3697 80.6292 11.3123 80.6035 11.2574 80.573L9.21694 79.3935C8.99669 79.2486 8.81354 79.0541 8.68223 78.8255C8.55092 78.5969 8.47512 78.3407 8.46094 78.0775V25.0175C8.46072 24.9231 8.47248 24.829 8.49594 24.7375C8.53663 24.5731 8.60026 24.4152 8.68494 24.2685L12.2479 26.323C12.1097 26.549 12.0325 26.8071 12.0239 27.072V80.118C12.0169 80.531 12.2479 80.7375 12.5979 80.65Z" fill="#263238"/>
<path d="M20.7006 67.217L21.0856 68.0325C21.0902 68.0439 21.097 68.0543 21.1057 68.0631C21.1145 68.0718 21.1249 68.0787 21.1363 68.0833C21.1478 68.0878 21.16 68.09 21.1724 68.0897C21.1847 68.0894 21.1969 68.0866 21.2081 68.0815L22.0691 67.7525C22.2056 67.7 22.2581 67.889 22.1601 68.0745L21.5371 69.2435C21.4994 69.3117 21.4835 69.3899 21.4916 69.4675L21.6386 70.5175C21.6596 70.6855 21.5196 70.906 21.3971 70.892L20.6271 70.7975C20.5962 70.7984 20.566 70.8068 20.5392 70.8221C20.5124 70.8373 20.4897 70.8589 20.4731 70.885L19.7066 71.8685C19.5841 72.0225 19.4406 71.9665 19.4651 71.774L19.6121 70.549C19.6184 70.5191 19.6172 70.4881 19.6086 70.4588C19.6001 70.4295 19.5844 70.4028 19.5631 70.381L18.9401 69.9295C18.8421 69.8595 18.8981 69.604 19.0346 69.499L19.8921 68.8375C19.9522 68.7872 19.9961 68.7202 20.0181 68.645L20.4031 67.385C20.4626 67.189 20.6481 67.0875 20.7006 67.217Z" fill="#407BFF"/>
<path d="M25.034 64.7145L25.419 65.53C25.4239 65.5416 25.4312 65.5521 25.4402 65.5608C25.4492 65.5696 25.46 65.5764 25.4717 65.581C25.4834 65.5856 25.496 65.5877 25.5086 65.5874C25.5211 65.5871 25.5335 65.5842 25.545 65.579L26.4025 65.2465C26.539 65.1975 26.595 65.3865 26.497 65.572L25.874 66.741C25.8367 66.8095 25.8197 66.8872 25.825 66.965L25.972 68.015C25.9965 68.183 25.853 68.4035 25.7305 68.3895L24.964 68.295C24.9329 68.2949 24.9024 68.3029 24.8754 68.3183C24.8484 68.3336 24.8258 68.3558 24.81 68.3825L24.04 69.366C23.9175 69.52 23.7775 69.464 23.7985 69.2715L23.9455 68.0465C23.9529 68.0164 23.9525 67.9849 23.9446 67.9549C23.9366 67.925 23.9213 67.8975 23.9 67.875L23.277 67.427C23.179 67.357 23.2315 67.1015 23.368 66.9965L24.229 66.335C24.289 66.2837 24.3317 66.2153 24.3515 66.139L24.7365 64.8825C24.7995 64.6865 24.9745 64.5815 25.034 64.7145Z" fill="#407BFF"/>
<path d="M29.3715 62.2085L29.7565 63.024C29.7606 63.0358 29.7672 63.0466 29.7759 63.0556C29.7845 63.0646 29.795 63.0717 29.8066 63.0763C29.8182 63.081 29.8307 63.0831 29.8432 63.0825C29.8557 63.0819 29.8679 63.0787 29.879 63.073L30.74 62.744C30.8765 62.6915 30.929 62.884 30.831 63.0695L30.2115 64.235C30.1705 64.302 30.1532 64.3809 30.1625 64.459L30.3095 65.509C30.3305 65.677 30.1905 65.8975 30.068 65.8835L29.298 65.7855C29.267 65.7876 29.237 65.7969 29.2102 65.8127C29.1835 65.8285 29.1608 65.8504 29.144 65.8765L28.3775 66.86C28.255 67.014 28.1115 66.958 28.136 66.7655L28.283 65.5405C28.2896 65.5101 28.2885 65.4785 28.28 65.4486C28.2715 65.4187 28.2556 65.3913 28.234 65.369L27.6145 64.921C27.513 64.851 27.569 64.5955 27.7055 64.4905L28.563 63.829C28.6239 63.7779 28.6678 63.7096 28.689 63.633L29.074 62.3765C29.1335 62.1805 29.312 62.079 29.3715 62.2085Z" fill="#407BFF"/>
<path d="M33.7094 59.706L34.0909 60.5215C34.0954 60.5334 34.1024 60.5442 34.1114 60.5533C34.1203 60.5623 34.1311 60.5694 34.143 60.574C34.1549 60.5786 34.1676 60.5807 34.1803 60.5801C34.193 60.5795 34.2055 60.5762 34.2169 60.5705L35.0744 60.2415C35.2109 60.189 35.2669 60.3815 35.1689 60.567L34.5459 61.75C34.5089 61.8186 34.4919 61.8962 34.4969 61.974L34.6439 63.024C34.6684 63.192 34.5249 63.4125 34.4024 63.3985L33.6359 63.3005C33.6048 63.302 33.5745 63.3111 33.5477 63.327C33.5208 63.3428 33.4983 63.365 33.4819 63.3915L32.7119 64.3715C32.5929 64.529 32.4494 64.473 32.4704 64.277L32.6174 63.052C32.6251 63.0224 32.625 62.9914 32.617 62.9619C32.609 62.9324 32.5935 62.9056 32.5719 62.884L31.9489 62.436C31.8509 62.366 31.9034 62.1105 32.0399 62.0055L32.9009 61.344C32.9607 61.2919 33.0044 61.224 33.0269 61.148L33.4084 59.8915C33.4714 59.678 33.6464 59.5765 33.7094 59.706Z" fill="#407BFF"/>
<path d="M38.0418 57.2L38.4268 58.0155C38.4313 58.0274 38.4383 58.0382 38.4473 58.0473C38.4563 58.0563 38.467 58.0634 38.4789 58.068C38.4908 58.0726 38.5035 58.0747 38.5162 58.0741C38.529 58.0735 38.5414 58.0702 38.5528 58.0645L39.4103 57.7355C39.5468 57.683 39.5993 57.8755 39.5013 58.061L38.8818 59.2265C38.8431 59.2945 38.826 59.3726 38.8328 59.4505L38.9798 60.5005C39.0043 60.6685 38.8608 60.889 38.7383 60.8715L37.9718 60.777C37.9402 60.7786 37.9095 60.7877 37.8821 60.8035C37.8547 60.8193 37.8315 60.8414 37.8143 60.868L37.0478 61.848C36.9253 62.0055 36.7818 61.9495 36.8063 61.7535L36.9533 60.5285C36.9606 60.4987 36.9599 60.4674 36.9513 60.4379C36.9427 60.4084 36.9265 60.3817 36.9043 60.3605L36.2848 59.9125C36.1868 59.8425 36.2393 59.587 36.3758 59.482L37.2333 58.817C37.2958 58.7689 37.3402 58.701 37.3593 58.6245L37.7443 57.3645C37.8003 57.1755 37.9823 57.074 38.0418 57.2Z" fill="#407BFF"/>
<mask id="mask2_2090_1426" style="mask-type:luminance" maskUnits="userSpaceOnUse" x="14" y="12" width="30" height="54">
<path d="M14.3906 29.669V65.194C14.3906 65.5965 14.6741 65.761 15.0241 65.544L42.8141 49.5C42.9983 49.38 43.1517 49.2182 43.2617 49.0279C43.3718 48.8376 43.4355 48.624 43.4476 48.4045V12.8935C43.4476 12.491 43.1641 12.3265 42.8141 12.5435L15.0241 28.5875C14.8418 28.7061 14.6896 28.8657 14.5796 29.0534C14.4696 29.2411 14.4049 29.4519 14.3906 29.669Z" fill="white"/>
</mask>
<g mask="url(#mask2_2090_1426)">
<path d="M31.6719 33.6275C32.8479 33.484 33.7334 33.2775 34.6364 34.5445C35.5394 35.8115 38.9729 39.2975 39.3089 39.931C39.6449 40.5645 34.9934 49.5875 34.9934 49.5875L34.0204 47.0255L36.4004 40.9005L32.5504 38.0235L31.6719 33.6275Z" fill="#9A4A4D"/>
<path d="M31.6719 33.6275C32.3043 33.3789 32.9994 33.3385 33.6564 33.512C34.6154 33.827 37.9229 37.712 38.4899 38.524C39.0569 39.336 39.4629 39.6475 39.4244 40.141C39.3859 40.6345 38.8749 41.7405 37.9789 43.6935C37.2789 45.195 36.0014 47.6835 36.0014 47.6835L34.7729 45.16L36.2324 40.9985L32.5434 38.0235L31.6719 33.6275Z" fill="#E6E6E6"/>
<path d="M25.0465 49.4265C23.1845 53.588 25.022 67.7175 25.022 67.7175C24.9555 68.358 24.2065 69.709 23.8775 72.5265C23.4855 75.8585 23.8215 84.178 23.8215 84.178C23.8215 84.178 25.379 84.5945 26.646 83.8C26.646 83.8 28.8825 70.9655 29.3655 67.6405C29.789 64.739 30.622 58.3725 30.622 58.3725L32.372 67.168C32.0638 68.1167 31.8297 69.088 31.672 70.073C31.4445 72.019 32.813 80.6745 32.813 80.6745C33.7142 80.8829 34.6594 80.7792 35.494 80.3805C35.494 80.3805 36.306 68.4315 36.544 66.0935C36.922 62.1665 35.802 50.2875 35.41 47.8305L25.0465 49.4265Z" fill="#407BFF"/>
<path d="M27.5391 34.4255C26.9406 34.6005 25.5511 35.0905 25.5511 35.0905C24.6271 35.591 24.7286 36.1405 24.4731 37.068C24.1616 38.2195 24.3646 40.1375 24.7391 41.149L26.5206 46C25.8556 47.729 25.2151 48.3135 24.8931 49.5945C27.8086 51.243 34.0771 50.0075 35.4246 47.9495C35.4806 47.5505 34.9661 43.2 34.7526 41.2645C35.6626 39.455 36.0091 38.2125 35.5331 37.033C34.7176 35.0135 32.4846 33.386 31.4241 33.659L27.5391 34.4255Z" fill="#F0F0F0"/>
<path d="M29.3554 32.2485L28.4734 32.4025C25.9114 32.854 23.8359 31.146 23.8359 28.584C23.8359 26.0115 25.9359 23.5545 28.4979 23.0995L29.3274 22.956C31.9034 22.501 33.9894 24.2195 33.9894 26.806C33.9894 29.354 31.9139 31.797 29.3554 32.2485Z" fill="#263238"/>
<path d="M33.5385 28.7282C34.9797 27.1543 35.0778 24.8985 33.7577 23.6897C32.4376 22.4809 30.1991 22.7768 28.7579 24.3507C27.3167 25.9246 27.2186 28.1804 28.5387 29.3892C29.8588 30.598 32.0973 30.3021 33.5385 28.7282Z" fill="#263238"/>
<path d="M21.4609 35.773C22.2459 35.6166 22.955 35.1996 23.4734 34.5898C23.9918 33.9799 24.289 33.2129 24.3169 32.413V26.2915C23.532 26.4479 22.8229 26.8649 22.3045 27.4747C21.7861 28.0846 21.4889 28.8516 21.4609 29.6515V35.773Z" fill="#263238"/>
<path d="M32.4703 24.0935C33.0303 24.3245 33.7233 25.609 33.6533 28.5735C33.5973 31.083 32.7853 31.846 32.3793 32.0945C31.9733 32.343 31.1858 32.3745 30.4228 32.3815V33.883L31.6758 37.432L27.2973 34.8315V31.2055C27.1539 31.421 26.9372 31.577 26.6874 31.6446C26.4376 31.7122 26.1717 31.6868 25.9393 31.573C25.0958 31.1635 25.0643 29.781 25.5543 29.2C26.0443 28.619 27.0978 28.5875 27.3043 29.2385C27.3043 29.2385 28.0043 29.0285 29.6003 27.7895C31.7843 26.05 32.3863 25.273 32.4703 24.0935Z" fill="#B16668"/>
<path d="M30.5832 28.5C30.5846 28.5901 30.5556 28.678 30.5011 28.7497C30.4465 28.8214 30.3694 28.8728 30.2822 28.8955C30.2433 28.905 30.2028 28.9055 30.1636 28.8972C30.1244 28.8888 30.0877 28.8717 30.0561 28.8471C30.0244 28.8226 29.9988 28.7912 29.9809 28.7553C29.9631 28.7194 29.9537 28.68 29.9532 28.64C29.9512 28.5506 29.9796 28.4632 30.0336 28.3921C30.0876 28.3209 30.1641 28.2701 30.2507 28.248C30.2896 28.2372 30.3305 28.2356 30.3701 28.2432C30.4098 28.2507 30.4471 28.2674 30.4793 28.2918C30.5114 28.3161 30.5376 28.3476 30.5556 28.3837C30.5736 28.4198 30.5831 28.4596 30.5832 28.5Z" fill="#263238"/>
<path d="M30.9477 30.5439L31.6757 30.6454C31.6503 30.7505 31.5887 30.8433 31.5016 30.9073C31.4145 30.9714 31.3075 31.0026 31.1997 30.9954C31.1523 30.9843 31.1078 30.9634 31.0689 30.9341C31.0301 30.9049 30.9978 30.8678 30.9741 30.8253C30.9504 30.7828 30.9358 30.7358 30.9312 30.6874C30.9267 30.639 30.9323 30.5901 30.9477 30.5439Z" fill="#9A4A4D"/>
<path d="M33.1604 27.065L32.5234 26.736C32.571 26.6429 32.6514 26.571 32.7491 26.5341C32.8469 26.4972 32.9548 26.498 33.0519 26.5365C33.0949 26.563 33.132 26.5981 33.1609 26.6395C33.1898 26.6809 33.21 26.7278 33.2201 26.7773C33.2303 26.8268 33.2302 26.8778 33.22 26.9273C33.2097 26.9768 33.1894 27.0236 33.1604 27.065Z" fill="#263238"/>
<path d="M33.0094 27.8315C33.0121 27.921 32.984 28.0087 32.9299 28.08C32.8757 28.1513 32.7988 28.202 32.7119 28.2235C32.6733 28.2336 32.6328 28.2348 32.5936 28.2269C32.5544 28.219 32.5175 28.2023 32.4858 28.178C32.4541 28.1537 32.4283 28.1224 32.4105 28.0866C32.3926 28.0509 32.3832 28.0115 32.3829 27.9715C32.3808 27.8817 32.409 27.7938 32.463 27.7221C32.5169 27.6503 32.5936 27.5988 32.6804 27.576C32.7194 27.5658 32.7602 27.5647 32.7996 27.5728C32.8391 27.5809 32.8761 27.5979 32.9079 27.6226C32.9397 27.6473 32.9654 27.679 32.983 27.7152C33.0006 27.7515 33.0097 27.7912 33.0094 27.8315Z" fill="#263238"/>
<path d="M31.4766 27.9225L31.5291 29.8055L32.5231 29.3225L31.4766 27.9225Z" fill="#9A4A4D"/>
<path d="M30.4191 32.3815C29.6141 32.42 27.9691 32.2345 27.7031 31.6255C27.8034 31.9308 28.0094 32.1902 28.2841 32.357C28.7776 32.707 30.4191 32.882 30.4191 32.882V32.3815Z" fill="#9A4A4D"/>
<path opacity="0.1" d="M30.625 58.3725L31.5315 53.798C31.5315 53.798 33.432 53.1435 34.44 52.2475C33.8696 53.0386 33.1354 53.6976 32.2875 54.1795L31.2375 58.5265L31.4965 62.8L30.625 58.3725Z" fill="black"/>
<path d="M27.2969 29.9V28.465L27.8464 28.367V29.235C27.8422 29.3913 27.7858 29.5417 27.6862 29.6622C27.5866 29.7827 27.4496 29.8664 27.2969 29.9Z" fill="#263238"/>
<path d="M24.2114 26.526L23.7109 25.546C23.7667 25.5027 23.831 25.4717 23.8997 25.4551C23.9683 25.4384 24.0396 25.4365 24.1091 25.4494C24.1785 25.4623 24.2444 25.4897 24.3024 25.5299C24.3605 25.5701 24.4094 25.6221 24.4459 25.6825L24.4774 25.7455C24.5343 25.8858 24.5387 26.042 24.4899 26.1853C24.441 26.3286 24.3422 26.4496 24.2114 26.526Z" fill="#263238"/>
<path d="M31.6703 37.432L27.2918 34.0195V33.477C27.2918 33.477 26.6618 33.694 26.5078 34.919C26.9696 35.8647 27.7878 36.5885 28.7828 36.9315L29.3008 36.354L31.6703 37.432Z" fill="#E0E0E0"/>
<path d="M30.4176 33.05C30.7552 33.1445 31.0611 33.3283 31.3031 33.582C31.6531 33.953 32.3531 35.647 32.3531 35.647L31.8771 35.892L31.6671 37.425L30.4141 33.876L30.4176 33.05Z" fill="#E0E0E0"/>
<path d="M23.115 51.131C23.3775 51.3585 23.5735 51.6315 24.0705 52.118C24.2901 52.3663 24.552 52.5737 24.844 52.7305C25.2297 52.9048 25.641 53.0159 26.062 53.0595C26.6331 53.1136 27.2084 53.0183 27.7315 52.783C28.0376 52.6474 28.3136 52.4523 28.5435 52.209C28.773 51.9667 28.9232 51.6602 28.974 51.3305C28.9874 51.2882 28.9902 51.2433 28.9821 51.1997C28.974 51.1561 28.9553 51.1152 28.9276 51.0806C28.8999 51.046 28.8641 51.0188 28.8234 51.0013C28.7826 50.9838 28.7382 50.9767 28.694 50.9805C28.0815 50.8913 27.4748 50.765 26.8775 50.6025C26.405 50.438 26.1075 50.2525 26.209 50.193C26.3105 50.1335 26.559 50.256 27.0385 50.193C27.518 50.13 27.924 49.78 27.9065 49.535C27.889 49.29 27.8855 49.3355 27.4305 49.339C26.9368 49.2818 26.44 49.2561 25.943 49.262C25.5126 49.3127 25.0763 49.2794 24.6585 49.164C23.7205 48.9575 21.1095 45.4575 21.1095 45.4575L25.6385 39.5495C25.6385 39.5495 26.776 37.1415 25.467 35.15C25.467 35.15 24.886 35.304 23.752 36.508C22.618 37.712 18.194 45.3175 17.879 45.748C17.564 46.1785 17.6725 46.77 18.201 47.316C18.7295 47.862 23.115 51.131 23.115 51.131Z" fill="#9A4A4D"/>
<path d="M25.5453 35.0905C25.5453 35.0905 27.2008 37.3375 25.7168 39.686C24.2328 42.0345 21.3733 45.4295 21.3733 45.4295L23.8548 48.6355L22.4548 50.6445C22.4548 50.6445 18.0623 47.5505 17.7018 47.1725C17.3413 46.7945 17.2958 46.5775 17.7018 45.5835C18.1078 44.5895 23.2458 35.15 25.5453 35.0905Z" fill="#E6E6E6"/>
</g>
</svg>
