<svg width="122" height="134" viewBox="0 0 122 134" fill="none" xmlns="http://www.w3.org/2000/svg">
<path opacity="0.2" d="M113.93 22.2672C112.107 22.41 110.278 22.451 108.451 22.3901C107.805 22.2518 107.142 22.2103 106.484 22.2672H106.282C101.127 21.8896 96.0267 20.9684 91.0655 19.5189C90.5563 19.3696 90.0294 19.194 89.4938 19.0096L85.2266 129.529L113.745 110.502C115.034 109.655 116.104 108.515 116.867 107.175C117.631 105.835 118.065 104.333 118.136 102.792L120.998 28.9052C121.039 27.9853 120.88 27.0674 120.533 26.2145C120.186 25.3616 119.659 24.5936 118.988 23.9633C118.317 23.3329 117.517 22.855 116.644 22.5623C115.771 22.2696 114.845 22.1689 113.93 22.2672Z" fill="black"/>
<path d="M107.05 14.0224C105.231 14.1683 103.405 14.2122 101.58 14.1541C100.934 14.0172 100.272 13.9728 99.6135 14.0224H99.4027C94.2504 13.6483 89.1525 12.727 84.1951 11.2741C77.9788 9.34156 72.2505 6.09562 67.3981 1.75618C66.2195 0.621034 64.6443 -0.00906616 63.0079 9.85916e-05H55.5622C53.8933 0.0122391 52.2872 0.637208 51.049 1.75618C45.8985 6.08258 39.9247 9.32039 33.4882 11.2741C28.4575 12.7206 23.2904 13.6416 18.0698 14.0224H17.8591C17.1976 13.9728 16.5325 14.0172 15.8835 14.1541C14.062 14.2123 12.2386 14.1684 10.4221 14.0224C9.48657 13.9509 8.54623 14.0675 7.65654 14.3654C6.76685 14.6632 5.94585 15.1363 5.242 15.7567C4.53814 16.3771 3.9657 17.1322 3.55846 17.9774C3.15123 18.8226 2.91744 19.7409 2.87091 20.678L0.00850473 94.5739C-0.0567014 96.0699 0.253869 97.5584 0.911854 98.9035C1.56984 100.249 2.55427 101.407 3.77529 102.274L45.1749 131.39C46.6999 132.46 48.519 133.03 50.3817 133.023H57.8187C59.7202 133.016 61.5773 132.448 63.1572 131.39L106.805 102.274C108.09 101.426 109.157 100.287 109.92 98.9489C110.683 97.611 111.12 96.1121 111.195 94.5739L114.048 20.678C114.086 19.7643 113.928 18.8532 113.585 18.0056C113.242 17.1579 112.721 16.3934 112.059 15.7633C111.396 15.1331 110.606 14.6518 109.743 14.3515C108.879 14.0513 107.961 13.9391 107.05 14.0224Z" fill="#407BFF"/>
<path opacity="0.8" d="M107.05 14.0224C105.231 14.1683 103.405 14.2122 101.58 14.1541C100.934 14.0172 100.272 13.9728 99.6135 14.0224H99.4027C94.2504 13.6483 89.1525 12.727 84.1951 11.2741C77.9788 9.34156 72.2505 6.09562 67.3981 1.75618C66.2195 0.621034 64.6443 -0.00906616 63.0079 9.85916e-05H55.5622C53.8933 0.0122391 52.2872 0.637208 51.049 1.75618C45.8985 6.08258 39.9247 9.32039 33.4882 11.2741C28.4575 12.7206 23.2904 13.6416 18.0698 14.0224H17.8591C17.1976 13.9728 16.5325 14.0172 15.8835 14.1541C14.062 14.2123 12.2386 14.1684 10.4221 14.0224C9.48657 13.9509 8.54623 14.0675 7.65654 14.3654C6.76685 14.6632 5.94585 15.1363 5.242 15.7567C4.53814 16.3771 3.9657 17.1322 3.55846 17.9774C3.15123 18.8226 2.91744 19.7409 2.87091 20.678L0.00850473 94.5739C-0.0567014 96.0699 0.253869 97.5584 0.911854 98.9035C1.56984 100.249 2.55427 101.407 3.77529 102.274L45.1749 131.39C46.6999 132.46 48.519 133.03 50.3817 133.023H57.8187C59.7202 133.016 61.5773 132.448 63.1572 131.39L106.805 102.274C108.09 101.426 109.157 100.287 109.92 98.9489C110.683 97.611 111.12 96.1121 111.195 94.5739L114.048 20.678C114.086 19.7643 113.928 18.8532 113.585 18.0056C113.242 17.1579 112.721 16.3934 112.059 15.7633C111.396 15.1331 110.606 14.6518 109.743 14.3515C108.879 14.0513 107.961 13.9391 107.05 14.0224Z" fill="white"/>
<path d="M4.84716 94.4334L7.57787 23.7774C7.63839 22.482 8.19253 21.2589 9.12652 20.3592C10.0605 19.4595 11.3035 18.9515 12.6003 18.9394H14.2071C21.1549 18.8531 28.0585 17.8192 34.7269 15.8663C41.0696 13.944 47.017 10.9019 52.2877 6.88393C53.1557 6.17652 54.2411 5.79022 55.3608 5.79022C56.4806 5.79022 57.566 6.17652 58.434 6.88393C63.436 10.9273 69.1638 13.979 75.3099 15.8751C81.898 17.8378 88.7277 18.8722 95.6015 18.9482H97.0854C97.7249 18.9427 98.3588 19.0678 98.9483 19.3159C99.5378 19.564 100.07 19.9298 100.513 20.391C100.957 20.8522 101.301 21.399 101.525 21.9979C101.749 22.5968 101.849 23.2352 101.818 23.874L99.0873 94.4422C99.0507 95.2372 98.8273 96.0124 98.4352 96.7049C98.0432 97.3975 97.4935 97.988 96.8307 98.4285L53.4555 127.404C52.6506 127.953 51.699 128.246 50.7248 128.246C49.7506 128.246 48.799 127.953 47.9941 127.404L6.84909 98.4285C6.20582 97.9852 5.685 97.3865 5.33501 96.688C4.98502 95.9896 4.81721 95.2141 4.84716 94.4334Z" fill="#407BFF"/>
<path opacity="0.2" d="M16.8984 90.7017L19.2165 30.6349C25.4238 30.1439 31.566 29.029 37.5499 27.3072C43.6543 25.4713 49.4731 22.7939 54.8386 19.3521C59.978 22.8099 65.5994 25.4904 71.5214 27.3072C77.4169 29.0365 83.4753 30.1517 89.6002 30.6349L87.2734 90.7017L51.1508 114.795L16.8984 90.7017Z" fill="white"/>
<path opacity="0.2" d="M29.0469 84.4237L30.7239 41.0397C33.9376 40.4339 37.1775 39.67 40.3824 38.748C45.1853 37.3331 49.8401 35.4571 54.2818 33.1461C58.5762 35.4649 63.095 37.3419 67.7685 38.748C70.9411 39.667 74.1109 40.4309 77.2777 41.0397L75.6006 84.4237L51.7179 100.413L29.0469 84.4237Z" fill="white"/>
</svg>
