<svg width="24" height="24" viewBox="0 0 24 24" fill="none" xmlns="http://www.w3.org/2000/svg">
<path d="M11.625 3.00024C6.86203 3.00024 3 6.86228 3 11.6252C3 16.3882 6.86203 20.2502 11.625 20.2502C16.388 20.2502 20.25 16.3882 20.25 11.6252C20.25 6.86228 16.388 3.00024 11.625 3.00024Z" stroke="white" stroke-width="1.00189" stroke-miterlimit="10"/>
<path d="M10.3125 10.3137H11.8131V15.7534" stroke="white" stroke-width="1.00189" stroke-linecap="round" stroke-linejoin="round"/>
<path d="M9.75 15.9382H13.878" stroke="white" stroke-width="1.00189" stroke-miterlimit="10" stroke-linecap="round"/>
<path d="M11.6285 6.09448C11.3868 6.09448 11.1504 6.16617 10.9495 6.30047C10.7485 6.43477 10.5918 6.62566 10.4993 6.84899C10.4068 7.07233 10.3826 7.31808 10.4297 7.55517C10.4769 7.79226 10.5933 8.01004 10.7642 8.18098C10.9352 8.35191 11.153 8.46832 11.39 8.51548C11.6271 8.56264 11.8729 8.53843 12.0962 8.44593C12.3196 8.35342 12.5104 8.19676 12.6447 7.99576C12.779 7.79477 12.8507 7.55846 12.8507 7.31672C12.8507 6.99256 12.722 6.68168 12.4927 6.45247C12.2635 6.22325 11.9526 6.09448 11.6285 6.09448Z" fill="white"/>
</svg>
