<svg width="24" height="24" viewBox="0 0 24 24" fill="none" xmlns="http://www.w3.org/2000/svg">
<path d="M11.625 3.00037C6.86203 3.00037 3 6.8624 3 11.6254C3 16.3883 6.86203 20.2504 11.625 20.2504C16.388 20.2504 20.25 16.3883 20.25 11.6254C20.25 6.8624 16.388 3.00037 11.625 3.00037Z" stroke="black" stroke-width="1.00189" stroke-miterlimit="10"/>
<path d="M10.3125 10.3136H11.8131V15.7533" stroke="black" stroke-width="1.00189" stroke-linecap="round" stroke-linejoin="round"/>
<path d="M9.75 15.9381H13.878" stroke="black" stroke-width="1.00189" stroke-miterlimit="10" stroke-linecap="round"/>
<path d="M11.6285 6.0946C11.3868 6.0946 11.1504 6.16629 10.9495 6.30059C10.7485 6.43489 10.5918 6.62578 10.4993 6.84911C10.4068 7.07245 10.3826 7.3182 10.4297 7.55529C10.4769 7.79238 10.5933 8.01017 10.7642 8.1811C10.9352 8.35203 11.153 8.46844 11.39 8.5156C11.6271 8.56276 11.8729 8.53856 12.0962 8.44605C12.3196 8.35354 12.5104 8.19688 12.6447 7.99588C12.779 7.79489 12.8507 7.55858 12.8507 7.31684C12.8507 6.99269 12.722 6.6818 12.4927 6.45259C12.2635 6.22338 11.9526 6.0946 11.6285 6.0946V6.0946Z" fill="black"/>
</svg>
