<svg width="137" height="130" viewBox="0 0 137 130" fill="none" xmlns="http://www.w3.org/2000/svg">
<path d="M34.0306 72.1288L28.0567 68.6826H27.9998C25.0251 67.0002 20.9532 67.2522 16.4423 69.8612C12.2159 72.2995 8.36338 76.3633 5.4618 81.053C2.10507 86.466 0 92.7243 0 98.3405C0 103.583 1.82872 107.281 4.79532 108.98L10.8667 112.45C13.8577 114.36 18.0922 114.19 22.7819 111.483C31.8686 106.233 39.2323 93.4802 39.2323 83.0361C39.2242 77.5174 37.2248 73.7543 34.0306 72.1288Z" fill="#4097FF"/>
<path opacity="0.1" d="M10.7448 112.377L4.79534 108.971C1.82873 107.248 0 103.566 0 98.3321C0 92.7159 2.10507 86.4576 5.4618 81.0446L11.8095 84.7101C8.45278 90.115 6.34773 96.3734 6.34773 101.981C6.33147 106.972 8.00576 110.556 10.7448 112.377Z" fill="black"/>
<path opacity="0.4" d="M33.9166 72.0636C30.9906 70.6412 27.0812 70.9988 22.7816 73.4778C18.4821 75.9567 14.7027 79.9799 11.793 84.694L5.44531 81.0284C8.34689 76.3225 12.2075 72.2668 16.4258 69.8366C20.9366 67.2276 25.0086 66.9838 27.9833 68.6581H28.0402L33.9166 72.0636Z" fill="white"/>
<path d="M19.056 104.81C18.284 104.812 17.5192 104.663 16.8046 104.371C14.6833 103.501 13.0577 101.38 12.2206 98.381C12.164 98.1382 12.2033 97.883 12.3303 97.6686C12.4573 97.4541 12.6621 97.2969 12.9022 97.2299C13.1422 97.1628 13.3989 97.1909 13.6187 97.3085C13.8384 97.426 14.0044 97.6239 14.0818 97.8608C14.7564 100.299 15.9837 101.925 17.5361 102.583C18.2953 102.836 19.1029 102.91 19.8954 102.799C20.688 102.687 21.4439 102.394 22.1038 101.941C26.062 99.657 29.6707 93.6588 31.0443 87.0266C31.0989 86.7765 31.2498 86.5579 31.4642 86.418C31.6786 86.2781 31.9394 86.2281 32.1903 86.2788C32.3147 86.3049 32.4327 86.3553 32.5376 86.427C32.6425 86.4988 32.7322 86.5905 32.8016 86.6969C32.8711 86.8033 32.9189 86.9224 32.9423 87.0473C32.9657 87.1722 32.9642 87.3005 32.938 87.4249C31.41 94.6747 27.525 101.031 23.0466 103.623C21.842 104.359 20.4666 104.768 19.056 104.81Z" fill="white"/>
<path d="M18.8657 88.7171C18.8775 89.401 18.7319 90.0784 18.4402 90.6971C18.1485 91.3158 17.7184 91.8591 17.1833 92.2851C16.2486 92.8215 15.5009 92.0982 15.5009 90.6596C15.4872 89.9766 15.632 89.2997 15.9239 88.682C16.2158 88.0643 16.6469 87.5227 17.1833 87.0997C18.1098 86.5632 18.8657 87.2866 18.8657 88.7171Z" fill="white"/>
<path d="M28.4671 83.1822C28.4789 83.8649 28.3332 84.5412 28.0415 85.1585C27.7497 85.7759 27.3196 86.3178 26.7847 86.7421C25.8581 87.2785 25.1022 86.5552 25.1022 85.1166C25.0904 84.4338 25.2361 83.7575 25.5279 83.1402C25.8196 82.5228 26.2497 81.981 26.7847 81.5566C27.7112 81.0202 28.4671 81.7517 28.4671 83.1822Z" fill="white"/>
<path opacity="0.4" d="M136.012 85.6554C135.785 84.8426 135.021 84.5582 134.118 85.0783L58.7993 128.537C58.218 128.895 57.7413 129.399 57.4175 130L53.5 127.732C53.8306 127.137 54.3058 126.634 54.8817 126.269L130.193 82.8188C130.8 82.5105 131.471 82.3497 132.152 82.3497C132.832 82.3497 133.503 82.5105 134.11 82.8188C134.604 83.137 135.027 83.5528 135.354 84.0406C135.681 84.5284 135.905 85.0779 136.012 85.6554Z" fill="white"/>
<path d="M134.266 43.6108C133.514 43.2482 132.688 43.0673 131.854 43.0828C131.019 43.0984 130.2 43.3098 129.463 43.7002L55.387 86.4599C54.674 86.9355 54.0822 87.5713 53.6588 88.3164C53.2354 89.0616 52.9922 89.8954 52.9487 90.7513V111.883C52.9165 112.729 53.1156 113.567 53.5245 114.307C53.9334 115.048 54.5365 115.663 55.269 116.086C56.0015 116.509 56.8355 116.724 57.6812 116.708C58.527 116.692 59.3524 116.446 60.0685 115.996L134.144 73.228C134.858 72.7539 135.451 72.1184 135.875 71.373C136.298 70.6276 136.541 69.793 136.582 68.9366V47.8047C136.552 46.9731 136.326 46.1604 135.924 45.432C135.521 44.7035 134.953 44.0797 134.266 43.6108Z" fill="#263238"/>
<path d="M136.575 47.3658C136.372 46.1142 135.356 45.6753 134.137 46.3824L103.251 64.2064L60.0609 89.1421C59.3293 89.6025 58.7255 90.2398 58.3053 90.9952L53.6562 88.3131C54.0713 87.5566 54.6729 86.9187 55.4037 86.46L129.479 43.7003C130.162 43.2676 130.945 43.0212 131.752 42.9855C132.559 42.9498 133.361 43.1261 134.079 43.4969C134.797 43.8676 135.405 44.4199 135.843 45.0987C136.281 45.7775 136.533 46.5591 136.575 47.3658Z" fill="#455A64"/>
<path d="M57.5625 93.4416V114.574C57.5625 116.15 58.676 116.792 60.0415 116.004L134.117 73.2362C134.831 72.762 135.424 72.1265 135.848 71.3811C136.271 70.6357 136.514 69.8011 136.555 68.9447V47.8128C136.555 46.236 135.45 45.5939 134.117 46.3823L103.232 64.2063L60.0333 89.1501C59.3134 89.6212 58.7146 90.2552 58.2853 91.0007C57.8561 91.7463 57.6084 92.5825 57.5625 93.4416Z" fill="#364B55"/>
<path d="M70.1706 90.3531L71.3816 92.9214C71.3956 92.9583 71.4172 92.9918 71.445 93.0199C71.4727 93.048 71.506 93.07 71.5427 93.0845C71.5794 93.099 71.6187 93.1058 71.6581 93.1043C71.6975 93.1028 71.7362 93.0931 71.7717 93.0759L74.4782 92.0355C74.909 91.873 75.0797 92.4825 74.7708 93.0596L72.812 96.7333C72.6943 96.9495 72.6407 97.1948 72.6576 97.4404L73.1209 100.765C73.1941 101.293 72.747 101.992 72.365 101.943L69.9267 101.642C69.8285 101.647 69.7329 101.675 69.648 101.725C69.5631 101.774 69.4914 101.844 69.4391 101.927L67.0008 105.015C66.6188 105.511 66.188 105.332 66.2449 104.723L66.7082 100.862C66.7284 100.768 66.725 100.671 66.698 100.578C66.671 100.486 66.6215 100.402 66.5538 100.334L64.595 98.9197C64.2861 98.6921 64.4568 97.8874 64.8876 97.5542L67.5941 95.4735C67.7817 95.3135 67.9175 95.1013 67.9842 94.8639L69.1952 90.8976C69.4635 90.2637 69.9755 89.9467 70.1706 90.3531Z" fill="#F0E711"/>
<path d="M83.8649 82.5099L85.0759 85.0782C85.09 85.1151 85.1116 85.1486 85.1393 85.1767C85.1671 85.2048 85.2003 85.2268 85.237 85.2413C85.2737 85.2558 85.313 85.2626 85.3524 85.2611C85.3919 85.2596 85.4306 85.2499 85.4661 85.2326L88.1726 84.2004C88.6033 84.0298 88.774 84.6393 88.4652 85.2245L86.5308 88.8982C86.4128 89.1114 86.3592 89.3542 86.3764 89.5972L86.8397 92.9296C86.9128 93.4579 86.4658 94.1487 86.0838 94.0999L83.6455 93.7992C83.5473 93.8038 83.4516 93.8321 83.3667 93.8816C83.2818 93.9311 83.2101 94.0005 83.1578 94.0837L80.7195 97.1803C80.3375 97.668 79.9068 97.4973 79.9636 96.8796L80.4269 93.019C80.4472 92.925 80.4437 92.8275 80.4167 92.7352C80.3898 92.643 80.3402 92.5589 80.2725 92.4907L78.3137 91.0764C78.0049 90.8489 78.1755 90.0442 78.6063 89.7191L81.3128 87.6303C81.5024 87.472 81.6386 87.2592 81.703 87.0207L82.914 83.0544C83.1172 82.4205 83.6699 82.1035 83.8649 82.5099Z" fill="#F0E711"/>
<path d="M97.569 74.6667L98.78 77.2432C98.7941 77.2801 98.8157 77.3136 98.8434 77.3417C98.8712 77.3698 98.9044 77.3918 98.9411 77.4063C98.9778 77.4208 99.0171 77.4275 99.0565 77.4261C99.096 77.4246 99.1347 77.4149 99.1702 77.3976L101.877 76.3573C102.307 76.1947 102.478 76.7962 102.169 77.3814L100.211 81.0551C100.092 81.2709 100.038 81.5165 100.056 81.7622L100.519 85.0864C100.593 85.6147 100.145 86.3056 99.7635 86.2649L97.3252 85.9642C97.2271 85.965 97.1309 85.9908 97.0455 86.0392C96.9602 86.0875 96.8886 86.1568 96.8375 86.2405L94.3992 89.3372C94.0172 89.8249 93.5864 89.6542 93.6433 89.0365L94.1066 85.1758C94.1262 85.0819 94.1223 84.9845 94.0954 84.8924C94.0685 84.8003 94.0193 84.7162 93.9522 84.6475L91.9934 83.2333C91.6846 83.0139 91.8553 82.2092 92.286 81.876L94.9925 79.7872C95.1821 79.6288 95.3183 79.416 95.3827 79.1776L96.5937 75.2113C96.8213 74.5855 97.3739 74.2604 97.569 74.6667Z" fill="#F0E711"/>
<path d="M111.256 66.8315L112.467 69.3998C112.481 69.4367 112.502 69.4702 112.53 69.4983C112.558 69.5264 112.591 69.5483 112.628 69.5629C112.664 69.5774 112.704 69.5841 112.743 69.5826C112.783 69.5812 112.821 69.5715 112.857 69.5542L115.563 68.5139C115.994 68.3513 116.165 68.9528 115.856 69.538L113.897 73.2117C113.779 73.4279 113.726 73.6732 113.743 73.9188L114.206 77.243C114.279 77.7713 113.832 78.4703 113.45 78.4215L111.012 78.1208C110.914 78.1254 110.818 78.1536 110.733 78.2032C110.648 78.2527 110.576 78.322 110.524 78.4053L108.086 81.4938C107.704 81.9896 107.273 81.8108 107.33 81.2012L107.793 77.3405C107.821 77.2437 107.823 77.1414 107.801 77.0433C107.778 76.9452 107.731 76.8545 107.663 76.7797L105.704 75.3655C105.395 75.1461 105.566 74.3414 105.997 74.0082L108.703 71.9275C108.891 71.7643 109.027 71.5495 109.094 71.3098L110.305 67.3435C110.508 66.742 111.06 66.4169 111.256 66.8315Z" fill="#F0E711"/>
<path d="M124.952 58.9884L126.163 61.5567C126.177 61.5936 126.198 61.6271 126.226 61.6552C126.254 61.6833 126.287 61.7053 126.324 61.7198C126.361 61.7343 126.4 61.7411 126.439 61.7396C126.479 61.7381 126.517 61.7284 126.553 61.7111L129.259 60.6708C129.69 60.5083 129.861 61.1178 129.552 61.6949L127.593 65.4011C127.476 65.6173 127.422 65.8626 127.439 66.1082L127.902 69.4324C127.975 69.9607 127.528 70.6597 127.146 70.611L124.708 70.3102C124.61 70.3148 124.514 70.3431 124.429 70.3926C124.344 70.4421 124.273 70.5115 124.22 70.5947L121.782 73.6832C121.4 74.179 120.969 74.0002 121.026 73.3906L121.489 69.53C121.51 69.436 121.506 69.3385 121.479 69.2462C121.452 69.154 121.403 69.0699 121.335 69.0017L119.376 67.5875C119.067 67.3599 119.238 66.5552 119.669 66.222L122.375 64.1413C122.565 63.983 122.701 63.7702 122.765 63.5317L123.976 59.5654C124.204 58.899 124.732 58.582 124.952 58.9884Z" fill="#F0E711"/>
<path d="M68.1238 76.8287L64.06 74.488C63.9793 74.452 63.9113 74.3925 63.8649 74.3173L63.1172 73.0168L65.5555 71.627L65.4823 71.8383L68.1238 76.8287Z" fill="#4097FF"/>
<path opacity="0.2" d="M68.1238 76.8287L64.06 74.488C63.9793 74.452 63.9113 74.3925 63.8649 74.3173L63.1172 73.0168L65.5555 71.627L65.4823 71.8383L68.1238 76.8287Z" fill="black"/>
<path d="M65.1719 71.822L67.984 76.6986C68.0233 76.769 68.0822 76.8263 68.1536 76.8637C68.225 76.9011 68.3057 76.9169 68.3859 76.9091C68.4661 76.9014 68.5423 76.8704 68.6052 76.82C68.668 76.7696 68.7149 76.702 68.7399 76.6255L71.7065 68.067L65.1719 71.822Z" fill="#4097FF"/>
<path d="M136.108 3.86649C136.071 3.1862 135.875 2.52417 135.535 1.93396C135.194 1.34374 134.72 0.841929 134.15 0.469117C133.543 0.160733 132.872 0 132.191 0C131.51 0 130.839 0.160733 130.232 0.469117L54.8885 43.9278C54.3182 44.3006 53.8438 44.8024 53.5035 45.3927C53.1632 45.9829 52.9666 46.6449 52.9297 47.3252V72.1146C52.9666 72.7949 53.1632 73.4569 53.5035 74.0471C53.8438 74.6373 54.3182 75.1392 54.8885 75.512C55.4954 75.8204 56.1665 75.9811 56.8472 75.9811C57.528 75.9811 58.1991 75.8204 58.806 75.512L134.304 31.9232C136.068 30.9235 136.084 29.9157 136.084 28.6722L136.108 3.86649Z" fill="#4097FF"/>
<path opacity="0.2" d="M52.9297 72.1145C52.9666 72.7948 53.1632 73.4569 53.5035 74.0471C53.8438 74.6373 54.3182 75.1391 54.8885 75.5119C55.4396 75.7935 56.0447 75.9537 56.663 75.9817C57.2813 76.0098 57.8984 75.905 58.4728 75.6745C57.5543 76.024 56.8472 75.5038 56.8472 74.3822V49.5846C56.871 48.9011 57.0697 48.2351 57.4243 47.6502L53.4986 45.3907C53.1495 45.9775 52.9538 46.6428 52.9297 47.3251V72.1145Z" fill="black"/>
<path opacity="0.4" d="M136.012 3.31387C135.785 2.5011 135.021 2.21663 134.118 2.7368L58.7993 46.1955C58.218 46.553 57.7413 47.0577 57.4175 47.6585L53.5 45.3909C53.8306 44.7951 54.3058 44.292 54.8817 43.9279L130.193 0.469182C130.801 0.164544 131.471 0.00592041 132.152 0.00592041C132.832 0.00592041 133.502 0.164544 134.11 0.469182C134.605 0.788273 135.029 1.20531 135.356 1.69458C135.683 2.18384 135.906 2.73493 136.012 3.31387Z" fill="white"/>
<path d="M62.1554 50.0155L129.786 10.897C130.444 10.5231 130.981 10.6938 130.981 11.2871C130.932 11.6526 130.799 12.0017 130.591 12.3065C130.384 12.6113 130.108 12.8634 129.786 13.0427L62.1554 52.1612C61.5052 52.5432 60.9688 52.3725 60.9688 51.7792C61.0206 51.4147 61.1542 51.0667 61.3598 50.7612C61.5653 50.4558 61.8373 50.2008 62.1554 50.0155Z" fill="white"/>
<path d="M62.1554 61.0772L120.163 27.5912C120.821 27.2092 121.349 27.3799 121.349 27.9732C121.302 28.3381 121.17 28.687 120.964 28.9919C120.758 29.2967 120.484 29.5491 120.163 29.7288L62.1554 63.2229C61.5052 63.5968 60.9688 63.4261 60.9688 62.8328C61.0182 62.4686 61.151 62.1208 61.3568 61.8163C61.5626 61.5118 61.8359 61.2589 62.1554 61.0772Z" fill="white"/>
<path d="M62.1554 66.4578L128.404 28.1683C129.054 27.7863 129.591 27.9651 129.591 28.5503C129.539 28.9148 129.405 29.2628 129.2 29.5683C128.994 29.8737 128.722 30.1287 128.404 30.314L62.1554 68.6035C61.5052 68.9855 60.9688 68.8148 60.9688 68.2215C61.0206 67.857 61.1542 67.509 61.3598 67.2035C61.5653 66.898 61.8373 66.6431 62.1554 66.4578Z" fill="white"/>
<path d="M62.1554 55.4285L128.404 17.1309C129.054 16.7489 129.591 16.9277 129.591 17.521C129.538 17.8841 129.404 18.2305 129.198 18.5345C128.993 18.8385 128.721 19.0921 128.404 19.2766L62.1554 57.5661C61.5052 57.9481 60.9688 57.7774 60.9688 57.1841C61.0176 56.8198 61.1502 56.4716 61.356 56.1671C61.5619 55.8625 61.8355 55.6097 62.1554 55.4285Z" fill="white"/>
</svg>
