<svg width="23" height="22" viewBox="0 0 23 22" fill="none" xmlns="http://www.w3.org/2000/svg">
<path d="M3.9197 7.53862C5.02719 7.53862 5.92496 8.43639 5.92496 9.54388V19.0689C5.92496 20.1763 5.02719 21.0741 3.9197 21.0741H2.83367C1.79353 21.0741 0.926053 20.2788 0.835946 19.2426L0.00768805 9.71761C-0.0941852 8.54598 0.829377 7.53862 2.00541 7.53862H3.9197ZM11.4566 1.25305C11.6554 -0.18016 12.9264 -0.250925 14.0818 0.375912C14.8418 0.788273 15.616 1.50939 16.0592 2.24857C16.5257 3.02655 16.6664 3.97549 16.6024 5.01652C16.5742 5.47595 16.51 5.85952 16.3748 6.38317L16.2595 6.80556L16.0445 7.5306L20.1407 7.53085C21.4212 7.53085 22.3602 8.70911 22.1052 9.93904L22.0705 10.0811L19.3783 19.6139C19.1343 20.4777 18.3461 21.0741 17.4485 21.0741H8.93285C7.82536 21.0741 6.92759 20.1763 6.92759 19.0689V9.2303C6.92759 8.42117 7.41269 7.69462 8.14203 7.35084C9.24897 6.82903 10.1832 6.17022 10.5795 5.50929C10.866 5.03145 11.0938 4.27436 11.2473 3.36005C11.3554 2.71634 11.4134 2.09113 11.436 1.58307L11.4463 1.34161L11.4566 1.25305ZM3.9197 9.54388H2.00541L2.83367 19.0689H3.9197V9.54388ZM13.3976 2.3089L13.3686 2.6255C13.3453 2.8524 13.3166 3.08768 13.2818 3.32808L13.2249 3.69211C13.0335 4.83208 12.7413 5.80343 12.2993 6.54048C11.6424 7.63605 10.4378 8.48551 8.99704 9.16468C8.9539 9.18502 8.93285 9.21654 8.93285 9.2303V19.0689L17.4482 19.0679L20.1407 9.53609L14.698 9.53611C14.0264 9.53611 13.5447 8.88883 13.7376 8.24557L14.1788 6.77368L14.3183 6.29995L14.4164 5.9444L14.4906 5.64216C14.5539 5.36117 14.586 5.13588 14.601 4.89348C14.6424 4.21964 14.5567 3.64221 14.3394 3.27974C14.1422 2.95091 13.7913 2.59179 13.4321 2.33285L13.3976 2.3089Z" fill="#385AD4"/>
<path d="M3.9221 9.54333H2.00781L2.83607 19.0683H3.9221V9.54333Z" fill="#D5DEFF"/>
<path d="M13.4 2.30835L13.371 2.62495C13.3477 2.85185 13.319 3.08712 13.2842 3.32753L13.2273 3.69156C13.0359 4.83153 12.7437 5.80288 12.3017 6.53993C11.6448 7.6355 10.4402 8.48497 8.99944 9.16413C8.9563 9.18447 8.93525 9.21599 8.93525 9.22975V19.0683L17.4506 19.0673L20.1431 9.53554L14.7004 9.53556C14.0288 9.53556 13.5471 8.88828 13.74 8.24502L14.1812 6.77313L14.3207 6.2994L14.4188 5.94385L14.493 5.64161C14.5563 5.36062 14.5884 5.13533 14.6034 4.89293C14.6448 4.21909 14.5591 3.64166 14.3418 3.27918C14.1446 2.95036 13.7937 2.59124 13.4345 2.3323L13.4 2.30835Z" fill="#D5DEFF"/>
</svg>
