<svg width="26" height="26" viewBox="0 0 26 26" fill="none" xmlns="http://www.w3.org/2000/svg">
<circle cx="13" cy="13" r="13" fill="white"/>
<path d="M18.7841 7.22219C18.6818 7.11994 18.5522 7.04944 18.4108 7.01916C18.2693 6.98888 18.1222 7.00012 17.987 7.05153L5.48337 11.7841H5.48087C5.3367 11.8396 5.21316 11.9382 5.12713 12.0665C5.0411 12.1947 4.99676 12.3465 5.00018 12.5009C5.0036 12.6553 5.05461 12.8049 5.14624 12.9293C5.23786 13.0536 5.36565 13.1467 5.51213 13.1957L5.52494 13.1997L9.8165 15.0323C9.90021 15.0577 9.98911 15.0608 10.0743 15.0411C10.1596 15.0214 10.2382 14.9797 10.3022 14.9201L17.19 8.50216C17.2105 8.48163 17.2349 8.46535 17.2617 8.45425C17.2885 8.44314 17.3172 8.43742 17.3463 8.43742C17.3753 8.43742 17.404 8.44314 17.4308 8.45425C17.4577 8.46535 17.482 8.48163 17.5025 8.50216C17.5231 8.52268 17.5394 8.54705 17.5505 8.57386C17.5616 8.60068 17.5673 8.62942 17.5673 8.65844C17.5673 8.68747 17.5616 8.71621 17.5505 8.74302C17.5394 8.76984 17.5231 8.7942 17.5025 8.81473L11.0843 15.6994C11.0247 15.7634 10.983 15.842 10.9633 15.9272C10.9436 16.0125 10.9467 16.1014 10.9721 16.1851L12.8053 20.4791C12.8072 20.4854 12.809 20.491 12.8112 20.497C12.9112 20.7867 13.1644 20.9911 13.4704 21.0049C13.4839 21.0049 13.4886 21.0049 13.5017 21.0049C13.6562 21.0058 13.8073 20.9601 13.9355 20.874C14.0638 20.7878 14.1631 20.665 14.2206 20.5217L18.9526 8.02143C19.0047 7.88617 19.0165 7.73871 18.9866 7.59687C18.9567 7.45503 18.8864 7.32489 18.7841 7.22219Z" fill="#385AD4"/>
</svg>
