<svg width="26" height="26" viewBox="0 0 26 26" fill="none" xmlns="http://www.w3.org/2000/svg">
<circle cx="13" cy="13" r="13" fill="white"/>
<path d="M13 5C10.7908 5 9 6.79085 9 8.99991C9 11.209 10.7908 13 13 13C15.2092 13 17 11.209 17 8.99991C17 6.79085 15.2092 5 13 5ZM13 10.6535C12.0868 10.6535 11.3465 9.91314 11.3465 8.99997C11.3465 8.0868 12.0868 7.3465 13 7.3465C13.9132 7.3465 14.6535 8.0868 14.6535 8.99997C14.6535 9.91314 13.9132 10.6535 13 10.6535Z" fill="#385AD4"/>
<path d="M14.4785 17.0454C16.2152 16.6916 17.2559 15.8692 17.311 15.8251C17.8192 15.4175 17.9008 14.6751 17.4932 14.1669C17.0857 13.6587 16.3434 13.5771 15.8351 13.9845C15.8244 13.9932 14.7144 14.8447 12.888 14.846C11.0617 14.8447 9.92824 13.9932 9.9175 13.9845C9.40918 13.5771 8.66688 13.6587 8.25938 14.1669C7.85182 14.6751 7.93346 15.4175 8.44165 15.8251C8.49746 15.8698 9.58114 16.7137 11.3665 17.0592L8.87827 19.6596C8.42607 20.1286 8.43966 20.8753 8.90862 21.3275C9.13751 21.5482 9.43252 21.6579 9.72728 21.6579C10.0363 21.6579 10.345 21.5371 10.5765 21.2971L12.8881 18.8346L15.4331 21.313C15.8943 21.7734 16.641 21.7727 17.1013 21.3117C17.5615 20.8507 17.561 20.1039 17.0999 19.6436L14.4785 17.0454Z" fill="#385AD4"/>
<path d="M12.888 14.8459C12.8835 14.8459 12.8924 14.846 12.888 14.8462C12.8836 14.846 12.8925 14.8459 12.888 14.8459Z" fill="#385AD4"/>
</svg>
