<svg width="28" height="28" viewBox="0 0 28 28" fill="none" xmlns="http://www.w3.org/2000/svg">
<path d="M13.9986 0.541504C6.57579 0.541504 0.558594 6.35946 0.558594 13.5365C0.558594 20.7135 6.57579 26.5314 13.9986 26.5314C21.4214 26.5314 27.4386 20.7135 27.4386 13.5365C27.4386 6.35946 21.4214 0.541504 13.9986 0.541504ZM19.1674 15.2028C19.1674 15.2028 20.356 16.3372 20.6486 16.8637C20.657 16.8746 20.6612 16.8854 20.664 16.8908C20.783 17.0844 20.811 17.2346 20.7522 17.347C20.6542 17.5338 20.3182 17.6258 20.2034 17.6339H18.1034C17.9578 17.6339 17.6526 17.5974 17.283 17.351C16.9988 17.1588 16.7188 16.8434 16.4458 16.5361C16.0384 16.0786 15.6856 15.6833 15.33 15.6833C15.2848 15.6833 15.2399 15.6901 15.197 15.7037C14.9282 15.7876 14.5838 16.1585 14.5838 17.1466C14.5838 17.4553 14.3318 17.6326 14.154 17.6326H13.1922C12.8646 17.6326 11.158 17.5216 9.64599 15.9798C7.79519 14.0915 6.12919 10.304 6.11519 10.2688C6.01019 10.0238 6.22719 9.89247 6.46379 9.89247H8.58479C8.86759 9.89247 8.95999 10.059 9.02439 10.2065C9.09999 10.3784 9.37719 11.062 9.83219 11.8309C10.57 13.0844 11.0222 13.5933 11.3848 13.5933C11.4528 13.5926 11.5196 13.5758 11.5794 13.5446C12.0526 13.2901 11.9644 11.659 11.9434 11.3206C11.9434 11.2569 11.942 10.5909 11.6998 10.2715C11.5262 10.04 11.2308 9.95203 11.0516 9.91954C11.1241 9.82277 11.2197 9.7443 11.3302 9.69077C11.655 9.53375 12.2402 9.51074 12.8212 9.51074H13.1446C13.7746 9.51886 13.937 9.55812 14.1652 9.61362C14.6272 9.72055 14.637 10.0089 14.5964 10.9957C14.5838 11.2759 14.5712 11.5926 14.5712 11.9662C14.5712 12.0475 14.567 12.1341 14.567 12.2261C14.553 12.7283 14.5362 13.2982 14.903 13.5324C14.9508 13.5614 15.0061 13.5769 15.0626 13.5771C15.19 13.5771 15.5736 13.5771 16.6124 11.8539C16.9328 11.2992 17.2112 10.7229 17.4454 10.1294C17.4664 10.0942 17.528 9.98587 17.6008 9.9439C17.6545 9.91742 17.7141 9.90395 17.7744 9.90465H20.2678C20.5394 9.90465 20.7256 9.9439 20.7606 10.0454C20.8222 10.2065 20.7494 10.6979 19.6112 12.1882L19.103 12.8366C18.0712 14.1443 18.0712 14.2106 19.1674 15.2028Z" fill="white"/>
</svg>
