<svg width="26" height="26" viewBox="0 0 26 26" fill="none" xmlns="http://www.w3.org/2000/svg">
<circle cx="13" cy="13" r="13" fill="white"/>
<path d="M18.2566 8.20797C18.1475 8.15564 18.0414 8.09828 17.9386 8.0361C17.6395 7.8525 17.3653 7.63617 17.1219 7.39176C16.5128 6.7446 16.2853 6.08807 16.2015 5.62841H16.2049C16.1349 5.24686 16.1638 5 16.1682 5H13.3941V14.9614C13.3941 15.0951 13.3941 15.2273 13.388 15.3579C13.388 15.3742 13.3863 15.3892 13.3853 15.4067C13.3853 15.4139 13.3853 15.4214 13.3836 15.4289C13.3836 15.4307 13.3836 15.4326 13.3836 15.4345C13.3544 15.7919 13.231 16.1372 13.0244 16.4399C12.8177 16.7426 12.5341 16.9936 12.1985 17.1706C11.8487 17.3554 11.4531 17.4524 11.0506 17.4519C9.75813 17.4519 8.71059 16.4732 8.71059 15.2645C8.71059 14.0558 9.75813 13.0771 11.0506 13.0771C11.2953 13.0769 11.5385 13.1126 11.7711 13.183L11.7745 10.56C11.0683 10.4753 10.3508 10.5274 9.6674 10.7131C8.98397 10.8988 8.3494 11.2139 7.80371 11.6387C7.32555 12.0245 6.92357 12.4848 6.61584 12.999C6.49874 13.1865 6.05691 13.9399 6.0034 15.1626C5.96975 15.8566 6.1942 16.5757 6.30121 16.8728V16.8791C6.36851 17.0541 6.6293 17.6512 7.05431 18.1547C7.39702 18.5585 7.80192 18.9132 8.25597 19.2074V19.2012L8.2627 19.2074C9.60569 20.0549 11.0947 19.9993 11.0947 19.9993C11.3525 19.9896 12.216 19.9993 13.1965 19.5677C14.2841 19.0893 14.9033 18.3765 14.9033 18.3765C15.2989 17.9506 15.6134 17.4653 15.8334 16.9413C16.0844 16.3285 16.1682 15.5935 16.1682 15.2998V10.0151C16.2019 10.0338 16.6501 10.3091 16.6501 10.3091C16.6501 10.3091 17.2958 10.6935 18.3033 10.9438C19.0262 11.1219 20 11.1594 20 11.1594V8.60201C19.6588 8.63638 18.9659 8.53639 18.2566 8.20797Z" fill="#385AD4"/>
</svg>
