<svg width="26" height="26" viewBox="0 0 26 26" fill="none" xmlns="http://www.w3.org/2000/svg">
<circle cx="13" cy="13" r="13" fill="white"/>
<path d="M15.9187 7.16682C16.6918 7.16913 17.4325 7.47725 17.9792 8.02389C18.5258 8.57053 18.8339 9.31126 18.8362 10.0843V15.9187C18.8339 16.6918 18.5258 17.4325 17.9792 17.9792C17.4325 18.5258 16.6918 18.8339 15.9187 18.8362H10.0843C9.31126 18.8339 8.57053 18.5258 8.02389 17.9792C7.47725 17.4325 7.16913 16.6918 7.16682 15.9187V10.0843C7.16913 9.31126 7.47725 8.57053 8.02389 8.02389C8.57053 7.47725 9.31126 7.16913 10.0843 7.16682H15.9187ZM15.9187 6H10.0843C7.8379 6 6 7.8379 6 10.0843V15.9187C6 18.1651 7.8379 20.003 10.0843 20.003H15.9187C18.1651 20.003 20.003 18.1651 20.003 15.9187V10.0843C20.003 7.8379 18.1651 6 15.9187 6Z" fill="#385AD4"/>
<path d="M16.7957 10.0893C16.6221 10.0893 16.4524 10.0378 16.308 9.9414C16.1637 9.84496 16.0512 9.70788 15.9848 9.5475C15.9183 9.38712 15.901 9.21065 15.9348 9.04039C15.9687 8.87013 16.0523 8.71374 16.175 8.591C16.2978 8.46825 16.4542 8.38465 16.6244 8.35079C16.7947 8.31692 16.9712 8.3343 17.1315 8.40073C17.2919 8.46717 17.429 8.57966 17.5254 8.724C17.6219 8.86834 17.6734 9.03803 17.6734 9.21162C17.6736 9.32695 17.6511 9.4412 17.6071 9.54779C17.563 9.65439 17.4984 9.75125 17.4168 9.8328C17.3353 9.91435 17.2384 9.97899 17.1318 10.023C17.0252 10.067 16.911 10.0896 16.7957 10.0893Z" fill="#385AD4"/>
<path d="M13.0008 10.6665C13.4624 10.6665 13.9136 10.8034 14.2974 11.0599C14.6812 11.3163 14.9804 11.6808 15.157 12.1073C15.3337 12.5338 15.3799 13.003 15.2899 13.4558C15.1998 13.9085 14.9775 14.3244 14.6511 14.6508C14.3247 14.9772 13.9088 15.1995 13.4561 15.2896C13.0034 15.3796 12.5341 15.3334 12.1076 15.1567C11.6811 14.9801 11.3166 14.6809 11.0602 14.2971C10.8037 13.9133 10.6668 13.4621 10.6668 13.0005C10.6675 12.3817 10.9136 11.7884 11.3511 11.3508C11.7887 10.9133 12.382 10.6672 13.0008 10.6665ZM13.0008 9.49969C12.3084 9.49969 11.6315 9.70501 11.0558 10.0897C10.4801 10.4743 10.0314 11.0211 9.76648 11.6608C9.50152 12.3005 9.43219 13.0043 9.56727 13.6834C9.70235 14.3625 10.0358 14.9863 10.5254 15.4759C11.0149 15.9655 11.6387 16.2989 12.3178 16.434C12.9969 16.569 13.7008 16.4997 14.3404 16.2347C14.9801 15.9698 15.5269 15.5211 15.9115 14.9454C16.2962 14.3697 16.5015 13.6928 16.5015 13.0005C16.5015 12.072 16.1327 11.1816 15.4762 10.525C14.8197 9.86852 13.9292 9.49969 13.0008 9.49969Z" fill="#385AD4"/>
</svg>
