<svg width="25" height="31" viewBox="0 0 25 31" fill="none" xmlns="http://www.w3.org/2000/svg">
<path fill-rule="evenodd" clip-rule="evenodd" d="M7.8125 11.6252C7.8125 9.05707 9.91116 6.97515 12.5 6.97515C15.0888 6.97515 17.1875 9.05707 17.1875 11.6252C17.1875 14.1934 15.0888 16.2753 12.5 16.2753C9.91116 16.2753 7.8125 14.1934 7.8125 11.6252ZM12.5 10.0752C11.6371 10.0752 10.9375 10.7692 10.9375 11.6252C10.9375 12.4813 11.6371 13.1753 12.5 13.1753C13.3629 13.1753 14.0625 12.4813 14.0625 11.6252C14.0625 10.7692 13.3629 10.0752 12.5 10.0752Z" fill="#5276F9"/>
<path fill-rule="evenodd" clip-rule="evenodd" d="M0.78125 11.6252C0.78125 5.2048 6.02791 0 12.5 0C18.9721 0 24.2188 5.2048 24.2188 11.6252C24.2188 15.6055 22.032 18.8428 19.766 21.1411C17.484 23.4556 14.9411 25.0047 13.8211 25.6322C12.9963 26.0943 12.0037 26.0943 11.1789 25.6322C10.0589 25.0047 7.51605 23.4556 5.23403 21.1411C2.96802 18.8428 0.78125 15.6055 0.78125 11.6252ZM12.5 3.10007C7.7538 3.10007 3.90625 6.91692 3.90625 11.6252C3.90625 14.4408 5.46195 16.9387 7.46806 18.9734C9.32572 20.8575 11.4176 22.1866 12.5 22.8103C13.5824 22.1866 15.6743 20.8575 17.5319 18.9734C19.538 16.9387 21.0938 14.4408 21.0938 11.6252C21.0938 6.91692 17.2462 3.10007 12.5 3.10007Z" fill="#5276F9"/>
<path fill-rule="evenodd" clip-rule="evenodd" d="M5.12486 25.6684C5.95331 25.4288 6.42909 24.5683 6.18754 23.7464C5.94599 22.9246 5.07858 22.4526 4.25014 22.6922C3.20629 22.9942 2.24872 23.3817 1.51669 23.8795C0.835222 24.3429 0 25.1507 0 26.3499C0 27.5646 0.85595 28.3777 1.5474 28.841C2.29338 29.3409 3.27014 29.7301 4.33677 30.0324C6.49129 30.643 9.37692 31 12.5 31C15.6231 31 18.5087 30.643 20.6632 30.0324C21.7299 29.7301 22.7066 29.3409 23.4526 28.841C24.1441 28.3777 25 27.5646 25 26.3499C25 25.1507 24.1648 24.3429 23.4833 23.8795C22.7513 23.3817 21.7937 22.9942 20.7499 22.6922C19.9214 22.4526 19.054 22.9246 18.8125 23.7464C18.5709 24.5683 19.0467 25.4288 19.8751 25.6684C20.6576 25.8947 21.2199 26.1347 21.5802 26.3499C21.2073 26.5727 20.6211 26.8202 19.8047 27.0516C18.0007 27.5629 15.4175 27.8999 12.5 27.8999C9.58247 27.8999 6.99935 27.5629 5.19527 27.0516C4.37892 26.8202 3.79273 26.5727 3.41978 26.3499C3.78009 26.1347 4.34241 25.8947 5.12486 25.6684Z" fill="#5276F9"/>
</svg>
