<svg width="270" height="46" viewBox="0 0 270 46" fill="none" xmlns="http://www.w3.org/2000/svg">
<path d="M30.3981 18.0181C18.4204 18.0181 5.14197 30.0844 0 36.1176C28.3111 14.0362 40.5309 30.8386 43.1019 42C44.1605 41.2459 46.8222 39.2851 49 37.4751C41.7407 16.6606 31.3056 18.0181 30.3981 18.0181Z" fill="#385AD4"/>
<path d="M37.9815 5.02184C23.8037 5.02184 8.08642 19.602 2 26.8921C35.5111 0.210366 49.9753 20.5133 53.0185 34C54.2716 33.0887 57.4222 30.7195 60 28.5324C51.4074 3.38156 39.0556 5.02184 37.9815 5.02184Z" fill="#EF2C2C"/>
<path d="M78.652 22.066H90.926V27.88H78.652V22.066ZM79.184 37H71.66V10.4H92.522V16.214H79.184V37ZM95.6989 37V16.404H102.919V37H95.6989ZM99.3089 14.124C97.9915 14.124 96.9275 13.7567 96.1169 13.022C95.3062 12.2873 94.9009 11.3753 94.9009 10.286C94.9009 9.19667 95.3062 8.28466 96.1169 7.55C96.9275 6.81533 97.9915 6.448 99.3089 6.448C100.626 6.448 101.69 6.80267 102.501 7.512C103.312 8.196 103.717 9.08267 103.717 10.172C103.717 11.312 103.312 12.262 102.501 13.022C101.716 13.7567 100.652 14.124 99.3089 14.124ZM121.025 16.062C122.621 16.062 124.065 16.3913 125.357 17.05C126.649 17.6833 127.662 18.6713 128.397 20.014C129.157 21.3567 129.537 23.092 129.537 25.22V37H122.317V26.398C122.317 24.9287 122.013 23.8647 121.405 23.206C120.822 22.522 119.999 22.18 118.935 22.18C118.175 22.18 117.478 22.3573 116.845 22.712C116.212 23.0413 115.718 23.5607 115.363 24.27C115.008 24.9793 114.831 25.904 114.831 27.044V37H107.611V16.404H114.489V22.256L113.159 20.546C113.944 19.0513 115.021 17.9367 116.389 17.202C117.757 16.442 119.302 16.062 121.025 16.062ZM143.298 37.342C141.423 37.342 139.713 36.9113 138.168 36.05C136.648 35.1633 135.432 33.9347 134.52 32.364C133.608 30.768 133.152 28.868 133.152 26.664C133.152 24.4853 133.608 22.6107 134.52 21.04C135.432 19.444 136.648 18.2153 138.168 17.354C139.713 16.4927 141.423 16.062 143.298 16.062C145.071 16.062 146.566 16.442 147.782 17.202C149.023 17.962 149.96 19.1273 150.594 20.698C151.227 22.2687 151.544 24.2573 151.544 26.664C151.544 29.1213 151.24 31.1353 150.632 32.706C150.024 34.2767 149.112 35.442 147.896 36.202C146.68 36.962 145.147 37.342 143.298 37.342ZM144.818 31.604C145.628 31.604 146.35 31.414 146.984 31.034C147.642 30.654 148.162 30.0967 148.542 29.362C148.922 28.602 149.112 27.7027 149.112 26.664C149.112 25.6253 148.922 24.7513 148.542 24.042C148.162 23.3073 147.642 22.75 146.984 22.37C146.35 21.99 145.628 21.8 144.818 21.8C143.982 21.8 143.234 21.99 142.576 22.37C141.942 22.75 141.436 23.3073 141.056 24.042C140.676 24.7513 140.486 25.6253 140.486 26.664C140.486 27.7027 140.676 28.602 141.056 29.362C141.436 30.0967 141.942 30.654 142.576 31.034C143.234 31.414 143.982 31.604 144.818 31.604ZM149.34 37V33.466L149.378 26.664L148.998 19.862V8.804H156.218V37H149.34Z" fill="#385AD5"/>
<path d="M167.779 37L159.153 10.4H166.905L174.163 33.428H170.249L177.887 10.4H184.803L192.023 33.428H188.261L195.747 10.4H202.929L194.303 37H186.247L180.091 17.43H182.257L175.835 37H167.779ZM214.097 37.342C211.843 37.342 209.841 36.886 208.093 35.974C206.345 35.062 204.965 33.808 203.951 32.212C202.963 30.5907 202.469 28.7413 202.469 26.664C202.469 24.5867 202.963 22.75 203.951 21.154C204.965 19.558 206.345 18.3167 208.093 17.43C209.841 16.518 211.843 16.062 214.097 16.062C216.352 16.062 218.353 16.518 220.101 17.43C221.875 18.3167 223.255 19.558 224.243 21.154C225.231 22.75 225.725 24.5867 225.725 26.664C225.725 28.7413 225.231 30.5907 224.243 32.212C223.255 33.808 221.875 35.062 220.101 35.974C218.353 36.886 216.352 37.342 214.097 37.342ZM214.097 31.604C214.933 31.604 215.668 31.414 216.301 31.034C216.96 30.654 217.479 30.0967 217.859 29.362C218.239 28.602 218.429 27.7027 218.429 26.664C218.429 25.6253 218.239 24.7513 217.859 24.042C217.479 23.3073 216.96 22.75 216.301 22.37C215.668 21.99 214.933 21.8 214.097 21.8C213.287 21.8 212.552 21.99 211.893 22.37C211.26 22.75 210.741 23.3073 210.335 24.042C209.955 24.7513 209.765 25.6253 209.765 26.664C209.765 27.7027 209.955 28.602 210.335 29.362C210.741 30.0967 211.26 30.654 211.893 31.034C212.552 31.414 213.287 31.604 214.097 31.604ZM229.07 37V16.404H235.948V22.408L234.922 20.698C235.53 19.1527 236.518 18 237.886 17.24C239.254 16.4547 240.913 16.062 242.864 16.062V22.56C242.535 22.5093 242.243 22.484 241.99 22.484C241.762 22.4587 241.509 22.446 241.23 22.446C239.761 22.446 238.57 22.8513 237.658 23.662C236.746 24.4473 236.29 25.7393 236.29 27.538V37H229.07ZM251.847 33.2L252.037 24.574L260.435 16.404H268.985L259.675 26.018L255.989 28.982L251.847 33.2ZM245.843 37V8.804H253.063V37H245.843ZM260.967 37L254.659 29.096L259.143 23.548L269.707 37H260.967Z" fill="#EF2C2C"/>
</svg>
