<svg width="20" height="20" viewBox="0 0 20 20" fill="none" xmlns="http://www.w3.org/2000/svg">
<path fill-rule="evenodd" clip-rule="evenodd" d="M14.0217 15.5554C12.5498 16.7001 10.7 17.3818 8.69091 17.3818C3.89105 17.3818 0 13.4908 0 8.69091C0 3.89105 3.89105 0 8.69091 0C13.4908 0 17.3818 3.89105 17.3818 8.69091C17.3818 10.7 16.7001 12.5498 15.5554 14.0217L19.6824 18.1487C20.1059 18.5722 20.1059 19.2588 19.6824 19.6824C19.2588 20.1059 18.5722 20.1059 18.1487 19.6824L14.0217 15.5554ZM15.3369 8.69091C15.3369 12.3614 12.3614 15.3369 8.69091 15.3369C5.02043 15.3369 2.04492 12.3614 2.04492 8.69091C2.04492 5.02043 5.02043 2.04492 8.69091 2.04492C12.3614 2.04492 15.3369 5.02043 15.3369 8.69091Z" fill="#4E4E4E"/>
</svg>
