<svg width="20" height="20" viewBox="0 0 20 20" fill="none" xmlns="http://www.w3.org/2000/svg">
<path d="M10.0008 0C4.47906 0 0.00273572 4.47657 0.00273572 9.99863C0.00273572 11.4875 0.336128 12.9096 0.924969 14.1751C1.15828 14.664 1.15835 15.2307 0.991695 15.7529L0.0583409 18.5306C-0.230524 19.3972 0.602762 20.2305 1.46936 19.9417L4.24691 19.0083C4.76908 18.8417 5.33562 18.8417 5.82447 19.075C7.09103 19.6639 8.51314 19.9972 10.0019 19.9972C15.5237 19.9972 20 15.5207 20 9.99863C19.9989 4.47657 15.5226 0 10.0008 0ZM5.55783 11.1108C4.94455 11.1108 4.44139 10.613 4.44139 9.99972C4.44139 9.3864 4.93343 8.88864 5.54671 8.88864H5.55783C6.17223 8.88864 6.66885 9.3864 6.66885 9.99972C6.66885 10.613 6.17223 11.1108 5.55783 11.1108ZM10.0019 11.1108C9.38863 11.1108 8.88547 10.613 8.88547 9.99972C8.88547 9.3864 9.37751 8.88864 9.99079 8.88864H10.0019C10.6163 8.88864 11.1129 9.3864 11.1129 9.99972C11.1129 10.613 10.6163 11.1108 10.0019 11.1108ZM14.446 11.1108C13.8327 11.1108 13.3295 10.613 13.3295 9.99972C13.3295 9.3864 13.8216 8.88864 14.4349 8.88864H14.446C15.0604 8.88864 15.557 9.3864 15.557 9.99972C15.557 10.613 15.0604 11.1108 14.446 11.1108Z" fill="#686868"/>
</svg>
