<svg width="20" height="20" viewBox="0 0 20 20" fill="none" xmlns="http://www.w3.org/2000/svg">
<path d="M10.0007 0.5C4.76368 0.5 0.502628 4.76102 0.502628 9.99902C0.502628 11.363 0.805802 12.736 1.3808 13.974C1.5248 14.274 1.53564 14.648 1.41864 15.019L0.577579 17.52C0.396579 18.062 0.53779 18.651 0.94379 19.057C1.23179 19.346 1.61358 19.5 2.00458 19.5C2.16358 19.5 2.32363 19.474 2.48163 19.422L4.9748 18.585C5.3518 18.464 5.72568 18.477 6.03168 18.622C7.26468 19.195 8.63765 19.498 10.0017 19.498C15.2387 19.498 19.5007 15.237 19.5007 9.99902C19.5007 4.76102 15.2377 0.5 10.0007 0.5ZM10.0007 18.498C8.78168 18.498 7.55571 18.227 6.45771 17.717C5.92671 17.463 5.29178 17.433 4.66278 17.634L2.16376 18.473C1.98076 18.533 1.78958 18.487 1.65058 18.349C1.51158 18.211 1.46458 18.018 1.52558 17.837L2.3686 15.33C2.56559 14.708 2.53561 14.074 2.28461 13.548C1.77261 12.445 1.50263 11.218 1.50263 9.99902C1.50263 5.31302 5.31468 1.5 10.0007 1.5C14.6877 1.5 18.4997 5.31202 18.4997 9.99902C18.4997 14.686 14.6877 18.498 10.0007 18.498ZM10.7497 10C10.7497 10.414 10.4156 10.75 10.0036 10.75C9.5926 10.75 9.2497 10.414 9.2497 10C9.2497 9.586 9.57671 9.25 9.98871 9.25H10.0036C10.4156 9.25 10.7497 9.586 10.7497 10ZM14.7497 10C14.7497 10.414 14.4156 10.75 14.0036 10.75C13.5926 10.75 13.2497 10.414 13.2497 10C13.2497 9.586 13.5767 9.25 13.9887 9.25H14.0036C14.4156 9.25 14.7497 9.586 14.7497 10ZM6.7497 10C6.7497 10.414 6.41561 10.75 6.0036 10.75C5.5926 10.75 5.2497 10.414 5.2497 10C5.2497 9.586 5.57671 9.25 5.98871 9.25H6.0036C6.41561 9.25 6.7497 9.586 6.7497 10Z" fill="#25314C" stroke="#4E4E4E" stroke-width="0.5"/>
</svg>
