<svg width="236" height="236" viewBox="0 0 236 236" fill="none" xmlns="http://www.w3.org/2000/svg">
<path d="M215.852 121.437C223.73 71.2064 181.802 20.575 126.781 14.288C126.097 14.2077 125.412 14.1369 124.723 14.0661C86.2787 10.2476 51.1383 39.6155 41.0941 62.0119C31.05 84.4083 4.75014 105.719 14.4969 147.236C24.2437 188.753 50.7182 210.867 112.81 217.413C174.901 223.96 186.333 206.208 202.816 167.419C208.999 152.673 213.376 137.234 215.852 121.437Z" fill="#385AD4"/>
<path opacity="0.7" d="M215.852 121.437C223.73 71.2064 181.802 20.575 126.781 14.288C126.097 14.2077 125.412 14.1369 124.723 14.0661C86.2787 10.2476 51.1383 39.6155 41.0941 62.0119C31.05 84.4083 4.75014 105.719 14.4969 147.236C24.2437 188.753 50.7182 210.867 112.81 217.413C174.901 223.96 186.333 206.208 202.816 167.419C208.999 152.673 213.376 137.234 215.852 121.437Z" fill="white"/>
<path d="M212.806 191.934C211.206 191.708 208.152 189.744 208.152 189.744C208.152 189.744 210.069 188.135 210.201 188.05C211.754 187.054 215.341 186.044 216.936 187.361C217.195 187.586 217.403 187.863 217.548 188.174C217.692 188.485 217.769 188.823 217.774 189.166C217.779 189.509 217.711 189.849 217.576 190.164C217.441 190.48 217.24 190.763 216.988 190.995C215.959 192.005 214.17 192.133 212.806 191.934Z" fill="#385AD4"/>
<path d="M182.994 176.594C182.956 176.594 183.702 174.197 183.768 174.05C184.513 172.365 186.949 169.543 189.002 169.76C189.342 169.806 189.669 169.922 189.961 170.103C190.253 170.283 190.504 170.523 190.697 170.806C190.89 171.09 191.021 171.411 191.082 171.749C191.143 172.087 191.132 172.433 191.051 172.767C190.753 174.183 189.333 175.287 188.086 175.877C186.623 176.566 182.994 176.594 182.994 176.594Z" fill="#385AD4"/>
<path d="M180.005 216.582C179.302 217.46 178.66 218.286 178.079 219.046H176.625C177.357 218.102 178.211 217.045 179.174 215.898C179.736 215.228 180.35 214.524 180.982 213.807C180.405 213.097 179.868 212.357 179.373 211.588C178.07 212.023 175.417 211.905 175.077 211.89C174.973 212.745 174.889 213.576 174.813 214.359C174.648 216.138 174.549 217.72 174.483 219.046H173.298C173.397 217.691 173.534 216.072 173.746 214.25C173.845 213.382 173.963 212.457 174.1 211.508C173.765 211.404 171.042 210.564 170.046 209.672C169.14 208.87 168.205 207.595 168.304 206.316C168.318 206.015 168.395 205.721 168.53 205.451C168.665 205.182 168.855 204.944 169.087 204.753C169.32 204.561 169.59 204.421 169.881 204.341C170.171 204.26 170.475 204.242 170.773 204.287C172.562 204.608 173.921 207.591 174.138 209.195C174.138 209.29 174.171 210.333 174.176 210.989C174.232 210.602 174.284 210.224 174.346 209.828C174.468 209.04 174.61 208.256 174.761 207.411C174.846 207.01 174.936 206.599 175.025 206.189C175.115 205.778 175.238 205.353 175.346 204.928C175.615 203.956 175.932 202.984 176.29 202.007C175.601 201.903 173.156 201.488 172.132 200.827C171.108 200.166 170.003 199.052 169.909 197.773C169.879 197.475 169.911 197.173 170.005 196.888C170.098 196.603 170.25 196.341 170.451 196.119C170.652 195.896 170.898 195.719 171.172 195.597C171.446 195.475 171.743 195.413 172.042 195.413C173.855 195.46 175.653 198.198 176.106 199.755C176.135 199.85 176.338 201.001 176.437 201.643C176.649 201.058 176.857 200.478 177.088 199.892C177.758 198.207 178.504 196.522 179.212 194.837C179.434 194.323 179.651 193.808 179.868 193.289C179.623 193.256 176.706 192.817 175.559 192.085C174.539 191.429 173.425 190.311 173.331 189.032C173.301 188.733 173.334 188.432 173.428 188.148C173.522 187.863 173.674 187.601 173.875 187.379C174.076 187.157 174.321 186.979 174.595 186.857C174.869 186.735 175.165 186.672 175.464 186.672C177.282 186.719 179.075 189.456 179.533 191.014C179.566 191.132 179.854 192.789 179.906 193.213C180.378 192.076 180.85 190.938 181.261 189.801C181.827 188.26 182.292 186.683 182.653 185.081C182.54 185.081 179.495 184.609 178.32 183.873C177.305 183.216 176.191 182.098 176.092 180.819C176.062 180.521 176.096 180.219 176.189 179.935C176.283 179.65 176.435 179.388 176.636 179.166C176.837 178.944 177.082 178.766 177.356 178.644C177.63 178.522 177.926 178.459 178.226 178.459C180.043 178.506 181.836 181.244 182.294 182.801C182.323 182.9 182.544 184.165 182.634 184.769H182.738C183.058 183.143 183.229 181.49 183.248 179.832C183.276 178.926 183.248 178.058 183.21 177.213C182.634 177.189 180.005 177.057 178.872 176.49C177.739 175.924 176.559 174.961 176.323 173.701C176.258 173.407 176.255 173.102 176.315 172.806C176.376 172.511 176.497 172.231 176.673 171.986C176.848 171.74 177.073 171.535 177.334 171.382C177.594 171.23 177.883 171.133 178.183 171.1C179.991 170.949 182.077 173.46 182.7 174.971C182.738 175.051 182.988 175.915 183.172 176.547C183.144 176.17 183.125 175.773 183.097 175.41C182.979 174.041 182.79 172.795 182.625 171.695C182.516 171.067 182.412 170.506 182.304 169.977C181.751 169.661 179.538 168.353 178.806 167.353C178.075 166.352 177.461 164.926 177.829 163.699C177.908 163.41 178.046 163.141 178.235 162.909C178.424 162.676 178.659 162.486 178.925 162.35C179.192 162.213 179.484 162.134 179.783 162.117C180.082 162.1 180.381 162.145 180.661 162.25C182.337 162.949 183.021 166.149 182.889 167.763C182.889 167.905 182.441 170.067 182.417 170.052H182.384C182.497 170.557 182.61 171.096 182.724 171.69C182.927 172.795 183.144 174.05 183.29 175.41C183.461 176.885 183.546 178.37 183.545 179.856C183.552 181.519 183.412 183.179 183.125 184.817V184.878C183.375 184.406 184.111 183.113 184.177 183.018C185.121 181.711 187.755 179.747 189.478 180.318C189.761 180.422 190.02 180.583 190.237 180.792C190.453 181.002 190.624 181.254 190.737 181.534C190.85 181.813 190.903 182.113 190.893 182.415C190.882 182.716 190.809 183.012 190.677 183.283C190.153 184.453 188.723 185.123 187.543 185.397C186.212 185.704 183.295 185.114 183.082 185.067C182.734 186.715 182.278 188.339 181.718 189.928C181.402 190.872 181.053 191.816 180.694 192.727C180.921 192.326 181.128 191.972 181.166 191.925C182.11 190.613 184.744 188.649 186.467 189.22C186.75 189.323 187.008 189.485 187.225 189.694C187.442 189.904 187.613 190.156 187.726 190.436C187.839 190.715 187.892 191.015 187.881 191.316C187.871 191.618 187.797 191.913 187.666 192.184C187.142 193.355 185.711 194.03 184.531 194.299C183.351 194.568 180.855 194.124 180.199 193.992L179.774 195.059C179.089 196.763 178.395 198.457 177.763 200.138C177.541 200.732 177.348 201.327 177.149 201.917C177.352 201.563 177.522 201.266 177.555 201.223C178.499 199.916 181.128 197.948 182.856 198.519C183.14 198.621 183.399 198.782 183.616 198.992C183.833 199.201 184.003 199.454 184.116 199.734C184.229 200.013 184.281 200.314 184.27 200.615C184.258 200.917 184.184 201.212 184.05 201.483C183.526 202.653 182.101 203.328 180.921 203.597C179.741 203.866 177.48 203.465 176.701 203.314C176.517 203.928 176.328 204.541 176.177 205.141C176.083 205.556 175.965 205.948 175.889 206.368C175.814 206.788 175.733 207.189 175.653 207.6C175.53 208.388 175.403 209.2 175.299 209.96C175.228 210.498 175.167 211.013 175.106 211.527C175.318 210.932 175.762 209.781 175.809 209.691C176.514 208.45 177.524 207.41 178.745 206.67C178.818 206.529 178.903 206.395 179 206.269C179.177 206.025 179.404 205.822 179.665 205.671C179.927 205.521 180.217 205.427 180.517 205.396C180.817 205.365 181.12 205.397 181.407 205.49C181.693 205.584 181.957 205.737 182.181 205.939C183.493 207.194 182.983 210.427 182.275 211.886C182.238 211.971 181.681 212.853 181.331 213.406L182.115 212.532C182.653 211.942 183.205 211.367 183.795 210.744L184.692 209.87C184.985 209.568 185.329 209.29 185.636 208.997C186.396 208.332 187.198 207.699 188.024 207.076C187.505 206.604 185.697 204.91 185.192 203.796C184.687 202.682 184.395 201.138 185.018 200.02C185.156 199.752 185.35 199.516 185.586 199.328C185.821 199.139 186.094 199.003 186.386 198.927C186.678 198.85 186.983 198.837 187.28 198.886C187.578 198.935 187.862 199.046 188.114 199.213C189.601 200.251 189.587 203.527 189.11 205.075C189.077 205.174 188.61 206.245 188.341 206.831C188.841 206.458 189.336 206.09 189.851 205.731C191.342 204.692 192.881 203.692 194.415 202.686L195.831 201.742C195.647 201.577 193.471 199.609 192.905 198.363C192.433 197.254 192.102 195.706 192.73 194.587C192.868 194.319 193.061 194.083 193.296 193.894C193.531 193.705 193.803 193.568 194.095 193.491C194.386 193.415 194.691 193.4 194.988 193.449C195.286 193.498 195.57 193.609 195.822 193.775C197.309 194.818 197.299 198.094 196.818 199.642C196.785 199.76 196.11 201.304 195.916 201.686C196.94 201.001 197.96 200.308 198.932 199.585C200.258 198.616 201.519 197.561 202.708 196.428C202.619 196.352 200.32 194.308 199.758 193.029C199.286 191.92 198.961 190.377 199.584 189.253C199.721 188.984 199.914 188.748 200.15 188.559C200.385 188.369 200.658 188.232 200.95 188.155C201.242 188.079 201.548 188.065 201.846 188.114C202.144 188.163 202.428 188.275 202.68 188.442C204.167 189.485 204.153 192.756 203.676 194.304C203.643 194.408 203.128 195.583 202.873 196.14L202.958 196.196C204.118 195.025 205.17 193.752 206.102 192.392C206.626 191.651 207.084 190.915 207.518 190.188C207.046 189.848 204.931 188.3 204.299 187.195C203.666 186.091 203.213 184.642 203.714 183.462C203.821 183.18 203.987 182.924 204.2 182.711C204.412 182.498 204.668 182.331 204.949 182.223C205.231 182.115 205.532 182.067 205.833 182.083C206.134 182.099 206.428 182.178 206.697 182.315C208.292 183.188 208.637 186.445 208.334 188.036C208.334 188.121 208.051 188.98 207.862 189.607C208.051 189.277 208.254 188.937 208.429 188.616C209.085 187.413 209.618 186.256 210.076 185.256C210.336 184.675 210.548 184.142 210.756 183.646C210.473 183.075 209.34 180.767 209.288 179.525C209.236 178.284 209.5 176.76 210.491 175.943C210.717 175.743 210.982 175.592 211.269 175.501C211.557 175.409 211.86 175.38 212.16 175.414C212.459 175.447 212.749 175.544 213.009 175.697C213.268 175.85 213.493 176.056 213.668 176.302C214.678 177.812 213.484 180.861 212.483 182.131C212.394 182.244 210.841 183.806 210.822 183.778C210.82 183.766 210.82 183.753 210.822 183.74C210.638 184.212 210.435 184.741 210.199 185.298C209.76 186.327 209.255 187.488 208.618 188.711C207.947 190.035 207.2 191.319 206.38 192.557C205.471 193.95 204.438 195.258 203.293 196.466L203.246 196.508C203.718 196.253 205.045 195.564 205.134 195.54C206.654 194.979 209.925 194.785 211.048 196.211C211.229 196.453 211.355 196.73 211.421 197.025C211.487 197.319 211.49 197.624 211.43 197.92C211.369 198.216 211.248 198.495 211.072 198.741C210.897 198.986 210.672 199.192 210.411 199.345C209.33 200.029 207.768 199.817 206.635 199.382C205.356 198.91 203.265 196.81 203.095 196.645C201.902 197.845 200.629 198.965 199.286 199.996C198.507 200.6 197.705 201.186 196.888 201.761C197.299 201.554 197.667 201.37 197.724 201.351C199.244 200.784 202.515 200.591 203.633 202.021C203.817 202.266 203.945 202.547 204.011 202.846C204.077 203.145 204.077 203.454 204.014 203.753C203.95 204.052 203.822 204.334 203.64 204.58C203.458 204.826 203.226 205.03 202.958 205.179C201.873 205.868 200.31 205.651 199.182 205.216C198.054 204.782 196.209 203.04 195.732 202.568L194.788 203.225C193.278 204.268 191.763 205.297 190.309 206.354C189.799 206.727 189.308 207.114 188.817 207.496C189.181 207.312 189.487 207.161 189.539 207.142C191.059 206.576 194.325 206.382 195.449 207.808C195.629 208.05 195.756 208.327 195.822 208.622C195.887 208.916 195.89 209.221 195.83 209.517C195.77 209.813 195.648 210.092 195.473 210.338C195.297 210.583 195.072 210.789 194.812 210.942C193.731 211.631 192.168 211.414 191.036 210.98C189.903 210.545 188.241 208.969 187.67 208.417C187.198 208.822 186.684 209.233 186.226 209.648C185.919 209.941 185.603 210.205 185.31 210.512L184.437 211.409C183.899 211.999 183.342 212.608 182.832 213.193C182.474 213.604 182.143 213.996 181.803 214.392C182.308 214.014 183.314 213.297 183.408 213.25C184.824 212.462 188.024 211.772 189.351 213.014C189.565 213.226 189.733 213.481 189.843 213.762C189.952 214.044 190.001 214.345 189.987 214.646C189.972 214.948 189.894 215.243 189.757 215.512C189.621 215.782 189.429 216.019 189.195 216.209C188.251 217.049 186.651 217.064 185.466 216.818C184.163 216.544 181.86 214.874 181.572 214.661C181.034 215.317 180.501 215.964 180.005 216.582Z" fill="#385AD4"/>
<path d="M139.872 199.44C138.715 199.274 136.516 197.84 136.516 197.84C136.516 197.84 137.899 196.678 137.993 196.617C139.116 195.895 141.712 195.168 142.864 196.117C143.051 196.28 143.202 196.48 143.306 196.705C143.411 196.93 143.466 197.175 143.47 197.423C143.474 197.671 143.425 197.917 143.327 198.145C143.229 198.373 143.084 198.578 142.902 198.746C142.151 199.492 140.858 199.581 139.872 199.44Z" fill="#385AD4"/>
<path d="M118.31 188.329C118.281 188.329 118.824 186.597 118.871 186.493C119.409 185.271 121.17 183.232 122.647 183.387C122.893 183.421 123.13 183.505 123.341 183.636C123.552 183.766 123.734 183.94 123.873 184.145C124.013 184.35 124.108 184.583 124.152 184.827C124.196 185.071 124.189 185.322 124.129 185.563C123.912 186.592 122.883 187.385 121.982 187.81C120.934 188.329 118.31 188.329 118.31 188.329Z" fill="#385AD4"/>
<path d="M116.153 217.262C115.639 217.899 115.176 218.499 114.737 219.046H113.685C114.213 218.371 114.827 217.602 115.525 216.771C115.931 216.299 116.375 215.775 116.833 215.256C116.413 214.744 116.024 214.208 115.667 213.651C114.723 213.967 112.807 213.882 112.561 213.868C112.49 214.487 112.424 215.091 112.372 215.657C112.254 216.946 112.179 218.088 112.132 219.046H111.277C111.348 218.064 111.447 216.899 111.598 215.577C111.669 214.949 111.759 214.284 111.853 213.594C111.612 213.519 109.644 212.905 108.922 212.268C108.2 211.631 107.591 210.762 107.667 209.842C107.675 209.624 107.73 209.41 107.827 209.215C107.924 209.019 108.061 208.846 108.23 208.707C108.398 208.568 108.594 208.466 108.804 208.408C109.015 208.35 109.235 208.337 109.451 208.369C110.744 208.605 111.726 210.758 111.881 211.919C111.881 211.99 111.91 212.745 111.91 213.222C111.952 212.938 111.99 212.669 112.033 212.381C112.122 211.81 112.226 211.244 112.335 210.635C112.396 210.342 112.457 210.045 112.523 209.748C112.589 209.45 112.679 209.144 112.759 208.837C112.953 208.133 113.184 207.421 113.43 206.722C112.929 206.647 111.164 206.349 110.423 205.873C109.682 205.396 108.884 204.589 108.813 203.664C108.79 203.447 108.812 203.227 108.878 203.019C108.945 202.811 109.055 202.62 109.2 202.458C109.346 202.295 109.524 202.165 109.724 202.076C109.923 201.987 110.139 201.941 110.357 201.941C111.669 201.974 112.967 203.956 113.297 205.08C113.297 205.15 113.463 205.986 113.533 206.444C113.689 206.024 113.836 205.599 114.005 205.179C114.477 203.956 115.02 202.739 115.544 201.521C115.705 201.148 115.86 200.775 116.016 200.402C115.837 200.378 113.727 200.067 112.901 199.534C112.165 199.062 111.358 198.25 111.291 197.325C111.268 197.108 111.29 196.888 111.356 196.68C111.423 196.473 111.533 196.281 111.678 196.119C111.824 195.956 112.002 195.826 112.202 195.737C112.401 195.648 112.617 195.602 112.835 195.602C114.147 195.635 115.445 197.617 115.775 198.741C115.775 198.826 116.007 200.025 116.045 200.336C116.389 199.51 116.729 198.689 117.026 197.863C117.434 196.751 117.769 195.614 118.032 194.46C117.951 194.46 115.747 194.134 114.898 193.586C114.161 193.114 113.359 192.303 113.288 191.377C113.264 191.161 113.286 190.941 113.353 190.734C113.42 190.526 113.529 190.335 113.675 190.173C113.821 190.011 113.999 189.881 114.198 189.793C114.398 189.704 114.613 189.659 114.831 189.659C116.144 189.692 117.442 191.67 117.772 192.798C117.796 192.869 117.951 193.785 118.017 194.214H118.093C118.326 193.045 118.454 191.857 118.475 190.665C118.475 190.009 118.475 189.381 118.442 188.777C118.027 188.777 116.125 188.663 115.308 188.253C114.492 187.842 113.633 187.148 113.463 186.237C113.415 186.024 113.413 185.803 113.456 185.589C113.499 185.374 113.587 185.171 113.714 184.993C113.841 184.815 114.004 184.666 114.192 184.555C114.381 184.444 114.591 184.374 114.808 184.349C116.115 184.241 117.64 186.067 118.079 187.148C118.102 187.21 118.287 187.833 118.414 188.291C118.414 188.017 118.381 187.734 118.357 187.469C118.272 186.478 118.135 185.581 118.008 184.779C117.933 184.307 117.857 183.92 117.781 183.538C117.38 183.311 115.78 182.367 115.252 181.65C114.723 180.932 114.275 179.898 114.544 179.011C114.598 178.796 114.697 178.595 114.835 178.421C114.974 178.248 115.147 178.106 115.345 178.005C115.542 177.904 115.759 177.846 115.981 177.836C116.202 177.825 116.424 177.862 116.63 177.944C117.838 178.449 118.338 180.776 118.239 181.933C118.239 182.037 117.918 183.599 117.895 183.589H117.871C117.951 183.953 118.036 184.345 118.117 184.774C118.263 185.572 118.419 186.473 118.523 187.465C118.649 188.531 118.712 189.605 118.711 190.679C118.716 191.881 118.613 193.082 118.405 194.266C118.407 194.28 118.407 194.295 118.405 194.309C118.584 193.969 119.117 193.034 119.169 192.968C119.858 192.024 121.756 190.608 123.002 191.014C123.207 191.088 123.394 191.204 123.552 191.356C123.709 191.507 123.832 191.69 123.914 191.892C123.995 192.094 124.033 192.312 124.025 192.53C124.016 192.748 123.962 192.961 123.866 193.157C123.488 194.002 122.45 194.488 121.6 194.686C120.656 194.908 118.541 194.483 118.376 194.445C118.14 195.646 117.824 196.831 117.432 197.99C117.201 198.665 116.96 199.34 116.691 200.01C116.856 199.722 117.003 199.463 117.031 199.43C117.72 198.486 119.618 197.07 120.864 197.476C121.068 197.55 121.255 197.667 121.412 197.818C121.569 197.97 121.692 198.152 121.773 198.355C121.855 198.557 121.893 198.774 121.885 198.991C121.877 199.209 121.823 199.423 121.727 199.619C121.35 200.463 120.311 200.954 119.462 201.148C118.612 201.341 116.8 201.02 116.328 200.926L116.021 201.7C115.525 202.932 115.025 204.154 114.567 205.372C114.407 205.802 114.265 206.231 114.123 206.656C114.27 206.401 114.393 206.184 114.416 206.156C115.11 205.212 117.003 203.796 118.249 204.202C118.454 204.276 118.64 204.393 118.797 204.544C118.954 204.696 119.077 204.878 119.159 205.08C119.241 205.282 119.28 205.499 119.272 205.717C119.265 205.935 119.212 206.148 119.117 206.345C118.735 207.189 117.701 207.68 116.852 207.874C116.002 208.067 114.364 207.779 113.798 207.671C113.666 208.115 113.529 208.554 113.42 208.992C113.354 209.29 113.264 209.573 113.213 209.875C113.161 210.177 113.099 210.475 113.043 210.767C112.953 211.338 112.859 211.924 112.788 212.485C112.731 212.872 112.689 213.241 112.646 213.613C112.797 213.189 113.118 212.353 113.156 212.287C113.663 211.389 114.395 210.637 115.28 210.106C115.331 210.003 115.393 209.905 115.464 209.814C115.592 209.637 115.756 209.49 115.944 209.381C116.133 209.271 116.343 209.203 116.56 209.181C116.776 209.158 116.996 209.181 117.203 209.249C117.41 209.316 117.601 209.427 117.763 209.573C118.707 210.479 118.343 212.82 117.833 213.878C117.8 213.939 117.399 214.576 117.14 214.977C117.328 214.765 117.508 214.557 117.706 214.34C118.093 213.915 118.489 213.5 118.919 213.052L119.566 212.414C119.778 212.202 120.038 211.999 120.264 211.787C120.812 211.315 121.397 210.843 121.992 210.394C121.619 210.055 120.307 208.832 119.953 208.034C119.599 207.237 119.377 206.113 119.83 205.301C119.93 205.108 120.07 204.938 120.24 204.802C120.411 204.666 120.608 204.567 120.819 204.512C121.029 204.456 121.249 204.446 121.465 204.481C121.68 204.517 121.885 204.597 122.067 204.716C123.143 205.471 123.134 207.841 122.785 208.964C122.785 209.035 122.426 209.809 122.232 210.234C122.591 209.965 122.95 209.696 123.323 209.436C124.404 208.686 125.518 207.964 126.627 207.237L127.642 206.562C127.505 206.444 125.919 205.018 125.522 204.117C125.168 203.314 124.942 202.196 125.395 201.389C125.495 201.195 125.634 201.024 125.804 200.887C125.975 200.751 126.172 200.652 126.383 200.596C126.594 200.541 126.814 200.531 127.029 200.567C127.245 200.602 127.45 200.683 127.632 200.803C128.708 201.554 128.699 203.923 128.354 205.051C128.326 205.136 127.84 206.255 127.703 206.533C128.444 206.061 129.176 205.537 129.884 205.014C130.836 204.311 131.743 203.548 132.598 202.729C132.536 202.672 130.87 201.195 130.464 200.27C130.115 199.472 129.888 198.349 130.341 197.542C130.441 197.348 130.581 197.177 130.751 197.04C130.921 196.904 131.118 196.805 131.329 196.75C131.54 196.694 131.761 196.684 131.976 196.72C132.191 196.756 132.397 196.836 132.579 196.957C133.655 197.712 133.645 200.076 133.301 201.205C133.277 201.275 132.904 202.125 132.72 202.526L132.782 202.569C133.62 201.722 134.381 200.803 135.057 199.822C135.434 199.283 135.765 198.75 136.076 198.221C135.736 197.981 134.188 196.848 133.749 196.06C133.31 195.271 132.961 194.214 133.324 193.36C133.402 193.156 133.522 192.971 133.676 192.816C133.829 192.662 134.014 192.542 134.218 192.463C134.421 192.385 134.639 192.35 134.857 192.362C135.074 192.373 135.287 192.43 135.481 192.529C136.633 193.162 136.897 195.517 136.666 196.669C136.666 196.73 136.458 197.353 136.312 197.806C136.449 197.565 136.595 197.334 136.723 197.089C137.195 196.215 137.582 195.389 137.917 194.653C138.101 194.238 138.262 193.851 138.389 193.492C138.181 193.081 137.365 191.411 137.327 190.514C137.289 189.617 137.483 188.512 138.195 187.922C138.359 187.778 138.551 187.669 138.759 187.604C138.966 187.538 139.186 187.517 139.403 187.541C139.619 187.566 139.828 187.635 140.016 187.746C140.204 187.856 140.367 188.005 140.494 188.182C141.226 189.272 140.362 191.486 139.635 192.397C139.574 192.477 138.446 193.61 138.436 193.586V193.563C138.304 193.912 138.158 194.285 137.988 194.691C137.672 195.432 137.303 196.272 136.846 197.155C136.362 198.114 135.821 199.044 135.227 199.94C134.568 200.948 133.821 201.896 132.994 202.772L132.961 202.8C133.301 202.616 134.259 202.13 134.339 202.101C135.434 201.695 137.799 201.554 138.611 202.573C138.741 202.749 138.832 202.951 138.878 203.165C138.925 203.378 138.926 203.6 138.881 203.814C138.837 204.028 138.748 204.23 138.62 204.408C138.492 204.585 138.328 204.734 138.139 204.844C137.355 205.339 136.227 205.174 135.406 204.867C134.462 204.523 132.966 203.008 132.843 202.89C131.979 203.757 131.058 204.566 130.086 205.311C129.525 205.75 128.944 206.175 128.354 206.59L128.958 206.293C130.058 205.887 132.423 205.745 133.235 206.765C133.364 206.941 133.456 207.142 133.502 207.356C133.549 207.57 133.55 207.791 133.505 208.005C133.461 208.219 133.372 208.422 133.244 208.599C133.116 208.777 132.952 208.925 132.763 209.035C131.984 209.531 130.875 209.365 130.03 209.059C129.185 208.752 127.882 207.482 127.538 207.147L126.858 207.619C125.763 208.369 124.668 209.115 123.62 209.88C123.247 210.149 122.893 210.432 122.534 210.706L123.058 210.451C124.158 210.045 126.523 209.903 127.335 210.923C127.464 211.099 127.556 211.301 127.602 211.514C127.649 211.728 127.65 211.949 127.605 212.163C127.561 212.378 127.472 212.58 127.344 212.757C127.216 212.935 127.052 213.083 126.863 213.193C126.079 213.689 124.946 213.524 124.125 213.217C123.304 212.91 122.105 211.763 121.694 211.362C121.34 211.659 120.982 211.952 120.651 212.254C120.429 212.466 120.179 212.655 119.99 212.882L119.353 213.528C118.966 213.958 118.565 214.392 118.197 214.822C117.937 215.114 117.697 215.398 117.451 215.685C117.819 215.412 118.546 214.897 118.612 214.859C119.636 214.288 121.949 213.793 122.912 214.69C123.067 214.843 123.188 215.027 123.267 215.23C123.346 215.434 123.381 215.651 123.37 215.869C123.36 216.087 123.303 216.3 123.205 216.494C123.106 216.689 122.968 216.86 122.799 216.998C122.1 217.606 120.958 217.621 120.099 217.441C119.155 217.243 117.494 216.025 117.267 215.879C116.894 216.351 116.507 216.818 116.153 217.262Z" fill="#385AD4"/>
<path d="M22.8115 190.598C24.4918 190.357 27.6825 188.28 27.6825 188.28C27.6825 188.28 25.6765 186.59 25.5349 186.501C23.9065 185.458 20.1447 184.4 18.4549 185.779C18.184 186.015 17.9659 186.306 17.8149 186.633C17.6638 186.959 17.5833 187.314 17.5784 187.674C17.5735 188.034 17.6444 188.39 17.7864 188.721C17.9285 189.051 18.1386 189.348 18.403 189.592C19.5028 190.687 21.3813 190.805 22.8115 190.598Z" fill="#385AD4"/>
<path d="M54.0938 174.499C54.1316 174.499 53.348 171.988 53.282 171.832C52.4984 170.062 49.9449 167.112 47.7879 167.334C47.4313 167.381 47.0887 167.503 46.7823 167.692C46.476 167.88 46.2127 168.131 46.0097 168.428C45.8067 168.725 45.6684 169.062 45.604 169.415C45.5395 169.769 45.5503 170.133 45.6356 170.482C45.9471 171.983 47.4433 173.13 48.7508 173.749C50.2848 174.475 54.0891 174.499 54.0938 174.499Z" fill="#385AD4"/>
<path d="M57.2262 216.46C57.9672 217.38 58.6422 218.248 59.2464 219.046H60.7756C60.0063 218.064 59.1095 216.946 58.0994 215.742C57.5094 215.039 56.8675 214.302 56.2114 213.547C56.8208 212.805 57.3866 212.028 57.9059 211.22C59.2652 211.692 62.05 211.555 62.4135 211.537C62.5173 212.433 62.607 213.307 62.6825 214.133C62.8572 215.997 62.9657 217.654 63.0365 219.046H64.2732C64.174 217.63 64.0277 215.926 63.8012 214.015C63.6973 213.104 63.5699 212.127 63.433 211.135C63.7823 211.032 66.6379 210.139 67.681 209.21C68.625 208.369 69.6115 207.029 69.5076 205.688C69.4941 205.372 69.414 205.063 69.2727 204.779C69.1313 204.496 68.9319 204.246 68.6874 204.045C68.4429 203.845 68.1588 203.697 67.8537 203.614C67.5485 203.53 67.2291 203.512 66.9164 203.56C65.0284 203.895 63.6124 207.024 63.3858 208.709C63.3858 208.808 63.348 209.903 63.348 210.597C63.2867 210.191 63.2348 209.795 63.1687 209.38C63.0412 208.554 62.8902 207.728 62.7345 206.845C62.64 206.42 62.5504 205.991 62.456 205.556C62.3616 205.122 62.2294 204.683 62.1161 204.239C61.8377 203.215 61.5025 202.196 61.1391 201.171C61.866 201.063 64.4431 200.624 65.5004 199.935C66.5577 199.246 67.7376 198.07 67.8604 196.73C67.8949 196.414 67.8624 196.094 67.7649 195.792C67.6674 195.49 67.5071 195.211 67.2946 194.975C67.082 194.739 66.822 194.55 66.5315 194.422C66.241 194.293 65.9266 194.227 65.6089 194.228C63.7209 194.276 61.8329 197.15 61.3609 198.783C61.3326 198.882 61.1202 200.095 61.0164 200.761C60.7945 200.147 60.5774 199.538 60.332 198.925C59.6287 197.155 58.8593 195.389 58.1041 193.619C57.8681 193.081 57.6321 192.539 57.415 191.996C57.6746 191.958 60.719 191.524 61.9368 190.736C63.0035 190.046 64.174 188.848 64.2968 187.531C64.3312 187.216 64.299 186.898 64.2024 186.596C64.1057 186.295 63.9467 186.017 63.7357 185.781C63.5247 185.545 63.2664 185.356 62.9776 185.227C62.6888 185.097 62.376 185.03 62.0595 185.029C60.1715 185.081 58.2835 187.955 57.8115 189.589C57.7737 189.711 57.4716 191.453 57.4197 191.897C56.9147 190.702 56.4285 189.508 56.0037 188.314C55.4108 186.702 54.9236 185.053 54.5452 183.377C54.6632 183.377 57.8493 182.905 59.0906 182.112C60.1573 181.423 61.3279 180.248 61.4506 178.907C61.485 178.593 61.4529 178.274 61.3562 177.973C61.2596 177.671 61.1006 177.394 60.8896 177.158C60.6785 176.922 60.4203 176.733 60.1315 176.603C59.8427 176.474 59.5299 176.406 59.2133 176.406C57.3253 176.457 55.4373 179.332 54.9653 180.965C54.9323 181.069 54.701 182.381 54.6066 183.028H54.498C54.1159 181.337 53.8853 179.615 53.8089 177.883C53.7806 176.939 53.8089 176.023 53.8514 175.136C54.4556 175.112 57.2168 174.971 58.4015 174.381C59.5862 173.791 60.8323 172.776 61.0777 171.454C61.1459 171.145 61.1484 170.825 61.0851 170.515C61.0219 170.205 60.8942 169.912 60.7105 169.655C60.5268 169.397 60.291 169.181 60.0185 169.02C59.7459 168.859 59.4427 168.758 59.1284 168.721C57.2404 168.566 55.0408 171.214 54.4084 172.781C54.3753 172.866 54.1063 173.777 53.9364 174.437C53.9647 174.041 53.9836 173.626 54.0166 173.243C54.1346 171.827 54.3328 170.501 54.5216 169.344C54.6302 168.688 54.7435 168.098 54.8568 167.546C55.4373 167.211 57.7596 165.842 58.5242 164.79C59.2888 163.737 59.9402 162.246 59.5485 160.957C59.4663 160.652 59.321 160.367 59.1219 160.122C58.9228 159.876 58.6744 159.676 58.3927 159.532C58.111 159.389 57.8024 159.307 57.4868 159.29C57.1712 159.274 56.8557 159.324 56.5607 159.437C54.8001 160.169 54.078 163.529 54.2007 165.224C54.2007 165.37 54.6727 167.641 54.6727 167.622H54.7104C54.5924 168.15 54.4697 168.717 54.3517 169.344C54.1393 170.496 53.9128 171.804 53.7617 173.243C53.5808 174.791 53.491 176.348 53.4927 177.907C53.4858 179.647 53.6326 181.384 53.9316 183.099V183.155C53.6721 182.683 52.898 181.31 52.8272 181.211C51.8218 179.837 49.0512 177.774 47.267 178.379C46.9693 178.486 46.6977 178.655 46.4697 178.875C46.2418 179.095 46.0628 179.36 45.9443 179.653C45.8258 179.947 45.7706 180.262 45.7822 180.578C45.7937 180.895 45.8719 181.205 46.0115 181.489C46.559 182.716 48.0553 183.424 49.3155 183.707C50.7315 184.028 53.757 183.41 53.9977 183.363C54.3538 185.105 54.8269 186.82 55.4137 188.498C55.7441 189.48 56.1076 190.457 56.4852 191.434C56.2444 191.014 56.0132 190.641 56.0132 190.589C55.0078 189.22 52.2608 187.158 50.453 187.757C50.1553 187.865 49.8837 188.034 49.6557 188.254C49.4278 188.473 49.2488 188.738 49.1303 189.032C49.0119 189.325 48.9566 189.641 48.9682 189.957C48.9797 190.273 49.0579 190.584 49.1975 190.868C49.745 192.095 51.2412 192.798 52.5015 193.086C53.7617 193.374 56.3624 192.897 57.0516 192.765C57.1979 193.138 57.3442 193.511 57.4952 193.884C58.2174 195.668 58.9443 197.447 59.6004 199.213C59.8364 199.836 60.0393 200.459 60.2517 201.077C60.0393 200.704 59.8552 200.393 59.8222 200.35C58.8168 198.977 56.0462 196.914 54.262 197.518C53.9644 197.626 53.6927 197.795 53.4648 198.014C53.2369 198.234 53.0578 198.499 52.9394 198.793C52.8209 199.086 52.7656 199.402 52.7772 199.718C52.7888 200.034 52.8669 200.345 53.0065 200.629C53.554 201.856 55.055 202.564 56.3105 202.847C57.566 203.13 59.9166 202.705 60.7379 202.55C60.9314 203.192 61.1296 203.833 61.2854 204.466C61.3845 204.9 61.512 205.311 61.5875 205.75C61.663 206.189 61.7527 206.618 61.8376 207.043C61.9651 207.869 62.102 208.723 62.2058 209.535C62.286 210.097 62.3474 210.635 62.4135 211.173C62.1869 210.555 61.7244 209.346 61.6725 209.247C60.9329 207.945 59.8717 206.855 58.5903 206.08C58.5157 205.932 58.4272 205.791 58.326 205.66C58.14 205.404 57.9023 205.19 57.6283 205.032C57.3542 204.874 57.05 204.775 56.7353 204.742C56.4206 204.709 56.1025 204.743 55.8016 204.841C55.5007 204.939 55.2238 205.099 54.9889 205.311C53.6107 206.628 54.144 210.031 54.8851 211.555C54.9323 211.645 55.5128 212.57 55.8952 213.151C55.6167 212.844 55.3571 212.542 55.0692 212.23C54.5075 211.612 53.9316 211.008 53.3086 210.342L52.3646 209.422C52.0578 209.106 51.6944 208.818 51.3545 208.506C50.5568 207.812 49.712 207.142 48.8482 206.491C49.391 205.995 51.2884 204.221 51.8029 203.05C52.3174 201.879 52.6431 200.265 51.987 199.09C51.8419 198.808 51.6392 198.561 51.3921 198.363C51.145 198.165 50.859 198.021 50.5527 197.941C50.2465 197.861 49.9267 197.846 49.6144 197.898C49.302 197.949 49.004 198.066 48.7396 198.24C47.1773 199.331 47.1915 202.767 47.6918 204.376C47.7248 204.475 48.2157 205.603 48.4989 206.217C47.975 205.825 47.4558 205.434 46.913 205.061C45.3507 203.975 43.7364 202.923 42.1269 201.865C41.6549 201.544 41.1499 201.219 40.659 200.888C40.8525 200.718 43.1606 198.651 43.7317 197.344C44.2415 196.182 44.5719 194.559 43.9158 193.383C43.7707 193.102 43.568 192.854 43.3209 192.656C43.0738 192.458 42.7878 192.315 42.4815 192.235C42.1753 192.154 41.8555 192.14 41.5432 192.191C41.2308 192.243 40.9328 192.36 40.6684 192.534C39.1108 193.624 39.1203 197.06 39.6253 198.67C39.6631 198.788 40.3711 200.412 40.5693 200.813C39.4932 200.095 38.4312 199.368 37.4069 198.608C36.0217 197.595 34.7051 196.492 33.4657 195.304C33.5554 195.224 35.972 193.081 36.5573 191.741C37.0718 190.575 37.3975 188.951 36.7414 187.781C36.5963 187.499 36.3936 187.252 36.1465 187.054C35.8994 186.856 35.6134 186.712 35.3071 186.632C35.0009 186.552 34.6811 186.537 34.3688 186.589C34.0564 186.64 33.7584 186.757 33.494 186.931C31.9364 188.022 31.9459 191.458 32.4509 193.067C32.484 193.176 33.022 194.412 33.2911 194.993L33.2014 195.054C31.9842 193.824 30.8786 192.487 29.8974 191.061C29.3499 190.282 28.8684 189.508 28.4153 188.748C28.8873 188.394 31.1293 186.757 31.7948 185.605C32.4604 184.453 32.9324 182.929 32.4084 181.687C32.2961 181.392 32.1225 181.123 31.8991 180.899C31.6757 180.675 31.4075 180.501 31.1121 180.387C30.8167 180.274 30.5007 180.225 30.1848 180.242C29.8689 180.26 29.5603 180.343 29.2791 180.488C27.6082 181.404 27.24 184.821 27.561 186.492C27.561 186.582 27.8584 187.483 28.0708 188.14C27.8725 187.795 27.6601 187.436 27.476 187.101C26.7869 185.836 26.23 184.637 25.7485 183.571C25.4748 182.962 25.2435 182.405 25.0311 181.886C25.3332 181.286 26.5132 178.86 26.5745 177.562C26.6359 176.264 26.348 174.659 25.3143 173.786C25.0776 173.576 24.7995 173.419 24.498 173.323C24.1964 173.228 23.8783 173.197 23.5641 173.233C23.2498 173.268 22.9466 173.37 22.6741 173.53C22.4015 173.69 22.1657 173.906 21.982 174.164C20.92 175.745 22.1708 178.945 23.2233 180.3C23.3177 180.418 24.9461 182.055 24.965 182.027C24.9665 182.015 24.9665 182.002 24.965 181.989C25.1585 182.499 25.3756 183.037 25.6211 183.622C26.0931 184.703 26.6123 185.916 27.2778 187.2C27.9854 188.592 28.7734 189.941 29.6378 191.241C30.5763 192.722 31.6457 194.117 32.8332 195.408L32.8804 195.451C32.4084 195.182 30.9924 194.478 30.8839 194.436C29.2885 193.846 25.8618 193.643 24.6818 195.139C24.4898 195.393 24.3539 195.685 24.2831 195.996C24.2123 196.307 24.2082 196.629 24.2711 196.941C24.334 197.253 24.4625 197.549 24.648 197.808C24.8335 198.067 25.0719 198.283 25.3473 198.443C26.4848 199.165 28.1227 198.915 29.3121 198.486C30.6573 197.981 32.8521 195.786 33.0268 195.611C34.2806 196.872 35.6178 198.047 37.0293 199.128C37.8459 199.76 38.686 200.378 39.5404 200.983L38.6672 200.548C37.0718 199.958 33.6404 199.755 32.4651 201.252C32.2738 201.506 32.1385 201.798 32.0681 202.109C31.9977 202.419 31.9939 202.741 32.0567 203.053C32.1196 203.365 32.2478 203.66 32.4328 203.919C32.6179 204.178 32.8557 204.395 33.1306 204.556C34.2681 205.273 35.906 205.028 37.0954 204.593C38.2848 204.159 40.2153 202.309 40.7156 201.813L41.7021 202.502C43.288 203.593 44.874 204.678 46.4221 205.806C46.9602 206.194 47.4747 206.599 47.9939 207.001C47.6116 206.807 47.2859 206.651 47.234 206.628C45.6386 206.038 42.2119 205.835 41.0319 207.331C40.8408 207.586 40.7058 207.878 40.6358 208.189C40.5657 208.499 40.5623 208.821 40.6256 209.133C40.6889 209.446 40.8175 209.741 41.0031 209.999C41.1886 210.258 41.4269 210.475 41.7021 210.635C42.8349 211.352 44.4775 211.107 45.6669 210.673C46.8564 210.239 48.598 208.563 49.1928 207.982C49.712 208.412 50.2264 208.837 50.7079 209.276C51.0336 209.582 51.364 209.856 51.6519 210.182L52.5959 211.126C53.1576 211.744 53.7428 212.377 54.2762 213.014C54.6538 213.443 55.0031 213.854 55.3524 214.269C54.8237 213.878 53.7664 213.122 53.672 213.071C52.1852 212.245 48.8293 211.522 47.4369 212.825C47.2121 213.048 47.0365 213.315 46.9217 213.61C46.8069 213.905 46.7554 214.22 46.7706 214.536C46.7857 214.852 46.8671 215.162 47.0096 215.444C47.152 215.727 47.3523 215.976 47.5974 216.176C48.6122 217.059 50.2689 217.078 51.5103 216.818C52.8791 216.53 55.2863 214.774 55.5978 214.553C56.1689 215.138 56.7117 215.813 57.2262 216.46Z" fill="#385AD4"/>
<path d="M225.146 219.283H14.1618C14.0992 219.283 14.0392 219.258 13.9949 219.213C13.9506 219.169 13.9258 219.109 13.9258 219.047C13.9258 218.984 13.9506 218.924 13.9949 218.88C14.0392 218.835 14.0992 218.811 14.1618 218.811H225.146C225.208 218.811 225.268 218.835 225.313 218.88C225.357 218.924 225.382 218.984 225.382 219.047C225.382 219.109 225.357 219.169 225.313 219.213C225.268 219.258 225.208 219.283 225.146 219.283Z" fill="#263238"/>
<path d="M82.1678 85.8381L69.2539 72.8203L120.82 78.0123L124.077 86.8623L82.1678 85.8381Z" fill="#385AD4"/>
<path d="M124.077 87.0992L82.1632 86.0749C82.1334 86.075 82.1039 86.0692 82.0763 86.0579C82.0488 86.0465 82.0238 86.0299 82.0027 86.0088L69.0935 72.9864C69.0587 72.9519 69.0354 72.9076 69.027 72.8594C69.0185 72.8112 69.0253 72.7615 69.0463 72.7173C69.0673 72.6738 69.1012 72.6377 69.1435 72.6141C69.1857 72.5904 69.2341 72.5803 69.2823 72.5852L120.848 77.7772C120.892 77.7808 120.934 77.7969 120.969 77.8237C121.005 77.8505 121.031 77.8867 121.047 77.9282L124.303 86.7829C124.315 86.8189 124.319 86.8571 124.314 86.8947C124.309 86.9324 124.296 86.9684 124.275 87C124.252 87.031 124.222 87.056 124.188 87.0733C124.153 87.0905 124.115 87.0993 124.077 87.0992ZM82.267 85.6076L123.737 86.6177L120.65 78.2303L69.8864 73.1185L82.267 85.6076Z" fill="#263238"/>
<path d="M123.178 77.7109L82.1662 85.8388L81.5195 149.563L122.881 148.483L123.178 77.7109Z" fill="#385AD4"/>
<path d="M81.5212 149.799C81.4591 149.797 81.3999 149.772 81.356 149.728C81.333 149.706 81.3148 149.68 81.3026 149.651C81.2904 149.621 81.2845 149.59 81.2852 149.558L81.9319 85.8381C81.9318 85.7837 81.9506 85.731 81.985 85.6888C82.0194 85.6467 82.0673 85.6177 82.1207 85.6068L123.133 77.479C123.168 77.4722 123.203 77.4733 123.238 77.4823C123.272 77.4913 123.304 77.5079 123.331 77.5309C123.357 77.5538 123.379 77.582 123.393 77.6138C123.408 77.6455 123.416 77.68 123.416 77.715L123.119 148.482C123.119 148.513 123.114 148.543 123.102 148.572C123.091 148.601 123.074 148.627 123.053 148.649C123.031 148.671 123.005 148.688 122.977 148.7C122.949 148.712 122.918 148.718 122.887 148.718L81.5259 149.799H81.5212ZM82.3991 86.0316L81.7619 149.317L122.647 148.255L122.944 77.9982L82.3991 86.0316Z" fill="#263238"/>
<path d="M170.684 86.999L187.549 74.2031L134.652 78.7721L124.074 86.8622L170.684 86.999Z" fill="#385AD4"/>
<path d="M170.684 87.2343L124.074 87.0974C124.024 87.0974 123.975 87.0819 123.935 87.0532C123.894 87.0244 123.864 86.9838 123.847 86.937C123.832 86.8899 123.832 86.8396 123.847 86.7924C123.861 86.7453 123.889 86.7036 123.927 86.6726L134.519 78.5826C134.555 78.556 134.597 78.5396 134.642 78.5354L187.534 73.9664C187.585 73.9603 187.637 73.972 187.681 73.9995C187.725 74.027 187.758 74.0686 187.775 74.1174C187.794 74.1651 187.796 74.2176 187.783 74.267C187.769 74.3163 187.74 74.36 187.699 74.3912L170.835 87.1871C170.792 87.2209 170.738 87.2377 170.684 87.2343ZM124.768 86.6254L170.603 86.7623L186.755 74.4903L134.741 78.979L124.768 86.6254Z" fill="#263238"/>
<path d="M123.18 77.7109L170.687 86.9999L171.253 149.507L122.883 148.483L123.18 77.7109Z" fill="#385AD4"/>
<path d="M171.25 149.742L122.88 148.718C122.818 148.717 122.759 148.691 122.716 148.647C122.673 148.603 122.648 148.544 122.648 148.482L122.946 77.7102C122.946 77.6759 122.953 77.642 122.968 77.611C122.983 77.5799 123.004 77.5526 123.031 77.5309C123.057 77.508 123.088 77.4914 123.121 77.4823C123.155 77.4733 123.19 77.4722 123.224 77.4789L170.731 86.7679C170.785 86.7778 170.834 86.8064 170.87 86.8486C170.905 86.8908 170.924 86.9441 170.925 86.9992L171.491 149.506C171.489 149.57 171.464 149.63 171.42 149.676C171.374 149.719 171.313 149.743 171.25 149.742ZM123.106 148.251L171 149.265L170.438 87.1927L123.404 77.9981L123.106 148.251Z" fill="#263238"/>
<path d="M123.18 77.7107L141.286 53.9785L186.72 65.8918L170.686 86.9996L123.18 77.7107Z" fill="#385AD4"/>
<path d="M170.684 87.2351H170.637L123.13 77.9414C123.091 77.9342 123.054 77.9169 123.024 77.8913C122.993 77.8656 122.97 77.8325 122.955 77.7951C122.942 77.7575 122.938 77.7172 122.944 77.6778C122.95 77.6383 122.965 77.6008 122.989 77.5686L141.094 53.8364C141.123 53.7998 141.161 53.7722 141.204 53.7571C141.248 53.742 141.295 53.74 141.34 53.7514L186.775 65.6647C186.813 65.673 186.849 65.6913 186.878 65.7179C186.907 65.7444 186.928 65.7782 186.94 65.8158C186.952 65.8519 186.956 65.8906 186.95 65.9284C186.944 65.9662 186.929 66.0021 186.907 66.0329L170.859 87.1407C170.838 87.168 170.812 87.1905 170.782 87.2068C170.752 87.223 170.718 87.2327 170.684 87.2351ZM123.593 77.5544L170.585 86.7395L186.317 66.0329L141.373 54.2329L123.593 77.5544Z" fill="#263238"/>
<path d="M82.1665 85.8374L68.4219 65.3384L107.485 54.2559L123.179 77.7095L82.1665 85.8374Z" fill="#385AD4"/>
<path d="M82.1664 86.0749C82.1273 86.0753 82.0888 86.0661 82.0542 86.048C82.0196 86.0298 81.99 86.0034 81.9681 85.9711L68.2282 65.4721C68.2077 65.4411 68.1946 65.4059 68.1897 65.3692C68.1847 65.3324 68.1883 65.2949 68.1999 65.2597C68.2128 65.225 68.2336 65.1937 68.2607 65.1683C68.2877 65.1429 68.3202 65.1241 68.3557 65.1134L107.418 54.0308C107.467 54.0169 107.518 54.0186 107.566 54.0355C107.613 54.0524 107.654 54.0838 107.683 54.1252L123.372 77.5836C123.394 77.6152 123.408 77.6518 123.412 77.6901C123.416 77.7283 123.41 77.767 123.396 77.8026C123.381 77.8382 123.358 77.8696 123.329 77.8941C123.299 77.9184 123.263 77.935 123.226 77.9423L82.2089 86.0702L82.1664 86.0749ZM68.7993 65.4768L82.2749 85.5793L122.787 77.5553L107.385 54.5359L68.7993 65.4768Z" fill="#263238"/>
<path d="M81.5195 149.563L130.4 150.772L170.591 149.096L122.881 148.482L81.5195 149.563Z" fill="#263238"/>
<path d="M130.411 151.007L81.5164 149.799C81.455 149.797 81.3969 149.771 81.3539 149.727C81.3109 149.683 81.2863 149.624 81.2852 149.563C81.2851 149.501 81.3094 149.442 81.3526 149.398C81.3958 149.354 81.4547 149.328 81.5164 149.327L122.878 148.246L170.597 148.86C170.658 148.862 170.717 148.888 170.76 148.932C170.803 148.976 170.827 149.034 170.828 149.096C170.828 149.157 170.805 149.215 170.763 149.259C170.72 149.303 170.663 149.329 170.602 149.332L130.411 151.007ZM90.8196 149.554L130.406 150.535L161.926 149.223L122.878 148.718L90.8196 149.554Z" fill="#263238"/>
<path d="M141.204 124.971V117.551C142.945 116.237 144.556 114.76 146.014 113.138C147.404 111.61 148.549 109.876 149.408 107.998C150.242 106.149 150.667 104.141 150.654 102.112C150.654 100.607 150.352 99.4643 149.757 98.6808C149.432 98.2797 149.02 97.9578 148.552 97.7395C148.085 97.5212 147.573 97.4121 147.057 97.4205C146.608 97.3601 146.15 97.4015 145.719 97.5417C145.288 97.6819 144.893 97.9172 144.565 98.2304C144.237 98.5436 143.983 98.9265 143.823 99.3509C143.663 99.7753 143.6 100.23 143.64 100.682C143.63 101.232 143.699 101.78 143.843 102.31C143.975 102.782 144.121 103.292 144.277 103.84L136.333 105.256C136.071 104.418 135.858 103.565 135.696 102.702C135.541 101.868 135.464 101.021 135.465 100.172C135.465 96.8117 136.48 94.222 138.509 92.4032C140.539 90.5844 143.446 89.7663 147.232 89.9488C151.099 90.1282 154.076 91.2924 156.162 93.4416C158.248 95.5908 159.291 98.5581 159.291 102.344C159.316 104.63 158.902 106.9 158.074 109.032C157.236 111.122 156.05 113.054 154.567 114.748C152.953 116.586 151.137 118.236 149.153 119.666V125.33L141.204 124.971ZM140.916 137.187V128.78L149.493 129.191V137.597L140.916 137.187Z" fill="white"/>
<path d="M84.9336 113.784C85.0626 105.94 85.1916 98.0935 85.3206 90.2457L87.1426 89.887C87.4383 94.8115 87.7373 99.7329 88.0394 104.651C88.4642 99.5881 88.8842 94.5252 89.2996 89.4622L91.0602 89.1129L90.9894 113.043L89.7338 113.199V97.0425C89.3279 102.48 88.9188 107.914 88.5066 113.345L87.4305 113.478C87.1158 108.15 86.7917 102.823 86.4582 97.4956C86.37 102.87 86.2788 108.248 86.1844 113.629L84.9336 113.784ZM92.1599 112.902L92.3723 88.8533L94.081 88.5182L93.878 112.689L92.1599 112.902ZM97.3519 112.595C97.094 112.625 96.833 112.578 96.6019 112.459C96.3709 112.341 96.1801 112.156 96.0539 111.929C95.6337 111.194 95.3716 110.379 95.2846 109.536C95.0943 108.146 95.0028 106.744 95.0108 105.34L96.5023 104.396C96.5023 105.397 96.5354 106.228 96.592 106.893C96.6125 107.392 96.6998 107.886 96.8516 108.361C96.9696 108.673 97.1206 108.833 97.3 108.795C97.4794 108.758 97.6776 108.545 97.772 108.13C97.862 107.663 97.9063 107.189 97.9042 106.714C97.9298 105.858 97.8506 105.002 97.6682 104.165C97.5002 103.485 97.2808 102.82 97.0121 102.173C96.6675 101.347 96.4976 100.932 96.153 100.11C95.82 99.3204 95.5701 98.4979 95.4073 97.6561C95.1977 96.5074 95.1075 95.34 95.1382 94.1727C95.0932 92.5746 95.3117 90.9799 95.7849 89.4527C96.2002 88.3011 96.7619 87.6544 97.4699 87.5128C97.6633 87.468 97.8656 87.4823 98.0508 87.5539C98.2359 87.6254 98.3953 87.7509 98.5083 87.914C98.8229 88.3724 99.0325 88.8946 99.1219 89.4433C99.2769 90.1535 99.3763 90.8747 99.4193 91.6003C99.4712 92.3886 99.5042 93.1721 99.509 93.9603L98.0363 94.8571C98.0363 94.1114 98.0174 93.46 97.9797 92.9031C97.9715 92.4667 97.9129 92.0327 97.805 91.6098C97.7154 91.303 97.5738 91.1708 97.385 91.2038C97.1962 91.2369 97.031 91.4871 96.913 91.9355C96.8107 92.4149 96.7585 92.9037 96.7572 93.3939C96.7323 94.0943 96.7941 94.795 96.9413 95.4802C97.0846 96.0384 97.2676 96.5858 97.4888 97.118L98.3242 99.1523C98.7079 100.09 99.0064 101.06 99.2163 102.05C99.4867 103.426 99.6038 104.827 99.5656 106.228C99.5643 107.288 99.4663 108.347 99.273 109.39C99.1389 110.187 98.8758 110.957 98.4942 111.67C98.3929 111.902 98.2378 112.108 98.0417 112.268C97.8455 112.429 97.614 112.541 97.3661 112.595H97.3519ZM101.236 111.788C101.29 104.802 101.34 97.8134 101.388 90.8215L100.085 91.0622C100.085 89.566 100.085 88.8202 100.113 87.324L104.427 86.4744L104.404 90.2504L103.12 90.4911C103.073 97.5145 103.024 104.539 102.973 111.566L101.236 111.788ZM105.012 111.316C105.069 102.983 105.124 94.6447 105.178 86.2998L108.855 85.5729C108.855 86.9889 108.855 87.7063 108.855 89.1318L106.896 89.4952C106.896 92.1667 106.867 93.4978 106.853 96.1693L108.364 95.9144C108.364 97.3304 108.364 98.0667 108.364 99.5016L106.849 99.7376L106.801 107.615L108.784 107.356C108.784 108.772 108.784 109.451 108.784 110.848L105.012 111.316ZM109.596 110.759L109.742 85.4124L111.932 84.9829C112.182 84.9206 112.443 84.915 112.695 84.9664C112.947 85.0179 113.185 85.1251 113.39 85.2802C113.796 85.587 114.103 86.2242 114.334 87.1682C114.58 88.5083 114.683 89.8705 114.641 91.2322C114.641 92.2894 114.607 93.2334 114.537 94.0642C114.489 94.797 114.382 95.5246 114.216 96.2401C114.095 96.7884 113.878 97.3109 113.575 97.7835C114.018 102.711 114.24 105.18 114.684 110.14L112.914 110.358C112.55 105.77 112.366 103.481 112.003 98.9163L111.399 99.0107C111.375 103.627 111.361 105.935 111.337 110.551L109.596 110.759ZM111.403 95.9238L111.904 95.8389C112.048 95.8121 112.183 95.7509 112.298 95.6605C112.413 95.5701 112.504 95.4532 112.564 95.3197C112.756 94.9093 112.872 94.4682 112.909 94.017C112.983 93.324 113.019 92.6276 113.018 91.9307C113.046 91.0389 112.98 90.1465 112.819 89.2687C112.678 88.6739 112.413 88.4143 112.026 88.4851L111.441 88.5984C111.451 91.5343 111.441 92.9833 111.427 95.9333L111.403 95.9238ZM116.643 109.895C116.643 105.793 116.676 103.759 116.694 99.6432C116.169 94.5456 115.643 89.4496 115.118 84.3551L116.737 84.0342C117.082 87.6025 117.251 89.3914 117.601 92.9786C117.955 89.2734 118.129 87.4137 118.483 83.6896L120.05 83.3828C119.484 88.7164 118.918 94.0532 118.351 99.3931C118.351 103.514 118.351 105.572 118.309 109.692L116.643 109.895ZM93.9299 143.634C93.996 135.569 94.0636 127.502 94.1329 119.434L96.2805 119.217C96.6306 119.177 96.985 119.234 97.3047 119.382C97.6652 119.586 97.9537 119.896 98.1307 120.27C98.4137 120.865 98.5955 121.503 98.6688 122.158C98.8059 123.212 98.8627 124.276 98.8387 125.339C98.8402 126.188 98.7851 127.036 98.6735 127.878C98.605 128.455 98.459 129.021 98.2393 129.559C98.1072 129.908 97.8718 130.21 97.5643 130.422C97.7553 130.511 97.9264 130.638 98.0675 130.794C98.2086 130.951 98.3167 131.134 98.3856 131.333C98.6349 131.964 98.7938 132.626 98.8576 133.302C98.9741 134.295 99.0229 135.294 99.0039 136.294C99.0048 137.371 98.9418 138.448 98.8151 139.518C98.7394 140.286 98.5812 141.044 98.3431 141.779C98.1818 142.276 97.9126 142.733 97.5549 143.114C97.2715 143.406 96.8853 143.576 96.4787 143.586L93.9299 143.634ZM95.7802 129.082L96.2097 129.049C96.3509 129.044 96.4882 129.002 96.6083 128.927C96.7283 128.853 96.8268 128.748 96.8941 128.624C97.0873 128.257 97.203 127.853 97.2339 127.439C97.3055 126.813 97.3402 126.182 97.3378 125.551C97.3536 124.954 97.3141 124.357 97.2198 123.767C97.1813 123.423 97.0472 123.096 96.8327 122.823C96.7472 122.733 96.6413 122.664 96.5239 122.623C96.4065 122.582 96.2809 122.57 96.1578 122.587L95.8415 122.615C95.8179 125.207 95.8179 126.495 95.7802 129.082ZM95.6905 140.103H96.1625C96.5967 140.103 96.8988 139.763 97.0687 139.135C97.2657 138.205 97.3559 137.255 97.3378 136.303C97.3517 135.534 97.3186 134.765 97.2386 134C97.2072 133.564 97.0833 133.139 96.8752 132.754C96.8074 132.635 96.7071 132.537 96.5859 132.473C96.4647 132.408 96.3276 132.38 96.1908 132.391L95.7424 132.419C95.7282 135.492 95.7188 137.026 95.6905 140.103ZM102.336 143.742C102.025 143.746 101.719 143.659 101.456 143.491C101.194 143.324 100.986 143.083 100.859 142.798C100.434 141.934 100.176 140.997 100.099 140.037C99.9376 138.602 99.8682 137.158 99.8913 135.713L99.9621 126.528C99.9576 125.077 100.046 123.626 100.226 122.186C100.324 121.202 100.596 120.243 101.029 119.354C101.163 119.06 101.369 118.806 101.628 118.613C101.887 118.421 102.191 118.297 102.511 118.254C102.813 118.22 103.117 118.281 103.384 118.427C103.65 118.573 103.864 118.798 103.998 119.071C104.438 119.911 104.706 120.83 104.786 121.775C104.951 123.218 105.02 124.67 104.994 126.122C104.994 129.851 104.961 131.716 104.932 135.444C104.937 136.918 104.849 138.39 104.668 139.853C104.573 140.838 104.299 141.798 103.861 142.685C103.732 142.987 103.52 143.246 103.251 143.433C102.981 143.62 102.664 143.727 102.336 143.742ZM102.36 140.094C102.582 140.094 102.752 139.933 102.832 139.622C102.957 139.231 103.031 138.827 103.054 138.418C103.091 137.913 103.11 137.375 103.115 136.804C103.148 132.084 103.162 129.747 103.195 125.042C103.195 124.47 103.195 123.937 103.153 123.451C103.139 123.055 103.072 122.663 102.955 122.285C102.851 121.997 102.686 121.865 102.483 121.884C102.28 121.903 102.114 122.068 102.011 122.356C101.89 122.745 101.817 123.148 101.793 123.555C101.756 124.027 101.737 124.579 101.732 125.15C101.699 129.832 101.68 132.173 101.647 136.86C101.647 137.432 101.647 137.965 101.685 138.46C101.697 138.862 101.762 139.261 101.878 139.645C101.982 139.954 102.143 140.103 102.36 140.094ZM105.319 143.322C105.914 138.826 106.502 134.327 107.085 129.828C106.471 125.183 106.141 122.875 105.546 118.278L107.179 118.113C107.566 120.968 107.755 122.398 108.123 125.273C108.482 122.342 108.656 120.869 109.015 117.924L110.469 117.777C109.931 122.148 109.389 126.52 108.845 130.894C109.492 135.784 109.817 138.243 110.474 143.166L108.855 143.209C108.43 140.037 108.213 138.451 107.788 135.298C107.377 138.494 107.174 140.089 106.764 143.265L105.319 143.322Z" fill="white"/>
<path d="M120.508 56.7245V49.3046C122.05 47.6784 123.461 45.9329 124.728 44.0843C125.948 42.308 126.945 40.3882 127.697 38.3684C128.423 36.4189 128.793 34.3551 128.792 32.2749C128.792 30.7708 128.529 29.6694 128.003 28.9709C127.478 28.2723 126.691 28.0049 125.643 28.1685C125.216 28.2181 124.802 28.3527 124.427 28.5642C124.051 28.7757 123.722 29.06 123.458 29.4004C122.898 30.1506 122.611 31.0701 122.646 32.0058C122.637 32.5431 122.698 33.0793 122.826 33.6012L123.208 35.0597L116.246 37.8162C116.009 37.0226 115.82 36.2156 115.68 35.3995C115.543 34.5759 115.475 33.7423 115.477 32.9074C115.477 29.5467 116.366 26.7855 118.143 24.6238C119.921 22.462 122.472 21.153 125.795 20.6967C129.177 20.231 131.786 20.895 133.62 22.6886C135.455 24.4822 136.369 27.2733 136.363 31.0618C136.373 33.3947 136.013 35.7144 135.296 37.9342C134.561 40.1666 133.527 42.2893 132.223 44.2448C130.826 46.3376 129.235 48.294 127.47 50.0882V55.7522L120.508 56.7245ZM120.253 68.9965V60.5854L127.777 59.547V67.9675L120.253 68.9965Z" fill="#263238"/>
<path d="M163.257 35.1361H148.681C148.619 35.1361 148.559 35.1112 148.514 35.0669C148.47 35.0227 148.445 34.9627 148.445 34.9001C148.445 34.8375 148.47 34.7774 148.514 34.7332C148.559 34.6889 148.619 34.6641 148.681 34.6641H163.271C163.333 34.6641 163.393 34.6889 163.438 34.7332C163.482 34.7774 163.507 34.8375 163.507 34.9001C163.506 34.9321 163.499 34.9637 163.486 34.993C163.473 35.0222 163.455 35.0486 163.431 35.0706C163.408 35.0926 163.381 35.1097 163.351 35.1209C163.321 35.1322 163.289 35.1373 163.257 35.1361Z" fill="#263238"/>
<path d="M106.139 35.1361H91.568C91.5054 35.1361 91.4454 35.1112 91.4012 35.0669C91.3569 35.0227 91.332 34.9627 91.332 34.9001C91.332 34.8375 91.3569 34.7774 91.4012 34.7332C91.4454 34.6889 91.5054 34.6641 91.568 34.6641H106.158C106.22 34.6641 106.28 34.6889 106.324 34.7332C106.369 34.7774 106.394 34.8375 106.394 34.9001C106.394 34.9327 106.387 34.965 106.374 34.995C106.361 35.0249 106.342 35.0518 106.318 35.074C106.294 35.0962 106.266 35.1131 106.235 35.1238C106.204 35.1345 106.171 35.1387 106.139 35.1361Z" fill="#263238"/>
<path d="M144.107 26.8757C144.058 26.8757 144.009 26.8601 143.969 26.8312C143.929 26.8022 143.899 26.7613 143.883 26.7143C143.868 26.6673 143.867 26.6166 143.882 26.5693C143.897 26.5221 143.926 26.4806 143.965 26.4509L152.976 19.6919C153.026 19.6555 153.089 19.6401 153.151 19.6489C153.212 19.6577 153.268 19.69 153.306 19.7391C153.344 19.7891 153.36 19.8521 153.351 19.914C153.342 19.976 153.309 20.0319 153.259 20.0695L144.249 26.8285C144.208 26.8601 144.158 26.8768 144.107 26.8757Z" fill="#263238"/>
<path d="M107.318 52.3931C107.268 52.3931 107.22 52.3776 107.18 52.3486C107.14 52.3196 107.11 52.2788 107.094 52.2318C107.078 52.1848 107.078 52.1341 107.093 52.0868C107.108 52.0395 107.137 51.9981 107.176 51.9683L116.187 45.2093C116.237 45.1718 116.3 45.1556 116.362 45.1645C116.424 45.1733 116.48 45.2064 116.517 45.2565C116.554 45.307 116.569 45.3696 116.56 45.4312C116.551 45.4928 116.519 45.5486 116.47 45.5869L107.46 52.346C107.418 52.3747 107.369 52.3911 107.318 52.3931Z" fill="#263238"/>
<path d="M111.634 22.1845C111.583 22.1824 111.534 22.1661 111.492 22.1373L102.486 15.3783C102.443 15.3389 102.417 15.2851 102.411 15.2272C102.406 15.1693 102.422 15.1115 102.456 15.0647C102.491 15.0179 102.541 14.9855 102.598 14.9737C102.655 14.9619 102.714 14.9715 102.765 15.0007L111.775 21.7597C111.8 21.7783 111.821 21.8016 111.837 21.8283C111.852 21.8549 111.863 21.8845 111.867 21.9151C111.872 21.9458 111.87 21.9771 111.862 22.0071C111.854 22.0371 111.841 22.0653 111.822 22.0901C111.801 22.12 111.773 22.1442 111.74 22.1606C111.707 22.1771 111.67 22.1853 111.634 22.1845Z" fill="#263238"/>
<path d="M148.424 47.7107C148.373 47.711 148.323 47.6944 148.283 47.6635L139.272 40.9092C139.223 40.8709 139.191 40.8151 139.182 40.7535C139.173 40.6919 139.189 40.6293 139.225 40.5788C139.263 40.5287 139.319 40.4956 139.38 40.4867C139.442 40.4779 139.505 40.494 139.555 40.5316L148.566 47.2859C148.616 47.3235 148.649 47.3794 148.658 47.4413C148.667 47.5033 148.651 47.5662 148.613 47.6163C148.591 47.6453 148.562 47.6689 148.53 47.6853C148.497 47.7017 148.461 47.7103 148.424 47.7107Z" fill="#263238"/>
<path d="M126.463 17.7759C126.4 17.7759 126.34 17.7511 126.296 17.7068C126.251 17.6625 126.227 17.6025 126.227 17.5399V7.77897C126.227 7.71638 126.251 7.65635 126.296 7.61209C126.34 7.56783 126.4 7.54297 126.463 7.54297C126.525 7.54297 126.585 7.56783 126.629 7.61209C126.674 7.65635 126.699 7.71638 126.699 7.77897V17.5399C126.699 17.6025 126.674 17.6625 126.629 17.7068C126.585 17.7511 126.525 17.7759 126.463 17.7759Z" fill="#263238"/>
<path d="M60.8125 129.117L65.1785 125.709L62.3795 124.576L60.8125 129.117Z" fill="#385AD4"/>
<path d="M60.81 129.329C60.7596 129.329 60.7102 129.315 60.6684 129.286C60.6271 129.257 60.5966 129.214 60.5813 129.166C60.566 129.117 60.5667 129.065 60.5834 129.017L62.1552 124.477C62.1662 124.447 62.1832 124.419 62.2051 124.395C62.2269 124.372 62.2533 124.353 62.2826 124.34C62.3116 124.327 62.3429 124.32 62.3747 124.32C62.4064 124.32 62.4377 124.327 62.4667 124.34L65.2609 125.477C65.3001 125.491 65.3346 125.516 65.3605 125.548C65.3864 125.581 65.4026 125.62 65.4073 125.661C65.4136 125.702 65.4086 125.744 65.3928 125.783C65.3769 125.821 65.3509 125.854 65.3176 125.879L60.9516 129.286C60.9103 129.316 60.8606 129.331 60.81 129.329ZM62.5233 124.868L61.2914 128.418L64.7087 125.756L62.5233 124.868Z" fill="#263238"/>
<path d="M56.3477 108.328L62.9085 121.865L60.8128 129.115L56.4421 123.168L56.3477 108.328Z" fill="#385AD4"/>
<path d="M60.8105 129.328C60.7732 129.328 60.7362 129.32 60.7026 129.304C60.6691 129.287 60.6397 129.263 60.617 129.233L56.251 123.291C56.2216 123.251 56.2051 123.204 56.2038 123.154L56.1094 108.314C56.1083 108.26 56.1261 108.208 56.1597 108.166C56.1933 108.123 56.2407 108.094 56.2935 108.083C56.345 108.07 56.3993 108.075 56.4474 108.098C56.4956 108.12 56.5345 108.158 56.5578 108.206L63.1186 121.776C63.1373 121.831 63.1373 121.891 63.1186 121.946L61.0229 129.191C61.01 129.234 60.9855 129.272 60.9522 129.302C60.919 129.332 60.8781 129.353 60.8341 129.361L60.8105 129.328ZM56.6758 123.074L60.7161 128.568L62.6514 121.866L56.5861 109.353L56.6758 123.074Z" fill="#263238"/>
<path d="M59.0664 126.496L60.8128 129.115L62.9085 121.866L61.771 120.119L59.0664 126.496Z" fill="#263238"/>
<path d="M60.811 129.328C60.7719 129.328 60.7334 129.319 60.6988 129.301C60.6642 129.283 60.6346 129.256 60.6127 129.224L58.8663 126.604C58.8489 126.57 58.8398 126.532 58.8398 126.493C58.8398 126.455 58.8489 126.417 58.8663 126.382L61.5756 120.006C61.5927 119.966 61.6201 119.932 61.6551 119.907C61.69 119.882 61.7311 119.867 61.7739 119.864C61.8165 119.861 61.8592 119.869 61.8974 119.888C61.9357 119.907 61.968 119.936 61.991 119.973L63.1238 121.719C63.1429 121.747 63.1557 121.779 63.1614 121.812C63.1671 121.845 63.1655 121.88 63.1568 121.912L61.0611 129.158C61.0478 129.201 61.0226 129.24 60.9884 129.27C60.9543 129.3 60.9125 129.32 60.8676 129.328H60.811ZM59.3289 126.448L60.7449 128.539L62.6707 121.884L61.8305 120.619L59.3289 126.448Z" fill="#263238"/>
<path d="M38.5575 212.014L37.8731 214.761C37.8731 214.761 33.8327 216.998 33.5212 217.31C33.2097 217.621 33.3324 218.928 33.3324 218.928H44.8964C44.9542 217.926 44.87 216.92 44.6463 215.941C44.4711 214.73 44.3639 213.51 44.3253 212.287L38.5575 212.014Z" fill="#263238"/>
<path d="M44.8968 219.146H33.3328C33.2736 219.145 33.2169 219.122 33.1734 219.082C33.1298 219.042 33.1026 218.987 33.0968 218.928C33.0685 218.598 32.9929 217.484 33.3517 217.125C33.7104 216.767 36.8209 215.053 37.6657 214.586L38.3265 211.957C38.3396 211.904 38.3708 211.857 38.4147 211.824C38.4586 211.791 38.5126 211.775 38.5673 211.778L44.3398 212.033C44.3987 212.035 44.4545 212.06 44.4957 212.102C44.5369 212.144 44.5605 212.2 44.5617 212.259C44.6035 213.469 44.7091 214.676 44.8779 215.875C45.1112 216.875 45.1955 217.904 45.1281 218.928C45.1245 218.987 45.0985 219.043 45.0555 219.083C45.0125 219.123 44.9558 219.146 44.8968 219.146ZM33.5688 218.674H44.6749C44.699 217.766 44.6119 216.86 44.4153 215.974C44.2423 214.821 44.1367 213.66 44.0991 212.495L38.7372 212.259L38.1 214.798C38.0928 214.83 38.079 214.86 38.0595 214.886C38.0399 214.912 38.0152 214.934 37.9867 214.949C36.4385 215.809 33.8992 217.248 33.6868 217.456C33.5442 217.845 33.4988 218.263 33.5546 218.674H33.5688Z" fill="#263238"/>
<path d="M33.3307 218.909H44.8947C44.8947 218.909 44.8947 218.625 44.8947 218.158H33.3118C33.3041 218.409 33.3104 218.659 33.3307 218.909Z" fill="white"/>
<path d="M44.8961 219.146H33.3321C33.273 219.145 33.2162 219.122 33.1727 219.082C33.1292 219.042 33.1019 218.987 33.0961 218.928C33.0825 218.671 33.0825 218.412 33.0961 218.154C33.0986 218.093 33.1245 218.036 33.1685 217.994C33.2125 217.951 33.2711 217.928 33.3321 217.928H44.9103C44.9411 217.927 44.9716 217.933 45.0002 217.944C45.0289 217.955 45.0549 217.972 45.0769 217.994C45.0989 218.015 45.1163 218.041 45.1282 218.069C45.1402 218.098 45.1463 218.128 45.1463 218.159C45.1463 218.631 45.1463 218.919 45.1463 218.928C45.1403 218.99 45.111 219.046 45.0645 219.087C45.018 219.127 44.9577 219.148 44.8961 219.146ZM33.5681 218.674H44.6743C44.6743 218.598 44.6743 218.504 44.6743 218.4H33.5445C33.5445 218.499 33.5492 218.593 33.554 218.674H33.5681Z" fill="#263238"/>
<path d="M33.7642 217.167C34.5578 216.491 35.5297 216.058 36.5632 215.921C38.4512 215.614 40.1079 216.294 40.4808 216.667C40.7775 217.094 40.9876 217.575 41.0991 218.083L33.3111 218.144C33.2566 218.053 33.2252 217.95 33.2196 217.844C33.2141 217.738 33.2345 217.632 33.2792 217.536C33.3239 217.44 33.3914 217.356 33.476 217.291C33.5605 217.227 33.6595 217.184 33.7642 217.167Z" fill="white"/>
<path d="M33.311 218.399C33.2686 218.399 33.2271 218.387 33.1907 218.365C33.1542 218.344 33.1241 218.313 33.1033 218.276C33.0359 218.152 32.9951 218.016 32.9838 217.875C32.9724 217.734 32.9906 217.593 33.0372 217.46C33.0939 217.335 33.1782 217.225 33.2836 217.137C33.3891 217.05 33.513 216.987 33.6461 216.955C34.4689 216.272 35.4663 215.834 36.5253 215.69C38.4133 215.373 40.1833 216.039 40.6459 216.502C40.9824 216.968 41.2158 217.5 41.3303 218.064C41.3387 218.098 41.3393 218.134 41.3319 218.168C41.3245 218.202 41.3095 218.234 41.2878 218.262C41.2656 218.29 41.2376 218.312 41.2058 218.327C41.1739 218.343 41.1391 218.351 41.1037 218.352L33.311 218.418V218.399ZM37.5212 216.081C37.205 216.08 36.8892 216.105 36.5772 216.157C35.5952 216.289 34.6706 216.697 33.9104 217.332C33.8817 217.361 33.8459 217.382 33.8066 217.394C33.7322 217.405 33.6613 217.433 33.5992 217.475C33.5371 217.518 33.4853 217.574 33.4479 217.639C33.4189 217.731 33.4189 217.83 33.4479 217.922L40.7686 217.866C40.6821 217.494 40.5216 217.144 40.2966 216.837C39.4695 216.309 38.5015 216.046 37.5212 216.081Z" fill="#263238"/>
<path d="M43.7088 214.213C43.7088 214.883 43.4728 215.426 43.1849 215.426C42.897 215.426 42.6562 214.883 42.6562 214.213C42.6562 213.543 42.8923 213 43.1849 213C43.4775 213 43.7088 213.543 43.7088 214.213Z" fill="white"/>
<path d="M43.1865 215.662C42.6815 215.662 42.4219 214.935 42.4219 214.213C42.4219 213.491 42.6815 212.764 43.1865 212.764C43.6916 212.764 43.9464 213.495 43.9464 214.213C43.9464 214.93 43.6868 215.662 43.1865 215.662ZM43.1865 213.236C43.111 213.236 42.8939 213.594 42.8939 214.213C42.8939 214.831 43.111 215.18 43.1865 215.19C43.262 215.199 43.4744 214.836 43.4744 214.213C43.4744 213.59 43.2573 213.245 43.1865 213.236Z" fill="#263238"/>
<path d="M67.4191 212.014L68.1035 214.742C68.1035 214.742 72.1438 216.979 72.4554 217.291C72.7669 217.602 72.6394 218.91 72.6394 218.91H61.0802C61.0224 217.907 61.1066 216.901 61.3303 215.922C61.5022 214.711 61.6078 213.491 61.6466 212.269L67.4191 212.014Z" fill="#263238"/>
<path d="M72.6388 219.146H61.0795C61.0203 219.145 60.9636 219.122 60.9201 219.082C60.8765 219.042 60.8493 218.988 60.8435 218.929C60.782 217.904 60.8678 216.875 61.0984 215.875C61.2687 214.676 61.3727 213.469 61.4099 212.259C61.4122 212.2 61.4368 212.144 61.4788 212.102C61.5208 212.06 61.5771 212.035 61.6364 212.033L67.409 211.778C67.4639 211.774 67.5183 211.79 67.5624 211.823C67.6065 211.856 67.6375 211.904 67.6497 211.957L68.3058 214.586C69.1554 215.058 72.3131 216.819 72.6199 217.126C72.9267 217.432 72.9078 218.598 72.8748 218.929C72.87 218.988 72.8431 219.043 72.7993 219.083C72.7556 219.124 72.6982 219.146 72.6388 219.146ZM61.3108 218.674H72.4311C72.4873 218.263 72.4419 217.845 72.2989 217.456C72.0818 217.248 69.5472 215.809 67.999 214.95C67.9706 214.934 67.9458 214.912 67.9263 214.886C67.9067 214.86 67.8929 214.83 67.8857 214.799L67.2438 212.259L61.8819 212.495C61.8467 213.66 61.7411 214.822 61.5656 215.974C61.3667 216.86 61.278 217.766 61.3013 218.674H61.3108Z" fill="#263238"/>
<path d="M72.6397 218.909H61.0805C61.0669 218.659 61.0669 218.408 61.0805 218.158H72.6869C72.6867 218.409 72.6709 218.66 72.6397 218.909Z" fill="white"/>
<path d="M72.641 219.146H61.0817C61.0226 219.145 60.9658 219.122 60.9223 219.082C60.8788 219.042 60.8515 218.987 60.8457 218.928C60.8327 218.672 60.8327 218.415 60.8457 218.159C60.8469 218.097 60.8724 218.038 60.9165 217.995C60.9606 217.952 61.0199 217.928 61.0817 217.928H72.6882C72.7492 217.928 72.8078 217.951 72.8518 217.993C72.8958 218.036 72.9218 218.093 72.9242 218.154C72.9418 218.412 72.9418 218.671 72.9242 218.928C72.9222 218.962 72.9129 218.995 72.8971 219.025C72.8812 219.055 72.8591 219.081 72.8322 219.102C72.8053 219.122 72.7744 219.137 72.7414 219.144C72.7084 219.152 72.6741 219.152 72.641 219.146ZM61.313 218.674H72.4333C72.4333 218.593 72.4333 218.499 72.4333 218.4H61.2988C61.2988 218.504 61.3036 218.598 61.3036 218.674H61.313Z" fill="#263238"/>
<path d="M72.2138 217.167C71.4226 216.49 70.4519 216.057 69.4195 215.921C67.5551 215.614 65.8748 216.294 65.5019 216.667C65.2044 217.094 64.9928 217.575 64.8789 218.083L72.6716 218.144C72.7262 218.053 72.7575 217.949 72.7628 217.843C72.7681 217.737 72.7472 217.631 72.702 217.534C72.6568 217.438 72.5887 217.354 72.5036 217.29C72.4185 217.226 72.319 217.184 72.2138 217.167Z" fill="white"/>
<path d="M72.6869 218.398L64.8942 218.332C64.8587 218.333 64.8236 218.325 64.7917 218.309C64.7598 218.293 64.7319 218.271 64.7101 218.243C64.6903 218.218 64.6759 218.189 64.6678 218.158C64.6596 218.127 64.658 218.095 64.6629 218.063C64.7779 217.506 65.0113 216.979 65.3473 216.52C65.8193 216.048 67.5799 215.392 69.4679 215.708C70.5265 215.854 71.5235 216.292 72.3471 216.973C72.4799 217.006 72.6035 217.069 72.7089 217.156C72.8143 217.244 72.8987 217.354 72.956 217.478C73.0026 217.611 73.0208 217.753 73.0094 217.893C72.9981 218.034 72.9573 218.171 72.8899 218.295C72.8673 218.327 72.8369 218.354 72.8015 218.372C72.7661 218.39 72.7267 218.399 72.6869 218.398ZM65.2057 217.865L72.5265 217.922C72.5554 217.83 72.5554 217.731 72.5265 217.638C72.4885 217.574 72.4366 217.518 72.3746 217.476C72.3126 217.433 72.2419 217.405 72.1677 217.393C72.1279 217.383 72.0919 217.362 72.0639 217.332C71.2975 216.701 70.3679 216.3 69.3829 216.175C67.5846 215.873 65.9798 216.548 65.673 216.855C65.4449 217.156 65.2781 217.499 65.1821 217.865H65.2057Z" fill="#263238"/>
<path d="M62.2617 214.213C62.2617 214.883 62.4977 215.426 62.7904 215.426C63.083 215.426 63.319 214.883 63.319 214.213C63.319 213.543 63.083 213 62.7904 213C62.4977 213 62.2617 213.543 62.2617 214.213Z" fill="white"/>
<path d="M62.7764 215.662C62.276 215.662 62.0117 214.935 62.0117 214.213C62.0117 213.491 62.276 212.764 62.7764 212.764C63.2767 212.764 63.541 213.495 63.541 214.213C63.541 214.93 63.2908 215.662 62.7764 215.662ZM62.7764 213.236C62.7008 213.236 62.4837 213.594 62.4837 214.213C62.4837 214.831 62.7008 215.18 62.7764 215.19C62.8519 215.199 63.069 214.836 63.069 214.213C63.069 213.59 62.866 213.245 62.7764 213.236Z" fill="#263238"/>
<path d="M38.4253 146.168L38.043 152.196L38.5575 212.012L44.33 212.267L50.0978 156.43L50.8672 156.17L61.6477 212.267L67.4202 212.012L64.8478 171.817L60.9727 144.082L38.4253 146.168Z" fill="white"/>
<path d="M44.3277 212.504L38.5552 212.249C38.4951 212.245 38.4386 212.219 38.3974 212.175C38.3561 212.131 38.3332 212.073 38.3333 212.013L37.8047 152.196L38.1917 146.15C38.195 146.094 38.2183 146.042 38.2573 146.002C38.2963 145.962 38.3485 145.937 38.4041 145.933L60.9468 143.847C61.0073 143.841 61.0675 143.859 61.1149 143.897C61.1624 143.935 61.1935 143.989 61.2017 144.05L65.0816 171.808L67.654 212.018C67.6557 212.049 67.6511 212.08 67.6406 212.109C67.63 212.138 67.6137 212.165 67.5926 212.188C67.5503 212.235 67.4909 212.264 67.4274 212.268L61.6549 212.523C61.5988 212.525 61.5439 212.507 61.4998 212.473C61.4556 212.438 61.4253 212.389 61.4141 212.334L50.6856 156.482L50.3174 156.605L44.559 212.301C44.5521 212.357 44.5247 212.409 44.482 212.446C44.4394 212.484 44.3845 212.504 44.3277 212.504ZM50.8649 155.935C50.9078 155.936 50.9498 155.947 50.9876 155.968C51.0165 155.985 51.0412 156.008 51.0599 156.036C51.0787 156.063 51.0911 156.095 51.0962 156.128L61.8295 212.022L67.1584 211.786L64.6001 171.836L60.758 144.338L38.6401 146.381L38.2672 152.21L38.7864 211.786L44.1153 212.022L49.8643 156.402C49.8689 156.357 49.8859 156.315 49.9135 156.28C49.941 156.245 49.978 156.219 50.0201 156.204L50.7941 155.949L50.8649 155.935Z" fill="#263238"/>
<path d="M50.6071 152.457H50.541C50.4916 152.442 50.4484 152.411 50.4178 152.369C50.3872 152.328 50.3708 152.277 50.3711 152.225V147.826C50.3711 147.764 50.396 147.704 50.4402 147.66C50.4845 147.615 50.5445 147.59 50.6071 147.59C50.6693 147.592 50.7286 147.617 50.7726 147.661C50.8166 147.705 50.8419 147.764 50.8431 147.826V151.376L51.5747 150.153L51.7682 147.213C51.7694 147.182 51.7769 147.151 51.7902 147.123C51.8036 147.094 51.8225 147.069 51.8459 147.048C51.8693 147.028 51.8966 147.012 51.9262 147.002C51.9559 146.992 51.9872 146.988 52.0184 146.991C52.0498 146.993 52.0806 147.001 52.1089 147.015C52.1371 147.029 52.1623 147.048 52.183 147.072C52.2037 147.095 52.2194 147.123 52.2292 147.153C52.239 147.183 52.2428 147.215 52.2402 147.246L52.042 150.243C52.0389 150.28 52.0276 150.315 52.0089 150.347L50.8053 152.348C50.7843 152.382 50.7551 152.409 50.7204 152.428C50.6857 152.447 50.6467 152.457 50.6071 152.457Z" fill="#263238"/>
<path d="M58.5264 128.72C58.5264 128.72 56.5487 109.004 56.3552 108.329C56.1616 107.654 45.1782 107.465 44.3097 107.56C43.4412 107.654 42.384 107.654 42.384 107.654C42.384 107.654 29.3709 113.318 29.168 113.918L33.7936 124.231C33.7936 124.231 37.8433 136.564 37.8433 137.82C37.8433 139.075 38.2304 146.792 38.2304 146.792C38.2304 146.792 45.6502 147.854 51.8145 146.41C57.9788 144.966 60.9713 144.097 60.9713 144.097L58.5264 128.72Z" fill="#385AD4"/>
<path d="M44.2831 147.388C42.2492 147.39 40.2172 147.266 38.199 147.015C38.1446 147.007 38.0947 146.981 38.0576 146.94C38.0206 146.9 37.9988 146.848 37.996 146.793C37.996 146.477 37.609 139.062 37.609 137.825C37.609 136.824 34.6967 127.729 33.5734 124.312L28.9572 114.022C28.9361 113.967 28.9361 113.907 28.9572 113.852C29.1555 113.262 37.3966 109.604 42.2912 107.447C42.3223 107.44 42.3545 107.44 42.3856 107.447C42.3856 107.447 43.4429 107.447 44.2736 107.353C44.3916 107.353 56.286 107.282 56.5739 108.297C56.7675 108.967 58.5469 126.662 58.7499 128.715L61.2043 144.074C61.2136 144.131 61.2019 144.189 61.1715 144.238C61.1411 144.286 61.094 144.322 61.0391 144.339C61.006 144.339 57.9758 145.221 51.8728 146.651C49.3785 147.181 46.8326 147.428 44.2831 147.388ZM38.4539 146.571C39.6622 146.722 46.2607 147.454 51.7643 146.165C56.9563 144.943 59.9393 144.126 60.7039 143.914L58.2826 128.753C57.5038 121.012 56.3096 109.401 56.1303 108.457C55.2665 107.938 45.2743 107.707 44.3303 107.815C43.5562 107.9 42.6499 107.91 42.4423 107.91C37.76 109.93 30.378 113.281 29.4528 113.97L34.0123 124.137C34.187 124.666 38.081 136.546 38.081 137.825C38.081 138.939 38.3972 145.377 38.4539 146.571Z" fill="#263238"/>
<path d="M36.3136 132.16L58.2569 127.548L58.0776 126.463C58.0776 126.463 58.0492 126.104 57.9926 125.49L35.6953 130.177C35.903 130.819 36.1107 131.489 36.3136 132.16Z" fill="#263238"/>
<path d="M60.9711 144.083L58.8046 130.867L37.2578 135.328C37.5215 136.142 37.7172 136.977 37.8431 137.824C37.8431 139.075 38.2301 146.792 38.2301 146.792C38.2301 146.792 45.65 147.854 51.8143 146.41C57.9786 144.966 60.9711 144.083 60.9711 144.083Z" fill="white"/>
<path d="M44.2829 147.386C42.2491 147.389 40.2171 147.264 38.1988 147.013C38.1445 147.006 38.0945 146.979 38.0575 146.939C38.0204 146.898 37.9986 146.846 37.9959 146.791C37.9959 146.475 37.6088 139.06 37.6088 137.823C37.4894 137.002 37.2966 136.194 37.033 135.407C37.0234 135.376 37.021 135.343 37.0259 135.311C37.0308 135.28 37.0429 135.249 37.0613 135.223C37.0771 135.195 37.0988 135.171 37.1249 135.152C37.151 135.133 37.1808 135.12 37.2124 135.114L58.7592 130.649C58.7905 130.643 58.8227 130.643 58.854 130.649C58.8852 130.656 58.9149 130.668 58.9413 130.687C58.9676 130.705 58.9901 130.728 59.0075 130.754C59.0248 130.781 59.0367 130.811 59.0424 130.843L61.2041 144.059C61.2134 144.115 61.2018 144.173 61.1714 144.222C61.141 144.271 61.0939 144.306 61.0389 144.323C61.0059 144.323 57.9756 145.206 51.8727 146.636C49.3789 147.17 46.833 147.421 44.2829 147.386ZM38.4537 146.57C39.662 146.721 46.2606 147.452 51.7641 146.164C56.9561 144.941 59.9392 144.129 60.7038 143.912L58.6128 131.168L37.5569 135.53C37.8109 136.274 37.9865 137.043 38.0808 137.823C38.0808 138.937 38.3971 145.375 38.4537 146.57Z" fill="#263238"/>
<path d="M44.2992 107.56C43.4308 107.655 42.3735 107.655 42.3735 107.655C42.3735 107.655 39.9332 108.722 37.1484 109.977L47.6032 118.421C47.6032 118.421 50.978 108.122 50.8223 107.688C48.0658 107.579 44.7146 107.513 44.2992 107.56Z" fill="#263238"/>
<path d="M47.6024 118.656C47.5488 118.657 47.4966 118.639 47.4561 118.604L37.0013 110.16C36.9694 110.135 36.9444 110.102 36.9287 110.065C36.913 110.028 36.9071 109.987 36.9116 109.947C36.9182 109.907 36.9345 109.869 36.9593 109.837C36.984 109.805 37.0162 109.78 37.0532 109.763C39.8002 108.522 42.2452 107.45 42.2782 107.441C42.3093 107.434 42.3416 107.434 42.3726 107.441C42.3726 107.441 43.4299 107.441 44.2606 107.346C44.7326 107.299 48.2585 107.375 50.8214 107.474C50.869 107.476 50.915 107.491 50.9536 107.519C50.9922 107.547 51.0218 107.585 51.0386 107.63C51.1943 108.073 49.0892 114.644 47.8195 118.519C47.8083 118.555 47.7881 118.588 47.7609 118.614C47.7337 118.64 47.7003 118.66 47.6638 118.67C47.6426 118.669 47.6219 118.664 47.6024 118.656ZM37.596 110.037L47.508 118.023C48.6786 114.445 50.3778 109.055 50.5949 107.913C47.8903 107.809 44.7374 107.748 44.3456 107.795C43.5715 107.88 42.6653 107.889 42.4576 107.889C42.0894 108.036 39.9938 108.951 37.596 110.037Z" fill="#263238"/>
<path d="M47.9638 104.283C47.9638 104.283 48.5254 108.324 48.8134 109.286C49.1013 110.249 46.8074 115.64 46.8074 115.64C46.8074 115.64 41.6154 112.298 40.9262 110.66C40.2371 109.022 38.7031 103.32 38.7031 103.32C38.7031 103.32 43.6261 105.822 47.9638 104.283Z" fill="white"/>
<path d="M46.8062 115.857C46.761 115.857 46.7168 115.844 46.6788 115.819C46.4617 115.682 41.4018 112.421 40.708 110.731C40.0141 109.041 38.5462 103.613 38.4801 103.368C38.4688 103.324 38.4704 103.277 38.4846 103.234C38.4988 103.19 38.5251 103.152 38.5604 103.122C38.5953 103.093 38.6382 103.075 38.6835 103.07C38.7289 103.065 38.7747 103.073 38.8153 103.094C38.8672 103.118 43.6957 105.534 47.8824 104.038C47.9141 104.023 47.9488 104.015 47.9839 104.015C48.019 104.015 48.0536 104.023 48.0853 104.038C48.1144 104.057 48.1392 104.082 48.1579 104.111C48.1766 104.141 48.1889 104.174 48.1939 104.208C48.1939 104.246 48.7603 108.244 49.0388 109.178C49.3173 110.113 47.4104 114.762 47.0233 115.668C47.0097 115.701 46.9891 115.73 46.963 115.753C46.9369 115.777 46.906 115.795 46.8723 115.805L46.8062 115.857ZM39.0701 103.746C39.4619 105.162 40.5994 109.23 41.1469 110.552C41.6945 111.873 45.6829 114.597 46.6977 115.272C47.5709 113.204 48.7697 109.976 48.5857 109.362C48.3355 108.532 47.9013 105.544 47.7691 104.6C44.1961 105.728 40.387 104.312 39.0701 103.746Z" fill="#263238"/>
<path d="M38.7031 103.32C38.7031 103.32 39.0524 104.618 39.4961 106.152C39.7274 106.284 40.0106 106.431 40.3551 106.624C42.1497 107.574 44.1933 107.948 46.2079 107.696C46.6284 107.625 47.0265 107.458 47.3707 107.206C47.7149 106.954 47.9955 106.626 48.1903 106.247C48.0534 105.171 47.9543 104.307 47.9543 104.307C43.6261 105.822 38.7031 103.32 38.7031 103.32Z" fill="#263238"/>
<path d="M44.9513 107.994C43.3161 107.976 41.7083 107.572 40.2596 106.814C39.9103 106.639 39.6271 106.488 39.3911 106.342C39.3629 106.328 39.3382 106.308 39.3186 106.283C39.299 106.259 39.2851 106.23 39.2778 106.2C38.8341 104.666 38.4801 103.368 38.4801 103.368C38.4688 103.324 38.4704 103.277 38.4846 103.234C38.4988 103.19 38.5251 103.152 38.5604 103.122C38.5953 103.093 38.6382 103.075 38.6835 103.07C38.7289 103.065 38.7747 103.073 38.8153 103.094C38.8672 103.118 43.6957 105.534 47.8824 104.038C47.9141 104.023 47.9488 104.015 47.9839 104.015C48.019 104.015 48.0536 104.023 48.0853 104.038C48.1159 104.057 48.1417 104.082 48.1606 104.112C48.1795 104.143 48.1909 104.177 48.1939 104.213C48.1939 104.213 48.293 105.077 48.4299 106.153C48.4401 106.205 48.43 106.259 48.4016 106.304C48.1958 106.722 47.8939 107.085 47.5206 107.364C47.1473 107.643 46.7133 107.83 46.254 107.909C45.8221 107.965 45.3869 107.994 44.9513 107.994ZM39.7026 105.992L40.4673 106.389C42.2175 107.323 44.2148 107.691 46.1832 107.441C46.5566 107.382 46.9111 107.236 47.2184 107.016C47.5256 106.795 47.7772 106.506 47.9532 106.172C47.8682 105.506 47.7974 104.926 47.7597 104.6C44.1913 105.728 40.3823 104.312 39.0701 103.746C39.207 104.246 39.4383 105.072 39.7026 105.992Z" fill="#263238"/>
<path d="M45.486 91.6336C46.2032 93.0851 47.0169 94.4869 47.9215 95.8297C48.8985 97.0947 50.4608 99.9219 49.7764 101.583C49.092 103.245 48.6484 106.063 46.4724 106.36C44.4485 106.618 42.3941 106.244 40.5913 105.289C38.8355 104.411 38.642 104.118 38.642 104.118C37.8065 104.117 36.9885 103.879 36.282 103.434C35.404 102.754 33.6482 100.602 34.1344 98.7514C34.6205 96.9011 35.7911 96.7076 35.7911 96.7076C35.7911 96.7076 33.3556 95.7306 34.9132 93.2903C36.4708 90.8501 39.7936 89.9863 41.3512 89.9863C42.9088 89.9863 45.486 91.6336 45.486 91.6336Z" fill="white"/>
<path d="M45.1964 106.673C43.552 106.657 41.9347 106.252 40.4764 105.493C39.7858 105.185 39.1332 104.799 38.5317 104.341C37.6924 104.325 36.8744 104.073 36.1717 103.614C35.2561 102.901 33.42 100.669 33.9439 98.6863C34.021 98.2765 34.1799 97.8864 34.411 97.5393C34.6421 97.1923 34.9407 96.8953 35.2891 96.6661C34.8257 96.3763 34.4733 95.9391 34.2885 95.4247C34.1918 95.0351 34.1841 94.6288 34.2658 94.2358C34.3475 93.8428 34.5166 93.4732 34.7605 93.1544C36.3605 90.6623 39.6787 89.7324 41.3968 89.7324C43.011 89.7324 45.5173 91.3608 45.6448 91.4269C45.6814 91.4498 45.7108 91.4825 45.7297 91.5213C46.4406 92.9579 47.2463 94.3455 48.1417 95.6749C48.9299 96.6991 50.8037 99.7719 50.0297 101.665C49.9022 101.976 49.7795 102.34 49.6521 102.722C49.1093 104.327 48.4343 106.328 46.5274 106.588C46.0862 106.646 45.6415 106.674 45.1964 106.673ZM38.8527 103.977C39.4238 104.418 40.0487 104.785 40.7124 105.068C42.4627 106.002 44.46 106.37 46.4283 106.12C48.0425 105.898 48.6373 104.133 49.1659 102.571C49.2981 102.184 49.4208 101.811 49.5577 101.481C50.1713 99.989 48.7647 97.3033 47.7357 95.9628C46.83 94.634 46.0193 93.2429 45.3097 91.7998C44.9462 91.5685 42.7514 90.2139 41.3968 90.2139C40.0421 90.2139 36.7098 90.9974 35.1617 93.4187C34.9481 93.6488 34.7953 93.9285 34.717 94.2325C34.6388 94.5365 34.6376 94.8552 34.7135 95.1597C34.7894 95.4643 34.94 95.7452 35.1518 95.9769C35.3636 96.2086 35.6298 96.3838 35.9263 96.4867C35.9737 96.5067 36.0135 96.5412 36.0398 96.5854C36.0661 96.6296 36.0776 96.681 36.0726 96.7322C36.0673 96.7831 36.0455 96.8309 36.0106 96.8684C35.9757 96.9058 35.9295 96.9309 35.8791 96.9399C35.8366 96.9399 34.8454 97.1475 34.4065 98.8279C33.9675 100.508 35.5345 102.538 36.4691 103.265C37.1306 103.673 37.8914 103.892 38.6686 103.897C38.707 103.897 38.7447 103.906 38.7785 103.925C38.8123 103.943 38.841 103.969 38.8621 104.001L38.8527 103.977Z" fill="#263238"/>
<path d="M40.6293 95.1182C40.5667 95.1257 40.5037 95.1081 40.4541 95.0691C40.4046 95.0302 40.3725 94.9731 40.365 94.9105C40.3575 94.848 40.3751 94.7849 40.4141 94.7354C40.453 94.6858 40.5101 94.6537 40.5727 94.6462L43.3244 93.9382C43.3851 93.9237 43.449 93.9334 43.5027 93.965C43.5564 93.9967 43.5957 94.048 43.6123 94.1081C43.6207 94.1398 43.6223 94.1729 43.6171 94.2052C43.612 94.2376 43.6002 94.2685 43.5824 94.2961C43.5646 94.3236 43.5413 94.3471 43.514 94.3651C43.4866 94.3832 43.4558 94.3953 43.4235 94.4008L40.6718 95.1088L40.6293 95.1182Z" fill="#263238"/>
<path d="M45.8968 98.1297C45.812 98.1371 45.7267 98.1371 45.6419 98.1297C45.5793 98.1197 45.5232 98.0852 45.4861 98.0339C45.4489 97.9826 45.4336 97.9186 45.4436 97.856C45.4537 97.7934 45.4881 97.7373 45.5395 97.7001C45.5908 97.663 45.6548 97.6477 45.7174 97.6577C46.0098 97.6997 46.3071 97.6283 46.5485 97.458C46.7899 97.2877 46.9569 97.0316 47.0154 96.742C47.0579 96.6146 47.072 96.5155 47.0437 96.473C47.0154 96.4305 46.7983 96.3408 46.6048 96.2889C46.2972 96.2285 46.0041 96.1099 45.741 95.9396C45.3595 95.6998 45.0368 95.3772 44.797 94.9956C44.7702 94.9397 44.7661 94.8756 44.7855 94.8167C44.8048 94.7578 44.8461 94.7086 44.9008 94.6794C44.9566 94.6514 45.0211 94.6466 45.0804 94.6661C45.1396 94.6855 45.1888 94.7277 45.2171 94.7832C45.4265 95.1021 45.7017 95.3724 46.0242 95.5762C46.2414 95.7122 46.4812 95.8081 46.7322 95.8594C47.039 95.9349 47.3316 96.0104 47.4685 96.27C47.5148 96.3715 47.5388 96.4818 47.5388 96.5934C47.5388 96.7049 47.5148 96.8152 47.4685 96.9167C47.3748 97.2627 47.1704 97.5685 46.8867 97.7876C46.6029 98.0066 46.2552 98.1267 45.8968 98.1297Z" fill="#263238"/>
<path d="M44.3658 100.167H44.177C43.8859 100.144 43.5971 100.099 43.3132 100.03C43.2531 100.014 43.2018 99.9745 43.1701 99.9208C43.1384 99.8671 43.1288 99.8032 43.1433 99.7426C43.151 99.7125 43.1646 99.6842 43.1832 99.6594C43.2019 99.6345 43.2252 99.6136 43.252 99.5978C43.2787 99.582 43.3083 99.5717 43.3391 99.5674C43.3699 99.563 43.4012 99.5648 43.4312 99.5726C43.6886 99.6357 43.9506 99.6783 44.2147 99.7001C45.3995 99.7945 47.1836 98.7561 47.1978 98.7561C47.2247 98.74 47.2545 98.7295 47.2855 98.725C47.3165 98.7206 47.3481 98.7224 47.3784 98.7303C47.4087 98.7382 47.4372 98.7521 47.4621 98.7711C47.487 98.7901 47.5079 98.8139 47.5235 98.841C47.5544 98.8949 47.5629 98.9589 47.547 99.019C47.5311 99.0791 47.4921 99.1305 47.4385 99.162C47.3819 99.195 45.6874 100.167 44.3658 100.167Z" fill="#263238"/>
<path d="M43.1449 95.6976C43.362 96.0374 43.3715 96.4197 43.1449 96.5519C42.9184 96.684 42.5927 96.5141 42.3756 96.179C42.1584 95.8439 42.1537 95.4568 42.3756 95.3247C42.5974 95.1925 42.9514 95.3436 43.1449 95.6976Z" fill="#263238"/>
<path d="M46.2535 94.225C46.4706 94.5649 46.4753 94.9472 46.2535 95.0793C46.0316 95.2115 45.706 95.0416 45.4888 94.7065C45.2717 94.3713 45.267 93.9843 45.4888 93.8521C45.7107 93.72 46.0411 93.8852 46.2535 94.225Z" fill="#263238"/>
<path d="M44.4425 93.6025C44.4044 93.6027 44.367 93.593 44.3339 93.5742C44.3063 93.5602 44.2819 93.5409 44.2619 93.5173C44.2419 93.4938 44.2269 93.4664 44.2176 93.437C44.2084 93.4075 44.2051 93.3765 44.2081 93.3457C44.211 93.315 44.2201 93.2851 44.2348 93.2579C44.4661 92.8143 45.141 92.0968 46.019 92.531C46.0753 92.5586 46.1184 92.6074 46.1387 92.6667C46.1591 92.726 46.1551 92.791 46.1275 92.8473C46.1 92.9036 46.0512 92.9467 45.9919 92.9671C45.9326 92.9874 45.8676 92.9834 45.8113 92.9559C45.1363 92.6207 44.6974 93.3901 44.6502 93.4798C44.6294 93.5167 44.5993 93.5475 44.5628 93.569C44.5263 93.5906 44.4848 93.6021 44.4425 93.6025Z" fill="#263238"/>
<path d="M36.1212 94.6596C36.1212 94.6596 41.8749 93.8288 42.3611 92.7716C42.8472 91.7143 41.974 91.7473 41.974 91.7473C41.974 91.7473 47.4351 91.9408 48.0204 90.2841C48.6056 88.6274 46.071 87.9241 45.2922 87.9241H44.1216C44.1216 87.9241 43.829 85.4839 40.997 86.0692C38.165 86.6544 32.7087 90.3644 32.029 92.5072C31.3493 94.6501 29.7823 95.3392 30.9528 97.8692C32.1234 100.399 35.3424 102.457 35.3424 102.457C35.3424 102.457 34.8704 100.602 35.8144 100.503C36.7584 100.404 38.4482 101.088 38.7408 101.088C39.0335 101.088 39.9114 100.309 39.4252 99.8232C38.9391 99.3371 38.4482 99.0397 38.3538 98.7471C38.2594 98.4545 38.8258 97.4821 38.4482 96.6042C38.0706 95.7263 36.1212 94.6596 36.1212 94.6596Z" fill="#263238"/>
<path d="M35.3414 102.698C35.2963 102.697 35.2523 102.684 35.214 102.66C35.0818 102.575 31.91 100.546 30.7394 97.9733C29.8804 96.1184 30.4185 95.1696 31.0368 94.0746C31.3481 93.5585 31.6044 93.0111 31.8014 92.4415C32.5094 90.2184 38.0838 86.4376 40.9488 85.8335C41.3511 85.72 41.7729 85.6933 42.1862 85.7551C42.5996 85.817 42.9951 85.9659 43.3466 86.1922C43.8258 86.5638 44.1598 87.0915 44.2906 87.6837H45.3101C45.9473 87.6837 47.4671 88.0613 48.0854 88.9392C48.2317 89.1413 48.3245 89.3771 48.355 89.6247C48.3856 89.8723 48.3529 90.1237 48.2601 90.3552C47.755 91.7712 44.3189 91.9742 42.733 91.9836C42.7921 92.2817 42.7436 92.5911 42.5961 92.8568C42.1524 93.8244 38.4897 94.5277 36.8235 94.7967C37.456 95.1979 38.4189 95.8871 38.7115 96.5196C38.9164 97.0966 38.9164 97.7266 38.7115 98.3037C38.6698 98.4292 38.6429 98.5591 38.6313 98.6907C38.7614 98.8731 38.9209 99.0326 39.1033 99.1627C39.2685 99.3043 39.4526 99.4601 39.6366 99.6347C39.7442 99.7419 39.816 99.8797 39.8422 100.029C39.8684 100.179 39.8477 100.333 39.783 100.47C39.6957 100.679 39.5598 100.864 39.3865 101.009C39.2133 101.154 39.0077 101.256 38.787 101.306C38.5471 101.275 38.3113 101.218 38.0838 101.136C37.3779 100.879 36.6351 100.739 35.8842 100.72C35.8327 100.723 35.7825 100.738 35.7375 100.764C35.6926 100.789 35.6539 100.824 35.6246 100.867C35.4028 101.188 35.4925 101.962 35.6246 102.377C35.6379 102.423 35.6364 102.472 35.6203 102.517C35.6042 102.562 35.5743 102.6 35.535 102.627C35.51 102.653 35.4796 102.672 35.4462 102.684C35.4127 102.697 35.3769 102.701 35.3414 102.698ZM41.822 86.2205C41.5618 86.2225 41.3024 86.251 41.0479 86.3055C38.3481 86.8672 32.9059 90.5251 32.2498 92.5831C32.0464 93.1851 31.7774 93.7628 31.4474 94.3059C30.848 95.3726 30.4138 96.1419 31.169 97.7798C32.0327 99.6678 34.0859 101.282 35.0063 101.943C34.9224 101.493 34.9922 101.027 35.2046 100.621C35.2722 100.522 35.3612 100.44 35.465 100.381C35.5688 100.321 35.6846 100.285 35.804 100.277C36.6094 100.285 37.4075 100.43 38.164 100.706C38.3508 100.769 38.5416 100.82 38.7351 100.857C38.9927 100.746 39.1974 100.54 39.3062 100.281C39.3282 100.234 39.335 100.181 39.3257 100.129C39.3164 100.078 39.2915 100.03 39.2543 99.9935C39.075 99.8188 38.9003 99.6678 38.7446 99.5215C38.4795 99.3429 38.2649 99.0991 38.1215 98.8135C38.1012 98.5952 38.1387 98.3755 38.2301 98.1763C38.4064 97.7033 38.4196 97.185 38.2678 96.7036C37.9705 96.0428 36.5498 95.1507 36.0258 94.8628C35.9822 94.8402 35.9471 94.8041 35.9258 94.7598C35.9046 94.7155 35.8982 94.6656 35.9078 94.6174C35.9169 94.5686 35.9408 94.5239 35.9763 94.4893C36.0118 94.4546 36.0571 94.4318 36.1061 94.4239C38.4661 94.0887 41.8645 93.3147 42.1666 92.6586C42.3459 92.2621 42.2893 92.1111 42.2562 92.0639C42.2311 92.0357 42.2007 92.0129 42.1666 91.9967C42.1326 91.9805 42.0957 91.9712 42.058 91.9695H41.9825C41.9199 91.9695 41.8599 91.9446 41.8156 91.9003C41.7713 91.8561 41.7465 91.7961 41.7465 91.7335C41.7465 91.6709 41.7713 91.6108 41.8156 91.5666C41.8599 91.5223 41.9199 91.4975 41.9825 91.4975H42.0958C43.625 91.5447 47.3963 91.3936 47.8211 90.19C47.8836 90.0274 47.9025 89.8513 47.876 89.6791C47.8495 89.5069 47.7785 89.3446 47.6701 89.2083C47.1462 88.4672 45.749 88.1557 45.2818 88.1557H44.1206C44.0627 88.1561 44.0065 88.1352 43.963 88.0969C43.9195 88.0586 43.8916 88.0056 43.8846 87.948C43.7954 87.4023 43.5038 86.9102 43.0681 86.5698C42.6994 86.326 42.2636 86.2038 41.822 86.2205Z" fill="#263238"/>
<path d="M44.9672 152.928C44.9253 152.938 44.8817 152.938 44.8398 152.928L39.9782 150.096C39.9512 150.081 39.9276 150.06 39.9086 150.036C39.8896 150.011 39.8757 149.983 39.8676 149.953C39.8595 149.923 39.8573 149.892 39.8613 149.861C39.8653 149.83 39.8754 149.8 39.8909 149.773C39.9064 149.746 39.927 149.723 39.9517 149.704C39.9763 149.685 40.0044 149.671 40.0344 149.662C40.0645 149.654 40.0958 149.652 40.1266 149.656C40.1575 149.66 40.1872 149.67 40.2142 149.686L45.0852 152.518C45.139 152.55 45.1783 152.602 45.195 152.663C45.2117 152.723 45.2045 152.788 45.1749 152.843C45.1498 152.873 45.1178 152.897 45.0816 152.912C45.0454 152.926 45.0061 152.932 44.9672 152.928Z" fill="#263238"/>
<path d="M56.8974 152.045C56.8528 152.047 56.8086 152.036 56.7702 152.013C56.7317 151.99 56.7006 151.957 56.6807 151.917C56.6607 151.877 56.6527 151.832 56.6577 151.788C56.6626 151.744 56.6803 151.702 56.7086 151.667L59.6586 147.82C59.6767 147.794 59.7 147.771 59.7272 147.754C59.7544 147.736 59.7848 147.725 59.8166 147.72C59.8484 147.715 59.881 147.716 59.9122 147.724C59.9434 147.732 59.9727 147.746 59.9982 147.766C60.0237 147.786 60.0449 147.81 60.0604 147.839C60.076 147.867 60.0857 147.898 60.0888 147.93C60.0919 147.962 60.0885 147.994 60.0786 148.025C60.0687 148.056 60.0527 148.084 60.0315 148.108L57.0815 151.955C57.06 151.983 57.0321 152.006 57.0001 152.022C56.9682 152.037 56.933 152.045 56.8974 152.045Z" fill="#263238"/>
<path d="M49.3497 102.113C48.9255 102.501 48.4638 102.846 47.9714 103.142C47.4381 103.411 47.3012 103.529 47.6316 103.907C47.962 104.284 49.5196 103.831 49.5196 103.831L49.3497 102.113Z" fill="white"/>
<path d="M48.2054 104.312C48.0715 104.327 47.9361 104.314 47.8071 104.275C47.6782 104.236 47.5584 104.172 47.4549 104.086C47.3768 104.015 47.3158 103.927 47.2765 103.829C47.2373 103.73 47.2208 103.625 47.2283 103.519C47.2755 103.269 47.5115 103.132 47.8703 102.953C48.3411 102.665 48.7836 102.333 49.1919 101.962C49.2232 101.932 49.2626 101.911 49.3053 101.903C49.348 101.894 49.3922 101.898 49.4326 101.914C49.4734 101.929 49.5092 101.955 49.5359 101.99C49.5626 102.024 49.5791 102.065 49.5836 102.108L49.7771 103.826C49.7819 103.882 49.7677 103.937 49.7368 103.983C49.7059 104.03 49.6602 104.064 49.6072 104.081C49.1512 104.215 48.6804 104.293 48.2054 104.312ZM47.672 103.59C47.7069 103.647 47.7463 103.7 47.79 103.751C47.9033 103.878 48.5783 103.826 49.2674 103.651L49.1447 102.585C48.8105 102.876 48.4485 103.134 48.0638 103.354C47.9227 103.414 47.7908 103.493 47.672 103.59Z" fill="#263238"/>
<path d="M55.3408 105.586C55.0659 105.747 54.7531 105.832 54.4346 105.832C54.116 105.832 53.8032 105.747 53.5283 105.586C52.9758 105.322 52.4495 105.006 51.9566 104.642C51.83 105.008 51.6085 105.334 51.3147 105.586C50.9803 105.774 50.6189 105.91 50.2432 105.988C49.8394 105.666 49.4862 105.286 49.1954 104.859C48.8923 104.202 48.7483 103.482 48.7753 102.759C48.7753 102.226 50.9135 100.871 50.9135 100.871L49.842 100.739C49.842 100.739 48.5015 101.541 48.0956 101.81C47.6897 102.079 47.2649 102.344 47.0525 101.74C46.7363 100.857 50.0544 99.4173 50.0544 99.4173C50.0544 99.4173 51.9424 99.2852 52.7401 99.2852C53.5378 99.2852 57.3185 104.704 57.6536 105.039C57.9887 105.374 66.7066 118.005 67.6034 119.345C68.5002 120.686 67.9385 123.815 67.3768 125.047C66.8151 126.279 64.5826 126.052 63.5772 125.939C62.5719 125.826 60.783 122.139 60.5611 121.247C60.3393 120.355 55.3408 105.586 55.3408 105.586Z" fill="white"/>
<path d="M64.9711 126.289C64.4978 126.284 64.025 126.252 63.5551 126.195C62.3468 126.063 60.5249 122.093 60.3314 121.324C60.1378 120.554 55.8757 107.9 55.2243 105.922C54.9364 106.032 54.6279 106.078 54.3205 106.056C54.0131 106.034 53.7143 105.945 53.4449 105.795C52.9723 105.563 52.5151 105.302 52.0761 105.011C51.9426 105.316 51.7329 105.581 51.4672 105.781C51.1085 105.99 50.7178 106.138 50.3108 106.22C50.2771 106.227 50.2422 106.226 50.2087 106.218C50.1752 106.21 50.144 106.194 50.1173 106.173C49.6853 105.834 49.3108 105.427 49.0081 104.969C48.681 104.29 48.5193 103.542 48.5361 102.788C48.5361 102.316 49.4801 101.547 50.24 101.047L49.8907 100.999C49.6075 101.169 48.5644 101.797 48.2246 102.024C48.0988 102.14 47.9494 102.229 47.7865 102.282C47.6236 102.336 47.4511 102.354 47.2806 102.335C47.1747 102.292 47.0803 102.225 47.0049 102.139C46.9295 102.053 46.8752 101.95 46.8463 101.84C46.4829 100.825 49.1497 99.5788 49.9804 99.2248C50.0051 99.2177 50.0313 99.2177 50.0559 99.2248C50.1314 99.2248 51.9439 99.0879 52.7558 99.0879C53.3646 99.0879 54.7476 100.787 57.084 103.926C57.4333 104.398 57.7637 104.842 57.8345 104.912C58.2215 105.299 67.2131 118.355 67.8126 119.256C68.7566 120.672 68.1807 123.925 67.6096 125.185C67.1754 126.086 66.0095 126.289 64.9711 126.289ZM55.3423 105.351C55.3657 105.347 55.3897 105.347 55.4131 105.351C55.4482 105.363 55.4801 105.383 55.5063 105.409C55.5325 105.435 55.5523 105.467 55.5642 105.502C55.7671 106.107 60.5674 120.304 60.7892 121.201C61.0441 122.225 62.8141 125.628 63.6212 125.718C64.4283 125.808 66.6798 126.058 67.1801 124.958C67.7323 123.736 68.2468 120.71 67.4208 119.488C66.5287 118.152 57.8911 105.635 57.5088 105.214C57.4191 105.125 57.1878 104.818 56.7158 104.176C55.871 103.048 53.308 99.6024 52.7605 99.5316C52.043 99.5316 50.4005 99.6449 50.1362 99.6637C48.673 100.301 47.1578 101.278 47.3042 101.67C47.3466 101.788 47.3938 101.859 47.441 101.877C47.4882 101.896 47.8422 101.726 47.998 101.623C48.3992 101.353 49.6925 100.579 49.7491 100.546C49.7937 100.517 49.8475 100.505 49.9002 100.513L50.9716 100.645C51.0197 100.653 51.0645 100.675 51.1005 100.707C51.1366 100.74 51.1623 100.782 51.1746 100.83C51.185 100.877 51.1807 100.926 51.1621 100.971C51.1435 101.016 51.1116 101.054 51.0707 101.08C50.0134 101.741 49.0647 102.524 49.0411 102.755C49.0131 103.44 49.149 104.121 49.4376 104.742C49.6856 105.113 49.988 105.444 50.3344 105.724C50.6438 105.653 50.9411 105.537 51.217 105.38C51.4662 105.159 51.6546 104.877 51.7646 104.563C51.7772 104.528 51.7978 104.496 51.8249 104.469C51.8519 104.443 51.8845 104.424 51.9203 104.412C51.9566 104.402 51.9946 104.401 52.0315 104.409C52.0683 104.416 52.1029 104.432 52.1327 104.455C52.6127 104.806 53.1247 105.111 53.662 105.365C53.9003 105.505 54.1716 105.579 54.4479 105.579C54.7242 105.579 54.9955 105.505 55.2338 105.365C55.2683 105.352 55.3055 105.347 55.3423 105.351Z" fill="#263238"/>
<path d="M49.4643 105.323C49.4073 105.323 49.3523 105.302 49.3091 105.265C49.2659 105.228 49.2372 105.177 49.2283 105.12C49.1197 104.285 49.0395 103.232 49.2944 102.977C49.5493 102.723 51.4042 101.42 51.6166 101.274C51.6415 101.252 51.6705 101.236 51.7018 101.227C51.7331 101.217 51.766 101.215 51.7985 101.219C51.831 101.222 51.8623 101.233 51.8904 101.25C51.9186 101.266 51.943 101.289 51.962 101.315C51.981 101.342 51.9944 101.372 52.0011 101.404C52.0078 101.436 52.0078 101.469 52.0011 101.501C51.9943 101.533 51.981 101.564 51.962 101.59C51.9429 101.617 51.9185 101.639 51.8904 101.656C51.0974 102.213 49.7853 103.152 49.6295 103.308C49.5751 103.892 49.5973 104.481 49.6956 105.059C49.7036 105.121 49.6868 105.184 49.6487 105.233C49.6107 105.283 49.5545 105.315 49.4926 105.323H49.4643Z" fill="#263238"/>
<path d="M50.2445 106.223C50.1831 106.222 50.1244 106.197 50.0805 106.154C50.0367 106.111 50.0109 106.053 50.0085 105.992L49.9377 103.632C49.9361 103.591 49.9448 103.551 49.9629 103.515C49.9811 103.478 50.0081 103.447 50.0415 103.424L52.3118 101.947C52.3644 101.912 52.4285 101.9 52.49 101.913C52.5516 101.926 52.6055 101.963 52.6399 102.015C52.6743 102.068 52.6864 102.132 52.6736 102.194C52.6608 102.255 52.624 102.309 52.5714 102.343L50.4097 103.759L50.4805 105.983C50.4818 106.014 50.4769 106.044 50.4662 106.074C50.4555 106.103 50.4391 106.129 50.4181 106.152C50.3971 106.175 50.3717 106.193 50.3436 106.206C50.3154 106.219 50.2849 106.227 50.2539 106.228L50.2445 106.223Z" fill="#263238"/>
<path d="M50.9116 101.126C50.8713 101.126 50.8317 101.116 50.7967 101.096C50.7618 101.077 50.733 101.047 50.7133 101.012C50.6963 100.987 50.6847 100.958 50.6793 100.927C50.6739 100.897 50.6747 100.866 50.6818 100.836C50.6889 100.806 50.702 100.777 50.7204 100.752C50.7388 100.728 50.7621 100.707 50.7888 100.691L51.5346 100.219C51.5878 100.186 51.652 100.176 51.7131 100.19C51.7741 100.204 51.8271 100.242 51.8603 100.295C51.8934 100.348 51.9041 100.412 51.89 100.473C51.8758 100.534 51.838 100.587 51.7848 100.621L51.039 101.093C51.0008 101.116 50.9564 101.128 50.9116 101.126Z" fill="#263238"/>
<path d="M51.958 104.884C51.9029 104.886 51.8489 104.868 51.8069 104.832L51.4293 104.516L51.1037 104.723C51.0505 104.757 50.9863 104.767 50.9252 104.753C50.8641 104.739 50.8112 104.701 50.778 104.648C50.7448 104.595 50.7341 104.53 50.7483 104.469C50.7625 104.408 50.8003 104.355 50.8535 104.322L51.3255 104.025C51.3662 103.996 51.4149 103.98 51.4648 103.98C51.5146 103.98 51.5633 103.996 51.604 104.025L52.1138 104.45C52.1613 104.491 52.1908 104.549 52.1961 104.611C52.2014 104.674 52.182 104.736 52.1421 104.785C52.1206 104.814 52.0929 104.838 52.0611 104.855C52.0293 104.872 51.9941 104.882 51.958 104.884Z" fill="#263238"/>
<path d="M29.1693 113.918L21.2539 129.9L30.8591 133.742L33.7997 124.231L29.1693 113.918Z" fill="#385AD4"/>
<path d="M30.858 133.977C30.8301 133.984 30.801 133.984 30.7731 133.977L21.1679 130.135C21.1371 130.124 21.1091 130.106 21.0855 130.083C21.062 130.061 21.0434 130.033 21.031 130.003C21.0183 129.973 21.0117 129.941 21.0117 129.908C21.0117 129.876 21.0183 129.844 21.031 129.814L28.9512 113.832C28.9689 113.79 28.9994 113.755 29.0384 113.731C29.0773 113.707 29.1228 113.696 29.1683 113.7C29.2127 113.702 29.2558 113.716 29.2925 113.741C29.3293 113.766 29.3582 113.801 29.376 113.841L34.011 124.136C34.0321 124.19 34.0321 124.251 34.011 124.306L31.0846 133.812C31.0746 133.842 31.0587 133.871 31.0376 133.895C31.0165 133.919 30.9908 133.939 30.9619 133.953C30.9291 133.968 30.8938 133.976 30.858 133.977ZM21.5785 129.8L30.707 133.448L33.539 124.268L29.1541 114.498L21.5785 129.8Z" fill="#263238"/>
<path d="M37.955 142.756L35.2269 139.924L27.9345 132.584L21.874 130.271C21.874 130.271 20.3164 133.731 20.3164 134.34C20.3164 134.949 22.7566 137.55 23.3608 137.894C23.965 138.239 33.0179 142.614 33.0179 142.614C33.0684 142.675 33.1157 142.738 33.1595 142.803L34.1035 144.054C34.1035 144.054 33.9147 145.871 34.415 146.688C34.415 146.688 33.8298 146.555 34.0374 147.131C34.2172 147.36 34.4268 147.563 34.6605 147.735C35.005 147.995 36.9119 148.604 37.2565 148.429C37.601 148.255 38.2288 146.791 38.2288 146.791C38.2288 146.791 38.8613 146.839 39.0312 146.579C39.2866 146.265 39.5609 145.967 39.8525 145.687L37.955 142.756Z" fill="white"/>
<path d="M37.0646 148.708C36.1741 148.621 35.3095 148.36 34.5205 147.938C34.2617 147.745 34.0299 147.518 33.8314 147.263C33.8186 147.244 33.8075 147.223 33.7984 147.202C33.7491 147.105 33.7279 146.996 33.7371 146.888C33.7463 146.78 33.7855 146.676 33.8503 146.588C33.9024 146.533 33.9672 146.491 34.0391 146.466C33.827 145.698 33.7597 144.898 33.8408 144.106L32.9724 142.926L32.8685 142.784C32.0756 142.397 23.8344 138.413 23.2444 138.064C22.6544 137.715 20.082 135.076 20.082 134.288C20.082 133.66 21.3942 130.706 21.6585 130.12C21.6843 130.066 21.7297 130.023 21.7856 130C21.8416 129.977 21.904 129.977 21.9606 129.998L28.0211 132.334C28.0506 132.349 28.0777 132.368 28.1013 132.391L35.3984 139.763L38.1266 142.595C38.1389 142.605 38.1486 142.618 38.1549 142.633L40.0429 145.55C40.0726 145.596 40.0856 145.65 40.0795 145.705C40.0735 145.759 40.0489 145.809 40.0099 145.847C39.7301 146.114 39.4668 146.398 39.2216 146.697C39.1136 146.812 38.9811 146.901 38.834 146.957C38.6869 147.013 38.529 147.036 38.372 147.023C38.1455 147.547 37.7018 148.486 37.3525 148.661C37.2608 148.696 37.1628 148.712 37.0646 148.708ZM34.2326 146.999C34.3997 147.209 34.5914 147.397 34.8037 147.561C35.12 147.802 36.8711 148.33 37.1637 148.231C37.5274 147.765 37.8142 147.244 38.0133 146.688C38.0327 146.642 38.0658 146.603 38.1081 146.577C38.1503 146.551 38.1997 146.538 38.2493 146.541C38.4541 146.571 38.6631 146.533 38.844 146.433C39.0615 146.151 39.2998 145.886 39.5568 145.64L37.7584 142.902L35.0444 140.094L27.804 132.787L21.9984 130.545C21.4036 131.881 20.554 133.929 20.554 134.321C20.554 134.713 22.8527 137.314 23.4804 137.672C24.1082 138.031 33.029 142.34 33.1234 142.392C33.1535 142.406 33.1795 142.427 33.1989 142.454C33.1989 142.454 33.265 142.534 33.3547 142.661L34.2987 143.903C34.3334 143.95 34.3486 144.01 34.3412 144.068C34.294 144.54 34.2468 145.956 34.6244 146.555C34.649 146.595 34.6612 146.641 34.6596 146.688C34.658 146.735 34.6426 146.78 34.6153 146.818C34.588 146.856 34.5501 146.885 34.5063 146.901C34.4625 146.917 34.4149 146.92 34.3695 146.909C34.3225 146.902 34.2748 146.902 34.2279 146.909C34.2279 146.909 34.2137 146.938 34.2326 146.999Z" fill="#263238"/>
<path d="M35.0865 147.655C35.0537 147.656 35.0213 147.649 34.9912 147.636C34.9611 147.623 34.9341 147.604 34.9118 147.58L34.2227 146.829C34.1801 146.783 34.1577 146.722 34.1604 146.659C34.163 146.596 34.1905 146.537 34.2369 146.494C34.2832 146.452 34.3445 146.429 34.4073 146.432C34.4702 146.435 34.5294 146.462 34.572 146.508L35.2611 147.264C35.2831 147.285 35.3005 147.311 35.3125 147.339C35.3244 147.368 35.3305 147.398 35.3305 147.429C35.3305 147.46 35.3244 147.49 35.3125 147.518C35.3005 147.547 35.2831 147.572 35.2611 147.594C35.2376 147.615 35.2101 147.632 35.18 147.642C35.15 147.653 35.1182 147.657 35.0865 147.655Z" fill="#263238"/>
<path d="M31.4916 131.702L22.2498 127.889L21.2539 129.899L30.8591 133.741L31.4916 131.702Z" fill="#263238"/>
<path d="M30.858 133.978C30.8301 133.984 30.801 133.984 30.7731 133.978L21.1679 130.135C21.1371 130.124 21.1091 130.107 21.0855 130.084C21.062 130.061 21.0434 130.034 21.031 130.003C21.0183 129.973 21.0117 129.941 21.0117 129.909C21.0117 129.876 21.0183 129.844 21.031 129.814L22.0316 127.799C22.0573 127.746 22.1024 127.704 22.1577 127.683C22.2131 127.662 22.2744 127.663 22.329 127.686L31.5708 131.504C31.6246 131.527 31.6679 131.57 31.6923 131.623C31.7168 131.676 31.7205 131.736 31.7029 131.792L31.0752 133.831C31.0652 133.862 31.0492 133.89 31.0281 133.914C31.0071 133.939 30.9813 133.959 30.9524 133.973C30.9215 133.98 30.8895 133.981 30.858 133.978ZM21.5785 129.8L30.707 133.449L31.179 131.863L22.3432 128.214L21.5785 129.8Z" fill="#263238"/>
</svg>
