<svg width="25" height="25" viewBox="0 0 25 25" fill="none" xmlns="http://www.w3.org/2000/svg">
<path d="M24.6416 11.6415L13.5641 24.4079C13.4639 24.5234 13.3401 24.616 13.2011 24.6795C13.062 24.743 12.9109 24.7759 12.758 24.7759C12.6052 24.7759 12.4541 24.743 12.315 24.6795C12.1759 24.616 12.0521 24.5234 11.952 24.4079L0.877785 11.6415C0.844321 11.603 0.822623 11.5557 0.815276 11.5052C0.807928 11.4548 0.815241 11.4033 0.836343 11.3568C0.857446 11.3104 0.891448 11.271 0.934299 11.2434C0.977151 11.2157 1.02705 11.201 1.07804 11.2009H3.78151C3.93504 11.2009 4.0819 11.2677 4.18537 11.3845L11.4914 19.8053V1.01115C11.4914 0.864298 11.6116 0.744144 11.7584 0.744144H13.761C13.9078 0.744144 14.028 0.864298 14.028 1.01115V19.8053L21.3341 11.3845C21.4342 11.2677 21.581 11.2009 21.7379 11.2009H24.4414C24.6683 11.2009 24.7918 11.4679 24.6416 11.6415Z" fill="#5276F9"/>
</svg>
