<svg width="17" height="15" viewBox="0 0 17 15" fill="none" xmlns="http://www.w3.org/2000/svg">
<path d="M13.6635 2.4112H11.2523V1.60747C11.2523 0.723359 10.5289 0 9.64479 0H6.42986C5.54575 0 4.8224 0.723359 4.8224 1.60747V2.4112H2.4112C1.04485 2.4112 0 3.45605 0 4.8224V12.056C0 13.4223 1.04485 14.4672 2.4112 14.4672H13.6635C15.0298 14.4672 16.0747 13.4223 16.0747 12.056V4.8224C16.0747 3.45605 15.0298 2.4112 13.6635 2.4112ZM6.42986 1.60747H9.64479V2.4112H6.42986V1.60747ZM14.4672 12.056C14.4672 12.5382 14.1457 12.8597 13.6635 12.8597H2.4112C1.92896 12.8597 1.60747 12.5382 1.60747 12.056V7.55509L5.38501 8.84106H5.62613H10.4485C10.5289 8.84106 10.6093 8.84106 10.6896 8.76068L14.4672 7.47471V12.056Z" fill="white"/>
</svg>
