<svg width="17" height="17" viewBox="0 0 17 17" fill="none" xmlns="http://www.w3.org/2000/svg">
<path d="M13.7563 10.6683C13.7044 10.6058 13.6535 10.5433 13.6034 10.4829C12.9158 9.65119 12.4998 9.14921 12.4998 6.79463C12.4998 5.57562 12.2081 4.5754 11.6333 3.82524C11.2095 3.27105 10.6366 2.85065 9.88139 2.53996C9.87167 2.53455 9.86299 2.52746 9.85576 2.51901C9.58414 1.60944 8.84085 1.00024 8.00254 1.00024C7.16423 1.00024 6.42126 1.60944 6.14964 2.51808C6.14239 2.52621 6.13383 2.53308 6.12432 2.53839C4.36206 3.26386 3.50562 4.65573 3.50562 6.7937C3.50562 9.14921 3.09022 9.65119 2.40195 10.482C2.35193 10.5423 2.30099 10.6036 2.2491 10.6674C2.11507 10.829 2.03015 11.0256 2.00439 11.234C1.97864 11.4424 2.01312 11.6538 2.10376 11.8432C2.29661 12.2496 2.70764 12.5018 3.1768 12.5018H12.8317C13.2987 12.5018 13.7069 12.2499 13.9004 11.8454C13.9914 11.656 14.0262 11.4444 14.0007 11.2358C13.9751 11.0271 13.8903 10.8302 13.7563 10.6683Z" fill="white"/>
<path d="M8.00139 15.0037C8.45313 15.0033 8.89635 14.8807 9.28403 14.6489C9.67172 14.417 9.98942 14.0845 10.2034 13.6867C10.2135 13.6676 10.2185 13.6463 10.2179 13.6247C10.2173 13.6031 10.2111 13.5821 10.2 13.5636C10.1888 13.5452 10.1731 13.5299 10.1543 13.5193C10.1355 13.5087 10.1143 13.5032 10.0928 13.5032H5.91064C5.88905 13.5031 5.8678 13.5086 5.84897 13.5192C5.83015 13.5298 5.81438 13.545 5.8032 13.5635C5.79203 13.582 5.78583 13.603 5.78521 13.6246C5.78459 13.6462 5.78957 13.6676 5.79966 13.6867C6.01366 14.0845 6.33131 14.4169 6.71893 14.6488C7.10656 14.8806 7.54971 15.0033 8.00139 15.0037Z" fill="white"/>
</svg>
