<svg width="17" height="17" viewBox="0 0 17 17" fill="none" xmlns="http://www.w3.org/2000/svg">
<path d="M10.3963 2.01908C9.788 1.36237 8.93844 1.00073 8.00074 1.00073C7.05803 1.00073 6.20566 1.36019 5.60022 2.01283C4.98821 2.67266 4.69002 3.56942 4.76003 4.53775C4.89881 6.44817 6.35257 8.00226 8.00074 8.00226C9.64891 8.00226 11.1002 6.44848 11.2411 4.53838C11.3121 3.57879 11.012 2.68391 10.3963 2.01908Z" fill="white"/>
<path d="M13.5028 15.0035H2.5004C2.35639 15.0054 2.21377 14.9751 2.08292 14.9149C1.95207 14.8548 1.83628 14.7662 1.74398 14.6556C1.54081 14.4128 1.45892 14.0811 1.51956 13.7457C1.78337 12.2823 2.60667 11.053 3.9007 10.19C5.05033 9.42385 6.50658 9.0022 8.00159 9.0022C9.49661 9.0022 10.9529 9.42416 12.1025 10.19C13.3965 11.0526 14.2198 12.282 14.4836 13.7454C14.5443 14.0808 14.4624 14.4124 14.2592 14.6553C14.1669 14.7659 14.0512 14.8546 13.9203 14.9148C13.7895 14.975 13.6468 15.0053 13.5028 15.0035Z" fill="white"/>
</svg>
