<svg width="17" height="17" viewBox="0 0 17 17" fill="none" xmlns="http://www.w3.org/2000/svg">
<path d="M13.3774 7.00155H9.00142C8.60351 7.00155 8.22189 6.84348 7.94053 6.56211C7.65916 6.28075 7.50109 5.89914 7.50109 5.50122V1.12527C7.50109 1.09211 7.48792 1.06031 7.46447 1.03686C7.44102 1.01342 7.40922 1.00024 7.37606 1.00024H4.50044C3.96989 1.00024 3.46107 1.211 3.08591 1.58616C2.71076 1.96131 2.5 2.47013 2.5 3.00068V13.0029C2.5 13.5334 2.71076 14.0422 3.08591 14.4174C3.46107 14.7925 3.96989 15.0033 4.50044 15.0033H11.502C12.0325 15.0033 12.5413 14.7925 12.9165 14.4174C13.2916 14.0422 13.5024 13.5334 13.5024 13.0029V7.12658C13.5024 7.09342 13.4892 7.06162 13.4658 7.03817C13.4423 7.01472 13.4105 7.00155 13.3774 7.00155ZM10.5017 12.0026H5.50065C5.36802 12.0026 5.24081 11.9499 5.14702 11.8562C5.05324 11.7624 5.00055 11.6352 5.00055 11.5025C5.00055 11.3699 5.05324 11.2427 5.14702 11.1489C5.24081 11.0551 5.36802 11.0024 5.50065 11.0024H10.5017C10.6344 11.0024 10.7616 11.0551 10.8554 11.1489C10.9492 11.2427 11.0019 11.3699 11.0019 11.5025C11.0019 11.6352 10.9492 11.7624 10.8554 11.8562C10.7616 11.9499 10.6344 12.0026 10.5017 12.0026ZM10.5017 9.50209H5.50065C5.36802 9.50209 5.24081 9.4494 5.14702 9.35562C5.05324 9.26183 5.00055 9.13462 5.00055 9.00199C5.00055 8.86935 5.05324 8.74214 5.14702 8.64836C5.24081 8.55457 5.36802 8.50188 5.50065 8.50188H10.5017C10.6344 8.50188 10.7616 8.55457 10.8554 8.64836C10.9492 8.74214 11.0019 8.86935 11.0019 9.00199C11.0019 9.13462 10.9492 9.26183 10.8554 9.35562C10.7616 9.4494 10.6344 9.50209 10.5017 9.50209Z" fill="white"/>
<path d="M13.1023 5.89497L8.6066 1.39929C8.59786 1.39059 8.58674 1.38468 8.57465 1.38229C8.56255 1.3799 8.55002 1.38114 8.53863 1.38585C8.52724 1.39056 8.51749 1.39853 8.51062 1.40877C8.50375 1.419 8.50005 1.43104 8.5 1.44336V5.50139C8.5 5.63404 8.5527 5.76127 8.6465 5.85507C8.7403 5.94887 8.86752 6.00157 9.00018 6.00157H13.0582C13.0705 6.00152 13.0826 5.99782 13.0928 5.99095C13.103 5.98408 13.111 5.97433 13.1157 5.96294C13.1204 5.95154 13.1217 5.93901 13.1193 5.92692C13.1169 5.91483 13.111 5.90371 13.1023 5.89497Z" fill="white"/>
</svg>
