<svg width="17" height="17" viewBox="0 0 17 17" fill="none" xmlns="http://www.w3.org/2000/svg">
<path d="M8.00092 5.50139C7.50636 5.50139 7.0229 5.64804 6.61169 5.92281C6.20048 6.19757 5.87998 6.5881 5.69072 7.04502C5.50146 7.50193 5.45194 8.00471 5.54842 8.48977C5.64491 8.97482 5.88306 9.42038 6.23277 9.77009C6.58247 10.1198 7.02803 10.3579 7.51309 10.4544C7.99815 10.5509 8.50092 10.5014 8.95784 10.3121C9.41475 10.1229 9.80528 9.80237 10.08 9.39116C10.3548 8.97995 10.5015 8.49649 10.5015 8.00193C10.4995 7.33936 10.2354 6.70448 9.76688 6.23597C9.29837 5.76745 8.6635 5.50337 8.00092 5.50139ZM13.3996 8.00193C13.3983 8.23558 13.3812 8.46888 13.3483 8.70021L14.8702 9.89172C14.9365 9.94645 14.9812 10.023 14.9962 10.1076C15.0113 10.1922 14.9958 10.2795 14.9524 10.3537L13.5127 12.8392C13.469 12.9128 13.4007 12.9686 13.3198 12.9968C13.239 13.025 13.1508 13.0238 13.0708 12.9933L11.2813 12.2744C10.9087 12.5614 10.5009 12.7995 10.0679 12.983L9.80037 14.8828C9.7854 14.9679 9.74134 15.0452 9.67572 15.1014C9.6101 15.1576 9.52699 15.1893 9.44061 15.191H6.56123C6.47641 15.1893 6.39466 15.159 6.32932 15.1049C6.26398 15.0508 6.21891 14.9761 6.20146 14.8931L5.93391 12.9933C5.49971 12.8119 5.09165 12.5734 4.72052 12.2841L2.93106 13.003C2.85107 13.0335 2.76291 13.0347 2.68207 13.0066C2.60124 12.9785 2.53291 12.9228 2.48909 12.8492L1.0494 10.364C1.00607 10.2898 0.990544 10.2025 1.0056 10.1179C1.02066 10.0333 1.06533 9.95677 1.13161 9.90204L2.6535 8.71053C2.62104 8.47569 2.60392 8.23899 2.60224 8.00193C2.60354 7.76828 2.62067 7.53499 2.6535 7.30366L1.13161 6.11215C1.06533 6.05742 1.02066 5.9809 1.0056 5.89627C0.990544 5.81164 1.00607 5.72441 1.0494 5.65017L2.48909 3.16463C2.53286 3.09105 2.60117 3.03526 2.68201 3.00707C2.76285 2.97889 2.85104 2.98011 2.93106 3.01053L4.72052 3.72944C5.09314 3.44251 5.5009 3.20438 5.93391 3.02085L6.20146 1.12106C6.21644 1.03596 6.2605 0.958706 6.32612 0.902493C6.39174 0.846281 6.47484 0.814601 6.56123 0.812866H9.44061C9.52542 0.814517 9.60717 0.84487 9.67251 0.898971C9.73786 0.953072 9.78293 1.02773 9.80037 1.11074L10.0679 3.01053C10.5027 3.19181 10.9113 3.43033 11.2829 3.71975L13.0708 3.00084C13.1508 2.9704 13.2389 2.96912 13.3198 2.99725C13.4006 3.02538 13.4689 3.0811 13.5127 3.15463L14.9524 5.64017C14.9958 5.71441 15.0113 5.80163 14.9962 5.88626C14.9812 5.97089 14.9365 6.04741 14.8702 6.10214L13.3483 7.29365C13.3808 7.52838 13.3979 7.76498 13.3996 8.00193Z" fill="white"/>
</svg>
