<svg width="17" height="17" viewBox="0 0 17 17" fill="none" xmlns="http://www.w3.org/2000/svg">
<path d="M7.98579 1.52295C4.39626 1.52295 1.48438 4.43327 1.48438 8.02436C1.48438 11.6155 4.39501 14.5258 7.98579 14.5258C11.5766 14.5258 14.4872 11.6151 14.4872 8.02436C14.4872 4.43358 11.5756 1.52295 7.98579 1.52295ZM11.8873 7.87621C11.7982 8.89612 11.3625 9.42967 11.0121 9.69723C10.6617 9.96479 10.241 10.0823 9.87808 10.0173C9.7099 9.98719 9.54931 9.92424 9.40547 9.83205C9.26163 9.73986 9.13736 9.62023 9.03977 9.48C8.672 9.83773 8.17749 10.0352 7.66447 10.0292C7.43796 10.0309 7.21362 9.98497 7.00603 9.89434C6.79844 9.80371 6.61224 9.67042 6.45952 9.50312C6.10382 9.11492 5.92816 8.55417 5.98067 7.96435C6.07444 6.87036 6.94682 6.17052 7.75824 6.04268C8.60843 5.90859 9.39078 6.2471 9.72429 6.65094L9.84463 6.7966L9.64647 8.37132C9.60927 8.81954 9.74899 9.10523 10.0306 9.15586C10.1053 9.16899 10.2838 9.1518 10.4798 9.00177C10.6898 8.84079 10.953 8.50166 11.0143 7.79932C11.0877 6.96976 10.8783 6.26179 10.4126 5.75231C9.9284 5.22407 9.19074 4.94463 8.27992 4.94463C6.59205 4.94463 5.09766 6.33337 4.94857 8.03906C4.8773 8.85798 5.12579 9.62315 5.64872 10.1936C6.16008 10.7518 6.87743 11.0607 7.66979 11.0607C8.26366 11.0607 8.62656 10.9966 9.21637 10.7862C9.32571 10.7473 9.44606 10.7533 9.55092 10.8031C9.65579 10.8529 9.73659 10.9422 9.77556 11.0516C9.81452 11.1609 9.80845 11.2813 9.75868 11.3861C9.70892 11.491 9.61953 11.5718 9.51019 11.6108C8.82816 11.8536 8.36369 11.9358 7.66979 11.9358C6.62956 11.9358 5.68279 11.5276 5.00358 10.7865C4.31437 10.0329 3.98367 9.03084 4.07681 7.96435C4.16777 6.92256 4.6535 5.94422 5.44493 5.21C6.23635 4.47578 7.24438 4.06944 8.27992 4.06944C9.44267 4.06944 10.4032 4.44702 11.0577 5.16124C11.6857 5.84608 11.9801 6.81004 11.8873 7.87621Z" fill="white"/>
<path d="M7.89645 6.90744C7.43257 6.98032 6.90926 7.40291 6.85358 8.04164C6.8223 8.3876 6.91614 8.7054 7.10601 8.91341C7.17676 8.99135 7.26334 9.05329 7.35995 9.0951C7.45656 9.1369 7.56098 9.15761 7.66623 9.15583C8.30152 9.15583 8.75258 8.68851 8.81576 7.96532C8.81768 7.9435 8.82124 7.92186 8.8264 7.90057L8.92649 7.1045C8.61642 6.92127 8.25226 6.8516 7.89645 6.90744Z" fill="white"/>
</svg>
