<svg width="17" height="17" viewBox="0 0 17 17" fill="none" xmlns="http://www.w3.org/2000/svg">
<path d="M12.44 2.5576C11.1787 1.54841 9.61128 0.998959 7.99593 0.999757C6.09177 0.999757 4.31325 1.73335 2.98359 3.06552C1.69862 4.35455 0.994407 6.05648 1.00003 7.85656C1.00008 9.17632 1.38753 10.467 2.11434 11.5686L2.12028 11.5771C2.12903 11.5899 2.13809 11.6027 2.14716 11.6152C2.15622 11.6277 2.16748 11.6439 2.16998 11.648L2.17685 11.6605C2.21217 11.723 2.23937 11.7993 2.2153 11.8762L1.63955 13.9598C1.61651 14.0372 1.6039 14.1174 1.60204 14.1983C1.60162 14.4108 1.68553 14.6149 1.83535 14.7657C1.98517 14.9166 2.18869 15.0018 2.40128 15.0028C2.51361 14.9991 2.62432 14.9748 2.72791 14.9312L4.83743 14.1698L4.864 14.1595C4.92138 14.1354 4.98305 14.1232 5.04529 14.1236C5.10267 14.1237 5.15955 14.1343 5.21314 14.1548C5.26377 14.1745 5.72356 14.3505 6.20867 14.4861C6.61188 14.5987 7.45081 14.7674 8.10814 14.7674C9.97261 14.7674 11.7136 14.0454 13.0101 12.7339C14.2954 11.4323 15.0031 9.70228 15.0031 7.86031C15.0032 7.38749 14.9532 6.91599 14.8537 6.45376C14.5305 4.93405 13.6734 3.55 12.44 2.5576ZM5.0009 9.0015C4.80308 9.0015 4.6097 8.94284 4.44521 8.83293C4.28073 8.72303 4.15253 8.56681 4.07682 8.38405C4.00112 8.20128 3.98131 8.00017 4.01991 7.80615C4.0585 7.61212 4.15376 7.4339 4.29364 7.29402C4.43353 7.15414 4.61175 7.05888 4.80577 7.02028C4.99979 6.98169 5.20091 7.0015 5.38367 7.0772C5.56644 7.1529 5.72265 7.2811 5.83256 7.44559C5.94246 7.61007 6.00112 7.80346 6.00112 8.00128C6.00112 8.26655 5.89574 8.52096 5.70817 8.70854C5.52059 8.89612 5.26618 9.0015 5.0009 9.0015ZM8.00156 9.0015C7.80373 9.0015 7.61035 8.94284 7.44587 8.83293C7.28138 8.72303 7.15318 8.56681 7.07748 8.38405C7.00177 8.20128 6.98197 8.00017 7.02056 7.80615C7.05915 7.61212 7.15441 7.4339 7.2943 7.29402C7.43418 7.15414 7.6124 7.05888 7.80643 7.02028C8.00045 6.98169 8.20156 7.0015 8.38433 7.0772C8.56709 7.1529 8.7233 7.2811 8.83321 7.44559C8.94311 7.61007 9.00178 7.80346 9.00178 8.00128C9.00178 8.26655 8.8964 8.52096 8.70882 8.70854C8.52124 8.89612 8.26683 9.0015 8.00156 9.0015ZM11.0022 9.0015C10.8044 9.0015 10.611 8.94284 10.4465 8.83293C10.282 8.72303 10.1538 8.56681 10.0781 8.38405C10.0024 8.20128 9.98262 8.00017 10.0212 7.80615C10.0598 7.61212 10.1551 7.4339 10.295 7.29402C10.4348 7.15414 10.6131 7.05888 10.8071 7.02028C11.0011 6.98169 11.2022 7.0015 11.385 7.0772C11.5677 7.1529 11.724 7.2811 11.8339 7.44559C11.9438 7.61007 12.0024 7.80346 12.0024 8.00128C12.0024 8.26655 11.897 8.52096 11.7095 8.70854C11.5219 8.89612 11.2675 9.0015 11.0022 9.0015Z" fill="white"/>
</svg>
