<svg width="410" height="290" viewBox="0 0 410 290" fill="none" xmlns="http://www.w3.org/2000/svg">
<path d="M334.221 191.967C334.68 191.368 335.002 190.675 335.166 189.938C335.33 189.2 335.331 188.435 335.169 187.697C335.006 186.959 334.685 186.266 334.228 185.666C333.771 185.067 333.188 184.575 332.521 184.226L333.537 172.456L326.572 170.091L325.369 186.732C324.861 187.897 324.795 189.21 325.184 190.42C325.574 191.631 326.391 192.656 327.482 193.301C328.573 193.946 329.861 194.167 331.103 193.921C332.344 193.675 333.453 192.98 334.219 191.967L334.221 191.967Z" fill="#FFB8B8"/>
<path d="M368.967 283.473H362.7L359.719 259.16H368.972L368.967 283.473Z" fill="#FFB8B8"/>
<path d="M358.222 281.672H370.314V289.325H350.609C350.609 287.295 351.411 285.349 352.839 283.913C354.267 282.478 356.203 281.672 358.222 281.672Z" fill="#2F2E41"/>
<path d="M354.74 267.34L348.653 268.844L339.984 245.951L348.97 243.731L354.74 267.34Z" fill="#FFB8B8"/>
<path d="M343.962 267.952L355.703 265.047L357.523 272.479L338.39 277.213C337.907 275.242 338.223 273.159 339.268 271.422C340.313 269.686 342.002 268.437 343.962 267.952Z" fill="#2F2E41"/>
<path d="M361.632 275.721C361.059 275.722 360.506 275.51 360.081 275.125C359.655 274.74 359.387 274.21 359.328 273.637L352.116 206.071L345.838 226.733L354.729 259.004C354.882 259.557 354.827 260.148 354.573 260.662C354.32 261.177 353.886 261.579 353.356 261.792L346.287 264.634C345.996 264.751 345.684 264.808 345.371 264.8C345.057 264.793 344.749 264.722 344.463 264.591C344.178 264.46 343.922 264.273 343.711 264.04C343.5 263.807 343.338 263.534 343.235 263.236L332.338 231.806C331.146 228.374 330.618 224.744 330.784 221.113L332.304 187.193L372.362 188.899L371.737 272.819C371.729 273.404 371.505 273.964 371.108 274.391C370.711 274.818 370.171 275.08 369.591 275.127L361.812 275.717C361.751 275.719 361.691 275.721 361.632 275.721Z" fill="#2F2E41"/>
<path d="M355.001 112.126C362.44 112.126 368.47 106.064 368.47 98.5852C368.47 91.1066 362.44 85.0439 355.001 85.0439C347.562 85.0439 341.531 91.1066 341.531 98.5852C341.531 106.064 347.562 112.126 355.001 112.126Z" fill="#FFB8B8"/>
<path d="M364.903 191.105C361.355 191.105 356.951 190.813 352.39 190.512C346.16 190.099 339.718 189.673 334.909 189.953C334.26 190.018 333.605 189.915 333.006 189.653C332.408 189.391 331.887 188.979 331.491 188.457C326.534 182.076 334.179 157.192 334.508 156.136L340.729 128.312L340.996 128.372L340.729 128.312C342.1 122.192 346.471 117.678 352.143 116.531C357.451 115.459 362.586 117.595 365.879 122.251C366.054 122.498 366.229 122.751 366.403 123.011C377.125 138.976 371.061 178.64 370.654 181.198C371.221 181.88 374.284 185.737 373.442 188.416C373.099 189.506 372.169 190.248 370.677 190.621C368.776 190.999 366.838 191.161 364.901 191.103L364.903 191.105Z" fill="#6C63FF"/>
<path d="M335.127 191.117C333.907 191.117 332.261 190.664 330.042 189.739C329.088 189.34 326.186 188.126 329.71 157.171C331.44 141.965 333.92 126.865 333.944 126.715L333.968 126.569L334.102 126.508C334.165 126.479 340.497 123.561 341.599 119.812C341.635 119.682 341.678 119.556 341.727 119.434C342.03 118.601 342.641 117.917 343.434 117.526C344.226 117.135 345.138 117.066 345.979 117.335C346.868 117.548 347.643 118.094 348.146 118.86C348.649 119.627 348.844 120.558 348.689 121.463C348.306 123.909 347.569 126.285 346.501 128.516C343.521 134.696 341.503 151.081 341.483 151.245C341.369 152.645 338.665 185.798 338.144 188.314C337.962 189.193 337.627 190.268 336.645 190.79C336.174 191.023 335.653 191.137 335.128 191.12L335.127 191.117Z" fill="#2F2E41"/>
<path d="M349.841 189.847C349.595 189.847 349.356 189.764 349.161 189.613C345.198 186.585 351.612 149.889 355.413 137.227C356.175 134.691 356.853 132.521 357.429 130.773C358.479 127.638 359.212 124.405 359.617 121.122C359.826 119.343 360.281 118.328 361.008 118.016C361.513 117.8 362.105 117.947 362.774 118.453C366.287 118.279 369.701 119.721 372.865 121.31L375.712 122.738L378.907 179.607C378.816 183.236 371.7 185.798 368.597 185.962C363.612 186.225 354.662 187.041 350.719 189.551C350.46 189.732 350.156 189.834 349.841 189.846L349.841 189.847Z" fill="#2F2E41"/>
<path d="M332.043 179.176C331.995 179.176 331.948 179.176 331.901 179.172L325.447 178.773C325.126 178.753 324.812 178.666 324.526 178.518C324.24 178.37 323.987 178.163 323.785 177.911C323.583 177.66 323.435 177.369 323.35 177.056C323.266 176.744 323.247 176.417 323.296 176.097L326.216 156.647L331.713 129.356C331.848 128.684 332.123 128.048 332.519 127.489C332.914 126.93 333.422 126.461 334.01 126.112C334.597 125.764 335.251 125.543 335.929 125.464C336.607 125.386 337.293 125.452 337.944 125.657C339.057 126.014 340.006 126.759 340.62 127.758C341.235 128.757 341.473 129.943 341.294 131.104L336.926 158.45L334.34 177.166C334.261 177.722 333.985 178.232 333.563 178.601C333.141 178.97 332.601 179.174 332.042 179.176H332.043Z" fill="#2F2E41"/>
<path d="M354.091 157.887C354.485 157.243 355.014 156.694 355.642 156.278C356.269 155.862 356.98 155.589 357.724 155.479C358.468 155.369 359.226 155.424 359.947 155.641C360.667 155.858 361.331 156.23 361.892 156.733L372.474 151.594L377.149 157.297L362.104 164.343C361.202 165.235 360.005 165.763 358.741 165.828C357.477 165.892 356.233 165.488 355.246 164.693C354.258 163.897 353.595 162.765 353.382 161.51C353.169 160.256 353.422 158.967 354.091 157.887Z" fill="#FFB8B8"/>
<path d="M368.791 163.405C368.27 163.405 367.764 163.229 367.355 162.905C366.946 162.581 366.657 162.127 366.535 161.618L364.999 155.195C364.882 154.712 364.922 154.204 365.114 153.746C365.305 153.287 365.638 152.903 366.063 152.649L375.331 147.071L370.593 129.631C370.183 128.137 370.371 126.541 371.117 125.186C371.863 123.83 373.107 122.821 374.583 122.376C376.059 121.93 377.65 122.083 379.015 122.802C380.38 123.521 381.411 124.749 381.887 126.223L387.118 142.28C387.76 144.238 387.766 146.35 387.132 148.311C386.499 150.271 385.26 151.977 383.597 153.182L370.15 162.962C369.754 163.25 369.279 163.405 368.791 163.405Z" fill="#2F2E41"/>
<path d="M268.65 0H9.14742C6.72227 0.00291812 4.39727 0.972741 2.68242 2.69673C0.967574 4.42072 0.00290265 6.75811 0 9.19619V37.27C0.00290265 39.7081 0.967574 42.0455 2.68242 43.7694C4.39727 45.4934 6.72227 46.4632 9.14742 46.4662H268.65C271.075 46.4632 273.4 45.4934 275.115 43.7694C276.83 42.0455 277.795 39.7081 277.798 37.27V9.19619C277.795 6.75811 276.83 4.42072 275.115 2.69673C273.4 0.972741 271.075 0.00291812 268.65 0ZM276.835 37.27C276.832 39.4512 275.968 41.5422 274.434 43.0845C272.9 44.6269 270.82 45.4948 268.65 45.498H9.14742C6.97776 45.4948 4.89787 44.6269 3.36369 43.0845C1.8295 41.5422 0.966192 39.4512 0.963001 37.27V9.19619C0.966192 7.01496 1.8295 4.92399 3.36369 3.38162C4.89787 1.83925 6.97776 0.971344 9.14742 0.968135H268.65C270.82 0.971344 272.9 1.83925 274.434 3.38162C275.968 4.92399 276.832 7.01496 276.835 9.19619V37.27Z" fill="#3F3D56"/>
<path d="M268.65 112.776H9.14742C6.72227 112.773 4.39727 111.804 2.68242 110.08C0.967574 108.356 0.00290265 106.018 0 103.58V75.507C0.00290265 73.0689 0.967574 70.7315 2.68242 69.0075C4.39727 67.2835 6.72227 66.3137 9.14742 66.3108H268.65C271.075 66.3137 273.4 67.2835 275.115 69.0075C276.83 70.7315 277.795 73.0689 277.798 75.507V103.58C277.795 106.018 276.83 108.356 275.115 110.08C273.4 111.804 271.075 112.773 268.65 112.776ZM9.14742 67.2789C6.97754 67.2814 4.89723 68.1491 3.36289 69.6916C1.82855 71.2341 0.965468 73.3255 0.963001 75.507V103.58C0.965033 105.762 1.82792 107.854 3.36231 109.397C4.8967 110.94 6.97725 111.807 9.14742 111.81H268.65C270.82 111.808 272.901 110.94 274.435 109.397C275.97 107.855 276.833 105.763 276.835 103.582V75.507C276.833 73.3255 275.97 71.2341 274.435 69.6916C272.901 68.1491 270.821 67.2814 268.651 67.2789H9.14742Z" fill="#CCCCCC"/>
<path d="M268.65 179.087H9.14742C6.72227 179.084 4.39727 178.114 2.68242 176.39C0.967574 174.666 0.00290265 172.329 0 169.891V141.818C0.00290265 139.38 0.967574 137.042 2.68242 135.318C4.39727 133.594 6.72227 132.625 9.14742 132.622H268.65C271.075 132.625 273.4 133.594 275.115 135.318C276.83 137.042 277.795 139.38 277.798 141.818V169.891C277.795 172.329 276.83 174.666 275.115 176.39C273.4 178.114 271.075 179.084 268.65 179.087ZM9.14742 133.588C6.97754 133.59 4.89723 134.458 3.36289 136C1.82855 137.543 0.965468 139.634 0.963001 141.816V169.889C0.965323 172.07 1.82834 174.162 3.3627 175.705C4.89706 177.247 6.97744 178.115 9.14742 178.117H268.65C270.82 178.115 272.901 177.247 274.435 175.705C275.97 174.162 276.833 172.071 276.835 169.889V141.818C276.833 139.636 275.97 137.544 274.436 136.001C272.901 134.458 270.821 133.59 268.65 133.588H9.14742Z" fill="#CCCCCC"/>
<path d="M44.2104 39.2393C41.0615 39.2393 37.9832 38.3005 35.365 36.5417C32.7467 34.783 30.7061 32.2831 29.501 29.3584C28.296 26.4336 27.9807 23.2153 28.595 20.1104C29.2093 17.0055 30.7257 14.1534 32.9523 11.9149C35.179 9.67642 38.0159 8.15197 41.1043 7.53437C44.1928 6.91677 47.394 7.23374 50.3033 8.44521C53.2125 9.65669 55.6991 11.7082 57.4485 14.3405C59.198 16.9727 60.1318 20.0673 60.1318 23.233C60.1318 27.4782 58.4544 31.5494 55.4685 34.5512C52.4827 37.5529 48.433 39.2393 44.2104 39.2393Z" fill="#6C63FF"/>
<path d="M245.143 36.3013H75.1916C74.17 36.3013 73.1903 35.8933 72.468 35.1671C71.7457 34.4409 71.3398 33.456 71.3398 32.429C71.3398 31.402 71.7457 30.4171 72.468 29.6909C73.1903 28.9647 74.17 28.5568 75.1916 28.5568H245.143C246.164 28.5568 247.144 28.9647 247.867 29.6909C248.589 30.4171 248.995 31.402 248.995 32.429C248.995 33.456 248.589 34.4409 247.867 35.1671C247.144 35.8933 246.164 36.3013 245.143 36.3013Z" fill="#CCCCCC"/>
<path d="M189.773 19.8446H75.1877C74.1661 19.8446 73.1864 19.4367 72.4641 18.7105C71.7417 17.9843 71.3359 16.9994 71.3359 15.9724C71.3359 14.9454 71.7417 13.9604 72.4641 13.2343C73.1864 12.5081 74.1661 12.1001 75.1877 12.1001H189.773C190.794 12.1001 191.774 12.5081 192.497 13.2343C193.219 13.9604 193.625 14.9454 193.625 15.9724C193.625 16.9994 193.219 17.9843 192.497 18.7105C191.774 19.4367 190.794 19.8446 189.773 19.8446Z" fill="#CCCCCC"/>
<path d="M44.2104 105.55C41.0615 105.55 37.9832 104.611 35.365 102.852C32.7467 101.093 30.7061 98.5934 29.501 95.6687C28.296 92.7439 27.9807 89.5256 28.595 86.4207C29.2093 83.3158 30.7257 80.4637 32.9523 78.2252C35.179 75.9867 38.0159 74.4623 41.1043 73.8447C44.1928 73.2271 47.394 73.544 50.3033 74.7555C53.2125 75.967 55.6991 78.0186 57.4485 80.6508C59.198 83.283 60.1318 86.3776 60.1318 89.5433C60.1318 93.7885 58.4544 97.8597 55.4685 100.861C52.4827 103.863 48.433 105.55 44.2104 105.55Z" fill="#E6E6E6"/>
<path d="M245.143 102.612H75.1916C74.17 102.612 73.1903 102.204 72.468 101.478C71.7457 100.752 71.3398 99.7667 71.3398 98.7397C71.3398 97.7127 71.7457 96.7278 72.468 96.0016C73.1903 95.2754 74.17 94.8674 75.1916 94.8674H245.143C246.164 94.8674 247.144 95.2754 247.867 96.0016C248.589 96.7278 248.995 97.7127 248.995 98.7397C248.995 99.7667 248.589 100.752 247.867 101.478C247.144 102.204 246.164 102.612 245.143 102.612Z" fill="#E6E6E6"/>
<path d="M189.773 86.1553H75.1877C74.1661 86.1553 73.1864 85.7473 72.4641 85.0212C71.7417 84.295 71.3359 83.31 71.3359 82.283C71.3359 81.256 71.7417 80.2711 72.4641 79.5449C73.1864 78.8187 74.1661 78.4108 75.1877 78.4108H189.773C190.794 78.4108 191.774 78.8187 192.497 79.5449C193.219 80.2711 193.625 81.256 193.625 82.283C193.625 83.31 193.219 84.295 192.497 85.0212C191.774 85.7473 190.794 86.1553 189.773 86.1553Z" fill="#E6E6E6"/>
<path d="M44.2104 171.86C41.0615 171.86 37.9832 170.922 35.365 169.163C32.7467 167.404 30.7061 164.904 29.501 161.979C28.296 159.055 27.9807 155.836 28.595 152.731C29.2093 149.626 30.7257 146.774 32.9523 144.536C35.179 142.297 38.0159 140.773 41.1043 140.155C44.1928 139.538 47.394 139.855 50.3033 141.066C53.2125 142.278 55.6991 144.329 57.4485 146.961C59.198 149.594 60.1318 152.688 60.1318 155.854C60.1318 160.099 58.4544 164.17 55.4685 167.172C52.4827 170.174 48.433 171.86 44.2104 171.86Z" fill="#E6E6E6"/>
<path d="M245.143 168.923H75.1916C74.17 168.923 73.1903 168.515 72.468 167.789C71.7457 167.062 71.3398 166.077 71.3398 165.05C71.3398 164.024 71.7457 163.039 72.468 162.312C73.1903 161.586 74.17 161.178 75.1916 161.178H245.143C246.164 161.178 247.144 161.586 247.867 162.312C248.589 163.039 248.995 164.024 248.995 165.05C248.995 166.077 248.589 167.062 247.867 167.789C247.144 168.515 246.164 168.923 245.143 168.923Z" fill="#E6E6E6"/>
<path d="M189.773 152.466H75.1877C74.1661 152.466 73.1864 152.058 72.4641 151.332C71.7417 150.606 71.3359 149.621 71.3359 148.594C71.3359 147.567 71.7417 146.582 72.4641 145.856C73.1864 145.13 74.1661 144.722 75.1877 144.722H189.773C190.794 144.722 191.774 145.13 192.497 145.856C193.219 146.582 193.625 147.567 193.625 148.594C193.625 149.621 193.219 150.606 192.497 151.332C191.774 152.058 190.794 152.466 189.773 152.466Z" fill="#E6E6E6"/>
<path d="M43.399 28.8632C43.0036 28.8642 42.6186 28.7357 42.3022 28.4972L42.2824 28.4823L38.1557 25.3088C37.9645 25.1615 37.8041 24.9778 37.6836 24.7682C37.5631 24.5586 37.4849 24.3271 37.4533 24.0871C37.4218 23.8471 37.4375 23.6031 37.4998 23.3692C37.562 23.1353 37.6694 22.916 37.816 22.7239C37.9625 22.5317 38.1452 22.3705 38.3537 22.2493C38.5622 22.1282 38.7924 22.0495 39.0312 22.0178C39.27 21.986 39.5126 22.0019 39.7452 22.0645C39.9779 22.127 40.196 22.235 40.3872 22.3823L43.0601 24.4432L49.3761 16.1589C49.6719 15.7712 50.1088 15.5174 50.5907 15.4534C51.0726 15.3894 51.5601 15.5204 51.9459 15.8176L51.907 15.8728L51.947 15.8176C52.3323 16.1155 52.5844 16.5548 52.6479 17.0392C52.7114 17.5237 52.5813 18.0137 52.2859 18.4017L44.8567 28.1415C44.6845 28.3655 44.4634 28.5467 44.2105 28.671C43.9575 28.7953 43.6795 28.8594 43.3979 28.8583L43.399 28.8632Z" fill="white"/>
<path d="M409.453 290H300.869C300.723 290 300.584 289.942 300.481 289.839C300.378 289.735 300.32 289.595 300.32 289.449C300.32 289.302 300.378 289.162 300.481 289.059C300.584 288.955 300.723 288.897 300.869 288.897H409.453C409.599 288.897 409.738 288.955 409.841 289.059C409.944 289.162 410.002 289.302 410.002 289.449C410.002 289.595 409.944 289.735 409.841 289.839C409.738 289.942 409.599 290 409.453 290Z" fill="#CCCCCC"/>
<path d="M359.949 102.195C359.949 102.195 358.31 93.0832 354.58 94.1718C350.851 95.2604 341.252 96.3742 341.234 92.0832C341.216 87.7923 350.269 83.9995 355.607 84.5128C360.944 85.0261 370.021 86.5966 369.521 94.6443C369.121 99.7129 367.563 104.62 364.968 108.984L359.949 102.195Z" fill="#2F2E41"/>
</svg>
