<svg width="30" height="30" viewBox="0 0 30 30" fill="none" xmlns="http://www.w3.org/2000/svg">
<g clip-path="url(#clip0_1392_913)">
<path d="M17.2923 8.33329C19.1333 8.33329 20.6257 6.84091 20.6257 4.99996C20.6257 3.15901 19.1333 1.66663 17.2923 1.66663C15.4514 1.66663 13.959 3.15901 13.959 4.99996C13.959 6.84091 15.4514 8.33329 17.2923 8.33329Z" fill="white"/>
<path d="M20.7006 21.8583C20.6085 21.7964 20.505 21.7534 20.3961 21.732C20.2872 21.7107 20.1751 21.7112 20.0664 21.7337C19.9577 21.7563 19.8547 21.8002 19.7632 21.8631C19.6718 21.926 19.5938 22.0066 19.5339 22.1C18.7283 23.293 17.7414 24.353 16.6089 25.2416C16.3339 25.45 15.3089 26.2416 14.8756 26.075C14.5756 25.9833 14.7506 25.3916 14.8089 25.1416L15.2506 23.8333C15.4339 23.3 18.6256 13.8333 18.9756 12.75C19.4923 11.1666 19.2673 9.60831 16.9089 9.98331C16.2673 10.05 9.75892 10.8916 9.64225 10.9C9.53282 10.9071 9.42586 10.9357 9.32747 10.9841C9.22909 11.0326 9.14121 11.0999 9.06886 11.1824C8.99651 11.2648 8.9411 11.3606 8.90579 11.4645C8.87048 11.5683 8.85597 11.678 8.86309 11.7875C8.8702 11.8969 8.8988 12.0039 8.94725 12.1023C8.9957 12.2006 9.06305 12.2885 9.14547 12.3609C9.22788 12.4332 9.32373 12.4886 9.42756 12.5239C9.53139 12.5592 9.64115 12.5738 9.75059 12.5666C9.75059 12.5666 12.2506 12.2416 12.5256 12.2166C12.6664 12.2029 12.8083 12.2302 12.934 12.2953C13.0596 12.3603 13.1638 12.4604 13.2339 12.5833C13.3849 13.0501 13.3642 13.5554 13.1756 14.0083C12.9589 14.8416 9.53392 24.4916 9.42559 25.05C9.30939 25.5172 9.34165 26.009 9.51788 26.4571C9.69411 26.9051 10.0056 27.2871 10.4089 27.55C11.166 28.0546 12.0675 28.2975 12.9756 28.2416C13.8586 28.2309 14.7318 28.0556 15.5506 27.725C17.6256 26.8916 19.7923 24.675 20.9339 22.9333C21.0322 22.7564 21.0628 22.5497 21.0198 22.3518C20.9769 22.154 20.8634 21.9786 20.7006 21.8583Z" fill="white"/>
</g>
<defs>
<clipPath id="clip0_1392_913">
<rect width="30" height="30" fill="white"/>
</clipPath>
</defs>
</svg>
