<svg width="30" height="30" viewBox="0 0 30 30" fill="none" xmlns="http://www.w3.org/2000/svg">
<path fill-rule="evenodd" clip-rule="evenodd" d="M19.6875 6.5625C19.6875 5.3193 19.1936 4.12701 18.3146 3.24794C17.4355 2.36886 16.2432 1.875 15 1.875C13.7568 1.875 12.5645 2.36886 11.6854 3.24794C10.8064 4.12701 10.3125 5.3193 10.3125 6.5625V7.5H19.6875V6.5625ZM21.5625 6.5625V7.5H28.125V26.25C28.125 27.2446 27.7299 28.1984 27.0266 28.9016C26.3234 29.6049 25.3696 30 24.375 30H5.625C4.63044 30 3.67661 29.6049 2.97335 28.9016C2.27009 28.1984 1.875 27.2446 1.875 26.25V7.5H8.4375V6.5625C8.4375 4.82202 9.1289 3.15282 10.3596 1.92211C11.5903 0.691404 13.2595 0 15 0C16.7405 0 18.4097 0.691404 19.6404 1.92211C20.8711 3.15282 21.5625 4.82202 21.5625 6.5625ZM12.8513 15.2737C12.7641 15.1866 12.6606 15.1174 12.5467 15.0703C12.4328 15.0231 12.3108 14.9988 12.1875 14.9988C12.0642 14.9988 11.9422 15.0231 11.8283 15.0703C11.7144 15.1174 11.6109 15.1866 11.5237 15.2737C11.4366 15.3609 11.3674 15.4644 11.3203 15.5783C11.2731 15.6922 11.2488 15.8142 11.2488 15.9375C11.2488 16.0608 11.2731 16.1828 11.3203 16.2967C11.3674 16.4106 11.4366 16.5141 11.5237 16.6013L13.6744 18.75L11.5237 20.8987C11.3477 21.0748 11.2488 21.3135 11.2488 21.5625C11.2488 21.8115 11.3477 22.0502 11.5237 22.2263C11.6998 22.4023 11.9385 22.5012 12.1875 22.5012C12.4365 22.5012 12.6752 22.4023 12.8513 22.2263L15 20.0756L17.1487 22.2263C17.3248 22.4023 17.5635 22.5012 17.8125 22.5012C18.0615 22.5012 18.3002 22.4023 18.4763 22.2263C18.6523 22.0502 18.7512 21.8115 18.7512 21.5625C18.7512 21.3135 18.6523 21.0748 18.4763 20.8987L16.3256 18.75L18.4763 16.6013C18.6523 16.4252 18.7512 16.1865 18.7512 15.9375C18.7512 15.6885 18.6523 15.4498 18.4763 15.2737C18.3002 15.0977 18.0615 14.9988 17.8125 14.9988C17.5635 14.9988 17.3248 15.0977 17.1487 15.2737L15 17.4244L12.8513 15.2737Z" fill="white"/>
</svg>
