<svg width="30" height="30" viewBox="0 0 30 30" fill="none" xmlns="http://www.w3.org/2000/svg">
<path d="M12 0H18C18.7956 0 19.5587 0.332706 20.1213 0.924926C20.6839 1.51715 21 2.32037 21 3.15789V6.31579H27C27.7956 6.31579 28.5587 6.6485 29.1213 7.24072C29.6839 7.83294 30 8.63616 30 9.47368V26.8421C30 27.6796 29.6839 28.4829 29.1213 29.0751C28.5587 29.6673 27.7956 30 27 30H3C2.20435 30 1.44129 29.6673 0.87868 29.0751C0.31607 28.4829 0 27.6796 0 26.8421V9.47368C0 8.63616 0.31607 7.83294 0.87868 7.24072C1.44129 6.6485 2.20435 6.31579 3 6.31579H9V3.15789C9 2.32037 9.31607 1.51715 9.87868 0.924926C10.4413 0.332706 11.2044 0 12 0ZM18 6.31579V3.15789H12V6.31579H18ZM12.75 24.4737L22.635 14.0684L20.52 11.8421L12.75 20.0053L9.615 16.7211L7.5 18.9474L12.75 24.4737Z" fill="white"/>
</svg>
