<svg width="30" height="30" viewBox="0 0 30 30" fill="none" xmlns="http://www.w3.org/2000/svg">
<g clip-path="url(#clip0_1392_917)">
<path d="M26.25 0H3.75C1.67578 0 0 1.67578 0 3.75V18.75C0 20.8242 1.67578 22.5 3.75 22.5H11.25L8.74805 30L19.998 22.5H26.25C28.3242 22.5 30 20.8242 30 18.75V3.75C30 1.67578 28.3242 0 26.25 0ZM7.5 13.752C6.11719 13.752 4.99805 12.6328 4.99805 11.25C4.99805 9.86719 6.11719 8.74805 7.5 8.74805C8.88281 8.74805 10.002 9.86719 10.002 11.25C10.002 12.6328 8.88281 13.752 7.5 13.752ZM15 13.752C13.6172 13.752 12.498 12.6328 12.498 11.25C12.498 9.86719 13.6172 8.74805 15 8.74805C16.3828 8.74805 17.502 9.86719 17.502 11.25C17.502 12.6328 16.3828 13.752 15 13.752ZM22.5 13.752C21.1172 13.752 19.998 12.6328 19.998 11.25C19.998 9.86719 21.1172 8.74805 22.5 8.74805C23.8828 8.74805 25.002 9.86719 25.002 11.25C25.002 12.6328 23.8828 13.752 22.5 13.752Z" fill="white"/>
</g>
<defs>
<clipPath id="clip0_1392_917">
<rect width="30" height="30" fill="white"/>
</clipPath>
</defs>
</svg>
