<svg width="19" height="20" viewBox="0 0 19 20" fill="none" xmlns="http://www.w3.org/2000/svg">
<path d="M1.59775 16V4.8H3.30975L10.3338 13.424H9.48575V4.8H11.5498V16H9.83775L2.81375 7.376H3.66175V16H1.59775ZM13.1818 12.352V11.072H18.4138V12.352H13.1818ZM15.7898 9.904C15.2244 9.904 14.7231 9.792 14.2858 9.568C13.8484 9.344 13.5018 9.03467 13.2458 8.64C12.9898 8.24533 12.8618 7.792 12.8618 7.28C12.8618 6.77867 12.9898 6.336 13.2458 5.952C13.5018 5.55733 13.8484 5.248 14.2858 5.024C14.7231 4.8 15.2244 4.688 15.7898 4.688C16.3658 4.688 16.8724 4.8 17.3098 5.024C17.7471 5.248 18.0884 5.55733 18.3338 5.952C18.5898 6.336 18.7178 6.784 18.7178 7.296C18.7178 7.79733 18.5898 8.24533 18.3338 8.64C18.0884 9.03467 17.7471 9.344 17.3098 9.568C16.8724 9.792 16.3658 9.904 15.7898 9.904ZM15.7898 8.768C16.2591 8.768 16.6324 8.63467 16.9097 8.368C17.1978 8.09067 17.3418 7.73333 17.3418 7.296C17.3418 6.83733 17.1978 6.47467 16.9097 6.208C16.6324 5.94133 16.2591 5.808 15.7898 5.808C15.3311 5.808 14.9578 5.94667 14.6698 6.224C14.3818 6.49067 14.2378 6.848 14.2378 7.296C14.2378 7.73333 14.3818 8.09067 14.6698 8.368C14.9578 8.63467 15.3311 8.768 15.7898 8.768Z" fill="black"/>
</svg>
