<svg width="24" height="27" viewBox="0 0 24 27" fill="none" xmlns="http://www.w3.org/2000/svg">
<path d="M18.8571 26.7429H5.14286C1.82674 26.7429 0 24.9161 0 21.6V5.14286C0 1.82674 1.82674 0 5.14286 0H18.8571C22.1733 0 24 1.82674 24 5.14286V21.6C24 24.9161 22.1733 26.7429 18.8571 26.7429ZM5.14286 2.05714C2.98011 2.05714 2.05714 2.98011 2.05714 5.14286V21.6C2.05714 23.7627 2.98011 24.6857 5.14286 24.6857H18.8571C21.0199 24.6857 21.9429 23.7627 21.9429 21.6V5.14286C21.9429 2.98011 21.0199 2.05714 18.8571 2.05714H5.14286ZM18.5143 13.3714C18.5143 12.8037 18.0535 12.3429 17.4857 12.3429H6.51429C5.94651 12.3429 5.48571 12.8037 5.48571 13.3714C5.48571 13.9392 5.94651 14.4 6.51429 14.4H17.4857C18.0535 14.4 18.5143 13.9392 18.5143 13.3714ZM14.4 18.8571C14.4 18.2894 13.9392 17.8286 13.3714 17.8286H6.51429C5.94651 17.8286 5.48571 18.2894 5.48571 18.8571C5.48571 19.4249 5.94651 19.8857 6.51429 19.8857H13.3714C13.9392 19.8857 14.4 19.4249 14.4 18.8571ZM18.5143 7.88571C18.5143 7.31794 18.0535 6.85714 17.4857 6.85714H6.51429C5.94651 6.85714 5.48571 7.31794 5.48571 7.88571C5.48571 8.45349 5.94651 8.91429 6.51429 8.91429H17.4857C18.0535 8.91429 18.5143 8.45349 18.5143 7.88571Z" fill="black"/>
</svg>
