<svg width="43" height="43" viewBox="0 0 43 43" fill="none" xmlns="http://www.w3.org/2000/svg">
<path d="M15.6263 41.0833H27.3763C37.168 41.0833 41.0846 37.1666 41.0846 27.375V15.625C41.0846 5.83329 37.168 1.91663 27.3763 1.91663H15.6263C5.83464 1.91663 1.91797 5.83329 1.91797 15.625V27.375C1.91797 37.1666 5.83464 41.0833 15.6263 41.0833Z" stroke="#A6A6A6" stroke-width="2" stroke-linecap="round" stroke-linejoin="round"/>
<path d="M29.8815 24.6529C27.6686 26.8658 24.4961 27.5513 21.6957 26.67L16.6236 31.7225C16.2711 32.0946 15.5465 32.3296 15.0178 32.2513L12.6678 31.9379C11.8844 31.84 11.1794 31.0958 11.0619 30.3321L10.7486 27.9821C10.6703 27.4729 10.9249 26.7483 11.2774 26.3763L16.3299 21.3238C15.4682 18.5233 16.134 15.3508 18.3469 13.1379C21.5194 9.96542 26.6894 9.96542 29.8815 13.1379C33.054 16.2908 33.054 21.4608 29.8815 24.6529Z" stroke="#A6A6A6" stroke-width="2" stroke-miterlimit="10" stroke-linecap="round" stroke-linejoin="round"/>
<path d="M18.4654 29.8817L16.8008 28.1975" stroke="#A6A6A6" stroke-width="2" stroke-miterlimit="10" stroke-linecap="round" stroke-linejoin="round"/>
<path d="M24.234 18.954H24.2516" stroke="#A6A6A6" stroke-width="2" stroke-linecap="round" stroke-linejoin="round"/>
</svg>
