<svg width="24" height="24" viewBox="0 0 24 24" fill="none" xmlns="http://www.w3.org/2000/svg">
<path d="M20.8898 13.1147C20.6265 13.1147 20.3513 13.0309 20.0881 12.9711C19.555 12.8536 19.0311 12.6977 18.5206 12.5045C17.9655 12.3025 17.3553 12.313 16.8075 12.5339C16.2597 12.7548 15.8129 13.1705 15.5531 13.701L15.2899 14.2395C14.1244 13.5911 13.0535 12.7859 12.107 11.8463C11.1674 10.8999 10.3622 9.82894 9.71389 8.66349L10.2164 8.32845C10.747 8.0687 11.1627 7.62192 11.3836 7.07409C11.6045 6.52625 11.615 5.91608 11.413 5.36098C11.223 4.84935 11.0671 4.32571 10.9464 3.79348C10.8865 3.53024 10.8387 3.25503 10.8028 2.97982C10.6575 2.13699 10.216 1.37372 9.55789 0.827491C8.89977 0.281257 8.06826 -0.012054 7.21308 0.000379673H3.62339C3.10771 -0.00446226 2.59704 0.101864 2.12614 0.312121C1.65525 0.522377 1.23518 0.831627 0.894547 1.21882C0.55391 1.60601 0.300698 2.06205 0.152149 2.55589C0.00360009 3.04974 -0.0367984 3.5698 0.0337038 4.08066C0.671158 9.09351 2.96053 13.7511 6.54019 17.3178C10.1199 20.8845 14.7858 23.1569 19.8009 23.7761H20.2556C21.138 23.7774 21.9899 23.4536 22.6487 22.8667C23.0273 22.5281 23.3297 22.1131 23.5359 21.649C23.7422 21.1849 23.8476 20.6823 23.8453 20.1744V16.5847C23.8306 15.7536 23.528 14.9533 22.989 14.3204C22.45 13.6876 21.708 13.2614 20.8898 13.1147ZM21.4881 20.2941C21.4879 20.464 21.4515 20.6319 21.3813 20.7866C21.3112 20.9413 21.2089 21.0794 21.0812 21.1915C20.9501 21.311 20.794 21.3998 20.6243 21.4515C20.4546 21.5033 20.2755 21.5166 20.1001 21.4906C15.6188 20.9161 11.4564 18.866 8.2693 15.6637C5.08223 12.4615 3.05192 8.28937 2.49862 3.80545C2.47958 3.63017 2.49627 3.45286 2.54768 3.28421C2.5991 3.11557 2.68417 2.9591 2.79776 2.82427C2.90989 2.69663 3.04792 2.59434 3.20265 2.52419C3.35739 2.45404 3.52529 2.41765 3.69518 2.41744H7.28487C7.56313 2.41124 7.83484 2.50225 8.05324 2.67478C8.27163 2.84731 8.42305 3.09059 8.48143 3.36272C8.5293 3.68978 8.58912 4.01285 8.66092 4.33194C8.79914 4.9627 8.9831 5.58256 9.21134 6.18661L7.53615 6.96437C7.39292 7.03009 7.26408 7.12345 7.15703 7.2391C7.04998 7.35474 6.96683 7.4904 6.91235 7.63827C6.85787 7.78614 6.83313 7.94332 6.83957 8.10077C6.846 8.25823 6.88347 8.41286 6.94983 8.5558C8.67193 12.2445 11.6371 15.2096 15.3258 16.9317C15.6171 17.0514 15.9438 17.0514 16.2352 16.9317C16.3844 16.8784 16.5215 16.7959 16.6386 16.6891C16.7557 16.5822 16.8504 16.4532 16.9172 16.3095L17.6591 14.6343C18.2776 14.8556 18.909 15.0394 19.5496 15.1848C19.8687 15.2565 20.1918 15.3164 20.5188 15.3642C20.791 15.4226 21.0343 15.574 21.2068 15.7924C21.3793 16.0108 21.4703 16.2825 21.4641 16.5608L21.4881 20.2941ZM20.3633 9.52502C20.6806 9.52502 20.985 9.39895 21.2094 9.17455C21.4338 8.95015 21.5599 8.6458 21.5599 8.32845V3.5422C21.5599 3.22486 21.4338 2.92051 21.2094 2.69611C20.985 2.47171 20.6806 2.34564 20.3633 2.34564C20.0459 2.34564 19.7416 2.47171 19.5172 2.69611C19.2928 2.92051 19.1667 3.22486 19.1667 3.5422V8.32845C19.1667 8.6458 19.2928 8.95015 19.5172 9.17455C19.7416 9.39895 20.0459 9.52502 20.3633 9.52502ZM15.577 9.52502C15.8944 9.52502 16.1987 9.39895 16.4231 9.17455C16.6475 8.95015 16.7736 8.6458 16.7736 8.32845V3.5422C16.7736 3.22486 16.6475 2.92051 16.4231 2.69611C16.1987 2.47171 15.8944 2.34564 15.577 2.34564C15.2597 2.34564 14.9554 2.47171 14.731 2.69611C14.5066 2.92051 14.3805 3.22486 14.3805 3.5422V8.32845C14.3805 8.6458 14.5066 8.95015 14.731 9.17455C14.9554 9.39895 15.2597 9.52502 15.577 9.52502Z" fill="white"/>
</svg>
