<svg width="21" height="21" viewBox="0 0 21 21" fill="none" xmlns="http://www.w3.org/2000/svg">
<path d="M18.204 11.4286C17.9746 11.4286 17.7348 11.3556 17.5054 11.3034C17.0408 11.2011 16.5843 11.0651 16.1394 10.8968C15.6557 10.7208 15.124 10.7299 14.6466 10.9224C14.1692 11.1149 13.7798 11.4772 13.5535 11.9395L13.3241 12.4087C12.3085 11.8437 11.3752 11.142 10.5504 10.3233C9.73165 9.49849 9.02995 8.56524 8.46498 7.54963L8.90293 7.25767C9.36523 7.03131 9.72749 6.64197 9.91999 6.16457C10.1125 5.68718 10.1216 5.15545 9.94565 4.67172C9.78009 4.22588 9.64424 3.76956 9.53899 3.30576C9.48685 3.07636 9.44514 2.83653 9.41386 2.59671C9.28724 1.86223 8.90254 1.19711 8.32904 0.721101C7.75554 0.245096 7.03093 -0.0105042 6.2857 0.000330858H3.15753C2.70815 -0.00388855 2.26314 0.0887676 1.85279 0.271991C1.44243 0.455215 1.07638 0.724705 0.779536 1.06211C0.482694 1.39952 0.262038 1.79693 0.132587 2.22728C0.00313723 2.65764 -0.0320673 3.11083 0.0293705 3.55601C0.584868 7.92436 2.5799 11.9832 5.69932 15.0913C8.81875 18.1994 12.8848 20.1796 17.2551 20.7192H17.6514C18.4203 20.7203 19.1627 20.4382 19.7368 19.9267C20.0667 19.6317 20.3302 19.27 20.5099 18.8656C20.6897 18.4611 20.7816 18.0232 20.7795 17.5806V14.4524C20.7667 13.7282 20.503 13.0307 20.0333 12.4793C19.5636 11.9278 18.917 11.5564 18.204 11.4286ZM18.7254 17.6849C18.7252 17.8329 18.6935 17.9792 18.6323 18.1141C18.5712 18.2489 18.4821 18.3692 18.3708 18.4669C18.2547 18.5681 18.1185 18.6436 17.9711 18.6885C17.8238 18.7334 17.6686 18.7467 17.5158 18.7276C13.6107 18.2269 9.98343 16.4404 7.20612 13.6499C4.42882 10.8593 2.65954 7.22361 2.17738 3.31618C2.16078 3.16344 2.17532 3.00893 2.22013 2.86196C2.26493 2.715 2.33907 2.57865 2.43806 2.46115C2.53577 2.34993 2.65605 2.26078 2.79089 2.19966C2.92573 2.13853 3.07205 2.10681 3.2201 2.10663H6.34826C6.59074 2.10123 6.82752 2.18053 7.01784 2.33089C7.20815 2.48124 7.34011 2.69323 7.39098 2.93038C7.43269 3.21539 7.48483 3.49692 7.54739 3.77498C7.66784 4.32464 7.82815 4.86481 8.02704 5.3912L6.56723 6.06897C6.44241 6.12623 6.33014 6.20759 6.23685 6.30837C6.14357 6.40915 6.07111 6.52736 6.02363 6.65622C5.97616 6.78508 5.9546 6.92205 5.96021 7.05926C5.96581 7.19647 5.99847 7.33123 6.0563 7.45578C7.55698 10.6702 10.1409 13.2541 13.3553 14.7548C13.6092 14.8591 13.894 14.8591 14.1478 14.7548C14.2779 14.7083 14.3974 14.6364 14.4994 14.5434C14.6014 14.4503 14.6839 14.3379 14.7422 14.2126L15.3887 12.7528C15.9277 12.9456 16.4779 13.1058 17.0362 13.2325C17.3142 13.295 17.5957 13.3472 17.8808 13.3889C18.1179 13.4397 18.3299 13.5717 18.4802 13.762C18.6306 13.9523 18.7099 14.1891 18.7045 14.4316L18.7254 17.6849Z" fill="#CDCDCD"/>
</svg>
