<svg width="47" height="47" viewBox="0 0 47 47" fill="none" xmlns="http://www.w3.org/2000/svg">
<g clip-path="url(#clip0_253_2075)">
<path d="M32.3125 2.9375C33.0916 2.9375 33.8387 3.24699 34.3896 3.79787C34.9405 4.34876 35.25 5.09593 35.25 5.875V41.125C35.25 41.9041 34.9405 42.6512 34.3896 43.2021C33.8387 43.753 33.0916 44.0625 32.3125 44.0625H14.6875C13.9084 44.0625 13.1613 43.753 12.6104 43.2021C12.0595 42.6512 11.75 41.9041 11.75 41.125V5.875C11.75 5.09593 12.0595 4.34876 12.6104 3.79787C13.1613 3.24699 13.9084 2.9375 14.6875 2.9375H32.3125ZM14.6875 0C13.1294 0 11.635 0.618972 10.5332 1.72075C9.43147 2.82252 8.8125 4.31685 8.8125 5.875V41.125C8.8125 42.6831 9.43147 44.1775 10.5332 45.2793C11.635 46.381 13.1294 47 14.6875 47H32.3125C33.8706 47 35.365 46.381 36.4668 45.2793C37.5685 44.1775 38.1875 42.6831 38.1875 41.125V5.875C38.1875 4.31685 37.5685 2.82252 36.4668 1.72075C35.365 0.618972 33.8706 0 32.3125 0L14.6875 0Z" fill="black" fill-opacity="0.35"/>
<path d="M23.5 41.125C24.2791 41.125 25.0262 40.8155 25.5771 40.2646C26.128 39.7137 26.4375 38.9666 26.4375 38.1875C26.4375 37.4084 26.128 36.6613 25.5771 36.1104C25.0262 35.5595 24.2791 35.25 23.5 35.25C22.7209 35.25 21.9738 35.5595 21.4229 36.1104C20.872 36.6613 20.5625 37.4084 20.5625 38.1875C20.5625 38.9666 20.872 39.7137 21.4229 40.2646C21.9738 40.8155 22.7209 41.125 23.5 41.125Z" fill="black" fill-opacity="0.35"/>
</g>
<defs>
<clipPath id="clip0_253_2075">
<rect width="47" height="47" fill="white"/>
</clipPath>
</defs>
</svg>
