<svg width="22" height="22" viewBox="0 0 22 22" fill="none" xmlns="http://www.w3.org/2000/svg">
<circle cx="11" cy="11" r="11" fill="#F7F7FF"/>
<path d="M14 8.5H13L12.671 7.51294C12.569 7.20644 12.2825 7 11.9595 7H10.0405C9.71753 7 9.43098 7.20644 9.32898 7.51294L9 8.5H8C7 8.5 6.5 9 6.5 10V14C6.5 15 7 15.5 8 15.5H14C15 15.5 15.5 15 15.5 14V10C15.5 9 15 8.5 14 8.5ZM11 13.5C10.1715 13.5 9.5 12.8285 9.5 12C9.5 11.1715 10.1715 10.5 11 10.5C11.8285 10.5 12.5 11.1715 12.5 12C12.5 12.8285 11.8285 13.5 11 13.5ZM13.75 10.75C13.474 10.75 13.25 10.526 13.25 10.25C13.25 9.974 13.474 9.75 13.75 9.75C14.026 9.75 14.25 9.974 14.25 10.25C14.25 10.526 14.026 10.75 13.75 10.75Z" fill="#686868"/>
</svg>
