<svg width="26" height="26" viewBox="0 0 26 26" fill="none" xmlns="http://www.w3.org/2000/svg">
<path d="M17.8009 7.55125L16.4491 5.4154C16.1642 5.08329 15.7737 4.8761 15.3359 4.8761H10.6641C10.2263 4.8761 9.83582 5.08329 9.55094 5.4154L8.19914 7.55125C7.91426 7.88387 7.54711 8.1261 7.10938 8.1261H4.0625C3.63152 8.1261 3.2182 8.2973 2.91345 8.60205C2.6087 8.9068 2.4375 9.32012 2.4375 9.7511V19.5011C2.4375 19.9321 2.6087 20.3454 2.91345 20.6501C3.2182 20.9549 3.63152 21.1261 4.0625 21.1261H21.9375C22.3685 21.1261 22.7818 20.9549 23.0866 20.6501C23.3913 20.3454 23.5625 19.9321 23.5625 19.5011V9.7511C23.5625 9.32012 23.3913 8.9068 23.0866 8.60205C22.7818 8.2973 22.3685 8.1261 21.9375 8.1261H18.9414C18.5022 8.1261 18.0857 7.88387 17.8009 7.55125Z" stroke="#686868" stroke-width="1.00189" stroke-linecap="round" stroke-linejoin="round"/>
<path d="M13.0006 17.8765C15.2446 17.8765 17.0637 16.0574 17.0637 13.8134C17.0637 11.5695 15.2446 9.75037 13.0006 9.75037C10.7566 9.75037 8.9375 11.5695 8.9375 13.8134C8.9375 16.0574 10.7566 17.8765 13.0006 17.8765Z" stroke="#686868" stroke-width="1.00189" stroke-miterlimit="10"/>
<path d="M6.30728 8.0337V6.90698H5.07812V8.0337" stroke="#686868" stroke-width="1.00189" stroke-linecap="round" stroke-linejoin="round"/>
</svg>
