<svg width="14" height="14" viewBox="0 0 14 14" fill="none" xmlns="http://www.w3.org/2000/svg">
<path d="M0.291667 8.16667H5.83333V13.7083C5.83333 13.8687 5.96458 14 6.125 14H7.875C8.03542 14 8.16667 13.8687 8.16667 13.7083V8.16667H13.7083C13.8687 8.16667 14 8.03542 14 7.875V6.125C14 5.96458 13.8687 5.83333 13.7083 5.83333H8.16667V0.291667C8.16667 0.13125 8.03542 0 7.875 0H6.125C5.96458 0 5.83333 0.13125 5.83333 0.291667V5.83333H0.291667C0.13125 5.83333 0 5.96458 0 6.125V7.875C0 8.03542 0.13125 8.16667 0.291667 8.16667Z" fill="#686868"/>
</svg>
