<svg width="30" height="30" viewBox="0 0 30 30" fill="none" xmlns="http://www.w3.org/2000/svg">
<path d="M15 1.875C7.75195 1.875 1.875 7.75195 1.875 15C1.875 22.248 7.75195 28.125 15 28.125C22.248 28.125 28.125 22.248 28.125 15C28.125 7.75195 22.248 1.875 15 1.875ZM15 25.8984C8.98242 25.8984 4.10156 21.0176 4.10156 15C4.10156 8.98242 8.98242 4.10156 15 4.10156C21.0176 4.10156 25.8984 8.98242 25.8984 15C25.8984 21.0176 21.0176 25.8984 15 25.8984Z" fill="black"/>
<path d="M14.2969 16.875H15.7031C15.832 16.875 15.9375 16.7695 15.9375 16.6406V8.67188C15.9375 8.54297 15.832 8.4375 15.7031 8.4375H14.2969C14.168 8.4375 14.0625 8.54297 14.0625 8.67188V16.6406C14.0625 16.7695 14.168 16.875 14.2969 16.875ZM13.5938 20.1562C13.5938 20.5292 13.7419 20.8869 14.0056 21.1506C14.2694 21.4143 14.627 21.5625 15 21.5625C15.373 21.5625 15.7306 21.4143 15.9944 21.1506C16.2581 20.8869 16.4062 20.5292 16.4062 20.1562C16.4062 19.7833 16.2581 19.4256 15.9944 19.1619C15.7306 18.8982 15.373 18.75 15 18.75C14.627 18.75 14.2694 18.8982 14.0056 19.1619C13.7419 19.4256 13.5938 19.7833 13.5938 20.1562Z" fill="black"/>
</svg>
