<svg width="212" height="221" viewBox="0 0 212 221" fill="none" xmlns="http://www.w3.org/2000/svg">
<g clip-path="url(#clip0_806_8372)">
<path d="M188.346 168.187L188.342 168.287L193.319 221H156.999L152.291 188.625L150.219 220.17L112.922 219.755L116.884 178.34L120.253 159.143V159.139L120.758 156.25H187.355L187.442 157.296L188.346 168.187Z" fill="#2F2E41"/>
<path d="M92.3696 198.745C96.2162 199.447 100.227 195.108 101.328 189.054C101.81 186.404 101.655 183.865 101.005 181.788L101.595 178.298L111.492 131.351C111.492 131.351 129.719 94.8355 129.718 88.4962C129.718 82.157 124.446 79.0482 124.446 79.0482L117.312 79.115L94.9406 133.84L90.9116 174.279L90.2597 179.828C88.9205 181.541 87.8808 183.863 87.3989 186.513C86.2976 192.567 88.5231 198.043 92.3696 198.745Z" fill="#FFB6B6"/>
<path d="M164.935 56.4272L158.305 41.0699L136.755 44.8055L135.305 62.8738L164.935 56.4272Z" fill="#FFB6B6"/>
<path opacity="0.1" d="M164.935 56.4272L158.305 41.0699L136.755 44.8055L135.305 62.8738L164.935 56.4272Z" fill="black"/>
<path d="M211.764 88.3872C211.764 88.3872 196.43 59.7478 193.53 56.8423C192.238 55.5489 190.208 55.5309 188.352 55.9079L167.007 48.541L159.772 44.4696L159.295 52.2155L135.543 56.4855C135.675 51.7617 136.34 49.9649 136.34 49.9649L127.637 60.1628L110.646 68.4641L110.656 68.5388C109.409 68.9748 108.227 69.7207 107.331 70.9545C104.016 75.5202 94.8984 131.139 94.8984 131.139L114.376 135.289L117.027 118.629L118.935 133.629L120.385 161.646C120.385 161.646 146.908 184.474 159.755 176.173C172.602 167.872 188.349 168.287 188.349 168.287L188.742 155.3C189.022 154.853 189.178 154.59 189.178 154.59L188.764 108.524V96.2666C191.921 100.672 195.731 104.46 200.16 106.235C214.665 112.046 211.764 88.3872 211.764 88.3872V88.3872Z" fill="#E6E6E6"/>
<path d="M145.278 47.5075C156.227 47.5075 165.103 38.6177 165.103 27.6515C165.103 16.6853 156.227 7.7955 145.278 7.7955C134.329 7.7955 125.453 16.6853 125.453 27.6515C125.453 38.6177 134.329 47.5075 145.278 47.5075Z" fill="#FFB6B6"/>
<path d="M159.495 33.263C159.495 33.263 161.219 27.2199 165.098 27.6515C168.977 28.0832 169.839 24.6299 168.977 22.9033C168.115 21.1767 166.391 12.5437 166.391 12.5437C166.391 12.5437 167.253 6.50053 162.081 5.63723C156.909 4.77393 155.185 3.91062 154.323 2.18401C153.461 0.457398 140.532 -1.26921 136.222 1.32071C131.912 3.91062 128.465 8.87972 125.448 10.28C122.431 11.6804 119.845 14.2703 121.569 18.5868C123.293 22.9033 125.793 31.3455 125.793 31.3455C125.793 31.3455 130.189 29.8098 131.051 32.3997C131.912 34.9896 128.465 31.5364 132.774 24.6299C137.084 17.7235 137.084 10.8171 143.98 13.407C150.876 15.9969 158.633 15.1336 157.771 20.3134C156.909 25.4932 159.495 33.263 159.495 33.263V33.263Z" fill="#2F2E41"/>
<path d="M158.286 190.674H7.72191C3.46397 190.674 0 187.204 0 182.94V102.835C0 98.5711 3.46397 95.1014 7.72191 95.1014H158.286C162.544 95.1014 166.008 98.5711 166.008 102.835V182.94C166.008 187.204 162.544 190.674 158.286 190.674Z" fill="white"/>
<path d="M158.286 190.674H7.72191C3.46397 190.674 0 187.204 0 182.94V102.835C0 98.5711 3.46397 95.1014 7.72191 95.1014H158.286C162.544 95.1014 166.008 98.5711 166.008 102.835V182.94C166.008 187.204 162.544 190.674 158.286 190.674ZM7.72191 96.3929C4.17515 96.3929 1.2895 99.283 1.2895 102.835V182.94C1.2895 186.492 4.17515 189.382 7.72191 189.382H158.286C161.833 189.382 164.719 186.492 164.719 182.94V102.835C164.719 99.283 161.833 96.3929 158.286 96.3929H7.72191Z" fill="#3F3D56"/>
<path d="M146.669 104.788C147.737 104.788 148.603 103.92 148.603 102.85C148.603 101.781 147.737 100.913 146.669 100.913C145.6 100.913 144.734 101.781 144.734 102.85C144.734 103.92 145.6 104.788 146.669 104.788Z" fill="#3F3D56"/>
<path d="M151.825 104.788C152.893 104.788 153.759 103.92 153.759 102.85C153.759 101.781 152.893 100.913 151.825 100.913C150.757 100.913 149.891 101.781 149.891 102.85C149.891 103.92 150.757 104.788 151.825 104.788Z" fill="#3F3D56"/>
<path d="M156.981 104.788C158.049 104.788 158.915 103.92 158.915 102.85C158.915 101.781 158.049 100.913 156.981 100.913C155.913 100.913 155.047 101.781 155.047 102.85C155.047 103.92 155.913 104.788 156.981 104.788Z" fill="#3F3D56"/>
<path d="M10.9593 134.17C10.426 134.17 9.99219 134.604 9.99219 135.138C9.99219 135.399 10.0926 135.64 10.2749 135.818C10.4588 136.006 10.6996 136.107 10.9593 136.107H155.691C156.224 136.107 156.658 135.673 156.658 135.138C156.658 134.878 156.557 134.637 156.375 134.459C156.191 134.271 155.95 134.17 155.691 134.17H10.9593Z" fill="#E6E6E6"/>
<path d="M137.64 133.847V136.43H10.9614C10.6068 136.43 10.2844 136.288 10.0523 136.049C9.8137 135.816 9.67188 135.494 9.67188 135.138C9.67188 134.428 10.2522 133.847 10.9614 133.847H137.64Z" fill="#6C63FF"/>
<path d="M154.083 129.004H141.188C139.766 129.004 138.609 127.845 138.609 126.421C138.609 124.996 139.766 123.838 141.188 123.838H154.083C155.505 123.838 156.662 124.996 156.662 126.421C156.662 127.845 155.505 129.004 154.083 129.004Z" fill="#E6E6E6"/>
<path d="M69.6203 115.443H11.9306C10.5085 115.443 9.35156 114.284 9.35156 112.86C9.35156 111.435 10.5085 110.277 11.9306 110.277H69.6203C71.0423 110.277 72.1993 111.435 72.1993 112.86C72.1993 114.284 71.0423 115.443 69.6203 115.443Z" fill="#E6E6E6"/>
<path d="M10.9593 163.229C10.426 163.229 9.99219 163.663 9.99219 164.198C9.99219 164.458 10.0926 164.699 10.2749 164.877C10.4588 165.065 10.6996 165.166 10.9593 165.166H155.691C156.224 165.166 156.658 164.732 156.658 164.198C156.658 163.937 156.557 163.696 156.375 163.518C156.191 163.33 155.95 163.229 155.691 163.229H10.9593Z" fill="#E6E6E6"/>
<path d="M87.9937 162.906V165.489H10.9614C10.6068 165.489 10.2844 165.347 10.0523 165.108C9.8137 164.876 9.67188 164.553 9.67188 164.198C9.67188 163.487 10.2522 162.906 10.9614 162.906H87.9937Z" fill="#6C63FF"/>
<path d="M154.083 158.063H141.188C139.766 158.063 138.609 156.904 138.609 155.48C138.609 154.055 139.766 152.897 141.188 152.897H154.083C155.505 152.897 156.662 154.055 156.662 155.48C156.662 156.904 155.505 158.063 154.083 158.063Z" fill="#E6E6E6"/>
<path d="M176.654 49.0359C187.806 49.0359 196.847 40.1718 196.847 29.2374C196.847 18.3031 187.806 9.439 176.654 9.439C165.502 9.439 156.461 18.3031 156.461 29.2374C156.461 40.1718 165.502 49.0359 176.654 49.0359Z" fill="#5276F9"/>
<path d="M183.335 23.3075C180.756 26.5727 178.177 29.8379 175.597 33.1032C173.953 31.0838 172.319 29.061 170.671 27.0433C170.102 26.3464 168.554 26.9732 169.124 27.6718C171.034 30.0108 172.925 32.3575 174.835 34.6965C175.162 35.0965 176.058 35.1057 176.382 34.6965C179.215 31.1097 182.048 27.5228 184.882 23.936C185.437 23.2331 183.891 22.6041 183.335 23.3075Z" fill="white"/>
<path d="M204.533 81.4238L184.414 71.7846C184.414 71.7846 183.606 65.333 179.834 63.0318C179.192 61.4992 178.454 59.8154 177.784 58.4813C176.126 55.1821 178.613 48.9561 176.541 48.9561C174.468 48.9561 171.405 55.5039 171.568 57.2574C171.692 58.6034 172.803 60.9534 173.032 63.0105C170.505 63.965 168.467 65.6009 167.127 66.9034C165.967 68.0307 165.536 69.7124 165.989 71.2661C167.303 75.7683 170.586 85.0667 175.297 85.0667C181.514 85.0667 183.171 83.8215 183.171 83.8215C183.171 83.8215 196.018 100.009 205.55 101.254C215.081 102.499 204.533 81.4238 204.533 81.4238V81.4238Z" fill="#FFB6B6"/>
</g>
<defs>
<clipPath id="clip0_806_8372">
<rect width="212" height="221" fill="white"/>
</clipPath>
</defs>
</svg>
