<svg width="270" height="220" viewBox="0 0 270 220" fill="none" xmlns="http://www.w3.org/2000/svg">
<path d="M90.0391 219.419L105.836 215.989L124.141 212.01C124.141 212.01 125.132 215.048 126.522 219.419H90.0391Z" fill="#2F2E41"/>
<path d="M130.029 217.449C130.029 217.449 129.881 218.241 129.578 219.42H55.8276C55.0141 216.937 54.6517 214.381 55.6205 212.269C55.7835 211.9 55.9895 211.552 56.2344 211.232C56.4158 210.98 56.6187 210.745 56.8408 210.528C58.2904 209.091 59.1779 205.994 59.7104 202.467C60.3496 197.644 60.6142 192.778 60.5017 187.914C60.5091 187.907 60.5091 187.907 60.5017 187.907C60.4869 186.759 60.4573 186.069 60.4573 186.069C60.4573 186.069 60.1763 181.824 59.8583 175.407C59.8657 175.407 59.8583 175.4 59.8583 175.4C58.9856 158.084 57.8022 124.934 60.8715 116.146C61.0673 115.405 61.4641 114.734 62.0178 114.205C66.1497 111.217 70.5464 108.615 75.1527 106.432C75.4189 106.314 75.5594 106.247 75.5594 106.247L85.6842 106.055L98.257 103.832L106.991 102.231C106.991 102.231 107.635 102.276 108.641 102.416C111.983 102.876 119.335 104.38 120.37 108.737C120.37 108.744 120.378 108.752 120.378 108.759C120.509 109.33 120.531 109.921 120.444 110.5C119.453 117.761 126.45 162.359 128.58 164.589C130.71 166.82 130.147 174.97 124.882 180.149C123.954 181.107 123.278 182.281 122.914 183.565C120.925 189.974 124.046 200.444 127.1 205.341C129.32 208.97 130.344 213.205 130.029 217.449Z" fill="#3F3D56"/>
<path d="M170.304 74.8732L170.092 67.1198L169.808 56.7223L161.535 56.3392L160.376 66.6699L159.297 76.2698L170.304 74.8732Z" fill="#FFB6B6"/>
<path d="M85.5625 107.703L97.1696 120.183C97.1696 120.183 146.35 128.14 146.679 123.962C147.008 119.784 143.768 118.573 149.079 118.945C154.389 119.316 155.665 123.096 156.474 119.481C157.284 115.866 152.831 115.777 157.986 115.265C163.142 114.752 174.402 69.657 174.402 69.657L156.441 72.5594C156.441 72.5594 152.949 94.3631 150.76 97.1495C148.571 99.9359 146.374 101.935 145.024 102.056C143.673 102.177 85.5625 107.703 85.5625 107.703Z" fill="#3F3D56"/>
<path d="M92.2155 91.5686C101.633 91.5686 109.267 83.9202 109.267 74.4855C109.267 65.0508 101.633 57.4025 92.2155 57.4025C82.7982 57.4025 75.1641 65.0508 75.1641 74.4855C75.1641 83.9202 82.7982 91.5686 92.2155 91.5686Z" fill="#FFB6B6"/>
<path d="M78.9309 89.198L85.6906 90.4947C85.6906 90.4947 79.4042 80.3288 79.774 75.6757C80.1438 71.0226 85.2025 69.3554 85.2025 69.3554C85.2025 69.3554 88.0055 69.963 90.9563 70.3039C91.3098 69.3069 91.7684 68.3506 92.3245 67.4512C92.434 68.6123 92.9471 69.698 93.7741 70.5187C94.8556 70.6118 95.9447 70.4858 96.9765 70.1482C98.145 69.6148 98.1228 68.6886 97.7382 67.8217C103.366 68.0958 108.699 70.8373 108.699 70.8373C108.869 68.5626 108.782 66.2758 108.44 64.0206C108.277 63.9761 108.114 63.9243 107.952 63.8724C106.944 63.5529 105.972 63.1283 105.053 62.6054C106.076 62.4693 107.032 62.0189 107.789 61.3162C107.168 59.4934 106.177 57.9152 104.616 57.1446C103.111 56.4069 101.464 56.002 99.7891 55.9573C98.1137 55.9125 96.4483 56.229 94.9057 56.8853C94.9057 56.8853 98.5222 54.2401 97.1909 53.1583C97.1022 53.2472 97.0134 53.3287 96.9173 53.4103C96.7916 53.514 96.651 53.6251 96.5179 53.7289C95.697 54.3957 94.4693 53.4547 94.3066 52.447C94.2891 52.3197 94.2644 52.1936 94.2326 52.0691C94.2105 51.9654 94.1808 51.8616 94.1513 51.7653C94.1262 51.6798 94.0965 51.5957 94.0625 51.5134C91.5997 50.9206 84.1522 53.3287 81.2901 58.6339C81.2901 58.6339 61.2846 68.2662 78.9309 89.198Z" fill="#3F3D56"/>
<path d="M70.7569 219.42H61.2014L60.8758 218.879L56.2389 211.232L53.6797 207.008L59.7147 202.467L62.5549 200.333L68.8188 214.907L70.7569 219.42Z" fill="#A0616A"/>
<path d="M75.1562 106.432L99.0001 161.626L108.644 102.416C107.638 102.276 106.995 102.231 106.995 102.231L102.89 94.2438L79.3792 95.4664L75.563 106.247C75.563 106.247 75.4225 106.314 75.1562 106.432Z" fill="#6C63FF"/>
<path d="M106.528 219.42H87.75L99.7389 185.336L105.84 215.989L106.528 219.42Z" fill="#6C63FF"/>
<path opacity="0.5" d="M220.699 114.827H166.722C158.164 114.827 151.227 121.777 151.227 130.351V149.902C151.227 158.475 158.164 165.426 166.722 165.426H220.699C229.256 165.426 236.194 158.475 236.194 149.902V130.351C236.194 121.777 229.256 114.827 220.699 114.827Z" fill="white"/>
<path d="M220.692 166.006H166.716C162.454 166.001 158.368 164.303 155.354 161.284C152.341 158.265 150.646 154.171 150.641 149.901V130.351C150.646 126.081 152.341 121.988 155.354 118.969C158.368 115.95 162.454 114.251 166.716 114.246H220.692C224.954 114.251 229.04 115.95 232.053 118.969C235.067 121.988 236.762 126.081 236.767 130.351V149.901C236.762 154.171 235.067 158.265 232.053 161.284C229.04 164.303 224.954 166.001 220.692 166.006ZM166.716 115.407C162.761 115.412 158.97 116.988 156.173 119.789C153.377 122.591 151.804 126.389 151.799 130.351V149.901C151.804 153.863 153.377 157.662 156.173 160.463C158.97 163.265 162.761 164.841 166.716 164.845H220.692C224.647 164.841 228.438 163.265 231.234 160.463C234.031 157.662 235.604 153.863 235.608 149.901V130.351C235.604 126.389 234.031 122.591 231.234 119.789C228.438 116.988 224.647 115.412 220.692 115.407L166.716 115.407Z" fill="white"/>
<path d="M193.634 154.462C200.469 154.462 206.009 148.91 206.009 142.063C206.009 135.215 200.469 129.664 193.634 129.664C186.799 129.664 181.258 135.215 181.258 142.063C181.258 148.91 186.799 154.462 193.634 154.462Z" fill="#FFB6B6"/>
<path d="M196.354 154.391C194.834 150.997 203.067 143.955 197.792 143.598C197.792 143.598 194.324 137.507 192.123 139.14C189.573 141.031 185.858 137.597 183.676 135.299C184.14 134.924 184.557 134.493 184.917 134.016C184.223 134.143 183.521 134.217 182.816 134.236C182.554 133.849 182.371 133.413 182.277 132.954C182.175 132.52 182.207 132.066 182.371 131.651C182.534 131.236 182.82 130.881 183.19 130.634C183.99 130.187 185.012 130.46 185.866 130.14C185.973 130.088 186.066 130.01 186.136 129.914C186.206 129.819 186.252 129.707 186.27 129.589C186.334 129.313 186.459 129.053 186.634 128.83C186.81 128.607 187.032 128.425 187.286 128.298C187.54 128.171 187.818 128.101 188.102 128.094C188.385 128.087 188.667 128.143 188.926 128.257C189.025 128.314 189.137 128.345 189.251 128.348C189.846 128.31 190.436 128.201 191.006 128.023C190.366 127.724 189.75 127.375 189.163 126.982C189.042 126.9 188.922 126.818 188.804 126.731C189.335 126.298 189.953 125.986 190.617 125.815C191.28 125.644 191.972 125.619 192.646 125.741C194.059 126.016 195.421 126.509 196.683 127.201C197.432 127.566 198.178 127.931 198.924 128.294C200.532 129.004 202.061 129.882 203.486 130.914C204.971 132.084 206.181 133.568 207.028 135.261C207.875 136.953 208.338 138.812 208.385 140.705C208.453 144.481 205.228 154.828 196.354 154.391Z" fill="#2F2E41"/>
<path opacity="0.5" d="M120.081 164.177H66.1049C57.5469 164.177 50.6094 171.127 50.6094 179.701V199.251C50.6094 207.825 57.5469 214.776 66.1049 214.776H120.081C128.639 214.776 135.577 207.825 135.577 199.251V179.701C135.577 171.127 128.639 164.177 120.081 164.177Z" fill="white"/>
<path d="M120.083 215.356H66.1062C61.8443 215.351 57.7584 213.653 54.7448 210.634C51.7312 207.615 50.0361 203.521 50.0312 199.251V179.701C50.0361 175.431 51.7312 171.338 54.7448 168.319C57.7584 165.3 61.8443 163.601 66.1062 163.596H120.083C124.344 163.601 128.43 165.3 131.444 168.319C134.457 171.338 136.153 175.431 136.157 179.701V199.251C136.153 203.521 134.457 207.615 131.444 210.634C128.43 213.653 124.344 215.351 120.083 215.356ZM66.1062 164.757C62.1516 164.762 58.3602 166.338 55.5638 169.139C52.7675 171.941 51.1945 175.739 51.19 179.701V199.251C51.1945 203.213 52.7675 207.012 55.5638 209.813C58.3602 212.615 62.1516 214.191 66.1062 214.195H120.083C124.037 214.191 127.829 212.615 130.625 209.813C133.421 207.012 134.994 203.213 134.999 199.251V179.701C134.994 175.739 133.421 171.941 130.625 169.139C127.829 166.338 124.037 164.762 120.083 164.757H66.1062Z" fill="white"/>
<path d="M93.926 205.613C100.871 205.613 106.5 199.973 106.5 193.016C106.5 186.058 100.871 180.418 93.926 180.418C86.9813 180.418 81.3516 186.058 81.3516 193.016C81.3516 199.973 86.9813 205.613 93.926 205.613Z" fill="#FFB6B6"/>
<path d="M85.7344 196.252C85.578 196.2 85.4121 196.181 85.248 196.198C85.0839 196.215 84.9253 196.267 84.783 196.351C84.6407 196.435 84.518 196.548 84.4232 196.683C84.3284 196.819 84.2636 196.973 84.2333 197.135C84.1918 197.469 84.2188 197.808 84.3125 198.13C84.4063 198.453 84.5648 198.753 84.7785 199.013C85.2079 199.528 85.5927 200.079 85.9287 200.659C86.0927 200.953 86.1695 201.287 86.1501 201.623C86.1308 201.959 86.0161 202.283 85.8195 202.555C85.6052 202.764 85.3362 202.908 85.0437 202.97C84.7511 203.032 84.447 203.009 84.1668 202.905C83.6089 202.686 83.1157 202.329 82.7336 201.867C80.3296 199.254 77.8219 194.916 79.0508 191.583C79.1528 191.226 79.1934 190.855 79.1707 190.485C79.1942 190.061 79.2726 189.422 78.8739 189.278C77.761 188.876 80.8835 182.359 85.7028 180.941C85.4681 178.716 97.0624 175.515 96.4295 178.309C96.3158 178.81 97.4354 178.538 97.9481 178.565C101.882 178.779 106.324 179.769 105.966 184.337C105.828 186.106 106.558 185.698 107.144 187.372C106.231 187.918 105.931 189.114 105.227 188.316C104.523 187.517 103.921 186.517 102.912 186.182C101.837 185.825 100.671 186.359 99.7539 187.025C98.8372 187.691 97.9961 188.518 96.9186 188.867C95.7101 189.259 94.3924 188.986 93.1322 189.145C91.3343 189.454 89.7108 190.409 88.5661 191.832C87.4376 193.247 86.4852 194.793 85.7298 196.438" fill="#2F2E41"/>
<path d="M78.6612 114.068L61.651 114.809C61.651 114.809 36.5055 157.784 39.4638 160.748C42.4221 163.711 45.4442 162.029 41.7144 165.834C37.9846 169.639 34.2867 168.157 36.5055 171.121C38.7242 174.085 41.6825 170.75 38.7242 175.011C35.7659 179.271 59.8021 219.42 59.8021 219.42L70.1561 214.233C70.1561 214.233 60.0804 187.708 59.3865 184.23C58.6927 180.753 58.6012 177.781 59.3865 176.674C60.1719 175.567 78.6612 114.068 78.6612 114.068Z" fill="#3F3D56"/>
<path d="M165.777 127.575C167.98 127.575 169.765 125.786 169.765 123.579C169.765 121.373 167.98 119.584 165.777 119.584C163.575 119.584 161.789 121.373 161.789 123.579C161.789 125.786 163.575 127.575 165.777 127.575Z" fill="#6C63FF"/>
<path d="M165.229 125.659C165.16 125.659 165.092 125.643 165.03 125.612C164.969 125.581 164.915 125.536 164.874 125.481L163.786 124.027C163.75 123.981 163.725 123.928 163.71 123.871C163.695 123.814 163.691 123.755 163.7 123.697C163.708 123.639 163.727 123.583 163.757 123.533C163.787 123.482 163.826 123.438 163.873 123.403C163.92 123.368 163.973 123.342 164.03 123.328C164.086 123.313 164.145 123.31 164.203 123.319C164.261 123.327 164.317 123.347 164.367 123.377C164.417 123.407 164.461 123.447 164.496 123.494L165.207 124.445L167.036 121.698C167.101 121.6 167.202 121.531 167.318 121.508C167.433 121.485 167.553 121.509 167.651 121.574C167.749 121.64 167.817 121.741 167.84 121.857C167.863 121.973 167.839 122.093 167.774 122.191L165.598 125.461C165.558 125.52 165.506 125.569 165.443 125.603C165.381 125.637 165.312 125.656 165.241 125.658L165.229 125.659Z" fill="white"/>
<path d="M68.4333 177.495C70.6359 177.495 72.4214 175.707 72.4214 173.5C72.4214 171.293 70.6359 169.505 68.4333 169.505C66.2308 169.505 64.4453 171.293 64.4453 173.5C64.4453 175.707 66.2308 177.495 68.4333 177.495Z" fill="#6C63FF"/>
<path d="M67.8927 175.579C67.8239 175.579 67.7559 175.563 67.6943 175.532C67.6327 175.502 67.5792 175.457 67.5379 175.402L66.4499 173.948C66.4145 173.902 66.3886 173.848 66.3738 173.792C66.359 173.735 66.3555 173.676 66.3636 173.618C66.3717 173.56 66.3912 173.504 66.4209 173.453C66.4506 173.403 66.49 173.359 66.5368 173.324C66.5836 173.289 66.6369 173.263 66.6936 173.249C66.7503 173.234 66.8093 173.231 66.8672 173.239C66.9251 173.248 66.9807 173.268 67.0309 173.298C67.0811 173.328 67.1248 173.368 67.1596 173.415L67.8714 174.366L69.6996 171.618C69.7319 171.57 69.7735 171.528 69.8219 171.496C69.8703 171.463 69.9246 171.441 69.9817 171.429C70.0389 171.418 70.0977 171.418 70.1548 171.429C70.212 171.44 70.2663 171.463 70.3148 171.495C70.3633 171.528 70.4049 171.569 70.4373 171.618C70.4697 171.666 70.4923 171.721 70.5037 171.778C70.5152 171.835 70.5152 171.894 70.5039 171.951C70.4926 172.008 70.4702 172.063 70.4379 172.111L68.2618 175.381C68.2225 175.441 68.1696 175.489 68.1075 175.524C68.0454 175.558 67.976 175.577 67.905 175.579L67.8927 175.579Z" fill="white"/>
<path d="M223.133 129.707C222.354 129.707 221.593 129.476 220.945 129.043C220.298 128.609 219.793 127.993 219.495 127.272C219.197 126.552 219.119 125.758 219.271 124.993C219.423 124.228 219.798 123.525 220.349 122.973C220.899 122.422 221.601 122.046 222.365 121.894C223.128 121.742 223.92 121.82 224.639 122.118C225.359 122.417 225.974 122.922 226.406 123.571C226.839 124.22 227.07 124.983 227.07 125.763C227.07 126.809 226.655 127.812 225.917 128.552C225.178 129.292 224.177 129.707 223.133 129.707Z" fill="#E6E6E6"/>
<path d="M224.51 126.588L223.686 125.763L224.51 124.937C224.547 124.901 224.576 124.858 224.595 124.811C224.615 124.764 224.626 124.713 224.626 124.662C224.626 124.61 224.616 124.56 224.596 124.512C224.577 124.465 224.548 124.422 224.512 124.385C224.476 124.349 224.433 124.32 224.385 124.301C224.338 124.281 224.287 124.271 224.236 124.271C224.185 124.272 224.134 124.282 224.087 124.302C224.04 124.322 223.997 124.351 223.961 124.387L223.137 125.212L222.313 124.387C222.24 124.314 222.142 124.274 222.039 124.274C221.936 124.274 221.837 124.315 221.765 124.388C221.692 124.461 221.651 124.559 221.651 124.662C221.651 124.765 221.691 124.864 221.764 124.937L222.588 125.763L221.764 126.588C221.727 126.624 221.699 126.667 221.679 126.714C221.659 126.762 221.649 126.813 221.648 126.864C221.648 126.915 221.658 126.966 221.678 127.013C221.697 127.061 221.726 127.104 221.762 127.14C221.798 127.176 221.841 127.205 221.889 127.225C221.936 127.244 221.987 127.254 222.038 127.254C222.089 127.254 222.14 127.244 222.187 127.224C222.234 127.204 222.277 127.175 222.313 127.139L223.137 126.313L223.961 127.139C223.997 127.175 224.04 127.204 224.087 127.223C224.134 127.243 224.185 127.253 224.236 127.253C224.287 127.253 224.338 127.243 224.385 127.224C224.432 127.204 224.475 127.175 224.511 127.139C224.547 127.103 224.576 127.06 224.595 127.013C224.615 126.965 224.625 126.915 224.625 126.864C224.625 126.812 224.615 126.762 224.595 126.714C224.575 126.667 224.546 126.624 224.51 126.588Z" fill="white"/>
<path d="M121.164 177.306C120.385 177.306 119.624 177.075 118.976 176.642C118.329 176.208 117.824 175.592 117.526 174.871C117.228 174.15 117.15 173.357 117.302 172.592C117.454 171.827 117.829 171.124 118.38 170.572C118.93 170.021 119.632 169.645 120.396 169.493C121.16 169.341 121.951 169.419 122.671 169.717C123.39 170.016 124.005 170.521 124.438 171.17C124.87 171.819 125.101 172.581 125.101 173.362C125.101 174.408 124.686 175.411 123.948 176.151C123.21 176.891 122.208 177.306 121.164 177.306Z" fill="#E6E6E6"/>
<path d="M122.534 174.187L121.71 173.362L122.534 172.536C122.606 172.463 122.646 172.364 122.646 172.262C122.645 172.159 122.605 172.06 122.532 171.988C122.459 171.915 122.361 171.874 122.259 171.874C122.156 171.873 122.057 171.914 121.984 171.986L121.161 172.811L120.337 171.986C120.264 171.913 120.165 171.873 120.062 171.873C119.959 171.873 119.861 171.914 119.788 171.987C119.715 172.06 119.675 172.158 119.674 172.261C119.674 172.364 119.715 172.463 119.787 172.536L120.611 173.362L119.787 174.187C119.751 174.223 119.722 174.266 119.702 174.313C119.682 174.361 119.672 174.411 119.672 174.463C119.672 174.514 119.682 174.565 119.701 174.612C119.721 174.66 119.749 174.703 119.786 174.739C119.822 174.775 119.865 174.804 119.912 174.824C119.96 174.843 120.01 174.853 120.061 174.853C120.113 174.853 120.163 174.843 120.211 174.823C120.258 174.803 120.301 174.774 120.337 174.737L121.161 173.912L121.984 174.737C122.057 174.81 122.156 174.851 122.259 174.851C122.362 174.85 122.46 174.809 122.533 174.737C122.606 174.664 122.646 174.565 122.647 174.462C122.647 174.359 122.606 174.26 122.534 174.187Z" fill="white"/>
<path d="M165.711 59.7889C169.551 59.7889 172.663 56.6703 172.663 52.8232C172.663 48.9762 169.551 45.8575 165.711 45.8575C161.871 45.8575 158.758 48.9762 158.758 52.8232C158.758 56.6703 161.871 59.7889 165.711 59.7889Z" fill="#FFB6B6"/>
<path opacity="0.5" d="M220.511 50.9654H166.535C157.977 50.9654 151.039 57.9158 151.039 66.4896V86.04C151.039 94.6138 157.977 101.564 166.535 101.564H220.511C229.069 101.564 236.007 94.6138 236.007 86.04V66.4896C236.007 57.9158 229.069 50.9654 220.511 50.9654Z" fill="white"/>
<path d="M220.505 102.145H166.528C162.266 102.14 158.18 100.442 155.167 97.4226C152.153 94.4034 150.458 90.3099 150.453 86.0401V66.4896C150.458 62.2198 152.153 58.1263 155.167 55.1072C158.18 52.088 162.266 50.3897 166.528 50.3848H220.505C224.767 50.3897 228.853 52.088 231.866 55.1072C234.88 58.1263 236.575 62.2198 236.58 66.4896V86.0401C236.575 90.3099 234.88 94.4034 231.866 97.4226C228.853 100.442 224.767 102.14 220.505 102.145ZM166.528 51.5458C162.573 51.5503 158.782 53.1261 155.986 55.9277C153.189 58.7292 151.616 62.5276 151.612 66.4896V86.0401C151.616 90.0021 153.189 93.8005 155.986 96.602C158.782 99.4036 162.573 100.979 166.528 100.984H220.505C224.46 100.979 228.251 99.4036 231.047 96.602C233.844 93.8005 235.417 90.0021 235.421 86.0401V66.4896C235.417 62.5276 233.844 58.7292 231.047 55.9277C228.251 53.1261 224.46 51.5503 220.505 51.5458H166.528Z" fill="white"/>
<path d="M209.643 77.7173C209.678 80.9663 210.711 87.7306 209.971 90.913L209.851 90.6467C209.236 91.1351 208.583 91.573 207.897 91.9561C207.403 90.7514 206.664 89.663 205.727 88.7603C205.85 90.2538 205.674 91.7569 205.208 93.1811C202.439 94.1798 197.579 91.0328 194.567 90.9663C189.72 90.8553 184.997 89.648 180.368 88.3697C178.724 87.917 176.917 87.3267 176.172 85.9596C175.428 84.5926 176.76 83.117 176.673 81.5744C176.052 70.5866 181.276 68.7448 186.247 65.8088C187.341 65.1627 187.877 63.7716 189.113 63.2301C190.828 62.48 192.87 62.8395 194.735 63.2168C194.272 63.0639 193.856 62.7941 193.527 62.4334C193.198 62.0727 192.967 61.6332 192.857 61.1573C192.779 60.6908 192.831 60.2118 193.008 59.7733C193.185 59.3347 193.479 58.9535 193.858 58.6717C194.423 58.301 195.063 58.0591 195.732 57.9633C196.401 57.8674 197.083 57.9198 197.73 58.1169C198.997 58.5138 200.195 59.1037 201.283 59.8657C202.022 60.2716 202.682 60.8067 203.232 61.4458C203.492 61.7482 203.653 62.1228 203.694 62.5193C203.735 62.9159 203.654 63.3156 203.463 63.6651C203.226 63.9646 202.925 64.2068 202.583 64.3735C202.24 64.5403 201.864 64.6274 201.482 64.6282C200.895 64.6453 200.308 64.5842 199.737 64.4462C202.355 65.0933 204.715 66.5238 206.502 68.5474C208.721 71.135 209.603 74.4684 209.643 77.7173Z" fill="#2F2E41"/>
<path d="M192.256 88.2961C198.188 88.2961 202.997 83.4783 202.997 77.5353C202.997 71.5923 198.188 66.7746 192.256 66.7746C186.324 66.7746 181.516 71.5923 181.516 77.5353C181.516 83.4783 186.324 88.2961 192.256 88.2961Z" fill="#FFB6B6"/>
<path d="M203.981 75.9109C202.719 77.4421 200.84 77.3622 199.17 77.1181C198.643 77.0427 198.116 76.9583 197.588 76.8607C197.495 76.5633 197.389 76.2659 197.269 75.9774C196.775 74.7728 196.036 73.6844 195.099 72.7817C195.197 73.9619 195.106 75.1503 194.828 76.3014C193.849 76.0751 192.875 75.8221 191.904 75.5425C191.046 75.4026 190.274 74.9378 189.748 74.2439C189.222 73.55 188.982 72.6801 189.078 71.8141C187.682 72.8794 186.163 73.8026 184.568 73.8203C183.669 73.7969 182.801 73.4857 182.091 72.9321C181.382 72.3786 180.868 71.6119 180.625 70.7444C180.255 69.3395 180.19 67.8713 180.434 66.4391C180.647 64.7303 181.125 62.8528 182.277 62.1648C183.203 61.6056 184.271 62.005 185.224 62.4578C187.322 63.4667 189.311 64.6893 191.16 66.1062L191.182 66.5723C191.661 64.2776 193.242 62.5066 194.966 62.329C196.126 62.2136 197.261 62.7507 198.355 63.2922C199.785 63.9243 201.115 64.7633 202.302 65.7822C203.643 67.0044 204.575 68.612 204.969 70.3849C205.381 72.3068 205.071 74.5882 203.981 75.9109Z" fill="#2F2E41"/>
<path d="M193.348 60.9771C193.459 60.9864 193.188 60.9242 193.276 60.9611C193.233 60.9414 193.191 60.9182 193.152 60.8917C193.145 60.8874 193.058 60.8167 193.115 60.8659C192.984 60.7634 192.885 60.6251 192.83 60.4675C192.708 60.0845 192.651 59.6837 192.662 59.2819C192.684 58.7537 192.594 58.227 192.398 57.7361C192.34 57.6031 192.252 57.4858 192.14 57.3936C192.028 57.3013 191.896 57.2368 191.755 57.2052C191.614 57.1736 191.467 57.1759 191.327 57.2118C191.186 57.2477 191.056 57.3163 190.948 57.4119C190.641 57.8252 190.493 58.3349 190.531 58.8483C190.503 59.3451 190.555 59.8432 190.686 60.3232C190.911 61.1126 191.36 61.8193 191.979 62.3574C192.693 62.9844 193.591 63.3639 194.538 63.4396C194.668 63.4367 194.794 63.3959 194.902 63.3223C195.009 63.2486 195.093 63.1453 195.142 63.0248C195.192 62.9044 195.206 62.772 195.182 62.6438C195.158 62.5157 195.097 62.3973 195.007 62.303L193.818 61.172C193.693 61.0485 193.525 60.9795 193.349 60.98C193.174 60.9806 193.006 61.0507 192.882 61.175C192.757 61.2993 192.687 61.4678 192.687 61.6437C192.686 61.8195 192.755 61.9884 192.879 62.1136L194.068 63.2446L194.538 62.108C194.341 62.0903 194.148 62.0506 193.96 61.9898C193.757 61.9332 193.563 61.848 193.383 61.7366C193.208 61.6401 193.043 61.5248 192.892 61.3926C192.796 61.3077 192.704 61.2179 192.616 61.1236C192.585 61.0894 192.554 61.0545 192.523 61.0191C192.525 61.0216 192.398 60.8615 192.453 60.9347C192.315 60.7463 192.196 60.5455 192.095 60.3349C192.06 60.2603 192.031 60.183 192.008 60.1036C191.966 59.973 191.932 59.8401 191.905 59.7056C191.855 59.4228 191.839 59.1348 191.86 58.8482C191.865 58.7267 191.878 58.6056 191.896 58.4853C191.913 58.4219 191.925 58.3574 191.933 58.2923C191.935 58.1306 191.911 58.3786 191.827 58.4163L191.491 58.5072C191.437 58.5027 191.384 58.486 191.337 58.4583C191.289 58.4305 191.249 58.3924 191.218 58.3469C191.204 58.2913 191.208 58.3012 191.23 58.3765C191.255 58.4648 191.275 58.5547 191.289 58.6456C191.314 58.8568 191.329 59.0691 191.333 59.2818C191.337 59.7324 191.39 60.1813 191.489 60.6208C191.582 61.0624 191.812 61.4634 192.146 61.7664C192.48 62.0695 192.901 62.2592 193.348 62.3086C193.524 62.3072 193.693 62.2366 193.817 62.112C193.941 61.9875 194.012 61.8189 194.013 61.6428C194.01 61.4673 193.938 61.3 193.814 61.1759C193.691 61.0518 193.524 60.9806 193.348 60.9771Z" fill="#2F2E41"/>
<path d="M166.933 63.7224C169.136 63.7224 170.921 61.9336 170.921 59.7269C170.921 57.5203 169.136 55.7315 166.933 55.7315C164.731 55.7315 162.945 57.5203 162.945 59.7269C162.945 61.9336 164.731 63.7224 166.933 63.7224Z" fill="#6C63FF"/>
<path d="M166.393 61.8064C166.324 61.8064 166.256 61.7903 166.194 61.7594C166.133 61.7286 166.079 61.6838 166.038 61.6286L164.95 60.1752C164.914 60.1285 164.889 60.0753 164.874 60.0186C164.859 59.9619 164.856 59.9028 164.864 59.8448C164.872 59.7867 164.891 59.7309 164.921 59.6804C164.951 59.6299 164.99 59.5858 165.037 59.5506C165.084 59.5155 165.137 59.4899 165.194 59.4755C165.25 59.461 165.309 59.458 165.367 59.4664C165.425 59.4749 165.481 59.4948 165.531 59.5249C165.581 59.555 165.625 59.5948 165.66 59.6419L166.371 60.5927L168.2 57.8453C168.265 57.7473 168.366 57.6792 168.482 57.6561C168.597 57.6329 168.717 57.6567 168.815 57.7221C168.913 57.7875 168.981 57.8891 169.004 58.0047C169.027 58.1203 169.003 58.2403 168.938 58.3384L166.762 61.6085C166.723 61.6676 166.67 61.7164 166.607 61.7508C166.545 61.7852 166.476 61.8042 166.405 61.8062L166.393 61.8064Z" fill="white"/>
<path d="M221.398 64.1138C220.62 64.1138 219.858 63.8824 219.211 63.449C218.563 63.0155 218.059 62.3994 217.761 61.6786C217.463 60.9578 217.385 60.1647 217.537 59.3995C217.689 58.6343 218.064 57.9314 218.614 57.3798C219.165 56.8281 219.866 56.4524 220.63 56.3002C221.394 56.148 222.186 56.2261 222.905 56.5247C223.625 56.8232 224.239 57.3288 224.672 57.9775C225.105 58.6262 225.336 59.3889 225.336 60.1691C225.336 61.2153 224.921 62.2186 224.182 62.9584C223.444 63.6982 222.443 64.1138 221.398 64.1138Z" fill="#E6E6E6"/>
<path d="M222.768 60.9945L221.944 60.1691L222.768 59.3436C222.804 59.3076 222.833 59.2647 222.853 59.2174C222.873 59.1701 222.883 59.1193 222.884 59.068C222.884 59.0167 222.874 58.9659 222.854 58.9185C222.835 58.871 222.806 58.8279 222.77 58.7917C222.734 58.7554 222.691 58.7266 222.643 58.7071C222.596 58.6875 222.545 58.6775 222.494 58.6777C222.443 58.6778 222.392 58.6882 222.345 58.708C222.298 58.7279 222.255 58.7569 222.219 58.7934L221.395 59.6188L220.571 58.7934C220.498 58.7207 220.399 58.68 220.297 58.6802C220.194 58.6803 220.095 58.7213 220.022 58.7941C219.95 58.867 219.909 58.9657 219.909 59.0687C219.909 59.1717 219.949 59.2706 220.022 59.3436L220.846 60.1691L220.022 60.9945C219.985 61.0306 219.956 61.0735 219.937 61.1208C219.917 61.1681 219.906 61.2189 219.906 61.2702C219.906 61.3215 219.916 61.3723 219.936 61.4197C219.955 61.4671 219.984 61.5102 220.02 61.5465C220.056 61.5828 220.099 61.6115 220.147 61.6311C220.194 61.6506 220.245 61.6606 220.296 61.6605C220.347 61.6603 220.398 61.65 220.445 61.6302C220.492 61.6103 220.535 61.5813 220.571 61.5448L221.395 60.7194L222.219 61.5448C222.255 61.5811 222.298 61.6099 222.345 61.6296C222.392 61.6493 222.443 61.6595 222.494 61.6596C222.545 61.6596 222.595 61.6496 222.643 61.6301C222.69 61.6105 222.733 61.5818 222.769 61.5456C222.805 61.5094 222.834 61.4664 222.853 61.4191C222.873 61.3718 222.883 61.3211 222.883 61.2699C222.883 61.2187 222.872 61.168 222.853 61.1208C222.833 61.0735 222.804 61.0306 222.768 60.9945Z" fill="white"/>
<path d="M248.193 26.7018H15.431C15.2773 26.7018 15.1299 26.6407 15.0213 26.5318C14.9126 26.423 14.8516 26.2753 14.8516 26.1214C14.8516 25.9674 14.9126 25.8198 15.0213 25.7109C15.1299 25.6021 15.2773 25.5409 15.431 25.5409H248.193C248.347 25.5409 248.494 25.6021 248.603 25.7109C248.712 25.8198 248.773 25.9674 248.773 26.1214C248.773 26.2753 248.712 26.423 248.603 26.5318C248.494 26.6407 248.347 26.7018 248.193 26.7018Z" fill="#5276F9"/>
<path d="M41.5166 17.4142C43.9895 17.4142 45.9942 15.3611 45.9942 12.8284C45.9942 10.2957 43.9895 8.24255 41.5166 8.24255C39.0437 8.24255 37.0391 10.2957 37.0391 12.8284C37.0391 15.3611 39.0437 17.4142 41.5166 17.4142Z" fill="#5276F9"/>
<path d="M56.9854 17.4142C59.4583 17.4142 61.4629 15.3611 61.4629 12.8284C61.4629 10.2957 59.4583 8.24255 56.9854 8.24255C54.5125 8.24255 52.5078 10.2957 52.5078 12.8284C52.5078 15.3611 54.5125 17.4142 56.9854 17.4142Z" fill="#5276F9"/>
<path d="M72.4541 17.4142C74.927 17.4142 76.9317 15.3611 76.9317 12.8284C76.9317 10.2957 74.927 8.24255 72.4541 8.24255C69.9812 8.24255 67.9766 10.2957 67.9766 12.8284C67.9766 15.3611 69.9812 17.4142 72.4541 17.4142Z" fill="#5276F9"/>
<path d="M90.0898 16.4529C90.0193 16.453 89.9494 16.4389 89.8844 16.4115C89.8194 16.3841 89.7606 16.3439 89.7113 16.2934L86.6901 13.1992C86.5933 13.1001 86.5391 12.967 86.5391 12.8283C86.5391 12.6896 86.5933 12.5565 86.6901 12.4574L89.7113 9.36345C89.7599 9.31366 89.8179 9.27394 89.8818 9.24657C89.9458 9.21921 90.0144 9.20472 90.084 9.20395C90.1535 9.20318 90.2225 9.21615 90.287 9.24209C90.3515 9.26803 90.4103 9.30646 90.46 9.35516C90.5098 9.40387 90.5494 9.46191 90.5767 9.52597C90.604 9.59003 90.6185 9.65885 90.6192 9.7285C90.62 9.79815 90.6071 9.86727 90.5812 9.93192C90.5553 9.99656 90.5169 10.0555 90.4683 10.1053L87.8093 12.8283L90.4683 15.5515C90.5412 15.6262 90.5904 15.7207 90.6099 15.8233C90.6294 15.9258 90.6183 16.0319 90.5778 16.1281C90.5374 16.2244 90.4696 16.3065 90.3827 16.3643C90.2959 16.4221 90.194 16.4529 90.0898 16.4529V16.4529Z" fill="#5276F9"/>
<path d="M95.1701 16.4529C95.0658 16.4529 94.9639 16.4221 94.8771 16.3643C94.7903 16.3065 94.7225 16.2244 94.6821 16.1281C94.6417 16.0319 94.6305 15.9258 94.65 15.8233C94.6694 15.7207 94.7187 15.6262 94.7916 15.5515L97.4503 12.8283L94.7916 10.1053C94.6934 10.0047 94.6391 9.86917 94.6407 9.7285C94.6422 9.58783 94.6995 9.45353 94.7999 9.35516C94.9002 9.25679 95.0355 9.2024 95.1759 9.20395C95.3163 9.20551 95.4504 9.26289 95.5486 9.36345L98.5695 12.4574C98.6663 12.5565 98.7206 12.6896 98.7206 12.8283C98.7206 12.967 98.6663 13.1001 98.5695 13.1992L95.5486 16.2934C95.4993 16.3439 95.4405 16.3841 95.3754 16.4115C95.3104 16.4389 95.2406 16.453 95.1701 16.4529Z" fill="#5276F9"/>
<path d="M212.449 8.77347H206.831C206.679 8.77342 206.528 8.80345 206.388 8.86181C206.247 8.92018 206.119 9.00574 206.011 9.11363C205.904 9.22151 205.818 9.34959 205.76 9.49056C205.702 9.63152 205.672 9.78261 205.672 9.93518V15.5686C205.672 15.7212 205.702 15.8723 205.76 16.0132C205.818 16.1542 205.904 16.2823 206.011 16.3902C206.119 16.4981 206.247 16.5836 206.388 16.642C206.528 16.7004 206.679 16.7304 206.831 16.7303H212.449C212.757 16.7306 213.053 16.6085 213.271 16.3907C213.49 16.173 213.613 15.8773 213.614 15.5686V9.93518C213.613 9.6265 213.49 9.33085 213.271 9.11308C213.053 8.8953 212.757 8.77317 212.449 8.77347Z" fill="#5276F9"/>
<path d="M198.684 8.77347H193.066C192.914 8.77342 192.763 8.80345 192.622 8.86181C192.481 8.92018 192.353 9.00574 192.246 9.11363C192.138 9.22151 192.053 9.34959 191.994 9.49056C191.936 9.63152 191.906 9.78261 191.906 9.93518V15.5686C191.906 15.7212 191.936 15.8723 191.994 16.0132C192.053 16.1542 192.138 16.2823 192.246 16.3902C192.353 16.4981 192.481 16.5836 192.622 16.642C192.763 16.7004 192.914 16.7304 193.066 16.7303H198.684C198.992 16.7306 199.287 16.6085 199.506 16.3907C199.724 16.173 199.847 15.8773 199.848 15.5686V9.93518C199.847 9.6265 199.724 9.33085 199.506 9.11308C199.287 8.8953 198.992 8.77317 198.684 8.77347Z" fill="#5276F9"/>
<path d="M225.426 9.0387H219.808C219.656 9.03865 219.505 9.06868 219.364 9.12704C219.223 9.1854 219.096 9.27097 218.988 9.37885C218.88 9.48674 218.795 9.61482 218.737 9.75579C218.678 9.89675 218.648 10.0478 218.648 10.2004V15.8339C218.648 15.9864 218.678 16.1375 218.737 16.2785C218.795 16.4195 218.88 16.5475 218.988 16.6554C219.096 16.7633 219.223 16.8489 219.364 16.9072C219.505 16.9656 219.656 16.9956 219.808 16.9956H225.426C225.734 16.9959 226.029 16.8738 226.248 16.656C226.466 16.4382 226.589 16.1426 226.591 15.8339V10.2004C226.589 9.89173 226.466 9.59608 226.248 9.37831C226.029 9.16053 225.734 9.0384 225.426 9.0387Z" fill="#5276F9"/>
<path d="M164.046 11.1818H119.142C118.955 11.1806 118.77 11.2163 118.598 11.287C118.425 11.3576 118.268 11.4617 118.136 11.5934C118.004 11.725 117.899 11.8815 117.827 12.054C117.756 12.2264 117.719 12.4113 117.719 12.5981C117.719 12.7848 117.756 12.9698 117.827 13.1422C117.899 13.3146 118.004 13.4712 118.136 13.6028C118.268 13.7344 118.425 13.8386 118.598 13.9092C118.77 13.9799 118.955 14.0156 119.142 14.0144H164.046C164.42 14.012 164.777 13.8618 165.04 13.5964C165.303 13.331 165.451 12.9722 165.451 12.5981C165.451 12.224 165.303 11.8651 165.04 11.5998C164.777 11.3344 164.42 11.1842 164.046 11.1818Z" fill="#5276F9"/>
</svg>
