<svg width="317" height="205" viewBox="0 0 317 205" fill="none" xmlns="http://www.w3.org/2000/svg">
<path d="M277.753 93.4357C278.021 93.3544 278.295 93.2947 278.572 93.2573L289.634 70.3647L286.257 65.2082L293.232 59L302 69.9276L284.142 96.3966C284.582 97.3977 284.711 98.5112 284.514 99.5892C284.317 100.667 283.802 101.658 283.038 102.431C282.275 103.204 281.298 103.722 280.238 103.915C279.179 104.109 278.086 103.969 277.106 103.515C276.126 103.061 275.305 102.314 274.752 101.373C274.2 100.432 273.941 99.3419 274.011 98.2477C274.082 97.1535 274.477 96.1071 275.146 95.2475C275.814 94.3879 276.724 93.756 277.753 93.4357V93.4357Z" fill="#FFB6B6"/>
<path d="M296.391 61.3623C296.243 61.5291 296.073 61.6723 295.886 61.7873L284.765 68.6779C284.498 68.8436 284.202 68.9482 283.895 68.9851C283.588 69.022 283.277 68.9903 282.982 68.8922C282.687 68.7941 282.414 68.6316 282.181 68.415C281.947 68.1985 281.759 67.9325 281.627 67.634L276.218 55.4203C275.988 54.9063 275.938 54.321 276.078 53.7712C276.218 53.2214 276.539 52.7438 276.981 52.4255L283.875 47.4131C284.305 47.1004 284.824 46.9581 285.342 47.0107C285.86 47.0634 286.345 47.3078 286.713 47.7016L296.348 58.0367C296.758 58.4765 296.992 59.0696 297 59.6903C297.008 60.3111 296.789 60.9107 296.391 61.3623H296.391Z" fill="#CCCCCC"/>
<path d="M313 193.353L307.06 195L298 172.432L306.767 170L313 193.353Z" fill="#FFB6B6"/>
<path d="M302.332 195.117L314.199 191.892L316.232 199.354L296.892 204.609C296.625 203.629 296.554 202.606 296.683 201.599C296.812 200.592 297.138 199.62 297.643 198.738C298.148 197.857 298.822 197.083 299.627 196.462C300.431 195.841 301.35 195.384 302.332 195.117Z" fill="#2F2E41"/>
<path d="M260.999 199L254.901 198.999L252 174L261 174.001L260.999 199Z" fill="#FFB6B6"/>
<path d="M249.727 197H262V205H242C242 203.949 242.2 202.909 242.588 201.939C242.977 200.968 243.546 200.086 244.263 199.343C244.981 198.6 245.833 198.011 246.77 197.609C247.708 197.207 248.713 197 249.727 197Z" fill="#2F2E41"/>
<path d="M267.5 40C274.404 40 280 34.1797 280 27C280 19.8203 274.404 14 267.5 14C260.596 14 255 19.8203 255 27C255 34.1797 260.596 40 267.5 40Z" fill="#FFB6B6"/>
<path d="M260.217 182H251.543C250.951 181.999 250.38 181.77 249.948 181.359C249.516 180.948 249.254 180.387 249.216 179.788C246.632 138.218 248.143 108.399 253.974 85.9459C253.999 85.8477 254.031 85.7512 254.068 85.6569L254.533 84.4819C254.704 84.0436 255.002 83.6677 255.388 83.4034C255.774 83.139 256.23 82.9985 256.696 83H274.532C274.868 82.9997 275.2 83.0732 275.505 83.2153C275.811 83.3574 276.082 83.5647 276.301 83.8231L278.723 86.6831C278.77 86.7388 278.815 86.7956 278.857 86.8555C289.781 102.269 299.571 132.403 310.909 172.906C311.077 173.495 311.01 174.126 310.724 174.666C310.438 175.206 309.955 175.611 309.378 175.796L300.057 178.814C299.522 178.984 298.944 178.955 298.428 178.73C297.913 178.506 297.494 178.102 297.248 177.592L273.06 126.831C272.89 126.476 272.613 126.186 272.268 126.004C271.923 125.821 271.529 125.755 271.145 125.817C270.76 125.878 270.405 126.063 270.133 126.345C269.861 126.626 269.685 126.989 269.632 127.379L262.525 179.962C262.447 180.526 262.171 181.042 261.747 181.417C261.323 181.791 260.78 181.998 260.217 182Z" fill="#2F2E41"/>
<path d="M278.653 87C278.629 87 278.604 86.9995 278.58 86.999L256.841 86.3162C256.282 86.3007 255.748 86.0857 255.335 85.7106C254.922 85.3355 254.659 84.8252 254.593 84.273C251.837 62.0831 259.395 56.1385 262.772 54.613C263.054 54.4863 263.299 54.2893 263.482 54.0409C263.665 53.7925 263.781 53.5013 263.817 53.1955L264.109 50.8696C264.159 50.4589 264.319 50.0689 264.571 49.7402C269.866 42.9166 277.097 40.7315 280.936 40.0366C281.247 39.9809 281.566 39.9888 281.874 40.0598C282.183 40.1307 282.473 40.2632 282.728 40.4493C282.983 40.6353 283.198 40.871 283.359 41.142C283.519 41.4131 283.623 41.7138 283.663 42.0259L284.101 45.3656C284.146 45.6841 284.273 45.9855 284.472 46.2396C295.515 60.601 283.212 81.8058 280.634 85.9105C280.423 86.2438 280.131 86.5186 279.785 86.7091C279.438 86.8996 279.049 86.9997 278.653 87Z" fill="#CCCCCC"/>
<path d="M293.293 28.9298C290.439 24.92 287.016 21.3449 283.132 18.3165C279.903 15.8002 276.309 13.6504 272.344 12.6221C268.378 11.5937 263.999 11.7688 260.381 13.6871C256.763 15.6055 253.023 19.417 253 23.5047C252.993 24.8179 253.328 26.5945 254.624 26.3673L254.999 26.4169C258.126 25.7868 261.253 25.1567 264.379 24.5266C265.711 29.1377 267.043 33.7488 268.374 38.3599C268.655 39.3317 269.032 40.4185 269.956 40.8329C270.827 41.2232 271.834 40.8555 272.715 40.4885C272.86 40.428 274.105 37.6394 274.105 37.6394C274.136 37.5523 274.19 37.475 274.262 37.4157C274.333 37.3563 274.418 37.3169 274.51 37.3016C274.601 37.2863 274.695 37.2957 274.782 37.3287C274.868 37.3618 274.945 37.4173 275.003 37.4895L275.742 38.4119C275.884 38.5881 276.079 38.7137 276.298 38.7696C276.517 38.8255 276.748 38.8087 276.957 38.7217C282.056 36.598 287.155 34.4742 292.255 32.3505C292.959 32.0569 293.747 31.6737 293.951 30.9395C294.147 30.2362 293.716 29.525 293.293 28.9298Z" fill="#2F2E41"/>
<path d="M266.935 124C266.589 123.999 266.253 123.89 265.975 123.69L263.661 122.051C263.469 121.914 263.238 121.841 263 121.841C262.762 121.841 262.531 121.914 262.339 122.051L260.025 123.69C259.746 123.888 259.41 123.994 259.065 123.994C258.72 123.994 258.384 123.888 258.105 123.69C257.826 123.492 257.619 123.214 257.512 122.894C257.405 122.574 257.405 122.229 257.512 121.91L258.396 119.257C258.469 119.037 258.47 118.8 258.396 118.579C258.323 118.359 258.179 118.167 257.987 118.031L255.673 116.392C255.394 116.194 255.186 115.915 255.08 115.595C254.973 115.276 254.973 114.931 255.08 114.611C255.187 114.291 255.394 114.013 255.673 113.815C255.952 113.617 256.288 113.511 256.633 113.511H259.493C259.731 113.511 259.962 113.438 260.155 113.302C260.347 113.165 260.49 112.973 260.563 112.753L261.447 110.101C261.553 109.781 261.761 109.502 262.04 109.304C262.319 109.106 262.655 109 263 109C263.345 109 263.681 109.106 263.96 109.304C264.239 109.502 264.447 109.781 264.553 110.101L265.437 112.753C265.51 112.973 265.653 113.165 265.845 113.302C266.038 113.438 266.269 113.511 266.507 113.511H269.367C269.712 113.511 270.048 113.617 270.327 113.815C270.606 114.013 270.813 114.291 270.92 114.611C271.027 114.931 271.027 115.276 270.92 115.595C270.814 115.915 270.606 116.194 270.327 116.392L268.013 118.031C267.821 118.167 267.677 118.359 267.604 118.579C267.53 118.8 267.531 119.037 267.605 119.257L268.488 121.91C268.599 122.229 268.601 122.575 268.494 122.896C268.387 123.216 268.177 123.495 267.895 123.69C267.617 123.89 267.281 123.999 266.935 124Z" fill="#5276F9"/>
<path d="M276.102 117.968C276.788 117.502 277.36 116.896 277.778 116.193C278.196 115.49 278.45 114.707 278.522 113.898C278.593 113.09 278.481 112.276 278.193 111.515C277.904 110.753 277.447 110.062 276.853 109.49L281 61L268.652 62.6447L268.417 109.757C267.49 110.787 266.986 112.11 267 113.476C267.014 114.842 267.545 116.155 268.493 117.167C269.44 118.179 270.738 118.82 272.14 118.967C273.543 119.115 274.952 118.759 276.102 117.968Z" fill="#FFB6B6"/>
<path d="M281.268 68C281.043 68 280.818 67.9672 280.602 67.9028L267.68 64.0726C267.369 63.9806 267.081 63.8246 266.833 63.6146C266.586 63.4045 266.384 63.1449 266.241 62.8522C266.098 62.5595 266.017 62.2401 266.002 61.9142C265.988 61.5882 266.041 61.2628 266.158 60.9586L270.94 48.5085C271.139 47.9827 271.52 47.5466 272.012 47.2799C272.504 47.0133 273.074 46.9338 273.62 47.0559L282.157 48.9262C282.69 49.0431 283.165 49.3439 283.502 49.7765C283.838 50.2092 284.014 50.7466 283.999 51.296L283.602 65.7054C283.585 66.3185 283.332 66.9008 282.896 67.3291C282.461 67.7574 281.877 67.998 281.268 68H281.268Z" fill="#CCCCCC"/>
<path d="M177.227 145.186H2.87174C2.11037 145.185 1.38043 144.883 0.842056 144.345C0.303686 143.808 0.000854558 143.079 0 142.318V90.2887C0.000854558 89.5284 0.303686 88.7994 0.842056 88.2618C1.38043 87.7242 2.11037 87.4218 2.87174 87.4209H177.227C177.989 87.4218 178.719 87.7242 179.257 88.2618C179.795 88.7994 180.098 89.5284 180.099 90.2887V142.318C180.098 143.079 179.795 143.808 179.257 144.345C178.719 144.883 177.989 145.185 177.227 145.186ZM2.87174 88.2403C2.32791 88.2409 1.80654 88.4569 1.42199 88.8409C1.03745 89.2249 0.821127 89.7456 0.820497 90.2887V142.318C0.821127 142.862 1.03745 143.382 1.42199 143.766C1.80654 144.15 2.32791 144.366 2.87174 144.367H177.227C177.771 144.366 178.293 144.15 178.677 143.766C179.062 143.382 179.278 142.862 179.279 142.318V90.2887C179.278 89.7456 179.062 89.2249 178.677 88.8409C178.293 88.4569 177.771 88.2409 177.227 88.2403H2.87174Z" fill="#3F3D56"/>
<path d="M79.1685 167.094C78.8267 167.093 78.4942 166.983 78.2192 166.78L75.9314 165.12C75.7416 164.982 75.5127 164.907 75.2776 164.907C75.0426 164.907 74.8136 164.982 74.6238 165.12L72.3361 166.78C72.0602 166.98 71.7279 167.088 71.3869 167.088C71.0459 167.088 70.7136 166.98 70.4377 166.78C70.1617 166.58 69.9564 166.298 69.851 165.974C69.7455 165.65 69.7455 165.301 69.8508 164.977L70.7247 162.292C70.7977 162.069 70.798 161.828 70.7254 161.605C70.6528 161.382 70.511 161.187 70.3206 161.049L68.0329 159.39C67.757 159.189 67.5516 158.907 67.4462 158.583C67.3408 158.259 67.3408 157.91 67.4462 157.587C67.5516 157.263 67.757 156.98 68.0329 156.78C68.3088 156.58 68.6411 156.472 68.9821 156.472H71.81C72.045 156.473 72.274 156.399 72.4642 156.261C72.6543 156.123 72.7957 155.928 72.8679 155.705L73.7416 153.019C73.847 152.695 74.0524 152.413 74.3283 152.213C74.6042 152.012 74.9366 151.905 75.2776 151.905C75.6187 151.905 75.951 152.012 76.227 152.213C76.5029 152.413 76.7083 152.695 76.8136 153.019L77.6874 155.705C77.7596 155.928 77.901 156.123 78.0911 156.261C78.2812 156.399 78.5103 156.473 78.7453 156.472H81.5731C81.9142 156.472 82.2464 156.58 82.5223 156.78C82.7982 156.98 83.0036 157.263 83.109 157.587C83.2144 157.91 83.2144 158.259 83.109 158.583C83.0036 158.907 82.7982 159.189 82.5223 159.39L80.2346 161.049C80.0442 161.187 79.9025 161.382 79.8299 161.605C79.7573 161.828 79.7575 162.069 79.8306 162.292L80.7044 164.977C80.8136 165.301 80.8156 165.651 80.7099 165.976C80.6042 166.3 80.3965 166.583 80.1177 166.78C79.8427 166.983 79.5102 167.093 79.1685 167.094Z" fill="#5276F9"/>
<path d="M102.348 167.094C102.006 167.093 101.674 166.983 101.399 166.78L99.111 165.12C98.9212 164.982 98.6922 164.907 98.4572 164.907C98.2222 164.907 97.9932 164.982 97.8034 165.12L95.5157 166.78C95.2398 166.98 94.9075 167.088 94.5665 167.088C94.2254 167.088 93.8932 166.98 93.6172 166.78C93.3413 166.58 93.1359 166.298 93.0305 165.974C92.9251 165.65 92.9251 165.301 93.0304 164.977L93.9043 162.292C93.9773 162.069 93.9776 161.828 93.9049 161.605C93.8323 161.382 93.6906 161.187 93.5002 161.049L91.2125 159.39C90.9366 159.189 90.7313 158.907 90.6259 158.583C90.5205 158.259 90.5205 157.91 90.6259 157.587C90.7313 157.263 90.9367 156.98 91.2126 156.78C91.4885 156.58 91.8208 156.472 92.1618 156.472H94.9895C95.2245 156.473 95.4536 156.399 95.6437 156.261C95.8339 156.123 95.9752 155.928 96.0474 155.705L96.9213 153.019C97.0267 152.695 97.232 152.413 97.5079 152.213C97.7839 152.012 98.1162 151.905 98.4572 151.905C98.7983 151.905 99.1306 152.012 99.4066 152.213C99.6825 152.413 99.8878 152.695 99.9932 153.019L100.867 155.705C100.939 155.928 101.081 156.123 101.271 156.261C101.461 156.399 101.69 156.473 101.925 156.472H104.753C105.094 156.472 105.426 156.58 105.702 156.78C105.978 156.98 106.183 157.263 106.289 157.587C106.394 157.91 106.394 158.259 106.289 158.583C106.183 158.907 105.978 159.189 105.702 159.39L103.414 161.049C103.224 161.187 103.082 161.382 103.009 161.605C102.937 161.828 102.937 162.069 103.01 162.292L103.884 164.977C103.993 165.301 103.995 165.651 103.889 165.976C103.784 166.3 103.576 166.583 103.297 166.78C103.022 166.983 102.69 167.093 102.348 167.094Z" fill="#5276F9"/>
<path d="M125.536 167.094C125.194 167.093 124.861 166.983 124.586 166.78L122.299 165.12C122.109 164.982 121.88 164.908 121.645 164.908C121.41 164.908 121.181 164.982 120.991 165.12L118.703 166.78C118.427 166.98 118.095 167.088 117.754 167.088C117.413 167.088 117.081 166.98 116.805 166.78C116.529 166.58 116.323 166.298 116.218 165.974C116.113 165.65 116.113 165.301 116.218 164.977L117.092 162.292C117.165 162.069 117.165 161.828 117.092 161.605C117.02 161.382 116.878 161.187 116.688 161.049L114.4 159.39C114.124 159.189 113.919 158.907 113.813 158.583C113.708 158.259 113.708 157.91 113.813 157.587C113.919 157.263 114.124 156.98 114.4 156.78C114.676 156.58 115.008 156.472 115.349 156.472H118.177C118.412 156.473 118.641 156.399 118.831 156.261C119.021 156.123 119.163 155.928 119.235 155.705L120.109 153.019C120.214 152.695 120.42 152.413 120.695 152.213C120.971 152.012 121.304 151.905 121.645 151.905C121.986 151.905 122.318 152.012 122.594 152.213C122.87 152.413 123.075 152.695 123.181 153.019L124.055 155.705C124.127 155.928 124.268 156.123 124.458 156.261C124.648 156.399 124.877 156.473 125.112 156.472H127.94C128.281 156.472 128.614 156.58 128.889 156.78C129.165 156.98 129.371 157.263 129.476 157.587C129.581 157.91 129.581 158.259 129.476 158.583C129.371 158.907 129.165 159.189 128.889 159.39L126.602 161.049C126.411 161.187 126.27 161.382 126.197 161.605C126.124 161.828 126.125 162.069 126.198 162.292L127.071 164.977C127.181 165.301 127.183 165.651 127.077 165.976C126.971 166.3 126.764 166.583 126.485 166.78C126.21 166.983 125.877 167.093 125.536 167.094Z" fill="#5276F9"/>
<path d="M148.715 167.094C148.374 167.093 148.041 166.983 147.766 166.78L145.478 165.12C145.289 164.982 145.06 164.907 144.825 164.907C144.59 164.907 144.361 164.982 144.171 165.12L141.883 166.78C141.607 166.98 141.275 167.088 140.934 167.088C140.593 167.088 140.26 166.98 139.985 166.78C139.709 166.58 139.503 166.298 139.398 165.974C139.292 165.65 139.292 165.301 139.398 164.977L140.272 162.292C140.345 162.069 140.345 161.828 140.272 161.605C140.2 161.382 140.058 161.187 139.867 161.05L137.58 159.39C137.304 159.189 137.098 158.907 136.993 158.583C136.888 158.259 136.888 157.91 136.993 157.587C137.099 157.263 137.304 156.98 137.58 156.78C137.856 156.58 138.188 156.472 138.529 156.472H141.357C141.592 156.473 141.821 156.399 142.011 156.261C142.201 156.123 142.342 155.928 142.415 155.705L143.289 153.019C143.394 152.695 143.599 152.413 143.875 152.213C144.151 152.012 144.483 151.905 144.824 151.905C145.166 151.905 145.498 152.012 145.774 152.213C146.05 152.413 146.255 152.695 146.36 153.019L147.234 155.705C147.306 155.928 147.448 156.123 147.638 156.261C147.828 156.399 148.057 156.473 148.292 156.472H151.12C151.461 156.472 151.793 156.58 152.069 156.78C152.345 156.98 152.55 157.263 152.656 157.587C152.761 157.91 152.761 158.259 152.656 158.583C152.55 158.907 152.345 159.189 152.069 159.39L149.781 161.049C149.591 161.187 149.449 161.382 149.377 161.605C149.304 161.828 149.304 162.069 149.377 162.292L150.251 164.977C150.361 165.301 150.362 165.651 150.257 165.976C150.151 166.3 149.943 166.583 149.665 166.78C149.39 166.983 149.057 167.093 148.715 167.094Z" fill="#5276F9"/>
<path d="M164.116 167.253C163.741 167.252 163.376 167.131 163.074 166.909C162.767 166.692 162.539 166.382 162.423 166.025C162.307 165.668 162.309 165.283 162.429 164.928L163.303 162.242C163.366 162.051 163.366 161.845 163.303 161.654C163.241 161.463 163.12 161.296 162.957 161.178L160.669 159.518C160.366 159.298 160.14 158.988 160.024 158.632C159.909 158.276 159.909 157.893 160.024 157.537C160.14 157.182 160.366 156.872 160.669 156.652C160.972 156.432 161.337 156.313 161.712 156.313H164.539C164.741 156.314 164.937 156.25 165.1 156.132C165.263 156.014 165.384 155.847 165.446 155.655L166.32 152.97C166.436 152.614 166.661 152.304 166.964 152.084C167.267 151.864 167.632 151.746 168.007 151.746C168.382 151.746 168.747 151.864 169.05 152.084C169.353 152.304 169.578 152.614 169.694 152.97L170.568 155.655C170.63 155.847 170.751 156.014 170.914 156.132C171.077 156.25 171.273 156.314 171.475 156.313H174.302C174.677 156.313 175.042 156.432 175.345 156.652C175.648 156.872 175.874 157.182 175.99 157.537C176.105 157.893 176.105 158.276 175.99 158.632C175.874 158.988 175.648 159.298 175.345 159.518L173.057 161.178C172.894 161.296 172.773 161.462 172.71 161.654C172.648 161.845 172.648 162.051 172.711 162.242L173.585 164.928C173.701 165.284 173.701 165.667 173.585 166.023C173.469 166.379 173.243 166.689 172.94 166.909C172.637 167.128 172.272 167.247 171.898 167.247C171.523 167.247 171.158 167.128 170.855 166.909L168.567 165.249C168.405 165.13 168.208 165.066 168.007 165.066C167.806 165.066 167.609 165.13 167.447 165.249L165.159 166.909C164.857 167.131 164.492 167.252 164.116 167.253ZM168.007 164.247C168.382 164.247 168.747 164.365 169.05 164.586L171.337 166.246C171.5 166.364 171.696 166.428 171.898 166.428C172.099 166.428 172.295 166.364 172.458 166.246C172.621 166.128 172.742 165.961 172.805 165.77C172.867 165.578 172.867 165.372 172.804 165.181L171.931 162.496C171.814 162.14 171.814 161.756 171.93 161.4C172.046 161.045 172.272 160.734 172.575 160.515L174.863 158.855C175.026 158.737 175.147 158.57 175.209 158.379C175.271 158.188 175.271 157.982 175.209 157.791C175.147 157.599 175.026 157.433 174.863 157.315C174.7 157.196 174.504 157.133 174.302 157.133H171.475C171.1 157.133 170.735 157.015 170.431 156.795C170.128 156.575 169.903 156.265 169.788 155.909L168.914 153.223C168.851 153.032 168.73 152.865 168.567 152.747C168.404 152.629 168.208 152.565 168.007 152.565C167.806 152.565 167.609 152.629 167.446 152.747C167.284 152.865 167.162 153.032 167.1 153.223L166.226 155.909C166.111 156.265 165.886 156.575 165.583 156.795C165.279 157.015 164.914 157.133 164.539 157.133H161.712C161.51 157.133 161.314 157.196 161.151 157.315C160.988 157.433 160.867 157.599 160.805 157.791C160.742 157.982 160.742 158.188 160.805 158.379C160.867 158.57 160.988 158.737 161.151 158.855L163.439 160.515C163.742 160.735 163.968 161.045 164.084 161.4C164.2 161.756 164.2 162.14 164.083 162.496L163.209 165.181C163.147 165.372 163.147 165.578 163.209 165.77C163.272 165.961 163.393 166.128 163.556 166.246C163.719 166.364 163.915 166.427 164.116 166.427C164.317 166.427 164.514 166.364 164.676 166.246L166.964 164.586C167.267 164.365 167.632 164.247 168.007 164.247Z" fill="#3F3D56"/>
<path d="M22.5651 99.7114C21.8578 99.7114 21.1796 99.992 20.6795 100.491C20.1794 100.991 19.8984 101.668 19.8984 102.374C19.8984 103.081 20.1794 103.758 20.6795 104.257C21.1796 104.757 21.8578 105.037 22.5651 105.037H157.537C158.244 105.037 158.922 104.757 159.422 104.257C159.923 103.758 160.203 103.081 160.203 102.374C160.203 101.668 159.923 100.991 159.422 100.491C158.922 99.992 158.244 99.7114 157.537 99.7114H22.5651Z" fill="#CCCCCC"/>
<path d="M22.5651 113.641C21.8578 113.641 21.1796 113.921 20.6795 114.421C20.1794 114.92 19.8984 115.597 19.8984 116.304C19.8984 117.01 20.1794 117.687 20.6795 118.187C21.1796 118.686 21.8578 118.967 22.5651 118.967H157.537C158.244 118.967 158.922 118.686 159.422 118.187C159.923 117.687 160.203 117.01 160.203 116.304C160.203 115.597 159.923 114.92 159.422 114.421C158.922 113.921 158.244 113.641 157.537 113.641H22.5651Z" fill="#CCCCCC"/>
<path d="M22.5651 127.57C21.8578 127.57 21.1796 127.85 20.6795 128.35C20.1794 128.849 19.8984 129.527 19.8984 130.233C19.8984 130.939 20.1794 131.616 20.6795 132.116C21.1796 132.615 21.8578 132.896 22.5651 132.896H157.537C158.244 132.896 158.922 132.615 159.422 132.116C159.923 131.616 160.203 130.939 160.203 130.233C160.203 129.527 159.923 128.849 159.422 128.35C158.922 127.85 158.244 127.57 157.537 127.57H22.5651Z" fill="#CCCCCC"/>
<path d="M22.5651 99.7114C21.8578 99.7114 21.1796 99.992 20.6795 100.491C20.1794 100.991 19.8984 101.668 19.8984 102.374C19.8984 103.081 20.1794 103.758 20.6795 104.257C21.1796 104.757 21.8578 105.037 22.5651 105.037H157.537C158.244 105.037 158.922 104.757 159.422 104.257C159.923 103.758 160.203 103.081 160.203 102.374C160.203 101.668 159.923 100.991 159.422 100.491C158.922 99.992 158.244 99.7114 157.537 99.7114H22.5651Z" fill="#CCCCCC"/>
<path d="M22.5651 113.641C21.8578 113.641 21.1796 113.921 20.6795 114.421C20.1794 114.92 19.8984 115.597 19.8984 116.304C19.8984 117.01 20.1794 117.687 20.6795 118.187C21.1796 118.686 21.8578 118.967 22.5651 118.967H157.537C158.244 118.967 158.922 118.686 159.422 118.187C159.923 117.687 160.203 117.01 160.203 116.304C160.203 115.597 159.923 114.92 159.422 114.421C158.922 113.921 158.244 113.641 157.537 113.641H22.5651Z" fill="#CCCCCC"/>
<path d="M22.5651 127.57C21.8578 127.57 21.1796 127.85 20.6795 128.35C20.1794 128.849 19.8984 129.527 19.8984 130.233C19.8984 130.939 20.1794 131.616 20.6795 132.116C21.1796 132.615 21.8578 132.896 22.5651 132.896H157.537C158.244 132.896 158.922 132.615 159.422 132.116C159.923 131.616 160.203 130.939 160.203 130.233C160.203 129.527 159.923 128.849 159.422 128.35C158.922 127.85 158.244 127.57 157.537 127.57H22.5651Z" fill="#CCCCCC"/>
<path d="M177.227 57.7654H2.87174C2.11037 57.7645 1.38043 57.4621 0.842056 56.9245C0.303686 56.3868 0.000854558 55.6579 0 54.8976V2.86778C0.000854558 2.10746 0.303686 1.37853 0.842056 0.840896C1.38043 0.303267 2.11037 0.00085338 2.87174 0H177.227C177.989 0.000852298 178.719 0.303267 179.257 0.840896C179.795 1.37853 180.098 2.10746 180.099 2.86778V54.8976C180.098 55.6579 179.795 56.3868 179.257 56.9245C178.719 57.4621 177.989 57.7645 177.227 57.7654ZM2.87174 0.819367C2.32791 0.819996 1.80654 1.03601 1.42199 1.42003C1.03745 1.80404 0.821127 2.3247 0.820497 2.86778V54.8976C0.821127 55.4407 1.03745 55.9613 1.42199 56.3453C1.80654 56.7294 2.32791 56.9454 2.87174 56.946H177.227C177.771 56.9454 178.293 56.7294 178.677 56.3453C179.062 55.9613 179.278 55.4407 179.279 54.8976V2.86778C179.278 2.3247 179.062 1.80404 178.677 1.42002C178.293 1.036 177.771 0.819987 177.227 0.819367H2.87174Z" fill="#3F3D56"/>
<path d="M79.1685 79.6732C78.8267 79.6718 78.4942 79.5619 78.2192 79.3593L75.9314 77.6995C75.7416 77.561 75.5127 77.4865 75.2776 77.4865C75.0426 77.4865 74.8136 77.561 74.6238 77.6995L72.3361 79.3593C72.0602 79.5595 71.7279 79.6673 71.3869 79.6673C71.0459 79.6673 70.7136 79.5595 70.4377 79.3593C70.1617 79.1592 69.9564 78.8769 69.851 78.5531C69.7455 78.2292 69.7455 77.8803 69.8508 77.5564L70.7247 74.8707C70.7977 74.6476 70.798 74.4071 70.7254 74.1839C70.6528 73.9606 70.511 73.7662 70.3206 73.6285L68.0329 71.9688C67.757 71.7686 67.5516 71.4863 67.4462 71.1624C67.3408 70.8385 67.3408 70.4896 67.4462 70.1657C67.5516 69.8418 67.757 69.5595 68.0329 69.3593C68.3088 69.1591 68.6411 69.0513 68.9821 69.0513H71.81C72.045 69.0517 72.274 68.9776 72.4642 68.8397C72.6543 68.7018 72.7957 68.5071 72.8679 68.2838L73.7416 65.5982C73.847 65.2742 74.0524 64.9919 74.3283 64.7917C74.6042 64.5915 74.9366 64.4836 75.2776 64.4836C75.6187 64.4836 75.951 64.5915 76.227 64.7917C76.5029 64.9919 76.7083 65.2742 76.8136 65.5982L77.6874 68.2838C77.7596 68.5071 77.901 68.7018 78.0911 68.8397C78.2812 68.9776 78.5103 69.0517 78.7453 69.0513H81.5731C81.9142 69.0513 82.2464 69.1591 82.5223 69.3593C82.7982 69.5595 83.0036 69.8418 83.109 70.1657C83.2144 70.4896 83.2144 70.8385 83.109 71.1624C83.0036 71.4863 82.7982 71.7686 82.5223 71.9688L80.2346 73.6285C80.0442 73.7662 79.9025 73.9606 79.8299 74.1839C79.7573 74.4071 79.7575 74.6476 79.8306 74.8707L80.7044 77.5564C80.8136 77.8799 80.8156 78.23 80.7099 78.5548C80.6042 78.8795 80.3965 79.1616 80.1177 79.3593C79.8427 79.5619 79.5102 79.6718 79.1685 79.6732Z" fill="#5276F9"/>
<path d="M101.801 79.6732C101.459 79.6718 101.127 79.5619 100.852 79.3593L98.5641 77.6995C98.3743 77.561 98.1454 77.4865 97.9103 77.4865C97.6753 77.4865 97.4464 77.561 97.2565 77.6995L94.9688 79.3593C94.6929 79.5595 94.3606 79.6673 94.0196 79.6673C93.6786 79.6673 93.3463 79.5595 93.0704 79.3593C92.7944 79.1592 92.5891 78.8769 92.4836 78.5531C92.3782 78.2292 92.3782 77.8803 92.4835 77.5564L93.3574 74.8707C93.4304 74.6476 93.4307 74.4071 93.3581 74.1839C93.2854 73.9606 93.1437 73.7662 92.9533 73.6285L90.6656 71.9688C90.3897 71.7686 90.1844 71.4863 90.079 71.1624C89.9736 70.8385 89.9737 70.4896 90.0791 70.1657C90.1844 69.8418 90.3898 69.5595 90.6657 69.3593C90.9416 69.1591 91.2739 69.0513 91.6149 69.0513H94.4427C94.6777 69.0517 94.9067 68.9776 95.0969 68.8397C95.287 68.7018 95.4283 68.5071 95.5006 68.2838L96.3744 65.5982C96.4798 65.2742 96.6851 64.9919 96.9611 64.7917C97.237 64.5915 97.5693 64.4836 97.9104 64.4836C98.2514 64.4836 98.5838 64.5915 98.8597 64.7917C99.1356 64.9919 99.341 65.2742 99.4463 65.5982L100.32 68.2838C100.392 68.5071 100.534 68.7018 100.724 68.8397C100.914 68.9777 101.143 69.0517 101.378 69.0513H104.206C104.547 69.0513 104.879 69.1591 105.155 69.3593C105.431 69.5595 105.636 69.8418 105.742 70.1657C105.847 70.4896 105.847 70.8385 105.742 71.1624C105.636 71.4863 105.431 71.7686 105.155 71.9688L102.867 73.6285C102.677 73.7662 102.535 73.9606 102.463 74.1839C102.39 74.4071 102.39 74.6476 102.463 74.8707L103.337 77.5564C103.446 77.8799 103.448 78.23 103.343 78.5548C103.237 78.8795 103.029 79.1616 102.75 79.3593C102.475 79.5619 102.143 79.6718 101.801 79.6732Z" fill="#5276F9"/>
<path d="M124.801 79.6732C124.459 79.6718 124.127 79.5619 123.852 79.3593L121.564 77.6995C121.374 77.5614 121.145 77.487 120.91 77.487C120.675 77.487 120.446 77.5614 120.257 77.6995L117.969 79.3593C117.693 79.5595 117.361 79.6673 117.02 79.6673C116.679 79.6673 116.346 79.5595 116.07 79.3593C115.794 79.1592 115.589 78.8769 115.484 78.553C115.378 78.2292 115.378 77.8803 115.484 77.5564L116.357 74.8707C116.43 74.6476 116.431 74.4071 116.358 74.1839C116.285 73.9606 116.144 73.7662 115.953 73.6285L113.666 71.9688C113.39 71.7686 113.184 71.4863 113.079 71.1624C112.974 70.8385 112.974 70.4896 113.079 70.1657C113.184 69.8418 113.39 69.5595 113.666 69.3593C113.942 69.1591 114.274 69.0513 114.615 69.0513H117.443C117.678 69.0517 117.907 68.9776 118.097 68.8397C118.287 68.7018 118.428 68.5071 118.501 68.2838L119.374 65.5982C119.48 65.2742 119.685 64.9919 119.961 64.7917C120.237 64.5915 120.569 64.4836 120.91 64.4836C121.251 64.4836 121.584 64.5915 121.86 64.7917C122.136 64.9919 122.341 65.2742 122.446 65.5982L123.32 68.2838C123.392 68.5071 123.534 68.7018 123.724 68.8397C123.914 68.9776 124.143 69.0517 124.378 69.0513H127.206C127.547 69.0513 127.879 69.1591 128.155 69.3593C128.431 69.5595 128.636 69.8418 128.742 70.1657C128.847 70.4896 128.847 70.8385 128.742 71.1624C128.636 71.4863 128.431 71.7686 128.155 71.9688L125.867 73.6285C125.677 73.7662 125.535 73.9606 125.463 74.1839C125.39 74.4071 125.39 74.6476 125.463 74.8707L126.337 77.5564C126.446 77.8799 126.448 78.23 126.343 78.5548C126.237 78.8795 126.029 79.1616 125.75 79.3593C125.475 79.5619 125.143 79.6718 124.801 79.6732Z" fill="#5276F9"/>
<path d="M147.801 79.6732C147.459 79.6718 147.127 79.5619 146.852 79.3593L144.564 77.6995C144.374 77.5614 144.145 77.487 143.91 77.487C143.675 77.487 143.446 77.5614 143.257 77.6995L140.969 79.3593C140.693 79.5595 140.361 79.6673 140.02 79.6673C139.679 79.6673 139.346 79.5595 139.07 79.3593C138.794 79.1592 138.589 78.8769 138.484 78.553C138.378 78.2292 138.378 77.8803 138.484 77.5564L139.357 74.8707C139.43 74.6476 139.431 74.4071 139.358 74.1839C139.285 73.9606 139.144 73.7662 138.953 73.6285L136.666 71.9688C136.39 71.7686 136.184 71.4863 136.079 71.1624C135.974 70.8385 135.974 70.4896 136.079 70.1657C136.184 69.8418 136.39 69.5595 136.666 69.3593C136.942 69.1591 137.274 69.0513 137.615 69.0513H140.443C140.678 69.0517 140.907 68.9776 141.097 68.8397C141.287 68.7018 141.428 68.5071 141.501 68.2838L142.374 65.5982C142.48 65.2742 142.685 64.9919 142.961 64.7917C143.237 64.5915 143.569 64.4836 143.91 64.4836C144.251 64.4836 144.584 64.5915 144.86 64.7917C145.136 64.9919 145.341 65.2742 145.446 65.5982L146.32 68.2838C146.392 68.5071 146.534 68.7018 146.724 68.8397C146.914 68.9776 147.143 69.0517 147.378 69.0513H150.206C150.547 69.0513 150.879 69.1591 151.155 69.3593C151.431 69.5595 151.636 69.8418 151.742 70.1657C151.847 70.4896 151.847 70.8385 151.742 71.1624C151.636 71.4863 151.431 71.7686 151.155 71.9688L148.867 73.6285C148.677 73.7662 148.535 73.9606 148.463 74.1839C148.39 74.4071 148.39 74.6476 148.463 74.8707L149.337 77.5564C149.446 77.8799 149.448 78.23 149.343 78.5548C149.237 78.8795 149.029 79.1616 148.75 79.3593C148.475 79.5619 148.143 79.6718 147.801 79.6732Z" fill="#5276F9"/>
<path d="M170.801 79.6732C170.459 79.6718 170.127 79.5619 169.852 79.3593L167.564 77.6995C167.374 77.5614 167.145 77.487 166.91 77.487C166.675 77.487 166.446 77.5614 166.257 77.6995L163.969 79.3593C163.693 79.5595 163.361 79.6673 163.02 79.6673C162.679 79.6673 162.346 79.5595 162.07 79.3593C161.794 79.1592 161.589 78.8769 161.484 78.553C161.378 78.2292 161.378 77.8803 161.484 77.5564L162.357 74.8707C162.43 74.6476 162.431 74.4071 162.358 74.1839C162.285 73.9606 162.144 73.7662 161.953 73.6285L159.666 71.9688C159.39 71.7686 159.184 71.4863 159.079 71.1624C158.974 70.8385 158.974 70.4896 159.079 70.1657C159.184 69.8418 159.39 69.5595 159.666 69.3593C159.942 69.1591 160.274 69.0513 160.615 69.0513H163.443C163.678 69.0517 163.907 68.9776 164.097 68.8397C164.287 68.7018 164.428 68.5071 164.501 68.2838L165.374 65.5982C165.48 65.2742 165.685 64.9919 165.961 64.7917C166.237 64.5915 166.569 64.4836 166.91 64.4836C167.251 64.4836 167.584 64.5915 167.86 64.7917C168.136 64.9919 168.341 65.2742 168.446 65.5982L169.32 68.2838C169.392 68.5071 169.534 68.7018 169.724 68.8397C169.914 68.9776 170.143 69.0517 170.378 69.0513H173.206C173.547 69.0513 173.879 69.1591 174.155 69.3593C174.431 69.5595 174.636 69.8418 174.742 70.1657C174.847 70.4896 174.847 70.8385 174.742 71.1624C174.636 71.4863 174.431 71.7686 174.155 71.9688L171.867 73.6285C171.677 73.7662 171.535 73.9606 171.463 74.1839C171.39 74.4071 171.39 74.6476 171.463 74.8707L172.337 77.5564C172.446 77.8799 172.448 78.23 172.343 78.5548C172.237 78.8795 172.029 79.1616 171.75 79.3593C171.475 79.5619 171.143 79.6718 170.801 79.6732Z" fill="#5276F9"/>
<path d="M22.5651 12.2905C21.8578 12.2905 21.1796 12.5711 20.6795 13.0705C20.1794 13.5699 19.8984 14.2472 19.8984 14.9535C19.8984 15.6597 20.1794 16.3371 20.6795 16.8365C21.1796 17.3359 21.8578 17.6164 22.5651 17.6164H157.537C158.244 17.6164 158.922 17.3359 159.422 16.8365C159.923 16.3371 160.203 15.6597 160.203 14.9535C160.203 14.2472 159.923 13.5699 159.422 13.0705C158.922 12.5711 158.244 12.2905 157.537 12.2905H22.5651Z" fill="#CCCCCC"/>
<path d="M22.5651 26.2197C21.8578 26.2197 21.1796 26.5003 20.6795 26.9997C20.1794 27.4991 19.8984 28.1764 19.8984 28.8827C19.8984 29.5889 20.1794 30.2663 20.6795 30.7657C21.1796 31.2651 21.8578 31.5456 22.5651 31.5456H157.537C158.244 31.5456 158.922 31.2651 159.422 30.7657C159.923 30.2663 160.203 29.5889 160.203 28.8827C160.203 28.1764 159.923 27.4991 159.422 26.9997C158.922 26.5003 158.244 26.2197 157.537 26.2197H22.5651Z" fill="#CCCCCC"/>
<path d="M22.5651 40.1489C21.8578 40.1489 21.1796 40.4295 20.6795 40.9289C20.1794 41.4283 19.8984 42.1056 19.8984 42.8119C19.8984 43.5181 20.1794 44.1955 20.6795 44.6949C21.1796 45.1942 21.8578 45.4748 22.5651 45.4748H157.537C158.244 45.4748 158.922 45.1942 159.422 44.6949C159.923 44.1955 160.203 43.5181 160.203 42.8119C160.203 42.1056 159.923 41.4283 159.422 40.9289C158.922 40.4295 158.244 40.1489 157.537 40.1489H22.5651Z" fill="#CCCCCC"/>
<path d="M22.5651 12.2905C21.8578 12.2905 21.1796 12.5711 20.6795 13.0705C20.1794 13.5699 19.8984 14.2472 19.8984 14.9535C19.8984 15.6597 20.1794 16.3371 20.6795 16.8365C21.1796 17.3359 21.8578 17.6164 22.5651 17.6164H157.537C158.244 17.6164 158.922 17.3359 159.422 16.8365C159.923 16.3371 160.203 15.6597 160.203 14.9535C160.203 14.2472 159.923 13.5699 159.422 13.0705C158.922 12.5711 158.244 12.2905 157.537 12.2905H22.5651Z" fill="#CCCCCC"/>
<path d="M22.5651 26.2197C21.8578 26.2197 21.1796 26.5003 20.6795 26.9997C20.1794 27.4991 19.8984 28.1764 19.8984 28.8827C19.8984 29.5889 20.1794 30.2663 20.6795 30.7657C21.1796 31.2651 21.8578 31.5456 22.5651 31.5456H157.537C158.244 31.5456 158.922 31.2651 159.422 30.7657C159.923 30.2663 160.203 29.5889 160.203 28.8827C160.203 28.1764 159.923 27.4991 159.422 26.9997C158.922 26.5003 158.244 26.2197 157.537 26.2197H22.5651Z" fill="#CCCCCC"/>
<path d="M22.5651 40.1489C21.8578 40.1489 21.1796 40.4295 20.6795 40.9289C20.1794 41.4283 19.8984 42.1056 19.8984 42.8119C19.8984 43.5181 20.1794 44.1955 20.6795 44.6949C21.1796 45.1942 21.8578 45.4748 22.5651 45.4748H157.537C158.244 45.4748 158.922 45.1942 159.422 44.6949C159.923 44.1955 160.203 43.5181 160.203 42.8119C160.203 42.1056 159.923 41.4283 159.422 40.9289C158.922 40.4295 158.244 40.1489 157.537 40.1489H22.5651Z" fill="#CCCCCC"/>
</svg>
