<svg width="30" height="30" viewBox="0 0 30 30" fill="none" xmlns="http://www.w3.org/2000/svg">
<rect x="1" y="1" width="28" height="28" rx="14" fill="white" stroke="#385AD4" stroke-width="2"/>
<path d="M20.5129 9.38258C20.7894 9.13448 21.1573 8.99732 21.5391 9.00004C21.9208 9.00276 22.2865 9.14516 22.559 9.39718C22.8315 9.6492 22.9894 9.99113 22.9995 10.3508C23.0096 10.7105 22.871 11.0598 22.6131 11.3251L14.7817 20.5565C14.647 20.6933 14.4845 20.803 14.3038 20.8791C14.1232 20.9553 13.9281 20.9963 13.7302 20.9998C13.5323 21.0032 13.3357 20.969 13.1522 20.8992C12.9686 20.8294 12.8019 20.7255 12.6619 20.5935L7.46852 15.6985C7.3239 15.5714 7.20789 15.4183 7.12744 15.2481C7.04698 15.0779 7.00372 14.8941 7.00023 14.7078C6.99674 14.5215 7.0331 14.3365 7.10714 14.1637C7.18117 13.9909 7.29137 13.834 7.43116 13.7022C7.57094 13.5705 7.73745 13.4666 7.92074 13.3968C8.10404 13.3271 8.30037 13.2928 8.49803 13.2961C8.69568 13.2994 8.89061 13.3401 9.07118 13.416C9.25175 13.4918 9.41427 13.6011 9.54903 13.7375L13.659 17.6095L20.4756 9.42328C20.4879 9.40904 20.501 9.39545 20.5149 9.38258H20.5129Z" fill="#385AD4"/>
</svg>
