<svg width="15" height="16" viewBox="0 0 15 16" fill="none" xmlns="http://www.w3.org/2000/svg">
<path d="M2.65476 6.02244C3.40485 6.02244 4.0129 6.63049 4.0129 7.38058V13.8317C4.0129 14.5818 3.40485 15.1899 2.65476 15.1899H1.91921C1.21474 15.1899 0.627205 14.6512 0.566176 13.9494L0.00520702 7.49824C-0.0637904 6.70471 0.561726 6.02244 1.35824 6.02244H2.65476ZM7.75945 1.7653C7.89405 0.794606 8.75489 0.746678 9.53741 1.17123C10.0522 1.45051 10.5765 1.93891 10.8767 2.43956C11.1926 2.96647 11.288 3.60917 11.2446 4.31425C11.2255 4.62542 11.182 4.8852 11.0905 5.23987L11.0124 5.52594L10.8667 6.01701L13.641 6.01718C14.5083 6.01718 15.1443 6.8152 14.9716 7.64822L14.9481 7.74445L13.1247 14.2009C12.9594 14.7859 12.4256 15.1899 11.8176 15.1899H6.05011C5.30002 15.1899 4.69197 14.5818 4.69197 13.8317V7.1682C4.69197 6.62018 5.02052 6.1281 5.5145 5.89526C6.26421 5.54184 6.89699 5.09564 7.16538 4.648C7.35944 4.32436 7.5137 3.8116 7.61768 3.19235C7.69089 2.75637 7.73017 2.33292 7.74546 1.98882L7.75244 1.82528L7.75945 1.7653ZM2.65476 7.38058H1.35824L1.91921 13.8317H2.65476V7.38058ZM9.074 2.48042L9.05439 2.69484C9.03861 2.84852 9.01917 3.00787 8.9956 3.17069L8.95707 3.41725C8.82743 4.18933 8.62951 4.84722 8.33018 5.34641C7.88528 6.08843 7.06938 6.66376 6.09358 7.12375C6.06436 7.13752 6.05011 7.15888 6.05011 7.1682V13.8317L11.8174 13.8311L13.641 7.3753L9.95475 7.37531C9.49993 7.37531 9.17368 6.93692 9.30428 6.50125L9.60313 5.50436L9.69764 5.1835L9.76403 4.9427L9.81428 4.73799C9.85716 4.54768 9.87895 4.39509 9.88904 4.23092C9.91709 3.77454 9.85908 3.38345 9.71188 3.13795C9.57835 2.91524 9.34068 2.67201 9.09738 2.49663L9.074 2.48042Z" fill="#385AD4"/>
<path d="M2.6559 7.38026H1.35938L1.92034 13.8314H2.6559V7.38026Z" fill="#D5DEFF"/>
<path d="M9.07514 2.4801L9.05553 2.69453C9.03975 2.84821 9.02031 3.00756 8.99673 3.17038L8.95821 3.41694C8.82856 4.18902 8.63064 4.8469 8.33132 5.3461C7.88642 6.08812 7.07052 6.66345 6.09472 7.12344C6.0655 7.13721 6.05124 7.15856 6.05124 7.16788V13.8314L11.8186 13.8307L13.6422 7.37499L9.95589 7.375C9.50107 7.375 9.17482 6.93661 9.30542 6.50094L9.60426 5.50404L9.69877 5.18319L9.76517 4.94238L9.81542 4.73768C9.85829 4.54737 9.88009 4.39478 9.89018 4.23061C9.91823 3.77422 9.86022 3.38314 9.71302 3.13764C9.57949 2.91493 9.34182 2.6717 9.09851 2.49632L9.07514 2.4801Z" fill="#D5DEFF"/>
</svg>
