<svg width="18" height="24" viewBox="0 0 18 24" fill="none" xmlns="http://www.w3.org/2000/svg">
<path d="M10.6366 14.6964L10.6176 14.7461L8.06717 21.211L7.10808 23.6431L5.30595 20.3846L1.76562 21.5355L5.29885 12.5887L7.54145 13.4744L10.5016 14.6443L10.6366 14.6964Z" fill="#263238"/>
<g opacity="0.2">
<path d="M7.13603 22.4521L5.59676 19.6648L2.57031 20.65L5.62517 12.9062L10.1933 14.7084L7.13603 22.4521ZM5.65359 19.5299L7.11945 22.1821L10.0322 14.7747L5.68674 13.0602L2.7645 20.4582L5.65359 19.5299Z" fill="white"/>
</g>
<path opacity="0.2" d="M10.6167 14.7462L8.06393 21.2112C7.11344 18.9539 6.55292 16.5517 6.40625 14.1068L7.55004 13.4769L10.5102 14.6468L10.6167 14.7462Z" fill="black"/>
<path d="M10.0308 23.6431L11.8306 20.3846L15.3709 21.5355L11.8377 12.5887L6.5 14.6964L10.0308 23.6431Z" fill="#263238"/>
<g opacity="0.2">
<path d="M6.94531 14.7083L11.5229 12.899L14.5801 20.6428L11.5513 19.6576L10.0239 22.452L6.94531 14.7083ZM14.3693 20.4581L11.4471 13.0601L7.09924 14.7746L10.0239 22.1749L11.4873 19.5227L14.3693 20.4581Z" fill="white"/>
</g>
<path d="M8.56383 2.03175L9.19611 1.53918L9.72894 2.13832L10.4394 1.76415L10.8562 2.44854L11.6211 2.20936L11.91 2.95531L12.7057 2.85585L12.8572 3.64443L13.6576 3.68706L13.6647 4.48985L14.4462 4.67456L14.3112 5.46551L15.0453 5.78757L14.7706 6.54063L15.4337 6.99058L15.0311 7.68206L15.6042 8.24094L15.0832 8.84954L15.5474 9.50314L14.9269 10.0099L15.2656 10.7346L14.5646 11.1229L14.7706 11.8973L14.0105 12.1531L14.0744 12.9511L13.2811 13.0671L13.2006 13.8652L12.4002 13.8368L12.1799 14.6064L11.3961 14.4359L11.0409 15.1558L10.2997 14.848L9.82366 15.4921L9.14875 15.0564L8.56383 15.6058L7.97891 15.0564L7.30636 15.4921L6.828 14.848L6.08678 15.1558L5.73394 14.4359L4.95009 14.6064L4.72986 13.8368L3.92707 13.8652L3.84892 13.0671L3.05561 12.9511L3.11954 12.1531L2.35938 11.8973L2.5654 11.1229L1.86208 10.7346L2.20308 10.0099L1.58027 9.50314L2.04679 8.84954L1.52344 8.24094L2.09889 7.68206L1.69394 6.99058L2.35938 6.54063L2.08468 5.78757L2.81879 5.46551L2.68381 4.67456L3.46292 4.48985L3.47002 3.68706L4.27044 3.64443L4.422 2.85585L5.21769 2.95531L5.5066 2.20936L6.2715 2.44854L6.68829 1.76415L7.39872 2.13832L7.93154 1.53918L8.56383 2.03175Z" fill="#BA68C8"/>
<path opacity="0.2" d="M12.8602 12.8602C15.2277 10.4927 15.2277 6.65425 12.8602 4.28675C10.4927 1.91925 6.65424 1.91925 4.28674 4.28675C1.91924 6.65425 1.91924 10.4927 4.28674 12.8602C6.65424 15.2277 10.4927 15.2277 12.8602 12.8602Z" fill="black"/>
<path d="M5.74219 8.7998L7.16305 8.67429C7.16305 8.67429 7.42354 7.64416 7.26251 5.42761C7.50583 5.38068 7.75452 5.36792 8.00137 5.38972C8.23818 5.44182 8.50341 7.90702 8.50341 7.90702C8.50341 7.90702 11.0681 7.55417 11.2149 7.656C11.3072 7.71994 11.3546 8.09884 11.3783 8.36643C11.385 8.4423 11.365 8.51812 11.3218 8.58082C11.2786 8.64351 11.2148 8.68914 11.1415 8.70981L11.0539 8.73349L11.1036 11.2011C11.1051 11.2926 11.0716 11.3813 11.01 11.449C10.9484 11.5168 10.8633 11.5585 10.7721 11.5658L8.36842 11.7576C8.13077 11.7761 7.89307 11.7224 7.6864 11.6036L7.4117 11.445L5.93874 11.6557L5.74219 8.7998Z" fill="#BA68C8"/>
<path opacity="0.7" d="M5.74219 8.7998L7.16305 8.67429C7.16305 8.67429 7.42354 7.64416 7.26251 5.42761C7.50583 5.38068 7.75452 5.36792 8.00137 5.38972C8.23818 5.44182 8.50341 7.90702 8.50341 7.90702C8.50341 7.90702 11.0681 7.55417 11.2149 7.656C11.3072 7.71994 11.3546 8.09884 11.3783 8.36643C11.385 8.4423 11.365 8.51812 11.3218 8.58082C11.2786 8.64351 11.2148 8.68914 11.1415 8.70981L11.0539 8.73349L11.1036 11.2011C11.1051 11.2926 11.0716 11.3813 11.01 11.449C10.9484 11.5168 10.8633 11.5585 10.7721 11.5658L8.36842 11.7576C8.13077 11.7761 7.89307 11.7224 7.6864 11.6036L7.4117 11.445L5.93874 11.6557L5.74219 8.7998Z" fill="white"/>
</svg>
