<svg width="25" height="25" viewBox="0 0 25 25" fill="none" xmlns="http://www.w3.org/2000/svg">
<path d="M18.75 18.75C22.2018 15.2982 22.2018 9.70178 18.75 6.25C15.2982 2.79822 9.70178 2.79822 6.25 6.25C2.79822 9.70178 2.79822 15.2982 6.25 18.75C9.70178 22.2018 15.2982 22.2018 18.75 18.75Z" fill="#F04900"/>
<path opacity="0.4" d="M18.75 18.75C22.2018 15.2982 22.2018 9.70178 18.75 6.25C15.2982 2.79822 9.70178 2.79822 6.25 6.25C2.79822 9.70178 2.79822 15.2982 6.25 18.75C9.70178 22.2018 15.2982 22.2018 18.75 18.75Z" fill="#F04900"/>
<path opacity="0.2" d="M19.8187 13.7481C20.508 9.70721 17.791 5.8727 13.7501 5.18343C9.70929 4.49417 5.87478 7.21117 5.18552 11.252C4.49626 15.2929 7.21325 19.1274 11.2541 19.8166C15.2949 20.5059 19.1294 17.7889 19.8187 13.7481Z" fill="black"/>
<path opacity="0.4" d="M20.1711 13.2109C20.4466 9.27574 17.4798 5.86235 13.5447 5.58689C9.60949 5.31143 6.1961 8.27821 5.92064 12.2134C5.64518 16.1485 8.61196 19.5619 12.5471 19.8374C16.4823 20.1129 19.8957 17.1461 20.1711 13.2109Z" fill="#F04900"/>
<g opacity="0.7">
<path d="M15.4321 11.8197L15.8972 13.8352C15.917 13.9121 15.9205 13.9924 15.9076 14.0707C15.8946 14.1491 15.8656 14.224 15.8222 14.2905C15.78 14.3585 15.7246 14.4174 15.6593 14.4636C15.594 14.5099 15.5201 14.5426 15.4419 14.5598L13.6696 14.9694L13.996 16.3876C14.0152 16.4643 14.0181 16.5441 14.0046 16.6219C13.9911 16.6998 13.9615 16.774 13.9176 16.8397C13.8755 16.9066 13.8199 16.964 13.7545 17.0084C13.689 17.0528 13.6151 17.0831 13.5374 17.0975C13.4595 17.117 13.3785 17.1207 13.2992 17.1084C13.2198 17.0961 13.1438 17.0679 13.0755 17.0257C13.0075 16.9857 12.9486 16.9319 12.9025 16.8679C12.8564 16.8038 12.8242 16.7308 12.8079 16.6536L12.4815 15.2191L10.7238 15.6255C10.6481 15.6438 10.5694 15.6465 10.4926 15.6336C10.4157 15.6207 10.3423 15.5924 10.2767 15.5504C10.2085 15.5104 10.1493 15.4567 10.103 15.3926C10.0566 15.3286 10.0241 15.2556 10.0074 15.1783C9.98883 15.102 9.98591 15.0228 9.99882 14.9454C10.0117 14.868 10.0402 14.794 10.0825 14.7279C10.1228 14.6603 10.1767 14.6018 10.2407 14.556C10.3047 14.5102 10.3776 14.4782 10.4546 14.4619L14.5672 13.5137L14.3746 12.6765L10.2734 13.6214C10.1975 13.6408 10.1184 13.6445 10.041 13.6325C9.96358 13.6204 9.88941 13.5928 9.82297 13.5512C9.75486 13.5103 9.69601 13.4557 9.65021 13.3908C9.60441 13.3259 9.57265 13.2521 9.55696 13.1742L9.09348 11.1669C9.0578 11.0126 9.08487 10.8504 9.16872 10.7161C9.25258 10.5817 9.38636 10.4862 9.54064 10.4504L11.2901 10.0473L10.9637 8.62752C10.9448 8.55244 10.9411 8.47433 10.9529 8.39781C10.9647 8.32129 10.9917 8.2479 11.0323 8.18198C11.0753 8.11058 11.1331 8.04919 11.2018 8.00191C11.2704 7.95463 11.3484 7.92255 11.4305 7.90781C11.506 7.88946 11.5844 7.88666 11.661 7.89956C11.7376 7.91247 11.8107 7.94082 11.876 7.98288C11.943 8.0241 12.001 8.07846 12.0464 8.14269C12.0919 8.20692 12.1238 8.27969 12.1404 8.35661L12.4668 9.7748L14.262 9.36354C14.3396 9.34474 14.4203 9.34184 14.4991 9.35502C14.5779 9.3682 14.6532 9.39719 14.7206 9.44024C14.7887 9.47939 14.8479 9.53223 14.8945 9.59544C14.9411 9.65864 14.9742 9.73083 14.9915 9.80744C15.0259 9.96528 14.9971 10.1303 14.9114 10.2672C14.8257 10.4042 14.6899 10.5021 14.5329 10.5402L10.4203 11.4884L10.5998 12.3207L14.6977 11.3758C14.7754 11.357 14.856 11.3541 14.9348 11.3673C15.0137 11.3804 15.089 11.4094 15.1563 11.4525C15.2255 11.4909 15.2858 11.5434 15.3333 11.6067C15.3809 11.67 15.4145 11.7425 15.4321 11.8197Z" fill="white"/>
</g>
</svg>
