<svg width="21" height="15" viewBox="0 0 21 15" fill="none" xmlns="http://www.w3.org/2000/svg">
<path d="M7.98261 3.32019H2.8216C1.26326 3.32019 0 4.58345 0 6.14179V9.54683C0 11.1049 1.26326 12.3684 2.82133 12.3684H3.2903L3.01842 14.4338L5.18828 12.3684H7.98261C9.54069 12.3684 10.8039 11.1052 10.8039 9.54683V6.14179C10.8039 4.58345 9.54069 3.32019 7.98261 3.32019Z" fill="#4E4E4E"/>
<path d="M12.0245 0H17.1852C18.7435 0 20.0068 1.26298 20.0068 2.82133V6.22637C20.0068 7.78472 18.7435 9.0477 17.1855 9.0477H16.7168L16.9886 11.1133L14.8188 9.0477H12.0245C10.4664 9.0477 9.20312 7.78445 9.20312 6.22637V2.82133C9.20312 1.26298 10.4664 0 12.0245 0Z" fill="#AAA524"/>
<path d="M12.8365 4.5036C12.8365 4.92234 12.4972 5.26171 12.0784 5.26171C11.6597 5.26171 11.3203 4.92234 11.3203 4.5036C11.3203 4.08485 11.6597 3.74548 12.0784 3.74548C12.4972 3.74548 12.8365 4.08485 12.8365 4.5036Z" fill="white"/>
<path d="M15.3522 4.5036C15.3522 4.92234 15.0128 5.26171 14.5941 5.26171C14.1753 5.26171 13.8359 4.92234 13.8359 4.5036C13.8359 4.08485 14.1753 3.74548 14.5941 3.74548C15.0128 3.74548 15.3522 4.08485 15.3522 4.5036Z" fill="white"/>
<path d="M17.8756 4.5036C17.8756 4.92234 17.5362 5.26171 17.1175 5.26171C16.6987 5.26171 16.3594 4.92234 16.3594 4.5036C16.3594 4.08485 16.6987 3.74548 17.1175 3.74548C17.5362 3.74548 17.8756 4.08485 17.8756 4.5036Z" fill="white"/>
<path d="M3.75842 8.01276C3.75842 8.4315 3.41905 8.77087 3.0003 8.77087C2.58156 8.77087 2.24219 8.4315 2.24219 8.01276C2.24219 7.59401 2.58156 7.25464 3.0003 7.25464C3.41905 7.25464 3.75842 7.59401 3.75842 8.01276Z" fill="white"/>
<path d="M6.27404 8.01276C6.27404 8.4315 5.93467 8.77087 5.51593 8.77087C5.09718 8.77087 4.75781 8.4315 4.75781 8.01276C4.75781 7.59401 5.09718 7.25464 5.51593 7.25464C5.93467 7.25464 6.27404 7.59401 6.27404 8.01276Z" fill="white"/>
<path d="M8.79748 8.01276C8.79748 8.4315 8.45811 8.77087 8.03936 8.77087C7.62062 8.77087 7.28125 8.4315 7.28125 8.01276C7.28125 7.59401 7.62062 7.25464 8.03936 7.25464C8.45811 7.25464 8.79748 7.59401 8.79748 8.01276Z" fill="white"/>
</svg>
