<svg width="15" height="18" viewBox="0 0 15 18" fill="none" xmlns="http://www.w3.org/2000/svg">
<path d="M5.69828 0.686101C2.5204 1.23344 0.0382241 2.21609 0.152211 2.8833L0.206257 3.19186C0.320244 3.85514 2.9901 3.9485 6.167 3.39821C9.34391 2.84793 11.828 1.86528 11.7131 1.20199L11.66 0.89344C11.545 0.22917 8.87617 0.136801 5.69828 0.686101Z" fill="#2C981B"/>
<path opacity="0.2" d="M6.16907 3.39806C9.34666 2.84862 11.8296 1.86523 11.7148 1.20158C11.6001 0.537935 8.93111 0.445349 5.75352 0.994784C2.57594 1.54422 0.0930239 2.52762 0.207775 3.19126C0.322525 3.85491 2.99149 3.94749 6.16907 3.39806Z" fill="white"/>
<path d="M5.86722 1.65101C3.01754 2.14233 0.798717 3.02672 0.901895 3.61631L0.990333 4.13023C1.0886 4.72473 3.48331 4.80728 6.32808 4.31497C9.17285 3.82266 11.3966 2.93926 11.2934 2.34967L11.205 1.83673C11.1018 1.24223 8.71199 1.1587 5.86722 1.65101Z" fill="#2C981B"/>
<path opacity="0.2" d="M6.32796 4.31685C9.17292 3.82493 11.3959 2.94451 11.2932 2.35038C11.1905 1.75626 8.8009 1.67341 5.95594 2.16533C3.11098 2.65725 0.887966 3.53766 0.990697 4.13179C1.09343 4.72591 3.483 4.80877 6.32796 4.31685Z" fill="white"/>
<path d="M8.83795 9.45217C8.71428 9.38738 8.60718 9.295 8.52494 9.18218C8.4427 9.06936 8.38752 8.93913 8.36367 8.80157C8.33982 8.66401 8.34795 8.5228 8.38743 8.38888C8.4269 8.25497 8.49666 8.13193 8.59131 8.02929C9.74396 6.77445 11.1393 4.77673 10.7856 2.72299C10.7089 2.28375 8.59033 2.28276 6.05313 2.72299C3.51593 3.16322 1.52017 3.87465 1.59583 4.3139C1.95057 6.36469 3.93552 7.77774 5.4429 8.5727C5.56657 8.63749 5.67367 8.72987 5.75592 8.84269C5.83816 8.95551 5.89334 9.08574 5.91719 9.2233C5.94103 9.36086 5.9329 9.50207 5.89343 9.63598C5.85396 9.7699 5.78419 9.89294 5.68955 9.99558C4.53592 11.2494 3.14056 13.2472 3.49529 15.3019C3.57194 15.7421 5.69053 15.7431 8.22773 15.3019C10.7649 14.8607 12.7607 14.1502 12.689 13.7129C12.3303 11.6592 10.3444 10.2462 8.83795 9.45217Z" fill="#407BFF"/>
<g opacity="0.8">
<path d="M8.83795 9.45217C8.71428 9.38738 8.60718 9.295 8.52494 9.18218C8.4427 9.06936 8.38752 8.93913 8.36367 8.80157C8.33982 8.66401 8.34795 8.5228 8.38743 8.38888C8.4269 8.25497 8.49666 8.13193 8.59131 8.02929C9.74396 6.77445 11.1393 4.77673 10.7856 2.72299C10.7089 2.28375 8.59033 2.28276 6.05313 2.72299C3.51593 3.16322 1.52017 3.87465 1.59583 4.3139C1.95057 6.36469 3.93552 7.77774 5.4429 8.5727C5.56657 8.63749 5.67367 8.72987 5.75592 8.84269C5.83816 8.95551 5.89334 9.08574 5.91719 9.2233C5.94103 9.36086 5.9329 9.50207 5.89343 9.63598C5.85396 9.7699 5.78419 9.89294 5.68955 9.99558C4.53592 11.2494 3.14056 13.2472 3.49529 15.3019C3.57194 15.7421 5.69053 15.7431 8.22773 15.3019C10.7649 14.8607 12.7607 14.1502 12.689 13.7129C12.3303 11.6592 10.3444 10.2462 8.83795 9.45217Z" fill="white"/>
<path d="M8.83795 9.45217C8.71428 9.38738 8.60718 9.295 8.52494 9.18218C8.4427 9.06936 8.38752 8.93913 8.36367 8.80157C8.33982 8.66401 8.34795 8.5228 8.38743 8.38888C8.4269 8.25497 8.49666 8.13193 8.59131 8.02929C9.74396 6.77445 11.1393 4.77673 10.7856 2.72299C10.7089 2.28375 8.59033 2.28276 6.05313 2.72299C3.51593 3.16322 1.52017 3.87465 1.59583 4.3139C1.95057 6.36469 3.93552 7.77774 5.4429 8.5727C5.56657 8.63749 5.67367 8.72987 5.75592 8.84269C5.83816 8.95551 5.89334 9.08574 5.91719 9.2233C5.94103 9.36086 5.9329 9.50207 5.89343 9.63598C5.85396 9.7699 5.78419 9.89294 5.68955 9.99558C4.53592 11.2494 3.14056 13.2472 3.49529 15.3019C3.57194 15.7421 5.69053 15.7431 8.22773 15.3019C10.7649 14.8607 12.7607 14.1502 12.689 13.7129C12.3303 11.6592 10.3444 10.2462 8.83795 9.45217Z" fill="#CBF2C2"/>
</g>
<path d="M12.455 13.828C12.5002 14.2889 4.32652 15.8798 3.78311 15.1732C3.72822 15.0947 3.69388 15.0036 3.68324 14.9083C3.67259 14.813 3.68598 14.7166 3.72219 14.6279C3.7778 14.4644 3.86015 14.3114 3.96588 14.1749C4.21842 13.8329 4.77559 13.6835 5.15292 13.546C5.40743 13.4526 5.6639 13.3671 5.92037 13.2787C6.19551 13.1804 6.47852 13.2492 6.7173 13.0399C6.86077 12.9151 6.96788 12.7294 7.15163 12.6842C7.28822 12.6508 7.43463 12.7048 7.56926 12.6685C7.74417 12.6213 7.86897 12.4326 8.04977 12.4297C8.13946 12.4405 8.22753 12.4619 8.31214 12.4936C8.46936 12.527 8.63052 12.4749 8.79167 12.4601C8.95036 12.4529 9.10933 12.4645 9.26531 12.4945C9.7528 12.5877 10.2448 12.6556 10.7393 12.698C11.1038 12.7176 11.5077 12.7088 11.8634 12.809C12.0189 12.8673 12.1476 12.9806 12.225 13.1274C12.3518 13.3414 12.4303 13.5805 12.455 13.828Z" fill="#263238"/>
<path opacity="0.2" d="M12.2334 13.1234C12.0073 12.919 11.5897 12.9328 11.4698 12.9416C11.35 12.9505 11.3077 12.8483 11.2173 12.8149C11.1269 12.7814 10.5923 12.8502 10.5923 12.8502C10.5923 12.8502 10.7889 12.8886 10.8301 12.9534C10.8714 13.0183 11.0954 12.9436 11.1249 12.9347C11.0945 12.9524 10.8213 13.0959 10.6926 13.0094C10.5638 12.923 10.5108 13.0841 10.4086 13.1254C10.3064 13.1666 9.98407 13.1254 9.93199 13.1087C9.77817 13.0999 9.62397 13.0999 9.47014 13.1087C9.54982 13.0573 9.63965 13.0238 9.7335 13.0104C9.81997 13.0202 10.1649 12.8384 10.0941 12.8512C10.0234 12.864 9.86222 12.7697 9.73644 12.7304C9.58383 12.7194 9.43042 12.7293 9.28049 12.7598C9.43318 12.7575 9.58531 12.7787 9.73153 12.8227C9.63114 12.8467 9.53261 12.8779 9.43674 12.9161C9.34901 12.9444 9.25767 12.9599 9.16552 12.9623C9.09136 12.9893 9.02747 13.0387 8.98275 13.1038C8.87041 13.1304 8.75654 13.1501 8.64177 13.1627C8.52856 13.1728 8.4145 13.1594 8.30669 13.1234L8.61721 13.0251L8.51108 12.9947C8.43818 12.9704 8.36317 12.953 8.28704 12.9426C8.16224 12.922 8.10918 13.0409 8.07872 13.0694C8.04825 13.0979 7.77508 13.0694 7.69843 13.0507C7.62178 13.032 7.05479 13.262 7.05479 13.262L7.40953 13.201C7.50153 13.2402 7.5996 13.2631 7.69941 13.2688C7.93623 13.3003 7.97062 13.2217 8.06987 13.2286C8.16912 13.2354 8.49831 13.3268 8.49831 13.3268L8.37056 13.3612C8.25777 13.3769 8.14335 13.3769 8.03056 13.3612C7.83403 13.3347 7.72791 13.4379 7.66895 13.4487C7.51727 13.4827 7.3632 13.5051 7.20809 13.5155C7.14422 13.5017 6.97618 13.5803 6.88381 13.6747C6.83127 13.727 6.76532 13.7639 6.69322 13.7812C6.62111 13.7985 6.54562 13.7957 6.47503 13.7729C6.29619 13.7268 5.99452 13.9449 5.99452 13.9449C5.99452 13.9449 6.15272 13.7356 6.23527 13.7209C6.36349 13.6707 6.48684 13.6088 6.60376 13.5361C6.55962 13.5356 6.51554 13.5392 6.47208 13.5469C6.42806 13.5506 6.38375 13.5454 6.34175 13.5317C6.29974 13.5181 6.26087 13.4962 6.2274 13.4673C6.12914 13.3995 6.03087 13.4526 5.88642 13.5263C5.74197 13.6 5.58672 13.6875 5.43441 13.5803C5.2821 13.4732 4.81534 13.8692 4.81534 13.8692C4.92159 13.8436 5.02522 13.808 5.12487 13.7631C5.16811 13.7277 5.19857 13.7631 5.33614 13.7916C5.47371 13.8201 5.51891 13.7238 5.58672 13.6875C5.65452 13.6511 5.85793 13.712 5.85793 13.712C5.80986 13.7348 5.75668 13.7446 5.70365 13.7405C5.62897 13.7287 5.50712 13.9439 5.46782 13.9203C5.42851 13.8968 5.14256 13.9341 5.01973 13.998C4.8969 14.0618 4.71609 14.2751 4.5343 14.2092C4.38002 14.1532 4.03217 14.6259 3.72656 14.6318C3.78218 14.4683 3.86453 14.3153 3.97026 14.1788C4.2228 13.8368 4.77996 13.6875 5.1573 13.5499C5.41181 13.4565 5.66828 13.371 5.92475 13.2826C6.19989 13.1843 6.48289 13.2531 6.72168 13.0438C6.86514 12.919 6.97225 12.7333 7.15601 12.6881C7.29259 12.6547 7.43901 12.7087 7.57363 12.6724C7.74854 12.6252 7.87334 12.4365 8.05415 12.4336C8.14383 12.4444 8.23191 12.4658 8.31652 12.4975C8.47374 12.5309 8.63489 12.4788 8.79605 12.4641C8.95473 12.4568 9.11371 12.4684 9.26969 12.4984C9.75718 12.5916 10.2492 12.6595 10.7437 12.7019C11.1082 12.7215 11.5121 12.7127 11.8678 12.8129C12.0234 12.8684 12.1534 12.9788 12.2334 13.1234Z" fill="white"/>
<path d="M7.95408 13.7131C5.10439 14.2044 2.88557 15.0888 2.98777 15.6784L3.07719 16.1923C3.17545 16.7819 5.56919 16.8694 8.41494 16.3771C11.2607 15.8848 13.4834 15.0014 13.3803 14.4118L13.2918 13.8988C13.1886 13.2994 10.7988 13.2159 7.95408 13.7131Z" fill="#2C981B"/>
<path d="M8.11142 14.6269C4.93452 15.1762 2.45137 16.1598 2.56634 16.8241L2.6194 17.1317C2.73437 17.7959 5.40324 17.8883 8.58113 17.339C11.759 16.7897 14.2412 15.8061 14.1262 15.1418L14.0732 14.8342C13.9582 14.17 11.2893 14.0776 8.11142 14.6269Z" fill="#2C981B"/>
<path opacity="0.2" d="M3.23438 17.5454C3.26582 17.5543 3.29923 17.5621 3.33264 17.57C3.29923 17.5582 3.26385 17.5503 3.23438 17.5454Z" fill="white"/>
<path opacity="0.2" d="M8.11142 14.6269C4.93452 15.1762 2.45137 16.1598 2.56634 16.8241L2.6194 17.1317C2.50443 16.4645 4.98758 15.4818 8.1694 14.9354C11.3512 14.3891 14.0152 14.4785 14.1301 15.1418L14.0771 14.8342C13.9582 14.17 11.2893 14.0776 8.11142 14.6269Z" fill="white"/>
<path d="M7.62674 8.6308C7.56483 9.12213 7.385 9.86599 7.30443 10.3622C7.22385 10.8585 7.46558 11.6279 7.53731 11.8608C7.60905 12.0937 8.09349 12.0573 8.07384 12.243C8.05419 12.4287 8.79707 12.4602 8.79707 12.4602C8.79707 12.4602 5.31653 13.8359 4.96474 13.7484C4.61295 13.661 5.61722 12.9741 5.80982 12.9289C6.00242 12.8837 6.10461 12.7648 6.23432 12.4897C6.36403 12.2145 6.49767 12.2637 6.63328 11.9875C6.75417 11.7814 6.86309 11.5685 6.95952 11.3498C7.11379 10.9666 7.24743 9.78836 7.0853 9.68911C6.92316 9.58987 7.07056 10.5922 6.93102 10.6256C6.79148 10.659 7.11281 9.63507 6.68929 9.1182C6.26577 8.60132 7.62674 8.6308 7.62674 8.6308Z" fill="#263238"/>
<path opacity="0.2" d="M8.7963 12.4602C8.7963 12.4602 5.31674 13.8359 4.96397 13.7484C4.64264 13.6689 5.46414 13.0802 5.75009 12.9515C5.76876 13.1539 6.31413 12.9466 6.53031 12.8267C6.74649 12.7068 6.7632 12.7943 6.84279 12.7589C6.92239 12.7235 7.52574 12.2735 7.46285 12.2922C7.39996 12.3108 6.95089 12.642 6.84279 12.5339C6.7347 12.4258 6.55586 12.6322 6.42222 12.6951C6.30627 12.7511 6.27679 12.6833 6.18049 12.5968C6.19916 12.5624 6.21685 12.5251 6.23552 12.4857C6.36228 12.2106 6.49788 12.2597 6.62858 11.9836C6.75202 11.7808 6.86325 11.5708 6.96169 11.3547C7.11695 10.9715 7.25059 9.79329 7.08944 9.69404C6.92828 9.59479 7.07372 10.5971 6.93516 10.6295C6.79661 10.6619 7.11499 9.64 6.69245 9.12312C6.26991 8.60625 7.62695 8.6318 7.62695 8.6318C7.56504 9.12312 7.38522 9.86699 7.30464 10.3632C7.25158 10.6885 7.33707 11.1307 7.42256 11.4628C7.39996 11.5434 7.36851 11.6171 7.33117 11.6289C7.24175 11.6554 7.17886 11.961 7.06193 11.9699C6.94499 11.9787 7.04325 12.1939 7.20539 12.1045C7.3125 12.0455 7.48152 12.0062 7.59845 11.9551C7.74978 12.0897 8.08978 12.0878 8.07209 12.244C8.05538 12.4297 8.7963 12.4602 8.7963 12.4602Z" fill="white"/>
<path d="M9.51456 6.38448L9.47329 6.45228C9.3371 6.69472 9.18886 6.9302 9.02913 7.15782C8.87392 7.39986 8.6952 7.62598 8.49555 7.8329C8.30689 8.01469 8.11429 8.10018 8.00423 8.31735C7.97621 8.37125 7.95477 8.42833 7.94036 8.48735C7.89909 8.65145 7.88631 8.84896 7.74383 8.94133C7.70957 8.95873 7.67672 8.97877 7.64556 9.00127C7.57383 9.06318 7.57776 9.17127 7.55909 9.26364C7.54042 9.35601 7.451 9.46017 7.36256 9.41497C7.27412 9.36976 7.27019 9.25676 7.1906 9.26069C7.1707 9.26497 7.15128 9.27123 7.13262 9.27936C7.05204 9.3 6.97736 9.23711 6.91546 9.1811C6.85355 9.12508 6.76511 9.07399 6.69436 9.11722C6.48014 8.92058 6.24484 8.74823 5.99275 8.6033C5.78836 8.47948 5.57611 8.36845 5.35304 8.24856C4.86172 7.98128 4.29178 7.71793 3.94786 7.44672C3.83619 7.36545 3.7428 7.26168 3.6737 7.1421C3.6535 7.10238 3.64021 7.05951 3.63439 7.01534C3.5774 6.52991 5.07987 6.38546 5.59969 6.02384C6.11951 5.66223 6.93118 5.89413 7.27019 5.81847C7.60921 5.74281 7.99539 5.84992 8.35602 5.82338C8.71665 5.79685 8.93873 5.69269 9.14902 5.84598C9.3593 5.99928 9.59219 5.95309 9.64034 6.07003C9.66393 6.14668 9.57549 6.28818 9.51456 6.38448Z" fill="#263238"/>
<path opacity="0.2" d="M9.05483 6.23115C8.74431 6.17121 9.37812 6.15942 9.32997 6.12306C9.28182 6.0867 9.12656 5.96879 8.78067 5.98058C8.43477 5.99237 8.14588 5.96879 8.07218 5.98058C7.99848 5.99237 8.31293 6.08769 8.31293 6.08769H7.50224C7.23889 6.08769 7.68207 5.98058 7.68207 5.98058H6.31717C6.35352 5.98058 6.61687 6.13584 6.46063 6.13584C6.30439 6.13584 6.13734 6.21936 5.92214 6.30289C5.75137 6.37203 5.57564 6.4282 5.39642 6.47092C5.36105 6.47092 5.88775 6.07786 5.92018 6.05231C5.88775 6.06607 5.4485 6.24884 5.26475 6.30289C5.08099 6.35693 4.5769 6.53086 4.53366 6.54265C4.6256 6.54865 4.71784 6.54865 4.80978 6.54265C4.80978 6.54265 4.43834 6.73427 4.24771 6.75785C4.10424 6.77554 3.75638 6.89346 3.67188 7.14305C3.74098 7.26263 3.83437 7.3664 3.94603 7.44767C4.28996 7.71888 4.85793 7.98223 5.35122 8.24951C5.57428 8.3694 5.78654 8.48044 5.99093 8.60425C6.24302 8.74918 6.47832 8.92153 6.69254 9.11817C6.76329 9.07494 6.85271 9.128 6.91363 9.18205C6.97456 9.23609 7.05022 9.29997 7.1308 9.28031C7.14946 9.27218 7.16888 9.26593 7.18877 9.26164C7.26837 9.26164 7.28704 9.37956 7.36074 9.41592C7.43444 9.45227 7.5327 9.35696 7.55727 9.26459C7.58183 9.17222 7.57201 9.06806 7.64374 9.00222C7.67489 8.97973 7.70775 8.95969 7.74201 8.94228C7.88547 8.84991 7.89825 8.6524 7.93854 8.4883C7.95294 8.42928 7.97439 8.3722 8.00241 8.3183C8.11541 8.10113 8.30801 8.01564 8.49373 7.83385C8.69337 7.62693 8.8721 7.40081 9.02731 7.15877C9.18704 6.93115 9.33528 6.69567 9.47147 6.45323C9.36338 6.26554 9.36829 6.29109 9.05483 6.23115ZM4.6103 7.49975C4.50614 7.48796 4.84319 7.38282 4.84319 7.38282C4.81883 7.42133 4.78451 7.45253 4.74385 7.47312C4.7032 7.49371 4.65773 7.50291 4.61227 7.49975H4.6103ZM4.67319 7.09588C4.67319 7.09588 4.84319 6.96126 4.91493 6.9701C4.98396 6.97485 5.05323 6.97485 5.12226 6.9701C5.12226 6.9701 4.85498 7.14993 4.67516 7.09588H4.67319ZM6.02827 8.14634C5.90544 8.12275 6.15798 8.04807 6.2189 8.06477C6.27982 8.08148 6.1737 8.17287 6.03023 8.14634H6.02827ZM6.63456 6.77063C6.63456 6.77063 6.11376 6.92392 6.2189 6.92392H6.41543C6.37907 6.92392 5.84058 7.04085 5.81405 7.03594C5.91631 6.96799 6.02337 6.90756 6.13439 6.85513C6.13439 6.85513 6.09607 6.80698 6.09804 6.7893C6.1 6.77161 6.21988 6.73525 6.21988 6.73525C6.26214 6.69889 6.45081 6.64583 6.52254 6.69005C6.6056 6.72181 6.69404 6.73716 6.78294 6.73525L6.63456 6.77063ZM6.85369 7.83877C6.70826 7.70611 7.13964 7.83877 7.13964 7.83877C7.13964 7.83877 6.95392 7.93015 6.85566 7.84073L6.85369 7.83877ZM7.08953 6.41393C7.28606 6.2793 7.33519 6.41393 7.33519 6.41393C7.33519 6.41393 7.02566 6.45716 7.08953 6.41393ZM7.7705 6.93473L7.61918 6.8571C7.6824 6.81891 7.75251 6.79354 7.82553 6.78242C7.92368 6.77836 8.02071 6.80442 8.10362 6.8571C8.15668 6.88953 7.82258 6.96126 7.76952 6.93276L7.7705 6.93473ZM8.15767 7.59507C8.15767 7.59507 7.91594 7.58917 7.89235 7.59507C7.97856 7.55795 8.06721 7.52677 8.15767 7.50172V7.59507ZM8.53304 6.62323C8.53304 6.62323 8.705 6.58589 8.78558 6.67531C8.89367 6.79519 8.53206 6.62323 8.53206 6.62323H8.53304Z" fill="white"/>
</svg>
