<svg width="16" height="18" viewBox="0 0 16 18" fill="none" xmlns="http://www.w3.org/2000/svg">
<path d="M4 6.16708C4 5.68255 4.35817 5.28976 4.8 5.28976H11.2C11.6418 5.28976 12 5.68255 12 6.16708C12 6.6516 11.6418 7.04439 11.2 7.04439H4.8C4.35817 7.04439 4 6.6516 4 6.16708Z" fill="#2F2E41"/>
<path d="M4.8 8.79902C4.35817 8.79902 4 9.1918 4 9.67633C4 10.1609 4.35817 10.5536 4.8 10.5536H7.2C7.64183 10.5536 8 10.1609 8 9.67633C8 9.1918 7.64183 8.79902 7.2 8.79902H4.8Z" fill="#2F2E41"/>
<path fill-rule="evenodd" clip-rule="evenodd" d="M0 3.53514C0 2.08156 1.07452 0.903198 2.4 0.903198H13.6C14.9255 0.903198 16 2.08156 16 3.53514V12.3083C16 13.7618 14.9255 14.9402 13.6 14.9402H4.26667L1.6 17.1335C0.940764 17.6757 0 17.1599 0 16.2562V3.53514ZM2.4 2.65782C1.95817 2.65782 1.6 3.05061 1.6 3.53514V14.9402L3.30667 13.5365C3.58362 13.3087 3.92047 13.1856 4.26667 13.1856H13.6C14.0418 13.1856 14.4 12.7928 14.4 12.3083V3.53514C14.4 3.05061 14.0418 2.65782 13.6 2.65782H2.4Z" fill="#2F2E41"/>
</svg>
