<svg width="16" height="15" viewBox="0 0 16 15" fill="none" xmlns="http://www.w3.org/2000/svg">
<path d="M15.9877 6.00644C16.0676 5.6134 15.7479 5.14175 15.3482 5.14175L10.7917 4.51288L8.71328 0.425236C8.63334 0.268019 8.5534 0.18941 8.39353 0.110802C7.99383 -0.125024 7.5142 0.0321934 7.27439 0.425236L5.27593 4.51288L0.719445 5.14175C0.47963 5.14175 0.319753 5.22035 0.239815 5.37757C-0.0799383 5.69201 -0.0799383 6.16366 0.239815 6.47809L3.51729 9.62243L2.7179 14.1031C2.7179 14.2603 2.7179 14.4175 2.79784 14.5748C3.03766 14.9678 3.51729 15.125 3.91698 14.8892L7.99383 12.7668L12.0707 14.8892C12.1506 14.9678 12.3105 14.9678 12.4704 14.9678H12.6303C13.0299 14.8892 13.3497 14.4962 13.2698 14.0245L12.4704 9.54382L15.7479 6.39948C15.9077 6.32087 15.9877 6.16366 15.9877 6.00644Z" fill="#686868"/>
</svg>
