<svg width="14" height="14" viewBox="0 0 14 14" fill="none" xmlns="http://www.w3.org/2000/svg">
<path d="M10.1785 1.97098C10.9403 1.5481 11.5368 0.885216 11.8903 0.100253C11.9505 -0.0334179 12.1427 -0.0334175 12.2029 0.100253C12.5565 0.885217 13.153 1.54809 13.9148 1.97098C14.0284 2.03404 14.0284 2.19547 13.9148 2.25853C13.153 2.68142 12.5565 3.3443 12.2029 4.12926C12.1427 4.26293 11.9505 4.26293 11.8903 4.12926C11.5368 3.3443 10.9403 2.68142 10.1785 2.25853C10.0649 2.19547 10.0649 2.03404 10.1785 1.97098Z" fill="#686868"/>
<path d="M7.02857 0.445496C6.77655 -0.114107 5.97175 -0.114102 5.71972 0.445496L4.98092 2.08595C4.29911 3.59984 3.14054 4.85625 1.67738 5.66845L0.365049 6.39693C-0.121684 6.66712 -0.121681 7.35868 0.365049 7.62887L1.67738 8.35735C3.14054 9.16955 4.29911 10.426 4.98092 11.9398L5.71972 13.5803C5.97175 14.1399 6.77655 14.1399 7.02857 13.5803L7.76738 11.9398C8.44919 10.426 9.60776 9.16955 11.0709 8.35735L12.3832 7.62887C12.87 7.35868 12.87 6.66711 12.3832 6.39693L11.0709 5.66845C9.60776 4.85625 8.44919 3.59984 7.76738 2.08595L7.02857 0.445496Z" fill="#686868"/>
</svg>
