<svg width="15" height="15" viewBox="0 0 15 15" fill="none" xmlns="http://www.w3.org/2000/svg">
<path d="M7.50062 0C3.35929 0 0.00205179 3.35742 0.00205179 7.49897C0.00205179 8.61561 0.252096 9.68222 0.693726 10.6314C0.868712 10.998 0.868761 11.423 0.743771 11.8146L0.0437557 13.8979C-0.172893 14.5479 0.452072 15.1729 1.10202 14.9562L3.18518 14.2562C3.57681 14.1312 4.00171 14.1313 4.36835 14.3063C5.31827 14.7479 6.38486 14.9979 7.50143 14.9979C11.6428 14.9979 15 11.6405 15 7.49897C14.9992 3.35742 11.6419 0 7.50062 0ZM4.16837 8.3331C3.70841 8.3331 3.33104 7.95977 3.33104 7.49979C3.33104 7.0398 3.70007 6.66648 4.16003 6.66648H4.16837C4.62917 6.66648 5.00164 7.0398 5.00164 7.49979C5.00164 7.95977 4.62917 8.3331 4.16837 8.3331ZM7.50143 8.3331C7.04147 8.3331 6.6641 7.95977 6.6641 7.49979C6.6641 7.0398 7.03313 6.66648 7.49309 6.66648H7.50143C7.96223 6.66648 8.3347 7.0398 8.3347 7.49979C8.3347 7.95977 7.96223 8.3331 7.50143 8.3331ZM10.8345 8.3331C10.3745 8.3331 9.99716 7.95977 9.99716 7.49979C9.99716 7.0398 10.3662 6.66648 10.8261 6.66648H10.8345C11.2953 6.66648 11.6678 7.0398 11.6678 7.49979C11.6678 7.95977 11.2953 8.3331 10.8345 8.3331Z" fill="#686868"/>
</svg>
