<svg width="30" height="30" viewBox="0 0 30 30" fill="none" xmlns="http://www.w3.org/2000/svg">
<path d="M21.5664 7.50122H26.2574" stroke="black" stroke-width="2" stroke-linecap="round" stroke-linejoin="round"/>
<path d="M3.75 7.50122H17.8125" stroke="black" stroke-width="2" stroke-linecap="round" stroke-linejoin="round"/>
<path d="M21.5664 22.5005H26.2574" stroke="black" stroke-width="2" stroke-linecap="round" stroke-linejoin="round"/>
<path d="M3.75 22.5005H17.8125" stroke="black" stroke-width="2" stroke-linecap="round" stroke-linejoin="round"/>
<path d="M12.1875 15.002H26.25" stroke="black" stroke-width="2" stroke-linecap="round" stroke-linejoin="round"/>
<path d="M3.75 15.002H8.44095" stroke="black" stroke-width="2" stroke-linecap="round" stroke-linejoin="round"/>
<path d="M19.6889 9.37898C20.7252 9.37898 21.5653 8.5389 21.5653 7.5026C21.5653 6.4663 20.7252 5.62622 19.6889 5.62622C18.6526 5.62622 17.8125 6.4663 17.8125 7.5026C17.8125 8.5389 18.6526 9.37898 19.6889 9.37898Z" stroke="black" stroke-width="2" stroke-linecap="round" stroke-linejoin="round"/>
<path d="M10.3139 16.8785C11.3502 16.8785 12.1903 16.0384 12.1903 15.0021C12.1903 13.9658 11.3502 13.1257 10.3139 13.1257C9.27758 13.1257 8.4375 13.9658 8.4375 15.0021C8.4375 16.0384 9.27758 16.8785 10.3139 16.8785Z" stroke="black" stroke-width="2" stroke-linecap="round" stroke-linejoin="round"/>
<path d="M19.6889 24.3785C20.7252 24.3785 21.5653 23.5384 21.5653 22.5021C21.5653 21.4658 20.7252 20.6257 19.6889 20.6257C18.6526 20.6257 17.8125 21.4658 17.8125 22.5021C17.8125 23.5384 18.6526 24.3785 19.6889 24.3785Z" stroke="black" stroke-width="2" stroke-linecap="round" stroke-linejoin="round"/>
</svg>
