<svg width="36" height="36" viewBox="0 0 36 36" fill="none" xmlns="http://www.w3.org/2000/svg">
<path d="M11.25 10.1265H31.5" stroke="black" stroke-width="2" stroke-linecap="round" stroke-linejoin="round"/>
<path d="M11.25 18.0012H31.5" stroke="black" stroke-width="2" stroke-linecap="round" stroke-linejoin="round"/>
<path d="M11.25 25.8782H31.5" stroke="black" stroke-width="2" stroke-linecap="round" stroke-linejoin="round"/>
<path d="M5.63512 11.2727C6.26203 11.2727 6.77024 10.7645 6.77024 10.1376C6.77024 9.51065 6.26203 9.00244 5.63512 9.00244C5.00821 9.00244 4.5 9.51065 4.5 10.1376C4.5 10.7645 5.00821 11.2727 5.63512 11.2727Z" stroke="black" stroke-width="2" stroke-linecap="round" stroke-linejoin="round"/>
<path d="M5.63512 19.1467C6.26203 19.1467 6.77024 18.6385 6.77024 18.0116C6.77024 17.3847 6.26203 16.8765 5.63512 16.8765C5.00821 16.8765 4.5 17.3847 4.5 18.0116C4.5 18.6385 5.00821 19.1467 5.63512 19.1467Z" stroke="black" stroke-width="2" stroke-linecap="round" stroke-linejoin="round"/>
<path d="M5.63512 27.0227C6.26203 27.0227 6.77024 26.5145 6.77024 25.8876C6.77024 25.2607 6.26203 24.7524 5.63512 24.7524C5.00821 24.7524 4.5 25.2607 4.5 25.8876C4.5 26.5145 5.00821 27.0227 5.63512 27.0227Z" stroke="black" stroke-width="2" stroke-linecap="round" stroke-linejoin="round"/>
</svg>
