<svg width="207" height="157" viewBox="0 0 207 157" fill="none" xmlns="http://www.w3.org/2000/svg">
<g clip-path="url(#clip0_677_1041)">
<path d="M191.523 142.704C184.741 147.86 176.478 153.082 168.354 155.545C166.012 156.276 163.596 156.743 161.15 156.936C158.863 157.12 156.561 156.941 154.33 156.408C148.467 154.952 143.029 152.403 137.767 149.425C136.048 148.45 134.349 147.431 132.66 146.389C129.902 144.688 127.172 142.928 124.434 141.209C124.024 140.949 123.617 140.693 123.207 140.44H123.204C122.543 140.026 121.881 139.618 121.217 139.215C121.1 139.143 120.983 139.074 120.864 139.002C119.609 138.243 118.333 137.502 117.036 136.778C116.877 136.691 116.718 136.602 116.559 136.515C114.048 135.125 111.467 133.864 108.827 132.738C107.093 132.009 105.337 131.352 103.563 130.791H103.561C102.882 130.578 102.202 130.377 101.518 130.194C99.4698 129.633 97.3821 129.225 95.2728 128.974C92.3661 128.622 89.4262 128.646 86.5255 129.043C86.3292 129.07 86.1354 129.098 85.9392 129.13C78.0887 130.385 70.9239 134.615 63.0386 135.612C62.7827 135.644 62.5293 135.674 62.2734 135.696C62.1641 135.706 62.0548 135.719 61.9455 135.726C59.654 135.922 57.3479 135.865 55.0689 135.558C48.7015 134.719 42.5006 132.118 36.9183 128.84C23.8681 121.175 13.2849 109.393 6.85047 95.7489C5.74555 93.4106 4.76454 91.0159 3.91152 88.5748C1.52654 81.8055 0.213125 74.7066 0.0185612 67.5335C-0.585131 42.646 13.583 17.6767 35.8277 6.4208C58.0749 -4.83511 87.3403 -1.11289 105.282 16.1789C116.166 26.6685 122.464 40.8829 130.655 53.5821C138.845 66.2787 150.487 78.4075 165.502 80.2575C173.152 81.1998 181.156 79.3772 188.487 81.7479C192.547 83.0622 196.01 85.5767 198.8 88.7806C200.676 90.9548 202.245 93.3743 203.465 95.9721C204.36 97.8502 205.086 99.8036 205.634 101.81C205.736 102.179 205.831 102.549 205.922 102.918C209.574 117.807 203.739 133.415 191.523 142.704Z" fill="#F2F2F2"/>
<path d="M69.3538 115.751H46.0011C42.5023 115.751 39.666 118.582 39.666 122.075V122.075C39.666 125.567 42.5023 128.398 46.0011 128.398H69.3538C72.8525 128.398 75.6888 125.567 75.6888 122.075C75.6888 118.582 72.8525 115.751 69.3538 115.751Z" fill="#3F3D56"/>
<path d="M62.2729 125.175V135.696C59.8741 135.928 57.4564 135.882 55.0684 135.558V125.175H62.2729Z" fill="#3F3D56"/>
<path d="M86.5249 129.043C86.3286 129.07 86.1348 129.097 85.9386 129.13C78.0881 130.385 70.9233 134.615 63.038 135.612C62.7821 135.644 62.5287 135.674 62.2728 135.696C62.1635 135.706 62.0542 135.719 61.9449 135.726C60.0195 133.844 58.0942 131.84 56.2856 129.765C55.3043 128.641 54.3553 127.496 53.4634 126.335C51.148 123.339 49.1854 120.259 47.8885 117.234C48.0202 115.783 47.1159 112.428 46.6836 109.859L46.6812 109.857C46.4973 108.778 46.3979 107.84 46.4899 107.238C47.0166 103.761 49.8611 104.16 50.7356 100.753C51.5244 100.1 52.3643 99.51 53.2472 98.99C53.3938 98.9032 53.5429 98.8164 53.6969 98.7296L63.1871 92.1829L66.8142 95.734L72.3344 101.14L78.3166 106.995L73.2387 112.116C73.2387 112.116 77.4819 116.998 82.4431 123.508C83.7747 125.256 85.1585 127.124 86.5249 129.043Z" fill="#2F2E41"/>
<path d="M168.355 125.175V155.545C166.013 156.276 163.596 156.743 161.15 156.936V125.175H168.355Z" fill="#3F3D56"/>
<path d="M177.67 122.695H154.317C150.819 122.695 147.982 125.526 147.982 129.018V129.018C147.982 132.511 150.819 135.342 154.317 135.342H177.67C181.169 135.342 184.005 132.511 184.005 129.018C184.005 125.526 181.169 122.695 177.67 122.695Z" fill="#3F3D56"/>
<path d="M120.864 139.002C119.609 138.243 118.333 137.502 117.036 136.778C116.877 136.691 116.718 136.602 116.559 136.515L117.413 136.15L119.719 135.161L119.741 135.151L119.766 135.235L120.864 139.002Z" fill="#FFB6B6"/>
<path d="M124.434 141.209C124.024 140.949 123.617 140.693 123.207 140.44H123.204C122.544 140.026 121.881 139.618 121.217 139.215C121.1 139.143 120.983 139.074 120.864 139.002C119.61 138.243 118.333 137.502 117.036 136.778C116.877 136.691 116.718 136.602 116.559 136.515C114.048 135.125 111.468 133.864 108.828 132.738C107.094 132.009 105.337 131.352 103.563 130.791H103.561L102.167 128.463L95.8942 117.976L94.5154 115.672C94.5154 115.672 89.8125 117.061 83.157 118.392C80.7348 118.878 78.0567 119.354 75.2469 119.756C72.2433 120.183 69.0932 120.522 65.9629 120.686C64.4699 120.765 62.9817 120.805 61.516 120.793C57.7274 120.768 54.0878 120.413 50.9004 119.57C49.8371 118.573 46.6324 117.217 44.3368 115.974H44.3343C43.3704 115.454 42.5705 114.955 42.1506 114.511C39.7309 111.957 41.7978 109.966 39.6464 107.178C39.6175 106.156 39.6698 105.133 39.8029 104.118C39.8253 103.95 39.8476 103.779 39.875 103.605L40.5532 92.1086L45.5914 91.444L53.2581 90.4323L61.5632 89.3362L62.4774 96.483C62.4774 96.483 68.9441 96.1557 77.1375 96.2648C90.297 96.4434 107.906 97.7527 110.291 103.372C110.514 103.9 110.738 104.433 110.962 104.967C111.493 106.241 112.02 107.522 112.542 108.81C114.432 113.472 116.236 118.179 117.883 122.628C118.907 125.395 119.87 128.064 120.757 130.561C121.47 132.569 122.131 134.469 122.735 136.217C123.286 137.814 123.786 139.285 124.23 140.604C124.3 140.81 124.367 141.013 124.434 141.209Z" fill="#2F2E41"/>
<path d="M78.0873 71.5539L62.1738 58.0634L72.5273 47.6042L79.7505 59.4139L106.525 64.7125C107.33 64.1077 108.294 63.7498 109.3 63.6825C110.305 63.6151 111.308 63.8411 112.187 64.3331C113.066 64.825 113.782 65.5615 114.249 66.4529C114.716 67.3443 114.913 68.3519 114.816 69.353C114.718 70.3541 114.332 71.3054 113.702 72.0909C113.073 72.8763 112.228 73.462 111.271 73.7766C110.314 74.0911 109.286 74.1209 108.312 73.8623C107.339 73.6037 106.461 73.0679 105.787 72.3202L78.0873 71.5539Z" fill="#A0616A"/>
<path d="M48.1099 40.3336C46.2708 46.3057 63.7859 60.5491 63.7859 60.5491C63.9806 59.1154 73.911 71.4786 74.5867 70.3589C76.5068 67.1768 78.6197 59.3108 80.8364 58.3055C82.1041 57.7306 74.8316 49.7393 74.8316 49.7393C74.8316 49.7393 71.1219 44.8402 66.2238 38.6312C64.8716 36.8501 63.09 35.4395 61.0448 34.5307C58.9996 33.6218 56.7573 33.2443 54.5265 33.4331C54.5265 33.4331 49.949 34.3616 48.1099 40.3336Z" fill="#3F3D56"/>
<path d="M55.8549 27.1127C61.7992 27.1127 66.618 22.3026 66.618 16.3691C66.618 10.4356 61.7992 5.62549 55.8549 5.62549C49.9106 5.62549 45.0918 10.4356 45.0918 16.3691C45.0918 22.3026 49.9106 27.1127 55.8549 27.1127Z" fill="#A0616A"/>
<path d="M61.2352 34.2134C63.554 35.5894 64.9411 38.1177 65.7373 40.6904C67.2115 45.4534 68.0988 50.378 68.3798 55.3553L69.2208 70.2564L79.6367 101.985C70.6096 109.609 36.6779 103.718 36.6779 103.718C36.6779 103.718 35.6363 103.371 36.6779 102.332C37.7195 101.292 38.7335 102.213 37.6919 101.173C36.6503 100.134 37.3683 101.292 37.7156 100.252C38.0628 99.2124 37.7156 99.9056 37.3684 99.559C37.0212 99.2124 40.0562 96.0933 40.0562 96.0933L37.2786 77.8808L33.8066 41.1447C37.973 35.9462 46.3521 32.8817 46.3521 32.8817L48.5172 28.9917L59.3425 29.8561L61.2352 34.2134Z" fill="#3F3D56"/>
<path d="M64.7271 10.6611C65.5636 11.2839 66.1834 12.1529 66.4991 13.1458C66.6204 11.5232 66.6281 9.89422 66.5222 8.2706C66.3953 7.12967 65.5906 6.87304 64.6588 6.57567C63.8173 6.30701 62.8657 6.00353 62.6096 4.89595C59.2263 1.61057 53.3367 1.77624 49.306 2.92223C47.0881 3.55285 45.8118 4.36306 45.6977 4.8377L45.674 4.9354L45.5839 4.98035C43.8743 5.83362 43.5415 8.52806 43.5635 10.6381C43.6051 14.6136 44.9803 19.1288 45.755 19.4956C45.796 19.515 45.8063 19.5074 45.8241 19.4926C46.9906 18.5621 48.4137 19.5633 49.0391 20.1076C49.408 17.6368 50.5957 15.3606 52.4126 13.6426C54.2295 11.9246 56.5708 10.8639 59.0624 10.6299C59.8762 10.5514 60.6834 10.4163 61.4783 10.2256C61.8814 10.1214 62.2959 10.0671 62.7124 10.0639C63.4293 10.053 64.1324 10.2614 64.7271 10.6611Z" fill="#2F2E41"/>
<path d="M51.1653 87.7403L47.8728 86.0571C47.6964 85.9317 47.5711 85.747 47.5198 85.537C47.4685 85.3269 47.4946 85.1054 47.5933 84.913C47.6921 84.7205 47.8569 84.57 48.0576 84.4888C48.2584 84.4076 48.4817 84.4012 48.6868 84.4707L51.9792 86.1539C52.1556 86.2794 52.2809 86.464 52.3323 86.674C52.3836 86.8841 52.3575 87.1056 52.2587 87.298C52.16 87.4905 51.9952 87.641 51.7944 87.7222C51.5937 87.8034 51.3704 87.8098 51.1653 87.7403L51.1653 87.7403Z" fill="#6C63FF"/>
<path d="M40.0841 83.231L34.668 63.1042L49.1414 60.3694L48.363 74.1842L67.3798 93.7298C68.3866 93.6887 69.3836 93.9409 70.2492 94.4557C71.1149 94.9704 71.8118 95.7254 72.255 96.6287C72.6982 97.5319 72.8685 98.5444 72.7452 99.5426C72.6219 100.541 72.2103 101.482 71.5606 102.25C70.9108 103.019 70.0511 103.583 69.0861 103.872C68.1211 104.161 67.0926 104.164 66.126 103.88C65.1594 103.596 64.2964 103.038 63.6423 102.273C62.9882 101.508 62.5713 100.569 62.4423 99.5717L40.0841 83.231Z" fill="#A0616A"/>
<path d="M33.1873 40.5379C28.2745 44.4092 34.5801 66.0639 34.5801 66.0639C35.5564 64.9945 36.6908 80.8003 37.8841 80.2621C41.2756 78.7325 47.4917 73.4579 49.8881 73.8879C51.2586 74.1337 49.8228 63.4331 49.8228 63.4331C49.8228 63.4331 49.5587 57.2976 49.0623 49.4102C48.9634 47.1777 48.3003 45.0065 47.1346 43.0986C45.9689 41.1908 44.3386 39.6084 42.3954 38.4986C42.3954 38.4986 38.1001 36.6665 33.1873 40.5379Z" fill="#3F3D56"/>
<path d="M203.466 95.972L6.85106 95.7488C5.74614 93.4105 4.76513 91.0158 3.91211 88.5747L198.8 88.7805C200.676 90.9547 202.246 93.3742 203.466 95.972Z" fill="#3F3D56"/>
<path d="M140.844 148.004C139.827 148.495 138.802 148.968 137.768 149.425C136.049 148.45 134.35 147.431 132.66 146.389L138.926 143.642L140.844 148.004Z" fill="#FFB6B6"/>
<path d="M186.524 113.832C185.505 115.196 184.454 116.532 183.371 117.842C182.373 119.049 181.347 120.234 180.296 121.395C179.861 121.876 179.421 122.355 178.972 122.829C178.144 123.714 177.299 124.584 176.435 125.44C174.88 125.928 171.73 126.789 168.354 127.592C165.897 128.175 163.32 128.728 161.149 129.08C159.933 129.298 158.704 129.429 157.47 129.472C156.004 129.484 154.516 129.445 153.023 129.365C151.338 129.276 149.651 129.137 147.985 128.959C143.649 128.505 139.451 127.798 135.829 127.071C134.502 126.809 133.255 126.541 132.107 126.28C129.933 125.792 128.115 125.336 126.798 124.988C125.315 124.602 124.47 124.351 124.47 124.351L120.756 130.561L118.828 133.782L117.412 136.15L117.035 136.778C116.876 136.691 116.717 136.601 116.558 136.515C114.047 135.125 111.467 133.864 108.826 132.738C107.092 132.009 105.336 131.352 103.562 130.791H103.56C102.881 130.578 102.201 130.377 101.518 130.194C101.731 129.621 101.947 129.044 102.166 128.463C102.573 127.379 102.989 126.285 103.413 125.182C104.33 122.791 105.279 120.366 106.255 117.953C107.055 115.972 107.87 113.998 108.695 112.051C109.075 111.154 109.848 110.365 110.928 109.673C111.445 109.348 111.983 109.06 112.541 108.81C115.634 107.404 120.19 106.489 125.211 105.901C125.626 105.854 126.043 105.807 126.463 105.762C130.619 105.326 135.029 105.1 139.153 104.996C141.217 104.944 143.21 104.924 145.063 104.922C145.662 104.922 146.244 104.923 146.809 104.927H146.812C148.34 104.934 149.746 104.956 150.983 104.981C151.224 104.986 151.458 104.994 151.686 104.999H151.689C151.843 105.001 151.994 105.006 152.143 105.009C154.849 105.078 156.508 105.162 156.508 105.162L157.152 100.123L157.283 99.1065L157.408 98.1394V98.1369L157.423 98.0154L157.524 98.0129L159.313 97.9782L174.348 97.6856L182.561 97.5244L181.26 103.094L179.111 112.284C179.329 113.737 186.598 112.599 186.524 113.832Z" fill="#2F2E41"/>
<path d="M142.696 147.086C142.083 147.399 141.464 147.706 140.843 148.004C139.827 148.495 138.802 148.968 137.768 149.425C136.048 148.45 134.349 147.431 132.66 146.389C129.902 144.688 127.172 142.928 124.434 141.209C124.024 140.949 123.617 140.693 123.207 140.44H123.204C122.077 138.769 120.926 137.028 119.766 135.235C119.749 135.21 119.734 135.186 119.719 135.161C119.421 134.705 119.124 134.245 118.829 133.782C116.974 130.881 115.108 127.855 113.297 124.765L117.883 122.628L126.409 118.655L127.88 117.971L132.108 126.281L135.879 133.693L136.719 135.342L142.696 147.086Z" fill="#2F2E41"/>
<path d="M143.981 107.19L165.719 86.2645L171.745 69.2356L162.857 65.3782C158.293 69.743 153.358 83.3381 153.358 83.3381L138.399 102.335C138.283 102.374 138.166 102.417 138.052 102.467C137.378 102.764 136.792 103.229 136.351 103.818C135.91 104.406 135.628 105.098 135.534 105.827C135.439 106.556 135.534 107.297 135.81 107.979C136.086 108.66 136.533 109.259 137.109 109.717C137.685 110.176 138.369 110.478 139.096 110.595C139.823 110.713 140.568 110.641 141.259 110.387C141.95 110.133 142.563 109.705 143.04 109.145C143.517 108.585 143.841 107.912 143.981 107.19Z" fill="#FFB8B8"/>
<path d="M160.357 67.2796L171.63 70.8518L171.673 70.8447C175.868 70.1432 179.35 63.303 181.532 57.6883C182.249 55.8364 182.236 53.7814 181.494 51.9389C180.752 50.0965 179.337 48.6039 177.535 47.763C176.201 47.1516 174.723 46.9248 173.267 47.1082C171.811 47.2915 170.435 47.8778 169.296 48.8006L163.507 53.522L160.357 67.2796Z" fill="#6C63FF"/>
<path d="M186.48 114.083L186.546 113.995C190.063 109.339 185.252 97.8089 184.525 96.1366L187.795 95.1697L187.225 88.9543L186.951 86.1828L189.493 83.7725L189.502 83.711L191.251 71.289L193.539 63.0674C194.401 59.9593 194.419 56.6781 193.592 53.5606C192.764 50.4432 191.12 47.6017 188.828 45.3281L184.151 40.6925L178.547 31.9372L169.152 31.6951L165.773 37.6861C162.631 38.3261 159.814 40.0461 157.811 42.5465C155.809 45.0469 154.749 48.1691 154.816 51.3693L155.134 67.3185L151.763 87.0795L151.669 90.669L148.36 94.1544L148.971 97.6781L146.496 98.6623L145.285 103.669C144.822 104.247 141.768 108.101 141.74 109.175C141.736 109.336 141.851 109.495 142.103 109.675C144.08 111.087 155.13 114.146 160.103 112.307C165.401 110.35 186.163 114.026 186.372 114.063L186.48 114.083Z" fill="#6C63FF"/>
<path d="M173.029 29.0112C179.904 29.0112 185.477 23.4484 185.477 16.5864C185.477 9.72439 179.904 4.16162 173.029 4.16162C166.155 4.16162 160.582 9.72439 160.582 16.5864C160.582 23.4484 166.155 29.0112 173.029 29.0112Z" fill="#FFB8B8"/>
<path d="M171.509 29.1775C173.437 29.2075 175.364 29.0731 177.268 28.7757C179.156 28.3925 183.38 25.3032 184.557 23.4442C185.432 22.0629 185.991 19.906 186.306 18.3399C186.731 16.2675 186.715 14.1292 186.259 12.0634C185.803 9.99762 184.917 8.05045 183.66 6.34799C183.176 5.63589 182.509 5.06745 181.728 4.70279C181.659 4.67579 181.588 4.65186 181.516 4.6314C180.379 4.33272 179.357 3.70155 178.582 2.81893C178.431 2.64041 178.268 2.47293 178.094 2.31779C177.218 1.57965 176.179 1.05898 175.062 0.798337C173.26 0.316902 170.652 0.794791 167.311 2.2201C165.632 2.93621 163.796 2.67705 162.384 2.37124C162.305 2.35596 162.223 2.36166 162.146 2.38776C162.07 2.41387 162.002 2.45947 161.949 2.52003C161.348 3.08312 160.556 3.39832 159.731 3.40226C159.227 3.42439 158.697 4.1221 158.057 5.03194C157.912 5.23847 157.742 5.47951 157.62 5.62612L157.603 5.34445L157.318 5.65867C156.869 6.15253 156.553 6.75174 156.398 7.4005C156.244 8.04926 156.256 8.72646 156.435 9.36906C156.613 10.0117 156.952 10.5987 157.418 11.0756C157.885 11.5525 158.466 11.9038 159.105 12.0966C159.613 12.2314 160.133 12.3142 160.658 12.3435C160.976 12.3721 161.304 12.4016 161.619 12.4562C162.63 12.6628 163.57 13.1276 164.348 13.8052C165.125 14.4828 165.713 15.3501 166.055 16.3222C166.135 16.547 166.267 16.7502 166.439 16.9162C166.61 17.0821 166.818 17.2065 167.046 17.2796C167.274 17.3527 167.515 17.3726 167.752 17.3378C167.988 17.3029 168.214 17.2143 168.41 17.0787C168.739 16.8236 169.124 16.6515 169.533 16.5772C169.942 16.5028 170.363 16.5283 170.76 16.6515C171.104 16.842 171.371 17.1445 171.517 17.5083C171.695 17.9136 171.99 18.2568 172.364 18.4942C173.643 19.1526 173.731 22.0694 173.272 24.5009C172.829 26.8446 171.953 28.5401 171.143 28.6239C170.519 28.6884 170.447 28.7326 170.402 28.8428L170.362 28.9414L170.432 29.0336C170.776 29.1584 171.144 29.2074 171.509 29.1775Z" fill="#2F2E41"/>
<path d="M163.447 63.5231L158.647 53.9719C151.681 54.4469 137.855 62.487 137.855 62.487L111.695 68.0233C110.92 67.726 110.081 67.6376 109.26 67.7672C108.44 67.8968 107.669 68.2397 107.024 68.7615C106.379 69.2832 105.883 69.9654 105.586 70.7393C105.289 71.5132 105.202 72.3515 105.332 73.1699C105.463 73.9883 105.808 74.7578 106.331 75.4011C106.855 76.0443 107.539 76.5386 108.314 76.8341C109.09 77.1296 109.93 77.2159 110.75 77.0843C111.569 76.9528 112.34 76.608 112.984 76.0847L146.26 73.7038L163.447 63.5231Z" fill="#FFB8B8"/>
<path d="M161.512 65.0915L174.046 55.7935L176.254 47.8514C176.682 46.2906 176.664 44.6416 176.202 43.0905C175.74 41.5395 174.853 40.1483 173.64 39.0743C171.987 37.6293 169.846 36.8649 167.649 36.9357C165.453 37.0064 163.365 37.907 161.809 39.4553C157.092 44.1549 151.712 50.7112 152.868 55.2575L152.879 55.3036L161.512 65.0915Z" fill="#6C63FF"/>
<path d="M145.996 89.9609H112.457V94.4246H145.996V89.9609Z" fill="white"/>
<path d="M60.2865 89.9609H26.748V94.4246H60.2865V89.9609Z" fill="white"/>
<path d="M64.2031 68.4952V89.7482C64.2033 90.0191 64.3112 90.2788 64.5031 90.4703C64.6949 90.6618 64.9551 90.7695 65.2264 90.7697H96.7786C97.0499 90.7695 97.3101 90.6618 97.5019 90.4703C97.6938 90.2788 97.8017 90.0191 97.8019 89.7482V68.4952C97.8012 68.2246 97.6932 67.9653 97.5014 67.774C97.3096 67.5828 97.0497 67.4752 96.7786 67.4749H65.2264C64.9553 67.4752 64.6954 67.5828 64.5036 67.774C64.3118 67.9653 64.2038 68.2246 64.2031 68.4952Z" fill="#3F3D56"/>
<path d="M64.9434 68.7597V89.4861C64.9436 89.6308 65.0013 89.7696 65.1038 89.8719C65.2063 89.9742 65.3453 90.0318 65.4903 90.032H96.5159C96.6609 90.0318 96.7999 89.9742 96.9024 89.8719C97.0049 89.7696 97.0626 89.6308 97.0629 89.4861V68.7597C97.0628 68.6148 97.0053 68.4758 96.9027 68.3733C96.8002 68.2707 96.6611 68.213 96.5159 68.2126H65.4903C65.3451 68.213 65.206 68.2707 65.1035 68.3733C65.001 68.4758 64.9434 68.6148 64.9434 68.7597Z" fill="#6C63FF"/>
<path d="M63.5421 93.8931C63.5999 93.9655 63.6734 94.0238 63.757 94.0638C63.8406 94.1037 63.9322 94.1242 64.0249 94.1237H97.8099C97.9023 94.1236 97.9935 94.1029 98.0769 94.0632C98.1602 94.0235 98.2337 93.9657 98.2919 93.8941C98.3501 93.8225 98.3916 93.7388 98.4133 93.6491C98.4351 93.5595 98.4365 93.4661 98.4176 93.3759L97.8931 90.8893C97.8714 90.7879 97.8246 90.6935 97.757 90.6148C97.6894 90.5361 97.6031 90.4755 97.506 90.4385C97.4357 90.411 97.3609 90.3969 97.2854 90.397H64.5473C64.4718 90.3969 64.397 90.411 64.3267 90.4385C64.2296 90.4755 64.1434 90.5361 64.0758 90.6148C64.0082 90.6935 63.9613 90.7879 63.9396 90.8893L63.4152 93.3759C63.3965 93.4661 63.3982 93.5593 63.4202 93.6488C63.4421 93.7383 63.4838 93.8218 63.5421 93.8931Z" fill="#2F2E41"/>
<path d="M96.1257 91.468H96.9236C96.9906 91.468 97.0449 91.4138 97.0449 91.347V90.9659C97.0449 90.899 96.9906 90.8448 96.9236 90.8448H96.1257C96.0587 90.8448 96.0044 90.899 96.0044 90.9659V91.347C96.0044 91.4138 96.0587 91.468 96.1257 91.468Z" fill="#3F3D56"/>
<path d="M94.0456 91.468H94.8436C94.9105 91.468 94.9648 91.4138 94.9648 91.347V90.9659C94.9648 90.899 94.9105 90.8448 94.8436 90.8448H94.0456C93.9786 90.8448 93.9243 90.899 93.9243 90.9659V91.347C93.9243 91.4138 93.9786 91.468 94.0456 91.468Z" fill="#3F3D56"/>
<path d="M91.9635 91.468H92.7615C92.8285 91.468 92.8828 91.4138 92.8828 91.347V90.9659C92.8828 90.899 92.8285 90.8448 92.7615 90.8448H91.9635C91.8966 90.8448 91.8423 90.899 91.8423 90.9659V91.347C91.8423 91.4138 91.8966 91.468 91.9635 91.468Z" fill="#3F3D56"/>
<path d="M89.8835 91.468H90.6814C90.7484 91.468 90.8027 91.4138 90.8027 91.347V90.9659C90.8027 90.899 90.7484 90.8448 90.6814 90.8448H89.8835C89.8165 90.8448 89.7622 90.899 89.7622 90.9659V91.347C89.7622 91.4138 89.8165 91.468 89.8835 91.468Z" fill="#3F3D56"/>
<path d="M87.8014 91.468H88.5994C88.6664 91.468 88.7207 91.4138 88.7207 91.347V90.9659C88.7207 90.899 88.6664 90.8448 88.5994 90.8448H87.8014C87.7345 90.8448 87.6801 90.899 87.6801 90.9659V91.347C87.6801 91.4138 87.7345 91.468 87.8014 91.468Z" fill="#3F3D56"/>
<path d="M85.7213 91.468H86.5193C86.5863 91.468 86.6406 91.4138 86.6406 91.347V90.9659C86.6406 90.899 86.5863 90.8448 86.5193 90.8448H85.7213C85.6544 90.8448 85.6001 90.899 85.6001 90.9659V91.347C85.6001 91.4138 85.6544 91.468 85.7213 91.468Z" fill="#3F3D56"/>
<path d="M83.6393 91.468H84.4373C84.5043 91.468 84.5586 91.4138 84.5586 91.347V90.9659C84.5586 90.899 84.5043 90.8448 84.4373 90.8448H83.6393C83.5723 90.8448 83.518 90.899 83.518 90.9659V91.347C83.518 91.4138 83.5723 91.468 83.6393 91.468Z" fill="#3F3D56"/>
<path d="M81.5592 91.468H82.3572C82.4242 91.468 82.4785 91.4138 82.4785 91.347V90.9659C82.4785 90.899 82.4242 90.8448 82.3572 90.8448H81.5592C81.4923 90.8448 81.438 90.899 81.438 90.9659V91.347C81.438 91.4138 81.4923 91.468 81.5592 91.468Z" fill="#3F3D56"/>
<path d="M79.4772 91.468H80.2752C80.3422 91.468 80.3965 91.4138 80.3965 91.347V90.9659C80.3965 90.899 80.3422 90.8448 80.2752 90.8448H79.4772C79.4102 90.8448 79.3559 90.899 79.3559 90.9659V91.347C79.3559 91.4138 79.4102 91.468 79.4772 91.468Z" fill="#3F3D56"/>
<path d="M77.3971 91.468H78.1951C78.2621 91.468 78.3164 91.4138 78.3164 91.347V90.9659C78.3164 90.899 78.2621 90.8448 78.1951 90.8448H77.3971C77.3301 90.8448 77.2758 90.899 77.2758 90.9659V91.347C77.2758 91.4138 77.3301 91.468 77.3971 91.468Z" fill="#3F3D56"/>
<path d="M75.3151 91.468H76.1131C76.1801 91.468 76.2344 91.4138 76.2344 91.347V90.9659C76.2344 90.899 76.1801 90.8448 76.1131 90.8448H75.3151C75.2481 90.8448 75.1938 90.899 75.1938 90.9659V91.347C75.1938 91.4138 75.2481 91.468 75.3151 91.468Z" fill="#3F3D56"/>
<path d="M73.235 91.468H74.033C74.1 91.468 74.1543 91.4138 74.1543 91.347V90.9659C74.1543 90.899 74.1 90.8448 74.033 90.8448H73.235C73.168 90.8448 73.1137 90.899 73.1137 90.9659V91.347C73.1137 91.4138 73.168 91.468 73.235 91.468Z" fill="#3F3D56"/>
<path d="M71.153 91.468H71.951C72.018 91.468 72.0723 91.4138 72.0723 91.347V90.9659C72.0723 90.899 72.018 90.8448 71.951 90.8448H71.153C71.086 90.8448 71.0317 90.899 71.0317 90.9659V91.347C71.0317 91.4138 71.086 91.468 71.153 91.468Z" fill="#3F3D56"/>
<path d="M69.071 91.468H69.869C69.9359 91.468 69.9902 91.4138 69.9902 91.347V90.9659C69.9902 90.899 69.9359 90.8448 69.869 90.8448H69.071C69.004 90.8448 68.9497 90.899 68.9497 90.9659V91.347C68.9497 91.4138 69.004 91.468 69.071 91.468Z" fill="#3F3D56"/>
<path d="M66.9909 91.468H67.7889C67.8559 91.468 67.9102 91.4138 67.9102 91.347V90.9659C67.9102 90.899 67.8559 90.8448 67.7889 90.8448H66.9909C66.9239 90.8448 66.8696 90.899 66.8696 90.9659V91.347C66.8696 91.4138 66.9239 91.468 66.9909 91.468Z" fill="#3F3D56"/>
<path d="M64.9089 91.468H65.7068C65.7738 91.468 65.8281 91.4138 65.8281 91.347V90.9659C65.8281 90.899 65.7738 90.8448 65.7068 90.8448H64.9089C64.8419 90.8448 64.7876 90.899 64.7876 90.9659V91.347C64.7876 91.4138 64.8419 91.468 64.9089 91.468Z" fill="#3F3D56"/>
<path d="M96.151 92.5068H96.949C97.016 92.5068 97.0703 92.4526 97.0703 92.3858V92.0047C97.0703 91.9378 97.016 91.8836 96.949 91.8836H96.151C96.084 91.8836 96.0297 91.9378 96.0297 92.0047V92.3858C96.0297 92.4526 96.084 92.5068 96.151 92.5068Z" fill="#3F3D56"/>
<path d="M94.069 92.5068H94.867C94.934 92.5068 94.9883 92.4526 94.9883 92.3858V92.0047C94.9883 91.9378 94.934 91.8836 94.867 91.8836H94.069C94.002 91.8836 93.9477 91.9378 93.9477 92.0047V92.3858C93.9477 92.4526 94.002 92.5068 94.069 92.5068Z" fill="#3F3D56"/>
<path d="M91.9889 92.5068H92.7869C92.8539 92.5068 92.9082 92.4526 92.9082 92.3858V92.0047C92.9082 91.9378 92.8539 91.8836 92.7869 91.8836H91.9889C91.9219 91.8836 91.8676 91.9378 91.8676 92.0047V92.3858C91.8676 92.4526 91.9219 92.5068 91.9889 92.5068Z" fill="#3F3D56"/>
<path d="M89.9069 92.5068H90.7049C90.7719 92.5068 90.8262 92.4526 90.8262 92.3858V92.0047C90.8262 91.9378 90.7719 91.8836 90.7049 91.8836H89.9069C89.8399 91.8836 89.7856 91.9378 89.7856 92.0047V92.3858C89.7856 92.4526 89.8399 92.5068 89.9069 92.5068Z" fill="#3F3D56"/>
<path d="M87.8268 92.5068H88.6248C88.6918 92.5068 88.7461 92.4526 88.7461 92.3858V92.0047C88.7461 91.9378 88.6918 91.8836 88.6248 91.8836H87.8268C87.7598 91.8836 87.7055 91.9378 87.7055 92.0047V92.3858C87.7055 92.4526 87.7598 92.5068 87.8268 92.5068Z" fill="#3F3D56"/>
<path d="M85.7448 92.5068H86.5428C86.6098 92.5068 86.6641 92.4526 86.6641 92.3858V92.0047C86.6641 91.9378 86.6098 91.8836 86.5428 91.8836H85.7448C85.6778 91.8836 85.6235 91.9378 85.6235 92.0047V92.3858C85.6235 92.4526 85.6778 92.5068 85.7448 92.5068Z" fill="#3F3D56"/>
<path d="M83.6647 92.5068H84.4627C84.5297 92.5068 84.584 92.4526 84.584 92.3858V92.0047C84.584 91.9378 84.5297 91.8836 84.4627 91.8836H83.6647C83.5977 91.8836 83.5434 91.9378 83.5434 92.0047V92.3858C83.5434 92.4526 83.5977 92.5068 83.6647 92.5068Z" fill="#3F3D56"/>
<path d="M81.5827 92.5068H82.3807C82.4477 92.5068 82.502 92.4526 82.502 92.3858V92.0047C82.502 91.9378 82.4477 91.8836 82.3807 91.8836H81.5827C81.5157 91.8836 81.4614 91.9378 81.4614 92.0047V92.3858C81.4614 92.4526 81.5157 92.5068 81.5827 92.5068Z" fill="#3F3D56"/>
<path d="M79.5026 92.5068H80.3006C80.3676 92.5068 80.4219 92.4526 80.4219 92.3858V92.0047C80.4219 91.9378 80.3676 91.8836 80.3006 91.8836H79.5026C79.4356 91.8836 79.3813 91.9378 79.3813 92.0047V92.3858C79.3813 92.4526 79.4356 92.5068 79.5026 92.5068Z" fill="#3F3D56"/>
<path d="M77.4206 92.5068H78.2186C78.2855 92.5068 78.3398 92.4526 78.3398 92.3858V92.0047C78.3398 91.9378 78.2855 91.8836 78.2186 91.8836H77.4206C77.3536 91.8836 77.2993 91.9378 77.2993 92.0047V92.3858C77.2993 92.4526 77.3536 92.5068 77.4206 92.5068Z" fill="#3F3D56"/>
<path d="M75.3405 92.5068H76.1385C76.2055 92.5068 76.2598 92.4526 76.2598 92.3858V92.0047C76.2598 91.9378 76.2055 91.8836 76.1385 91.8836H75.3405C75.2735 91.8836 75.2192 91.9378 75.2192 92.0047V92.3858C75.2192 92.4526 75.2735 92.5068 75.3405 92.5068Z" fill="#3F3D56"/>
<path d="M73.2585 92.5068H74.0565C74.1234 92.5068 74.1777 92.4526 74.1777 92.3858V92.0047C74.1777 91.9378 74.1234 91.8836 74.0565 91.8836H73.2585C73.1915 91.8836 73.1372 91.9378 73.1372 92.0047V92.3858C73.1372 92.4526 73.1915 92.5068 73.2585 92.5068Z" fill="#3F3D56"/>
<path d="M71.1784 92.5068H71.9764C72.0434 92.5068 72.0977 92.4526 72.0977 92.3858V92.0047C72.0977 91.9378 72.0434 91.8836 71.9764 91.8836H71.1784C71.1114 91.8836 71.0571 91.9378 71.0571 92.0047V92.3858C71.0571 92.4526 71.1114 92.5068 71.1784 92.5068Z" fill="#3F3D56"/>
<path d="M69.0964 92.5068H69.8943C69.9613 92.5068 70.0156 92.4526 70.0156 92.3858V92.0047C70.0156 91.9378 69.9613 91.8836 69.8943 91.8836H69.0964C69.0294 91.8836 68.9751 91.9378 68.9751 92.0047V92.3858C68.9751 92.4526 69.0294 92.5068 69.0964 92.5068Z" fill="#3F3D56"/>
<path d="M67.0163 92.5068H67.8143C67.8812 92.5068 67.9355 92.4526 67.9355 92.3858V92.0047C67.9355 91.9378 67.8812 91.8836 67.8143 91.8836H67.0163C66.9493 91.8836 66.895 91.9378 66.895 92.0047V92.3858C66.895 92.4526 66.9493 92.5068 67.0163 92.5068Z" fill="#3F3D56"/>
<path d="M64.9342 92.5068H65.7322C65.7992 92.5068 65.8535 92.4526 65.8535 92.3858V92.0047C65.8535 91.9378 65.7992 91.8836 65.7322 91.8836H64.9342C64.8673 91.8836 64.813 91.9378 64.813 92.0047V92.3858C64.813 92.4526 64.8673 92.5068 64.9342 92.5068Z" fill="#3F3D56"/>
<path d="M78.8769 93.7532H86.9588C87.0258 93.7532 87.0801 93.699 87.0801 93.6321V93.251C87.0801 93.1842 87.0258 93.13 86.9588 93.13H78.8769C78.8099 93.13 78.7556 93.1842 78.7556 93.251V93.6321C78.7556 93.699 78.8099 93.7532 78.8769 93.7532Z" fill="#3F3D56"/>
</g>
<defs>
<clipPath id="clip0_677_1041">
<rect width="207" height="157" fill="white"/>
</clipPath>
</defs>
</svg>
