<svg width="250" height="167" viewBox="0 0 250 167" fill="none" xmlns="http://www.w3.org/2000/svg">
<g clip-path="url(#clip0_677_985)">
<path d="M118.81 85.0217H107.836L108.68 76.0176H117.403L118.81 85.0217Z" fill="#A0616A"/>
<path opacity="0.1" d="M118.81 85.0217H107.836L108.68 76.0176H117.403L118.81 85.0217Z" fill="black"/>
<path d="M36.7562 51.2669C41.7194 51.2669 45.7429 47.2435 45.7429 42.2804C45.7429 37.3173 41.7194 33.2939 36.7562 33.2939C31.793 33.2939 27.7695 37.3173 27.7695 42.2804C27.7695 47.2435 31.793 51.2669 36.7562 51.2669Z" fill="#FF6884"/>
<path d="M77.2731 159.626C77.3241 160.056 77.3386 160.456 77.3095 160.849H55.6955C55.4989 160.456 55.3315 160.048 55.1859 159.626C52.5433 152.033 56.8894 139.396 51.3785 120.658C47.2872 106.753 39.6506 95.8774 36.0907 90.8107C31.7155 84.5792 26.7578 78.8282 21.014 69.6412C19.7691 67.6538 18.4879 65.499 17.1629 63.1476C16.7189 62.3614 11.6011 53.2399 12.067 52.956C12.2854 52.8249 13.6394 54.6667 14.0981 55.2855C18.1457 60.7599 20.4971 63.1549 23.8677 67.0932C25.9134 69.481 28.3303 72.4293 31.7227 76.9792C40.4222 88.6341 44.7683 94.4579 46.2826 98.8184C46.683 99.9832 48.816 106.287 52.8345 114.106C54.8874 118.095 55.9139 120.09 56.4744 119.93C58.0615 119.471 55.9212 102.953 49.1945 86.4428C48.0443 83.6329 47.1853 81.8347 45.5546 78.4351C42.9047 72.8879 28.1483 42.0582 17.3012 23.604C15.9399 21.2818 14.6368 19.1633 13.4356 17.307C13.2027 16.9576 12.977 16.6154 12.7586 16.2879C11.2444 14.0311 9.90488 12.2476 8.79103 11.0974C8.20136 10.4859 6.7017 8.75329 3.69509 5.27359C2.50117 3.89042 1.62758 2.864 1.03791 2.11416C0.950549 2.00499 0.870481 1.89578 0.804988 1.80114C0.0915267 0.869352 -0.112289 0.417969 0.0551351 0.177769C0.295385 -0.164402 1.2199 0.0321636 2.23182 0.388866C2.34104 0.425256 2.4575 0.468932 2.56671 0.512608C3.66599 0.920273 4.77979 1.45172 5.15107 1.63372C8.55807 3.27166 11.885 6.20538 14.9644 9.69241C16.1073 10.9809 17.2066 12.3422 18.2695 13.74C21.691 18.2534 24.6758 23.1672 26.9326 27.2075C29.6989 32.1868 31.3587 35.8486 31.3587 35.8486C39.0827 52.905 47.6512 72.4147 48.1025 72.2473C48.5976 72.0653 39.0973 47.7801 36.3309 34.5891C35.4064 30.1704 35.239 26.9964 36.4547 26.3849C36.4984 26.363 36.542 26.3412 36.593 26.3266C36.7823 26.2611 36.957 26.2684 37.0516 26.2757C37.0516 26.2757 38.18 26.1301 39.3666 26.3849C40.8445 26.7052 42.5261 30.8182 44.1641 36.5911C48.4229 51.4709 52.4705 77.3432 52.4705 77.3432C56.5181 103.223 62.6624 124.167 64.1183 123.934C64.9264 123.803 63.7689 117.302 64.8463 106.462C65.6034 98.8621 66.4625 99.0951 69.2143 85.3509C73.5822 63.548 75.7662 52.6502 75.7662 52.592C75.7443 52.1334 75.6861 51.2088 75.8245 50.2479C75.9701 49.2069 76.3413 48.1149 77.2222 47.4962C78.5617 46.5498 80.7165 46.9575 81.5901 47.4962C82.289 47.9329 82.6457 48.7337 82.7258 49.8839C83.2063 57.12 72.8106 78.1002 69.2143 106.462C67.4234 120.592 66.4406 128.301 69.2143 138.493C71.9588 148.597 76.7417 155.033 77.2731 159.626H77.2731Z" fill="#F2F2F2"/>
<path d="M172.727 159.626C172.676 160.056 172.661 160.456 172.69 160.849H194.304C194.501 160.456 194.668 160.048 194.814 159.626C197.456 152.033 193.11 139.396 198.621 120.658C202.713 106.753 210.349 95.8774 213.909 90.8107C218.284 84.5792 223.242 78.8282 228.986 69.6412C230.231 67.6538 231.512 65.499 232.837 63.1476C233.281 62.3614 238.399 53.2399 237.933 52.956C237.714 52.825 236.36 54.6667 235.902 55.2855C231.854 60.7599 229.503 63.1549 226.132 67.0932C224.086 69.481 221.669 72.4293 218.277 76.9792C209.577 88.6341 205.231 94.4579 203.717 98.8184C203.317 99.9832 201.184 106.287 197.165 114.106C195.112 118.095 194.086 120.09 193.525 119.93C191.938 119.471 194.079 102.953 200.805 86.4428C201.955 83.6329 202.814 81.8347 204.445 78.4351C207.095 72.8879 221.851 42.0582 232.698 23.604C234.06 21.2818 235.363 19.1633 236.564 17.307C236.797 16.9576 237.023 16.6154 237.241 16.2879C238.755 14.0311 240.095 12.2476 241.209 11.0974C241.798 10.4859 243.298 8.75329 246.305 5.2736C247.499 3.89042 248.372 2.864 248.962 2.11416C249.049 2.00499 249.129 1.89578 249.195 1.80114C249.908 0.869354 250.112 0.417968 249.945 0.177768C249.704 -0.164403 248.78 0.0321657 247.768 0.388865C247.659 0.425256 247.542 0.468931 247.433 0.512607C246.334 0.920272 245.22 1.45172 244.849 1.63372C241.442 3.27166 238.115 6.20538 235.035 9.69241C233.892 10.9809 232.793 12.3422 231.73 13.74C228.309 18.2534 225.324 23.1672 223.067 27.2075C220.301 32.1868 218.641 35.8486 218.641 35.8486C210.917 52.905 202.349 72.4147 201.897 72.2473C201.402 72.0653 210.902 47.7801 213.669 34.5891C214.593 30.1704 214.761 26.9964 213.545 26.3849C213.501 26.363 213.458 26.3412 213.407 26.3266C213.217 26.2611 213.043 26.2684 212.948 26.2757C212.948 26.2757 211.82 26.1301 210.633 26.3849C209.155 26.7052 207.474 30.8182 205.836 36.5911C201.577 51.4709 197.529 77.3431 197.529 77.3431C193.482 103.223 187.337 124.167 185.881 123.934C185.073 123.803 186.231 117.302 185.153 106.462C184.396 98.8621 183.537 99.0951 180.785 85.3509C176.417 63.548 174.234 52.6502 174.234 52.592C174.255 52.1334 174.314 51.2088 174.175 50.2479C174.03 49.2069 173.658 48.1149 172.778 47.4962C171.438 46.5498 169.283 46.9575 168.41 47.4962C167.711 47.9329 167.354 48.7337 167.274 49.8839C166.793 57.12 177.189 78.1002 180.785 106.462C182.576 120.592 183.559 128.301 180.785 138.493C178.041 148.597 173.258 155.033 172.727 159.626L172.727 159.626Z" fill="#F2F2F2"/>
<path d="M200.946 160.467C200.946 160.597 200.84 160.703 200.709 160.703H36.8867V160.23H200.709C200.84 160.23 200.946 160.336 200.946 160.467Z" fill="#E6E6E6"/>
<path d="M103.062 150.448L104.907 158.724L110.681 157.922L109.077 149.421L103.062 150.448Z" fill="#A0616A"/>
<path d="M134.019 150.448L132.175 158.724L126.4 157.922L128.004 149.421L134.019 150.448Z" fill="#A0616A"/>
<path d="M144.94 131.435L134.548 99.7803C132.223 92.6987 125.612 87.9114 118.159 87.9114H118.159C109.868 87.9114 102.75 93.8093 101.21 101.955L95.4621 132.347C94.6391 136.699 97.8832 140.731 102.261 140.912V161.691H103.865V140.92H137.548V161.691H139.152V140.838C143.485 140.196 146.36 135.76 144.94 131.435Z" fill="#CCCCCC"/>
<path d="M123.432 109.885L103.864 110.526C103.864 110.526 96.4858 123.678 109.478 125.443C122.47 127.207 133.857 125.282 134.339 119.668C134.82 114.055 130.81 109.724 123.432 109.885Z" fill="#2F2E41"/>
<path d="M107.554 111.328C107.554 111.328 100.176 112.13 99.5346 114.215C98.8931 116.3 98.5723 125.442 98.5723 125.442L101.459 151.907L109.639 150.944L107.875 125.603L117.338 123.518L107.554 111.328V111.328Z" fill="#2F2E41"/>
<path d="M105.949 154.954C105.949 154.954 103.521 153.35 102.891 154.072C102.26 154.794 98.8915 158.323 98.8915 158.323L92.957 162.011C92.957 162.011 87.8244 166.823 95.0421 166.663C102.26 166.502 105.949 164.33 105.949 164.33C105.949 164.33 112.846 164.257 112.685 162.332C112.525 160.408 110.198 155.363 110.198 155.363L105.949 154.954Z" fill="#2F2E41"/>
<path d="M129.528 111.328C129.528 111.328 136.906 112.13 137.548 114.215C138.189 116.3 138.51 125.442 138.51 125.442L135.623 151.907L127.443 150.944L129.207 125.603L119.744 123.518L129.528 111.328V111.328Z" fill="#2F2E41"/>
<path d="M131.132 154.954C131.132 154.954 133.559 153.35 134.19 154.072C134.821 154.794 138.189 158.323 138.189 158.323L144.124 162.011C144.124 162.011 149.256 166.823 142.039 166.663C134.821 166.502 131.132 164.33 131.132 164.33C131.132 164.33 124.235 164.257 124.395 162.332C124.556 160.408 126.883 155.363 126.883 155.363L131.132 154.954H131.132Z" fill="#2F2E41"/>
<path d="M117.659 80.373H108.348L101.299 83.5808L102.903 104.752C102.903 104.752 100.904 111.189 103.347 111.579C105.79 111.97 119.263 114.376 122.952 112.291C126.641 110.206 129.849 110.847 129.849 110.847L125.518 82.7789L117.659 80.373H117.659Z" fill="#3F3D56"/>
<path d="M113.247 79.4908C118.031 79.4908 121.908 75.6131 121.908 70.8298C121.908 66.0464 118.031 62.1687 113.247 62.1687C108.464 62.1687 104.586 66.0464 104.586 70.8298C104.586 75.6131 108.464 79.4908 113.247 79.4908Z" fill="#A0616A"/>
<path d="M104.337 72.2475L105.834 74.198L107.893 71.311C107.893 71.311 108.064 73.8773 113.726 72.9149C119.389 71.9526 120.761 71.6318 120.761 71.6318L121.447 74.5188C121.447 74.5188 122.134 72.5941 122.134 71.311C122.134 70.0279 126.252 66.9805 121.962 64.4143C117.673 61.848 119.903 59.4422 114.584 59.6026C109.265 59.763 106.005 59.6026 105.491 61.5272C104.976 63.4519 103.775 65.8578 103.946 67.9428C104.118 70.0279 104.337 72.2475 104.337 72.2475Z" fill="#2F2E41"/>
<path d="M120.722 110.219C118.637 110.911 116.589 110.397 116.149 109.07C115.708 107.743 117.041 106.106 119.127 105.413C119.957 105.125 120.843 105.04 121.712 105.165L130.584 102.342L131.82 106.533L122.943 108.871C122.321 109.491 121.559 109.953 120.722 110.219Z" fill="#A0616A"/>
<path d="M80.0712 100.844C78.0747 99.927 76.9298 98.1532 77.5138 96.8827C78.0979 95.6123 80.1896 95.3264 82.1867 96.2444C82.9894 96.6002 83.6954 97.143 84.2453 97.8275L92.6555 101.822L90.6971 105.728L82.6141 101.376C81.7361 101.404 80.8642 101.222 80.0712 100.844H80.0712Z" fill="#A0616A"/>
<path d="M101.27 83.5356C101.27 83.5356 104.607 84.8975 104.503 88.5324C104.4 92.1672 101.849 97.2468 101.849 97.2468C101.849 97.2468 101.671 108.714 98.5353 109.955C95.4 111.197 85.7109 103.242 85.7109 103.242L87.9489 98.9671L92.1313 98.4846L101.27 83.5356Z" fill="#3F3D56"/>
<path d="M123.111 83.4203C123.111 83.4203 126.48 82.1372 128.885 84.8638C131.291 87.5904 132.895 93.0437 132.895 93.0437C132.895 93.0437 140.594 101.544 139.151 104.592C137.707 107.639 125.196 108.441 125.196 108.441L123.913 103.79L126.64 100.582L123.111 83.4203Z" fill="#3F3D56"/>
<path d="M131.829 115.097H104.451C102.92 115.097 101.674 113.852 101.674 112.32V96.3825C101.674 94.8511 102.92 93.6052 104.451 93.6052H131.829C133.36 93.6052 134.606 94.8511 134.606 96.3825V112.32C134.606 113.852 133.36 115.097 131.829 115.097Z" fill="#6C63FF"/>
<path d="M59.6322 109.209C58.9539 108.853 57.8852 110.34 57.3069 109.994C56.7308 109.649 57.5914 108.053 57.2672 105.817C57.2088 105.414 56.8404 102.873 55.8163 102.65C53.8752 102.227 51.286 110.504 48.359 110.121C47.7166 110.038 46.9897 109.528 44.9996 109.199C44.2078 109.068 43.7714 109.058 43.5162 109.319C43.1541 109.69 43.4732 110.283 43.7084 111.692C44.0611 113.806 43.5912 113.954 44.0208 115.549C44.3396 116.733 44.766 117.272 44.4856 117.602C44.0887 118.067 42.9786 117.288 42.4089 117.77C41.8277 118.262 42.2015 119.736 42.6492 120.736C43.4892 122.614 44.8326 123.366 45.9282 124.353C47.1187 125.425 48.5734 127.275 49.4233 130.639L55.8868 160.773C54.6972 154.506 51.7349 137.14 50.9067 130.519C50.6676 128.607 50.4862 126.631 51.6609 125.083C52.7918 123.592 55.0433 122.678 57.2578 120.449C57.5165 120.189 58.2271 119.455 58.0277 118.894C57.8628 118.43 57.226 118.507 57.0656 118.076C56.8505 117.498 57.8215 116.891 58.6534 115.558C59.2401 114.619 59.4593 113.796 59.6479 113.089C59.7047 112.876 60.5351 109.682 59.6322 109.209L59.6322 109.209Z" fill="#F2F2F2"/>
<path d="M33.1273 143.505C32.7569 143.735 33.1786 144.689 32.8419 144.873C32.5065 145.056 31.9712 144.173 30.7802 143.687C30.5655 143.599 29.212 143.047 28.8071 143.485C28.0396 144.316 31.3549 147.975 30.3227 149.301C30.0962 149.592 29.6362 149.802 28.9007 150.684C28.6081 151.034 28.4771 151.246 28.5316 151.446C28.6091 151.731 28.9925 151.746 29.7519 152.037C30.8908 152.473 30.8283 152.747 31.7349 152.996C32.4079 153.181 32.7958 153.128 32.8765 153.36C32.9906 153.689 32.2875 154.009 32.3598 154.428C32.4336 154.855 33.265 155.097 33.8852 155.166C35.049 155.295 35.8059 154.853 36.6062 154.6C37.476 154.325 38.8037 154.145 40.7001 154.698L57.3555 160.221C53.9359 158.996 44.5579 155.44 41.0691 153.936C40.062 153.502 39.0396 153.02 38.6187 151.997C38.2134 151.012 38.4145 149.643 37.9593 147.913C37.9061 147.711 37.751 147.151 37.418 147.087C37.1428 147.034 36.9967 147.368 36.739 147.323C36.3933 147.262 36.3755 146.61 35.9615 145.817C35.6697 145.258 35.3292 144.913 35.0365 144.617C34.9482 144.527 33.6203 143.198 33.1273 143.505L33.1273 143.505H33.1273Z" fill="#F2F2F2"/>
<path d="M41.5566 140.603L40.1024 138.744L40.1113 138.53C40.1528 137.538 39.9726 136.706 39.5756 136.056C39.5125 135.952 39.4441 135.852 39.3745 135.75C39.0986 135.345 38.7554 134.843 38.6534 134.073C38.5974 133.643 38.5424 132.602 39.241 132.304C39.4279 132.223 39.6068 132.221 39.7627 132.253C39.7629 132.221 39.7636 132.189 39.764 132.154C39.7759 131.727 39.8533 131.5 39.9279 131.281C39.9852 131.113 40.0445 130.939 40.0884 130.588C40.1078 130.433 40.1165 130.303 40.1241 130.193C40.1474 129.861 40.194 129.453 40.5778 129.223C40.9965 128.992 41.4169 129.197 41.6954 129.333C42.1923 129.574 42.483 129.79 42.6757 129.934C42.746 129.986 42.8254 130.045 42.8562 130.059C43.1062 130.171 44.0608 129.334 44.4219 129.021C45.2311 128.315 45.9313 127.704 46.6034 128.074C47.0845 128.339 47.245 128.982 47.0913 130.039C47.0433 130.368 46.9516 130.652 46.8596 130.887C47.0541 130.884 47.2615 130.936 47.4391 131.108C47.8588 131.517 47.7417 132.259 47.0926 133.313C46.9319 133.576 46.7146 133.928 46.3205 134.276C46.1347 134.44 45.9531 134.564 45.796 134.667C45.8497 134.762 45.8898 134.875 45.897 135.013C45.9188 135.419 45.6637 135.775 45.1237 136.06C44.5345 136.382 43.9974 136.563 43.524 136.723C43.111 136.863 42.7557 136.985 42.5209 137.152C42.0894 137.469 41.9635 138.048 41.8434 138.772L41.5566 140.603L41.5566 140.603V140.603Z" fill="#F2F2F2"/>
<path d="M35.2694 128.076L33.8403 129.954L33.6307 130C32.6613 130.211 31.9022 130.596 31.3736 131.145C31.2895 131.233 31.2099 131.324 31.1288 131.417C30.8075 131.787 30.4081 132.247 29.6893 132.54C29.2878 132.704 28.2948 133.021 27.8298 132.421C27.7031 132.261 27.6566 132.088 27.6477 131.929C27.6166 131.937 27.5852 131.945 27.5513 131.953C27.1359 132.05 26.8964 132.032 26.6657 132.016C26.4884 132.003 26.3055 131.99 25.9541 132.036C25.8 132.057 25.6716 132.081 25.5636 132.102C25.2362 132.164 24.8299 132.222 24.5102 131.909C24.1801 131.563 24.2719 131.104 24.3324 130.8C24.4403 130.258 24.5754 129.922 24.6651 129.7C24.6981 129.618 24.7348 129.527 24.7408 129.493C24.7857 129.223 23.7338 128.512 23.3395 128.242C22.4511 127.638 21.6823 127.116 21.8704 126.372C22.0045 125.84 22.5862 125.521 23.6471 125.402C23.9774 125.365 24.2754 125.382 24.526 125.411C24.4739 125.224 24.4713 125.01 24.5933 124.794C24.8825 124.284 25.6293 124.21 26.814 124.57C27.1088 124.659 27.5045 124.78 27.9411 125.073C28.1466 125.211 28.3125 125.355 28.4524 125.481C28.5304 125.405 28.6301 125.337 28.7617 125.295C29.1485 125.171 29.5582 125.328 29.9708 125.778C30.4316 126.266 30.7427 126.74 31.0176 127.157C31.258 127.521 31.4659 127.834 31.6873 128.018C32.1029 128.355 32.695 128.33 33.4264 128.263L35.2695 128.076L35.2694 128.076L35.2694 128.076Z" fill="#F2F2F2"/>
<path d="M30.6055 122.834L29.1513 120.975L29.1602 120.761C29.2017 119.769 29.0214 118.937 28.6244 118.287C28.5613 118.183 28.4929 118.083 28.4233 117.981C28.1474 117.576 27.8042 117.074 27.7022 116.304C27.6462 115.874 27.5912 114.833 28.2898 114.535C28.4768 114.453 28.6556 114.452 28.8115 114.484C28.8117 114.452 28.8124 114.42 28.8128 114.385C28.8248 113.958 28.9022 113.731 28.9768 113.512C29.034 113.344 29.0933 113.17 29.1373 112.819C29.1566 112.664 29.1654 112.534 29.1729 112.424C29.1962 112.092 29.2428 111.684 29.6266 111.454C30.0453 111.223 30.4657 111.428 30.7442 111.564C31.2411 111.805 31.5318 112.021 31.7246 112.164C31.7948 112.217 31.8743 112.276 31.905 112.29C32.155 112.402 33.1096 111.565 33.4708 111.252C34.2799 110.546 34.9801 109.935 35.6522 110.305C36.1334 110.57 36.2938 111.213 36.1401 112.27C36.0921 112.599 36.0004 112.883 35.9084 113.118C36.1029 113.115 36.3104 113.167 36.4879 113.339C36.9077 113.748 36.7905 114.49 36.1415 115.544C35.9808 115.807 35.7635 116.159 35.3693 116.507C35.1836 116.671 35.0019 116.794 34.8448 116.898C34.8985 116.993 34.9386 117.106 34.9458 117.244C34.9676 117.65 34.7126 118.006 34.1725 118.291C33.5834 118.613 33.0462 118.794 32.5729 118.954C32.1598 119.094 31.8045 119.216 31.5698 119.383C31.1383 119.7 31.0123 120.279 30.8922 121.003L30.6055 122.834L30.6055 122.834L30.6055 122.834Z" fill="#F2F2F2"/>
<path d="M56.5346 160.329L55.9546 160.324L55.5557 159.904L55.9546 160.324L55.5012 160.681C55.4656 160.64 55.3749 160.553 55.2345 160.414C54.4659 159.656 52.1259 157.35 48.9336 153.414C46.7053 150.666 44.5936 147.731 42.6558 144.688C40.7151 141.641 39.4258 139.223 38.3891 137.28C37.6075 135.814 36.8862 134.404 36.1844 133.03C34.3083 129.361 32.5357 125.894 30.0853 122.358C29.5386 121.568 28.4 119.924 26.2924 118.728C25.0699 118.034 23.7025 117.592 22.2285 117.415L22.3671 116.262C23.9948 116.459 25.5083 116.95 26.8658 117.72C29.2026 119.047 30.4433 120.837 31.0394 121.698C33.5331 125.297 35.3224 128.797 37.2163 132.502C37.9161 133.871 38.6338 135.275 39.4124 136.734C40.4393 138.659 41.7176 141.056 43.6335 144.064C45.5477 147.071 47.6339 149.97 49.8337 152.683C52.986 156.57 55.2914 158.842 56.0488 159.588C56.4529 159.987 56.5376 160.07 56.5346 160.329L56.5346 160.329Z" fill="#F2F2F2"/>
<path d="M21.3845 120.099C21.344 120.124 21.3024 120.148 21.2592 120.171C20.3906 120.644 19.302 120.62 18.0234 120.102C17.423 119.857 16.9431 119.452 15.986 118.644C15.8382 118.52 15.0991 117.882 14.2748 116.885C13.7359 116.234 13.5649 115.929 13.5439 115.578C13.5199 115.189 13.6475 114.828 13.8479 114.514C13.7771 114.428 13.7273 114.324 13.707 114.2C13.6215 113.684 14.1021 113.463 14.3602 113.339C14.4921 113.279 14.6574 113.205 14.8169 113.095C15.0685 112.923 15.1603 112.76 15.3001 112.514C15.4337 112.279 15.5999 111.986 15.9256 111.68C16.5657 111.074 17.3096 110.903 17.5547 110.846C18.8417 110.544 19.8796 111.05 21.0813 111.635C21.3216 111.753 22.1711 112.198 23.0393 112.991C23.6657 113.562 23.8279 113.888 23.9095 114.154C24.0786 114.701 23.9582 115.147 23.597 116.192C23.2208 117.285 23.0316 117.832 22.8208 118.224C22.3293 119.135 22.0207 119.707 21.3844 120.099L21.3845 120.099H21.3845Z" fill="#F2F2F2"/>
<path d="M66.2447 99.0013L73.8231 97.2394L74.3663 98.8138L78.0325 97.8235L80.4506 97.1701L82.7992 92.6078L81.1329 87.7782L76.1709 87.7317L74.6537 88.03L70.4214 88.8625C70.063 89.4552 70.2587 90.2265 70.8563 90.5765L71.0524 90.6914L65.0978 91.7224C65.0978 91.7224 63.1958 95.1073 66.2447 99.0012V99.0013Z" fill="#3F3D56"/>
<path d="M74.6543 88.03L78.0332 97.8235L80.4512 97.1701L82.7998 92.6078L81.1335 87.7782L76.1716 87.7317L74.6543 88.03Z" fill="#2F2E41"/>
<path d="M73.3723 88.4383C73.8939 88.3228 74.27 88.0178 74.2122 87.757C74.1545 87.4962 73.6848 87.3784 73.1632 87.4938C72.6416 87.6093 72.2656 87.9143 72.3233 88.1751C72.381 88.4359 72.8507 88.5537 73.3723 88.4383Z" fill="#3F3D56"/>
<path d="M192.311 161.385L188.675 153.699L188.653 153.715V143.725H185.382V153.715L185.36 153.699L181.724 161.603C181.616 161.792 181.682 162.033 181.871 162.141C182.032 162.232 182.234 162.2 182.358 162.063L186.078 157.711L186.68 161.674C186.704 161.891 186.899 162.047 187.116 162.023C187.299 162.002 187.444 161.857 187.464 161.674L188.06 157.755L191.677 161.845C191.823 162.006 192.073 162.018 192.234 161.872C192.371 161.747 192.403 161.545 192.311 161.385Z" fill="#2F2E41"/>
<path d="M166.333 132.519C165.754 136.351 174.134 143.086 186.489 144.953C198.844 146.821 210.897 144.124 211.476 140.292C212.055 136.46 202.451 132.547 190.096 130.68C177.741 128.812 166.912 128.688 166.333 132.519Z" fill="#6C63FF"/>
<path opacity="0.3" d="M166.333 132.519C165.754 136.351 174.134 143.086 186.489 144.953C198.844 146.821 210.897 144.124 211.476 140.292C212.055 136.46 202.451 132.547 190.096 130.68C177.741 128.812 166.912 128.688 166.333 132.519Z" fill="black"/>
<path d="M166.821 131.959C166.344 135.114 174.521 140.53 186.876 142.398C199.231 144.265 211.126 142.931 211.603 139.775C212.08 136.619 202.452 132.548 190.097 130.68C177.742 128.813 167.298 128.803 166.821 131.959H166.821Z" fill="#6C63FF"/>
<path d="M194.796 85.0475H148.636C146.777 85.0475 145.266 83.5356 145.266 81.6775V46.7733C145.266 44.9152 146.777 43.4033 148.636 43.4033H194.796C196.654 43.4033 198.166 44.9152 198.166 46.7733V81.6775C198.166 83.5356 196.654 85.0475 194.796 85.0475Z" fill="white"/>
<path d="M194.796 85.0475H148.636C146.777 85.0475 145.266 83.5356 145.266 81.6775V46.7733C145.266 44.9152 146.777 43.4033 148.636 43.4033H194.796C196.654 43.4033 198.166 44.9152 198.166 46.7733V81.6775C198.166 83.5356 196.654 85.0475 194.796 85.0475ZM148.636 43.9661C147.088 43.9661 145.828 45.2254 145.828 46.7733V81.6775C145.828 83.2254 147.088 84.4847 148.636 84.4847H194.796C196.344 84.4847 197.603 83.2254 197.603 81.6775V46.7733C197.603 45.2254 196.344 43.9661 194.796 43.9661H148.636Z" fill="#3F3D56"/>
<path d="M189.725 47.6241C190.191 47.6241 190.569 47.2461 190.569 46.7799C190.569 46.3137 190.191 45.9358 189.725 45.9358C189.259 45.9358 188.881 46.3137 188.881 46.7799C188.881 47.2461 189.259 47.6241 189.725 47.6241Z" fill="#3F3D56"/>
<path d="M191.975 47.6241C192.441 47.6241 192.819 47.2461 192.819 46.7799C192.819 46.3137 192.441 45.9358 191.975 45.9358C191.509 45.9358 191.131 46.3137 191.131 46.7799C191.131 47.2461 191.509 47.6241 191.975 47.6241Z" fill="#3F3D56"/>
<path d="M194.227 47.6241C194.693 47.6241 195.071 47.2461 195.071 46.7799C195.071 46.3137 194.693 45.9358 194.227 45.9358C193.761 45.9358 193.383 46.3137 193.383 46.7799C193.383 47.2461 193.761 47.6241 194.227 47.6241Z" fill="#3F3D56"/>
<path d="M150.049 60.4268C149.816 60.4268 149.627 60.6161 149.627 60.8488C149.627 60.9623 149.671 61.0673 149.75 61.1448C149.831 61.2269 149.936 61.2709 150.049 61.2709H193.664C193.897 61.2709 194.086 61.0816 194.086 60.8488C194.086 60.7353 194.042 60.6304 193.962 60.5529C193.882 60.4707 193.777 60.4268 193.664 60.4268H150.049Z" fill="#E6E6E6"/>
<path d="M185.785 60.2861V61.4117H150.049C149.894 61.4117 149.754 61.3497 149.652 61.2456C149.548 61.1443 149.486 61.0036 149.486 60.8489C149.486 60.5394 149.74 60.2861 150.049 60.2861H185.785Z" fill="#6C63FF"/>
<path d="M192.96 58.1758H187.333C186.712 58.1758 186.207 57.6711 186.207 57.0503C186.207 56.4296 186.712 55.9248 187.333 55.9248H192.96C193.581 55.9248 194.086 56.4296 194.086 57.0503C194.086 57.6711 193.581 58.1758 192.96 58.1758Z" fill="#E6E6E6"/>
<path d="M156.099 52.2667H150.471C149.851 52.2667 149.346 51.7619 149.346 51.1411C149.346 50.5204 149.851 50.0156 150.471 50.0156H156.099C156.72 50.0156 157.224 50.5204 157.224 51.1411C157.224 51.7619 156.72 52.2667 156.099 52.2667Z" fill="#E6E6E6"/>
<path d="M150.049 73.0889C149.816 73.0889 149.627 73.2782 149.627 73.5109C149.627 73.6244 149.671 73.7294 149.75 73.8069C149.831 73.889 149.936 73.933 150.049 73.933H193.664C193.897 73.933 194.086 73.7437 194.086 73.5109C194.086 73.3975 194.042 73.2925 193.962 73.215C193.882 73.1328 193.777 73.0889 193.664 73.0889H150.049Z" fill="#E6E6E6"/>
<path d="M164.118 72.9482V74.0738H150.049C149.894 74.0738 149.754 74.0118 149.652 73.9077C149.548 73.8064 149.486 73.6658 149.486 73.511C149.486 73.2015 149.74 72.9482 150.049 72.9482H164.118Z" fill="#6C63FF"/>
<path d="M192.96 70.8377H187.333C186.712 70.8377 186.207 70.3329 186.207 69.7122C186.207 69.0915 186.712 68.5867 187.333 68.5867H192.96C193.581 68.5867 194.086 69.0915 194.086 69.7122C194.086 70.3329 193.581 70.8377 192.96 70.8377Z" fill="#E6E6E6"/>
</g>
<defs>
<clipPath id="clip0_677_985">
<rect width="250" height="166.667" fill="white"/>
</clipPath>
</defs>
</svg>
