<svg width="26" height="24" viewBox="0 0 26 24" fill="none" xmlns="http://www.w3.org/2000/svg">
<path d="M25.8093 12.0013C25.8092 11.7328 25.7316 11.47 25.5857 11.2446C25.4398 11.0192 25.2318 10.8407 24.9869 10.7307L2.35652 0.527987L2.35324 0.524704C2.09115 0.408224 1.79949 0.375489 1.5181 0.43097C1.2367 0.486452 0.979293 0.627445 0.781024 0.834693C0.582755 1.04194 0.453295 1.30534 0.410323 1.58891C0.367352 1.87249 0.412965 2.16241 0.540933 2.41909L0.552424 2.44125L3.78084 10.4819C3.85737 10.6252 3.97015 10.7459 4.10791 10.8319C4.24566 10.918 4.40358 10.9664 4.5659 10.9723L22.0357 11.5889C22.0896 11.5889 22.143 11.5995 22.1928 11.6202C22.2426 11.6408 22.2878 11.671 22.3259 11.7091C22.364 11.7472 22.3943 11.7925 22.4149 11.8422C22.4355 11.892 22.4461 11.9454 22.4461 11.9993C22.4461 12.0532 22.4355 12.1066 22.4149 12.1563C22.3943 12.2061 22.364 12.2514 22.3259 12.2895C22.2878 12.3276 22.2426 12.3578 22.1928 12.3784C22.143 12.3991 22.0896 12.4097 22.0357 12.4097L4.56957 13.0222C4.40725 13.0282 4.24933 13.0766 4.11157 13.1627C3.97381 13.2487 3.86103 13.3694 3.78449 13.5127L0.55338 21.5576C0.547635 21.5682 0.542709 21.5781 0.537785 21.5888C0.288671 22.1005 0.352683 22.7013 0.736391 23.1211C0.754037 23.1388 0.760193 23.1449 0.777429 23.1622C0.979095 23.3662 1.23747 23.5048 1.51895 23.5599C1.80044 23.6151 2.09202 23.5843 2.35578 23.4716L24.9811 13.2719C25.2271 13.1627 25.4363 12.9847 25.5832 12.7592C25.7302 12.5337 25.8087 12.2705 25.8093 12.0013Z" fill="white"/>
</svg>
