<svg width="46" height="32" viewBox="0 0 46 32" fill="none" xmlns="http://www.w3.org/2000/svg">
<path d="M20.8542 23.6748C20.8542 24.684 21.5361 25.5612 22.4896 25.7991H10.0634H9.06345V26.7991V30.2123C9.06345 30.2914 9.05579 30.3544 9.04569 30.4009H4.80362C4.80125 30.3462 4.80009 30.2838 4.80009 30.2123V24.8634V21.36H41.2745V30.2123C41.2745 30.2848 41.2723 30.3474 41.2684 30.4009H37.0242C37.0169 30.3508 37.012 30.288 37.012 30.2123V26.7991V25.7991H36.012H23.5302C24.4843 25.5612 25.1652 24.6836 25.1652 23.6748C25.1652 22.4947 24.2283 21.487 23.0097 21.487C21.7938 21.487 20.8533 22.4938 20.8542 23.6748ZM20.8542 23.6748H21.8542L20.8542 23.6762C20.8542 23.6757 20.8542 23.6752 20.8542 23.6748ZM20.8542 14.7618C20.8542 15.9442 21.7925 16.9504 23.0097 16.9504C24.2283 16.9504 25.1652 15.9437 25.1652 14.7618C25.1652 13.5803 24.2278 12.5741 23.0097 12.5741C21.7948 12.5741 20.8533 13.578 20.8542 14.7618ZM20.8542 14.7618H21.8542L20.8542 14.7632C20.8542 14.7627 20.8542 14.7623 20.8542 14.7618ZM4.80009 4.71907V3.71907H3.80009H3.24165C2.55056 3.71907 1.92969 3.03977 1.92969 2.42C1.92969 1.79971 2.55106 1.12 3.24165 1.12H42.7777C43.469 1.12 44.0897 1.79945 44.0897 2.42C44.0897 3.04003 43.4695 3.71907 42.7777 3.71907H42.2754H41.2754V4.71907V8.31908H4.80009V4.71907ZM20.8542 5.84976C20.8542 7.03072 21.792 8.0384 23.0097 8.0384C24.2288 8.0384 25.1652 7.03019 25.1652 5.84976C25.1652 4.66932 24.2288 3.66112 23.0097 3.66112C21.792 3.66112 20.8542 4.6688 20.8542 5.84976ZM41.2754 17.5182H4.80009V12.16H41.2754V17.5182Z" stroke="#385AD4" stroke-width="2"/>
</svg>
