<svg width="30" height="38" viewBox="0 0 30 38" fill="none" xmlns="http://www.w3.org/2000/svg">
<path d="M3.2526 33.6666V34.4166H4.0026H26.0026H26.7526V33.6666V4.33329V3.58329H26.0026H4.0026H3.2526V4.33329V33.6666ZM10.1639 26.4446L9.63361 26.975L10.1639 27.5053C10.7874 28.1288 11.522 28.611 12.3599 28.9528C13.1997 29.2958 14.0826 29.4666 15.0026 29.4666C16.8562 29.4666 18.4665 28.7884 19.7954 27.4595C21.1244 26.1305 21.8026 24.5203 21.8026 22.6666C21.8026 21.7465 21.6317 20.863 21.2887 20.0221L21.2886 20.0217C20.9468 19.185 20.4645 18.4512 19.8413 17.828L19.3109 17.2976L18.7806 17.828L10.1639 26.4446ZM4.0026 36.5833C3.19457 36.5833 2.52205 36.3046 1.94427 35.7268C1.365 35.1475 1.08594 34.4743 1.08594 33.6666V4.33329C1.08594 3.52564 1.365 2.85239 1.94427 2.27312C2.52205 1.69534 3.19457 1.41663 4.0026 1.41663H26.0026C26.8105 1.41663 27.4837 1.69524 28.0628 2.27312C28.6407 2.85219 28.9193 3.52544 28.9193 4.33329V33.6666C28.9193 34.4747 28.6405 35.1481 28.0623 35.7272C27.4834 36.3048 26.8102 36.5833 26.0026 36.5833H4.0026ZM20.9586 28.6226C19.3117 30.2683 17.3405 31.0833 15.0026 31.0833C12.6646 31.0833 10.6941 30.2683 9.04843 28.6226C7.40143 26.9756 6.58594 25.0045 6.58594 22.6666C6.58594 20.3288 7.40143 18.3576 9.04843 16.7106C10.6941 15.065 12.6646 14.25 15.0026 14.25C17.3405 14.25 19.3117 15.0649 20.9586 16.7106C22.6043 18.3575 23.4193 20.3287 23.4193 22.6666C23.4193 25.0046 22.6043 26.9757 20.9586 28.6226ZM8.44611 8.77679C8.24181 8.97997 7.99976 9.08329 7.66927 9.08329C7.33878 9.08329 7.09673 8.97997 6.89244 8.77679C6.68926 8.5725 6.58594 8.33045 6.58594 7.99996C6.58594 7.66947 6.68926 7.42742 6.89244 7.22312C7.09673 7.01995 7.33878 6.91663 7.66927 6.91663C7.99976 6.91663 8.24181 7.01995 8.44611 7.22312C8.64928 7.42742 8.7526 7.66947 8.7526 7.99996C8.7526 8.33045 8.64928 8.5725 8.44611 8.77679ZM13.9461 8.7768C13.7418 8.97997 13.4998 9.08329 13.1693 9.08329C12.8383 9.08329 12.5972 8.97971 12.3943 8.7768C12.1896 8.57212 12.0859 8.33013 12.0859 7.99996C12.0859 7.66979 12.1896 7.4278 12.3943 7.22312C12.5972 7.02021 12.8383 6.91663 13.1693 6.91663C13.4998 6.91663 13.7418 7.01995 13.9461 7.22312C14.1493 7.42742 14.2526 7.66947 14.2526 7.99996C14.2526 8.33045 14.1493 8.5725 13.9461 8.7768Z" stroke="#385AD4" stroke-width="1.5"/>
</svg>
