<svg width="39" height="34" viewBox="0 0 39 34" fill="none" xmlns="http://www.w3.org/2000/svg">
<path d="M1 27.7091L9.0241 33H31.0904L38 27.7091M1 27.7091V22.8783L3.00602 21.9582M1 27.7091C1.837 27.5629 2.65334 27.4252 3.45181 27.296M38 27.7091V23.5684C37.5316 22.167 36.9368 21.8471 35.3253 21.9582M38 27.7091C37.0499 27.5536 36.1654 27.408 35.3253 27.2723M3.00602 21.9582L3.45181 27.296M3.00602 21.9582C3.00758 13.223 4.84543 9.16388 11.0301 5.16541L11.0375 5.39545M3.45181 27.296C5.97861 26.887 8.32651 26.5629 10.5843 26.3256M11.253 12.0666C10.8657 12.6702 10.7554 13.0663 10.8072 13.9069L10.5843 26.3256M11.253 12.0666C12.3202 10.2321 13.2718 9.0172 14.3735 8.23879M11.253 12.0666L11.0375 5.39545M10.5843 26.3256C16.4671 25.7073 21.7384 25.6784 27.9699 26.2734M27.9699 26.2734C27.8993 21.2037 28.1147 18.1725 27.498 13.4468M27.9699 26.2734C30.4305 26.5083 32.6537 26.8406 35.3253 27.2723M27.498 13.4468C27.4401 13.0027 27.3748 12.5437 27.3012 12.0666C26.3588 10.4374 25.4857 9.32114 24.4036 8.55162M27.498 13.4468V4.93535M24.4036 2.86504C24.5457 2.05907 25.5181 1.71484 25.741 1.71484C25.9639 1.71484 27.1536 2.07232 27.498 2.86504V4.93535M24.4036 2.86504V8.55162M24.4036 2.86504H21.7289M24.4036 8.55162C23.6462 8.01298 22.7864 7.64421 21.7289 7.38828M21.7289 2.86504V7.38828M21.7289 2.86504C21.4256 1.21052 20.8086 0.922105 19.2771 1.02473C17.9347 0.898575 17.362 1.21723 16.8253 2.86504V7.21573M21.7289 7.38828C21.0123 7.21486 20.205 7.09325 19.2771 7.00572C18.3519 7.00994 17.5464 7.07187 16.8253 7.21573M16.8253 7.21573C15.8919 7.40196 15.1 7.72547 14.3735 8.23879M16.6024 2.86504C15.6491 2.65337 15.1464 2.71505 14.3735 3.55514M14.3735 3.55514V8.23879M14.3735 3.55514C13.947 2.47633 13.5233 2.18521 12.5904 1.94488C11.464 2.48213 11.2184 2.85215 11.0301 3.55514L11.0375 5.39545M35.3253 21.9582V27.2723M35.3253 21.9582V16.2072C34.0544 11.1048 32.9597 8.39317 27.498 4.93535M13.0361 17.1274V24.2585" stroke="#385AD4" stroke-width="2"/>
</svg>
