<svg width="30" height="43" viewBox="0 0 30 43" fill="none" xmlns="http://www.w3.org/2000/svg">
<path d="M13.2018 22.5512L13.8638 22.1993L2.68459 1.1722L2.68457 1.17216C2.682 1.16732 2.6804 1.16202 2.67988 1.15657C2.67935 1.15112 2.67991 1.14561 2.68151 1.14037C2.68475 1.12978 2.69206 1.12092 2.70183 1.11573C2.7116 1.11053 2.72303 1.10943 2.73362 1.11266C2.73886 1.11427 2.74373 1.11689 2.74796 1.12037L3.38404 0.348746L2.74796 1.12037C2.75219 1.12386 2.75569 1.12814 2.75826 1.13298C2.75826 1.13298 2.75826 1.13298 2.75826 1.13298L13.9385 22.1601L14.4081 23.0433L15.2912 22.5734L16.8763 21.7298C16.8764 21.7297 16.8765 21.7297 16.8766 21.7296C17.2438 21.5345 17.6457 21.4136 18.0596 21.3738C18.4736 21.334 18.8914 21.3761 19.2891 21.4978C19.6868 21.6194 20.0567 21.8182 20.3776 22.0829C20.6984 22.3475 20.964 22.6727 21.1592 23.04L21.1593 23.0402L21.8343 24.31L21.8603 24.359L21.8916 24.4048L28.4174 33.955L21.2031 37.7901L18.5106 32.4683L18.0591 31.5758L17.1667 32.0275L15.3083 32.9682L14.4164 33.4196L14.8676 34.3117L17.5972 39.7081L15.5468 40.7979L11.2768 30.0465L11.2565 29.9952L11.2306 29.9465L10.5566 28.6777L10.5564 28.6773C10.3612 28.3101 10.2401 27.9081 10.2003 27.4941C10.1604 27.0801 10.2024 26.6624 10.324 26.2646C10.4456 25.8669 10.6444 25.4971 10.9089 25.1762C11.1734 24.8553 11.4986 24.5897 11.8658 24.3944C11.8658 24.3944 11.8658 24.3944 11.8658 24.3944L13.4512 23.5517L13.2018 22.5512ZM21.7593 24.3466L21.0846 23.0795C20.8945 22.722 20.6359 22.4053 20.3234 22.1478C20.0109 21.8902 19.6508 21.6967 19.2636 21.5783L18.9712 22.5346L19.2636 21.5783C18.8763 21.4599 18.4695 21.4189 18.0665 21.4578C17.6634 21.4966 17.272 21.6144 16.9145 21.8045C16.9145 21.8045 16.9144 21.8045 16.9144 21.8045L11.9041 24.468L11.9041 24.468C11.5465 24.6581 11.2299 24.9168 10.9723 25.2292L11.7439 25.8653L10.9723 25.2292C10.7148 25.5417 10.5212 25.9018 10.4028 26.2891C10.2845 26.6763 10.2435 27.0831 10.2823 27.4862L11.2777 27.3903L10.2823 27.4862C10.3212 27.8892 10.439 28.2807 10.6291 28.6382L11.3029 29.9066L11.7722 30.7901L12.6555 30.3204L21.3461 25.6996L22.2296 25.2298L21.7593 24.3466Z" stroke="#385AD4" stroke-width="2"/>
<path d="M8.50573 32.8333C8.32902 32.6211 8.07525 32.4877 7.80022 32.4625C7.52518 32.4373 7.2514 32.5223 7.03906 32.6989H7.04114L7.02969 32.7073L6.96406 32.7573C6.87085 32.8273 6.77567 32.8947 6.67865 32.9594C6.42031 33.1312 6.0349 33.3656 5.53906 33.601C4.26458 34.2136 2.86976 34.5349 1.45573 34.5417C1.17946 34.5417 0.91451 34.6514 0.71916 34.8468C0.523809 35.0421 0.414062 35.3071 0.414062 35.5833C0.414062 35.8596 0.523809 36.1245 0.71916 36.3199C0.91451 36.5152 1.17946 36.625 1.45573 36.625C3.17969 36.6183 4.88055 36.228 6.4349 35.4823C6.91974 35.2527 7.3876 34.9888 7.8349 34.6927C8.00236 34.5807 8.16567 34.4625 8.32448 34.3385L8.35573 34.3146L8.36615 34.3062L8.36927 34.3021H8.37135L8.3724 34.3C8.5845 34.1231 8.71769 33.8693 8.74269 33.5943C8.7677 33.3192 8.68246 33.0455 8.50573 32.8333ZM10.6557 38.1302C10.7317 38.244 10.7844 38.3717 10.811 38.5059C10.8376 38.6401 10.8375 38.7782 10.8107 38.9124C10.7839 39.0465 10.731 39.1741 10.6549 39.2878C10.5788 39.4015 10.481 39.4991 10.3672 39.575L10.3651 39.5771L10.3609 39.5792L10.3505 39.5854L10.3182 39.6062C10.1379 39.721 9.95484 39.8314 9.76927 39.9375C9.40365 40.1469 8.88385 40.425 8.25885 40.7021C7.02969 41.249 5.31094 41.8333 3.53906 41.8333C3.2628 41.8333 2.99784 41.7236 2.80249 41.5282C2.60714 41.3329 2.4974 41.0679 2.4974 40.7917C2.4974 40.5154 2.60714 40.2504 2.80249 40.0551C2.99784 39.8597 3.2628 39.75 3.53906 39.75C4.89115 39.75 6.29948 39.2927 7.41302 38.7979C7.99316 38.5391 8.55611 38.2433 9.09844 37.9125C9.12882 37.8946 9.15869 37.8758 9.18802 37.8562L9.20885 37.8437L9.21094 37.8417C9.32474 37.7657 9.4524 37.7129 9.5866 37.6864C9.72081 37.6598 9.85894 37.6599 9.9931 37.6866C10.1273 37.7134 10.2548 37.7664 10.3685 37.8425C10.4822 37.9186 10.5798 38.0164 10.6557 38.1302Z" fill="#385AD4"/>
</svg>
