<svg width="43" height="43" viewBox="0 0 43 43" fill="none" xmlns="http://www.w3.org/2000/svg">
<mask id="path-1-inside-1_806_8546" fill="white">
<path d="M2.42969 7.80006C2.04015 7.80006 1.66657 7.95494 1.39112 8.23061C1.11568 8.50629 0.960938 8.88019 0.960938 9.27006V21.0301C0.960938 22.1997 1.42517 23.3214 2.2515 24.1484C3.07783 24.9754 4.19858 25.4401 5.36719 25.4401H15.1589C16.3275 25.4401 17.4482 24.9754 18.2745 24.1484C19.1009 23.3214 19.5651 22.1997 19.5651 21.0301V9.27006C19.5651 8.88019 19.4104 8.50629 19.1349 8.23061C18.8595 7.95494 18.4859 7.80006 18.0964 7.80006H17.6068V5.84006C17.6067 4.97994 17.3805 4.13498 16.9508 3.3901C16.5211 2.64523 15.9031 2.02668 15.1588 1.59663C14.4145 1.16658 13.5703 0.94018 12.7109 0.940186C11.8515 0.940191 11.0073 1.1666 10.263 1.59666C9.51877 1.1666 8.67452 0.940191 7.81514 0.940186C6.95575 0.94018 6.1115 1.16658 5.36724 1.59663C4.62298 2.02668 4.00494 2.64523 3.57523 3.3901C3.14553 4.13498 2.91929 4.97994 2.91927 5.84006V7.7981H2.42969V7.80006ZM12.7109 7.80006V5.84006C12.7109 5.15798 12.5719 4.50726 12.3193 3.91926C12.6038 3.86113 12.8977 3.86707 13.1797 3.93665C13.4617 4.00623 13.7247 4.13772 13.9497 4.32158C14.1746 4.50544 14.3559 4.73708 14.4803 4.99971C14.6048 5.26234 14.6693 5.54939 14.6693 5.84006V7.80006H12.7109ZM9.77344 5.84006V7.80006H5.85677V5.84006C5.85677 5.32024 6.06309 4.8217 6.43035 4.45413C6.79761 4.08656 7.29572 3.88006 7.8151 3.88006C8.33449 3.88006 8.8326 4.08656 9.19985 4.45413C9.56711 4.8217 9.77344 5.32024 9.77344 5.84006ZM2.91927 32.7901V26.9101C3.67323 27.2256 4.49965 27.4001 5.36719 27.4001H5.85677V32.7901C5.85674 33.1535 5.99121 33.504 6.23424 33.7741C6.47727 34.0441 6.81163 34.2144 7.17277 34.2522C7.57939 33.1069 8.33055 32.1158 9.32294 31.4151C10.3153 30.7145 11.5002 30.3388 12.7147 30.3396C13.9291 30.3405 15.1135 30.7179 16.1049 31.4199C17.0963 32.122 17.8461 33.1142 18.2511 34.2601H22.8375C23.2428 33.1136 23.9931 32.1211 24.9853 31.4191C25.9774 30.7171 27.1626 30.3401 28.3776 30.3401V9.27006C28.3776 8.88019 28.2229 8.50629 27.9474 8.23061C27.672 7.95494 27.2984 7.80006 26.9089 7.80006H21.1944C20.8547 7.08522 20.2793 6.50934 19.5651 6.16934V5.84006C19.5651 5.50686 19.5416 5.17954 19.4966 4.86006H26.9089C28.0775 4.86006 29.1982 5.32469 30.0245 6.15172C30.8509 6.97876 31.3151 8.10046 31.3151 9.27006V10.7401H34.3505C36.0543 10.7401 37.6053 11.722 38.3338 13.2626L41.6629 20.2931C41.941 20.8831 42.0859 21.5279 42.0859 22.1806V32.7901C42.0859 33.3692 41.972 33.9427 41.7505 34.4777C41.5291 35.0127 41.2045 35.4989 40.7954 35.9084C40.3862 36.3179 39.9005 36.6427 39.3659 36.8644C38.8313 37.086 38.2583 37.2001 37.6797 37.2001H34.1723C33.9432 38.5726 33.2352 39.8193 32.1742 40.7185C31.1132 41.6178 29.7679 42.1113 28.3776 42.1113C26.9873 42.1113 25.642 41.6178 24.581 40.7185C23.52 39.8193 22.812 38.5726 22.5829 37.2001H18.5076C18.2787 38.5747 17.5694 39.8232 16.5062 40.7231C15.443 41.623 14.095 42.1157 12.7026 42.1133C11.3102 42.111 9.96393 41.6137 8.90378 40.7103C7.84364 39.8068 7.13856 38.5558 6.91427 37.1805C5.82171 37.078 4.80667 36.5711 4.06779 35.7591C3.32891 34.9471 2.91936 33.8884 2.91927 32.7901ZM33.9197 34.2601H37.6797C38.0692 34.2601 38.4428 34.1052 38.7183 33.8295C38.9937 33.5538 39.1484 33.1799 39.1484 32.7901V32.3001H36.7005C36.311 32.3001 35.9374 32.1452 35.662 31.8695C35.3865 31.5938 35.2318 31.2199 35.2318 30.8301C35.2318 30.4402 35.3865 30.0663 35.662 29.7906C35.9374 29.5149 36.311 29.3601 36.7005 29.3601H39.1484V23.4801H31.3151V31.126C32.5278 31.8278 33.4511 32.9388 33.9197 34.2601ZM31.3151 13.6801V20.5401H38.5276L35.6822 14.5209C35.5629 14.2687 35.3743 14.0557 35.1384 13.9068C34.9026 13.7579 34.6293 13.6793 34.3505 13.6801H31.3151ZM12.7109 39.1601C13.49 39.1601 14.2372 38.8503 14.7881 38.299C15.339 37.7476 15.6484 36.9998 15.6484 36.2201C15.6484 35.4403 15.339 34.6925 14.7881 34.1412C14.2372 33.5898 13.49 33.2801 12.7109 33.2801C11.9319 33.2801 11.1847 33.5898 10.6338 34.1412C10.0829 34.6925 9.77344 35.4403 9.77344 36.2201C9.77344 36.9998 10.0829 37.7476 10.6338 38.299C11.1847 38.8503 11.9319 39.1601 12.7109 39.1601ZM31.3151 36.2201C31.3151 35.4403 31.0056 34.6925 30.4547 34.1412C29.9038 33.5898 29.1567 33.2801 28.3776 33.2801C27.5985 33.2801 26.8514 33.5898 26.3005 34.1412C25.7496 34.6925 25.4401 35.4403 25.4401 36.2201C25.4401 36.9998 25.7496 37.7476 26.3005 38.299C26.8514 38.8503 27.5985 39.1601 28.3776 39.1601C29.1567 39.1601 29.9038 38.8503 30.4547 38.299C31.0056 37.7476 31.3151 36.9998 31.3151 36.2201ZM5.85677 5.84006C5.85677 5.56174 5.91552 5.29714 6.01931 5.05606L5.85677 5.84006Z"/>
</mask>
<path d="M2.42969 7.80006C2.04015 7.80006 1.66657 7.95494 1.39112 8.23061C1.11568 8.50629 0.960938 8.88019 0.960938 9.27006V21.0301C0.960938 22.1997 1.42517 23.3214 2.2515 24.1484C3.07783 24.9754 4.19858 25.4401 5.36719 25.4401H15.1589C16.3275 25.4401 17.4482 24.9754 18.2745 24.1484C19.1009 23.3214 19.5651 22.1997 19.5651 21.0301V9.27006C19.5651 8.88019 19.4104 8.50629 19.1349 8.23061C18.8595 7.95494 18.4859 7.80006 18.0964 7.80006H17.6068V5.84006C17.6067 4.97994 17.3805 4.13498 16.9508 3.3901C16.5211 2.64523 15.9031 2.02668 15.1588 1.59663C14.4145 1.16658 13.5703 0.94018 12.7109 0.940186C11.8515 0.940191 11.0073 1.1666 10.263 1.59666C9.51877 1.1666 8.67452 0.940191 7.81514 0.940186C6.95575 0.94018 6.1115 1.16658 5.36724 1.59663C4.62298 2.02668 4.00494 2.64523 3.57523 3.3901C3.14553 4.13498 2.91929 4.97994 2.91927 5.84006V7.7981H2.42969V7.80006ZM12.7109 7.80006V5.84006C12.7109 5.15798 12.5719 4.50726 12.3193 3.91926C12.6038 3.86113 12.8977 3.86707 13.1797 3.93665C13.4617 4.00623 13.7247 4.13772 13.9497 4.32158C14.1746 4.50544 14.3559 4.73708 14.4803 4.99971C14.6048 5.26234 14.6693 5.54939 14.6693 5.84006V7.80006H12.7109ZM9.77344 5.84006V7.80006H5.85677V5.84006C5.85677 5.32024 6.06309 4.8217 6.43035 4.45413C6.79761 4.08656 7.29572 3.88006 7.8151 3.88006C8.33449 3.88006 8.8326 4.08656 9.19985 4.45413C9.56711 4.8217 9.77344 5.32024 9.77344 5.84006ZM2.91927 32.7901V26.9101C3.67323 27.2256 4.49965 27.4001 5.36719 27.4001H5.85677V32.7901C5.85674 33.1535 5.99121 33.504 6.23424 33.7741C6.47727 34.0441 6.81163 34.2144 7.17277 34.2522C7.57939 33.1069 8.33055 32.1158 9.32294 31.4151C10.3153 30.7145 11.5002 30.3388 12.7147 30.3396C13.9291 30.3405 15.1135 30.7179 16.1049 31.4199C17.0963 32.122 17.8461 33.1142 18.2511 34.2601H22.8375C23.2428 33.1136 23.9931 32.1211 24.9853 31.4191C25.9774 30.7171 27.1626 30.3401 28.3776 30.3401V9.27006C28.3776 8.88019 28.2229 8.50629 27.9474 8.23061C27.672 7.95494 27.2984 7.80006 26.9089 7.80006H21.1944C20.8547 7.08522 20.2793 6.50934 19.5651 6.16934V5.84006C19.5651 5.50686 19.5416 5.17954 19.4966 4.86006H26.9089C28.0775 4.86006 29.1982 5.32469 30.0245 6.15172C30.8509 6.97876 31.3151 8.10046 31.3151 9.27006V10.7401H34.3505C36.0543 10.7401 37.6053 11.722 38.3338 13.2626L41.6629 20.2931C41.941 20.8831 42.0859 21.5279 42.0859 22.1806V32.7901C42.0859 33.3692 41.972 33.9427 41.7505 34.4777C41.5291 35.0127 41.2045 35.4989 40.7954 35.9084C40.3862 36.3179 39.9005 36.6427 39.3659 36.8644C38.8313 37.086 38.2583 37.2001 37.6797 37.2001H34.1723C33.9432 38.5726 33.2352 39.8193 32.1742 40.7185C31.1132 41.6178 29.7679 42.1113 28.3776 42.1113C26.9873 42.1113 25.642 41.6178 24.581 40.7185C23.52 39.8193 22.812 38.5726 22.5829 37.2001H18.5076C18.2787 38.5747 17.5694 39.8232 16.5062 40.7231C15.443 41.623 14.095 42.1157 12.7026 42.1133C11.3102 42.111 9.96393 41.6137 8.90378 40.7103C7.84364 39.8068 7.13856 38.5558 6.91427 37.1805C5.82171 37.078 4.80667 36.5711 4.06779 35.7591C3.32891 34.9471 2.91936 33.8884 2.91927 32.7901ZM33.9197 34.2601H37.6797C38.0692 34.2601 38.4428 34.1052 38.7183 33.8295C38.9937 33.5538 39.1484 33.1799 39.1484 32.7901V32.3001H36.7005C36.311 32.3001 35.9374 32.1452 35.662 31.8695C35.3865 31.5938 35.2318 31.2199 35.2318 30.8301C35.2318 30.4402 35.3865 30.0663 35.662 29.7906C35.9374 29.5149 36.311 29.3601 36.7005 29.3601H39.1484V23.4801H31.3151V31.126C32.5278 31.8278 33.4511 32.9388 33.9197 34.2601ZM31.3151 13.6801V20.5401H38.5276L35.6822 14.5209C35.5629 14.2687 35.3743 14.0557 35.1384 13.9068C34.9026 13.7579 34.6293 13.6793 34.3505 13.6801H31.3151ZM12.7109 39.1601C13.49 39.1601 14.2372 38.8503 14.7881 38.299C15.339 37.7476 15.6484 36.9998 15.6484 36.2201C15.6484 35.4403 15.339 34.6925 14.7881 34.1412C14.2372 33.5898 13.49 33.2801 12.7109 33.2801C11.9319 33.2801 11.1847 33.5898 10.6338 34.1412C10.0829 34.6925 9.77344 35.4403 9.77344 36.2201C9.77344 36.9998 10.0829 37.7476 10.6338 38.299C11.1847 38.8503 11.9319 39.1601 12.7109 39.1601ZM31.3151 36.2201C31.3151 35.4403 31.0056 34.6925 30.4547 34.1412C29.9038 33.5898 29.1567 33.2801 28.3776 33.2801C27.5985 33.2801 26.8514 33.5898 26.3005 34.1412C25.7496 34.6925 25.4401 35.4403 25.4401 36.2201C25.4401 36.9998 25.7496 37.7476 26.3005 38.299C26.8514 38.8503 27.5985 39.1601 28.3776 39.1601C29.1567 39.1601 29.9038 38.8503 30.4547 38.299C31.0056 37.7476 31.3151 36.9998 31.3151 36.2201ZM5.85677 5.84006C5.85677 5.56174 5.91552 5.29714 6.01931 5.05606L5.85677 5.84006Z" stroke="#385AD4" stroke-width="3" mask="url(#path-1-inside-1_806_8546)"/>
</svg>
