<svg width="40" height="43" viewBox="0 0 40 43" fill="none" xmlns="http://www.w3.org/2000/svg">
<path d="M38.6292 31.8573H33.9413L29.592 28.68C29.1687 28.3726 28.576 28.4617 28.2685 28.885C27.9611 29.3084 28.0502 29.901 28.4735 30.2085L30.7194 31.8573H29.2221C28.9013 31.8573 28.6517 32.1514 28.7097 32.4678L30.0911 40.4978C30.1357 40.7474 30.3495 40.9301 30.6036 40.9301H33.9234H37.2879C37.5419 40.9301 37.7602 40.7474 37.8003 40.4934L39.1372 32.4633C39.1951 32.147 38.95 31.8573 38.6292 31.8573ZM33.8922 34.6647C33.4912 34.7271 33.1169 34.4508 33.0545 34.0498C33.0322 33.8938 33.0589 33.7423 33.1258 33.6086C33.2283 33.4036 33.4288 33.2476 33.6739 33.212C33.9458 33.1719 34.2087 33.2833 34.3646 33.4883C34.4403 33.5863 34.4938 33.7022 34.5117 33.8314C34.5696 34.228 34.2978 34.6023 33.8922 34.6647Z" fill="#385AD4"/>
<path d="M15.1315 7.84722C15.2086 8.21026 15.3362 8.62316 15.5521 9.00559C15.2359 9.09544 14.8976 9.16059 14.5906 9.16059C14.3265 9.16059 14.1343 9.11123 14.0039 9.03419C13.9564 9.00615 13.9084 8.96961 13.8629 8.91811C14.4 8.51804 15.1 7.7482 15.1 6.46149C15.1 6.34217 15.0983 6.21201 15.0966 6.07296C15.0853 5.19533 15.0694 3.96369 15.4415 2.87094C15.6501 2.25854 15.9666 1.74184 16.4368 1.37586C16.9003 1.01512 17.578 0.75 18.6057 0.75C19.6333 0.75 20.3111 1.01512 20.7745 1.37586C21.2447 1.74184 21.5613 2.25854 21.7698 2.87094C22.142 3.9637 22.1261 5.19533 22.1148 6.07296C22.113 6.21201 22.1114 6.34217 22.1114 6.46149C22.1114 7.74902 22.8123 8.51902 23.3495 8.91886C23.3038 8.97093 23.2557 9.00745 23.2084 9.0353C23.0787 9.11165 22.8868 9.16059 22.6207 9.16059C22.314 9.16059 21.976 9.09555 21.66 9.00582C21.8754 8.62452 22.0029 8.21209 22.0801 7.84616L20.7041 7.30379C20.2412 8.07063 19.4605 8.54563 18.6056 8.54563C17.7508 8.54563 16.9701 8.07065 16.5071 7.30377L15.1315 7.84722Z" stroke="#385AD4" stroke-width="1.5"/>
<mask id="path-3-inside-1_806_8590" fill="white">
<path d="M29.2843 24.2416C29.9661 23.7336 30.1087 22.7666 29.6007 22.0848L22.2168 12.1564C20.6437 10.062 17.511 10.1556 15.5547 11.6128C15.5503 11.6172 9.43638 16.167 9.43638 16.167L5.74219 14.1216V17.6464L8.81251 19.3487C9.04423 19.4779 9.30269 19.5403 9.56115 19.5403C9.88645 19.5403 10.2118 19.4378 10.4836 19.2373L13.9683 16.6438V20.4716L10.2786 30.7655C10.1494 31.1086 10.4078 31.4784 10.7732 31.4784H13.9683V39.4506C13.9683 40.5958 14.8952 41.5227 16.0405 41.5227C17.1857 41.5227 18.1126 40.5958 18.1126 39.4506V31.4695H19.1107V39.4417C19.1107 40.5869 20.0377 41.5138 21.1829 41.5138C22.3281 41.5138 23.255 40.5869 23.255 39.4417V31.4695H26.4501C26.82 31.4695 27.074 31.1041 26.9448 30.7565L23.255 20.4627V18.7025L27.1364 23.9207C27.4394 24.3263 27.9029 24.5401 28.3752 24.5401C28.6872 24.5446 29.008 24.4466 29.2843 24.2416Z"/>
</mask>
<path d="M29.2843 24.2416L29.8802 25.0446L29.8817 25.0435L29.2843 24.2416ZM29.6007 22.0848L28.7983 22.6816L28.7988 22.6823L29.6007 22.0848ZM22.2168 12.1564L23.0192 11.5596L23.0164 11.5559L22.2168 12.1564ZM15.5547 11.6128L14.9574 10.8108L14.8991 10.8542L14.8476 10.9056L15.5547 11.6128ZM9.43638 16.167L8.95199 17.0418L9.51609 17.3542L10.0334 16.9692L9.43638 16.167ZM5.74219 14.1216L6.22658 13.2467L4.74219 12.4249V14.1216H5.74219ZM5.74219 17.6464H4.74219V18.2354L5.2573 18.521L5.74219 17.6464ZM8.81251 19.3487L9.29958 18.4753L9.2974 18.4741L8.81251 19.3487ZM10.4836 19.2373L11.0772 20.042L11.0806 20.0395L10.4836 19.2373ZM13.9683 16.6438H14.9683V14.653L13.3713 15.8415L13.9683 16.6438ZM13.9683 20.4716L14.9097 20.8091L14.9683 20.6454V20.4716H13.9683ZM10.2786 30.7655L11.2144 31.1179L11.2173 31.1104L11.22 31.1029L10.2786 30.7655ZM13.9683 31.4784H14.9683V30.4784H13.9683V31.4784ZM18.1126 31.4695V30.4695H17.1126V31.4695H18.1126ZM19.1107 31.4695H20.1107V30.4695H19.1107V31.4695ZM23.255 31.4695V30.4695H22.255V31.4695H23.255ZM26.9448 30.7565L26.0034 31.094L26.0074 31.1049L26.9448 30.7565ZM23.255 20.4627H22.255V20.6365L22.3137 20.8001L23.255 20.4627ZM23.255 18.7025L24.0574 18.1057L22.255 15.6826V18.7025H23.255ZM27.1364 23.9207L26.334 24.5176L26.3353 24.5193L27.1364 23.9207ZM28.3752 24.5401L28.3895 23.5402L28.3824 23.5401H28.3752V24.5401ZM29.8817 25.0435C31.0052 24.2065 31.2415 22.6132 30.4025 21.4873L28.7988 22.6823C28.9759 22.9199 28.927 23.2607 28.6868 23.4397L29.8817 25.0435ZM30.4031 21.4881L23.0192 11.5596L21.4143 12.7532L28.7983 22.6816L30.4031 21.4881ZM23.0164 11.5559C22.0192 10.2282 20.5412 9.62115 19.0754 9.55379C17.6219 9.487 16.122 9.94326 14.9574 10.8108L16.1521 12.4147C16.9437 11.8251 17.9884 11.506 18.9836 11.5517C19.9664 11.5968 20.8413 11.9903 21.4172 12.757L23.0164 11.5559ZM14.8476 10.9056C14.8847 10.8704 14.9305 10.8315 14.9375 10.826C14.9404 10.8237 14.9448 10.8203 14.9464 10.8191C14.9488 10.8172 14.9506 10.8159 14.9507 10.8158C14.9514 10.8153 14.9514 10.8153 14.9501 10.8162C14.9479 10.8179 14.9441 10.8208 14.9383 10.8251C14.927 10.8335 14.91 10.8462 14.8876 10.8629C14.8427 10.8964 14.777 10.9453 14.6932 11.0077C14.5257 11.1325 14.2866 11.3105 13.9997 11.5241C13.426 11.9512 12.6613 12.5203 11.8968 13.0893C11.1323 13.6583 10.368 14.2272 9.79473 14.6538C9.50811 14.8671 9.26927 15.0448 9.10208 15.1692C9.01849 15.2315 8.95282 15.2803 8.90804 15.3137C8.88565 15.3303 8.86848 15.3431 8.85691 15.3517C8.85113 15.356 8.84674 15.3593 8.84381 15.3615C8.84234 15.3625 8.84123 15.3634 8.84049 15.3639C8.84012 15.3642 8.83984 15.3644 8.83965 15.3645C8.83956 15.3646 8.83949 15.3647 8.83945 15.3647C8.8394 15.3647 8.83938 15.3647 9.43638 16.167C10.0334 16.9692 10.0334 16.9692 10.0334 16.9692C10.0335 16.9691 10.0336 16.9691 10.0337 16.969C10.0338 16.9689 10.0341 16.9687 10.0345 16.9684C10.0352 16.9678 10.0363 16.967 10.0378 16.9659C10.0408 16.9637 10.0451 16.9605 10.0509 16.9562C10.0625 16.9476 10.0797 16.9348 10.102 16.9181C10.1468 16.8848 10.2125 16.8359 10.2961 16.7737C10.4633 16.6493 10.7021 16.4716 10.9888 16.2582C11.562 15.8316 12.3264 15.2628 13.0909 14.6937C13.8555 14.1247 14.6202 13.5556 15.194 13.1284C15.4809 12.9148 15.7202 12.7366 15.8879 12.6117C15.9717 12.5493 16.0378 12.5001 16.083 12.4663C16.1056 12.4495 16.1232 12.4364 16.1353 12.4274C16.1412 12.4229 16.1463 12.4191 16.1501 12.4163C16.1518 12.415 16.1541 12.4133 16.1563 12.4116C16.1572 12.4109 16.1596 12.4091 16.1625 12.4069C16.1642 12.4056 16.1688 12.402 16.1718 12.3997C16.1789 12.3941 16.2247 12.3551 16.2618 12.3199L14.8476 10.9056ZM9.92077 15.2921L6.22658 13.2467L5.2578 14.9964L8.95199 17.0418L9.92077 15.2921ZM4.74219 14.1216V17.6464H6.74219V14.1216H4.74219ZM5.2573 18.521L8.32762 20.2232L9.2974 18.4741L6.22708 16.7718L5.2573 18.521ZM8.32544 20.222C8.71474 20.4391 9.1424 20.5403 9.56115 20.5403V18.5403C9.46298 18.5403 9.37373 18.5167 9.29958 18.4753L8.32544 20.222ZM9.56115 20.5403C10.0951 20.5403 10.6295 20.3723 11.0772 20.042L9.88994 18.4325C9.79405 18.5033 9.67782 18.5403 9.56115 18.5403V20.5403ZM11.0806 20.0395L14.5654 17.446L13.3713 15.8415L9.88654 18.4351L11.0806 20.0395ZM12.9683 16.6438V20.4716H14.9683V16.6438H12.9683ZM13.027 20.1342L9.33725 30.428L11.22 31.1029L14.9097 20.8091L13.027 20.1342ZM9.34277 30.413C8.96528 31.4153 9.7146 32.4784 10.7732 32.4784V30.4784C11.1011 30.4784 11.3335 30.8019 11.2144 31.1179L9.34277 30.413ZM10.7732 32.4784H13.9683V30.4784H10.7732V32.4784ZM12.9683 31.4784V39.4506H14.9683V31.4784H12.9683ZM12.9683 39.4506C12.9683 41.1481 14.3429 42.5227 16.0405 42.5227V40.5227C15.4475 40.5227 14.9683 40.0435 14.9683 39.4506H12.9683ZM16.0405 42.5227C17.738 42.5227 19.1126 41.1481 19.1126 39.4506H17.1126C17.1126 40.0435 16.6334 40.5227 16.0405 40.5227V42.5227ZM19.1126 39.4506V31.4695H17.1126V39.4506H19.1126ZM18.1126 32.4695H19.1107V30.4695H18.1126V32.4695ZM18.1107 31.4695V39.4417H20.1107V31.4695H18.1107ZM18.1107 39.4417C18.1107 41.1392 19.4854 42.5138 21.1829 42.5138V40.5138C20.59 40.5138 20.1107 40.0346 20.1107 39.4417H18.1107ZM21.1829 42.5138C22.8804 42.5138 24.255 41.1391 24.255 39.4417H22.255C22.255 40.0346 21.7758 40.5138 21.1829 40.5138V42.5138ZM24.255 39.4417V31.4695H22.255V39.4417H24.255ZM23.255 32.4695H26.4501V30.4695H23.255V32.4695ZM26.4501 32.4695C27.5184 32.4695 28.2536 31.4077 27.8821 30.4082L26.0074 31.1049C25.8943 30.8005 26.1216 30.4695 26.4501 30.4695V32.4695ZM27.8861 30.4191L24.1964 20.1253L22.3137 20.8001L26.0034 31.094L27.8861 30.4191ZM24.255 20.4627V18.7025H22.255V20.4627H24.255ZM22.4526 19.2993L26.334 24.5176L27.9388 23.3239L24.0574 18.1057L22.4526 19.2993ZM26.3353 24.5193C26.8354 25.1885 27.6015 25.5401 28.3752 25.5401V23.5401C28.2042 23.5401 28.0435 23.464 27.9375 23.3222L26.3353 24.5193ZM28.3609 25.54C28.8921 25.5476 29.4275 25.3806 29.8802 25.0446L28.6884 23.4385C28.5886 23.5126 28.4822 23.5416 28.3895 23.5402L28.3609 25.54Z" fill="#385AD4" mask="url(#path-3-inside-1_806_8590)"/>
<path d="M4.39186 17.1742V30.2557C4.19333 30.2268 3.99224 30.2121 3.79117 30.2121C3.73081 30.2121 3.67015 30.2135 3.60938 30.2163V2.59351C3.60938 2.37947 3.78658 2.20227 4.00062 2.20227C4.21466 2.20227 4.39186 2.37947 4.39186 2.59351V16.0067V17.1742Z" stroke="#385AD4"/>
<path d="M10.5009 41.113C9.0304 40.3777 7.83168 38.9472 7.83168 37.0267C7.83168 35.106 6.70427 34.2727 6.25864 34.0187C5.71944 33.8093 5.09112 33.6622 4.41378 33.6043C4.21325 33.5865 4.00381 33.5775 3.79436 33.5775C3.70524 33.5775 3.61166 33.5775 3.52254 33.582C2.55108 33.6177 1.65539 33.836 0.96022 34.1791C-0.0914443 34.8787 0.00213596 36.3805 0.00213596 36.3805C0.00213596 41.1441 3.58047 42.2047 6.76665 42.2047C8.17036 42.2047 9.4983 41.9997 10.4074 41.8125C10.7594 41.7457 10.8218 41.2734 10.5009 41.113Z" fill="#385AD4"/>
<mask id="path-7-inside-2_806_8590" fill="white">
<path d="M2.94316 32.6862C3.12587 32.6685 3.31303 32.6551 3.50019 32.6506C3.59822 32.6461 3.69626 32.6461 3.7943 32.6461C4.02602 32.6461 4.25329 32.655 4.4761 32.6729C4.66326 32.6862 4.85042 32.7085 5.03312 32.7353C5.18909 32.7575 5.3406 32.7843 5.49211 32.8155C5.60797 32.8422 5.72383 32.8689 5.83969 32.8957C5.77731 32.762 5.71046 32.6372 5.63471 32.5258C5.53222 32.3743 5.42081 32.2406 5.30495 32.1337C5.21583 32.0534 5.12225 31.9866 5.02421 31.9376C4.9841 31.9153 4.93954 31.8975 4.89944 31.8797C4.55185 31.7282 4.17753 31.6479 3.79875 31.6479C3.56703 31.6479 3.33976 31.6791 3.11695 31.7371C2.97436 31.7727 2.83176 31.8217 2.69362 31.8841C2.65351 31.902 2.6134 31.9198 2.5733 31.9376C2.47526 31.9866 2.37722 32.0579 2.28364 32.1426C2.07866 32.3297 1.89595 32.5927 1.75781 32.8957C1.98954 32.8378 2.23017 32.7843 2.47972 32.7442C2.63123 32.7219 2.78278 32.6996 2.94316 32.6862Z"/>
</mask>
<path d="M2.94316 32.6862L3.02624 33.6829L3.04002 33.6815L2.94316 32.6862ZM3.50019 32.6506L3.52399 33.6503L3.5348 33.6501L3.5456 33.6496L3.50019 32.6506ZM4.4761 32.6729L4.39615 33.6697L4.40485 33.6703L4.4761 32.6729ZM5.03312 32.7353L4.88832 33.7247L4.8917 33.7252L5.03312 32.7353ZM5.49211 32.8155L5.71697 31.8411L5.7054 31.8384L5.69376 31.836L5.49211 32.8155ZM5.83969 32.8957L5.61484 33.8701L7.61314 34.3312L6.74588 32.4728L5.83969 32.8957ZM5.63471 32.5258L4.80642 33.0861L4.80778 33.0881L5.63471 32.5258ZM5.30495 32.1337L5.98328 31.3988L5.97412 31.3906L5.30495 32.1337ZM5.02421 31.9376L4.53857 32.8118L4.55772 32.8224L4.57732 32.8322L5.02421 31.9376ZM4.89944 31.8797L5.30558 30.9658L5.29902 30.963L4.89944 31.8797ZM3.11695 31.7371L3.3595 32.7073L3.36859 32.7049L3.11695 31.7371ZM2.69362 31.8841L3.09976 32.798L3.1052 32.7955L2.69362 31.8841ZM2.5733 31.9376L2.16716 31.0238L2.1464 31.033L2.12608 31.0432L2.5733 31.9376ZM2.28364 32.1426L1.61272 31.401L1.60938 31.4041L2.28364 32.1426ZM1.75781 32.8957L0.847928 32.4808L-0.0130684 34.3692L2.00035 33.8658L1.75781 32.8957ZM2.47972 32.7442L2.33421 31.7547L2.32104 31.7568L2.47972 32.7442ZM3.04002 33.6815C3.20617 33.6654 3.36793 33.654 3.52399 33.6503L3.47638 31.6509C3.25813 31.6561 3.04556 31.6716 2.8463 31.6909L3.04002 33.6815ZM3.5456 33.6496C3.61717 33.6463 3.6925 33.6461 3.7943 33.6461V31.6461C3.70002 31.6461 3.57928 31.646 3.45478 31.6516L3.5456 33.6496ZM3.7943 33.6461C4.00051 33.6461 4.20107 33.654 4.39615 33.6697L4.55604 31.6761C4.3055 31.656 4.05153 31.6461 3.7943 31.6461V33.6461ZM4.40485 33.6703C4.56123 33.6815 4.72302 33.7005 4.88832 33.7247L5.17792 31.7458C4.97781 31.7165 4.76528 31.691 4.54734 31.6754L4.40485 33.6703ZM4.8917 33.7252C5.02624 33.7444 5.15764 33.7676 5.29046 33.7949L5.69376 31.836C5.52356 31.801 5.35193 31.7707 5.17454 31.7453L4.8917 33.7252ZM5.26725 33.7899C5.32518 33.8032 5.38312 33.8166 5.44105 33.83C5.49898 33.8433 5.55691 33.8567 5.61484 33.8701L6.06455 31.9213C6.00662 31.9079 5.94869 31.8946 5.89076 31.8812C5.83283 31.8678 5.7749 31.8545 5.71697 31.8411L5.26725 33.7899ZM6.74588 32.4728C6.66972 32.3096 6.57736 32.1337 6.46164 31.9635L4.80778 33.0881C4.84357 33.1408 4.88489 33.2144 4.93351 33.3186L6.74588 32.4728ZM6.46299 31.9655C6.32688 31.7643 6.16687 31.5684 5.98323 31.3989L4.62667 32.8685C4.67475 32.9129 4.73755 32.9843 4.80643 33.0861L6.46299 31.9655ZM5.97412 31.3906C5.83292 31.2634 5.66583 31.1403 5.4711 31.043L4.57732 32.8322C4.57866 32.8329 4.59873 32.8434 4.63578 32.8768L5.97412 31.3906ZM5.50985 31.0634C5.45344 31.0321 5.40261 31.0087 5.37018 30.9941C5.35359 30.9867 5.33806 30.98 5.32781 30.9756C5.31585 30.9704 5.31039 30.968 5.30557 30.9659L4.4933 32.7935C4.50853 32.8003 4.52368 32.8068 4.53261 32.8107C4.54325 32.8153 4.54888 32.8177 4.55346 32.8198C4.55766 32.8217 4.55794 32.8219 4.55584 32.8208C4.55371 32.8198 4.54753 32.8167 4.53857 32.8118L5.50985 31.0634ZM5.29902 30.963C4.829 30.7581 4.31893 30.6479 3.79875 30.6479V32.6479C4.03613 32.6479 4.2747 32.6982 4.49985 32.7964L5.29902 30.963ZM3.79875 30.6479C3.47631 30.6479 3.16447 30.6915 2.86532 30.7693L3.36859 32.7049C3.51505 32.6668 3.65775 32.6479 3.79875 32.6479V30.6479ZM2.87442 30.7669C2.67523 30.8167 2.47595 30.8852 2.28203 30.9728L3.1052 32.7955C3.18756 32.7583 3.27348 32.7287 3.35949 32.7072L2.87442 30.7669ZM2.28748 30.9703C2.26742 30.9792 2.24736 30.9881 2.22731 30.9971C2.20726 31.006 2.18721 31.0149 2.16716 31.0238L2.97944 32.8514C2.99949 32.8425 3.01955 32.8336 3.0396 32.8247C3.05965 32.8158 3.0797 32.8068 3.09975 32.7979L2.28748 30.9703ZM2.12608 31.0432C1.92498 31.1437 1.75262 31.2745 1.61273 31.4011L2.95456 32.8841C2.97649 32.8643 2.99427 32.8503 3.00715 32.8411C3.02029 32.8317 3.0249 32.8298 3.02051 32.832L2.12608 31.0432ZM1.60938 31.4041C1.28539 31.6999 1.02992 32.0817 0.847928 32.4808L2.6677 33.3105C2.76199 33.1037 2.87193 32.9596 2.95791 32.8811L1.60938 31.4041ZM2.00035 33.8658C2.21519 33.8121 2.42623 33.7656 2.6384 33.7315L2.32104 31.7568C2.03411 31.803 1.76388 31.8634 1.51528 31.9255L2.00035 33.8658ZM2.62521 33.7335C2.78071 33.7107 2.90198 33.6931 3.02623 33.6828L2.86009 31.6897C2.66358 31.7061 2.48174 31.7331 2.33422 31.7548L2.62521 33.7335Z" fill="#385AD4" mask="url(#path-7-inside-2_806_8590)"/>
</svg>
