<svg width="34" height="38" viewBox="0 0 34 38" fill="none" xmlns="http://www.w3.org/2000/svg">
<path d="M2.92 18.92V5.26668H1.85333L3.13333 1.64001H5.26667L6.54667 5.26668H5.48V18.92M2.92 18.92H5.48M2.92 18.92L1 19.1333V20.6267L2.28 21.2667V22.9733L1 23.8267V34.4933L3.13333 37.0533H5.69333L7.4 34.4933V23.8267L6.12 22.9733V21.2667L7.18667 20.6267V19.1333L5.48 18.92M3.77333 24.68V34.7067M3.77333 24.68L4.84 34.7067M3.77333 24.68H4.04M3.77333 34.7067L4.84 24.68M3.77333 34.7067H3.98667M4.84 34.7067V24.68M4.84 34.7067H4.57333M4.84 24.68H4.57333M4.30667 34.7067V24.68M4.30667 34.7067H3.98667M4.30667 34.7067H4.57333M4.30667 24.68H4.04M4.30667 24.68H4.57333M4.04 24.68L3.98667 34.7067M4.57333 34.7067V24.68" stroke="#385AD4" stroke-width="1.5"/>
<path d="M15.7169 18.92V5.26671L16.7835 1.21338H17.2102L18.2769 5.26671V18.92M15.7169 18.92H18.2769M15.7169 18.92L13.7969 19.1334V20.6267L15.0769 21.2667V22.9734L13.7969 23.8267V34.4934L15.9302 37.0534H18.4902L20.1969 34.4934V23.8267L18.9169 22.9734V21.2667L19.9835 20.6267V19.1334L18.2769 18.92M16.5702 24.68V34.7067M16.5702 24.68L17.6369 34.7067M16.5702 24.68H16.8369M16.5702 34.7067L17.6369 24.68M16.5702 34.7067H16.7835M17.6369 34.7067V24.68M17.6369 34.7067H17.3702M17.6369 24.68H17.3702M17.1035 34.7067V24.68M17.1035 34.7067H16.7835M17.1035 34.7067H17.3702M17.1035 24.68H16.8369M17.1035 24.68H17.3702M16.8369 24.68L16.7835 34.7067M17.3702 34.7067V24.68" stroke="#385AD4" stroke-width="1.5"/>
<path d="M28.5216 18.92V6.76002H27.6682V1H32.1482V6.76H31.0816V18.92M28.5216 18.92H31.0816M28.5216 18.92L26.6016 19.1333V20.6267L27.8816 21.2667V22.9733L26.6016 23.8267V34.4933L28.7349 37.0533H31.2949L33.0016 34.4933V23.8267L31.7216 22.9733V21.2667L32.7882 20.6267V19.1333L31.0816 18.92M29.3749 24.68V34.7067M29.3749 24.68L30.4416 34.7067M29.3749 24.68H29.6416M29.3749 34.7067L30.4416 24.68M29.3749 34.7067H29.5882M30.4416 34.7067V24.68M30.4416 34.7067H30.1749M30.4416 24.68H30.1749M29.9082 34.7067V24.68M29.9082 34.7067H29.5882M29.9082 34.7067H30.1749M29.9082 24.68H29.6416M29.9082 24.68H30.1749M29.6416 24.68L29.5882 34.7067M30.1749 34.7067V24.68" stroke="#385AD4" stroke-width="1.5"/>
</svg>
