<svg width="18" height="21" viewBox="0 0 18 21" fill="none" xmlns="http://www.w3.org/2000/svg">
<path d="M16.0011 10.8948L9.52564 17.3807C8.67673 18.1351 7.57165 18.5367 6.43643 18.5033C5.30122 18.4698 4.22167 18.004 3.41861 17.2009C2.61555 16.3978 2.14966 15.3183 2.11624 14.1831C2.08282 13.0479 2.4844 11.9428 3.23884 11.0939L11.6212 2.71145C12.1217 2.23606 12.7856 1.971 13.4759 1.971C14.1661 1.971 14.83 2.23606 15.3305 2.71145C15.8181 3.20558 16.0914 3.87186 16.0914 4.56606C16.0914 5.26026 15.8181 5.92653 15.3305 6.42067L8.10063 13.64C8.02908 13.7171 7.94305 13.7793 7.84746 13.8231C7.75187 13.8669 7.64858 13.8914 7.5435 13.8953C7.43842 13.8992 7.3336 13.8824 7.23503 13.8458C7.13646 13.8092 7.04606 13.7535 6.96901 13.6819C6.89195 13.6104 6.82975 13.5243 6.78594 13.4288C6.74213 13.3332 6.71758 13.2299 6.71369 13.1248C6.70979 13.0197 6.72664 12.9149 6.76325 12.8163C6.79987 12.7178 6.85555 12.6274 6.9271 12.5503L12.3023 7.18556C12.4996 6.98826 12.6105 6.72065 12.6105 6.44162C12.6105 6.16259 12.4996 5.89499 12.3023 5.69768C12.105 5.50038 11.8374 5.38953 11.5584 5.38953C11.2793 5.38953 11.0117 5.50038 10.8144 5.69768L5.43922 11.0834C5.17025 11.3503 4.95678 11.6677 4.8111 12.0175C4.66541 12.3673 4.59041 12.7425 4.59041 13.1214C4.59041 13.5003 4.66541 13.8754 4.8111 14.2252C4.95678 14.575 5.17025 14.8924 5.43922 15.1593C5.98866 15.6827 6.71838 15.9746 7.47719 15.9746C8.236 15.9746 8.96573 15.6827 9.51517 15.1593L16.7345 7.9295C17.5674 7.03567 18.0208 5.85346 17.9993 4.63193C17.9777 3.41039 17.4829 2.24491 16.619 1.38102C15.7551 0.517134 14.5896 0.0222871 13.3681 0.000734594C12.1465 -0.0208179 10.9643 0.432607 10.0705 1.26548L1.68809 9.64789C0.557721 10.8998 -0.045992 12.5397 0.00273606 14.2257C0.0514642 15.9118 0.748875 17.514 1.94966 18.6986C3.15045 19.8831 4.762 20.5587 6.44855 20.5845C8.1351 20.6103 9.76657 19.9844 11.003 18.8371L17.4889 12.3617C17.5866 12.264 17.6641 12.148 17.717 12.0204C17.7699 11.8927 17.7971 11.7559 17.7971 11.6178C17.7971 11.4796 17.7699 11.3428 17.717 11.2151C17.6641 11.0875 17.5866 10.9715 17.4889 10.8738C17.3912 10.7761 17.2753 10.6986 17.1476 10.6458C17.02 10.5929 16.8832 10.5657 16.745 10.5657C16.6068 10.5657 16.47 10.5929 16.3424 10.6458C16.2147 10.6986 16.0988 10.7761 16.0011 10.8738V10.8948Z" fill="#4E4E4E"/>
</svg>
