<svg width="20" height="19" viewBox="0 0 20 19" fill="none" xmlns="http://www.w3.org/2000/svg">
<path d="M19.9846 7.50805C20.0845 7.01675 19.6848 6.42718 19.1852 6.42718L13.4896 5.6411L10.8916 0.531545C10.7917 0.335024 10.6918 0.236763 10.4919 0.138502C9.99229 -0.15628 9.39276 0.0402417 9.09299 0.531545L6.59491 5.6411L0.899306 6.42718C0.599538 6.42718 0.399692 6.52544 0.299769 6.72196C-0.0999229 7.11501 -0.0999229 7.70457 0.299769 8.09761L4.39661 12.028L3.39738 17.6289C3.39738 17.8254 3.39738 18.0219 3.4973 18.2185C3.79707 18.7098 4.39661 18.9063 4.89622 18.6115L9.99229 15.9585L15.0884 18.6115C15.1883 18.7098 15.3881 18.7098 15.588 18.7098H15.7878C16.2874 18.6115 16.6871 18.1202 16.5872 17.5306L15.588 11.9298L19.6848 7.99935C19.8847 7.90109 19.9846 7.70457 19.9846 7.50805Z" fill="#686868"/>
</svg>
