<svg width="20" height="20" viewBox="0 0 20 20" fill="none" xmlns="http://www.w3.org/2000/svg">
<path d="M19.2831 7.27578L13.3323 6.41093L10.6722 1.01797C10.5995 0.870309 10.48 0.750778 10.3323 0.678121C9.96199 0.495309 9.51199 0.647653 9.32684 1.01797L6.66668 6.41093L0.715901 7.27578C0.551838 7.29922 0.401838 7.37656 0.286995 7.49375C0.148155 7.63645 0.0716479 7.82843 0.0742847 8.02752C0.0769216 8.2266 0.158487 8.41649 0.301057 8.55547L4.60653 12.7531L3.58934 18.6805C3.56548 18.8183 3.58074 18.9602 3.63338 19.0898C3.68602 19.2195 3.77394 19.3318 3.88716 19.414C4.00038 19.4962 4.13437 19.5451 4.27395 19.555C4.41352 19.565 4.5531 19.5356 4.67684 19.4703L9.99949 16.6719L15.3222 19.4703C15.4675 19.5477 15.6362 19.5734 15.7979 19.5453C16.2057 19.475 16.48 19.0883 16.4097 18.6805L15.3925 12.7531L19.6979 8.55547C19.8151 8.44062 19.8925 8.29062 19.9159 8.12656C19.9792 7.7164 19.6932 7.33672 19.2831 7.27578V7.27578Z" fill="#FFD232"/>
</svg>
