<svg width="256" height="256" viewBox="0 0 256 256" fill="none" xmlns="http://www.w3.org/2000/svg">
<g clip-path="url(#clip0_257_860)">
<path d="M256 128C256.023 145.327 252.515 162.478 245.692 178.405L245.268 179.382C233.725 205.64 213.711 227.27 188.425 240.812C163.14 254.354 134.043 259.025 105.789 254.08C105.021 253.944 104.253 253.802 103.487 253.656C95.5695 252.121 87.8165 249.835 80.3333 246.828C79.1176 246.339 77.9108 245.833 76.7129 245.309C75.8949 244.953 75.0769 244.586 74.2665 244.207C52.0973 233.933 33.3274 217.534 20.1692 196.945C7.01103 176.356 0.0130146 152.435 0 128C0 57.3084 57.3084 0 128 0C198.692 0 256 57.3084 256 128Z" fill="#6C63FF"/>
<path opacity="0.2" d="M105.789 254.08C105.02 253.944 104.253 253.802 103.487 253.656C102.987 239.148 101.271 209.371 95.4202 178.185C92.2202 161.117 87.7781 143.621 81.6167 127.981C79.5058 122.569 77.0948 117.28 74.3949 112.136C68.1691 100.378 60.6179 90.4786 51.4609 83.7719L52.8091 81.9314C60.4247 87.5134 67.2691 95.3499 73.3421 105.441C75.1637 108.463 76.9132 111.687 78.5909 115.113C80.3897 118.779 82.1052 122.67 83.7374 126.788C84.7788 129.409 85.7849 132.12 86.7556 134.923C90.9819 147.09 94.5745 160.973 97.5334 176.572C98.1885 180.018 98.8121 183.549 99.4041 187.164C103.99 215.176 105.372 241.076 105.789 254.08Z" fill="black"/>
<path opacity="0.2" d="M76.7133 245.309C75.8954 244.953 75.0774 244.586 74.2669 244.207C73.4755 235.611 72.0213 224.947 69.3628 214.824C68.1985 210.278 66.7037 205.823 64.8904 201.494C61.857 194.393 57.9299 188.357 52.8516 184.634L54.1997 182.798C59.5167 186.691 63.6179 192.844 66.7877 200.044C70.3588 208.155 72.7408 217.596 74.3275 226.617C75.5053 233.316 76.2475 239.788 76.7133 245.309Z" fill="black"/>
<path opacity="0.2" d="M38.7265 83.7189C45.0195 83.7189 50.121 78.6174 50.121 72.3244C50.121 66.0314 45.0195 60.9299 38.7265 60.9299C32.4335 60.9299 27.332 66.0314 27.332 72.3244C27.332 78.6174 32.4335 83.7189 38.7265 83.7189Z" fill="black"/>
<path opacity="0.2" d="M42.3964 181.805C48.6894 181.805 53.7909 176.704 53.7909 170.411C53.7909 164.118 48.6894 159.016 42.3964 159.016C36.1034 159.016 31.002 164.118 31.002 170.411C31.002 176.704 36.1034 181.805 42.3964 181.805Z" fill="black"/>
<path opacity="0.2" d="M83.9621 91.4638C81.5458 105.096 86.8798 117.44 86.8798 117.44C86.8798 117.44 96.1313 107.681 98.5476 94.049C100.964 80.4169 95.6299 68.0732 95.6299 68.0732C95.6299 68.0732 86.3784 77.8316 83.9621 91.4638Z" fill="black"/>
<path opacity="0.2" d="M46.0943 123.823C59.0969 128.578 72.1627 125.527 72.1627 125.527C72.1627 125.527 64.1471 114.767 51.1445 110.012C38.1419 105.258 25.0762 108.309 25.0762 108.309C25.0762 108.309 33.0917 119.069 46.0943 123.823Z" fill="black"/>
<path opacity="0.2" d="M43.889 210.682C53.0028 214.015 62.1738 211.841 62.1738 211.841C62.1738 211.841 56.5684 204.264 47.4547 200.931C38.3409 197.599 29.1699 199.773 29.1699 199.773C29.1699 199.773 34.7753 207.35 43.889 210.682Z" fill="black"/>
<path d="M127.737 156.345C155.297 156.345 177.638 134.004 177.638 106.444C177.638 78.8845 155.297 56.543 127.737 56.543C100.177 56.543 77.8359 78.8845 77.8359 106.444C77.8359 134.004 100.177 156.345 127.737 156.345Z" fill="#D0CDE1"/>
<path d="M108.244 144.65C108.244 144.65 114.482 174.278 114.482 177.397C114.482 180.516 144.111 194.551 144.111 194.551L170.621 189.872L179.977 161.803C179.977 161.803 164.383 138.412 164.383 129.055L108.244 144.65Z" fill="#D0CDE1"/>
<path d="M245.691 178.405L245.267 179.382C233.725 205.64 213.71 227.27 188.425 240.812C163.139 254.354 134.043 259.025 105.789 254.08C105.02 253.944 104.253 253.802 103.486 253.656C95.5691 252.121 87.8161 249.835 80.3328 246.828C79.1172 246.339 77.9104 245.833 76.7125 245.309C75.8945 244.953 75.0765 244.586 74.2661 244.207C66.9204 240.804 59.9146 236.711 53.343 231.983L47.4277 214.824L50.7527 212.287L57.592 207.065L64.8895 201.494L66.7868 200.044L95.4201 178.185L97.5333 176.572L112.416 165.211L112.42 165.207C112.42 165.207 128.515 191.432 151.907 183.635C175.299 175.837 174.788 153.479 174.788 153.479L245.691 178.405Z" fill="#2F2E41"/>
<path d="M84.4626 66.2405C84.4626 66.2405 100.306 31.9131 130.673 39.8348C161.039 47.7565 178.203 59.6391 179.523 71.5216C180.843 83.4042 178.863 101.228 178.863 101.228C178.863 101.228 175.562 76.8028 154.438 82.0839C133.313 87.3651 100.306 83.4042 100.306 83.4042L95.0248 130.934C95.0248 130.934 89.0836 122.353 82.4821 127.634C75.8807 132.915 63.338 76.8028 84.4626 66.2405Z" fill="#2F2E41"/>
<path d="M80.3326 246.828C79.117 246.339 77.9102 245.833 76.7123 245.309C75.8943 244.953 75.0763 244.586 74.2659 244.207C62.1169 238.574 50.9247 231.073 41.0957 221.978C44.5759 217.236 47.4275 214.824 47.4275 214.824H70.8197L74.3265 226.617L80.3326 246.828Z" fill="#2F2E41"/>
<path d="M225.201 175.837L245.268 179.382C239.898 191.616 232.645 202.933 223.773 212.923L225.201 175.837Z" fill="#2F2E41"/>
</g>
<defs>
<clipPath id="clip0_257_860">
<rect width="256" height="256" fill="white"/>
</clipPath>
</defs>
</svg>
