<svg width="470" height="335" viewBox="0 0 470 335" fill="none" xmlns="http://www.w3.org/2000/svg">
<g filter="url(#filter0_d_265_335)">
<path d="M351.522 44.3701C277.979 -12.2459 175.664 -14.5592 101.02 40.6037C61.5613 69.7649 30.9706 114.379 36.5365 182.309C38.5034 206.336 43.9783 226.048 51.9658 242.184C84.3176 307.6 217.195 305.081 224.574 305.071C229.355 305.066 234.136 305.173 238.917 305.391C255.664 306.159 272.322 308.263 288.732 311.682C312.13 316.552 341.917 318.999 368.53 309.775C373.052 308.214 377.446 306.306 381.672 304.068C396.297 296.305 412.67 288.887 422.241 270.475C429.434 256.657 434.674 239.331 437.197 217.75C446.376 139.157 400.509 82.0822 351.522 44.3701Z" fill="#F2F2F2"/>
<path d="M239.238 326.047C355.382 326.047 449.535 317.22 449.535 306.332C449.535 295.443 355.382 286.616 239.238 286.616C123.095 286.616 28.9414 295.443 28.9414 306.332C28.9414 317.22 123.095 326.047 239.238 326.047Z" fill="#3F3D56"/>
<path opacity="0.1" d="M228.965 315.586C336.988 315.586 424.557 311.443 424.557 306.332C424.557 301.221 336.988 297.078 228.965 297.078C120.943 297.078 33.373 301.221 33.373 306.332C33.373 311.443 120.943 315.586 228.965 315.586Z" fill="black"/>
<path d="M337.169 42.2856V64.4045H308.336V305.628H368.509V73.5864V64.4045V42.2856H337.169Z" fill="#575A89"/>
<path d="M178.378 190.859V152.881H141.606V190.859H127.816V306.045H191.75V190.859H178.378Z" fill="#575A89"/>
<path d="M184.648 252.625H134.922V306.462H184.648V252.625Z" fill="#3F3D56"/>
<path opacity="0.1" d="M142.861 252.625H134.922V306.462H142.861V252.625Z" fill="black"/>
<path d="M287.024 30.1826V43.1202H213.479V30.1826H191.75V306.462H308.336V30.1826H287.024Z" fill="#3F3D56"/>
<path opacity="0.1" d="M303.322 30.1829H287.025V43.1204H303.322V30.1829Z" fill="black"/>
<path opacity="0.1" d="M208.047 30.1829H191.75V306.462H208.047V30.1829Z" fill="black"/>
<path d="M108.595 109.06V98.6266H97.7301V109.06H78.0898V306.462H127.817V109.06H108.595Z" fill="#3F3D56"/>
<path opacity="0.1" d="M103.581 98.6268H97.7305V109.06H103.581V98.6268Z" fill="black"/>
<path opacity="0.1" d="M83.94 109.06H78.0898V306.462H83.94V109.06Z" fill="black"/>
<path opacity="0.1" d="M303.322 136.605H287.025V306.462H303.322V136.605Z" fill="black"/>
<path opacity="0.1" d="M127.817 109.06H112.773V145.369H127.817V109.06Z" fill="black"/>
<path d="M233.119 65.2393H209.719V75.2554H233.119V65.2393Z" fill="#FF6584"/>
<path d="M282.846 168.323H259.445V178.339H282.846V168.323Z" fill="#FF6584"/>
<path d="M233.119 240.523H209.719V250.539H233.119V240.523Z" fill="#FF6584"/>
<path d="M114.863 154.133H91.4629V164.149H114.863V154.133Z" fill="#FF6584"/>
<path d="M171.694 258.468H148.293V268.484H171.694V258.468Z" fill="#FF6584"/>
<path opacity="0.1" d="M180.051 199.623H139.936V216.317H180.051V199.623Z" fill="black"/>
<path opacity="0.1" d="M355.555 83.6023H315.439V100.296H355.555V83.6023Z" fill="black"/>
<path opacity="0.1" d="M355.555 119.076H315.439V135.77H355.555V119.076Z" fill="black"/>
<path opacity="0.1" d="M355.555 154.551H315.439V171.244H355.555V154.551Z" fill="black"/>
<path opacity="0.1" d="M355.555 190.024H315.439V206.718H355.555V190.024Z" fill="black"/>
<path opacity="0.1" d="M355.555 225.498H315.439V242.192H355.555V225.498Z" fill="black"/>
<path opacity="0.1" d="M355.555 260.972H315.439V277.666H355.555V260.972Z" fill="black"/>
<path d="M382.299 159.141V113.651H353.048V159.141H342.602V306.462H392.328V159.141H382.299Z" fill="#3F3D56"/>
<path opacity="0.1" d="M362.242 113.651H353.049V159.141H362.242V113.651Z" fill="black"/>
<path opacity="0.1" d="M351.795 159.141H342.602V306.463H351.795V159.141Z" fill="black"/>
<path opacity="0.1" d="M392.328 233.01H367.674V247.617H392.328V233.01Z" fill="black"/>
<path d="M391.91 211.309H368.51V221.325H391.91V211.309Z" fill="#FF6584"/>
<path d="M465.152 221.421C465.152 258.602 443.02 271.584 415.72 271.584C388.419 271.584 366.287 258.602 366.287 221.421C366.287 184.239 415.72 136.939 415.72 136.939C415.72 136.939 465.152 184.239 465.152 221.421Z" fill="#6C63FF"/>
<path d="M413.92 265.896L414.427 234.779L435.496 196.282L414.506 229.897L414.734 215.906L429.254 188.054L414.794 212.204L415.203 187.039L430.752 164.865L415.267 183.082L415.523 136.938L413.916 198.023L414.048 195.504L398.239 171.336L413.794 200.341L412.321 228.446L412.277 227.7L394.053 202.266L412.223 230.335L412.038 233.85L412.005 233.902L412.02 234.191L408.283 305.495H413.276L413.875 268.665L432.001 240.666L413.92 265.896Z" fill="#3F3D56"/>
<path d="M102.865 221.823C102.865 259.004 80.7332 271.987 53.4324 271.987C26.1316 271.987 4 259.004 4 221.823C4 184.642 53.4324 137.341 53.4324 137.341C53.4324 137.341 102.865 184.642 102.865 221.823Z" fill="#6C63FF"/>
<path d="M51.6314 266.299L52.1375 235.181L73.2071 196.685L52.2172 230.3L52.4446 216.308L66.9653 188.456L52.5051 212.605V212.606L52.9143 187.441L68.4636 165.267L52.9787 183.484L53.2346 137.341L51.6268 198.426L51.759 195.906L35.9498 171.738L51.5054 200.743L50.0327 228.848L49.9888 228.102L31.7637 202.669L49.9335 230.738L49.7495 234.252L49.7164 234.305L49.7312 234.593L45.9942 305.897H50.9873L51.5863 269.068L69.7118 241.068L51.6314 266.299Z" fill="#3F3D56"/>
</g>
<defs>
<filter id="filter0_d_265_335" x="0" y="0.538818" width="469.152" height="333.509" filterUnits="userSpaceOnUse" color-interpolation-filters="sRGB">
<feFlood flood-opacity="0" result="BackgroundImageFix"/>
<feColorMatrix in="SourceAlpha" type="matrix" values="0 0 0 0 0 0 0 0 0 0 0 0 0 0 0 0 0 0 127 0" result="hardAlpha"/>
<feOffset dy="4"/>
<feGaussianBlur stdDeviation="2"/>
<feComposite in2="hardAlpha" operator="out"/>
<feColorMatrix type="matrix" values="0 0 0 0 0 0 0 0 0 0 0 0 0 0 0 0 0 0 0.25 0"/>
<feBlend mode="normal" in2="BackgroundImageFix" result="effect1_dropShadow_265_335"/>
<feBlend mode="normal" in="SourceGraphic" in2="effect1_dropShadow_265_335" result="shape"/>
</filter>
</defs>
</svg>
