<svg width="435" height="337" viewBox="0 0 435 337" fill="none" xmlns="http://www.w3.org/2000/svg">
<g clip-path="url(#clip0_257_610)">
<path d="M56.7503 148.295C40.5578 141.507 27.5774 128.799 20.4663 112.772C16.4877 103.693 14.5453 93.8471 13.4393 83.9995C12.3542 74.3381 12.1327 64.1467 16.2989 55.3587C18.5799 50.5472 22.071 46.4074 26.432 43.3429C30.7929 40.2783 35.8749 38.3936 41.1828 37.8723C46.4907 37.3509 51.8433 38.2108 56.7192 40.3681C61.595 42.5255 65.8278 45.9066 69.0049 50.1821C71.7395 53.8621 73.6621 58.2778 73.7112 62.8591C73.8141 72.4687 66.0718 80.1807 62.6753 89.1732C59.1654 98.466 60.4305 108.762 61.0272 118.676C61.6238 128.589 61.2456 139.336 55.2187 147.238" fill="#F2F2F2"/>
<path d="M347.16 269.807C364.26 265.809 379.182 255.44 388.872 240.821C394.312 232.531 397.873 223.147 400.609 213.621C403.294 204.276 405.215 194.264 402.576 184.906C401.131 179.782 398.381 175.119 394.593 171.371C390.805 167.624 386.109 164.92 380.963 163.522C375.817 162.125 370.395 162.081 365.227 163.397C360.059 164.712 355.321 167.342 351.473 171.028C348.162 174.202 345.528 178.235 344.714 182.744C343.007 192.202 349.352 201.095 351.198 210.527C353.106 220.274 350.138 230.215 347.893 239.891C345.648 249.566 344.225 260.225 348.847 269.02" fill="#F2F2F2"/>
<path d="M216.747 254.376C192.373 254.453 168.659 246.475 149.304 231.689C130.354 217.239 116.51 197.14 109.779 174.306L110.743 174.026C124.354 220.745 167.945 253.374 216.747 253.374C231.339 253.402 245.79 250.524 259.254 244.909L259.641 245.834C246.054 251.499 231.472 254.403 216.747 254.376Z" fill="#E6E6E6"/>
<path d="M322.114 110.286C307.636 64.0881 265.293 33.0489 216.748 33.0489C202.363 33.0229 188.114 35.8192 174.809 41.2788L174.428 40.3526C192.225 33.0784 211.604 30.5197 230.684 32.9251C249.764 35.3305 267.897 42.6181 283.323 54.0807C302.096 68.1173 315.996 87.6669 323.072 109.987L322.114 110.286Z" fill="#E6E6E6"/>
<path d="M352.215 289.427C306.567 289.427 269.43 252.363 269.43 206.805C269.43 161.247 306.567 124.183 352.215 124.183C397.863 124.183 435.001 161.247 435.001 206.805C435.001 252.363 397.863 289.427 352.215 289.427ZM352.215 125.185C307.12 125.185 270.433 161.8 270.433 206.805C270.433 251.811 307.12 288.426 352.215 288.426C397.31 288.426 433.997 251.811 433.997 206.805C433.997 161.8 397.31 125.185 352.215 125.185Z" fill="#3F3D56"/>
<path d="M82.7855 165.244C37.1373 165.244 0 128.18 0 82.622C0 37.064 37.1373 0 82.7855 0C128.434 0 165.571 37.064 165.571 82.622C165.571 128.18 128.434 165.244 82.7855 165.244ZM82.7855 1.00148C37.6908 1.00148 1.00346 37.6163 1.00346 82.622C1.00346 127.628 37.6908 164.243 82.7855 164.243C127.88 164.243 164.567 127.628 164.567 82.622C164.567 37.6163 127.88 1.00148 82.7855 1.00148Z" fill="#3F3D56"/>
<path d="M76.3495 83.0866L69.0391 97.2567L76.2573 101.387C76.2573 101.387 81.2092 85.4696 81.355 84.8656C82.1016 84.5611 82.7381 84.0375 83.1801 83.3641C83.6221 82.6907 83.8489 81.8992 83.8304 81.0944C83.8119 80.2896 83.549 79.5093 83.0765 78.8568C82.604 78.2044 81.9442 77.7104 81.1843 77.4404C80.4245 77.1703 79.6003 77.1368 78.821 77.3444C78.0416 77.5519 77.3438 77.9907 76.8197 78.6027C76.2957 79.2147 75.9702 79.971 75.8862 80.7717C75.8022 81.5723 75.9638 82.3796 76.3495 83.0866V83.0866Z" fill="#A0616A"/>
<path d="M38.832 85.0139C42.093 97.072 53.8143 104.73 63.5475 113.912C64.7461 114.332 66.0192 114.497 67.2855 114.398C68.5517 114.299 69.7833 113.937 70.9015 113.335C72.0197 112.734 72.9998 111.906 73.7793 110.906C74.5587 109.905 75.1203 108.752 75.4281 107.522L78.7086 94.7095L70.3707 94.487L66.92 98.2298L55.7551 90.2895L38.832 85.0139Z" fill="#3F3D56"/>
<path d="M339.907 219.643C341.322 219.736 342.646 220.376 343.596 221.427C344.546 222.479 345.047 223.859 344.993 225.274C344.978 225.561 344.939 225.847 344.876 226.128L360.952 236.236L352.064 240.159L338.161 229.959C337.013 229.609 336.015 228.89 335.32 227.914C334.625 226.938 334.274 225.76 334.321 224.564C334.354 223.884 334.521 223.216 334.812 222.6C335.104 221.984 335.514 221.432 336.019 220.974C336.525 220.516 337.116 220.162 337.758 219.933C338.401 219.703 339.082 219.601 339.764 219.634C339.812 219.637 339.859 219.64 339.907 219.643Z" fill="#FFB6B6"/>
<path d="M355.41 231.642L351.426 239.846L367.179 249.964C368.3 250.69 369.589 251.118 370.922 251.207C372.255 251.296 373.589 251.043 374.797 250.473C376.266 249.771 377.466 248.613 378.217 247.171C378.968 245.729 379.23 244.083 378.962 242.48L373.85 213.355C373.507 211.317 372.394 209.487 370.741 208.243C369.087 206.998 367.019 206.434 364.961 206.665C362.937 206.885 361.083 207.9 359.809 209.485C358.534 211.069 357.942 213.095 358.163 215.115C358.172 215.194 358.182 215.273 358.193 215.352C358.232 215.631 358.285 215.909 358.354 216.183L363.934 236.896L355.41 231.642Z" fill="#6C63FF"/>
<path d="M341.092 234.968L335.16 219.691C334.958 219.168 334.971 218.586 335.198 218.073C335.425 217.561 335.846 217.159 336.37 216.955L339.706 215.665C340.23 215.463 340.813 215.477 341.327 215.703C341.84 215.929 342.243 216.35 342.447 216.872L348.379 232.15C348.582 232.672 348.568 233.254 348.341 233.767C348.114 234.28 347.693 234.682 347.17 234.885L343.833 236.175C343.309 236.377 342.727 236.364 342.213 236.137C341.699 235.911 341.296 235.491 341.092 234.968Z" fill="#3F3D56"/>
<path d="M337.063 217.584C336.781 217.693 336.554 217.91 336.431 218.186C336.309 218.462 336.302 218.776 336.411 219.058L342.343 234.335C342.453 234.616 342.67 234.843 342.947 234.965C343.224 235.087 343.538 235.094 343.82 234.985L347.156 233.695C347.438 233.586 347.666 233.369 347.788 233.093C347.91 232.816 347.917 232.503 347.808 232.221L341.876 216.944C341.766 216.662 341.549 216.436 341.272 216.314C340.995 216.192 340.681 216.184 340.399 216.293L337.063 217.584Z" fill="#6C63FF"/>
<path d="M354.289 266.845H376.818V244.361H354.289V266.845Z" fill="#FFB8B8"/>
<path d="M300.862 310.58L292.258 307.691L287.467 331.065L293.297 333.023L300.862 310.58Z" fill="#FFB6B6"/>
<path d="M316.122 306.133L307.287 308.218L315.595 330.589L321.581 329.176L316.122 306.133Z" fill="#FFB6B6"/>
<path d="M376.011 272.72C380.527 302.764 320.394 285.001 320.394 285.001L301.54 310.959L290.502 308.956C290.502 308.956 295.469 293.373 304.339 272.483C308.278 263.206 353.007 265.473 353.007 265.473L353.935 258.198L379.523 257.698L376.011 272.72Z" fill="#2F2E41"/>
<path d="M318.496 278.556L302.119 278.932C304.744 301.468 307.059 310.458 307.059 310.458L316.592 307.454L318.496 278.556Z" fill="#2F2E41"/>
<path d="M363.141 207.823L367.676 202.005L374.145 201.725L374.79 207.197L377.995 208.672C381.196 220.807 381.69 233.494 379.443 245.84C379.014 246.244 378.7 246.754 378.534 247.32C378.368 247.885 378.357 248.484 378.5 249.055L378.708 249.882L378.689 249.912C378.007 250.986 377.775 252.285 378.045 253.527L379.575 256.242C380.124 257.218 380.454 258.302 380.541 259.418C380.628 260.534 380.471 261.656 380.079 262.705C379.688 263.755 379.073 264.706 378.276 265.494C377.478 266.282 376.519 266.887 375.464 267.267C366.055 270.671 357.235 271.939 350.71 262.387L348.658 229.103L363.141 207.823Z" fill="#6C63FF"/>
<path d="M367.892 203.55C374.497 203.55 379.852 198.206 379.852 191.614C379.852 185.021 374.497 179.677 367.892 179.677C361.286 179.677 355.932 185.021 355.932 191.614C355.932 198.206 361.286 203.55 367.892 203.55Z" fill="#FFB8B8"/>
<path d="M373.896 177.224C378.96 177.322 382.976 182.01 382.867 187.695C386.614 191.598 385.375 196.373 382.244 201.48C376.516 202.143 375.179 202.42 370.155 204.465L369.493 201.378L367.993 205.398C366.717 205.985 365.45 206.63 364.192 207.332C363.289 203.195 363.513 199.175 365.941 195.673C368.099 192.561 362.848 188.868 359.093 189.39L359.148 186.532L358.205 189.373C356.742 190.446 355.123 190.058 353.462 189.282V189.282C350.77 175.317 371.615 171.497 373.896 177.224Z" fill="#2F2E41"/>
<path d="M295.946 336.976L292.112 336.476L291.901 332.775L289.676 336.159L279.508 334.833C279.021 334.77 278.567 334.552 278.212 334.213C277.857 333.874 277.62 333.43 277.536 332.947C277.452 332.463 277.525 331.966 277.744 331.527C277.963 331.088 278.317 330.73 278.754 330.506L287.606 325.968L288.084 322.316L296.557 323.938L295.946 336.976Z" fill="#2F2E41"/>
<path d="M323.781 334.869L319.947 335.362L318.796 331.837L317.509 335.675L307.339 336.981C306.852 337.043 306.357 336.949 305.927 336.711C305.498 336.473 305.155 336.104 304.95 335.659C304.745 335.213 304.688 334.713 304.788 334.233C304.888 333.753 305.139 333.317 305.504 332.989L312.904 326.348L312.433 322.695L321.04 322.107L323.781 334.869Z" fill="#2F2E41"/>
<path d="M341.35 222.436C342.766 222.528 344.089 223.168 345.039 224.22C345.989 225.272 346.491 226.652 346.437 228.067C346.421 228.354 346.382 228.64 346.319 228.921L362.395 239.029L353.508 242.952L339.604 232.752C338.457 232.402 337.458 231.683 336.763 230.707C336.069 229.731 335.717 228.553 335.764 227.357C335.797 226.676 335.964 226.009 336.256 225.393C336.547 224.777 336.957 224.224 337.463 223.767C337.968 223.309 338.559 222.955 339.202 222.725C339.844 222.495 340.526 222.394 341.208 222.427C341.255 222.429 341.303 222.432 341.35 222.436Z" fill="#FFB6B6"/>
<path d="M356.851 234.434L352.867 242.639L368.621 252.756C369.742 253.482 371.03 253.91 372.363 253.999C373.697 254.089 375.031 253.836 376.239 253.266C377.707 252.564 378.908 251.405 379.659 249.963C380.41 248.522 380.671 246.875 380.403 245.273L375.291 216.147C374.948 214.109 373.835 212.28 372.182 211.035C370.529 209.791 368.46 209.226 366.403 209.457C365.4 209.566 364.429 209.872 363.545 210.356C362.661 210.84 361.881 211.493 361.25 212.277C360.619 213.062 360.149 213.963 359.866 214.929C359.584 215.895 359.495 216.907 359.605 217.908C359.613 217.987 359.623 218.066 359.634 218.144C359.673 218.424 359.727 218.702 359.795 218.976L365.376 239.689L356.851 234.434Z" fill="#6C63FF"/>
<path d="M55.3984 232.852L60.4519 235.127L71.6495 216.757L64.1913 213.399L55.3984 232.852Z" fill="#A0616A"/>
<path d="M52.8418 238.033L68.3812 245.029L68.4699 244.833C69.1935 243.232 69.2503 241.41 68.6278 239.767C68.0053 238.124 66.7544 236.796 65.1504 236.073L65.1501 236.073L63.2832 232.646L57.0156 232.411L55.6591 231.8L52.8418 238.033Z" fill="#2F2E41"/>
<path d="M117.987 207.869L123.324 206.374L120.085 185.116L112.207 187.323L117.987 207.869Z" fill="#A0616A"/>
<path d="M119.362 213.479L135.775 208.881L135.716 208.673C135.241 206.982 134.111 205.549 132.577 204.689C131.043 203.829 129.229 203.613 127.535 204.087L127.534 204.087L123.898 202.657L118.943 206.495L117.51 206.896L119.362 213.479Z" fill="#2F2E41"/>
<path d="M37.2082 145.753C37.3447 149.694 45.7425 160.326 50.1592 161.851C50.9099 162.11 51.3487 162.253 51.3487 162.253L52.8859 161.789L71.5015 156.168C74.7612 158.082 84.485 159.055 92.4636 159.542C98.8139 159.928 102.354 163.241 102.354 163.241C104.227 177.461 109.628 187.828 115.857 200.569L123.331 199.271L116.27 151.812C116.117 150.787 115.666 149.83 114.973 149.059C114.28 148.287 113.375 147.736 112.371 147.474L61.5729 134.213C61.5729 134.213 58.7715 133.707 52.8631 136.552C43.1361 141.235 37.1107 142.886 37.2082 145.753Z" fill="#2F2E41"/>
<path d="M46.9134 144.991C45.2098 148.549 47.7344 161.851 50.9454 165.239L51.7977 165.818L52.0859 165.968C54.0121 172.47 74.6825 191.489 74.6825 191.489C67.7004 200.366 61.4782 211.196 58.7019 223.33L66.7752 226.274L89.5008 192.415C90.096 191.528 90.4084 190.482 90.3967 189.415C90.3849 188.347 90.0498 187.308 89.4352 186.435L80.1641 173.255L65.0572 144.05C54.2624 143.718 48.1546 142.403 46.9134 144.991Z" fill="#2F2E41"/>
<path d="M37.5114 147.303C37.4864 147.303 36.8947 145.757 36.8827 145.753C36.6815 145.697 33.9577 145.429 34.5703 140.928L35.354 135.975L34.5889 131.602L33.302 130.317L35.3703 128.253L34.1027 118.892L33.6161 100.148C32.3947 93.7094 32.7137 87.8207 38.6304 84.985L45.4137 78.7058L53.1323 78.6125L61.8893 83.7937L66.1321 92.2353L67.7777 115.113L69.0064 117.974L68.9012 118.069C68.8931 118.077 68.0745 118.816 67.7067 119.222C67.5286 119.474 67.8628 121.36 68.2755 122.961L68.8047 126.912L67.4711 127.864L69.205 129.908L73.9319 137.882L73.6487 137.811C73.3297 137.732 70.357 142.185 37.7299 147.137C37.5793 147.16 37.574 147.303 37.5114 147.303Z" fill="#3F3D56"/>
<path d="M74.8709 97.7906L72.1699 96.384C71.7461 96.1627 71.4276 95.7827 71.2842 95.3273C71.1409 94.872 71.1843 94.3784 71.4051 93.955L77.8719 81.5864C78.0936 81.1635 78.4743 80.8456 78.9306 80.7025C79.3869 80.5594 79.8814 80.6028 80.3056 80.8232L83.0066 82.2298C83.4304 82.4511 83.7489 82.8311 83.8923 83.2864C84.0357 83.7418 83.9922 84.2353 83.7714 84.6587L77.3047 97.0273C77.0829 97.4503 76.7022 97.7682 76.2459 97.9113C75.7897 98.0543 75.2951 98.011 74.8709 97.7906Z" fill="#3F3D56"/>
<path d="M79.6596 81.2894C79.431 81.1706 79.1645 81.1472 78.9187 81.2244C78.6728 81.3015 78.4676 81.4728 78.3481 81.7007L71.8814 94.0693C71.7624 94.2975 71.739 94.5634 71.8162 94.8088C71.8935 95.0542 72.0651 95.259 72.2935 95.3782L74.9945 96.7848C75.2231 96.9036 75.4896 96.9269 75.7355 96.8498C75.9813 96.7727 76.1865 96.6014 76.306 96.3735L82.7728 84.0049C82.8917 83.7767 82.9152 83.5108 82.8379 83.2654C82.7606 83.02 82.589 82.8152 82.3606 82.696L79.6596 81.2894Z" fill="#6C63FF"/>
<path d="M51.0125 76.9241C57.1075 76.9241 62.0485 71.9929 62.0485 65.9099C62.0485 59.827 57.1075 54.8958 51.0125 54.8958C44.9175 54.8958 39.9766 59.827 39.9766 65.9099C39.9766 71.9929 44.9175 76.9241 51.0125 76.9241Z" fill="#A0616A"/>
<path d="M45.5848 73.0039C45.101 72.6199 44.4974 72.4176 43.8794 72.4323C43.6877 72.4638 43.5048 72.5355 43.343 72.6428C43.1811 72.7501 43.0439 72.8904 42.9405 73.0546C42.883 73.1267 42.8084 73.1834 42.7234 73.2195C42.6384 73.2556 42.5457 73.27 42.4538 73.2613C41.2762 73.3041 38.7663 71.1238 38.5946 66.9171C38.5131 64.9178 37.3145 61.5347 39.2226 59.7025C39.3505 58.963 40.8404 51.3205 47.5566 51.1099C54.4325 50.8918 59.0097 52.2703 60.1093 54.8857C60.8729 56.9621 61.4534 59.1011 61.8442 61.2783L62.0748 62.5729L61.536 61.373C61.5259 61.3505 60.5433 59.2023 58.7211 58.4857C58.6915 58.8353 58.6024 59.1773 58.4577 59.4971C57.8631 60.7831 56.3642 61.6223 54.6391 61.6353C53.4471 61.5986 52.2717 61.3464 51.1699 60.8908C51.2947 61.0704 51.3647 61.2823 51.3716 61.5008C51.3784 61.7193 51.3219 61.9351 51.2086 62.1222C51.0954 62.3093 50.9304 62.4598 50.7334 62.5554C50.5365 62.6511 50.316 62.6878 50.0986 62.6612L49.7796 62.6216C49.6791 62.6091 49.5774 62.6321 49.4921 62.6866C49.4068 62.7411 49.3433 62.8237 49.3127 62.92C49.282 63.0164 49.2861 63.1204 49.3242 63.214C49.3624 63.3077 49.4322 63.385 49.5215 63.4327L49.8023 63.5825L49.4615 63.7471C48.0895 64.3579 46.959 65.4053 46.2468 66.7255C45.5346 68.0456 45.2807 69.5641 45.525 71.0435L45.9224 73.2744L45.5848 73.0039Z" fill="#2F2E41"/>
<path d="M220.315 243.199C220.013 243.212 219.715 243.133 219.459 242.972C219.204 242.811 219.005 242.575 218.888 242.297C218.772 242.019 218.743 241.712 218.808 241.417C218.872 241.122 219.025 240.854 219.247 240.65L219.348 240.249C219.335 240.217 219.322 240.185 219.308 240.153C219.004 239.436 218.495 238.825 217.844 238.397C217.193 237.968 216.429 237.741 215.65 237.744C214.87 237.746 214.108 237.979 213.46 238.413C212.813 238.846 212.308 239.461 212.009 240.18C210.815 243.05 209.295 245.924 208.921 248.958C208.756 250.299 208.826 251.659 209.127 252.976C206.323 246.872 204.867 240.237 204.857 233.522C204.857 231.837 204.951 230.153 205.138 228.479C205.294 227.106 205.509 225.743 205.784 224.389C207.287 217.047 210.514 210.164 215.199 204.308C217.467 203.073 219.301 201.174 220.454 198.866C220.872 198.037 221.167 197.152 221.33 196.238C221.075 196.271 220.815 196.292 220.559 196.309C220.479 196.313 220.395 196.317 220.316 196.322L220.286 196.323C220.004 196.336 219.726 196.267 219.483 196.125C219.24 195.983 219.043 195.774 218.916 195.523C218.79 195.273 218.738 194.991 218.769 194.711C218.799 194.432 218.909 194.167 219.087 193.949C219.197 193.814 219.307 193.678 219.418 193.543C219.586 193.333 219.758 193.128 219.926 192.919C219.945 192.899 219.963 192.878 219.98 192.856C220.173 192.618 220.366 192.383 220.559 192.145C220.207 191.599 219.733 191.142 219.175 190.809C217.242 189.679 214.574 190.462 213.178 192.207C211.777 193.953 211.513 196.401 211.999 198.582C212.478 200.437 213.269 202.198 214.339 203.789C214.235 203.922 214.126 204.052 214.021 204.186C212.104 206.646 210.434 209.287 209.033 212.072C209.374 208.952 208.968 205.796 207.848 202.864C206.712 200.131 204.585 197.829 202.711 195.466C200.461 192.629 195.846 193.867 195.45 197.464C195.446 197.499 195.442 197.534 195.438 197.569C195.717 197.726 195.989 197.892 196.255 198.068C196.59 198.291 196.85 198.61 197 198.983C197.15 199.356 197.184 199.766 197.097 200.158C197.009 200.55 196.806 200.907 196.512 201.182C196.218 201.457 195.848 201.637 195.45 201.698L195.409 201.704C195.508 202.705 195.683 203.697 195.933 204.672C196.657 207.392 197.936 209.934 199.691 212.138C201.445 214.342 203.637 216.16 206.128 217.479C206.292 217.563 206.451 217.647 206.615 217.726C205.208 221.705 204.325 225.85 203.989 230.056C203.799 232.538 203.81 235.031 204.023 237.511L204.01 237.423C203.473 234.665 202 232.177 199.837 230.379C196.626 227.746 192.089 226.777 188.625 224.66C188.257 224.425 187.829 224.299 187.391 224.298C186.954 224.297 186.525 224.42 186.156 224.654C185.787 224.889 185.492 225.223 185.307 225.619C185.122 226.015 185.054 226.455 185.112 226.888C185.116 226.919 185.121 226.949 185.126 226.98C185.642 227.19 186.145 227.432 186.631 227.704C186.91 227.861 187.182 228.027 187.449 228.203C187.783 228.426 188.043 228.745 188.193 229.118C188.343 229.491 188.377 229.901 188.29 230.293C188.203 230.686 187.999 231.043 187.705 231.317C187.411 231.592 187.041 231.772 186.643 231.833L186.602 231.839C186.573 231.844 186.547 231.848 186.518 231.852C187.401 233.955 188.639 235.89 190.179 237.574C192.082 239.611 194.382 241.24 196.938 242.359C199.493 243.478 202.251 244.064 205.042 244.082H205.046C205.804 247.368 206.901 250.566 208.321 253.625H220.022C220.064 253.495 220.102 253.361 220.139 253.231C219.056 253.299 217.969 253.235 216.902 253.039C217.77 251.976 218.638 250.904 219.506 249.841C219.526 249.821 219.544 249.8 219.561 249.778C220.001 249.234 220.446 248.694 220.886 248.15L220.886 248.15C220.91 246.482 220.718 244.818 220.316 243.199L220.315 243.199Z" fill="#E6E6E6"/>
<path d="M276.557 62.1254C276.783 62.3257 276.941 62.5905 277.011 62.8838C277.081 63.1771 277.059 63.4848 276.948 63.7652C276.837 64.0456 276.642 64.2852 276.39 64.4514C276.138 64.6176 275.841 64.7025 275.539 64.6946L275.187 64.9111C275.174 64.9434 275.161 64.9756 275.148 65.008C274.865 65.733 274.802 66.5255 274.969 67.286C275.135 68.0464 275.523 68.7408 276.083 69.2819C276.644 69.8231 277.352 70.1869 278.119 70.3277C278.886 70.4684 279.677 70.3798 280.394 70.073C283.256 68.8496 286.355 67.8499 288.744 65.9378C289.8 65.0921 290.701 64.0701 291.407 62.9172C289.146 69.2418 285.549 75.0073 280.86 79.8227C279.682 81.0299 278.437 82.1704 277.131 83.2388C276.06 84.1139 274.953 84.9401 273.809 85.7174C267.597 89.929 260.474 92.61 253.022 93.5403C250.535 92.845 247.893 92.9274 245.454 93.7765C244.575 94.0794 243.744 94.5078 242.988 95.0483C243.195 95.2025 243.396 95.3686 243.591 95.5348C243.651 95.5874 243.713 95.6428 243.774 95.6953L243.796 95.7152C244.006 95.9021 244.158 96.1456 244.232 96.4164C244.307 96.6871 244.302 96.9737 244.217 97.2416C244.132 97.5095 243.972 97.7472 243.755 97.9262C243.538 98.1051 243.274 98.2177 242.995 98.2503C242.821 98.2705 242.647 98.2907 242.473 98.3107C242.206 98.3437 241.94 98.3708 241.673 98.4038C241.645 98.4046 241.618 98.4069 241.59 98.4108C241.285 98.4473 240.983 98.4808 240.678 98.5172C240.549 99.1532 240.568 99.8103 240.735 100.437C241.33 102.593 243.787 103.891 246.008 103.614C248.231 103.34 250.133 101.77 251.31 99.8697C252.265 98.2077 252.929 96.3955 253.275 94.5109C253.444 94.488 253.613 94.4711 253.781 94.4482C256.874 94.0218 259.917 93.294 262.868 92.2752C260.442 94.2721 258.526 96.8153 257.277 99.6955C256.179 102.443 256.093 105.574 255.782 108.571C255.409 112.171 259.58 114.498 262.38 112.198C262.407 112.176 262.434 112.154 262.461 112.131C262.372 111.825 262.293 111.516 262.225 111.205C262.141 110.812 262.179 110.402 262.332 110.031C262.485 109.659 262.748 109.342 263.084 109.122C263.421 108.902 263.817 108.788 264.219 108.796C264.622 108.804 265.013 108.933 265.341 109.166L265.374 109.19C266.003 108.404 266.572 107.572 267.074 106.7C268.458 104.248 269.32 101.536 269.605 98.7358C269.89 95.9355 269.592 93.1066 268.73 90.4265C268.672 90.2526 268.616 90.0816 268.554 89.9107C272.345 88.0411 275.875 85.6876 279.058 82.9093C280.929 81.2646 282.665 79.4715 284.247 77.5476L284.194 77.6193C282.65 79.968 281.966 82.7765 282.256 85.5706C282.715 89.6928 285.286 93.5473 286.287 97.4759C286.385 97.9013 286.604 98.2897 286.916 98.5953C287.229 98.9008 287.623 99.1107 288.051 99.2003C288.479 99.2899 288.924 99.2555 289.333 99.101C289.742 98.9465 290.099 98.6784 290.36 98.3284C290.379 98.3031 290.397 98.2777 290.415 98.2523C290.192 97.7423 290.001 97.2188 289.843 96.6851C289.753 96.379 289.675 96.0701 289.607 95.7585C289.523 95.3654 289.56 94.9562 289.714 94.5845C289.867 94.2129 290.129 93.8962 290.466 93.6759C290.803 93.4555 291.199 93.3419 291.601 93.3498C292.004 93.3577 292.395 93.4868 292.723 93.7202L292.756 93.7441C292.78 93.7616 292.801 93.7761 292.825 93.7935C293.664 91.673 294.13 89.4243 294.204 87.1459C294.267 84.3612 293.759 81.5931 292.711 79.0114C291.664 76.4296 290.099 74.0886 288.112 72.1319L288.109 72.129C289.865 69.2483 291.315 66.1934 292.438 63.0135L284.058 54.863C283.938 54.9267 283.817 54.9964 283.699 55.063C284.522 55.7687 285.256 56.5724 285.883 57.4561C284.518 57.6127 283.147 57.7754 281.782 57.932C281.754 57.9327 281.726 57.935 281.699 57.9389C281.003 58.0219 280.307 58.0989 279.611 58.1818L279.611 58.1821C278.427 59.3601 277.401 60.6853 276.557 62.1249L276.557 62.1254Z" fill="#E6E6E6"/>
<path d="M74.8402 94.8119L64.2891 106.776L70.2808 112.537C70.2808 112.537 78.9712 98.3054 79.2601 97.755C80.0586 97.6413 80.8038 97.2884 81.3969 96.7428C81.9901 96.1973 82.4033 95.4849 82.582 94.6998C82.7606 93.9148 82.6963 93.0941 82.3974 92.3464C82.0986 91.5986 81.5793 90.9591 80.9083 90.5123C80.2374 90.0655 79.4463 89.8325 78.6397 89.8442C77.8332 89.8558 77.0492 90.1116 76.3915 90.5776C75.7338 91.0437 75.2333 91.698 74.9563 92.4541C74.6793 93.2101 74.6388 94.0323 74.8402 94.8119Z" fill="#A0616A"/>
<path d="M37.9844 87.5532C38.2017 100.041 47.6986 110.32 54.8955 121.593C55.9553 122.291 57.1496 122.762 58.4019 122.973C59.6543 123.185 60.9371 123.134 62.1685 122.823C63.3998 122.512 64.5525 121.947 65.5529 121.166C66.5533 120.385 67.3794 119.404 67.9784 118.286L74.2897 106.658L66.2576 104.414L61.9968 107.204L53.1083 96.787L37.9844 87.5532Z" fill="#3F3D56"/>
</g>
<defs>
<clipPath id="clip0_257_610">
<rect width="435" height="337" fill="white"/>
</clipPath>
</defs>
</svg>
