<svg width="316" height="305" viewBox="0 0 316 305" fill="none" xmlns="http://www.w3.org/2000/svg">
<g clip-path="url(#clip0_267_338)">
<path d="M221.764 303.971C221.434 304.317 221.09 304.658 220.742 305H181.06C180.734 304.667 180.412 304.325 180.09 303.971C180.077 303.958 180.064 303.94 180.051 303.927C175.74 299.178 173.026 292.274 171.334 284.995C171.225 284.553 171.129 284.108 171.034 283.658C170.59 281.612 170.229 279.544 169.933 277.494C169.881 277.139 169.829 276.785 169.785 276.43C169.385 273.484 169.115 270.586 168.941 267.866C168.92 267.515 168.898 267.173 168.876 266.832C168.557 261.415 168.554 255.985 168.867 250.568C168.867 250.568 168.92 250.568 169.02 250.572C169.311 250.585 170.011 250.615 171.042 250.676C173.883 250.849 179.242 251.282 185.545 252.302C185.889 252.359 186.237 252.419 186.585 252.48C191.917 253.356 197.176 254.622 202.319 256.269C202.641 256.377 202.959 256.485 203.281 256.593L203.285 256.615L207.231 276.3L208.866 258.778C210.167 259.362 211.433 259.984 212.647 260.651C212.986 260.837 213.317 261.023 213.643 261.213C216.417 262.776 218.936 264.751 221.112 267.07C234.053 281.331 231.282 294.078 221.764 303.971Z" fill="#F2F2F2"/>
<path d="M205.182 279.009L205.87 279.767C213.822 288.616 218.567 296.83 220.029 304.301C220.053 304.409 220.069 304.517 220.092 304.626L219.583 304.722L219.093 304.808C217.601 296.663 212.045 288.243 205.112 280.523C204.891 280.272 204.666 280.017 204.434 279.769C201.47 276.526 198.283 273.416 195.061 270.507C194.813 270.28 194.559 270.052 194.304 269.825C190.031 266.008 185.731 262.554 181.897 259.643C181.627 259.437 181.353 259.233 181.083 259.033C174.573 254.133 169.522 250.884 168.396 250.172C168.26 250.083 168.183 250.036 168.166 250.025L168.432 249.602L168.433 249.594L168.703 249.168C168.72 249.18 168.979 249.336 169.445 249.639C171.198 250.762 175.908 253.853 181.767 258.248C182.031 258.448 182.305 258.651 182.575 258.858C185.689 261.217 189.094 263.921 192.534 266.879C193.399 267.621 194.242 268.362 195.065 269.101C195.323 269.326 195.578 269.553 195.825 269.781C199.309 272.924 202.428 276 205.182 279.009Z" fill="white"/>
<path d="M185.92 251.463C185.803 251.744 185.677 252.026 185.546 252.302C184.553 254.44 183.282 256.44 181.766 258.25C181.544 258.51 181.318 258.773 181.083 259.033C180.448 259.729 179.772 260.403 179.056 261.053C176.125 263.691 172.651 265.663 168.877 266.832C168.755 266.871 168.638 266.91 168.516 266.944C168.537 267.286 168.559 267.623 168.581 267.974C168.703 267.939 168.82 267.905 168.942 267.866C172.947 266.665 176.634 264.593 179.735 261.801C180.493 261.12 181.214 260.399 181.897 259.643C182.131 259.388 182.358 259.124 182.575 258.86C184.196 256.923 185.545 254.777 186.586 252.48C186.708 252.203 186.829 251.926 186.947 251.645C186.599 251.584 186.255 251.524 185.92 251.463Z" fill="white"/>
<path d="M202.498 255.503C202.445 255.759 202.384 256.014 202.319 256.269C201.14 261.131 198.628 265.574 195.063 269.103C194.815 269.349 194.563 269.591 194.302 269.825C194.228 269.899 194.145 269.976 194.067 270.046C190.824 272.957 186.928 275.055 182.705 276.166C178.481 277.276 174.051 277.367 169.785 276.43C169.685 276.413 169.581 276.387 169.48 276.365C169.533 276.72 169.581 277.079 169.637 277.434C169.737 277.455 169.833 277.477 169.933 277.494C174.307 278.394 178.833 278.256 183.144 277.092C187.455 275.928 191.43 273.77 194.746 270.794C194.85 270.699 194.959 270.608 195.059 270.508C195.32 270.266 195.572 270.024 195.825 269.782C199.473 266.152 202.053 261.598 203.285 256.615C203.35 256.355 203.411 256.096 203.468 255.836C203.146 255.724 202.824 255.611 202.498 255.503Z" fill="white"/>
<path d="M212.647 259.92C212.651 260.162 212.651 260.408 212.647 260.651C212.574 267.487 209.908 274.043 205.182 279.008C204.938 279.268 204.686 279.519 204.434 279.769C204.159 280.033 203.885 280.297 203.603 280.548C199.227 284.47 193.699 286.889 187.834 287.449C181.97 288.009 176.08 286.68 171.034 283.658C170.947 283.613 170.863 283.564 170.781 283.511C170.886 283.969 170.99 284.419 171.103 284.869C171.181 284.912 171.255 284.956 171.334 284.995C176.527 287.874 182.495 289.066 188.403 288.403C194.312 287.741 199.864 285.257 204.281 281.301C204.564 281.045 204.847 280.79 205.112 280.522C205.373 280.275 205.621 280.025 205.869 279.765C210.662 274.739 213.429 268.136 213.643 261.213C213.651 260.979 213.656 260.746 213.656 260.512C213.325 260.309 212.986 260.114 212.647 259.92Z" fill="white"/>
<path d="M124.702 71.621H48.2342C47.5978 71.6202 46.9877 71.3686 46.5378 70.9211C46.0878 70.4737 45.8347 69.8671 45.834 69.2343V11.4996C45.8347 10.8669 46.0878 10.2602 46.5377 9.81273C46.9877 9.36526 47.5978 9.11355 48.2342 9.11279H142.095C142.731 9.11355 143.342 9.36526 143.792 9.81273C144.242 10.2602 144.495 10.8669 144.495 11.4996V51.9399C144.489 57.1578 142.402 62.1604 138.692 65.85C134.981 69.5396 129.95 71.6151 124.702 71.621Z" fill="white"/>
<path d="M124.703 71.8372H48.2349C47.5409 71.8364 46.8755 71.5619 46.3848 71.0739C45.8941 70.586 45.618 69.9244 45.6172 69.2343V11.4996C45.618 10.8095 45.894 10.1479 46.3847 9.65985C46.8755 9.17184 47.5408 8.89731 48.2349 8.89648H142.096C142.79 8.89728 143.455 9.17179 143.946 9.65981C144.437 10.1478 144.713 10.8095 144.714 11.4996V51.9399C144.707 57.2151 142.597 62.2726 138.846 66.0028C135.095 69.733 130.008 71.8312 124.703 71.8372ZM48.2349 9.76158C47.7715 9.76215 47.3273 9.94545 46.9996 10.2713C46.672 10.5971 46.4877 11.0388 46.4872 11.4996V69.2343C46.4877 69.695 46.672 70.1367 46.9997 70.4625C47.3273 70.7883 47.7715 70.9716 48.2349 70.9721H124.703C129.778 70.9664 134.643 68.9594 138.231 65.3914C141.819 61.8234 143.838 56.9858 143.843 51.9399V11.4996C143.843 11.0388 143.659 10.5971 143.331 10.2713C143.003 9.94545 142.559 9.76215 142.096 9.76158H48.2349Z" fill="#CCCCCC"/>
<path d="M123.542 28.6107H66.7888C66.2677 28.6107 65.768 28.4049 65.3996 28.0386C65.0312 27.6722 64.8242 27.1754 64.8242 26.6573C64.8242 26.1392 65.0312 25.6423 65.3996 25.276C65.768 24.9097 66.2677 24.7039 66.7888 24.7039H123.542C124.062 24.7046 124.561 24.9108 124.929 25.277C125.297 25.6433 125.503 26.1397 125.503 26.6573C125.503 27.1749 125.297 27.6713 124.929 28.0375C124.561 28.4038 124.062 28.6099 123.542 28.6107Z" fill="#CCCCCC"/>
<path d="M123.542 42.0677H66.7888C66.2677 42.0677 65.768 41.8619 65.3996 41.4956C65.0312 41.1293 64.8242 40.6324 64.8242 40.1143C64.8242 39.5962 65.0312 39.0994 65.3996 38.733C65.768 38.3667 66.2677 38.1609 66.7888 38.1609H123.542C124.063 38.1609 124.563 38.3667 124.931 38.733C125.299 39.0994 125.506 39.5962 125.506 40.1143C125.506 40.6324 125.299 41.1293 124.931 41.4956C124.563 41.8619 124.063 42.0677 123.542 42.0677Z" fill="#CCCCCC"/>
<path d="M123.542 55.9093H66.7888C66.2677 55.9093 65.768 55.7035 65.3996 55.3371C65.0312 54.9708 64.8242 54.4739 64.8242 53.9559C64.8242 53.4378 65.0312 52.9409 65.3996 52.5746C65.768 52.2082 66.2677 52.0024 66.7888 52.0024H123.542C124.063 52.0024 124.563 52.2082 124.931 52.5746C125.299 52.9409 125.506 53.4378 125.506 53.9559C125.506 54.4739 125.299 54.9708 124.931 55.3371C124.563 55.7035 124.063 55.9093 123.542 55.9093Z" fill="#CCCCCC"/>
<path d="M141.392 23.3305C147.871 23.3305 153.123 18.1078 153.123 11.6652C153.123 5.2227 147.871 0 141.392 0C134.913 0 129.66 5.2227 129.66 11.6652C129.66 18.1078 134.913 23.3305 141.392 23.3305Z" fill="#6C63FF"/>
<path d="M139.791 17.7364C139.588 17.7364 139.388 17.6895 139.207 17.5994C139.026 17.5093 138.868 17.3784 138.747 17.2172L135.546 12.9739C135.443 12.8376 135.368 12.6825 135.326 12.5174C135.283 12.3523 135.274 12.1805 135.298 12.0119C135.323 11.8432 135.38 11.6809 135.467 11.5343C135.555 11.3876 135.67 11.2596 135.807 11.1573C135.944 11.0551 136.1 10.9807 136.266 10.9384C136.432 10.8961 136.605 10.8868 136.775 10.9109C136.944 10.935 137.108 10.9921 137.255 11.0789C137.402 11.1657 137.531 11.2806 137.634 11.4169L139.728 14.1928L145.106 6.17159C145.298 5.88523 145.596 5.68645 145.936 5.61895C146.275 5.55146 146.628 5.62079 146.916 5.81169C147.204 6.00259 147.403 6.29942 147.471 6.63689C147.539 6.97436 147.47 7.32482 147.278 7.61117L140.876 17.1585C140.761 17.3312 140.605 17.4737 140.422 17.5742C140.24 17.6747 140.035 17.7302 139.827 17.736C139.815 17.7362 139.803 17.7364 139.791 17.7364Z" fill="white"/>
<path d="M96.4779 121.766H20.0097C14.7621 121.76 9.73114 119.685 6.02054 115.995C2.30993 112.306 0.222717 107.303 0.216797 102.085V61.6447C0.217544 61.0119 0.470684 60.4052 0.920685 59.9577C1.37069 59.5103 1.9808 59.2586 2.6172 59.2578H96.4779C97.1143 59.2586 97.7244 59.5103 98.1744 59.9577C98.6244 60.4052 98.8776 61.0119 98.8783 61.6447V119.379C98.8776 120.012 98.6244 120.619 98.1744 121.066C97.7244 121.514 97.1143 121.765 96.4779 121.766Z" fill="white"/>
<path d="M96.4786 121.982H20.0104C14.7052 121.976 9.61894 119.878 5.86757 116.148C2.1162 112.418 0.0060319 107.36 0 102.085V61.6446C0.000786373 60.9545 0.276855 60.2928 0.767637 59.8048C1.25842 59.3168 1.92384 59.0423 2.61791 59.0415H96.4786C97.1727 59.0423 97.8381 59.3168 98.3289 59.8048C98.8197 60.2928 99.0957 60.9545 99.0965 61.6446V119.379C99.0957 120.069 98.8197 120.731 98.3289 121.219C97.8381 121.707 97.1727 121.982 96.4786 121.982ZM2.61791 59.9066C2.15451 59.9072 1.71025 60.0905 1.38258 60.4163C1.05491 60.7421 0.870575 61.1838 0.870017 61.6446V102.085C0.875748 107.131 2.89416 111.969 6.48243 115.537C10.0707 119.105 14.9358 121.112 20.0104 121.117H96.4786C96.942 121.117 97.3863 120.934 97.714 120.608C98.0417 120.282 98.226 119.84 98.2265 119.379V61.6446C98.226 61.1838 98.0416 60.7421 97.714 60.4163C97.3863 60.0905 96.942 59.9072 96.4786 59.9066H2.61791Z" fill="#CCCCCC"/>
<path d="M77.9247 78.7557H21.1716C20.6505 78.7557 20.1508 78.5499 19.7824 78.1836C19.414 77.8173 19.207 77.3204 19.207 76.8023C19.207 76.2842 19.414 75.7874 19.7824 75.421C20.1508 75.0547 20.6505 74.8489 21.1716 74.8489H77.9247C78.4457 74.8489 78.9454 75.0547 79.3138 75.421C79.6822 75.7874 79.8892 76.2842 79.8892 76.8023C79.8892 77.3204 79.6822 77.8173 79.3138 78.1836C78.9454 78.5499 78.4457 78.7557 77.9247 78.7557Z" fill="#CCCCCC"/>
<path d="M77.9247 92.2128H21.1716C20.6505 92.2128 20.1508 92.007 19.7824 91.6406C19.414 91.2743 19.207 90.7774 19.207 90.2593C19.207 89.7413 19.414 89.2444 19.7824 88.8781C20.1508 88.5117 20.6505 88.3059 21.1716 88.3059H77.9247C78.4457 88.3059 78.9454 88.5117 79.3138 88.8781C79.6822 89.2444 79.8892 89.7413 79.8892 90.2593C79.8892 90.7774 79.6822 91.2743 79.3138 91.6406C78.9454 92.007 78.4457 92.2128 77.9247 92.2128Z" fill="#CCCCCC"/>
<path d="M77.9247 106.054H21.1716C20.6505 106.054 20.1508 105.849 19.7824 105.482C19.414 105.116 19.207 104.619 19.207 104.101C19.207 103.583 19.414 103.086 19.7824 102.72C20.1508 102.353 20.6505 102.148 21.1716 102.148H77.9247C78.4457 102.148 78.9454 102.353 79.3138 102.72C79.6822 103.086 79.8892 103.583 79.8892 104.101C79.8892 104.619 79.6822 105.116 79.3138 105.482C78.9454 105.849 78.4457 106.054 77.9247 106.054Z" fill="#CCCCCC"/>
<path d="M96.585 73.9389C103.064 73.9389 108.317 68.7162 108.317 62.2736C108.317 55.8311 103.064 50.6084 96.585 50.6084C90.1059 50.6084 84.8535 55.8311 84.8535 62.2736C84.8535 68.7162 90.1059 73.9389 96.585 73.9389Z" fill="#6C63FF"/>
<path d="M94.9839 68.3448C94.7813 68.3448 94.5815 68.2979 94.4003 68.2078C94.2191 68.1177 94.0615 67.9868 93.94 67.8256L90.7395 63.5823C90.6367 63.446 90.5619 63.2909 90.5193 63.1258C90.4768 62.9607 90.4674 62.7889 90.4916 62.6203C90.5159 62.4516 90.5733 62.2893 90.6606 62.1427C90.7479 61.996 90.8634 61.868 91.0005 61.7657C91.1376 61.6635 91.2936 61.5891 91.4596 61.5468C91.6256 61.5045 91.7984 61.4952 91.968 61.5193C92.1377 61.5434 92.3009 61.6005 92.4483 61.6873C92.5958 61.7741 92.7246 61.889 92.8274 62.0253L94.9213 64.8012L100.299 56.78C100.491 56.4936 100.79 56.2948 101.129 56.2274C101.469 56.1599 101.821 56.2292 102.109 56.4201C102.397 56.611 102.597 56.9078 102.665 57.2453C102.733 57.5828 102.663 57.9332 102.471 58.2196L96.0698 67.7669C95.954 67.9396 95.7983 68.0821 95.6157 68.1826C95.433 68.2831 95.2289 68.3386 95.0202 68.3444C95.0081 68.3446 94.996 68.3448 94.9839 68.3448Z" fill="white"/>
<path d="M191.756 175.581H84.7597C79.5121 175.575 74.4811 173.5 70.7705 169.81C67.0599 166.12 64.9727 161.118 64.9668 155.9V96.4184C64.9677 95.6027 65.294 94.8207 65.8741 94.244C66.4541 93.6672 67.2406 93.3427 68.0609 93.3418H191.756C192.576 93.3427 193.363 93.6672 193.943 94.244C194.523 94.8208 194.849 95.6028 194.85 96.4184V172.504C194.849 173.32 194.523 174.102 193.943 174.679C193.363 175.256 192.576 175.58 191.756 175.581Z" fill="white"/>
<path d="M191.757 175.797H84.7604C79.4552 175.791 74.3689 173.693 70.6176 169.963C66.8662 166.233 64.756 161.175 64.75 155.9V96.4184C64.751 95.5454 65.1002 94.7084 65.721 94.091C66.3419 93.4737 67.1836 93.1265 68.0616 93.1255H191.757C192.635 93.1265 193.476 93.4738 194.097 94.0911C194.718 94.7084 195.067 95.5454 195.068 96.4184V172.504C195.067 173.377 194.718 174.214 194.097 174.832C193.476 175.449 192.635 175.796 191.757 175.797ZM68.0616 93.9906C67.4143 93.9913 66.7937 94.2474 66.336 94.7025C65.8783 95.1577 65.6208 95.7747 65.62 96.4184V155.9C65.6257 160.946 67.6442 165.783 71.2324 169.351C74.8207 172.919 79.6858 174.926 84.7604 174.932H191.757C192.404 174.931 193.025 174.675 193.482 174.22C193.94 173.765 194.197 173.148 194.198 172.504V96.4184C194.197 95.7748 193.94 95.1577 193.482 94.7025C193.025 94.2474 192.404 93.9914 191.757 93.9906H68.0616Z" fill="#CCCCCC"/>
<path d="M167.305 118.969H92.5122C92.172 118.969 91.835 118.903 91.5205 118.774C91.206 118.644 90.9202 118.455 90.6794 118.216C90.4386 117.977 90.2476 117.693 90.1173 117.38C89.987 117.068 89.9199 116.733 89.9199 116.394C89.9199 116.056 89.987 115.721 90.1173 115.408C90.2476 115.096 90.4386 114.812 90.6794 114.573C90.9202 114.334 91.206 114.144 91.5205 114.015C91.835 113.886 92.172 113.819 92.5122 113.82H167.305C167.645 113.819 167.982 113.886 168.296 114.015C168.611 114.144 168.897 114.334 169.137 114.573C169.378 114.812 169.569 115.096 169.7 115.408C169.83 115.721 169.897 116.056 169.897 116.394C169.897 116.733 169.83 117.068 169.7 117.38C169.569 117.693 169.378 117.977 169.137 118.216C168.897 118.455 168.611 118.644 168.296 118.774C167.982 118.903 167.645 118.969 167.305 118.969Z" fill="#CCCCCC"/>
<path d="M167.305 136.703H92.5122C92.172 136.703 91.835 136.637 91.5205 136.508C91.206 136.379 90.9202 136.189 90.6794 135.95C90.4386 135.711 90.2476 135.427 90.1173 135.114C89.987 134.802 89.9199 134.467 89.9199 134.129C89.9199 133.79 89.987 133.455 90.1173 133.143C90.2476 132.83 90.4386 132.546 90.6794 132.307C90.9202 132.068 91.206 131.878 91.5205 131.749C91.835 131.62 92.172 131.554 92.5122 131.554H167.305C167.991 131.554 168.65 131.825 169.135 132.308C169.621 132.791 169.894 133.446 169.894 134.129C169.894 134.811 169.621 135.466 169.135 135.949C168.65 136.432 167.991 136.703 167.305 136.703Z" fill="#CCCCCC"/>
<path d="M167.305 154.944H92.5128C91.8262 154.944 91.1676 154.673 90.6821 154.19C90.1966 153.707 89.9238 153.052 89.9238 152.37C89.9238 151.687 90.1966 151.032 90.6821 150.549C91.1676 150.067 91.8262 149.795 92.5128 149.795H167.305C167.645 149.795 167.982 149.861 168.297 149.99C168.611 150.12 168.897 150.309 169.138 150.548C169.379 150.787 169.57 151.071 169.7 151.384C169.83 151.696 169.898 152.031 169.898 152.37C169.898 152.708 169.83 153.043 169.7 153.356C169.57 153.668 169.379 153.952 169.138 154.191C168.897 154.43 168.611 154.62 168.297 154.749C167.982 154.878 167.645 154.945 167.305 154.944Z" fill="#CCCCCC"/>
<path d="M192.146 112.765C200.347 112.765 206.996 106.154 206.996 97.9982C206.996 89.8428 200.347 83.2314 192.146 83.2314C183.944 83.2314 177.295 89.8428 177.295 97.9982C177.295 106.154 183.944 112.765 192.146 112.765Z" fill="#6C63FF"/>
<path d="M190.119 105.684C189.863 105.684 189.61 105.624 189.381 105.51C189.151 105.396 188.952 105.23 188.798 105.026L184.746 99.6549C184.616 99.4823 184.522 99.2859 184.468 99.077C184.414 98.868 184.402 98.6506 184.433 98.437C184.463 98.2235 184.536 98.018 184.647 97.8324C184.757 97.6468 184.903 97.4847 185.077 97.3553C185.25 97.2259 185.448 97.1317 185.658 97.0782C185.868 97.0247 186.087 97.0128 186.302 97.0433C186.516 97.0738 186.723 97.1461 186.91 97.256C187.096 97.3659 187.259 97.5113 187.389 97.6839L190.04 101.198L196.848 91.0439C197.091 90.6821 197.469 90.431 197.898 90.3459C198.328 90.2608 198.773 90.3486 199.138 90.5901C199.502 90.8316 199.755 91.2069 199.841 91.6337C199.927 92.0605 199.839 92.5038 199.597 92.8663L191.494 104.952C191.347 105.171 191.15 105.351 190.919 105.478C190.688 105.605 190.429 105.676 190.165 105.683C190.15 105.683 190.135 105.684 190.119 105.684Z" fill="white"/>
<path d="M230.618 293.211L224.576 295.22L213.906 273.003L222.824 270.038L230.618 293.211Z" fill="#FFB6B6"/>
<path d="M234.118 298.522L214.636 303.703L214.554 303.458C213.876 301.444 214.028 300.586 214.982 298.685C215.448 297.749 216.096 296.915 216.889 296.23C217.682 295.545 218.603 295.023 219.6 294.694L219.601 294.694L222.256 290.826L229.799 291.302L231.5 290.737L234.118 298.522Z" fill="#2F2E41"/>
<path d="M245.544 298.86H239.174L236.143 274.425L245.546 274.425L245.544 298.86Z" fill="#FFB6B6"/>
<path d="M247.17 303.703L226.627 303.702V303.444C226.627 301.32 227.459 300.621 228.969 299.12C229.71 298.379 230.591 297.792 231.561 297.392C232.532 296.993 233.572 296.788 234.623 296.791H234.623L238.376 293.96L245.377 296.792L247.17 296.792L247.17 303.703Z" fill="#2F2E41"/>
<path d="M197.059 103.084C197.19 103.747 197.466 104.374 197.867 104.921C198.268 105.467 198.785 105.919 199.381 106.245C199.977 106.571 200.638 106.763 201.316 106.808C201.995 106.853 202.675 106.749 203.31 106.504L210.664 114.139L216.421 110.827L205.882 100.189C205.398 99.1573 204.549 98.3379 203.498 97.8865C202.446 97.435 201.265 97.3827 200.177 97.7395C199.09 98.0963 198.172 98.8374 197.597 99.8223C197.022 100.807 196.83 101.968 197.059 103.084Z" fill="#FFB6B6"/>
<path d="M244.658 141.475L247.974 138.064L228.799 120.406L209.501 103.272L204.156 110.782L224.379 129.552L244.658 141.475Z" fill="#E4E4E4"/>
<path d="M232.877 257.356C232.877 253.069 232.962 250.012 233.031 247.555C233.231 240.364 233.285 238.431 230.518 226.049L229.807 222.869L225.616 235.371C224.277 239.359 223.593 243.536 223.59 247.74L230.052 286.294H216.844L207.171 244.613L207.167 231.864C206.314 230.987 205.838 229.815 205.838 228.596C205.838 227.376 206.314 226.204 207.167 225.327L210.38 206.226L213.633 180.484H249.264C249.264 180.484 255.552 193.444 249.303 206.299L249.302 257.372L246.073 292.685H236.106L232.877 257.356Z" fill="#2F2E41"/>
<path d="M247.084 183.6L213.757 180.838L213.584 180.824L216.244 133.22C216.4 130.227 217.456 127.35 219.276 124.96C221.095 122.57 223.594 120.779 226.448 119.817V116.486C226.449 115.661 226.779 114.871 227.366 114.288C227.952 113.705 228.747 113.377 229.576 113.376H234.446C235.027 113.374 235.597 113.534 236.092 113.838C236.586 114.142 236.985 114.577 237.243 115.095L239.624 119.83L248.628 126.993C253.075 130.531 249.496 165.999 249.304 167.87L251.481 178.697C251.601 179.293 251.587 179.908 251.439 180.497C251.291 181.086 251.014 181.636 250.628 182.106C250.241 182.576 249.754 182.955 249.203 183.216C248.651 183.477 248.048 183.613 247.437 183.615C247.32 183.614 247.203 183.609 247.084 183.6Z" fill="#E4E4E4"/>
<path d="M211.791 196.169C212.318 195.741 212.744 195.203 213.04 194.594C213.335 193.985 213.493 193.319 213.501 192.642C213.509 191.966 213.369 191.296 213.088 190.68C212.808 190.063 212.396 189.515 211.879 189.075L215.186 179.026L209.535 175.539L205.066 189.795C204.379 190.706 204.052 191.836 204.147 192.971C204.242 194.106 204.752 195.166 205.581 195.952C206.41 196.738 207.5 197.194 208.645 197.234C209.79 197.274 210.909 196.895 211.791 196.169Z" fill="#FFB6B6"/>
<path d="M223.414 127.857L218.826 126.336L212.199 155.735L206.096 184.973L215.276 186.316L222.395 155.228L223.414 127.857Z" fill="#E4E4E4"/>
<path d="M228.424 110.333C234.469 110.333 239.37 105.46 239.37 99.4491C239.37 93.4381 234.469 88.5652 228.424 88.5652C222.379 88.5652 217.479 93.4381 217.479 99.4491C217.479 105.46 222.379 110.333 228.424 110.333Z" fill="#FFB6B6"/>
<path d="M213.698 94.119C213.799 93.0875 214.096 92.0845 214.574 91.1635C215.085 92.2699 216.681 92.4619 217.774 91.9112C218.866 91.3606 219.598 90.3147 220.379 89.3764C222.439 86.9004 225.272 84.8919 228.483 84.5261C231.693 84.1603 235.232 85.7718 236.445 88.7503C236.99 87.9987 238.151 87.9151 238.973 88.3519C239.767 88.8495 240.386 89.5791 240.746 90.4406C241.554 92.0891 242.011 93.8859 242.087 95.7183C242.164 97.5506 241.859 99.3789 241.191 101.088C239.839 104.49 236.501 109.074 233.056 110.358C230.965 111.137 228.853 110.139 226.628 110.358C226.745 107.944 227.215 104.966 227.332 102.553C227.396 101.231 227.405 99.752 226.497 98.7845C226.219 98.5216 225.885 98.3228 225.521 98.2021C225.157 98.0814 224.77 98.0417 224.389 98.086C224.007 98.1303 223.64 98.2574 223.314 98.4583C222.987 98.6592 222.709 98.929 222.499 99.2486C222.386 98.4982 222.131 97.7758 221.748 97.12C221.551 96.7948 221.267 96.5308 220.927 96.3578C220.587 96.1847 220.206 96.1095 219.825 96.1406C218.897 96.292 218.323 97.2399 217.471 97.6368C216.987 97.8297 216.455 97.871 215.947 97.7551C215.438 97.6392 214.978 97.3717 214.627 96.9883C214.286 96.5969 214.028 96.141 213.868 95.6479C213.708 95.1549 213.65 94.6349 213.698 94.119Z" fill="#2F2E41"/>
<path opacity="0.1" d="M229.841 155.097L216.986 180.661H226.628L229.841 155.097Z" fill="black"/>
<path d="M316 304.485C316.001 304.553 315.987 304.62 315.961 304.682C315.935 304.745 315.897 304.802 315.849 304.85C315.801 304.897 315.744 304.935 315.681 304.961C315.618 304.987 315.551 305 315.483 305H70.0118C69.8745 305 69.7428 304.946 69.6458 304.849C69.5487 304.753 69.4941 304.622 69.4941 304.485C69.4941 304.349 69.5487 304.218 69.6458 304.121C69.7428 304.025 69.8745 303.97 70.0118 303.97H315.483C315.551 303.97 315.618 303.983 315.681 304.009C315.744 304.035 315.801 304.073 315.849 304.121C315.897 304.169 315.935 304.225 315.961 304.288C315.987 304.351 316.001 304.418 316 304.485Z" fill="#CACACA"/>
</g>
<defs>
<clipPath id="clip0_267_338">
<rect width="316" height="305" fill="white"/>
</clipPath>
</defs>
</svg>
