<svg width="22" height="18" viewBox="0 0 22 18" fill="none" xmlns="http://www.w3.org/2000/svg">
<path fill-rule="evenodd" clip-rule="evenodd" d="M16.0646 0.174643C16.3371 0.361031 16.5 0.669883 16.5 1.00001V17C16.5 17.3301 16.3371 17.639 16.0646 17.8254C15.7921 18.0118 15.4452 18.0517 15.1376 17.932L6.31239 14.5H1C0.447715 14.5 0 14.0523 0 13.5V4.5C0 3.94772 0.447715 3.5 1 3.5H6.31241L15.1376 0.0680005C15.4452 -0.0516512 15.7921 -0.0117455 16.0646 0.174643ZM14.5 15.5382L7.5 12.8159V5.18407L14.5 2.46185V15.5382ZM2 5.5V12.5H5.5V5.5H2Z" fill="#5276F9"/>
<path d="M19 4.5C18.4477 4.5 18 4.94772 18 5.5C18 6.05228 18.4477 6.5 19 6.5H20C20.5523 6.5 21 6.05228 21 5.5C21 4.94772 20.5523 4.5 20 4.5H19Z" fill="#5276F9"/>
<path d="M17.5 9.5C17.5 8.94771 17.9477 8.5 18.5 8.5H21C21.5523 8.5 22 8.94771 22 9.5C22 10.0523 21.5523 10.5 21 10.5H18.5C17.9477 10.5 17.5 10.0523 17.5 9.5Z" fill="#5276F9"/>
<path d="M19 12.5C18.4477 12.5 18 12.9477 18 13.5C18 14.0523 18.4477 14.5 19 14.5H20C20.5523 14.5 21 14.0523 21 13.5C21 12.9477 20.5523 12.5 20 12.5H19Z" fill="#5276F9"/>
</svg>
