<svg width="199" height="199" viewBox="0 0 199 199" fill="none" xmlns="http://www.w3.org/2000/svg">
<path d="M30.3357 107.687C-7.87231 127.985 -7.87231 160.848 30.3357 181.126C68.5437 201.404 130.469 201.424 168.665 181.126C206.861 160.828 206.873 127.969 168.665 107.687C130.457 87.4048 68.5317 87.4088 30.3357 107.687Z" fill="#FAFAFA"/>
<path d="M31.8315 143.817C43.1077 143.817 52.2489 138.539 52.2489 132.029C52.2489 125.518 43.1077 120.24 31.8315 120.24C20.5552 120.24 11.4141 125.518 11.4141 132.029C11.4141 138.539 20.5552 143.817 31.8315 143.817Z" fill="#E0E0E0"/>
<path d="M138.11 186.889L121.792 177.48C120.996 177.03 120.996 176.286 121.792 175.852L168.016 149.162C168.453 148.941 168.935 148.825 169.425 148.825C169.915 148.825 170.397 148.941 170.834 149.162L187.152 158.571C187.928 159.021 187.928 159.765 187.152 160.199L140.92 186.889C140.484 187.109 140.003 187.223 139.515 187.223C139.027 187.223 138.546 187.109 138.11 186.889Z" fill="#E0E0E0"/>
<path d="M184.951 133.087L80.9019 193.321C80.5137 193.519 80.0841 193.622 79.6482 193.622C79.2124 193.622 78.7828 193.519 78.3945 193.321L15.5663 156.951C14.8737 156.553 14.8737 155.901 15.5663 155.503L119.798 95.321C120.187 95.125 120.617 95.0229 121.052 95.0229C121.488 95.0229 121.917 95.125 122.306 95.321L184.951 131.638C185.644 132.036 185.644 132.689 184.951 133.087Z" fill="#E0E0E0"/>
<path d="M189.945 98.2781L159.963 115.683C159.575 115.881 159.146 115.984 158.71 115.984C158.274 115.984 157.844 115.881 157.456 115.683L117.238 92.3599C116.546 91.9619 116.546 91.3092 117.238 90.9072L147.407 73.5544C147.795 73.3584 148.225 73.2563 148.66 73.2563C149.096 73.2563 149.525 73.3584 149.914 73.5544L189.945 96.8215C190.645 97.2274 190.645 97.8801 189.945 98.2781Z" fill="#E0E0E0"/>
<path d="M46.1328 77.9085C46.0162 77.5694 45.9609 77.2123 45.9696 76.8538C45.9799 76.5233 46.0614 76.1988 46.2084 75.9026C46.3701 75.5948 46.5937 75.3238 46.8651 75.1066C47.5755 74.5722 48.4325 74.268 49.3208 74.235C49.6575 74.2371 49.9909 74.3019 50.3039 74.426C50.5435 74.5198 50.7596 74.6652 50.9367 74.8519C51.0659 74.9873 51.1758 75.14 51.263 75.3056C51.2788 75.3364 51.287 75.3705 51.287 75.4051C51.287 75.4397 51.2788 75.4738 51.263 75.5046C51.2313 75.5661 51.1772 75.6131 51.1118 75.6359L50.3874 75.9026C50.331 75.924 50.2687 75.924 50.2123 75.9026C50.1666 75.8878 50.1245 75.8633 50.0889 75.831L49.9377 75.7076C49.8362 75.6358 49.7231 75.582 49.6034 75.5484C49.4357 75.4975 49.2613 75.472 49.086 75.4728C48.8432 75.4778 48.6032 75.5264 48.3775 75.616C47.9785 75.7391 47.6412 76.0095 47.4343 76.3722C47.3453 76.5456 47.2929 76.7354 47.2806 76.9299C47.2683 77.1244 47.2962 77.3194 47.3626 77.5026C47.4343 77.7334 47.5179 77.9762 47.6094 78.2389C47.7009 78.5015 47.8004 78.7364 47.896 78.9592C47.9595 79.163 48.0659 79.3508 48.208 79.5101C48.3501 79.6693 48.5246 79.7963 48.7198 79.8826C49.1125 80.0037 49.5352 79.9826 49.9138 79.8229C50.1196 79.7507 50.315 79.6516 50.4949 79.5284C50.6545 79.4256 50.7902 79.2899 50.8929 79.1304C50.9901 78.9674 51.0448 78.7827 51.0521 78.5931C51.0555 78.3561 51.0122 78.1208 50.9247 77.9006L50.9009 77.8289L49.8064 78.2269C49.7754 78.2397 49.7423 78.2463 49.7089 78.2463C49.6754 78.2463 49.6423 78.2397 49.6113 78.2269C49.5494 78.1985 49.5008 78.1472 49.476 78.0836L49.2452 77.4468C49.2315 77.4162 49.2244 77.3829 49.2244 77.3493C49.2244 77.3157 49.2315 77.2825 49.2452 77.2518C49.2587 77.2208 49.2783 77.1928 49.303 77.1695C49.3276 77.1462 49.3567 77.1282 49.3885 77.1165L51.4461 76.3603C51.4775 76.3465 51.5114 76.3394 51.5456 76.3394C51.5799 76.3394 51.6138 76.3465 51.6451 76.3603C51.676 76.3734 51.7037 76.393 51.7263 76.4177C51.749 76.4424 51.7661 76.4717 51.7765 76.5036L52.1386 77.4866C52.2652 77.8226 52.3313 78.1783 52.3337 78.5374C52.3318 78.8727 52.2542 79.2033 52.1068 79.5045C51.9472 79.8227 51.7204 80.1024 51.4421 80.3244C51.1074 80.5957 50.7275 80.8059 50.3198 80.9453C49.9221 81.1007 49.5008 81.1869 49.074 81.2C48.7257 81.2084 48.3796 81.1419 48.0591 81.005C47.7539 80.8693 47.4821 80.6682 47.2631 80.4159C47.0281 80.143 46.841 79.8321 46.7099 79.4965C46.6622 79.3851 46.6104 79.2617 46.5587 79.1264C46.5069 78.9911 46.4512 78.8478 46.3995 78.7284C46.3477 78.609 46.296 78.4418 46.2482 78.3025C46.2005 78.1632 46.1647 78.008 46.1328 77.9085Z" fill="#F0F0F0"/>
<path d="M184.512 36.5841V38.0487C184.512 38.0487 183.947 37.5353 183.915 37.1652C183.883 36.795 184.512 36.5841 184.512 36.5841Z" fill="black"/>
<path d="M183.391 36.2179C183.322 36.4226 183.297 36.6397 183.317 36.8549C183.338 37.07 183.403 37.2784 183.51 37.4664C183.617 37.6543 183.762 37.8175 183.937 37.9453C184.111 38.0731 184.31 38.1626 184.522 38.2079C186.114 38.7134 187.128 38.2079 187.367 38.6576C187.606 39.1074 179.773 43.6207 179.773 43.6207L181.262 37.1413L183.391 36.2179Z" fill="#5276F9"/>
<path opacity="0.3" d="M183.391 36.2179C183.322 36.4226 183.297 36.6397 183.317 36.8549C183.338 37.07 183.403 37.2784 183.51 37.4664C183.617 37.6543 183.762 37.8175 183.937 37.9453C184.111 38.0731 184.31 38.1626 184.522 38.2079C186.114 38.7134 187.128 38.2079 187.367 38.6576C187.606 39.1074 179.773 43.6207 179.773 43.6207L181.262 37.1413L183.391 36.2179Z" fill="black"/>
<path d="M180.434 96.8493V96.9408L179.638 96.4911L146.07 77.0926L149.016 18.8493C149.016 17.9179 149.525 17.4563 150.158 17.8224L151.3 18.4831L182.714 36.616L182.682 36.8906L180.434 96.8493Z" fill="#5276F9"/>
<path opacity="0.2" d="M180.434 96.8493V96.9408L179.638 96.4911L146.07 77.0926L149.016 18.8493C149.016 17.9179 149.525 17.4563 150.158 17.8224L151.3 18.4831L182.714 36.616L182.682 36.8906L180.434 96.8493Z" fill="black"/>
<path d="M175.87 45.3998L174.219 43.5452L182.652 38.6776C183.926 39.6368 184.905 40.1502 186.043 39.6686L175.87 45.3998Z" fill="#455A64"/>
<path d="M182.224 37.6786L151.112 19.7169C150.809 19.5637 150.475 19.4839 150.135 19.4839C149.796 19.4839 149.461 19.5637 149.158 19.7169L140.844 24.5168L172.393 42.586C172.393 42.586 173.758 42.2318 174.686 42.984C175.613 43.7362 175.561 42.781 175.561 42.781L182.65 38.6896C182.073 37.9015 182.224 37.6786 182.224 37.6786Z" fill="#F5F5F5"/>
<path d="M175.259 45.0138C174.936 44.8307 174.801 44.6158 174.952 44.5282L175.215 44.377C175.509 44.2059 175.239 43.7681 174.602 43.4019C173.965 43.0358 173.213 42.8686 172.922 43.0397L172.656 43.191C172.505 43.2785 171.951 43.0994 171.414 42.793L171.605 101.136L172.401 101.586C172.554 101.623 172.716 101.608 172.859 101.542L173.125 101.391C173.416 101.223 174.168 101.391 174.801 101.745C175.434 102.099 175.708 102.541 175.414 102.72L175.151 102.871C175 102.959 175.151 103.174 175.458 103.361L175.259 45.0138Z" fill="#5276F9"/>
<path opacity="0.4" d="M175.259 45.0138C174.936 44.8307 174.801 44.6158 174.952 44.5282L175.215 44.377C175.509 44.2059 175.239 43.7681 174.602 43.4019C173.965 43.0358 173.213 42.8686 172.922 43.0397L172.656 43.191C172.505 43.2785 171.951 43.0994 171.414 42.793L171.605 101.136L172.401 101.586C172.554 101.623 172.716 101.608 172.859 101.542L173.125 101.391C173.416 101.223 174.168 101.391 174.801 101.745C175.434 102.099 175.708 102.541 175.414 102.72L175.151 102.871C175 102.959 175.151 103.174 175.458 103.361L175.259 45.0138Z" fill="black"/>
<path d="M172.395 101.49V101.581L171.599 101.132L138 81.7332V25.2172C138 24.2819 138.509 23.8202 139.142 24.1864L140.285 24.851L172.395 42.5859V101.49Z" fill="#5276F9"/>
<path opacity="0.2" d="M172.395 101.49V101.581L171.599 101.132L138 81.7332V25.2172C138 24.2819 138.509 23.8202 139.142 24.1864L140.285 24.851L172.395 42.5859V101.49Z" fill="black"/>
<path d="M174.898 103.026V44.6198L176.984 45.4595V103.679C176.596 103.756 176.194 103.716 175.83 103.564L174.898 103.026Z" fill="#5276F9"/>
<path opacity="0.2" d="M174.898 103.026V44.6198L176.984 45.4595V103.679C176.596 103.756 176.194 103.716 175.83 103.564L174.898 103.026Z" fill="black"/>
<path d="M188.204 96.9647C188.208 97.0031 188.208 97.0418 188.204 97.0802C188.207 97.1039 188.207 97.1281 188.204 97.1518C188.189 97.2068 188.167 97.2591 188.136 97.307C188.126 97.3363 188.113 97.3644 188.096 97.3906C188.046 97.4803 187.986 97.5643 187.917 97.6413C187.846 97.731 187.769 97.8161 187.686 97.8961L187.392 98.1508C187.333 98.2016 187.27 98.2482 187.205 98.2901L187.05 98.3975C186.934 98.4771 186.811 98.5567 186.679 98.6324L179.44 102.811C178.688 103.25 177.86 103.545 177 103.679V45.4596L188.232 38.7294V96.9488L188.204 96.9647Z" fill="#5276F9"/>
<path d="M176.977 53.5429V60.5596C181.47 59.0393 185.335 56.9776 188.212 54.0762V47.0594C185.319 49.9489 181.49 52.0185 176.977 53.5429Z" fill="#5276F9"/>
<path opacity="0.4" d="M176.977 53.5429V60.5596C181.47 59.0393 185.335 56.9776 188.212 54.0762V47.0594C185.319 49.9489 181.49 52.0185 176.977 53.5429Z" fill="white"/>
<path d="M176.977 63.1626V65.7774C181.47 64.2531 185.335 62.1954 188.212 59.294V56.6752C185.319 59.5686 181.49 61.6382 176.977 63.1626Z" fill="#5276F9"/>
<path opacity="0.4" d="M176.977 63.1626V65.7774C181.47 64.2531 185.335 62.1954 188.212 59.294V56.6752C185.319 59.5686 181.49 61.6382 176.977 63.1626Z" fill="white"/>
<path d="M179.419 44.576L178.854 43.5969C178.128 44.0479 177.3 44.3093 176.446 44.3571C176.488 44.0254 176.418 43.6892 176.247 43.4019C175.976 42.9843 175.604 42.642 175.165 42.4069C174.66 42.112 174.101 41.9225 173.521 41.8497H173.398C173.052 41.8159 172.704 41.8822 172.395 42.0407L142.596 24.8432L141.582 24.278L140.292 23.5298C140.19 23.4595 140.072 23.4176 139.949 23.4085C139.826 23.3994 139.702 23.4234 139.592 23.478L138.445 24.1387C138.558 24.0811 138.683 24.0548 138.809 24.0625C138.936 24.0702 139.057 24.1117 139.162 24.1825H139.182L142.596 26.1725L171.416 42.8089C171.953 43.1153 172.51 43.3024 172.661 43.2069L172.924 43.0556C173.113 42.9772 173.324 42.9646 173.521 43.0198C173.902 43.0859 174.267 43.2208 174.6 43.4178C175.236 43.788 175.507 44.2138 175.217 44.3929L174.954 44.5442C174.799 44.6317 174.954 44.8466 175.26 45.0337L175.833 45.3601C176.462 45.7063 178.07 45.372 179.419 44.576Z" fill="#5276F9"/>
<path opacity="0.3" d="M179.419 44.576L178.854 43.5969C178.128 44.0479 177.3 44.3093 176.446 44.3571C176.488 44.0254 176.418 43.6892 176.247 43.4019C175.976 42.9843 175.604 42.642 175.165 42.4069C174.66 42.112 174.101 41.9225 173.521 41.8497H173.398C173.052 41.8159 172.704 41.8822 172.395 42.0407L142.596 24.8432L141.582 24.278L140.292 23.5298C140.19 23.4595 140.072 23.4176 139.949 23.4085C139.826 23.3994 139.702 23.4234 139.592 23.478L138.445 24.1387C138.558 24.0811 138.683 24.0548 138.809 24.0625C138.936 24.0702 139.057 24.1117 139.162 24.1825H139.182L142.596 26.1725L171.416 42.8089C171.953 43.1153 172.51 43.3024 172.661 43.2069L172.924 43.0556C173.113 42.9772 173.324 42.9646 173.521 43.0198C173.902 43.0859 174.267 43.2208 174.6 43.4178C175.236 43.788 175.507 44.2138 175.217 44.3929L174.954 44.5442C174.799 44.6317 174.954 44.8466 175.26 45.0337L175.833 45.3601C176.462 45.7063 178.07 45.372 179.419 44.576Z" fill="black"/>
<path d="M178.858 43.6128L186.097 39.4338L186.392 39.2507L186.622 39.0836C186.63 39.0854 186.639 39.0854 186.646 39.0836C185.819 39.4418 184.696 39.0836 183.956 38.6856C183.524 38.4589 183.159 38.1226 182.897 37.7105C182.707 37.3912 182.641 37.0125 182.714 36.6478L182.615 36.5881L182.412 36.4767L153.592 19.8044L151.941 18.8492C151.786 18.7617 151.626 18.6662 151.463 18.5786L150.07 17.7826C149.974 17.7317 149.867 17.7051 149.758 17.7051C149.649 17.7051 149.542 17.7317 149.445 17.7826L149.756 17.6035L150.588 17.1259C150.678 17.0785 150.778 17.0537 150.88 17.0537C150.982 17.0537 151.082 17.0785 151.173 17.1259C151.336 17.2214 151.507 17.3249 151.686 17.4204L152.008 17.6075L152.566 17.9259L152.908 18.1249L153.151 18.2642L153.577 18.507L176.462 31.7285L183.773 35.9473C184.294 36.2418 184.601 36.5563 184.477 36.6597C184.464 36.6715 184.449 36.6821 184.433 36.6916L184.175 36.8388C183.86 37.0219 184.115 37.4677 184.748 37.8299C185.381 38.192 185.882 38.204 186.197 38.0368L186.511 37.8577C186.576 37.8115 186.651 37.7812 186.73 37.7694C186.809 37.7577 186.889 37.7648 186.965 37.7901L187.136 37.8856L187.494 38.0965L187.944 38.3512C188.037 38.3979 188.112 38.4751 188.155 38.5699C188.198 38.6647 188.208 38.7715 188.183 38.8726C188.19 38.8959 188.19 38.9209 188.183 38.9443C188.17 38.999 188.148 39.0514 188.119 39.0995C188.112 39.1273 188.101 39.154 188.087 39.1791C188.036 39.2688 187.976 39.3528 187.908 39.4298C187.837 39.5195 187.759 39.6046 187.677 39.6845C187.582 39.7681 187.486 39.8517 187.379 39.9393C187.321 39.99 187.26 40.0366 187.196 40.0786L187.04 40.186C186.925 40.2656 186.802 40.3452 186.666 40.4208L179.423 44.576L178.858 43.6128Z" fill="#5276F9"/>
<path opacity="0.3" d="M178.858 43.6128L186.097 39.4338L186.392 39.2507L186.622 39.0836C186.63 39.0854 186.639 39.0854 186.646 39.0836C185.819 39.4418 184.696 39.0836 183.956 38.6856C183.524 38.4589 183.159 38.1226 182.897 37.7105C182.707 37.3912 182.641 37.0125 182.714 36.6478L182.615 36.5881L182.412 36.4767L153.592 19.8044L151.941 18.8492C151.786 18.7617 151.626 18.6662 151.463 18.5786L150.07 17.7826C149.974 17.7317 149.867 17.7051 149.758 17.7051C149.649 17.7051 149.542 17.7317 149.445 17.7826L149.756 17.6035L150.588 17.1259C150.678 17.0785 150.778 17.0537 150.88 17.0537C150.982 17.0537 151.082 17.0785 151.173 17.1259C151.336 17.2214 151.507 17.3249 151.686 17.4204L152.008 17.6075L152.566 17.9259L152.908 18.1249L153.151 18.2642L153.577 18.507L176.462 31.7285L183.773 35.9473C184.294 36.2418 184.601 36.5563 184.477 36.6597C184.464 36.6715 184.449 36.6821 184.433 36.6916L184.175 36.8388C183.86 37.0219 184.115 37.4677 184.748 37.8299C185.381 38.192 185.882 38.204 186.197 38.0368L186.511 37.8577C186.576 37.8115 186.651 37.7812 186.73 37.7694C186.809 37.7577 186.889 37.7648 186.965 37.7901L187.136 37.8856L187.494 38.0965L187.944 38.3512C188.037 38.3979 188.112 38.4751 188.155 38.5699C188.198 38.6647 188.208 38.7715 188.183 38.8726C188.19 38.8959 188.19 38.9209 188.183 38.9443C188.17 38.999 188.148 39.0514 188.119 39.0995C188.112 39.1273 188.101 39.154 188.087 39.1791C188.036 39.2688 187.976 39.3528 187.908 39.4298C187.837 39.5195 187.759 39.6046 187.677 39.6845C187.582 39.7681 187.486 39.8517 187.379 39.9393C187.321 39.99 187.26 40.0366 187.196 40.0786L187.04 40.186C186.925 40.2656 186.802 40.3452 186.666 40.4208L179.423 44.576L178.858 43.6128Z" fill="black"/>
<path d="M167.856 46.6217V48.0863C167.856 48.0863 167.291 47.5729 167.259 47.2028C167.227 46.8326 167.856 46.6217 167.856 46.6217Z" fill="black"/>
<path d="M166.731 46.2634C166.668 46.4667 166.647 46.681 166.67 46.8927C166.694 47.1044 166.761 47.3089 166.868 47.4933C166.974 47.6777 167.118 47.838 167.29 47.964C167.462 48.09 167.657 48.1791 167.865 48.2256C169.457 48.727 170.468 48.2256 170.711 48.6753C170.954 49.125 163.117 53.6384 163.117 53.6384L164.606 47.1589L166.731 46.2634Z" fill="#5276F9"/>
<path opacity="0.3" d="M166.731 46.2634C166.668 46.4667 166.647 46.681 166.67 46.8927C166.694 47.1044 166.761 47.3089 166.868 47.4933C166.974 47.6777 167.118 47.838 167.29 47.964C167.462 48.09 167.657 48.1791 167.865 48.2256C169.457 48.727 170.468 48.2256 170.711 48.6753C170.954 49.125 163.117 53.6384 163.117 53.6384L164.606 47.1589L166.731 46.2634Z" fill="black"/>
<path d="M163.774 106.887V106.978L162.978 106.529L129.391 87.1301L132.352 28.8868C132.352 27.9515 132.865 27.4898 133.494 27.8559L134.64 28.5206L166.05 46.6495L166.023 46.9241L163.774 106.887Z" fill="#5276F9"/>
<path opacity="0.2" d="M163.774 106.887V106.978L162.978 106.529L129.391 87.1301L132.352 28.8868C132.352 27.9515 132.865 27.4898 133.494 27.8559L134.64 28.5206L166.05 46.6495L166.023 46.9241L163.774 106.887Z" fill="black"/>
<path d="M159.202 55.4374L157.555 53.5827L165.988 48.7112C167.262 49.6743 168.237 50.1838 169.379 49.7062L159.202 55.4374Z" fill="#455A64"/>
<path d="M165.572 47.7162L134.46 29.7545C134.157 29.6013 133.822 29.5215 133.483 29.5215C133.143 29.5215 132.809 29.6013 132.506 29.7545L124.18 34.5544L155.729 52.6116C155.729 52.6116 157.09 52.2574 158.018 53.0096C158.945 53.7619 158.897 52.8106 158.897 52.8106L165.986 48.7152C165.42 47.9351 165.572 47.7162 165.572 47.7162Z" fill="#F5F5F5"/>
<path d="M158.602 55.0513C158.28 54.8642 158.141 54.6533 158.296 54.5657L158.559 54.4105C158.849 54.2433 158.579 53.8055 157.942 53.4354C157.305 53.0653 156.557 52.9061 156.262 53.0772L156 53.2284C155.848 53.316 155.295 53.1369 154.758 52.8304L154.949 111.173L155.745 111.623C155.898 111.657 156.058 111.641 156.203 111.579L156.465 111.428C156.76 111.257 157.508 111.428 158.145 111.782C158.782 112.136 159.052 112.578 158.758 112.757L158.495 112.909C158.344 112.996 158.495 113.211 158.801 113.394L158.602 55.0513Z" fill="#5276F9"/>
<path opacity="0.25" d="M158.602 55.0513C158.28 54.8642 158.141 54.6533 158.296 54.5657L158.559 54.4105C158.849 54.2433 158.579 53.8055 157.942 53.4354C157.305 53.0653 156.557 52.9061 156.262 53.0772L156 53.2284C155.848 53.316 155.295 53.1369 154.758 52.8304L154.949 111.173L155.745 111.623C155.898 111.657 156.058 111.641 156.203 111.579L156.465 111.428C156.76 111.257 157.508 111.428 158.145 111.782C158.782 112.136 159.052 112.578 158.758 112.757L158.495 112.909C158.344 112.996 158.495 113.211 158.801 113.394L158.602 55.0513Z" fill="white"/>
<path d="M155.739 111.528V111.619L154.943 111.165L121.344 91.7708V35.2548C121.344 34.3195 121.857 33.8578 122.49 34.224L123.632 34.8847L155.723 52.6315L155.739 111.528Z" fill="#5276F9"/>
<path opacity="0.4" d="M155.739 111.528V111.619L154.943 111.165L121.344 91.7708V35.2548C121.344 34.3195 121.857 33.8578 122.49 34.224L123.632 34.8847L155.723 52.6315L155.739 111.528Z" fill="white"/>
<path d="M158.234 113.06V54.6573L160.32 55.4971V113.713C159.934 113.792 159.533 113.753 159.17 113.601L158.234 113.06Z" fill="#5276F9"/>
<path opacity="0.4" d="M158.234 113.06V54.6573L160.32 55.4971V113.713C159.934 113.792 159.533 113.753 159.17 113.601L158.234 113.06Z" fill="white"/>
<path d="M171.536 107.002C171.54 107.039 171.54 107.077 171.536 107.114C171.544 107.138 171.544 107.165 171.536 107.189C171.523 107.244 171.501 107.296 171.472 107.344C171.463 107.373 171.449 107.4 171.432 107.424C171.383 107.516 171.322 107.601 171.253 107.679C171.182 107.767 171.104 107.851 171.022 107.93C170.927 108.017 170.831 108.101 170.724 108.184C170.666 108.237 170.603 108.285 170.537 108.328L170.385 108.435C170.27 108.515 170.147 108.594 170.011 108.67L162.776 112.849C162.024 113.288 161.196 113.582 160.336 113.716V55.497L171.536 48.7668V107.002Z" fill="#5276F9"/>
<g opacity="0.7">
<path d="M171.536 107.002C171.54 107.039 171.54 107.077 171.536 107.114C171.544 107.138 171.544 107.165 171.536 107.189C171.523 107.244 171.501 107.296 171.472 107.344C171.463 107.373 171.449 107.4 171.432 107.424C171.383 107.516 171.322 107.601 171.253 107.679C171.182 107.767 171.104 107.851 171.022 107.93C170.927 108.017 170.831 108.101 170.724 108.184C170.666 108.237 170.603 108.285 170.537 108.328L170.385 108.435C170.27 108.515 170.147 108.594 170.011 108.67L162.776 112.849C162.024 113.288 161.196 113.582 160.336 113.716V55.497L171.536 48.7668V107.002Z" fill="white"/>
</g>
<path d="M160.32 60.3208V67.3415C164.81 65.8172 168.678 63.7595 171.552 60.8541V53.8374C168.662 56.7269 164.81 58.7965 160.32 60.3208Z" fill="#FAFAFA"/>
<path d="M160.32 99.4164V106.433C164.81 104.913 168.678 102.851 171.552 99.9497V92.933C168.662 95.8225 164.81 97.908 160.32 99.4164Z" fill="#FAFAFA"/>
<path d="M162.783 54.6294L162.218 53.6504C161.497 54.0973 160.676 54.3585 159.83 54.4106C159.87 54.079 159.8 53.7433 159.631 53.4554C159.36 53.0377 158.987 52.6954 158.548 52.4604C158.043 52.1638 157.482 51.9741 156.901 51.9032C156.861 51.8993 156.821 51.8993 156.781 51.9032C156.435 51.8698 156.086 51.9346 155.774 52.0902L125.936 34.8807L124.925 34.2996L123.632 33.5514C123.53 33.4811 123.412 33.4392 123.289 33.4301C123.165 33.421 123.042 33.445 122.931 33.4996L121.789 34.1603C121.901 34.1019 122.027 34.0751 122.153 34.0828C122.28 34.0905 122.401 34.1325 122.505 34.2041L125.92 36.1941L154.739 52.8305C155.277 53.137 155.834 53.324 155.985 53.2285L156.252 53.0773C156.441 52.999 156.651 52.985 156.849 53.0374C157.229 53.1055 157.594 53.2402 157.927 53.4354C158.564 53.8056 158.835 54.2315 158.54 54.4106L158.278 54.5618C158.126 54.6493 158.278 54.8643 158.584 55.0473L159.157 55.3777C159.802 55.7439 161.414 55.4056 162.783 54.6294Z" fill="#5276F9"/>
<path opacity="0.6" d="M162.783 54.6294L162.218 53.6504C161.497 54.0973 160.676 54.3585 159.83 54.4106C159.87 54.079 159.8 53.7433 159.631 53.4554C159.36 53.0377 158.987 52.6954 158.548 52.4604C158.043 52.1638 157.482 51.9741 156.901 51.9032C156.861 51.8993 156.821 51.8993 156.781 51.9032C156.435 51.8698 156.086 51.9346 155.774 52.0902L125.936 34.8807L124.925 34.2996L123.632 33.5514C123.53 33.4811 123.412 33.4392 123.289 33.4301C123.165 33.421 123.042 33.445 122.931 33.4996L121.789 34.1603C121.901 34.1019 122.027 34.0751 122.153 34.0828C122.28 34.0905 122.401 34.1325 122.505 34.2041L125.92 36.1941L154.739 52.8305C155.277 53.137 155.834 53.324 155.985 53.2285L156.252 53.0773C156.441 52.999 156.651 52.985 156.849 53.0374C157.229 53.1055 157.594 53.2402 157.927 53.4354C158.564 53.8056 158.835 54.2315 158.54 54.4106L158.278 54.5618C158.126 54.6493 158.278 54.8643 158.584 55.0473L159.157 55.3777C159.802 55.7439 161.414 55.4056 162.783 54.6294Z" fill="white"/>
<path d="M162.197 53.6504L169.433 49.4714L169.732 49.2883L169.962 49.1211C169.135 49.4833 168.012 49.1211 167.276 48.7231C166.843 48.4936 166.477 48.1564 166.213 47.744C166.027 47.4247 165.962 47.0488 166.03 46.6854L165.931 46.6257L165.732 46.5142L136.932 29.85L135.281 28.8948C135.125 28.8072 134.966 28.7117 134.803 28.6241C134.318 28.3415 133.828 28.059 133.406 27.8281C133.31 27.7772 133.203 27.7506 133.094 27.7506C132.985 27.7506 132.878 27.7772 132.781 27.8281L133.096 27.649L133.927 27.1674C134.017 27.121 134.117 27.0968 134.218 27.0968C134.319 27.0968 134.419 27.121 134.509 27.1674C134.676 27.263 134.847 27.3664 135.026 27.462L135.348 27.649L135.902 27.9674C136.029 28.0391 136.144 28.1027 136.244 28.1664L136.491 28.3057L136.916 28.5485L159.801 41.7701L167.109 45.9849C167.634 46.2834 167.937 46.5978 167.813 46.7013L167.769 46.7331L167.515 46.8804C167.196 47.0635 167.455 47.5092 168.088 47.8714C168.721 48.2336 169.222 48.2455 169.537 48.0784L169.847 47.8953C169.914 47.8509 169.989 47.8218 170.068 47.8101C170.147 47.7984 170.228 47.8044 170.305 47.8276L170.472 47.9271L170.834 48.1381L171.28 48.3928C171.373 48.4387 171.448 48.5149 171.492 48.6089C171.536 48.703 171.547 48.8092 171.523 48.9102C171.528 48.935 171.528 48.9609 171.523 48.9858C171.508 49.0408 171.485 49.0932 171.455 49.141C171.448 49.1678 171.438 49.1933 171.423 49.2166C171.373 49.3082 171.313 49.3937 171.244 49.4714C171.172 49.5549 171.093 49.6425 171.009 49.7221C170.926 49.8017 170.822 49.8893 170.715 49.9768C170.657 50.0299 170.594 50.0778 170.528 50.1201L170.376 50.2276C170.261 50.3072 170.134 50.3868 170.002 50.4624L162.782 54.6294L162.197 53.6504Z" fill="#5276F9"/>
<path opacity="0.6" d="M162.197 53.6504L169.433 49.4714L169.732 49.2883L169.962 49.1211C169.135 49.4833 168.012 49.1211 167.276 48.7231C166.843 48.4936 166.477 48.1564 166.213 47.744C166.027 47.4247 165.962 47.0488 166.03 46.6854L165.931 46.6257L165.732 46.5142L136.932 29.85L135.281 28.8948C135.125 28.8072 134.966 28.7117 134.803 28.6241C134.318 28.3415 133.828 28.059 133.406 27.8281C133.31 27.7772 133.203 27.7506 133.094 27.7506C132.985 27.7506 132.878 27.7772 132.781 27.8281L133.096 27.649L133.927 27.1674C134.017 27.121 134.117 27.0968 134.218 27.0968C134.319 27.0968 134.419 27.121 134.509 27.1674C134.676 27.263 134.847 27.3664 135.026 27.462L135.348 27.649L135.902 27.9674C136.029 28.0391 136.144 28.1027 136.244 28.1664L136.491 28.3057L136.916 28.5485L159.801 41.7701L167.109 45.9849C167.634 46.2834 167.937 46.5978 167.813 46.7013L167.769 46.7331L167.515 46.8804C167.196 47.0635 167.455 47.5092 168.088 47.8714C168.721 48.2336 169.222 48.2455 169.537 48.0784L169.847 47.8953C169.914 47.8509 169.989 47.8218 170.068 47.8101C170.147 47.7984 170.228 47.8044 170.305 47.8276L170.472 47.9271L170.834 48.1381L171.28 48.3928C171.373 48.4387 171.448 48.5149 171.492 48.6089C171.536 48.703 171.547 48.8092 171.523 48.9102C171.528 48.935 171.528 48.9609 171.523 48.9858C171.508 49.0408 171.485 49.0932 171.455 49.141C171.448 49.1678 171.438 49.1933 171.423 49.2166C171.373 49.3082 171.313 49.3937 171.244 49.4714C171.172 49.5549 171.093 49.6425 171.009 49.7221C170.926 49.8017 170.822 49.8893 170.715 49.9768C170.657 50.0299 170.594 50.0778 170.528 50.1201L170.376 50.2276C170.261 50.3072 170.134 50.3868 170.002 50.4624L162.782 54.6294L162.197 53.6504Z" fill="white"/>
<path d="M34.4272 41.5601C38.6061 36.1141 44.6803 32.4389 51.4436 31.2644C58.207 30.0898 65.1646 31.5017 70.9351 35.2198C76.7055 38.9378 80.8667 44.6901 82.5921 51.3342C84.3176 57.9784 83.4812 65.0285 80.2491 71.0845L84.6664 78.346C84.8299 78.6211 84.907 78.9389 84.8877 79.2583C84.8685 79.5777 84.7539 79.884 84.5587 80.1375C84.3635 80.391 84.0966 80.5801 83.7928 80.6803C83.4889 80.7805 83.1619 80.7871 82.8542 80.6994L74.6991 78.2957C69.6725 82.9705 63.0715 85.5839 56.2071 85.617C49.3427 85.6501 42.7169 83.1004 37.6454 78.4743C32.5739 73.8481 29.4277 67.4839 28.8315 60.6453C28.2353 53.8067 30.2327 46.9941 34.4272 41.5601ZM40.7197 78.2328C45.7977 82.1081 52.1592 83.9076 58.5148 83.2667L61.3716 82.8137C67.6217 81.5559 73.1616 77.9731 76.8725 72.789C80.5834 67.6049 82.1888 61.2057 81.3644 54.8838C80.54 48.5619 77.3473 42.7884 72.4311 38.7293C67.5149 34.6701 61.2414 32.6279 54.8778 33.0149L52.0084 33.3169C47.1457 34.0916 42.6171 36.2755 38.9832 39.5983C35.3494 42.9211 32.77 47.2367 31.5644 52.0109C30.3588 56.785 30.58 61.8079 32.2006 66.4575C33.8212 71.1072 36.77 75.1794 40.6819 78.1698L40.7197 78.2328Z" fill="#455A64"/>
<path opacity="0.7" d="M40.722 78.2329C45.8 82.1082 52.1616 83.9078 58.5172 83.2669L61.374 82.8139C67.6241 81.556 73.164 77.9733 76.8749 72.7892C80.5858 67.605 82.1911 61.2059 81.3667 54.884C80.5424 48.5621 77.3496 42.7886 72.4334 38.7295C67.5172 34.6703 61.2438 32.6281 54.8801 33.0151L52.0107 33.3171C47.1481 34.0918 42.6194 36.2757 38.9856 39.5985C35.3517 42.9213 32.7723 47.2369 31.5667 52.011C30.3611 56.7852 30.5823 61.8081 32.2029 66.4577C33.8235 71.1074 36.7724 75.1795 40.6842 78.17L40.722 78.2329Z" fill="white"/>
<path d="M45.9297 44.1021C46.558 43.5641 47.2178 43.064 47.9055 42.6045C48.6303 42.1108 49.4017 41.6893 50.2086 41.346C52.0537 40.5765 54.0364 40.1911 56.0354 40.2134C57.4581 40.1959 58.874 40.4127 60.2262 40.8552C61.4112 41.2424 62.5066 41.8628 63.448 42.68C64.3485 43.4597 65.0625 44.4317 65.5371 45.5242C66.0524 46.715 66.3056 48.0026 66.2796 49.2997C66.3037 50.4845 66.103 51.6632 65.6881 52.7732C65.3366 53.681 64.8485 54.5297 64.2408 55.2902C63.6804 55.9894 63.0382 56.619 62.3279 57.1654L60.3647 58.6504C59.8039 59.0739 59.2701 59.5321 58.7664 60.0222C58.3435 60.4317 58.0615 60.9649 57.9609 61.5449L57.3569 65.333H52.9018L52.4487 61.029C52.3337 60.2842 52.4571 59.5222 52.8011 58.8517C53.1663 58.2097 53.6339 57.6315 54.1854 57.1402C54.7849 56.5993 55.4197 56.099 56.0858 55.6426C56.7835 55.1593 57.4478 54.6295 58.0742 54.0569C58.6756 53.4919 59.1927 52.8435 59.6096 52.1314C60.0356 51.3618 60.2526 50.4939 60.2388 49.6144C60.246 49.0279 60.1213 48.4472 59.8739 47.9154C59.6401 47.4307 59.3054 47.0017 58.8922 46.6569C58.4457 46.2804 57.9277 45.9979 57.3695 45.8263C56.753 45.6203 56.1065 45.5182 55.4565 45.5242C54.6051 45.5076 53.7561 45.6222 52.9395 45.864C52.3259 46.0496 51.7316 46.294 51.165 46.594C50.6868 46.8708 50.2715 47.1225 49.9065 47.3365C49.6477 47.5317 49.3367 47.6456 49.013 47.6637C48.7315 47.6825 48.4508 47.6172 48.2065 47.476C47.9622 47.3348 47.7655 47.1242 47.6412 46.8708L45.9297 44.1021ZM50.9637 72.3051C50.9604 71.7701 51.063 71.2397 51.2657 70.7446C51.4567 70.2743 51.739 69.8465 52.0963 69.4861C52.4585 69.1277 52.8856 68.8415 53.3548 68.6429C53.8559 68.4291 54.3959 68.322 54.9405 68.3282C55.4812 68.3219 56.0171 68.4291 56.5137 68.6429C56.9812 68.8446 57.4077 69.1304 57.7722 69.4861C58.1413 69.8446 58.4363 70.2722 58.6405 70.7446C58.8472 71.2389 58.9542 71.7693 58.9552 72.3051C58.9555 72.8411 58.8485 73.3717 58.6405 73.8656C58.2282 74.8107 57.466 75.5594 56.5137 75.9548C56.0144 76.1585 55.4797 76.2611 54.9405 76.2568C54.3973 76.2611 53.8585 76.1585 53.3548 75.9548C52.8841 75.7649 52.4564 75.482 52.0975 75.123C51.7385 74.7641 51.4556 74.3364 51.2657 73.8656C51.0491 73.3735 50.9335 72.8428 50.9259 72.3051H50.9637Z" fill="#5276F9"/>
<path d="M182.175 131.205C182.164 131.356 182.112 131.501 182.025 131.625C181.938 131.749 181.819 131.847 181.681 131.909L134.924 158.89C134.263 159.288 133.73 159.94 133.73 160.386C133.73 160.832 133.197 161.5 132.536 161.882L124.178 166.726C123.521 167.124 122.984 167.052 122.984 166.607C122.984 166.161 122.451 166.109 121.79 166.491L80.621 190.244C80.2514 190.433 79.8422 190.531 79.427 190.531C79.0119 190.531 78.6026 190.433 78.233 190.244L19.3529 156.259C19.2173 156.199 19.1001 156.104 19.0134 155.983C18.9267 155.863 18.8735 155.722 18.8594 155.574C18.8594 155.355 18.8594 153.946 18.8594 153.584C18.8814 153.723 18.9376 153.855 19.0231 153.966C19.1085 154.078 19.2205 154.167 19.3489 154.225L20.9409 155.144L78.2529 188.222C78.6231 188.409 79.0321 188.507 79.4469 188.507C79.8617 188.507 80.2707 188.409 80.6409 188.222L122.984 163.773C123.641 163.375 124.178 163.443 124.178 163.888C124.178 164.334 124.711 164.39 125.372 164.008L131.342 160.541C132.003 160.163 132.536 159.494 132.536 159.049C132.536 158.603 133.069 157.93 133.73 157.552L180.065 130.799L182.155 129.187V129.239C182.167 129.529 182.167 130.982 182.175 131.205Z" fill="#5276F9"/>
<path opacity="0.15" d="M79.2041 188.497V190.511C78.8668 190.495 78.5369 190.407 78.237 190.252L19.3529 156.259C19.2173 156.199 19.1001 156.104 19.0134 155.983C18.9267 155.863 18.8735 155.722 18.8594 155.574C18.8594 155.355 18.8594 153.946 18.8594 153.584C18.8814 153.723 18.9376 153.855 19.0231 153.967C19.1085 154.078 19.2205 154.167 19.3489 154.225L78.2529 188.222C78.5465 188.381 78.871 188.475 79.2041 188.497Z" fill="black"/>
<path d="M78.2312 188.218L19.3471 154.225C18.6864 153.827 18.6864 153.23 19.3471 152.848L120.471 94.541C120.841 94.3529 121.25 94.2549 121.665 94.2549C122.08 94.2549 122.489 94.3529 122.859 94.541L181.675 128.494C182.332 128.872 182.332 129.489 181.675 129.871L133.728 157.548C133.072 157.946 132.534 158.599 132.534 159.045C132.534 159.491 131.997 160.159 131.34 160.541L125.338 164.008C124.678 164.386 124.144 164.334 124.144 163.888C124.144 163.443 123.611 163.391 122.95 163.769L80.6033 188.218C80.2357 188.405 79.8293 188.502 79.4172 188.502C79.0051 188.502 78.5988 188.405 78.2312 188.218Z" fill="#5276F9"/>
<path opacity="0.4" d="M78.2312 188.218L19.3471 154.225C18.6864 153.827 18.6864 153.23 19.3471 152.848L120.471 94.541C120.841 94.3529 121.25 94.2549 121.665 94.2549C122.08 94.2549 122.489 94.3529 122.859 94.541L181.675 128.494C182.332 128.872 182.332 129.489 181.675 129.871L133.728 157.548C133.072 157.946 132.534 158.599 132.534 159.045C132.534 159.491 131.997 160.159 131.34 160.541L125.338 164.008C124.678 164.386 124.144 164.334 124.144 163.888C124.144 163.443 123.611 163.391 122.95 163.769L80.6033 188.218C80.2357 188.405 79.8293 188.502 79.4172 188.502C79.0051 188.502 78.5988 188.405 78.2312 188.218Z" fill="white"/>
<path d="M124.341 162.384L123.234 161.743L132.062 156.637L132.368 156.812L124.341 162.384Z" fill="#37474F"/>
<path d="M131.638 156.896L125.063 160.692C124.822 160.827 124.616 161.017 124.461 161.245C124.307 161.474 124.207 161.736 124.172 162.01C124.172 162.452 124.57 162.583 125.067 162.296L131.646 158.5C131.887 158.364 132.092 158.175 132.246 157.946C132.4 157.717 132.499 157.456 132.534 157.182C132.538 156.736 132.14 156.609 131.638 156.896Z" fill="#455A64"/>
<path d="M129.523 158.102V153.465C129.523 151.367 133.257 145.385 137.929 142.691L175.739 120.861L179.078 129.473L129.523 158.102Z" fill="#F5F5F5"/>
<path d="M175.735 120.861L137.925 142.691C133.253 145.381 129.5 151.371 129.52 153.465V158.102L71.3359 124.514V119.882C71.3359 117.784 75.0732 111.798 79.7417 109.104L117.552 87.2854H117.572L175.735 120.861Z" fill="#FAFAFA"/>
<path d="M175.735 120.861L137.925 142.691C133.253 145.381 129.5 151.371 129.52 153.465V158.102L71.3359 124.514V119.882C71.3359 117.784 75.0732 111.798 79.7417 109.104L117.552 87.2734L175.735 120.861Z" fill="#FAFAFA"/>
<path d="M129.722 158.448L71.1328 124.618V119.882C71.1328 117.617 75.081 111.563 79.6381 108.933L117.556 87.0426L117.655 87.1023L176.129 120.861L138.013 142.882C133.269 145.612 129.691 151.55 129.706 153.481L129.722 158.448ZM71.5308 124.399L129.324 157.755V153.465C129.324 151.2 133.273 145.143 137.83 142.52L175.349 120.861L117.556 87.5043L79.8371 109.275C75.0929 112.013 71.5149 117.951 71.5308 119.878V124.399Z" fill="#E0E0E0"/>
<path d="M129.507 153.588L125.885 151.487L121.109 148.725C123.784 148.418 125.678 148.824 126.988 149.576C127.711 149.98 128.321 150.558 128.761 151.26C129.202 151.961 129.458 152.762 129.507 153.588Z" fill="#F0F0F0"/>
<path d="M129.507 153.588L125.885 151.487L121.109 148.725C123.784 148.418 125.678 148.824 126.988 149.576C127.711 149.98 128.321 150.558 128.761 151.26C129.202 151.961 129.458 152.762 129.507 153.588Z" fill="#E0E0E0"/>
<path d="M129.51 153.588C129.51 151.491 125.665 149.744 120.985 152.426L83.183 174.085L79.8438 186.821L129.526 158.117C129.526 158.117 129.53 155.686 129.51 153.588Z" fill="#F5F5F5"/>
<path d="M157.134 137.31L147.657 142.639C146.081 143.539 144.509 144.447 142.941 145.366C141.381 146.293 139.821 147.232 138.324 148.267C136.811 149.285 135.381 150.42 134.046 151.662C132.699 152.895 131.61 154.383 130.842 156.04C131.673 154.427 132.805 152.988 134.177 151.801C135.528 150.598 136.97 149.501 138.491 148.522C141.52 146.532 144.696 144.773 147.856 142.982L157.301 137.565L161.985 134.827L166.674 132.041L161.898 134.647L157.134 137.31ZM132.744 150.607C133.937 149.1 135.298 147.735 136.8 146.536C138.298 145.33 139.866 144.215 141.496 143.196C143.124 142.17 144.816 141.246 146.511 140.319L156.62 134.679L161.659 131.83L166.682 128.952L161.587 131.646L156.493 134.401L146.336 139.973C142.957 141.823 139.59 143.793 136.625 146.301C135.13 147.539 133.783 148.946 132.609 150.492C131.435 152.045 130.552 153.798 130.002 155.666C130.315 154.754 130.703 153.87 131.164 153.023C131.623 152.172 132.152 151.36 132.744 150.595V150.607ZM124.434 158.006C123.618 158.195 122.819 158.454 122.046 158.778C120.51 159.441 119.009 160.181 117.549 160.995C116.08 161.791 114.647 162.639 113.202 163.467L108.88 165.966C106.015 167.669 103.137 169.353 100.279 171.072C97.4218 172.792 94.5681 174.511 91.7344 176.274C94.6557 174.662 97.5492 173.011 100.443 171.351C103.336 169.691 106.21 168.008 109.091 166.336C111.973 164.665 114.83 162.937 117.712 161.274C119.157 160.446 120.613 159.642 122.13 158.961C122.881 158.61 123.661 158.325 124.462 158.11C124.862 158.002 125.274 157.946 125.688 157.942C126.104 157.922 126.515 158.051 126.846 158.305C126.523 158.029 126.113 157.876 125.688 157.875C125.266 157.867 124.845 157.911 124.434 158.006ZM126.543 154.85C125.665 154.671 124.757 154.695 123.889 154.922C122.174 155.372 120.514 156.013 118.942 156.832C117.35 157.604 115.813 158.48 114.289 159.367L109.732 162.054C106.715 163.877 103.694 165.695 100.693 167.546L96.1999 170.332C94.7114 171.275 93.2149 172.207 91.7344 173.166L96.3154 170.503L100.868 167.821L109.955 162.412C112.98 160.601 115.973 158.734 119.109 157.115C120.648 156.279 122.274 155.612 123.956 155.125C124.794 154.876 125.677 154.82 126.539 154.961C126.966 155.059 127.364 155.253 127.704 155.529C128.043 155.805 128.315 156.156 128.498 156.553C128.323 156.145 128.066 155.778 127.741 155.475C127.405 155.173 127.001 154.956 126.563 154.842L126.543 154.85Z" fill="#E6E6E6"/>
<path d="M79.8436 186.805L83.1828 174.085L25.0111 140.498L21.6719 153.218L79.8436 186.805Z" fill="#EBEBEB"/>
<path d="M120.993 152.434L119.302 153.401L83.183 174.085L31.7972 144.414L25.0312 140.498L62.8413 118.839C66.268 116.873 68.1864 117.032 69.5356 117.792L128.503 151.841C126.354 150.639 123.871 150.89 120.993 152.434Z" fill="#FAFAFA"/>
<path d="M80.5391 168.179L112.733 149.604L114.425 148.637L115.667 149.353L113.971 150.321L81.7768 168.895L80.5391 168.179Z" fill="#E0E0E0"/>
<path d="M77.5703 166.464L109.765 147.889L111.456 146.922L112.698 147.634L111.002 148.605L78.8081 167.18L77.5703 166.464Z" fill="#E0E0E0"/>
<path d="M74.5938 164.748L106.788 146.174L108.479 145.202L109.721 145.919L108.026 146.886L75.8315 165.465L74.5938 164.748Z" fill="#E0E0E0"/>
<path d="M71.6172 163.033L103.811 144.458L105.507 143.487L106.745 144.203L105.049 145.17L72.855 163.749L71.6172 163.033Z" fill="#E0E0E0"/>
<path d="M68.6484 161.313L100.843 142.739L102.538 141.772L103.776 142.488L102.08 143.455L69.8862 162.03L68.6484 161.313Z" fill="#E0E0E0"/>
<path d="M65.6719 159.598L97.8661 141.023L99.5616 140.056L100.799 140.769L99.1039 141.74L66.9097 160.314L65.6719 159.598Z" fill="#E0E0E0"/>
<path d="M62.7031 157.883L94.8973 139.308L96.5928 138.337L97.8306 139.053L96.1351 140.02L63.9409 158.599L62.7031 157.883Z" fill="#E0E0E0"/>
<path d="M59.7266 156.167L91.9208 137.593L93.6163 136.621L94.854 137.338L93.1586 138.305L60.9683 156.884L59.7266 156.167Z" fill="#E0E0E0"/>
<path d="M56.7578 154.448L88.952 135.873L90.6475 134.906L91.8853 135.623L90.1898 136.59L57.9996 155.164L56.7578 154.448Z" fill="#E0E0E0"/>
<path d="M53.7812 152.732L85.9755 134.158L87.671 133.191L88.9087 133.903L87.2133 134.874L55.023 153.449L53.7812 152.732Z" fill="#E0E0E0"/>
<path d="M50.8125 151.017L83.0067 132.442L84.7022 131.471L85.94 132.188L84.2445 133.159L52.0543 151.733L50.8125 151.017Z" fill="#E0E0E0"/>
<path d="M47.8359 149.302L80.0302 130.723L81.7256 129.756L82.9634 130.472L81.2679 131.44L49.0777 150.018L47.8359 149.302Z" fill="#E0E0E0"/>
<path d="M44.8672 147.582L77.0614 129.008L78.7569 128.041L79.9947 128.757L78.2992 129.724L46.1089 148.299L44.8672 147.582Z" fill="#E0E0E0"/>
<path d="M41.8906 145.867L74.0848 127.292L75.7803 126.325L77.0181 127.038L75.3266 128.009L43.1324 146.583L41.8906 145.867Z" fill="#E0E0E0"/>
<path d="M38.9219 144.152L71.1121 125.577L72.8076 124.606L74.0454 125.322L72.3539 126.289L40.1597 144.868L38.9219 144.152Z" fill="#E0E0E0"/>
<path d="M35.9453 142.436L68.1356 123.858L69.831 122.891L71.0688 123.607L69.3773 124.574L37.1831 143.153L35.9453 142.436Z" fill="#E0E0E0"/>
<path d="M32.9766 140.717L65.1668 122.142L66.8623 121.175L68.1001 121.891L66.4086 122.859L34.2143 141.433L32.9766 140.717Z" fill="#E0E0E0"/>
<path opacity="0.1" d="M121.355 150.396C120.654 150.464 119.174 150.942 118.358 151.125C114.923 151.897 108.857 154.667 103.051 157.576C95.2896 161.461 87.9824 165.608 87.9824 165.608L34.7578 134.922L62.8208 118.847C63.8943 118.193 65.0622 117.708 66.2834 117.41C67.1346 117.547 67.9559 117.83 68.7112 118.246L69.1092 117.593C69.2536 117.654 69.3945 117.723 69.5311 117.8L128.503 151.849C125.171 149.927 123.631 150.181 121.355 150.396Z" fill="black"/>
<path d="M82.6834 175.98L88.9161 172.863L82.5004 176.676L77.4219 173.034L82.6834 175.98Z" fill="#E6E6E6"/>
<path d="M81.5853 180.183L92.2915 174.002L81.7127 179.697L69.8125 173.241L81.5853 180.183Z" fill="#E6E6E6"/>
<path d="M23.2413 147.224L23.0781 147.853L36.2002 155.144L23.2413 147.224Z" fill="#E6E6E6"/>
<path d="M23.7656 145.234L31.8769 149.377L23.9328 144.585L23.7656 145.234Z" fill="#E6E6E6"/>
<path d="M121.117 148.725C120.355 148.817 119.597 148.95 118.849 149.123C115.41 149.895 109.349 152.665 103.542 155.574C95.7807 159.459 88.4734 163.606 88.4734 163.606L30.25 130.031C30.25 130.031 52.3947 117.295 61.0831 115.599C65.1626 114.803 67.662 115.36 69.1863 116.228L126.972 149.588C125.686 148.824 123.78 148.418 121.117 148.725Z" fill="#F5F5F5"/>
<path d="M121.517 146.416C120.216 145.736 118.377 145.385 115.834 145.676C115.071 145.765 114.313 145.898 113.565 146.074C111.277 146.591 107.822 147.988 104.061 149.724C102.171 150.595 100.201 151.55 98.2543 152.51C97.2713 153.003 96.2922 153.501 95.337 153.994L94.0156 153.23C94.9708 152.736 95.9499 152.239 96.933 151.745C98.8752 150.774 100.845 149.819 102.74 148.959C106.501 147.224 109.956 145.827 112.24 145.31C112.989 145.134 113.748 145.002 114.513 144.912C117.183 144.605 119.078 145.007 120.387 145.764L121.517 146.416Z" fill="#E0E0E0"/>
<path d="M117.407 144.044C116.098 143.288 114.204 142.886 111.533 143.192C110.77 143.28 110.012 143.413 109.264 143.59C106.976 144.104 103.525 145.505 99.7601 147.24C97.8696 148.112 95.8995 149.067 93.9572 150.026C89.2847 152.366 84.7794 154.802 81.9297 156.366L83.251 157.126C86.1007 155.562 90.6061 153.146 95.2786 150.79C97.2208 149.819 99.1909 148.864 101.081 148.004C104.847 146.269 108.297 144.872 110.586 144.355C111.334 144.179 112.091 144.046 112.854 143.957C115.525 143.65 117.423 144.052 118.729 144.808L117.407 144.044Z" fill="#E0E0E0"/>
<path d="M114.431 142.325C113.121 141.569 111.227 141.167 108.556 141.473C107.793 141.561 107.035 141.694 106.288 141.871C103.999 142.385 100.549 143.785 96.7835 145.517C94.893 146.392 92.9229 147.348 90.9767 148.303C86.3082 150.643 81.8028 153.079 78.9531 154.643L80.2745 155.403C83.1242 153.839 87.6295 151.423 92.302 149.067C94.2443 148.096 96.2144 147.137 98.1049 146.281C101.87 144.546 105.321 143.149 107.609 142.631C108.357 142.456 109.115 142.323 109.878 142.233C112.548 141.927 114.443 142.329 115.752 143.085L114.431 142.325Z" fill="#E0E0E0"/>
<path d="M112.586 141.258C111.289 140.578 109.446 140.227 106.903 140.518C106.139 140.607 105.382 140.74 104.634 140.916C102.346 141.433 98.8949 142.83 95.1298 144.566C93.4861 145.322 91.7826 146.158 90.0871 146.989L88.7578 146.213C90.4533 145.373 92.1567 144.55 93.8005 143.789C97.5656 142.058 101.016 140.657 103.305 140.14C104.053 139.964 104.81 139.831 105.573 139.742C108.244 139.435 110.138 139.837 111.448 140.593L112.586 141.258Z" fill="#E0E0E0"/>
<path d="M108.474 138.902C107.168 138.146 105.29 137.744 102.599 138.05C101.836 138.138 101.078 138.271 100.331 138.448C98.0422 138.962 94.5915 140.363 90.8304 142.098C88.9359 142.97 86.9658 143.925 85.0236 144.884C80.3511 147.224 75.8457 149.66 73 151.224L74.3214 151.984C77.171 150.42 81.6724 148.004 86.3449 145.648C88.2872 144.677 90.2573 143.722 92.1518 142.862C95.9129 141.127 99.3635 139.73 101.652 139.212C102.4 139.037 103.158 138.904 103.921 138.814C106.595 138.508 108.49 138.91 109.799 139.666L108.474 138.902Z" fill="#E0E0E0"/>
<path d="M106.631 137.819C105.329 137.139 103.49 136.789 100.943 137.079C100.18 137.169 99.4228 137.302 98.6746 137.477C96.3861 137.995 92.9354 139.392 89.1743 141.127C87.2799 141.998 85.3098 142.958 83.3675 143.913C82.813 144.178 82.2651 144.455 81.7238 144.745L80.3984 143.985L82.0462 143.153C83.9884 142.182 85.9585 141.226 87.853 140.367C91.6141 138.635 95.0647 137.234 97.3532 136.717C98.1013 136.542 98.8587 136.409 99.6218 136.319C102.296 136.013 104.191 136.415 105.496 137.171L106.631 137.819Z" fill="#E0E0E0"/>
<path d="M102.517 135.447C101.207 134.691 99.3328 134.289 96.6423 134.596C95.8789 134.683 95.1214 134.816 94.3737 134.994C92.0852 135.507 88.6345 136.908 84.8695 138.639C82.979 139.515 81.0089 140.47 79.0626 141.425C74.3941 143.766 69.8887 146.201 67.0391 147.765L68.3604 148.526C71.2101 146.962 75.7155 144.546 80.388 142.189C82.3302 141.218 84.3003 140.263 86.1908 139.403C89.9559 137.668 93.4066 136.271 95.6951 135.754C96.4431 135.578 97.2005 135.445 97.9637 135.356C100.634 135.049 102.529 135.451 103.838 136.204L102.517 135.447Z" fill="#E0E0E0"/>
<path d="M100.672 134.381C99.3705 133.7 97.5317 133.35 94.9885 133.64C94.2253 133.73 93.4679 133.863 92.7199 134.038C90.4314 134.556 86.9807 135.953 83.2156 137.688C81.3251 138.56 79.355 139.515 77.4128 140.474C75.8725 141.246 74.3482 142.026 72.8995 142.786L71.5781 142.022C73.0268 141.262 74.5512 140.482 76.0914 139.71C78.0337 138.739 80.0038 137.784 81.8943 136.924C85.6594 135.189 89.11 133.792 91.3985 133.274C92.1465 133.099 92.904 132.966 93.6671 132.876C96.3377 132.57 98.2322 132.972 99.5416 133.728L100.672 134.381Z" fill="#E0E0E0"/>
<path d="M92.0066 131.921C91.2435 132.011 90.4861 132.144 89.738 132.319C86.2992 133.095 80.2377 135.861 74.4309 138.771C69.7584 141.111 65.2769 143.547 62.4073 145.107L61.0859 144.347C63.9316 142.779 68.437 140.367 73.1095 138.007C78.9163 135.097 84.9779 132.331 88.4166 131.559C89.1643 131.382 89.9218 131.249 90.6852 131.161C93.3598 130.854 95.2542 131.256 96.5597 132.013L97.881 132.777C96.5756 132.017 94.6811 131.615 92.0066 131.921Z" fill="#E0E0E0"/>
<path d="M94.727 130.942C93.4255 130.261 91.5868 129.911 89.0396 130.202C88.2765 130.292 87.5191 130.425 86.771 130.6C83.5193 131.332 77.9274 133.843 72.4191 136.57L71.0938 135.806C76.6021 133.075 82.198 130.56 85.4496 129.836C86.1977 129.66 86.9551 129.527 87.7182 129.438C90.3928 129.131 92.2873 129.533 93.5927 130.289L94.727 130.942Z" fill="#E0E0E0"/>
<path d="M86.0496 128.482C85.2865 128.572 84.529 128.705 83.781 128.88C80.3423 129.657 74.2768 132.423 68.4739 135.332C63.8014 137.672 59.296 140.108 56.4464 141.668L55.125 140.892C57.9747 139.324 62.48 136.892 67.1486 134.552C72.9554 131.643 79.0209 128.876 82.4596 128.1C83.2077 127.925 83.9651 127.792 84.7282 127.702C87.3988 127.396 89.2933 127.798 90.6027 128.554L91.936 129.35C90.6147 128.578 88.7202 128.176 86.0496 128.482Z" fill="#E0E0E0"/>
<path d="M88.9502 127.611C87.6408 126.858 85.7463 126.456 83.0757 126.759C82.3129 126.85 81.5555 126.983 80.8071 127.157C77.3684 127.933 71.3068 130.699 65.5 133.609L64.9269 133.895L63.6016 133.131L64.1747 132.844C69.9815 129.935 76.047 127.169 79.4857 126.393C80.2338 126.217 80.9912 126.084 81.7543 125.995C84.4249 125.688 86.3194 126.09 87.6288 126.847L88.9502 127.611Z" fill="#E0E0E0"/>
<path d="M80.0925 125.044C79.3294 125.133 78.572 125.266 77.8239 125.442C74.3852 126.238 68.3236 128.984 62.5168 131.893C57.8443 134.234 53.3429 136.669 50.4932 138.229L49.1719 137.469C52.0176 135.901 56.5229 133.469 61.1955 131.129C67.0023 128.22 73.0638 125.454 76.5025 124.682C77.2503 124.504 78.0078 124.371 78.7711 124.284C81.4457 123.977 83.3402 124.379 84.6456 125.135L85.971 125.899C84.6615 125.139 82.783 124.737 80.0925 125.044Z" fill="#E0E0E0"/>
<path d="M77.1199 123.324C76.3568 123.414 75.5993 123.547 74.8513 123.722C71.4126 124.498 65.3511 127.265 59.5442 130.174C54.8717 132.514 50.3664 134.95 47.5207 136.51L46.1953 135.75C49.045 134.182 53.5504 131.75 58.2229 129.41C64.0257 126.5 70.0912 123.734 73.53 122.962C74.2776 122.785 75.0351 122.652 75.7986 122.564C78.4691 122.258 80.3636 122.66 81.673 123.416L82.9944 124.18C81.689 123.42 79.7905 123.018 77.1199 123.324Z" fill="#E0E0E0"/>
<path d="M79.8225 122.345C78.5251 121.665 76.6863 121.314 74.1391 121.601C73.3763 121.693 72.619 121.826 71.8705 121.999C68.4318 122.771 62.3702 125.541 56.5634 128.45L54.6729 129.406L53.3516 128.642L55.2421 127.686C61.0489 124.777 67.1104 122.011 70.5491 121.235C71.2972 121.059 72.0546 120.926 72.8177 120.837C75.4883 120.53 77.3868 120.932 78.6922 121.688L79.8225 122.345Z" fill="#E0E0E0"/>
<path d="M71.1668 119.886C70.4024 119.975 69.6436 120.108 68.8942 120.284C65.4595 121.06 59.3939 123.826 53.5871 126.735C48.9186 129.075 44.4331 131.511 41.5635 133.071L40.2422 132.311C43.0919 130.743 47.5932 128.311 52.2658 125.971C58.0726 123.062 64.1341 120.296 67.5728 119.519C68.321 119.344 69.0784 119.212 69.8414 119.121C72.516 118.815 74.4105 119.217 75.7199 119.973L77.0413 120.733C75.7318 119.981 73.8374 119.579 71.1668 119.886Z" fill="#E0E0E0"/>
<path d="M92.4448 154.05C89.4837 155.59 86.821 157.035 84.9067 158.086L86.228 158.85C88.1424 157.799 90.805 156.354 93.7661 154.81L92.4448 154.05ZM87.1593 147.009C82.7813 149.218 78.6501 151.455 75.9716 152.928L77.2929 153.692C79.9715 152.219 84.1146 149.982 88.4847 147.773L87.1593 147.009ZM78.8013 144.796C75.3387 146.579 72.1826 148.291 70.0016 149.489L71.3229 150.253C73.5079 149.059 76.6641 147.344 80.1227 145.561L78.8013 144.796ZM69.9976 142.846C67.6772 144.068 65.6196 145.19 64.0276 146.03L65.3489 146.794C66.9171 145.935 68.9827 144.804 71.3189 143.59L69.9976 142.846ZM69.4643 136.598C65.0266 138.838 60.8078 141.119 58.0894 142.611L59.4108 143.376C62.1291 141.883 66.3519 139.603 70.7896 137.362L69.4643 136.598ZM61.9978 133.931C58.1292 135.921 54.5393 137.851 52.1314 139.173L53.4527 139.937C55.8606 138.615 59.4466 136.677 63.3191 134.695L61.9978 133.931ZM51.7572 129.446C48.3941 131.185 45.3295 132.844 43.1963 134.015L44.5216 134.779C46.6509 133.609 49.6956 131.949 53.0786 130.21L51.7572 129.446ZM49.0668 124.339C44.4699 126.648 40.0521 129.036 37.2422 130.576L38.5795 131.34C41.3893 129.796 45.8071 127.412 50.408 125.103L49.0668 124.339Z" fill="#E0E0E0"/>
<g opacity="0.25">
<path d="M92.4448 154.05C89.4837 155.59 86.821 157.035 84.9067 158.086L86.228 158.85C88.1424 157.799 90.805 156.354 93.7661 154.81L92.4448 154.05ZM87.1593 147.009C82.7813 149.218 78.6501 151.455 75.9716 152.928L77.2929 153.692C79.9715 152.219 84.1146 149.982 88.4847 147.773L87.1593 147.009ZM78.8013 144.796C75.3387 146.579 72.1826 148.291 70.0016 149.489L71.3229 150.253C73.5079 149.059 76.6641 147.344 80.1227 145.561L78.8013 144.796ZM69.9976 142.846C67.6772 144.068 65.6196 145.19 64.0276 146.03L65.3489 146.794C66.9171 145.935 68.9827 144.804 71.3189 143.59L69.9976 142.846ZM69.4643 136.598C65.0266 138.838 60.8078 141.119 58.0894 142.611L59.4108 143.376C62.1291 141.883 66.3519 139.603 70.7896 137.362L69.4643 136.598ZM61.9978 133.931C58.1292 135.921 54.5393 137.851 52.1314 139.173L53.4527 139.937C55.8606 138.615 59.4466 136.677 63.3191 134.695L61.9978 133.931ZM51.7572 129.446C48.3941 131.185 45.3295 132.844 43.1963 134.015L44.5216 134.779C46.6509 133.609 49.6956 131.949 53.0786 130.21L51.7572 129.446ZM49.0668 124.339C44.4699 126.648 40.0521 129.036 37.2422 130.576L38.5795 131.34C41.3893 129.796 45.8071 127.412 50.408 125.103L49.0668 124.339Z" fill="black"/>
</g>
<path d="M73.8709 118.906C72.5694 118.226 70.7306 117.876 68.1874 118.166C67.423 118.256 66.6643 118.389 65.9148 118.564C62.7587 119.277 57.3777 121.673 52.0167 124.319L50.6953 123.555C56.0564 120.908 61.4413 118.512 64.5935 117.8C65.3429 117.625 66.1016 117.492 66.8661 117.402C69.5366 117.096 71.4311 117.498 72.7405 118.254L73.8709 118.906Z" fill="#E0E0E0"/>
<path d="M166.369 120.025L136.468 137.25L135.258 136.55L165.16 119.328L166.369 120.025Z" fill="#E0E0E0"/>
<path d="M129.496 137.831C127.716 138.907 126.125 140.27 124.788 141.863L123.594 141.163C124.932 139.571 126.523 138.211 128.302 137.135L162.196 117.609L163.39 118.309L129.496 137.831Z" fill="#E0E0E0"/>
<path d="M126.527 136.116C124.748 137.192 123.157 138.553 121.819 140.144L120.625 139.447C121.961 137.853 123.552 136.491 125.333 135.416L159.203 115.894L160.397 116.59L126.527 136.116Z" fill="#E0E0E0"/>
<path d="M157.448 114.875L132.358 129.326L131.148 128.63L156.238 114.174L157.448 114.875Z" fill="#E0E0E0"/>
<path d="M120.598 132.681C118.818 133.757 117.228 135.118 115.889 136.709L114.695 136.012C116.033 134.419 117.623 133.057 119.404 131.981L153.297 112.459L154.491 113.155L120.598 132.681Z" fill="#E0E0E0"/>
<path d="M117.605 130.962C115.824 132.036 114.232 133.398 112.897 134.994L111.703 134.293C113.043 132.702 114.635 131.341 116.415 130.265L150.305 110.74L151.499 111.44L117.605 130.962Z" fill="#E0E0E0"/>
<path d="M148.516 109.721L121.265 125.422L120.055 124.721L147.306 109.024L148.516 109.721Z" fill="#E0E0E0"/>
<path d="M111.652 127.527C109.872 128.603 108.281 129.965 106.944 131.559L105.75 130.858C107.088 129.267 108.679 127.907 110.458 126.831L144.352 107.305L145.546 108.005L111.652 127.527Z" fill="#E0E0E0"/>
<path d="M142.574 106.286L114.069 122.707L112.859 122.007L141.364 105.589L142.574 106.286Z" fill="#E0E0E0"/>
<path d="M105.699 124.092C103.919 125.169 102.328 126.531 100.991 128.124L99.7969 127.424C101.129 125.828 102.714 124.462 104.489 123.38L138.383 103.878L139.577 104.579L105.699 124.092Z" fill="#E0E0E0"/>
<path d="M102.73 122.377C100.95 123.452 99.3596 124.813 98.0221 126.405L96.8281 125.708C98.1644 124.114 99.7554 122.752 101.536 121.677L135.43 102.155L136.624 102.851L102.73 122.377Z" fill="#E0E0E0"/>
<path d="M99.7539 120.658C97.9736 121.734 96.3828 123.096 95.0456 124.689L93.8516 123.989C95.19 122.398 96.7806 121.037 98.5599 119.961L132.454 100.435L133.648 101.136L99.7539 120.658Z" fill="#E0E0E0"/>
<path d="M130.674 99.4165L104.995 114.21L103.781 113.514L129.464 98.72L130.674 99.4165Z" fill="#E0E0E0"/>
<path d="M93.8048 117.223C92.0224 118.298 90.4302 119.66 89.0924 121.255L87.8984 120.554C89.2374 118.962 90.8294 117.601 92.6108 116.526L126.5 97.0006L127.694 97.7011L93.8048 117.223Z" fill="#E0E0E0"/>
<path d="M87.8555 113.788C86.0753 114.86 84.4844 116.218 83.1471 117.808L81.9531 117.107C83.2906 115.515 84.8814 114.155 86.6615 113.08L120.555 93.5538L121.749 94.2543L87.8555 113.788Z" fill="#E0E0E0"/>
<path d="M133.764 137.414L131.265 138.85C129.488 139.928 127.9 141.29 126.564 142.882L127.758 143.583C129.097 141.991 130.687 140.631 132.467 139.555L134.966 138.114L133.764 137.414ZM129.653 129.489L122.342 133.7C120.562 134.776 118.972 136.137 117.633 137.728L118.827 138.424C120.165 136.832 121.755 135.471 123.536 134.397L130.863 130.186L129.653 129.489ZM118.565 125.581L113.43 128.554C111.65 129.63 110.058 130.99 108.718 132.582L109.912 133.282C111.25 131.687 112.842 130.324 114.624 129.247L119.798 126.281L118.565 125.581ZM111.369 122.867L107.468 125.111C105.688 126.187 104.097 127.55 102.76 129.143L103.954 129.84C105.291 128.247 106.882 126.887 108.662 125.812L112.563 123.563L111.369 122.867ZM102.382 114.318L95.5681 118.242C93.7888 119.318 92.1982 120.678 90.8597 122.27L92.0537 122.97C93.3922 121.379 94.9828 120.018 96.7621 118.942L103.592 115.022L102.382 114.318ZM93.2278 112.726L89.6458 114.795C87.8647 115.87 86.2738 117.232 84.9375 118.827L86.1315 119.523C87.469 117.931 89.0598 116.57 90.8398 115.496L94.4218 113.426L93.2278 112.726Z" fill="#E0E0E0"/>
<g opacity="0.25">
<path d="M133.764 137.414L131.265 138.85C129.488 139.928 127.9 141.29 126.564 142.882L127.758 143.583C129.097 141.991 130.687 140.631 132.467 139.555L134.966 138.114L133.764 137.414ZM129.653 129.489L122.342 133.7C120.562 134.776 118.972 136.137 117.633 137.728L118.827 138.424C120.165 136.832 121.755 135.471 123.536 134.397L130.863 130.186L129.653 129.489ZM118.565 125.581L113.43 128.554C111.65 129.63 110.058 130.99 108.718 132.582L109.912 133.282C111.25 131.687 112.842 130.324 114.624 129.247L119.798 126.281L118.565 125.581ZM111.369 122.867L107.468 125.111C105.688 126.187 104.097 127.55 102.76 129.143L103.954 129.84C105.291 128.247 106.882 126.887 108.662 125.812L112.563 123.563L111.369 122.867ZM102.382 114.318L95.5681 118.242C93.7888 119.318 92.1982 120.678 90.8597 122.27L92.0537 122.97C93.3922 121.379 94.9828 120.018 96.7621 118.942L103.592 115.022L102.382 114.318ZM93.2278 112.726L89.6458 114.795C87.8647 115.87 86.2738 117.232 84.9375 118.827L86.1315 119.523C87.469 117.931 89.0598 116.57 90.8398 115.496L94.4218 113.426L93.2278 112.726Z" fill="black"/>
</g>
<path d="M124.72 95.9817L95.7295 112.686L94.5156 111.985L123.51 95.2852L124.72 95.9817Z" fill="#E0E0E0"/>
<path d="M84.8789 112.073C83.0996 113.149 81.509 114.509 80.1706 116.101L78.9766 115.404C80.3143 113.81 81.9065 112.447 83.6889 111.372L117.579 91.8704L118.773 92.5669L84.8789 112.073Z" fill="#E0E0E0"/>
<path d="M176.505 122.851L176.33 122.405L167.797 127.527L176.505 122.851Z" fill="#E6E6E6"/>
<path d="M177.118 124.427L162.516 133.067L177.266 124.801L177.118 124.427Z" fill="#E6E6E6"/>
<path opacity="0.02" d="M39.3359 125.052C46.4999 121.279 56.0519 116.574 61.0946 115.599C65.1741 114.803 67.6735 115.36 69.1979 116.228L126.983 149.588C125.674 148.836 123.78 148.43 121.105 148.737C121.105 148.737 92.5048 131.292 74.0336 125.334C55.5624 119.376 39.3359 125.052 39.3359 125.052Z" fill="black"/>
<path d="M129.529 155.411L124.172 161.206L132.064 156.637L129.529 155.411Z" fill="#37474F"/>
<path d="M150.442 153.353L148.113 151.686L145.789 156.04V143.921L150.442 141.234V153.353Z" fill="#5276F9"/>
<path opacity="0.25" d="M150.442 153.353L148.113 151.686L145.789 156.04V143.921L150.442 141.234V153.353Z" fill="black"/>
<path d="M124.927 177.257L138.817 185.285C139.097 185.428 139.407 185.502 139.721 185.502C140.035 185.502 140.344 185.428 140.624 185.285L184.854 159.789C185.116 159.618 185.335 159.387 185.491 159.115C185.647 158.843 185.737 158.538 185.753 158.225V157.576C185.735 157.263 185.643 156.958 185.486 156.686C185.328 156.415 185.109 156.184 184.846 156.012L170.916 148.004C170.637 147.862 170.328 147.788 170.014 147.788C169.701 147.788 169.392 147.862 169.113 148.004L124.911 173.476C124.649 173.648 124.432 173.879 124.276 174.151C124.121 174.423 124.031 174.728 124.016 175.04V175.689C124.034 176.004 124.126 176.31 124.284 176.582C124.443 176.854 124.663 177.086 124.927 177.257Z" fill="#F0F0F0"/>
<path d="M169.176 147.972C169.86 147.574 170.577 147.805 171.269 148.203L184.499 155.817C185.183 156.215 185.187 156.86 184.499 157.258L140.957 182.356C140.579 182.573 140.15 182.687 139.714 182.687C139.277 182.687 138.848 182.573 138.47 182.356L125.228 174.746C125.102 174.673 124.997 174.568 124.924 174.441C124.851 174.315 124.812 174.172 124.812 174.026C124.812 173.879 124.851 173.736 124.924 173.61C124.997 173.483 125.102 173.378 125.228 173.305L169.176 147.972Z" fill="#FAFAFA"/>
<path d="M125.225 174.268C125.193 174.213 125.173 174.152 125.164 174.088C125.156 174.025 125.16 173.961 125.177 173.899C125.193 173.837 125.222 173.779 125.261 173.728C125.3 173.678 125.349 173.635 125.404 173.604L169.348 148.275C169.813 148.004 170.355 148.076 171.095 148.506L184.324 156.116C184.444 156.18 184.547 156.273 184.623 156.386C184.778 156.657 184.468 156.876 184.324 156.955L140.783 182.053C140.458 182.241 140.09 182.34 139.715 182.34C139.339 182.34 138.971 182.241 138.646 182.053L125.404 174.443C125.33 174.402 125.268 174.342 125.225 174.268ZM124.923 174.443C124.998 174.569 125.103 174.673 125.229 174.746L138.471 182.356C138.849 182.573 139.278 182.687 139.715 182.687C140.151 182.687 140.58 182.573 140.958 182.356L184.499 157.258C184.989 156.975 185.128 156.569 184.925 156.215C184.821 156.047 184.674 155.91 184.499 155.817L171.27 148.203C170.577 147.805 169.861 147.574 169.176 147.972L125.229 173.305C125.038 173.416 124.899 173.598 124.841 173.811C124.784 174.024 124.813 174.252 124.923 174.443Z" fill="#E0E0E0"/>
<path d="M124.919 173.48L125.226 173.305C125.099 173.378 124.994 173.483 124.921 173.61C124.848 173.736 124.81 173.88 124.81 174.026C124.81 174.172 124.848 174.315 124.921 174.441C124.994 174.568 125.099 174.673 125.226 174.746L138.471 182.356C138.843 182.573 139.266 182.686 139.697 182.682H139.729V185.496C139.408 185.505 139.091 185.429 138.809 185.277L124.915 177.253C124.653 177.082 124.435 176.851 124.277 176.58C124.12 176.31 124.028 176.006 124.008 175.693V175.04C124.026 174.727 124.118 174.422 124.276 174.151C124.435 173.88 124.655 173.65 124.919 173.48Z" fill="#E6E6E6"/>
<path d="M155.916 169.548C155.834 169.511 155.749 169.483 155.661 169.464L144.334 166.28C144.173 166.245 144.009 166.226 143.844 166.225C143.649 166.223 143.458 166.275 143.291 166.376L141.126 167.626C140.947 167.729 140.863 167.833 140.867 167.944C140.867 168.047 140.902 168.147 140.967 168.227L146.463 174.786C146.5 174.845 146.551 174.896 146.61 174.933C146.7 174.983 146.802 175.008 146.905 175.005C147.008 175.007 147.109 174.983 147.2 174.933L148.883 173.962C149.058 173.858 149.15 173.763 149.15 173.675C149.152 173.637 149.145 173.598 149.131 173.563C149.116 173.527 149.094 173.495 149.066 173.468L148.334 172.613L151.888 170.559L153.369 170.985C153.486 171.02 153.608 171.036 153.731 171.033C153.906 171.026 154.076 170.972 154.224 170.877L155.908 169.906C155.941 169.891 155.97 169.867 155.992 169.837C156.013 169.807 156.027 169.772 156.031 169.735C156.031 169.696 156.021 169.658 156 169.625C155.98 169.592 155.951 169.565 155.916 169.548ZM146.965 171.001L144.839 168.525L149.13 169.751L146.965 171.001ZM158.427 164.581L157.078 163.785C156.968 163.726 156.844 163.697 156.72 163.701C156.594 163.697 156.469 163.726 156.357 163.785L152.151 166.217C152.109 166.234 152.074 166.263 152.048 166.299C152.022 166.336 152.006 166.379 152.003 166.424C152.006 166.469 152.021 166.513 152.047 166.55C152.073 166.587 152.109 166.616 152.151 166.635L153.5 167.411C153.609 167.473 153.733 167.503 153.858 167.498C153.985 167.503 154.11 167.473 154.22 167.411L158.427 164.983C158.47 164.967 158.507 164.939 158.532 164.901C158.558 164.864 158.572 164.819 158.572 164.774C158.572 164.728 158.558 164.684 158.532 164.647C158.507 164.609 158.47 164.581 158.427 164.565V164.581ZM170.212 161.218L168.795 160.402C168.685 160.342 168.562 160.312 168.437 160.314C168.311 160.312 168.186 160.342 168.075 160.402L163.852 162.838L163.056 157.445C163.045 157.368 163.015 157.295 162.969 157.233C162.922 157.171 162.86 157.122 162.789 157.091L161.44 156.314C161.33 156.253 161.204 156.222 161.078 156.227C160.953 156.222 160.828 156.252 160.72 156.314L153.826 160.294C153.788 160.312 153.756 160.34 153.733 160.375C153.711 160.411 153.698 160.452 153.698 160.493C153.698 160.535 153.711 160.576 153.733 160.612C153.756 160.647 153.788 160.675 153.826 160.692L155.239 161.512C155.352 161.567 155.476 161.596 155.601 161.596C155.727 161.596 155.851 161.567 155.963 161.512L159.943 159.212L160.704 164.589C160.707 164.65 160.721 164.711 160.743 164.768C160.797 164.858 160.876 164.93 160.97 164.975L162.32 165.771C162.432 165.826 162.556 165.854 162.682 165.854C162.807 165.854 162.931 165.826 163.044 165.771L170.208 161.636C170.251 161.62 170.287 161.591 170.313 161.554C170.339 161.517 170.353 161.472 170.353 161.427C170.353 161.381 170.339 161.337 170.313 161.3C170.287 161.262 170.251 161.234 170.208 161.218H170.212Z" fill="#E0E0E0"/>
</svg>
