<svg width="215" height="160" viewBox="0 0 215 160" fill="none" xmlns="http://www.w3.org/2000/svg">
<path d="M183.9 39.9202H161.417C154.288 39.9202 148.508 45.63 148.508 52.6735V74.8845C148.508 81.9279 154.288 87.6378 161.417 87.6378H183.9C191.03 87.6378 196.81 81.9279 196.81 74.8845V52.6735C196.81 45.63 191.03 39.9202 183.9 39.9202Z" fill="#5276F9"/>
<path d="M178.673 57.0349C178.673 61.0988 176.583 64.3862 172.47 64.3862C168.356 64.3862 166.266 61.0823 166.266 57.0349C166.266 52.9875 168.356 49.6753 172.47 49.6753C176.583 49.6753 178.673 52.971 178.673 57.0349Z" fill="#FAFAFA"/>
<path d="M172.472 77.8747H183.952V71.1346C183.952 67.4094 178.81 64.3862 172.472 64.3862C166.134 64.3862 160.992 67.4094 160.992 71.1346V77.8747H172.472Z" fill="#FAFAFA"/>
<path d="M66.6059 6.71118H50.9038C45.926 6.71118 41.8906 10.6977 41.8906 15.6154V31.1275C41.8906 36.0452 45.926 40.0317 50.9038 40.0317H66.6059C71.5838 40.0317 75.6191 36.0452 75.6191 31.1275V15.6154C75.6191 10.6977 71.5838 6.71118 66.6059 6.71118Z" fill="#5276F9"/>
<path d="M58.0683 25.1724C58.5749 24.4773 59.1613 23.8426 59.8158 23.2809C60.2625 22.8907 60.6764 22.4653 61.0532 22.0088C61.3112 21.6712 61.4493 21.2589 61.4462 20.8359C61.4554 20.5471 61.3914 20.2605 61.26 20.0023C61.1285 19.7441 60.9339 19.5224 60.6937 19.3574C60.1019 18.9741 59.4022 18.7861 58.6954 18.8205C57.9546 18.8032 57.2213 18.9709 56.5634 19.3078C55.9398 19.6397 55.402 20.1088 54.9915 20.679L51.9062 18.8948C52.6242 17.8241 53.6245 16.9673 54.7992 16.4169C56.1544 15.7958 57.6368 15.4933 59.1302 15.5331C60.79 15.4557 62.4337 15.8854 63.8375 16.7638C64.4003 17.1385 64.858 17.6477 65.1679 18.2442C65.4778 18.8407 65.6299 19.505 65.61 20.1751C65.6238 20.7985 65.5041 21.4178 65.2589 21.9923C65.0559 22.4754 64.7733 22.922 64.4228 23.3139C64.0883 23.6773 63.6619 24.0903 63.1351 24.5612C62.631 24.9846 62.169 25.4549 61.7556 25.9653C61.4586 26.361 61.3054 26.8441 61.3208 27.3365H57.4663C57.4354 26.571 57.6457 25.8148 58.0683 25.1724ZM57.6586 32.9945C57.429 32.7847 57.2474 32.5287 57.1263 32.2437C57.0052 31.9588 56.9472 31.6515 56.9563 31.3426C56.9496 31.0432 57.0082 30.746 57.1279 30.4709C57.2476 30.1959 57.4258 29.9495 57.6503 29.7484C58.1401 29.3326 58.7645 29.104 59.4103 29.104C60.0561 29.104 60.6805 29.3326 61.1703 29.7484C61.3933 29.9502 61.5699 30.197 61.6882 30.472C61.8064 30.747 61.8636 31.0439 61.8559 31.3426C61.865 31.6515 61.8071 31.9588 61.6859 32.2437C61.5648 32.5287 61.3833 32.7847 61.1536 32.9945C60.676 33.4252 60.0527 33.664 59.4061 33.664C58.7595 33.664 58.1362 33.4252 57.6586 32.9945Z" fill="#FAFAFA"/>
<path d="M194.926 119.684H207.075C208.926 119.684 210.702 120.411 212.012 121.704C213.321 122.998 214.056 124.752 214.056 126.581V138.583C214.056 140.41 213.322 142.162 212.014 143.454C210.706 144.746 208.933 145.472 207.083 145.472H194.926C193.077 145.472 191.303 144.746 189.996 143.454C188.688 142.162 187.953 140.41 187.953 138.583V126.581C187.953 124.754 188.688 123.002 189.996 121.71C191.303 120.418 193.077 119.692 194.926 119.692V119.684Z" fill="#5276F9"/>
<path d="M200.453 133.974C200.846 133.437 201.301 132.946 201.808 132.512C202.156 132.209 202.477 131.877 202.769 131.521C202.969 131.262 203.075 130.945 203.07 130.62C203.079 130.397 203.03 130.175 202.928 129.975C202.825 129.776 202.673 129.606 202.485 129.48C202.029 129.179 201.486 129.032 200.938 129.059C200.378 129.043 199.822 129.166 199.323 129.417C198.823 129.668 198.395 130.039 198.079 130.496L195.688 129.117C196.24 128.281 197.015 127.612 197.928 127.184C198.975 126.705 200.119 126.471 201.273 126.499C202.559 126.437 203.833 126.772 204.918 127.457C205.355 127.748 205.711 128.144 205.951 128.607C206.19 129.071 206.307 129.588 206.289 130.108C206.299 130.59 206.208 131.068 206.022 131.512C205.864 131.888 205.644 132.234 205.37 132.537C205.057 132.877 204.724 133.2 204.375 133.503C203.987 133.833 203.629 134.195 203.304 134.585C203.08 134.896 202.963 135.269 202.97 135.651H199.993C199.967 135.058 200.128 134.472 200.453 133.974ZM200.136 140.028C199.961 139.869 199.823 139.674 199.731 139.458C199.639 139.241 199.594 139.008 199.6 138.773C199.595 138.541 199.64 138.312 199.731 138.098C199.821 137.885 199.956 137.692 200.127 137.534C200.507 137.213 200.99 137.037 201.49 137.037C201.99 137.037 202.473 137.213 202.853 137.534C203.025 137.692 203.162 137.884 203.254 138.097C203.346 138.311 203.392 138.541 203.388 138.773C203.393 139.008 203.347 139.242 203.254 139.459C203.16 139.675 203.021 139.87 202.845 140.028C202.666 140.201 202.454 140.336 202.221 140.425C201.988 140.514 201.74 140.557 201.49 140.549C201.241 140.555 200.993 140.512 200.76 140.422C200.528 140.333 200.315 140.199 200.136 140.028Z" fill="#FAFAFA"/>
<path d="M130.512 0H114.81C109.832 0 105.797 3.98655 105.797 8.9042V24.4164C105.797 29.334 109.832 33.3206 114.81 33.3206H130.512C135.49 33.3206 139.525 29.334 139.525 24.4164V8.9042C139.525 3.98655 135.49 0 130.512 0Z" fill="#5276F9"/>
<path d="M122.664 7.2688C121.662 7.2688 120.67 7.46392 119.744 7.84301C118.819 8.2221 117.978 8.77771 117.27 9.47809C116.561 10.1785 116 11.0099 115.617 11.9248C115.234 12.8397 115.038 13.8202 115.039 14.8101C115.039 18.9401 118.45 28.9511 122.664 28.9511C126.878 28.9511 130.29 18.9649 130.29 14.8101C130.291 13.8202 130.094 12.8397 129.712 11.9248C129.329 11.0099 128.767 10.1785 128.059 9.47809C127.351 8.77771 126.51 8.2221 125.584 7.84301C124.659 7.46392 123.666 7.2688 122.664 7.2688ZM122.664 17.0816C122.21 17.0816 121.765 16.9484 121.387 16.6988C121.009 16.4492 120.714 16.0944 120.54 15.6794C120.366 15.2643 120.321 14.8076 120.409 14.367C120.498 13.9264 120.717 13.5216 121.039 13.2039C121.36 12.8863 121.77 12.6699 122.216 12.5823C122.662 12.4946 123.124 12.5396 123.544 12.7115C123.964 12.8835 124.323 13.1746 124.576 13.5482C124.829 13.9217 124.964 14.3609 124.964 14.8101C124.955 15.4068 124.709 15.9761 124.278 16.395C123.848 16.8138 123.268 17.0486 122.664 17.0486V17.0816Z" fill="#FAFAFA"/>
<path d="M29.6483 126.5C29.8936 124.971 29.8936 123.413 29.6483 121.883L27.2988 121.578C27.1093 120.725 26.829 119.894 26.4627 119.1L28.1851 117.489C27.469 116.111 26.541 114.852 25.4343 113.755L23.344 114.879C22.6979 114.3 21.9916 113.791 21.2371 113.359L21.6718 111.054C20.2832 110.349 18.7905 109.864 17.2488 109.617L16.2371 111.723C15.8107 111.682 15.401 111.657 14.9328 111.657C14.4646 111.657 14.0466 111.657 13.6201 111.723L12.6085 109.617C11.0587 109.858 9.55734 110.341 8.16037 111.046L8.59514 113.351C7.84057 113.783 7.13432 114.292 6.48816 114.871L4.39789 113.747C3.29119 114.844 2.36324 116.103 1.64711 117.481L3.36948 119.091C3.00318 119.886 2.72292 120.717 2.53338 121.569L0.192278 121.875C-0.0640926 123.404 -0.0640926 124.964 0.192278 126.492L2.53338 126.798C2.72292 127.651 3.00318 128.481 3.36948 129.276L1.64711 130.887C2.36162 132.265 3.28974 133.525 4.39789 134.62L6.48816 133.497C7.13432 134.075 7.84057 134.585 8.59514 135.016L8.16037 137.321C9.55734 138.026 11.0587 138.509 12.6085 138.75L13.6201 136.644C14.0466 136.685 14.4562 136.71 14.9328 136.71C15.4094 136.71 15.7689 136.71 16.2371 136.644L17.2488 138.75C18.7986 138.509 20.2999 138.026 21.6969 137.321L21.2621 135.016C22.0167 134.585 22.723 134.075 23.3691 133.497L25.4594 134.62C26.5661 133.523 27.494 132.264 28.2102 130.887L26.5129 129.259C26.8782 128.464 27.1584 127.634 27.349 126.781L29.6483 126.5ZM14.9328 129.334C13.9019 129.335 12.8936 129.035 12.0357 128.47C11.1779 127.905 10.5089 127.101 10.1136 126.161C9.71835 125.22 9.61449 124.185 9.81521 123.186C10.0159 122.187 10.5122 121.269 11.2412 120.549C11.9702 119.829 12.8991 119.339 13.9103 119.14C14.9215 118.942 15.9696 119.045 16.9217 119.435C17.8739 119.826 18.6873 120.486 19.259 121.334C19.8308 122.181 20.1351 123.177 20.1334 124.196C20.1312 125.558 19.5826 126.863 18.6077 127.826C17.6329 128.789 16.3114 129.331 14.9328 129.334Z" fill="#385AD4"/>
<path d="M37.1938 143.119C37.2539 142.737 37.2846 142.35 37.2858 141.963C37.2852 141.576 37.2545 141.189 37.1938 140.807L36.0149 140.658C35.9255 140.235 35.791 139.822 35.6136 139.427L36.4497 138.601C36.0919 137.909 35.6264 137.276 35.0701 136.726L34.025 137.288C33.7003 137.001 33.3474 136.746 32.9715 136.528L33.1889 135.38C32.4909 135.025 31.7401 134.782 30.9648 134.661L30.4632 135.718C30.2458 135.718 30.0284 135.718 29.811 135.718C29.5936 135.718 29.3679 135.718 29.1505 135.718L28.6488 134.661C27.8736 134.782 27.1228 135.025 26.4248 135.38L26.6422 136.528C26.2663 136.746 25.9134 137.001 25.5887 137.288L24.5436 136.726C23.9873 137.276 23.5218 137.909 23.164 138.601L24.0001 139.427C23.8227 139.822 23.6882 140.235 23.5988 140.658L22.4282 140.807C22.3633 141.189 22.3325 141.576 22.3362 141.963C22.3333 142.35 22.3641 142.737 22.4282 143.119L23.5988 143.268C23.6882 143.688 23.8227 144.098 24.0001 144.49L23.164 145.316C23.5225 146.006 23.988 146.636 24.5436 147.183L25.5887 146.621C25.9091 146.914 26.2626 147.169 26.6422 147.381L26.4248 148.53C27.1228 148.884 27.8736 149.127 28.6488 149.248L29.1505 148.191C29.5869 148.235 30.0268 148.235 30.4632 148.191L30.9648 149.248C31.7401 149.127 32.4909 148.884 33.1889 148.53L32.9715 147.381C33.3511 147.169 33.7046 146.914 34.025 146.621L35.0701 147.183C35.6257 146.636 36.0912 146.006 36.4497 145.316L35.6136 144.49C35.791 144.098 35.9255 143.688 36.0149 143.268L37.1938 143.119ZM29.8361 144.532C29.3218 144.532 28.8191 144.381 28.3915 144.099C27.9639 143.817 27.6306 143.415 27.4338 142.946C27.2369 142.477 27.1854 141.96 27.2858 141.462C27.3861 140.963 27.6338 140.506 27.9974 140.146C28.3611 139.787 28.8244 139.543 29.3288 139.443C29.8332 139.344 30.3561 139.395 30.8312 139.59C31.3063 139.784 31.7124 140.113 31.9982 140.536C32.2839 140.958 32.4364 141.455 32.4364 141.963C32.4343 142.639 32.163 143.288 31.6813 143.768C31.1995 144.249 30.5458 144.523 29.8612 144.532H29.8361Z" fill="#385AD4"/>
<path d="M205.49 110.653C205.806 110.423 206.105 110.172 206.385 109.901C206.661 109.627 206.916 109.331 207.146 109.018L206.427 108.092C206.665 107.732 206.861 107.347 207.012 106.944H208.199C208.443 106.208 208.567 105.439 208.567 104.665L207.422 104.334C207.405 103.904 207.337 103.477 207.221 103.062L208.199 102.401C207.963 101.663 207.604 100.968 207.138 100.345L206.026 100.733C205.89 100.566 205.744 100.406 205.591 100.254C205.432 100.097 205.273 99.9564 205.106 99.816L205.499 98.7175C204.863 98.2646 204.161 97.9108 203.417 97.6684L202.748 98.6349C202.323 98.528 201.889 98.4616 201.452 98.4366L201.118 97.3133C200.334 97.3109 199.554 97.4336 198.81 97.6767V98.8414C198.403 98.9969 198.014 99.1934 197.648 99.4278L196.703 98.7175C196.063 99.1797 195.499 99.7369 195.031 100.369L195.75 101.295C195.514 101.66 195.315 102.047 195.156 102.451H193.977C193.735 103.187 193.611 103.956 193.609 104.731L194.746 105.061C194.771 105.491 194.839 105.917 194.947 106.333L193.969 107.002C194.214 107.737 194.572 108.431 195.031 109.059L196.143 108.662C196.285 108.828 196.427 108.993 196.586 109.15C196.745 109.307 196.904 109.447 197.071 109.579L196.678 110.678C197.309 111.139 198.012 111.493 198.76 111.727L199.429 110.76C199.849 110.875 200.281 110.942 200.716 110.959L201.051 112.09C201.837 112.089 202.619 111.967 203.367 111.727V110.554C203.773 110.401 204.163 110.208 204.529 109.976L205.49 110.653ZM199.278 106.523C198.915 106.164 198.667 105.706 198.567 105.208C198.467 104.71 198.519 104.193 198.715 103.724C198.912 103.255 199.246 102.854 199.673 102.571C200.101 102.289 200.603 102.139 201.118 102.139C201.632 102.139 202.134 102.289 202.562 102.571C202.99 102.854 203.323 103.255 203.52 103.724C203.717 104.193 203.768 104.71 203.668 105.208C203.568 105.706 203.32 106.164 202.957 106.523C202.716 106.762 202.429 106.952 202.113 107.081C201.797 107.21 201.458 107.276 201.116 107.276C200.774 107.275 200.435 107.207 200.12 107.077C199.805 106.946 199.519 106.755 199.278 106.515V106.523Z" fill="#385AD4"/>
<path d="M84.5312 58.4473V45.5784L90.9358 44.6863V57.5553L84.5312 58.4473Z" fill="#263238"/>
<path d="M63.2367 65.6168L58.4375 58.0672L62.526 55.1763L67.3169 62.7176L63.2367 65.6168Z" fill="#263238"/>
<path d="M108.141 57.043L112.94 48.1719L117.02 49.9312L112.229 58.8107L108.141 57.043Z" fill="#263238"/>
<g opacity="0.5">
<path d="M84.5312 58.4473V45.5784L90.9358 44.6863V57.5553L84.5312 58.4473Z" fill="white"/>
<path d="M63.2367 65.6171L58.4375 58.0675L62.526 55.1765L67.3169 62.7178L63.2367 65.6171Z" fill="white"/>
<path d="M108.148 57.043L112.948 48.1719L117.028 49.9312L112.237 58.8107L108.148 57.043Z" fill="white"/>
</g>
<path d="M91.8468 46.7594L83.6195 47.9076C83.3208 47.9621 83.0135 47.9497 82.7203 47.8714C82.4271 47.7931 82.1554 47.6509 81.9251 47.4551C81.6949 47.2594 81.5121 47.0151 81.39 46.7404C81.2679 46.4656 81.2098 46.1673 81.2199 45.8674C81.2388 45.2115 81.4889 44.5828 81.927 44.0897C82.3651 43.5966 82.9637 43.27 83.6195 43.1664L91.8468 42.0265C92.1447 41.9722 92.4512 41.9844 92.7438 42.0622C93.0364 42.1401 93.3077 42.2816 93.5377 42.4764C93.7678 42.6712 93.9508 42.9144 94.0735 43.1881C94.1961 43.4619 94.2551 43.7592 94.2464 44.0584C94.2259 44.7138 93.9752 45.3417 93.5374 45.8345C93.0996 46.3273 92.5019 46.6543 91.8468 46.7594Z" fill="#263238"/>
<path d="M63.8539 54.9699L57.7587 59.2981C57.632 59.4027 57.4849 59.4805 57.3264 59.5266C57.168 59.5727 57.0017 59.5861 56.8378 59.5659C56.6739 59.5458 56.5159 59.4926 56.3737 59.4095C56.2315 59.3265 56.1082 59.2155 56.0113 59.0833C55.8505 58.7804 55.8093 58.4292 55.8959 58.098C55.9824 57.7668 56.1904 57.4791 56.4795 57.2909L62.5831 52.971C62.7086 52.8653 62.8549 52.7866 63.0129 52.7399C63.1708 52.6932 63.3369 52.6795 63.5005 52.6997C63.6641 52.7199 63.8217 52.7736 63.9632 52.8573C64.1046 52.9409 64.2269 53.0528 64.3222 53.1857C64.4825 53.4874 64.5233 53.8373 64.4368 54.1671C64.3502 54.4969 64.1424 54.7831 63.8539 54.9699Z" fill="#263238"/>
<path d="M117.702 50.972L111.598 48.3453C111.453 48.2723 111.324 48.1702 111.221 48.0455C111.117 47.9208 111.041 47.7762 110.997 47.6209C110.953 47.4656 110.942 47.303 110.965 47.1433C110.988 46.9837 111.044 46.8304 111.13 46.6933C111.283 46.3842 111.545 46.1416 111.868 46.012C112.19 45.8825 112.55 45.8751 112.877 45.9913L118.973 48.6262C119.12 48.6973 119.251 48.7984 119.356 48.9228C119.461 49.0473 119.538 49.1923 119.582 49.3484C119.626 49.5044 119.637 49.6679 119.612 49.8282C119.588 49.9884 119.53 50.1418 119.441 50.2782C119.288 50.5852 119.027 50.8258 118.706 50.9538C118.385 51.0819 118.027 51.0883 117.702 50.972Z" fill="#263238"/>
<path opacity="0.7" d="M91.8468 46.7594L83.6195 47.9076C83.3208 47.9621 83.0135 47.9497 82.7203 47.8714C82.4271 47.7931 82.1554 47.6509 81.9251 47.4551C81.6949 47.2594 81.5121 47.0151 81.39 46.7404C81.2679 46.4656 81.2098 46.1673 81.2199 45.8674C81.2388 45.2115 81.4889 44.5828 81.927 44.0897C82.3651 43.5966 82.9637 43.27 83.6195 43.1664L91.8468 42.0265C92.1447 41.9722 92.4512 41.9844 92.7438 42.0622C93.0364 42.1401 93.3077 42.2816 93.5377 42.4764C93.7678 42.6712 93.9508 42.9144 94.0735 43.1881C94.1961 43.4619 94.2551 43.7592 94.2464 44.0584C94.2259 44.7138 93.9752 45.3417 93.5374 45.8345C93.0996 46.3273 92.5019 46.6543 91.8468 46.7594Z" fill="white"/>
<path opacity="0.7" d="M63.8539 54.9699L57.7587 59.2981C57.632 59.4027 57.4849 59.4805 57.3264 59.5266C57.168 59.5727 57.0017 59.5861 56.8378 59.5659C56.6739 59.5458 56.5159 59.4926 56.3737 59.4095C56.2315 59.3265 56.1082 59.2155 56.0113 59.0833C55.8505 58.7804 55.8093 58.4292 55.8959 58.098C55.9824 57.7668 56.1904 57.4791 56.4795 57.2909L62.5831 52.971C62.7086 52.8653 62.8549 52.7866 63.0129 52.7399C63.1708 52.6932 63.3369 52.6795 63.5005 52.6997C63.6641 52.7199 63.8217 52.7736 63.9632 52.8573C64.1046 52.9409 64.2269 53.0528 64.3222 53.1857C64.4825 53.4874 64.5233 53.8373 64.4368 54.1671C64.3502 54.4969 64.1424 54.7831 63.8539 54.9699Z" fill="white"/>
<path opacity="0.7" d="M117.702 50.972L111.598 48.3453C111.453 48.2723 111.324 48.1702 111.221 48.0455C111.117 47.9208 111.041 47.7762 110.997 47.6209C110.953 47.4656 110.942 47.303 110.965 47.1433C110.988 46.9837 111.044 46.8304 111.13 46.6933C111.283 46.3842 111.545 46.1416 111.868 46.012C112.19 45.8825 112.55 45.8751 112.877 45.9913L118.973 48.6262C119.12 48.6973 119.251 48.7984 119.356 48.9228C119.461 49.0473 119.538 49.1923 119.582 49.3484C119.626 49.5044 119.637 49.6679 119.612 49.8282C119.588 49.9884 119.53 50.1418 119.441 50.2782C119.288 50.5852 119.027 50.8258 118.706 50.9538C118.385 51.0819 118.027 51.0883 117.702 50.972Z" fill="white"/>
<path d="M87.7327 139.014C65.4672 142.104 47.4156 126.782 47.4156 104.785C47.4156 82.7891 65.4672 62.4449 87.7327 59.3557C109.998 56.2665 128.05 71.5887 128.05 93.5849L133.551 92.8249C133.551 67.8221 113.033 50.4102 87.7327 53.9207C62.4321 57.4311 41.9141 80.5507 41.9141 105.545C41.9141 130.54 62.4237 147.96 87.7327 144.45V139.014Z" fill="#407BFF"/>
<path d="M71.7041 127.398L68.6953 132.965L69.8754 133.588L72.8841 128.021L71.7041 127.398Z" fill="#263238"/>
<path d="M105.571 64.7758L102.562 70.3425L103.743 70.965L106.751 65.3983L105.571 64.7758Z" fill="#263238"/>
<path d="M56.0744 84.7896L55.5391 86.0007L60.7495 88.2485L61.2848 87.0373L56.0744 84.7896Z" fill="#263238"/>
<path d="M70.3871 70.6553L69.25 71.3557L72.25 76.1089L73.3871 75.4084L70.3871 70.6553Z" fill="#263238"/>
<path d="M60.6313 117.609L55.4141 121.307L56.194 122.381L61.4112 118.683L60.6313 117.609Z" fill="#263238"/>
<path d="M119.264 76.0128L114.047 79.7109L114.827 80.7847L120.044 77.0865L119.264 76.0128Z" fill="#263238"/>
<path d="M58.7105 101.88L50.6875 102.994L51.0599 105.612L59.0829 104.498L58.7105 101.88Z" fill="#263238"/>
<path d="M89.074 62.7754H86.3984V70.7049H89.074V62.7754Z" fill="#263238"/>
<path d="M89.074 127.666H86.3984V135.595H89.074V127.666Z" fill="#263238"/>
<path d="M77.3769 90.5948C77.0654 90.9043 76.8906 91.323 76.8906 91.7595C76.8906 92.1959 77.0654 92.6146 77.3769 92.9241L86.3566 100.54L88.7061 97.8883L79.7347 90.2644C79.5585 90.1317 79.3574 90.0348 79.143 89.9796C78.9286 89.9243 78.7052 89.9117 78.4858 89.9424C78.2665 89.9731 78.0555 90.0466 77.8651 90.1586C77.6747 90.2706 77.5088 90.4189 77.3769 90.5948Z" fill="#407BFF"/>
<path opacity="0.4" d="M77.3769 90.5948C77.0654 90.9043 76.8906 91.323 76.8906 91.7595C76.8906 92.1959 77.0654 92.6146 77.3769 92.9241L86.3566 100.54L88.7061 97.8883L79.7347 90.2644C79.5585 90.1317 79.3574 90.0348 79.143 89.9796C78.9286 89.9243 78.7052 89.9117 78.4858 89.9424C78.2665 89.9731 78.0555 90.0466 77.8651 90.1586C77.6747 90.2706 77.5088 90.4189 77.3769 90.5948Z" fill="white"/>
<path d="M137.472 91.6191L130.775 100.482L124.086 93.4776L137.472 91.6191Z" fill="#407BFF"/>
<path d="M103.007 81.7236C102.831 81.5909 102.63 81.4941 102.416 81.4388C102.201 81.3835 101.978 81.3709 101.759 81.4016C101.539 81.4324 101.328 81.5059 101.138 81.6179C100.947 81.7299 100.781 81.8781 100.65 82.054L88.4926 95.749C87.8414 95.6679 87.18 95.7486 86.5683 95.9837C85.9566 96.2188 85.4139 96.6009 84.9893 97.0954C83.6181 98.6482 83.6181 100.854 84.9893 102.051C86.3606 103.249 88.6013 102.877 90.006 101.358C90.4391 100.881 90.7429 100.304 90.8891 99.6797C91.0353 99.0557 91.0192 98.4053 90.8421 97.7892L102.999 84.086C103.159 83.9327 103.286 83.7494 103.373 83.5468C103.46 83.3443 103.506 83.1266 103.506 82.9066C103.507 82.6865 103.463 82.4685 103.378 82.2654C103.292 82.0622 103.166 81.878 103.007 81.7236Z" fill="#407BFF"/>
<path d="M105.205 131.547L115.656 130.094L114.728 134.86L95.8906 137.478L96.6431 133.687L107.981 123.337C109.047 122.385 110.005 121.321 110.84 120.165C111.359 119.438 111.65 118.576 111.676 117.687C111.698 117.327 111.623 116.968 111.459 116.645C111.294 116.323 111.046 116.05 110.74 115.854C109.906 115.418 108.942 115.292 108.023 115.498C106.994 115.643 106.01 116.006 105.138 116.564C104.198 117.15 103.378 117.907 102.722 118.794L98.8504 116.556C99.933 114.974 101.362 113.653 103.031 112.69C104.822 111.631 106.814 110.945 108.884 110.675C110.403 110.423 111.959 110.493 113.449 110.881C114.646 111.188 115.715 111.862 116.501 112.806C117.235 113.736 117.619 114.889 117.588 116.068C117.573 117.641 117.131 119.182 116.308 120.529C115.081 122.41 113.586 124.107 111.869 125.567L105.205 131.547Z" fill="#263238"/>
<path d="M140.568 126.112L136.487 126.682L135.451 131.985L129.84 132.762L130.886 127.451L117.508 129.317L118.252 125.386L132.892 107.759L139.188 106.892L125.534 123.568L132.081 122.66L133.001 117.927L138.369 117.183L137.441 121.908L141.529 121.346L140.568 126.112Z" fill="#263238"/>
<path d="M156.985 99.4329L162.177 98.7061L143.908 134.323L138.758 135.033L156.985 99.4329Z" fill="#263238"/>
<path d="M180.681 101.126L179.937 104.918L166.643 127.649L160.247 128.541L173.006 106.826L164.937 107.949L164.101 112.079L158.984 112.789L160.723 103.91L180.681 101.126Z" fill="#263238"/>
<path d="M94.5891 159.886C93.68 159.793 92.8 159.533 92 159.121L93.4 156.45C94.1096 156.835 94.8899 157.095 95.7014 157.216C96.5684 157.345 97.4521 157.345 98.3192 157.216C99.1218 157.141 99.894 156.891 100.573 156.486C100.815 156.352 101.018 156.164 101.162 155.938C101.306 155.713 101.387 155.457 101.397 155.195C101.408 155 101.348 154.807 101.229 154.646C101.109 154.485 100.936 154.365 100.736 154.305C100.054 154.093 99.3502 153.949 98.6356 153.878C97.8405 153.769 97.0528 153.618 96.2767 153.424C95.672 153.26 95.1235 152.953 94.6849 152.534C94.2102 152.021 93.9724 151.356 94.0233 150.682C94.019 149.766 94.3095 148.87 94.8575 148.109C95.467 147.286 96.2875 146.616 97.2452 146.16C98.3609 145.617 99.5723 145.264 100.822 145.118C101.774 144.985 102.741 144.964 103.699 145.056C104.497 145.117 105.277 145.313 106 145.635L104.705 148.252C104.125 147.959 103.491 147.769 102.836 147.691C102.113 147.602 101.381 147.602 100.659 147.691C99.8307 147.771 99.0368 148.04 98.3479 148.474C98.098 148.612 97.889 148.805 97.74 149.037C97.5909 149.269 97.5066 149.531 97.4945 149.801C97.4867 149.938 97.5159 150.075 97.5795 150.2C97.6432 150.324 97.7392 150.432 97.8589 150.513C98.1273 150.703 98.4389 150.834 98.7699 150.896C99.1342 150.967 99.652 151.047 100.323 151.136C101.113 151.218 101.895 151.354 102.663 151.545C103.258 151.712 103.796 152.019 104.226 152.436C104.456 152.677 104.631 152.96 104.741 153.265C104.852 153.571 104.895 153.894 104.869 154.216C104.878 155.139 104.584 156.043 104.025 156.806C103.403 157.627 102.577 158.295 101.618 158.756C100.486 159.333 99.2519 159.716 97.974 159.886C96.8516 160.038 95.7115 160.038 94.5891 159.886Z" fill="#263238"/>
<path d="M111.736 146.717L111.104 149.862L117.906 148.956L117.387 151.567L110.566 152.473L109.896 155.827L117.887 154.748L117.321 157.468L106 159L108.925 144.496L120 143L119.434 145.72L111.736 146.717Z" fill="#263238"/>
<path d="M132.934 148.541C132.198 149.642 131.178 150.504 129.991 151.029L132.428 155.169L129.008 155.676L126.805 151.921L124.044 152.324L123.258 156.521L120 157L122.798 141.978L128.511 141.143C129.882 140.826 131.316 141.04 132.546 141.744C133.03 142.084 133.419 142.552 133.672 143.099C133.926 143.647 134.036 144.255 133.99 144.861C134.013 146.172 133.644 147.458 132.934 148.541ZM129.82 148.015C130.118 147.712 130.351 147.347 130.507 146.945C130.662 146.542 130.736 146.111 130.723 145.677C130.749 145.393 130.7 145.107 130.581 144.851C130.462 144.594 130.276 144.376 130.046 144.222C129.444 143.916 128.76 143.83 128.105 143.978L125.542 144.354L124.558 149.564L127.32 149.161C128.249 149.065 129.125 148.663 129.82 148.015Z" fill="#263238"/>
<path d="M151 139L141.741 153.577L138.413 154L135 141.062L138.498 140.613L140.855 149.851L147.455 139.449L151 139Z" fill="#263238"/>
<path d="M151.768 138.463L155 138L152.232 152.537L149 153L151.768 138.463Z" fill="#263238"/>
<path d="M159.217 150.639C158.246 150.322 157.406 149.686 156.831 148.83C156.258 147.912 155.969 146.841 156.003 145.755C155.995 144.204 156.366 142.675 157.08 141.305C157.801 139.919 158.843 138.733 160.116 137.849C161.444 136.919 162.97 136.32 164.568 136.103C165.661 135.92 166.779 135.981 167.845 136.284C168.72 136.521 169.484 137.066 170 137.822L167.685 140.074C167.299 139.575 166.78 139.2 166.189 138.993C165.598 138.786 164.962 138.756 164.355 138.908C163.387 139.039 162.467 139.419 161.683 140.011C160.926 140.6 160.316 141.363 159.903 142.236C159.475 143.126 159.256 144.104 159.262 145.095C159.228 145.553 159.303 146.013 159.48 146.436C159.656 146.859 159.929 147.233 160.277 147.528C160.691 147.813 161.158 148.009 161.65 148.102C162.142 148.196 162.647 148.185 163.135 148.07C164.585 147.867 165.901 147.098 166.803 145.927L168.7 147.618C167.992 148.533 167.11 149.294 166.107 149.855C165.103 150.416 163.999 150.766 162.859 150.884C161.643 151.099 160.394 151.015 159.217 150.639Z" fill="#263238"/>
<path d="M175.744 137.709L175.111 140.855L181.922 139.945L181.402 142.555L174.572 143.464L173.901 146.818L181.903 145.736L181.336 148.464L170 150L172.938 135.455L184 134L183.433 136.727L175.744 137.709Z" fill="#263238"/>
<path d="M20.7021 54.8086C11.7641 54.8086 4.52344 60.0206 4.52344 66.4468C4.52344 71.1137 8.36117 75.1363 13.8878 76.9865C13.2955 79.6667 12.2767 82.2372 10.8695 84.6022C12.8751 84.3074 14.7867 83.566 16.4597 82.4341C18.1327 81.3022 19.5233 79.8094 20.5265 78.0686H20.7021C29.6401 78.0686 36.8807 72.8648 36.8807 66.4386C36.8807 60.0124 29.6401 54.8086 20.7021 54.8086Z" fill="#407BFF"/>
<path opacity="0.7" d="M20.7021 54.8086C11.7641 54.8086 4.52344 60.0206 4.52344 66.4468C4.52344 71.1137 8.36117 75.1363 13.8878 76.9865C13.2955 79.6667 12.2767 82.2372 10.8695 84.6022C12.8751 84.3074 14.7867 83.566 16.4597 82.4341C18.1327 81.3022 19.5233 79.8094 20.5265 78.0686H20.7021C29.6401 78.0686 36.8807 72.8648 36.8807 66.4386C36.8807 60.0124 29.6401 54.8086 20.7021 54.8086Z" fill="#5276F9"/>
<path d="M13.5768 68.6853C14.4865 68.6853 15.2239 67.9568 15.2239 67.0581C15.2239 66.1594 14.4865 65.4309 13.5768 65.4309C12.6671 65.4309 11.9297 66.1594 11.9297 67.0581C11.9297 67.9568 12.6671 68.6853 13.5768 68.6853Z" fill="white"/>
<path d="M22.2429 67.058C22.2429 67.3847 22.1448 67.7041 21.961 67.9758C21.7773 68.2475 21.5161 68.4592 21.2106 68.5842C20.905 68.7093 20.5688 68.742 20.2444 68.6782C19.92 68.6145 19.6221 68.4572 19.3882 68.2261C19.1543 67.9951 18.9951 67.7007 18.9306 67.3803C18.866 67.0598 18.8992 66.7277 19.0257 66.4258C19.1523 66.1239 19.3666 65.8659 19.6416 65.6844C19.9166 65.5029 20.2399 65.406 20.5706 65.406C21.0141 65.406 21.4395 65.5801 21.7531 65.8899C22.0667 66.1997 22.2429 66.6199 22.2429 67.058Z" fill="white"/>
<path d="M27.6159 68.6853C28.5256 68.6853 29.263 67.9568 29.263 67.0581C29.263 66.1594 28.5256 65.4309 27.6159 65.4309C26.7062 65.4309 25.9688 66.1594 25.9688 67.0581C25.9688 67.9568 26.7062 68.6853 27.6159 68.6853Z" fill="white"/>
</svg>
