<svg width="130" height="130" viewBox="0 0 130 130" fill="none" xmlns="http://www.w3.org/2000/svg">
<path d="M106.338 67.5427C83.3519 54.2827 46.2057 54.2827 23.3673 67.5427C0.528861 80.8027 0.661461 102.331 23.6585 115.601C46.6555 128.871 83.7913 128.874 106.63 115.601C129.468 102.328 129.335 80.8131 106.338 67.5427Z" fill="#F5F5F5"/>
<path d="M30.0552 111.872C31.8388 110.832 34.7196 110.832 36.4928 111.872C38.266 112.912 38.2556 114.571 36.472 115.6C34.6884 116.63 31.8076 116.64 30.0344 115.6C28.2612 114.56 28.2716 112.901 30.0552 111.872Z" fill="#E0E0E0"/>
<path d="M41.2286 93.5994L61.8804 81.6758L78.3748 91.1736C79.2073 90.2084 80.2037 89.3978 81.318 88.779C87.1992 85.3834 96.7074 85.3834 102.552 88.779C108.397 92.1746 108.366 97.684 102.485 101.08C101.216 101.796 99.8644 102.354 98.4598 102.741L100.116 103.695C100.23 103.761 100.324 103.856 100.39 103.97C100.456 104.084 100.49 104.214 100.49 104.345C100.49 104.477 100.456 104.606 100.39 104.72C100.324 104.834 100.23 104.929 100.116 104.995L80.9488 116.066C80.4929 116.329 79.976 116.467 79.4499 116.467C78.9238 116.467 78.4069 116.329 77.951 116.066L41.2286 94.8994C41.1141 94.8339 41.0189 94.7392 40.9526 94.6251C40.8864 94.5109 40.8516 94.3813 40.8516 94.2494C40.8516 94.1174 40.8864 93.9878 40.9526 93.8737C41.0189 93.7595 41.1141 93.6649 41.2286 93.5994Z" fill="#E0E0E0"/>
<path d="M77.2497 60.8084L13.4067 97.9858L10.4297 96.2672L74.2727 59.0898L77.2497 60.8084Z" fill="#E0E0E0"/>
<path d="M28.9454 105.951L33.264 106.076L37.5826 105.951C37.7672 108.866 37.1978 111.838 36.4126 113.288C36.2271 113.662 35.9275 113.967 35.5572 114.159C34.2832 114.893 32.2266 114.893 30.9604 114.159C30.5839 113.964 30.283 113.65 30.105 113.265C29.325 111.801 28.7608 108.853 28.9454 105.951Z" fill="white"/>
<path d="M30.2242 104.183C28.5316 105.158 28.5238 106.742 30.2034 107.719C31.883 108.697 34.6234 108.697 36.3082 107.719C37.993 106.742 38.0086 105.158 36.329 104.183C34.6494 103.208 31.9142 103.206 30.2242 104.183Z" fill="#EBEBEB"/>
<path d="M30.893 104.569C29.5722 105.331 29.567 106.566 30.8774 107.328C32.1878 108.09 34.3198 108.09 35.6406 107.328C36.9614 106.566 36.9666 105.331 35.6562 104.569C34.3458 103.808 32.2112 103.808 30.893 104.569Z" fill="#E0E0E0"/>
<g opacity="0.15">
<path d="M30.893 104.569C29.5722 105.331 29.567 106.566 30.8774 107.328C32.1878 108.09 34.3198 108.09 35.6406 107.328C36.9614 106.566 36.9666 105.331 35.6562 104.569C34.3458 103.808 32.2112 103.808 30.893 104.569Z" fill="black"/>
</g>
<path d="M26.168 87.5273C35.8972 90.7123 35.9856 97.2227 33.7912 101.856C33.2374 102.795 31.5656 103.299 30.107 97.5347L32.6628 97.8623L29.6858 96.3517L28.9058 94.0403L31.3888 94.2249L28.2376 92.8989C27.6585 91.0677 26.9673 89.2738 26.168 87.5273Z" fill="#5276F9"/>
<path opacity="0.2" d="M26.168 87.5273C35.8972 90.7123 35.9856 97.2227 33.7912 101.856C33.2374 102.795 31.5656 103.299 30.107 97.5347L32.6628 97.8623L29.6858 96.3517L28.9058 94.0403L31.3888 94.2249L28.2376 92.8989C27.6585 91.0677 26.9673 89.2738 26.168 87.5273Z" fill="black"/>
<path d="M28.918 89.1543C34.0504 93.0543 34.5132 97.5133 33.0624 102.172C33.5746 98.0697 34.131 93.9201 28.918 89.1543Z" fill="white"/>
<path d="M42.6401 94.1387C33.0487 95.4881 31.8865 101.536 33.1579 106.218C33.5167 107.183 34.9935 107.932 37.3179 102.804L34.8843 102.685L37.9081 101.772L39.0131 99.7495L36.6731 99.5077L39.8217 98.8005C40.6637 97.1897 41.605 95.6327 42.6401 94.1387Z" fill="#5276F9"/>
<path opacity="0.2" d="M42.6401 94.1387C33.0487 95.4881 31.8865 101.536 33.1579 106.218C33.5167 107.183 34.9935 107.932 37.3179 102.804L34.8843 102.685L37.9081 101.772L39.0131 99.7495L36.6731 99.5077L39.8217 98.8005C40.6637 97.1897 41.605 95.6327 42.6401 94.1387Z" fill="white"/>
<path d="M39.8109 95.1973C34.3873 97.9715 33.2121 102.053 33.7893 106.637C33.9921 102.727 34.1663 98.7697 39.8109 95.1973Z" fill="white"/>
<path d="M23.3594 96.4043C32.1552 96.5499 33.8816 101.864 33.2576 106.232C33.0418 107.142 31.7964 107.982 29.1366 103.619L31.3154 103.24L28.4892 102.756L27.2672 101.056L29.3472 100.575L26.4248 100.289C25.4838 98.9321 24.46 97.6349 23.3594 96.4043Z" fill="#5276F9"/>
<path d="M26.0312 97.041C31.2312 98.9364 32.7444 102.483 32.7392 106.677C32.1178 103.177 31.5198 99.6306 26.0312 97.041Z" fill="white"/>
<path d="M105.865 20.554L105.846 27.0592L105.059 27.5168L105.079 20.1016L105.865 20.554Z" fill="#F0F0F0"/>
<path d="M114.359 31.9726L114.356 32.8852L105.059 27.5162L105.846 27.0586L114.359 31.9726Z" fill="#F5F5F5"/>
<path d="M104.102 28.0627L115.305 34.5315L115.331 24.9245L104.13 18.4609L104.102 28.0627ZM105.058 27.5167L105.079 20.1015L105.859 20.5539L114.377 25.4809L114.359 31.9809V32.8935L105.058 27.5167Z" fill="#E0E0E0"/>
<path d="M104.129 18.4582L104.917 17.998L116.12 24.4668L115.33 24.9244L104.129 18.4582Z" fill="#F5F5F5"/>
<path d="M116.121 24.4668L116.092 34.0712L115.305 34.5314L115.331 24.9244L116.121 24.4668Z" fill="#F0F0F0"/>
<path d="M105.869 35.1516L105.85 41.6568L105.062 42.117L105.083 34.6992L105.869 35.1516Z" fill="#F0F0F0"/>
<path d="M114.363 46.5702L114.36 47.4829L105.062 42.1165L105.85 41.6562L114.363 46.5702Z" fill="#F5F5F5"/>
<path d="M104.105 42.6604L115.309 49.1396L115.337 39.5352L104.134 33.0664L104.105 42.6604ZM105.062 42.117L105.083 34.6992L105.863 35.1516L114.375 40.0656L114.357 46.5656V47.4782L105.062 42.117Z" fill="#E0E0E0"/>
<path d="M104.137 33.0572L104.925 32.5996L116.128 39.0658L115.34 39.526L104.137 33.0572Z" fill="#F5F5F5"/>
<path d="M116.125 39.0645L116.096 48.6689L115.309 49.1291L115.337 39.5247L116.125 39.0645Z" fill="#F0F0F0"/>
<path d="M89.1992 27.2253V25.6445L89.2694 25.6861L89.402 25.7641C90.5694 26.4687 91.742 27.5841 92.8314 28.7723C93.0108 28.9699 93.1902 29.1727 93.367 29.3729C94.2848 30.4129 95.187 31.5413 96.11 32.5839V35.1371L94.9972 34.4949C93.547 31.7234 91.5788 29.2556 89.1992 27.2253Z" fill="#EBEBEB"/>
<path d="M89.1797 31.1405V29.0293C90.1519 30.0533 90.9557 31.2248 91.5613 32.5003L89.1797 31.1405Z" fill="#EBEBEB"/>
<path d="M91.56 32.5006C90.9593 31.2223 90.1599 30.0473 89.1914 29.0192V27.2148C91.5711 29.2484 93.5385 31.7198 94.9868 34.4948L91.56 32.5006Z" fill="#FAFAFA"/>
<path d="M93.8896 25.0475L93.7284 24.9903C93.4294 24.8837 93.1278 24.7589 92.8262 24.6185L92.7144 24.5639L92.4076 24.4157C92.2308 24.3247 92.0566 24.2311 91.8876 24.1323C92.0644 24.2311 92.2386 24.3247 92.4076 24.4157L92.3452 24.3845C92.1892 24.3039 92.0332 24.2207 91.8798 24.1245L91.781 24.0751L91.7004 24.0283C90.8589 23.5285 90.0621 22.957 89.3188 22.3201L89.2148 22.2317V19.5615C90.91 20.4299 92.5766 20.6977 93.9208 20.2791C94.8432 19.9831 95.632 19.3719 96.149 18.5527L96.136 25.4791C95.3708 25.4407 94.6146 25.2954 93.8896 25.0475Z" fill="#FAFAFA"/>
<path d="M92.8353 28.7718C91.7433 27.5758 90.5733 26.4682 89.4059 25.7636L89.2733 25.6856L89.2031 25.644V24.1152C91.4641 25.4457 93.5588 27.0403 95.4431 28.8654C95.6693 29.0812 95.8929 29.2996 96.1191 29.5102V32.5834C95.1935 31.5434 94.2991 30.4254 93.3761 29.3724C93.1941 29.1722 93.0147 28.9694 92.8353 28.7718Z" fill="#FAFAFA"/>
<path d="M89.207 24.1148V22.2324L89.311 22.3208C90.0543 22.9577 90.8511 23.5292 91.6926 24.029L91.7732 24.0758L91.8746 24.133C92.028 24.2214 92.184 24.3046 92.34 24.393L92.4024 24.4242L92.7092 24.5724L92.821 24.627C93.1226 24.7674 93.4242 24.887 93.7232 24.9988L93.8844 25.056C94.6089 25.3075 95.3651 25.4563 96.1308 25.498L96.1178 29.5176C95.8916 29.307 95.668 29.0886 95.4418 28.8728C93.5595 27.0453 91.4666 25.4481 89.207 24.1148Z" fill="#EBEBEB"/>
<path d="M89.2266 17.4048V15.4314C90.2952 15.1714 91.1272 14.3914 91.5666 13.2344L93.9326 14.5994C93.5181 15.4836 92.8483 16.2234 92.0096 16.7234C91.1708 17.2234 90.2015 17.4607 89.2266 17.4048Z" fill="#FAFAFA"/>
<path d="M93.9248 20.2806C92.5806 20.6992 90.9139 20.4314 89.2188 19.563V17.405C90.1941 17.4615 91.164 17.2244 92.0033 16.7244C92.8425 16.2243 93.5127 15.4842 93.9274 14.5996L96.153 15.8996V18.5672C95.6336 19.3815 94.8451 19.9879 93.9248 20.2806Z" fill="#EBEBEB"/>
<path d="M88.7969 31.3636L96.4981 35.8096L96.5553 15.6648L88.8541 11.2188L88.7969 31.3636ZM94.9953 34.4836L91.5633 32.4998L89.1817 31.1399V29.0288V27.2243V25.6435V24.1148V22.2324V19.5622V17.4042V15.4307V11.8895L91.5087 13.2338L93.8747 14.5988L96.1003 15.8988V18.5664L96.1367 25.4798L96.1237 29.4994V32.5726V35.1258L94.9953 34.4836Z" fill="white"/>
<path d="M89.2305 15.4318V11.8906L91.5575 13.2348C91.1311 14.4022 90.2991 15.1796 89.2305 15.4318Z" fill="#EBEBEB"/>
<path d="M88.7948 31.3633L96.496 35.8093L96.4934 36.3423L88.332 31.6311L88.7948 31.3633Z" fill="#CACACA"/>
<path d="M88.852 11.2183L88.7948 31.3631L88.332 31.6309L88.3918 10.9531L88.852 11.2183Z" fill="#F0F0F0"/>
<path d="M87.1016 32.3412L97.7356 38.4798L97.8006 14.9472L87.1562 8.80859L87.1016 32.3412ZM88.347 31.6314L88.4016 10.9536L88.8618 11.2136L96.563 15.6596L96.5058 35.8044V36.34L88.347 31.6314Z" fill="#E0E0E0"/>
<path d="M87.1562 8.80914L88.0324 8.33594L98.6795 14.4823L97.8007 14.9555L87.1562 8.80914Z" fill="#F5F5F5"/>
<path d="M98.6782 14.4824L98.6106 38.0176L97.7344 38.4882L97.7994 14.9556L98.6782 14.4824Z" fill="#F0F0F0"/>
<path d="M108.567 23.0234L106.245 24.8512L106.242 26.6374L113.962 31.0938L113.967 29.3076L112.495 26.3878L111.174 27.4122L111.64 28.863L110.964 27.576L108.567 23.0234Z" fill="#E0E0E0"/>
<path d="M111.106 23.9196C110.742 23.7116 110.445 23.878 110.445 24.2966C110.457 24.5243 110.522 24.746 110.636 24.9436C110.75 25.1411 110.909 25.3088 111.101 25.4328C111.465 25.6434 111.758 25.4744 111.761 25.0558C111.748 24.8284 111.682 24.6072 111.568 24.4099C111.454 24.2126 111.296 24.0446 111.106 23.9196Z" fill="#E0E0E0"/>
<path d="M108.574 37.6211L106.255 39.4489L106.25 41.2351L113.969 45.6915L113.975 43.9079L112.503 40.9855L111.182 42.0099L111.65 43.4607L110.972 42.1737L108.574 37.6211Z" fill="#E0E0E0"/>
<path d="M111.11 38.5207C110.746 38.3127 110.449 38.4817 110.449 38.8977C110.461 39.1254 110.526 39.3471 110.64 39.5447C110.754 39.7422 110.913 39.9098 111.104 40.0339C111.468 40.2445 111.765 40.0755 111.765 39.6569C111.753 39.4293 111.687 39.2079 111.573 39.0105C111.459 38.8131 111.3 38.6453 111.11 38.5207Z" fill="#E0E0E0"/>
<path d="M12.3109 48.2591L12.3005 44.8115L10.5039 43.7871L10.5117 47.1567V47.2321L12.3109 48.2591Z" fill="#5276F9"/>
<path d="M12.4253 88.1896L12.3109 48.2588L10.5117 47.2188L10.6261 87.1002C10.6151 87.2261 10.6363 87.3528 10.6877 87.4683C10.7391 87.5838 10.819 87.6844 10.9199 87.7606L12.6931 88.8447C12.5984 88.7656 12.5246 88.6646 12.4779 88.5504C12.4312 88.4362 12.4132 88.3123 12.4253 88.1896Z" fill="#5276F9"/>
<path opacity="0.2" d="M12.4253 88.1896L12.3109 48.2588L10.5117 47.2188L10.6261 87.1002C10.6151 87.2261 10.6363 87.3528 10.6877 87.4683C10.7391 87.5838 10.819 87.6844 10.9199 87.7606L12.6931 88.8447C12.5984 88.7656 12.5246 88.6646 12.4779 88.5504C12.4312 88.4362 12.4132 88.3123 12.4253 88.1896Z" fill="white"/>
<path d="M13.4906 88.7988C13.4255 88.8378 13.3567 88.87 13.2852 88.895C13.3565 88.8695 13.4253 88.8373 13.4906 88.7988Z" fill="#455A64"/>
<path d="M12.3083 44.806V42.8196C12.3273 42.4508 12.4334 42.0918 12.6177 41.7719C12.8021 41.4519 13.0596 41.1801 13.3691 40.9788L73.5331 6.24018C73.6395 6.16341 73.7641 6.11581 73.8945 6.10213C74.025 6.08844 74.1567 6.10915 74.2767 6.16218L72.5009 5.07018C72.3779 5.00683 72.2395 4.97934 72.1016 4.99083C71.9637 5.00232 71.8318 5.05234 71.7209 5.13518L11.5647 39.8738C11.2552 40.0751 10.9977 40.3469 10.8133 40.6668C10.629 40.9868 10.5229 41.3458 10.5039 41.7146V43.701V43.779L12.3005 44.8034L12.3083 44.806Z" fill="#5276F9"/>
<path opacity="0.3" d="M12.3083 44.806V42.8196C12.3273 42.4508 12.4334 42.0918 12.6177 41.7719C12.8021 41.4519 13.0596 41.1801 13.3691 40.9788L73.5331 6.24018C73.6395 6.16341 73.7641 6.11581 73.8945 6.10213C74.025 6.08844 74.1567 6.10915 74.2767 6.16218L72.5009 5.07018C72.3779 5.00683 72.2395 4.97934 72.1016 4.99083C71.9637 5.00232 71.8318 5.05234 71.7209 5.13518L11.5647 39.8738C11.2552 40.0751 10.9977 40.3469 10.8133 40.6668C10.629 40.9868 10.5229 41.3458 10.5039 41.7146V43.701V43.779L12.3005 44.8034L12.3083 44.806Z" fill="white"/>
<path opacity="0.2" d="M12.3109 48.2591L12.3005 44.8115L10.5039 43.7871L10.5117 47.1567V47.2321L12.3109 48.2591Z" fill="black"/>
<path opacity="0.2" d="M12.3109 48.2591L12.3005 44.8115L10.5039 43.7871L10.5117 47.1567V47.2321L12.3109 48.2591Z" fill="white"/>
<path d="M73.5334 6.24068C74.1184 5.90268 74.5994 6.17568 74.5994 6.85168L74.6202 8.84068L12.3086 44.8065V42.8201C12.3276 42.4513 12.4337 42.0923 12.618 41.7724C12.8024 41.4524 13.0599 41.1807 13.3694 40.9793L73.5334 6.24068Z" fill="#5276F9"/>
<path d="M69.4965 9.52568C69.8111 9.34368 70.0685 9.48928 70.0685 9.85068C70.0586 10.0477 70.002 10.2395 69.9035 10.4104C69.805 10.5812 69.6672 10.7263 69.5017 10.8335C69.1871 11.0155 68.9297 10.8699 68.9297 10.5085C68.9396 10.3115 68.9961 10.1197 69.0947 9.94879C69.1932 9.77793 69.3309 9.63291 69.4965 9.52568Z" fill="white"/>
<path d="M71.24 8.52373C71.5546 8.34173 71.8094 8.48733 71.812 8.84873C71.8007 9.046 71.743 9.23781 71.6436 9.40858C71.5442 9.57936 71.4059 9.72426 71.24 9.83153C70.9254 10.0135 70.6706 9.86793 70.668 9.50653C70.6793 9.30927 70.737 9.11745 70.8364 8.94668C70.9357 8.77591 71.074 8.631 71.24 8.52373Z" fill="white"/>
<path d="M72.9757 7.51982C73.2903 7.33782 73.545 7.48342 73.545 7.84482C73.5368 8.04396 73.481 8.23824 73.3824 8.41146C73.2838 8.58467 73.1452 8.73182 72.9782 8.84062C72.6636 9.02262 72.4088 8.87702 72.4062 8.51302C72.4157 8.3142 72.4722 8.12045 72.5712 7.94776C72.6702 7.77508 72.8088 7.6284 72.9757 7.51982Z" fill="white"/>
<path d="M24.8393 35.6016C25.0733 35.4664 25.2891 35.4898 25.4009 35.664L25.9677 36.5324C26.0795 36.7066 26.2953 36.7326 26.5293 36.5974L74.6007 8.83984V12.2926L12.3125 48.2636V44.8108L14.1585 43.7448C14.4202 43.5763 14.6186 43.3258 14.7227 43.0324L15.2791 41.514C15.3821 41.2215 15.5797 40.9718 15.8407 40.8042L24.8393 35.6016Z" fill="#E0E0E0"/>
<path d="M74.6215 12.291L74.7333 52.2218C74.7139 52.5901 74.6076 52.9486 74.4233 53.2681C74.2389 53.5875 73.9817 53.8589 73.6725 54.06L13.4929 88.7986C12.9053 89.1392 12.4269 88.8636 12.4269 88.1902L12.3125 48.2594L74.6215 12.291Z" fill="#5276F9"/>
<g opacity="0.4">
<path d="M74.6215 12.291L74.7333 52.2218C74.7139 52.5901 74.6076 52.9486 74.4233 53.2681C74.2389 53.5875 73.9817 53.8589 73.6725 54.06L13.4929 88.7986C12.9053 89.1392 12.4269 88.8636 12.4269 88.1902L12.3125 48.2594L74.6215 12.291Z" fill="white"/>
</g>
<path d="M72.146 10.9638C72.5647 10.722 72.9026 10.9144 72.9052 11.3954C72.8902 11.656 72.8141 11.9094 72.6831 12.1352C72.5521 12.361 72.37 12.5529 72.1512 12.6954L19.4181 43.1595C18.9995 43.4014 18.6588 43.2064 18.6562 42.7254C18.6718 42.4646 18.7484 42.2111 18.8798 41.9853C19.0112 41.7595 19.1938 41.5677 19.4129 41.4254L72.146 10.9638Z" fill="white"/>
<path d="M13.3076 45.1187C13.3193 45.1113 13.3328 45.1074 13.3466 45.1074C13.3604 45.1074 13.3739 45.1113 13.3856 45.1187C13.4272 45.1447 13.422 45.2254 13.3856 45.2956L13.0528 45.8389L13.9264 45.3345C13.9862 45.3007 14.033 45.3345 14.033 45.3943C14.0318 45.4315 14.0214 45.4678 14.0028 45.5C13.9842 45.5322 13.958 45.5593 13.9264 45.5789L13.0554 46.0834L13.3882 46.242C13.4324 46.2628 13.435 46.3381 13.3882 46.4109C13.3698 46.4465 13.3419 46.4762 13.3076 46.4967C13.2963 46.5023 13.2838 46.5051 13.2712 46.5051C13.2586 46.5051 13.2461 46.5023 13.2348 46.4967L12.7148 46.2367L12.6914 46.2159V46.1717V46.1171L12.7122 46.0729L13.2322 45.1993C13.2503 45.1667 13.2762 45.139 13.3076 45.1187Z" fill="#E0E0E0"/>
<path d="M15.1968 44.0289C15.2079 44.0228 15.2204 44.0195 15.2332 44.0195C15.2459 44.0195 15.2584 44.0228 15.2696 44.0289L15.8052 44.2889L15.826 44.3123V44.3565V44.4085V44.4215L15.8078 44.4631L15.2722 45.3393C15.2549 45.3697 15.2297 45.3948 15.1994 45.4121C15.188 45.419 15.175 45.4226 15.1617 45.4226C15.1484 45.4226 15.1353 45.419 15.124 45.4121C15.0824 45.3861 15.085 45.3081 15.124 45.2353L15.4542 44.6945L14.5806 45.1989C14.5234 45.2301 14.4766 45.1989 14.4766 45.1365C14.4779 45.0997 14.4881 45.0637 14.5062 45.0316C14.5243 44.9995 14.5498 44.9722 14.5806 44.9519L15.4542 44.4501L15.1214 44.2915C15.0772 44.2681 15.0746 44.1927 15.1214 44.1199C15.1369 44.0828 15.1632 44.0511 15.1968 44.0289Z" fill="#E0E0E0"/>
<path d="M16.9912 42.9904C17.044 42.9559 17.1032 42.9321 17.1652 42.9205C17.2272 42.9089 17.2909 42.9097 17.3526 42.9228L17.4332 42.8188C17.4483 42.7968 17.4677 42.7782 17.4904 42.7642C17.509 42.7583 17.529 42.7583 17.5476 42.7642C17.584 42.7642 17.6022 42.8084 17.5944 42.8604L17.5502 43.188C17.5454 43.2289 17.5292 43.2677 17.5034 43.2998C17.4884 43.3211 17.4689 43.3389 17.4462 43.3518H17.4202L17.1602 43.4194C17.1515 43.4223 17.1421 43.423 17.133 43.4216C17.1239 43.4202 17.1153 43.4168 17.1077 43.4115C17.1001 43.4062 17.0939 43.3992 17.0895 43.3911C17.0851 43.3831 17.0826 43.3741 17.0822 43.3648C17.0778 43.3112 17.0946 43.258 17.129 43.2166L17.155 43.1828C17.0972 43.1858 17.041 43.2027 16.9912 43.2322C16.8801 43.3052 16.7877 43.4032 16.7213 43.5183C16.6549 43.6334 16.6165 43.7625 16.609 43.8952C16.609 44.1396 16.7832 44.2358 16.9938 44.1136C17.1497 44.0141 17.2684 43.8661 17.3318 43.6924C17.348 43.6442 17.3801 43.603 17.4228 43.5754C17.4382 43.5653 17.4565 43.5607 17.4748 43.5624C17.5268 43.5624 17.545 43.6274 17.5164 43.7054C17.42 43.9752 17.2372 44.2055 16.9964 44.3606C16.6688 44.5478 16.3984 44.397 16.3984 44.0174C16.4104 43.8119 16.4702 43.612 16.5731 43.4337C16.676 43.2554 16.8192 43.1036 16.9912 42.9904Z" fill="#E0E0E0"/>
<g opacity="0.3">
<path d="M13.3076 45.1187C13.3193 45.1113 13.3328 45.1074 13.3466 45.1074C13.3604 45.1074 13.3739 45.1113 13.3856 45.1187C13.4272 45.1447 13.422 45.2254 13.3856 45.2956L13.0528 45.8389L13.9264 45.3345C13.9862 45.3007 14.033 45.3345 14.033 45.3943C14.0318 45.4315 14.0214 45.4678 14.0028 45.5C13.9842 45.5322 13.958 45.5593 13.9264 45.5789L13.0554 46.0834L13.3882 46.242C13.4324 46.2628 13.435 46.3381 13.3882 46.4109C13.3698 46.4465 13.3419 46.4762 13.3076 46.4967C13.2963 46.5023 13.2838 46.5051 13.2712 46.5051C13.2586 46.5051 13.2461 46.5023 13.2348 46.4967L12.7148 46.2367L12.6914 46.2159V46.1717V46.1171L12.7122 46.0729L13.2322 45.1993C13.2503 45.1667 13.2762 45.139 13.3076 45.1187Z" fill="black"/>
</g>
<g opacity="0.3">
<path d="M15.1968 44.0289C15.2079 44.0228 15.2204 44.0195 15.2332 44.0195C15.2459 44.0195 15.2584 44.0228 15.2696 44.0289L15.8052 44.2889L15.826 44.3123V44.3565V44.4085V44.4215L15.8078 44.4631L15.2722 45.3393C15.2549 45.3697 15.2297 45.3948 15.1994 45.4121C15.188 45.419 15.175 45.4226 15.1617 45.4226C15.1484 45.4226 15.1353 45.419 15.124 45.4121C15.0824 45.3861 15.085 45.3081 15.124 45.2353L15.4542 44.6945L14.5806 45.1989C14.5234 45.2301 14.4766 45.1989 14.4766 45.1365C14.4779 45.0997 14.4881 45.0637 14.5062 45.0316C14.5243 44.9995 14.5498 44.9722 14.5806 44.9519L15.4542 44.4501L15.1214 44.2915C15.0772 44.2681 15.0746 44.1927 15.1214 44.1199C15.1369 44.0828 15.1632 44.0511 15.1968 44.0289Z" fill="black"/>
</g>
<g opacity="0.3">
<path d="M16.9912 42.9904C17.044 42.9559 17.1032 42.9321 17.1652 42.9205C17.2272 42.9089 17.2909 42.9097 17.3526 42.9228L17.4332 42.8188C17.4483 42.7968 17.4677 42.7782 17.4904 42.7642C17.509 42.7583 17.529 42.7583 17.5476 42.7642C17.584 42.7642 17.6022 42.8084 17.5944 42.8604L17.5502 43.188C17.5454 43.2289 17.5292 43.2677 17.5034 43.2998C17.4884 43.3211 17.4689 43.3389 17.4462 43.3518H17.4202L17.1602 43.4194C17.1515 43.4223 17.1421 43.423 17.133 43.4216C17.1239 43.4202 17.1153 43.4168 17.1077 43.4115C17.1001 43.4062 17.0939 43.3992 17.0895 43.3911C17.0851 43.3831 17.0826 43.3741 17.0822 43.3648C17.0778 43.3112 17.0946 43.258 17.129 43.2166L17.155 43.1828C17.0972 43.1858 17.041 43.2027 16.9912 43.2322C16.8801 43.3052 16.7877 43.4032 16.7213 43.5183C16.6549 43.6334 16.6165 43.7625 16.609 43.8952C16.609 44.1396 16.7832 44.2358 16.9938 44.1136C17.1497 44.0141 17.2684 43.8661 17.3318 43.6924C17.348 43.6442 17.3801 43.603 17.4228 43.5754C17.4382 43.5653 17.4565 43.5607 17.4748 43.5624C17.5268 43.5624 17.545 43.6274 17.5164 43.7054C17.42 43.9752 17.2372 44.2055 16.9964 44.3606C16.6688 44.5478 16.3984 44.397 16.3984 44.0174C16.4104 43.8119 16.4702 43.612 16.5731 43.4337C16.676 43.2554 16.8192 43.1036 16.9912 42.9904Z" fill="black"/>
</g>
<path d="M49.8773 44.5898L49.9345 64.953L30.2681 76.3072L30.2109 55.9414L49.8773 44.5898Z" fill="#5276F9"/>
<path d="M72.1071 16.8926L72.1383 28.369L45.5533 43.7168L45.5195 32.243L72.1071 16.8926Z" fill="#5276F9"/>
<g opacity="0.5">
<path d="M49.8773 44.5898L49.9345 64.953L30.2681 76.3072L30.2109 55.9414L49.8773 44.5898Z" fill="#EF2C2C"/>
</g>
<g opacity="0.5">
<path d="M72.1071 16.8926L72.1383 28.369L45.5533 43.7168L45.5195 32.243L72.1071 16.8926Z" fill="white"/>
</g>
<path d="M28.2938 57.0488L28.3536 77.4146L15.8814 84.614L15.8242 64.2508L28.2938 57.0488Z" fill="#5276F9"/>
<path d="M71.9391 31.8496L71.9989 52.2154L51.8541 63.8452L51.7969 43.482L71.9391 31.8496Z" fill="#5276F9"/>
<g opacity="0.3">
<path d="M28.2938 57.0488L28.3536 77.4146L15.8814 84.614L15.8242 64.2508L28.2938 57.0488Z" fill="white"/>
</g>
<g opacity="0.3">
<path d="M71.9391 31.8496L71.9989 52.2154L51.8541 63.8452L51.7969 43.482L71.9391 31.8496Z" fill="#EF2C2C"/>
</g>
<path d="M21.8042 45.7179C25.1218 43.8043 27.818 45.3409 27.818 49.1395C27.818 52.9381 25.1504 57.5895 21.838 59.5031C18.5256 61.4167 15.8268 59.8801 15.8164 56.0711C15.806 52.2621 18.4892 47.6315 21.8042 45.7179Z" fill="#5276F9"/>
<path d="M21.293 51.1159V51.1133L21.2956 51.1159H21.293Z" fill="#FFA8A7"/>
<g opacity="0.5">
<path d="M37.4661 44.1445L37.4687 44.7269L30.1367 48.9389V48.3565L37.4661 44.1445Z" fill="white"/>
<path d="M38.8402 46.9297L38.8428 47.5121L30.1484 52.5119V51.9295L38.8402 46.9297Z" fill="white"/>
<path d="M40.1389 44.9922L40.1415 45.572L30.1471 51.3232L30.1445 50.7408L40.1389 44.9922Z" fill="white"/>
<path d="M42.1916 40.2305L42.1942 40.8103L30.1354 47.7523L30.1328 47.1725L42.1916 40.2305Z" fill="white"/>
<path d="M43.6411 38.1914L43.6437 38.7738L30.1315 46.5556L30.1289 45.9732L43.6411 38.1914Z" fill="white"/>
<path d="M37.0878 39.7461L37.093 40.9109L30.1276 44.9331L30.125 43.7657L37.0878 39.7461Z" fill="white"/>
</g>
<path d="M55.0713 28.7324L55.0765 30.0922L47.5443 34.4524L47.5391 33.0926L55.0713 28.7324Z" fill="#5276F9"/>
<path d="M69.5793 22.6074L69.5819 23.4368L47.5495 36.1118L47.5469 35.2824L69.5793 22.6074Z" fill="#5276F9"/>
<g opacity="0.3">
<path d="M55.0713 28.7324L55.0765 30.0922L47.5443 34.4524L47.5391 33.0926L55.0713 28.7324Z" fill="white"/>
<path d="M69.5793 22.6074L69.5819 23.4368L47.5495 36.1118L47.5469 35.2824L69.5793 22.6074Z" fill="white"/>
<path d="M67.9608 28.4648L67.9634 29.2968L47.5612 41.0956L47.5586 40.2662L67.9608 28.4648Z" fill="white"/>
<path d="M69.5897 25.9297L69.5923 26.7617L47.5573 39.4367L47.5547 38.6047L69.5897 25.9297Z" fill="white"/>
<path d="M64.5834 27.1387L64.586 27.9681L47.5508 37.7727V36.9433L64.5834 27.1387Z" fill="white"/>
</g>
<g opacity="0.5">
<path d="M22.0821 62.6055L22.0847 63.8483L17.2799 66.6225L17.2773 65.3797L22.0821 62.6055Z" fill="white"/>
<path d="M26.8649 61.8359L26.8674 62.4209L17.2812 67.9537V67.3687L26.8649 61.8359Z" fill="white"/>
<path d="M26.8688 63.0059L26.8714 63.5909L17.2878 69.1237L17.2852 68.5387L26.8688 63.0059Z" fill="white"/>
<path d="M24.092 67.4121L24.0946 68.6549L17.2982 72.5809L17.293 71.3355L24.092 67.4121Z" fill="white"/>
<path d="M22.0809 66.9414L22.0835 67.5264L17.2917 70.2928L17.2891 69.7078L22.0809 66.9414Z" fill="white"/>
<path d="M19.9073 80.1289L19.9099 80.7139L17.3229 82.2063L17.3203 81.6239L19.9073 80.1289Z" fill="white"/>
<path d="M26.9039 74.9219L26.9065 75.5069L17.3229 81.0397L17.3203 80.4547L26.9039 74.9219Z" fill="white"/>
<path d="M26.9 73.752L26.9026 74.337L17.319 79.8698L17.3164 79.2848L26.9 73.752Z" fill="white"/>
<path d="M21.4751 74.8926L21.4803 76.1328L17.3151 78.5378L17.3125 77.295L21.4751 74.8926Z" fill="white"/>
<path d="M25.1827 71.1152L25.1853 71.7002L17.3073 76.2502L17.3047 75.6652L25.1827 71.1152Z" fill="white"/>
<path d="M26.8883 68.9629V69.5479L17.3047 75.0807V74.4957L26.8883 68.9629Z" fill="white"/>
<path d="M26.8805 67.7949L26.8831 68.3799L17.2995 73.9127L17.2969 73.3277L26.8805 67.7949Z" fill="white"/>
</g>
<path d="M42.8114 54.8652L38.9036 62.2856L37.7986 64.3864L38.5604 62.0204L36.4076 60.3486L34.0078 65.1118L34.0182 68.0212L46.6022 60.7568L46.5944 57.8448L42.8114 54.8652Z" fill="#5276F9"/>
<path d="M38.6819 58.7988C38.9943 58.5953 39.2541 58.3208 39.4403 57.9977C39.6265 57.6747 39.7336 57.3122 39.7531 56.9398C39.7531 56.2586 39.2695 55.9856 38.6767 56.3262C38.365 56.5292 38.1055 56.8029 37.9194 57.125C37.7333 57.4471 37.6257 57.8086 37.6055 58.18C37.6081 58.8638 38.0917 59.1394 38.6819 58.7988Z" fill="#5276F9"/>
<g opacity="0.3">
<path d="M42.8114 54.8652L38.9036 62.2856L37.7986 64.3864L38.5604 62.0204L36.4076 60.3486L34.0078 65.1118L34.0182 68.0212L46.6022 60.7568L46.5944 57.8448L42.8114 54.8652Z" fill="white"/>
<path d="M38.6819 58.7988C38.9943 58.5953 39.2541 58.3208 39.4403 57.9977C39.6265 57.6747 39.7336 57.3122 39.7531 56.9398C39.7531 56.2586 39.2695 55.9856 38.6767 56.3262C38.365 56.5292 38.1055 56.8029 37.9194 57.125C37.7333 57.4471 37.6257 57.8086 37.6055 58.18C37.6081 58.8638 38.0917 59.1394 38.6819 58.7988Z" fill="white"/>
</g>
<path d="M65.0823 42.25L61.1771 49.6678L60.0721 51.7686L60.8338 49.4026L58.6785 47.7308L56.2812 52.494L56.289 55.406L68.8757 48.139L68.8652 45.2296L65.0823 42.25Z" fill="#5276F9"/>
<path d="M60.9553 46.1808C61.2668 45.9784 61.5259 45.7051 61.7117 45.3834C61.8974 45.0617 62.0044 44.7006 62.0239 44.3296C62.0239 43.6484 61.5403 43.3728 60.9475 43.716C60.6352 43.9175 60.3753 44.1906 60.1895 44.5125C60.0037 44.8344 59.8972 45.196 59.8789 45.5672C59.8789 46.2484 60.3625 46.524 60.9553 46.1808Z" fill="#5276F9"/>
<g opacity="0.5">
<path d="M65.0823 42.25L61.1771 49.6678L60.0721 51.7686L60.8338 49.4026L58.6785 47.7308L56.2812 52.494L56.289 55.406L68.8757 48.139L68.8652 45.2296L65.0823 42.25Z" fill="white"/>
<path d="M60.9553 46.1808C61.2668 45.9784 61.5259 45.7051 61.7117 45.3834C61.8974 45.0617 62.0044 44.7006 62.0239 44.3296C62.0239 43.6484 61.5403 43.3728 60.9475 43.716C60.6352 43.9175 60.3753 44.1906 60.1895 44.5125C60.0037 44.8344 59.8972 45.196 59.8789 45.5672C59.8789 46.2484 60.3625 46.524 60.9553 46.1808Z" fill="white"/>
</g>
<path d="M67.9647 28.4648L67.9673 29.2968L47.5651 41.0956L47.5625 40.2662L67.9647 28.4648Z" fill="#5276F9"/>
<path d="M69.5897 25.9297L69.5923 26.7617L47.5573 39.4367L47.5547 38.6047L69.5897 25.9297Z" fill="#5276F9"/>
<path d="M64.5873 27.1387L64.5899 27.9681L47.5547 37.7727V36.9433L64.5873 27.1387Z" fill="#5276F9"/>
<path d="M85.5542 97.2408L86.2354 97.675H86.251C86.3748 97.7292 86.5106 97.7502 86.6451 97.7361C86.7796 97.722 86.9081 97.6731 87.018 97.5944C87.3345 97.3883 87.5978 97.1104 87.7867 96.7833C87.9755 96.4562 88.0845 96.0891 88.1048 95.712C88.1178 95.5804 88.0964 95.4476 88.0426 95.3268C87.9888 95.206 87.9045 95.1013 87.798 95.023L87.5978 94.8956L94.1212 92.2462C94.128 92.3249 94.1541 92.4007 94.1972 92.4669C94.2403 92.5331 94.299 92.5876 94.3682 92.6258L93.7806 97.7556V98.4524C93.5167 98.665 93.3003 98.9306 93.1454 99.232C92.9904 99.5334 92.9004 99.8639 92.881 100.202C92.8664 100.34 92.8906 100.479 92.9508 100.604C93.0109 100.729 93.1047 100.835 93.2216 100.909L93.9054 101.344H93.9184C94.042 101.398 94.1777 101.42 94.3122 101.406C94.4466 101.392 94.5752 101.344 94.6854 101.266C95.0023 101.06 95.266 100.782 95.4549 100.455C95.6438 100.128 95.7525 99.7605 95.7721 99.3832C95.7837 99.252 95.7619 99.12 95.7087 98.9995C95.6555 98.879 95.5727 98.774 95.468 98.6942L94.7764 98.2574C94.6679 98.1919 94.541 98.1636 94.415 98.1768L95.1248 92.8208C95.2864 92.819 95.4468 92.7927 95.6006 92.7428L101.778 96.0812L101.425 96.3048C101.318 96.3831 101.234 96.4878 101.18 96.6086C101.126 96.7294 101.105 96.8622 101.118 96.9938C101.138 97.3709 101.247 97.738 101.436 98.0651C101.625 98.3922 101.888 98.6701 102.205 98.8762C102.316 98.9573 102.447 99.0075 102.584 99.0216C102.721 99.0358 102.859 99.0134 102.985 98.9568H103L103.681 98.5226C103.799 98.4484 103.893 98.3428 103.953 98.2178C104.013 98.0927 104.037 97.9533 104.022 97.8154C104.003 97.48 103.915 97.1521 103.763 96.8527C103.611 96.5532 103.398 96.2887 103.138 96.076V94.9996L97.3842 91.5806L100.418 90.8162C100.219 91.1416 100.108 91.5136 100.096 91.8952C100.081 92.0329 100.104 92.1721 100.164 92.2971C100.224 92.4221 100.317 92.5279 100.434 92.6024L101.115 93.0366H101.128C101.253 93.0948 101.392 93.1181 101.529 93.1039C101.667 93.0897 101.798 93.0386 101.908 92.956C102.224 92.7503 102.488 92.4728 102.677 92.1462C102.865 91.8195 102.975 91.4529 102.995 91.0762C103.006 90.9448 102.984 90.8126 102.93 90.6921C102.877 90.5716 102.793 90.4667 102.688 90.3872L101.937 89.9608C101.858 89.9163 101.772 89.8888 101.682 89.8803C101.592 89.8718 101.502 89.8824 101.417 89.9114V89.7372L101.048 89.6124L96.1076 89.8724V89.0014C96.1601 88.9803 96.2114 88.9559 96.261 88.9286C96.3947 88.8689 96.5104 88.775 96.5962 88.6563C96.682 88.5376 96.735 88.3983 96.7498 88.2526V82.543H93.4582V88.2422C93.4709 88.3875 93.5222 88.5267 93.6067 88.6456C93.6913 88.7644 93.806 88.8585 93.9392 88.9182C93.9913 88.9473 94.0451 88.9733 94.1004 88.9962V89.7268L90.5384 88.9468L90.3693 89.017V89.6722L89.6778 90.1116C89.573 90.1914 89.4902 90.2964 89.437 90.4169C89.3838 90.5374 89.362 90.6694 89.3736 90.8006C89.3974 91.3091 89.5853 91.7962 89.9092 92.189L86.4694 93.749V94.5628C86.4202 94.583 86.3724 94.6065 86.3264 94.633C86.0099 94.8385 85.7465 95.1159 85.5576 95.4426C85.3688 95.7693 85.2598 96.136 85.2396 96.5128C85.2176 96.6515 85.2356 96.7935 85.2913 96.9224C85.347 97.0513 85.4381 97.1617 85.5542 97.2408ZM87.6186 93.554L90.112 92.4438L86.732 93.944L87.6186 93.554ZM92.0386 90.7512L92.543 91.0112L92.1946 91.1672C92.147 91.0202 92.087 90.8775 92.0152 90.7408L92.0386 90.7512Z" fill="#E0E0E0"/>
<path d="M102.1 91.3329L102.646 90.3995L101.939 89.9601C101.815 89.8995 101.677 89.8737 101.54 89.8856C101.402 89.8976 101.271 89.9467 101.159 90.0277C100.843 90.2331 100.579 90.5105 100.391 90.8373C100.203 91.1641 100.094 91.5308 100.075 91.9075C100.06 92.0452 100.083 92.1845 100.143 92.3095C100.202 92.4345 100.296 92.5403 100.413 92.6147L101.11 93.0567L101.684 92.0713C101.863 91.8499 102.003 91.6004 102.1 91.3329Z" fill="#37474F"/>
<path d="M101.856 90.4803C102.457 90.1319 102.948 90.4101 102.951 91.1017C102.931 91.4785 102.821 91.8451 102.633 92.1717C102.444 92.4984 102.18 92.7758 101.864 92.9815C101.264 93.3299 100.772 93.0517 100.77 92.3601C100.79 91.9834 100.899 91.6167 101.088 91.2901C101.277 90.9635 101.54 90.686 101.856 90.4803Z" fill="#455A64"/>
<path d="M90.1983 91.0686L89.6523 90.1326L90.3621 89.6828C90.4856 89.6212 90.6237 89.5947 90.7612 89.6061C90.8988 89.6176 91.0305 89.6666 91.1421 89.7478C91.458 89.9539 91.721 90.2315 91.9098 90.558C92.0986 90.8846 92.2079 91.2509 92.2289 91.6276C92.2434 91.7658 92.2192 91.9053 92.159 92.0306C92.0989 92.1559 92.0052 92.2621 91.8883 92.3374L91.1915 92.782L90.6169 91.7966C90.4394 91.5778 90.2981 91.332 90.1983 91.0686Z" fill="#37474F"/>
<path d="M90.4397 90.1999C89.8391 89.8541 89.3477 90.1297 89.3477 90.8213C89.3674 91.1982 89.4759 91.5652 89.6643 91.8923C89.8527 92.2194 90.1157 92.4974 90.4319 92.7037C91.0351 93.0495 91.5239 92.7713 91.5265 92.0797C91.5062 91.7029 91.3972 91.3362 91.2084 91.0095C91.0195 90.6828 90.7561 90.4054 90.4397 90.1999Z" fill="#455A64"/>
<path d="M94.1016 88.752H96.1244V92.236C96.1142 92.3247 96.0814 92.4094 96.0291 92.4818C95.9767 92.5543 95.9065 92.6119 95.8254 92.6494C95.6039 92.7621 95.3589 92.8209 95.1104 92.8209C94.8618 92.8209 94.6168 92.7621 94.3954 92.6494C94.3152 92.6113 94.2461 92.5533 94.1947 92.4809C94.1432 92.4085 94.1112 92.3242 94.1016 92.236V88.752Z" fill="#EBEBEB"/>
<path d="M101.421 89.7266V90.5586L96.125 91.8924V90.1348L101.421 89.7266Z" fill="#E0E0E0"/>
<path d="M101.421 89.7264L101.052 89.6016L96.125 89.8616V90.1346L101.421 89.7264Z" fill="#F5F5F5"/>
<path d="M101.952 97.255L101.406 96.319L102.113 95.8692C102.237 95.807 102.375 95.7802 102.513 95.7916C102.65 95.8031 102.782 95.8525 102.893 95.9342C103.21 96.1393 103.474 96.4166 103.663 96.7433C103.852 97.0701 103.961 97.437 103.98 97.814C103.995 97.9519 103.971 98.0914 103.911 98.2164C103.851 98.3414 103.757 98.447 103.64 98.5212L102.958 98.971L102.384 97.9856C102.201 97.7676 102.055 97.5207 101.952 97.255Z" fill="#37474F"/>
<path d="M102.196 96.3866C101.593 96.0382 101.104 96.3164 101.102 97.008C101.122 97.3851 101.231 97.7522 101.42 98.0793C101.608 98.4063 101.872 98.6843 102.188 98.8904C102.789 99.2362 103.28 98.958 103.28 98.2664C103.261 97.8897 103.152 97.5231 102.964 97.1964C102.775 96.8697 102.512 96.5922 102.196 96.3866Z" fill="#455A64"/>
<path d="M94.9019 99.6291L95.4479 98.6931L94.7381 98.2433C94.6146 98.1817 94.4765 98.1552 94.339 98.1667C94.2015 98.1781 94.0697 98.2271 93.9581 98.3083C93.6415 98.5137 93.378 98.7911 93.1891 99.1178C93.0002 99.4445 92.8913 99.8113 92.8713 100.188C92.8568 100.326 92.8809 100.465 92.9411 100.59C93.0013 100.715 93.095 100.821 93.2119 100.895L93.9087 101.34L94.4833 100.355C94.6613 100.137 94.8027 99.8921 94.9019 99.6291Z" fill="#37474F"/>
<path d="M94.6571 98.7616C95.2577 98.4132 95.7465 98.6914 95.7491 99.383C95.7295 99.7603 95.6208 100.128 95.4319 100.455C95.243 100.782 94.9792 101.06 94.6623 101.265C94.0617 101.611 93.5729 101.333 93.5703 100.641C93.5897 100.264 93.6983 99.8974 93.8873 99.5705C94.0762 99.2437 94.3401 98.9665 94.6571 98.7616Z" fill="#455A64"/>
<path d="M87.2525 95.9601L87.7985 95.0241L87.1017 94.5743C86.9783 94.5121 86.8402 94.4853 86.7025 94.4967C86.5649 94.5082 86.4331 94.5575 86.3217 94.6393C86.0052 94.8448 85.7419 95.1222 85.553 95.4489C85.3641 95.7756 85.2551 96.1423 85.2349 96.5191C85.2197 96.657 85.2436 96.7964 85.3039 96.9215C85.3641 97.0465 85.4582 97.1521 85.5755 97.2263L86.2723 97.6709L86.8469 96.6855C87.0205 96.4672 87.1574 96.2222 87.2525 95.9601Z" fill="#37474F"/>
<path d="M87.01 95.0916C87.6132 94.7432 88.102 95.0214 88.1046 95.713C88.0843 96.0902 87.9754 96.4572 87.7865 96.7843C87.5977 97.1114 87.3343 97.3893 87.0178 97.5954C86.4172 97.9412 85.9258 97.663 85.9258 96.9714C85.9451 96.5947 86.0534 96.228 86.2419 95.9012C86.4304 95.5744 86.6936 95.297 87.01 95.0916Z" fill="#455A64"/>
<path d="M102.694 95.2307V96.5775L95.6016 92.7451V90.8887L102.694 95.2307Z" fill="#E0E0E0"/>
<path d="M103.105 95.0024L96.0072 90.7852L95.6016 90.8892L102.694 95.2311L103.105 95.0024Z" fill="#F5F5F5"/>
<path d="M103.106 96.3461L102.695 96.5776V95.2307L103.106 95.002V96.3461Z" fill="#F0F0F0"/>
<path d="M95.1275 90.8887L94.2617 97.7449V98.9721L95.1275 92.8205V90.8887Z" fill="#E0E0E0"/>
<path d="M94.2609 97.7441H93.7617V98.9687H94.2609V97.7441Z" fill="#F0F0F0"/>
<path d="M93.7617 97.7449L94.5469 90.8887H95.1267L94.2609 97.7449H93.7617Z" fill="#F5F5F5"/>
<path d="M86.7266 93.944V95.231L94.1028 92.2358V90.6602L86.7266 93.944Z" fill="#E0E0E0"/>
<path d="M86.4453 95.0396L86.7287 95.2294V93.9424L86.4453 93.7578V95.0396Z" fill="#F0F0F0"/>
<path d="M87.6075 93.5534L86.7287 93.9434L86.4453 93.7588L94.1049 90.3086V90.6596L87.6075 93.5534Z" fill="#F5F5F5"/>
<path d="M90.3711 89.0273V89.8697L92.5213 91.0215L94.1047 90.3091V89.9633L90.3711 89.0273Z" fill="#E0E0E0"/>
<path d="M90.3711 89.0272L90.5401 88.957L94.1047 89.7266V89.9632L90.3711 89.0272Z" fill="#F5F5F5"/>
<path d="M93.4596 82.543H96.7668V88.2422C96.7521 88.3879 96.6991 88.5272 96.6133 88.6459C96.5274 88.7646 96.4118 88.8585 96.278 88.9182C95.9158 89.1033 95.5148 89.1998 95.108 89.1998C94.7012 89.1998 94.3003 89.1033 93.938 88.9182C93.8049 88.8585 93.6902 88.7644 93.6056 88.6456C93.521 88.5267 93.4697 88.3875 93.457 88.2422L93.4596 82.543Z" fill="#E0E0E0"/>
<path d="M80.435 73.38C80.6185 73.6571 80.8631 73.8883 81.15 74.056L94.6258 81.2138C95.0722 81.4508 95.569 81.577 96.0744 81.582C96.5798 81.587 97.079 81.4705 97.53 81.2424L106.971 76.461C107.568 76.1583 108.095 75.7334 108.518 75.2138C108.941 74.6942 109.25 74.0916 109.425 73.445L113.983 56.6152C114.058 56.6386 114.134 56.6646 114.212 56.6854C114.403 56.7479 114.603 56.7787 114.804 56.7764H114.833L109.425 76.747C109.25 77.3936 108.941 77.9962 108.518 78.5158C108.095 79.0354 107.568 79.4603 106.971 79.763L97.53 84.5444C97.079 84.7725 96.5798 84.889 96.0744 84.884C95.569 84.879 95.0722 84.7528 94.6258 84.5158L81.15 77.358C79.8058 76.5884 79.6784 74.5292 80.435 73.38Z" fill="#5276F9"/>
<path opacity="0.3" d="M80.435 73.38C80.6185 73.6571 80.8631 73.8883 81.15 74.056L94.6258 81.2138C95.0722 81.4508 95.569 81.577 96.0744 81.582C96.5798 81.587 97.079 81.4705 97.53 81.2424L106.971 76.461C107.568 76.1583 108.095 75.7334 108.518 75.2138C108.941 74.6942 109.25 74.0916 109.425 73.445L113.983 56.6152C114.058 56.6386 114.134 56.6646 114.212 56.6854C114.403 56.7479 114.603 56.7787 114.804 56.7764H114.833L109.425 76.747C109.25 77.3936 108.941 77.9962 108.518 78.5158C108.095 79.0354 107.568 79.4603 106.971 79.763L97.53 84.5444C97.079 84.7725 96.5798 84.889 96.0744 84.884C95.569 84.879 95.0722 84.7528 94.6258 84.5158L81.15 77.358C79.8058 76.5884 79.6784 74.5292 80.435 73.38Z" fill="black"/>
<path d="M81.0628 72.7719L90.8284 67.7617L103.688 74.3787C103.269 74.4801 102.843 74.5633 102.422 74.6387C101.317 74.8597 100.188 75.1041 99.229 75.6969C98.2696 76.2897 97.4922 77.2985 97.4844 78.4269L97.8276 81.0789L97.5286 81.2323C97.0776 81.4604 96.5784 81.5769 96.073 81.5719C95.5676 81.5669 95.0708 81.4407 94.6244 81.2037L81.1486 74.0459C80.8617 73.8782 80.6171 73.6469 80.4336 73.3699C80.592 73.1228 80.8079 72.9176 81.0628 72.7719Z" fill="#5276F9"/>
<path opacity="0.2" d="M81.0628 72.7719L90.8284 67.7617L103.688 74.3787C103.269 74.4801 102.843 74.5633 102.422 74.6387C101.317 74.8597 100.188 75.1041 99.229 75.6969C98.2696 76.2897 97.4922 77.2985 97.4844 78.4269L97.8276 81.0789L97.5286 81.2323C97.0776 81.4604 96.5784 81.5769 96.073 81.5719C95.5676 81.5669 95.0708 81.4407 94.6244 81.2037L81.1486 74.0459C80.8617 73.8782 80.6171 73.6469 80.4336 73.3699C80.592 73.1228 80.8079 72.9176 81.0628 72.7719Z" fill="black"/>
<path d="M82.4805 64.3946C82.4805 64.3946 90.3195 66.7008 92.3943 64.6546C94.9735 62.1222 93.8945 55.7392 93.5851 53.2432C93.2757 50.7472 93.5851 49.0156 94.2767 48.285C94.9683 47.5544 95.9693 46.4806 99.2167 47.8248C95.9329 49.5148 95.5091 57.5488 96.5465 60.7754C93.9725 63.4248 94.1493 67.5354 94.0999 69.436C94.0999 69.436 87.4023 71.0714 83.9053 72.9928L82.4805 64.3946Z" fill="#5276F9"/>
<path opacity="0.1" d="M82.4805 64.3946C82.4805 64.3946 90.3195 66.7008 92.3943 64.6546C94.9735 62.1222 93.8945 55.7392 93.5851 53.2432C93.2757 50.7472 93.5851 49.0156 94.2767 48.285C94.9683 47.5544 95.9693 46.4806 99.2167 47.8248C95.9329 49.5148 95.5091 57.5488 96.5465 60.7754C93.9725 63.4248 94.1493 67.5354 94.0999 69.436C94.0999 69.436 87.4023 71.0714 83.9053 72.9928L82.4805 64.3946Z" fill="white"/>
<path d="M83.9028 73.0025L82.2986 72.1367C82.2986 67.7167 81.646 68.1613 80.4318 66.4323C79.2176 64.7033 81.0792 63.6269 82.4806 64.3939C83.882 65.1609 84.4488 67.4749 83.9028 73.0025Z" fill="#5276F9"/>
<path opacity="0.2" d="M83.9028 73.0025L82.2986 72.1367C82.2986 67.7167 81.646 68.1613 80.4318 66.4323C79.2176 64.7033 81.0792 63.6269 82.4806 64.3939C83.882 65.1609 84.4488 67.4749 83.9028 73.0025Z" fill="white"/>
<path d="M99.2141 47.8398C99.2141 47.8398 107.994 51.6436 112.271 53.7574L111.959 55.3174L97.9531 48.9604C98.2825 48.4956 98.7138 48.1123 99.2141 47.8398Z" fill="#5276F9"/>
<path opacity="0.1" d="M99.2141 47.8398C99.2141 47.8398 107.994 51.6436 112.271 53.7574L111.959 55.3174L97.9531 48.9604C98.2825 48.4956 98.7138 48.1123 99.2141 47.8398Z" fill="white"/>
<path d="M96.5442 60.7857C95.6602 58.0323 95.8397 51.7767 97.9535 48.9531L111.96 55.3101L108.759 71.3547L103.686 74.3785L94.0977 69.4385C94.1471 67.5405 93.9702 63.4403 96.5442 60.7857Z" fill="#5276F9"/>
<path opacity="0.1" d="M96.5442 60.7857C95.6602 58.0323 95.8397 51.7767 97.9535 48.9531L111.96 55.3101L108.759 71.3547L103.686 74.3785L94.0977 69.4385C94.1471 67.5405 93.9702 63.4403 96.5442 60.7857Z" fill="black"/>
<path d="M105.213 64.001C104.976 63.8658 104.781 63.975 104.781 64.261C104.789 64.4096 104.832 64.5541 104.907 64.6829C104.981 64.8117 105.085 64.921 105.21 65.002C105.447 65.1398 105.642 65.0306 105.642 64.7576C105.636 64.6064 105.593 64.459 105.519 64.3274C105.444 64.1958 105.339 64.0839 105.213 64.001Z" fill="#5276F9"/>
<path d="M103.047 62.7275C102.808 62.5923 102.616 62.7015 102.613 62.9875C102.622 63.1364 102.665 63.2813 102.739 63.4105C102.814 63.5396 102.918 63.6495 103.042 63.7311C103.281 63.8663 103.474 63.7571 103.474 63.4841C103.469 63.3331 103.427 63.1855 103.353 63.0539C103.279 62.9222 103.174 62.8103 103.047 62.7275Z" fill="#5276F9"/>
<path d="M100.881 61.4561C100.644 61.3183 100.449 61.4275 100.449 61.7005C100.457 61.8494 100.501 61.9942 100.575 62.1234C100.65 62.2526 100.753 62.3624 100.878 62.4441C101.115 62.5819 101.31 62.4701 101.31 62.1971C101.302 62.0485 101.259 61.9039 101.184 61.7751C101.11 61.6464 101.006 61.537 100.881 61.4561Z" fill="#5276F9"/>
<path d="M98.7129 60.1827C98.4763 60.0449 98.2838 60.1541 98.2812 60.4271C98.2895 60.5759 98.3326 60.7208 98.4071 60.85C98.4817 60.9791 98.5855 61.089 98.7102 61.1707C98.9494 61.3085 99.1418 61.1967 99.1418 60.9107C99.1326 60.7641 99.089 60.6218 99.0145 60.4953C98.9399 60.3688 98.8366 60.2617 98.7129 60.1827Z" fill="#5276F9"/>
<g opacity="0.2">
<path d="M105.217 64.0029C104.98 63.8677 104.785 63.9769 104.785 64.2629C104.793 64.4115 104.836 64.5561 104.911 64.6849C104.985 64.8137 105.089 64.923 105.214 65.0039C105.451 65.1417 105.646 65.0325 105.646 64.7595C105.64 64.6084 105.597 64.4609 105.523 64.3293C105.448 64.1978 105.343 64.0859 105.217 64.0029Z" fill="white"/>
<path d="M103.051 62.7275C102.812 62.5923 102.62 62.7015 102.617 62.9875C102.625 63.1364 102.669 63.2813 102.743 63.4105C102.818 63.5396 102.921 63.6495 103.046 63.7311C103.285 63.8663 103.478 63.7571 103.478 63.4841C103.472 63.3331 103.431 63.1855 103.357 63.0539C103.283 62.9222 103.178 62.8103 103.051 62.7275Z" fill="white"/>
<path d="M100.881 61.4561C100.644 61.3183 100.449 61.4275 100.449 61.7005C100.457 61.8494 100.501 61.9942 100.575 62.1234C100.65 62.2526 100.753 62.3624 100.878 62.4441C101.115 62.5819 101.31 62.4701 101.31 62.1971C101.302 62.0485 101.259 61.9039 101.184 61.7751C101.11 61.6464 101.006 61.537 100.881 61.4561Z" fill="white"/>
<path d="M98.7129 60.1827C98.4763 60.0449 98.2838 60.1541 98.2812 60.4271C98.2895 60.5759 98.3326 60.7208 98.4071 60.85C98.4817 60.9791 98.5855 61.089 98.7102 61.1707C98.9494 61.3085 99.1418 61.1967 99.1418 60.9107C99.1326 60.7641 99.089 60.6218 99.0145 60.4953C98.9399 60.3688 98.8366 60.2617 98.7129 60.1827Z" fill="white"/>
</g>
<path d="M99.2303 75.7073C100.19 75.1145 101.31 74.8701 102.423 74.6491C102.844 74.5633 103.271 74.4801 103.689 74.3891C104.371 74.2389 105.029 73.9984 105.647 73.6741C107.207 72.8187 108.234 71.2197 108.733 69.5141C109.232 67.8085 109.253 66.0145 109.139 64.2465C109.024 62.4785 108.814 60.7157 108.879 58.9477C108.91 57.9077 109.066 56.8183 109.76 56.0591C110.454 55.2999 111.637 55.0347 112.688 55.1777C113.033 55.2261 113.373 55.3053 113.704 55.4143L114.17 55.9603L113.993 56.6181L109.435 73.4479C109.118 74.6152 108.37 75.6187 107.342 76.2559C107.225 76.3287 107.106 76.3989 106.981 76.4639L97.8393 81.0919L97.4961 78.4399C97.5013 77.3089 98.2813 76.2975 99.2303 75.7073Z" fill="#5276F9"/>
<path opacity="0.3" d="M99.2303 75.7073C100.19 75.1145 101.31 74.8701 102.423 74.6491C102.844 74.5633 103.271 74.4801 103.689 74.3891C104.371 74.2389 105.029 73.9984 105.647 73.6741C107.207 72.8187 108.234 71.2197 108.733 69.5141C109.232 67.8085 109.253 66.0145 109.139 64.2465C109.024 62.4785 108.814 60.7157 108.879 58.9477C108.91 57.9077 109.066 56.8183 109.76 56.0591C110.454 55.2999 111.637 55.0347 112.688 55.1777C113.033 55.2261 113.373 55.3053 113.704 55.4143L114.17 55.9603L113.993 56.6181L109.435 73.4479C109.118 74.6152 108.37 75.6187 107.342 76.2559C107.225 76.3287 107.106 76.3989 106.981 76.4639L97.8393 81.0919L97.4961 78.4399C97.5013 77.3089 98.2813 76.2975 99.2303 75.7073Z" fill="black"/>
<path d="M99.2148 73.8965C102.558 72.9449 105.845 72.8201 107.054 70.4177C108.263 68.0153 108.354 64.6977 107.745 58.9387C107.669 58.1957 107.688 57.4462 107.8 56.7078C108.156 54.5498 109.454 53.6294 110.946 53.606C112.423 53.5852 113.852 54.1261 114.945 55.1192C115.158 55.2962 115.328 55.5194 115.441 55.7718C115.496 55.899 115.515 56.0382 115.498 56.1752C115.48 56.3123 115.427 56.4422 115.343 56.5518C115.206 56.693 115.019 56.7759 114.823 56.7832H114.794C114.593 56.7855 114.393 56.7547 114.201 56.6923C114.123 56.6715 114.048 56.6454 113.972 56.622C113.562 56.4946 113.161 56.3413 112.743 56.2373C112.252 56.0942 111.731 56.0942 111.24 56.2373C111.005 56.3282 110.795 56.4734 110.627 56.6609C110.459 56.8484 110.338 57.0729 110.273 57.3162C108.863 61.9208 110.65 66.8687 109.064 70.6725C107.764 74.1305 103.284 75.5657 100.122 76.5927C100.427 76.4702 100.695 76.2725 100.902 76.0181C101.059 75.7737 101.132 75.4846 101.11 75.195C101.087 74.9053 100.97 74.631 100.777 74.4138C100.58 74.2059 100.333 74.0499 100.061 73.9596C99.7883 73.8694 99.4978 73.8477 99.2148 73.8965Z" fill="#5276F9"/>
<path opacity="0.1" d="M99.2148 73.8965C102.558 72.9449 105.845 72.8201 107.054 70.4177C108.263 68.0153 108.354 64.6977 107.745 58.9387C107.669 58.1957 107.688 57.4462 107.8 56.7078C108.156 54.5498 109.454 53.6294 110.946 53.606C112.423 53.5852 113.852 54.1261 114.945 55.1192C115.158 55.2962 115.328 55.5194 115.441 55.7718C115.496 55.899 115.515 56.0382 115.498 56.1752C115.48 56.3123 115.427 56.4422 115.343 56.5518C115.206 56.693 115.019 56.7759 114.823 56.7832H114.794C114.593 56.7855 114.393 56.7547 114.201 56.6923C114.123 56.6715 114.048 56.6454 113.972 56.622C113.562 56.4946 113.161 56.3413 112.743 56.2373C112.252 56.0942 111.731 56.0942 111.24 56.2373C111.005 56.3282 110.795 56.4734 110.627 56.6609C110.459 56.8484 110.338 57.0729 110.273 57.3162C108.863 61.9208 110.65 66.8687 109.064 70.6725C107.764 74.1305 103.284 75.5657 100.122 76.5927C100.427 76.4702 100.695 76.2725 100.902 76.0181C101.059 75.7737 101.132 75.4846 101.11 75.195C101.087 74.9053 100.97 74.631 100.777 74.4138C100.58 74.2059 100.333 74.0499 100.061 73.9596C99.7883 73.8694 99.4978 73.8477 99.2148 73.8965Z" fill="white"/>
<path d="M96.8952 76.2629C97.0911 75.7178 97.3806 75.211 97.7506 74.7653C98.1258 74.3181 98.6421 74.0118 99.2144 73.8969C99.5004 73.8453 99.7947 73.8658 100.071 73.9566C100.347 74.0474 100.596 74.2056 100.795 74.4169C100.988 74.6341 101.105 74.9084 101.127 75.198C101.15 75.4877 101.077 75.7767 100.92 76.0211C100.713 76.2756 100.444 76.4733 100.14 76.5957C99.8883 76.7025 99.6426 76.8232 99.4042 76.9571C98.7812 77.3805 98.3324 78.0149 98.1406 78.7433C97.9563 79.4658 97.8585 80.2077 97.8494 80.9533L97.8364 81.0963L96.2764 80.2279C96.2017 78.8775 96.4125 77.5264 96.8952 76.2629Z" fill="#5276F9"/>
<path opacity="0.2" d="M96.8952 76.2629C97.0911 75.7178 97.3806 75.211 97.7506 74.7653C98.1258 74.3181 98.6421 74.0118 99.2144 73.8969C99.5004 73.8453 99.7947 73.8658 100.071 73.9566C100.347 74.0474 100.596 74.2056 100.795 74.4169C100.988 74.6341 101.105 74.9084 101.127 75.198C101.15 75.4877 101.077 75.7767 100.92 76.0211C100.713 76.2756 100.444 76.4733 100.14 76.5957C99.8883 76.7025 99.6426 76.8232 99.4042 76.9571C98.7812 77.3805 98.3324 78.0149 98.1406 78.7433C97.9563 79.4658 97.8585 80.2077 97.8494 80.9533L97.8364 81.0963L96.2764 80.2279C96.2017 78.8775 96.4125 77.5264 96.8952 76.2629Z" fill="white"/>
<path opacity="0.1" d="M115.44 55.7622C115.326 55.5137 115.157 55.2942 114.946 55.12C114.185 54.4314 113.255 53.9584 112.25 53.7498C107.965 51.6256 99.2161 47.84 99.2161 47.84C95.9713 46.4958 94.9703 47.58 94.2761 48.3002C93.5819 49.0204 93.2777 50.7598 93.5845 53.2584C93.8913 55.757 94.9729 62.1374 92.3937 64.6698C90.3137 66.7056 82.4799 64.4098 82.4799 64.4098C81.0785 63.6428 79.2143 64.7192 80.4311 66.4482C81.6479 68.1772 82.2979 67.7482 82.2979 72.1526L81.0603 72.787C80.8042 72.9356 80.5882 73.1444 80.4311 73.3954C79.6745 74.5446 79.8019 76.6038 81.1461 77.3708L94.6219 84.5286C95.0683 84.7655 95.5651 84.8918 96.0705 84.8967C96.5759 84.9017 97.0751 84.7853 97.5261 84.5572L106.967 79.7758C107.564 79.473 108.091 79.0481 108.514 78.5285C108.937 78.009 109.246 77.4064 109.421 76.7598L114.829 56.7892C115.026 56.7818 115.212 56.699 115.349 56.5578C115.435 56.4458 115.488 56.3126 115.504 56.1725C115.52 56.0324 115.498 55.8906 115.44 55.7622ZM109.083 74.3314C109.049 74.399 109.01 74.464 108.974 74.529C109.013 74.464 109.052 74.399 109.086 74.3314H109.083ZM108.854 74.7344C108.807 74.8072 108.758 74.8774 108.709 74.9476C108.761 74.88 108.81 74.8072 108.857 74.7344H108.854ZM98.8105 48.0818C98.7273 48.1442 98.6467 48.2066 98.5661 48.2768C98.6467 48.2144 98.7273 48.152 98.8001 48.1L98.8105 48.0818ZM97.9551 48.945C97.8927 49.0282 97.8303 49.1192 97.7705 49.205C97.905 48.9963 98.0563 48.7989 98.2229 48.6148C98.1319 48.7292 98.0409 48.8384 97.9551 48.9528V48.945ZM97.7601 49.2336C97.7003 49.3272 97.6431 49.4208 97.5859 49.5196C97.6405 49.4208 97.6977 49.3272 97.7601 49.2336ZM97.5833 49.5222C97.214 50.1785 96.9251 50.8768 96.7227 51.6022C96.9238 50.8768 97.2119 50.1784 97.5807 49.5222H97.5833ZM96.2183 54.0644C96.2027 54.1892 96.1897 54.3114 96.1741 54.4336C96.2001 54.3114 96.2001 54.1892 96.2157 54.0644H96.2183ZM96.1663 54.5142C96.1533 54.6312 96.1429 54.7508 96.1325 54.8704C96.1403 54.7508 96.1507 54.6312 96.1637 54.5142H96.1663ZM96.1247 54.951C96.1247 55.0732 96.1039 55.1954 96.0961 55.315C96.1013 55.1954 96.1117 55.0732 96.1221 54.951H96.1247ZM96.0961 55.3358C96.0701 55.7154 96.0545 56.0924 96.0519 56.4642C96.0519 56.0924 96.0675 55.7154 96.0935 55.3358H96.0961ZM96.3821 60.1718C96.3821 60.1302 96.3613 60.086 96.3535 60.0418C96.3613 60.086 96.3717 60.1302 96.3821 60.1718ZM96.3093 59.8312C96.3093 59.7844 96.2911 59.7376 96.2833 59.6882C96.2911 59.7376 96.2989 59.7844 96.3093 59.8312ZM96.1897 59.0772C96.1897 59.0304 96.1897 58.9836 96.1689 58.9342C96.1767 58.9836 96.1819 59.02 96.2001 59.0772H96.1897ZM96.1299 58.5806C96.1299 58.5234 96.1299 58.4662 96.1169 58.409C96.1221 58.4662 96.1247 58.5234 96.1299 58.5806ZM96.0935 58.1412C96.0935 58.0762 96.0935 58.006 96.0935 57.9384C96.0857 58.006 96.0883 58.0762 96.0935 58.1412ZM96.0701 57.7252C96.0701 57.6498 96.0701 57.5744 96.0701 57.4964C96.0623 57.5744 96.0649 57.6498 96.0701 57.72V57.7252ZM96.0545 57.2988C96.0545 57.2182 96.0545 57.1376 96.0545 57.0544C96.0493 57.1376 96.0519 57.2182 96.0545 57.2988ZM107.64 76.0344C107.539 76.1098 107.432 76.1852 107.323 76.2528C107.44 76.18 107.546 76.1098 107.64 76.0344ZM107.713 75.9824C107.804 75.9122 107.89 75.8394 107.973 75.764C107.9 75.8394 107.812 75.92 107.721 75.9824H107.713ZM108.074 75.6756C108.15 75.6028 108.222 75.53 108.293 75.4546C108.23 75.53 108.16 75.6028 108.082 75.6756H108.074ZM109.205 74.0688C109.229 74.0142 109.255 73.9596 109.275 73.905C109.255 73.9544 109.229 74.009 109.2 74.0636L109.205 74.0688Z" fill="#EF2C2C"/>
<path d="M91.9299 81.6114C93.4844 80.9323 94.7661 79.7512 95.5699 78.2574C96.3629 76.7754 96.7581 75.4702 96.4565 73.814L84.3509 69.0508C83.9739 72.6544 80.6641 75.0126 80.6641 75.0126L91.9299 81.6114Z" fill="#37474F"/>
<path d="M78.7188 95.8203C78.7188 96.7953 78.7526 98.2227 78.7526 98.2227L79.4026 98.2591C79.7122 98.2756 80.01 98.3831 80.2589 98.5681C80.5077 98.7531 80.6964 99.0074 80.8014 99.2991L80.817 99.3407C80.8713 99.4894 80.9805 99.6117 81.1222 99.6823C81.2639 99.7529 81.4273 99.7665 81.5787 99.7203C81.6595 99.6949 81.7341 99.6531 81.7981 99.5977C81.862 99.5422 81.9139 99.4742 81.9506 99.3979L82.2626 96.1999L78.7188 95.8203Z" fill="#FFA8A7"/>
<path d="M77.796 105.56C76.0852 106.291 73.4696 106.434 72.3828 104.689V105.16C73.4696 106.904 76.0852 106.761 77.796 106.033C79.5068 105.305 79.1298 104.109 80.656 103.47C81.2162 103.266 81.7261 102.944 82.151 102.526C82.151 102.388 82.1796 102.211 82.203 102.006C81.7504 102.424 81.2265 102.758 80.656 102.991C79.1298 103.633 79.5042 104.824 77.796 105.56Z" fill="#FAFAFA"/>
<path d="M82.2108 100.456C82.1411 100.124 82.1411 99.7802 82.2108 99.4475C82.2306 99.3718 82.2339 99.2926 82.2205 99.2154C82.207 99.1383 82.1771 99.0649 82.1328 99.0003L81.995 98.8651L81.943 99.3851C81.8911 99.4952 81.8078 99.5873 81.7034 99.6498C81.5991 99.7124 81.4785 99.7425 81.357 99.7364C81.2356 99.7302 81.1186 99.6881 81.0211 99.6154C80.9236 99.5427 80.8499 99.4426 80.8094 99.3279L80.7938 99.2863C80.6888 98.9946 80.5001 98.7403 80.2513 98.5553C80.0025 98.3703 79.7046 98.2628 79.395 98.2463L78.732 98.2099C78.6337 98.2037 78.5359 98.2284 78.4524 98.2806C78.369 98.3329 78.3039 98.41 78.2666 98.5011C77.5828 100.147 75.8694 101.975 74.5486 102.809C73.5762 102.789 72.375 103.589 72.375 104.572V104.671C73.4618 106.416 76.0774 106.273 77.7882 105.542C79.499 104.811 79.122 103.621 80.6482 102.978C81.2186 102.745 81.7426 102.411 82.1952 101.993C82.2728 101.484 82.2781 100.967 82.2108 100.456Z" fill="#5276F9"/>
<path opacity="0.2" d="M82.2108 100.456C82.1411 100.124 82.1411 99.7802 82.2108 99.4475C82.2306 99.3718 82.2339 99.2926 82.2205 99.2154C82.207 99.1383 82.1771 99.0649 82.1328 99.0003L81.995 98.8651L81.943 99.3851C81.8911 99.4952 81.8078 99.5873 81.7034 99.6498C81.5991 99.7124 81.4785 99.7425 81.357 99.7364C81.2356 99.7302 81.1186 99.6881 81.0211 99.6154C80.9236 99.5427 80.8499 99.4426 80.8094 99.3279L80.7938 99.2863C80.6888 98.9946 80.5001 98.7403 80.2513 98.5553C80.0025 98.3703 79.7046 98.2628 79.395 98.2463L78.732 98.2099C78.6337 98.2037 78.5359 98.2284 78.4524 98.2806C78.369 98.3329 78.3039 98.41 78.2666 98.5011C77.5828 100.147 75.8694 101.975 74.5486 102.809C73.5762 102.789 72.375 103.589 72.375 104.572V104.671C73.4618 106.416 76.0774 106.273 77.7882 105.542C79.499 104.811 79.122 103.621 80.6482 102.978C81.2186 102.745 81.7426 102.411 82.1952 101.993C82.2728 101.484 82.2781 100.967 82.2108 100.456Z" fill="black"/>
<path opacity="0.25" d="M82.2108 100.456C82.1411 100.124 82.1411 99.7802 82.2108 99.4475C82.2306 99.3718 82.2339 99.2926 82.2205 99.2154C82.207 99.1383 82.1771 99.0649 82.1328 99.0003L81.995 98.8651L81.943 99.3851C81.8911 99.4952 81.8078 99.5873 81.7034 99.6498C81.5991 99.7124 81.4785 99.7425 81.357 99.7364C81.2356 99.7302 81.1186 99.6881 81.0211 99.6154C80.9236 99.5427 80.8499 99.4426 80.8094 99.3279L80.7938 99.2863C80.6888 98.9946 80.5001 98.7403 80.2513 98.5553C80.0025 98.3703 79.7046 98.2628 79.395 98.2463L78.732 98.2099C78.6337 98.2037 78.5359 98.2284 78.4524 98.2806C78.369 98.3329 78.3039 98.41 78.2666 98.5011C77.5828 100.147 75.8694 101.975 74.5486 102.809C73.5762 102.789 72.375 103.589 72.375 104.572V104.671C73.4618 106.416 76.0774 106.273 77.7882 105.542C79.499 104.811 79.122 103.621 80.6482 102.978C81.2186 102.745 81.7426 102.411 82.1952 101.993C82.2728 101.484 82.2781 100.967 82.2108 100.456Z" fill="#EF2C2C"/>
<path d="M78.9041 101.805C78.9422 101.843 78.9931 101.866 79.0471 101.869C79.101 101.872 79.1541 101.855 79.1962 101.821C79.2382 101.787 79.2662 101.738 79.2746 101.685C79.2831 101.632 79.2715 101.577 79.2421 101.532C78.9863 101.19 78.6465 100.92 78.2556 100.748C77.8648 100.576 77.4361 100.509 77.0113 100.552C76.9177 100.666 76.8267 100.778 76.7305 100.887C77.1413 100.838 77.5577 100.897 77.9388 101.058C78.3199 101.219 78.6525 101.476 78.9041 101.805Z" fill="white"/>
<path d="M79.5771 101.052C79.6152 101.09 79.6662 101.113 79.7201 101.116C79.7741 101.119 79.8272 101.102 79.8692 101.068C79.9113 101.034 79.9392 100.985 79.9477 100.932C79.9562 100.879 79.9446 100.824 79.9151 100.779C79.6451 100.427 79.2895 100.15 78.8822 99.9743C78.4749 99.7986 78.0294 99.7301 77.5881 99.7752C77.5049 99.8974 77.4191 100.017 77.3281 100.139C78.1653 100.079 78.9115 100.238 79.5771 101.052Z" fill="white"/>
<path d="M78.2023 102.542C78.2199 102.565 78.2418 102.583 78.2667 102.596C78.2915 102.61 78.3188 102.618 78.347 102.621C78.3751 102.623 78.4035 102.62 78.4305 102.612C78.4574 102.603 78.4824 102.589 78.5039 102.571C78.5483 102.536 78.5771 102.485 78.5839 102.429C78.5907 102.373 78.575 102.317 78.5402 102.272C78.2902 101.938 77.9599 101.673 77.5799 101.5C77.1999 101.328 76.7826 101.255 76.3667 101.287C76.2549 101.404 76.1431 101.515 76.0312 101.625C76.4415 101.578 76.8569 101.638 77.2372 101.799C77.6175 101.959 77.9499 102.216 78.2023 102.542Z" fill="white"/>
<path d="M74.5564 102.823C73.584 102.802 72.3828 103.603 72.3828 104.585V104.684C73.454 106.403 76.0072 106.288 77.7154 105.586C77.5854 103.239 75.3312 102.815 74.5564 102.823Z" fill="white"/>
<path d="M77.4808 103.246C77.5181 103.281 77.5668 103.302 77.6182 103.305C77.6696 103.307 77.7203 103.292 77.7611 103.26C77.8018 103.229 77.8301 103.184 77.8407 103.134C77.8513 103.083 77.8435 103.031 77.8188 102.986C77.5691 102.65 77.2385 102.384 76.8579 102.212C76.4772 102.04 76.0591 101.967 75.6426 102C75.5048 102.122 75.3696 102.237 75.2344 102.343C76.069 102.276 76.8152 102.44 77.4808 103.246Z" fill="white"/>
<path d="M83.8013 89.8691C83.6661 92.0297 83.1149 93.5949 82.6911 96.5381C82.6911 96.5381 80.1067 97.3181 78.4947 96.1845L78.4297 91.6501L83.8013 89.8691Z" fill="#37474F"/>
<path d="M69.5536 92.5215C69.3378 93.4653 68.9062 94.7237 68.9062 94.7237L69.5589 94.7601C69.8683 94.7772 70.1658 94.885 70.4145 95.0699C70.6632 95.2548 70.8521 95.5087 70.9577 95.8001L70.9707 95.8417C71.0244 95.9907 71.1337 96.1132 71.2757 96.1834C71.4177 96.2537 71.5814 96.2663 71.7324 96.2187C71.8136 96.1941 71.8887 96.1527 71.9527 96.0971C72.0168 96.0416 72.0684 95.9731 72.1042 95.8963L73.087 93.3197L69.5536 92.5215Z" fill="#FFA8A7"/>
<path d="M67.9523 102.058C66.2415 102.786 63.6259 102.929 62.5391 101.185V101.66C63.6259 103.405 66.2415 103.262 67.9523 102.531C69.6631 101.801 69.2861 100.61 70.8123 99.9677C71.3729 99.7647 71.8829 99.4428 72.3073 99.0239C72.3073 98.8861 72.3359 98.7119 72.3593 98.5039C71.9063 98.9224 71.3824 99.2569 70.8123 99.4919C69.2861 100.134 69.6605 101.328 67.9523 102.058Z" fill="#FAFAFA"/>
<path d="M72.367 96.9568C72.2965 96.6251 72.2965 96.2823 72.367 95.9506C72.3869 95.8748 72.3902 95.7957 72.3767 95.7185C72.3633 95.6413 72.3334 95.568 72.2891 95.5034L72.263 95.467L72.0992 95.896C72.0634 95.9728 72.0118 96.0413 71.9477 96.0968C71.8837 96.1524 71.8086 96.1938 71.7274 96.2184C71.5764 96.266 71.4127 96.2534 71.2707 96.1831C71.1287 96.1129 71.0194 95.9904 70.9657 95.8414L70.9527 95.7998C70.8471 95.5084 70.6582 95.2545 70.4095 95.0696C70.1608 94.8847 69.8633 94.7769 69.5539 94.7598L68.8908 94.7234C68.792 94.7179 68.694 94.7433 68.6101 94.7959C68.5263 94.8485 68.4609 94.9258 68.4229 95.0172C67.7417 96.6604 66.0257 98.4882 64.7049 99.3254C63.7351 99.302 62.5312 100.105 62.5312 101.088V101.184C63.6181 102.929 66.2337 102.786 67.9445 102.058C69.6553 101.33 69.2783 100.134 70.8045 99.4944C71.3746 99.2594 71.8984 98.9248 72.3514 98.5064C72.4291 97.9931 72.4344 97.4715 72.367 96.9568Z" fill="#5276F9"/>
<path opacity="0.2" d="M72.367 96.9568C72.2965 96.6251 72.2965 96.2823 72.367 95.9506C72.3869 95.8748 72.3902 95.7957 72.3767 95.7185C72.3633 95.6413 72.3334 95.568 72.2891 95.5034L72.263 95.467L72.0992 95.896C72.0634 95.9728 72.0118 96.0413 71.9477 96.0968C71.8837 96.1524 71.8086 96.1938 71.7274 96.2184C71.5764 96.266 71.4127 96.2534 71.2707 96.1831C71.1287 96.1129 71.0194 95.9904 70.9657 95.8414L70.9527 95.7998C70.8471 95.5084 70.6582 95.2545 70.4095 95.0696C70.1608 94.8847 69.8633 94.7769 69.5539 94.7598L68.8908 94.7234C68.792 94.7179 68.694 94.7433 68.6101 94.7959C68.5263 94.8485 68.4609 94.9258 68.4229 95.0172C67.7417 96.6604 66.0257 98.4882 64.7049 99.3254C63.7351 99.302 62.5312 100.105 62.5312 101.088V101.184C63.6181 102.929 66.2337 102.786 67.9445 102.058C69.6553 101.33 69.2783 100.134 70.8045 99.4944C71.3746 99.2594 71.8984 98.9248 72.3514 98.5064C72.4291 97.9931 72.4344 97.4715 72.367 96.9568Z" fill="black"/>
<path opacity="0.25" d="M72.367 96.9568C72.2965 96.6251 72.2965 96.2823 72.367 95.9506C72.3869 95.8748 72.3902 95.7957 72.3767 95.7185C72.3633 95.6413 72.3334 95.568 72.2891 95.5034L72.263 95.467L72.0992 95.896C72.0634 95.9728 72.0118 96.0413 71.9477 96.0968C71.8837 96.1524 71.8086 96.1938 71.7274 96.2184C71.5764 96.266 71.4127 96.2534 71.2707 96.1831C71.1287 96.1129 71.0194 95.9904 70.9657 95.8414L70.9527 95.7998C70.8471 95.5084 70.6582 95.2545 70.4095 95.0696C70.1608 94.8847 69.8633 94.7769 69.5539 94.7598L68.8908 94.7234C68.792 94.7179 68.694 94.7433 68.6101 94.7959C68.5263 94.8485 68.4609 94.9258 68.4229 95.0172C67.7417 96.6604 66.0257 98.4882 64.7049 99.3254C63.7351 99.302 62.5312 100.105 62.5312 101.088V101.184C63.6181 102.929 66.2337 102.786 67.9445 102.058C69.6553 101.33 69.2783 100.134 70.8045 99.4944C71.3746 99.2594 71.8984 98.9248 72.3514 98.5064C72.4291 97.9931 72.4344 97.4715 72.367 96.9568Z" fill="#EF2C2C"/>
<path d="M69.0564 98.3055C69.0937 98.3409 69.1425 98.3619 69.1938 98.3646C69.2452 98.3673 69.2959 98.3515 69.3367 98.3201C69.3775 98.2887 69.4057 98.2438 69.4163 98.1935C69.4269 98.1431 69.4191 98.0906 69.3944 98.0455C69.1387 97.7036 68.7989 97.4336 68.408 97.2618C68.0171 97.0901 67.5884 97.0224 67.1636 97.0653C67.0726 97.1771 66.979 97.2889 66.8828 97.3981C67.2926 97.3487 67.7083 97.4063 68.0892 97.5653C68.4701 97.7243 68.8034 97.9793 69.0564 98.3055Z" fill="white"/>
<path d="M69.7295 97.5516C69.7667 97.5946 69.8192 97.6216 69.8758 97.6269C69.9325 97.6323 69.989 97.6155 70.0337 97.5802C70.0777 97.545 70.106 97.4937 70.1123 97.4377C70.1187 97.3816 70.1025 97.3254 70.0675 97.2812C69.7977 96.9288 69.4422 96.6514 69.0349 96.4753C68.6276 96.2991 68.182 96.2302 67.7405 96.275C67.6573 96.3972 67.5715 96.5194 67.4805 96.639C68.3177 96.5818 69.0639 96.7378 69.7295 97.5516Z" fill="white"/>
<path d="M68.3559 99.0449C68.394 99.0832 68.4449 99.1061 68.4989 99.109C68.5528 99.112 68.606 99.0948 68.648 99.0608C68.69 99.0269 68.718 98.9786 68.7265 98.9252C68.7349 98.8718 68.7233 98.8172 68.6939 98.7719C68.4442 98.4377 68.1139 98.1723 67.7338 98.0004C67.3536 97.8285 66.9361 97.7558 66.5203 97.7891C66.4111 97.9035 66.2993 98.0179 66.1875 98.1271C66.5975 98.0793 67.0128 98.1388 67.3929 98.2997C67.773 98.4605 68.1048 98.7173 68.3559 99.0449Z" fill="white"/>
<path d="M64.7127 99.3208C63.7429 99.2974 62.5391 100.101 62.5391 101.084V101.18C63.6103 102.898 66.1635 102.784 67.8743 102.082C67.7417 99.7394 65.4875 99.3208 64.7127 99.3208Z" fill="white"/>
<path d="M67.6357 99.7483C67.6538 99.77 67.6759 99.7878 67.7008 99.8008C67.7258 99.8138 67.7531 99.8218 67.7811 99.8242C67.8091 99.8266 67.8374 99.8234 67.8642 99.8149C67.891 99.8063 67.9159 99.7926 67.9373 99.7743C67.9594 99.7571 67.9778 99.7356 67.9915 99.7112C68.0052 99.6867 68.0139 99.6598 68.017 99.632C68.0202 99.6041 68.0178 99.5759 68.0099 99.549C68.002 99.5221 67.9888 99.4971 67.9711 99.4754C67.7214 99.1406 67.3906 98.8747 67.01 98.7028C66.6293 98.5309 66.2112 98.4586 65.7949 98.4926C65.6571 98.6122 65.5219 98.7266 65.3867 98.8358C66.2213 98.776 66.9675 98.9345 67.6357 99.7483Z" fill="white"/>
<path d="M75.5316 87.4466C75.0324 89.5526 74.2316 91.0008 73.3112 93.8296C73.3112 93.8296 70.6306 94.152 69.2344 92.7714L70.4382 85.377L75.5316 87.4466Z" fill="#37474F"/>
<path d="M43.0391 72.2408V94.5436L43.8269 94.086V71.7832L43.0391 72.2408Z" fill="#455A64"/>
<path d="M43.0417 72.2408V94.5436L42.2539 94.086V71.7832L43.0417 72.2408Z" fill="#37474F"/>
<path d="M43.8281 78.1866L62.2881 67.5292V66.6816L43.8281 77.339V78.1866Z" fill="#455A64"/>
<path d="M43.8281 76.4446L61.4977 66.2266L62.2881 66.6816L43.8281 77.339V76.4446Z" fill="#37474F"/>
<path d="M98.75 82.2011V104.504L99.5404 104.049V81.7461L98.75 82.2011Z" fill="#455A64"/>
<path d="M98.7487 82.2011V104.504L97.9609 104.049V81.7461L98.7487 82.2011Z" fill="#37474F"/>
<path d="M79.5039 93.3189V115.622L80.2917 115.164V92.8613L79.5039 93.3189Z" fill="#455A64"/>
<path d="M79.5052 93.3189V115.622L78.7148 115.164V92.8613L79.5052 93.3189Z" fill="#37474F"/>
<path d="M80.293 99.2661L98.7504 88.6087V87.7637L80.293 98.4185V99.2661Z" fill="#455A64"/>
<path d="M80.293 97.5227L97.9626 87.3047L98.7504 87.7623L80.293 98.4171V97.5227Z" fill="#37474F"/>
<g opacity="0.2">
<path d="M98.75 82.2011V104.504L99.5404 104.049V81.7461L98.75 82.2011Z" fill="white"/>
<path d="M98.7487 82.2011V104.504L97.9609 104.049V81.7461L98.7487 82.2011Z" fill="white"/>
<path d="M79.5039 93.3189V115.622L80.2917 115.164V92.8613L79.5039 93.3189Z" fill="white"/>
<path d="M79.5052 93.3189V115.622L78.7148 115.164V92.8613L79.5052 93.3189Z" fill="white"/>
<path d="M80.293 99.2641L98.7504 88.6067V87.7617L80.293 98.4165V99.2641Z" fill="white"/>
<path d="M80.293 97.5227L97.9626 87.3047L98.7504 87.7623L80.293 98.4171V97.5227Z" fill="white"/>
</g>
<g opacity="0.2">
<path d="M43.043 72.2408V94.5436L43.8308 94.086V71.7832L43.043 72.2408Z" fill="white"/>
<path d="M43.0417 72.2408V94.5436L42.2539 94.086V71.7832L43.0417 72.2408Z" fill="white"/>
<path d="M43.8281 78.1866L62.2881 67.5292V66.6816L43.8281 77.339V78.1866Z" fill="white"/>
<path d="M43.8281 76.4446L61.4977 66.2266L62.2881 66.6816L43.8281 77.339V76.4446Z" fill="white"/>
</g>
<path d="M79.5054 91.1645L42.25 69.6937L62.2856 58.1211L99.541 79.5945L79.5054 91.1645Z" fill="#455A64"/>
<path d="M79.5054 93.3196L42.25 71.7838V69.6934L79.5054 91.1642V93.3196Z" fill="#455A64"/>
<path d="M79.5039 91.1644L99.5395 79.5918V81.7472L79.5039 93.3198V91.1644Z" fill="#455A64"/>
<path opacity="0.3" d="M79.5054 91.1645L42.25 69.6937L62.2856 58.1211L99.541 79.5945L79.5054 91.1645Z" fill="white"/>
<path opacity="0.1" d="M79.5039 91.1644L99.5395 79.5918V81.7472L79.5039 93.3198V91.1644Z" fill="white"/>
<path opacity="0.2" d="M79.5054 93.3196L42.25 71.7838V69.6934L79.5054 91.1642V93.3196Z" fill="white"/>
<path d="M64.1559 63.2324L61.1685 69.7636L53.3711 68.5546L56.3559 62.0234L64.1559 63.2324Z" fill="#E6E6E6"/>
<path d="M67.0828 64.495L60.3306 70.0018L53.75 67.29L60.4996 61.7832L67.0828 64.495Z" fill="#F0F0F0"/>
<path d="M68.4669 62.6582L72.5099 66.7064L62.4115 70.0812L58.3633 66.0304L68.4669 62.6582Z" fill="white"/>
<path d="M62.448 73.69L70.6224 68.9372C70.8826 68.8051 71.1703 68.7363 71.4622 68.7363C71.754 68.7363 72.0417 68.8051 72.302 68.9372L85.7986 76.7241C85.8903 76.7662 85.9701 76.8306 86.0305 76.9115C86.0909 76.9923 86.13 77.087 86.1444 77.1869V77.7069C86.1482 77.7432 86.1482 77.7799 86.1444 77.8161C86.1295 77.8563 86.1103 77.8946 86.0872 77.9306C86.0585 77.973 86.0244 78.0114 85.9858 78.045C85.9391 78.0861 85.8886 78.1226 85.835 78.1541L77.6216 82.9407C77.5469 82.9818 77.4686 83.0158 77.3876 83.0422L77.2966 83.0707L77.177 83.0993L77.0314 83.1253H76.9976C76.9326 83.1253 76.865 83.1253 76.7974 83.1253H76.7662C76.6986 83.1253 76.6336 83.1253 76.5686 83.1253H76.54C76.475 83.1253 76.41 83.1071 76.3476 83.0941H76.3138C76.2582 83.0799 76.2035 83.0626 76.15 83.0422H76.1188C76.0573 83.0172 75.9974 82.9886 75.9394 82.9563L62.4532 75.1407C62.3983 75.1099 62.3469 75.0733 62.2998 75.0315C62.2842 75.0185 62.2738 75.003 62.2608 74.99C62.2352 74.9659 62.2118 74.9398 62.1906 74.9119C62.1799 74.8966 62.1712 74.88 62.1646 74.8625C62.1487 74.8377 62.1348 74.8116 62.123 74.7845C62.1217 74.7664 62.1217 74.7481 62.123 74.73C62.1205 74.704 62.1205 74.6779 62.123 74.6519V74.1735C62.1304 74.0716 62.1643 73.9734 62.2213 73.8886C62.2783 73.8038 62.3564 73.7353 62.448 73.69Z" fill="#E0E0E0"/>
<path opacity="0.3" d="M86.134 77.1859C86.1387 77.2357 86.1343 77.2859 86.121 77.3341C86.1061 77.3742 86.087 77.4126 86.0638 77.4485V77.4615C86.0344 77.5026 86.0004 77.5401 85.9624 77.5733C85.9157 77.6144 85.8652 77.651 85.8116 77.6825L77.6372 82.4327C77.5626 82.4738 77.4842 82.5078 77.4032 82.5341L77.3122 82.5627L77.1926 82.5913C77.1446 82.6027 77.096 82.6114 77.047 82.6173H77.0132C76.9482 82.6173 76.8806 82.6173 76.813 82.6173H76.7818C76.7142 82.6173 76.6492 82.6173 76.5842 82.6173H76.5556C76.4906 82.6173 76.4256 82.5965 76.3632 82.5835H76.3294C76.2738 82.5693 76.2192 82.552 76.1656 82.5315H76.1344C76.0729 82.5066 76.013 82.4779 75.955 82.4457L62.4688 74.6587C62.4139 74.6278 62.3625 74.5912 62.3154 74.5495C62.3011 74.5369 62.288 74.523 62.2764 74.5079C62.2503 74.4845 62.2267 74.4584 62.2062 74.4299C62.1955 74.4146 62.1868 74.398 62.1802 74.3805C62.1643 74.3556 62.1504 74.3296 62.1386 74.3025C62.1373 74.2843 62.1373 74.2661 62.1386 74.2479C62.1361 74.222 62.1361 74.1959 62.1386 74.1699V74.6483C62.1361 74.6743 62.1361 74.7004 62.1386 74.7263C62.1373 74.7445 62.1373 74.7627 62.1386 74.7809C62.1504 74.808 62.1643 74.834 62.1802 74.8589C62.1868 74.8764 62.1955 74.893 62.2062 74.9083C62.2274 74.9362 62.2509 74.9623 62.2764 74.9863C62.2894 74.9993 62.2998 75.0149 62.3154 75.0279C62.3625 75.0696 62.4139 75.1062 62.4688 75.1371L75.9394 82.9397C75.9974 82.9719 76.0573 83.0006 76.1188 83.0255H76.15C76.2036 83.046 76.2582 83.0633 76.3138 83.0775H76.3476C76.41 83.0775 76.475 83.1009 76.54 83.1087H76.5686C76.6336 83.1087 76.6986 83.1087 76.7662 83.1087H76.7974C76.865 83.1087 76.9326 83.1087 76.9976 83.1087H77.0314L77.177 83.0827L77.2966 83.0541L77.3876 83.0255C77.4686 82.9992 77.547 82.9652 77.6216 82.9241L85.7986 78.1765C85.8522 78.145 85.9027 78.1084 85.9494 78.0673C85.9881 78.0338 86.0222 77.9953 86.0508 77.9529C86.074 77.917 86.0931 77.8786 86.108 77.8385C86.1118 77.8022 86.1118 77.7656 86.108 77.7293V77.2093L86.134 77.1859Z" fill="black"/>
<path d="M63.2461 74.1734L76.3501 81.7394C76.3665 81.7491 76.384 81.7569 76.4021 81.7628H76.4307C76.4635 81.7761 76.4974 81.7866 76.5321 81.794L76.6049 81.807H76.6543C76.6881 81.807 76.7271 81.807 76.7817 81.807C76.8267 81.8104 76.8719 81.8104 76.9169 81.807L77.0027 81.794L77.1093 81.7654C77.1407 81.7551 77.1712 81.742 77.2003 81.7264L81.4253 79.3006L67.8897 71.4746L63.2461 74.1734Z" fill="#E0E0E0"/>
<path d="M75.7133 72.0937L73.2459 73.5445C73.211 73.5684 73.1825 73.6004 73.1628 73.6378C73.1431 73.6752 73.1328 73.7168 73.1328 73.759C73.1328 73.8013 73.1431 73.8429 73.1628 73.8803C73.1825 73.9177 73.211 73.9497 73.2459 73.9736L76.9327 76.103C76.995 76.1393 77.0659 76.1584 77.1381 76.1584C77.2102 76.1584 77.2811 76.1393 77.3435 76.103L79.8083 74.6547C79.8437 74.631 79.8727 74.5988 79.8927 74.5612C79.9128 74.5236 79.9233 74.4816 79.9233 74.4389C79.9233 74.3963 79.9128 74.3543 79.8927 74.3167C79.8727 74.2791 79.8437 74.2469 79.8083 74.2231L76.1215 72.0937C76.0594 72.0579 75.989 72.0391 75.9174 72.0391C75.8457 72.0391 75.7753 72.0579 75.7133 72.0937Z" fill="#E0E0E0"/>
<path opacity="0.2" d="M63.2461 74.1734L76.3501 81.7394C76.3665 81.7491 76.384 81.7569 76.4021 81.7628H76.4307C76.4635 81.7761 76.4974 81.7866 76.5321 81.794L76.6049 81.807H76.6543C76.6881 81.807 76.7271 81.807 76.7817 81.807C76.8267 81.8104 76.8719 81.8104 76.9169 81.807L77.0027 81.794L77.1093 81.7654C77.1407 81.7551 77.1712 81.742 77.2003 81.7264L81.4253 79.3006L67.8897 71.4746L63.2461 74.1734Z" fill="black"/>
<path opacity="0.2" d="M75.7133 72.0937L73.2459 73.5445C73.211 73.5684 73.1825 73.6004 73.1628 73.6378C73.1431 73.6752 73.1328 73.7168 73.1328 73.759C73.1328 73.8013 73.1431 73.8429 73.1628 73.8803C73.1825 73.9177 73.211 73.9497 73.2459 73.9736L76.9327 76.103C76.995 76.1393 77.0659 76.1584 77.1381 76.1584C77.2102 76.1584 77.2811 76.1393 77.3435 76.103L79.8083 74.6547C79.8437 74.631 79.8727 74.5988 79.8927 74.5612C79.9128 74.5236 79.9233 74.4816 79.9233 74.4389C79.9233 74.3963 79.9128 74.3543 79.8927 74.3167C79.8727 74.2791 79.8437 74.2469 79.8083 74.2231L76.1215 72.0937C76.0594 72.0579 75.989 72.0391 75.9174 72.0391C75.8457 72.0391 75.7753 72.0579 75.7133 72.0937Z" fill="black"/>
<path d="M82.213 60.6758L80.5646 64.8358L74.0646 67.5164C73.6705 67.6783 73.2437 67.7442 72.8192 67.7088L70.3154 67.5034C70.0217 67.4805 69.7282 67.5496 69.4756 67.701L68.043 68.5694C67.8985 68.6569 67.7693 68.7675 67.6608 68.897L66.9588 69.729C66.9111 69.7841 66.8755 69.8486 66.8544 69.9184C66.8332 69.9882 66.827 70.0616 66.8361 70.1339C66.8451 70.2062 66.8693 70.2758 66.907 70.3382C66.9447 70.4006 66.9951 70.4543 67.055 70.496L67.497 70.8132C67.7294 70.9808 68.0036 71.0811 68.2893 71.1031C68.5751 71.1251 68.8614 71.068 69.1168 70.938L70.2244 70.379L72.515 70.639V71.2396L71.891 71.7596C71.8172 71.8224 71.7583 71.9008 71.7184 71.9891C71.6785 72.0774 71.6585 72.1734 71.66 72.2703C71.6615 72.3671 71.6844 72.4625 71.727 72.5495C71.7696 72.6365 71.8309 72.713 71.9066 72.7736C71.9066 72.7736 73.438 72.3212 74.8238 70.0982L82.9644 68.3796C83.4217 68.2828 83.8466 68.0701 84.1981 67.7619C84.5495 67.4536 84.8159 67.0602 84.9716 66.6194L86.5316 62.1994L82.213 60.6758Z" fill="#FFA8A7"/>
<path d="M86.6933 53.622C85.5857 53.4972 84.9149 53.544 83.8645 55.3094C82.5905 57.4492 81.3711 61.5494 81.3711 61.5494C83.8177 62.7454 86.6933 62.9404 86.6933 62.9404C87.3147 61.3752 86.6933 53.622 86.6933 53.622Z" fill="#5276F9"/>
<g opacity="0.3">
<path d="M86.6933 53.622C85.5857 53.4972 84.9149 53.544 83.8645 55.3094C82.5905 57.4492 81.3711 61.5494 81.3711 61.5494C83.8177 62.7454 86.6933 62.9404 86.6933 62.9404C87.3147 61.3752 86.6933 53.622 86.6933 53.622Z" fill="white"/>
</g>
<path d="M95.6275 55.5678C92.1461 53.935 89.5383 53.7478 86.6939 53.623C82.4351 56.3634 84.0289 58.6462 84.0939 62.307C84.1563 65.3906 84.7309 67.4472 83.3945 70.2916L91.6469 75.0496C94.0415 75.021 95.9629 74.4568 96.7429 73.9602C97.8375 63.8306 97.5177 56.3478 95.6275 55.5678Z" fill="#5276F9"/>
<path opacity="0.5" d="M95.6275 55.5678C92.1461 53.935 89.5383 53.7478 86.6939 53.623C82.4351 56.3634 84.0289 58.6462 84.0939 62.307C84.1563 65.3906 84.7309 67.4472 83.3945 70.2916L91.6469 75.0496C94.0415 75.021 95.9629 74.4568 96.7429 73.9602C97.8375 63.8306 97.5177 56.3478 95.6275 55.5678Z" fill="white"/>
<path d="M92.1833 65.0996L91.1433 69.7016L83.9803 72.6552C83.5468 72.8332 83.0773 72.9063 82.6101 72.8684L79.8515 72.6422C79.528 72.6147 79.204 72.6902 78.9259 72.858L77.3451 73.8148C77.1859 73.9114 77.0436 74.0335 76.9239 74.1762L76.1439 75.0914C76.0924 75.1526 76.0542 75.2238 76.0315 75.3006C76.0089 75.3773 76.0024 75.4579 76.0124 75.5372C76.0224 75.6166 76.0487 75.693 76.0897 75.7617C76.1307 75.8304 76.1854 75.8899 76.2505 75.9364L76.7367 76.2848C76.993 76.4688 77.2948 76.5789 77.6093 76.6032C77.9238 76.6275 78.2389 76.565 78.5203 76.4226L79.7423 75.8064L81.7469 76.1704C82.654 76.3334 83.5896 76.1792 84.3963 75.7336L84.8175 75.4996L93.5587 73.6536C94.1192 73.5353 94.634 73.2588 95.0422 72.857C95.4505 72.4552 95.7351 71.9449 95.8623 71.3864L97.0401 66.3008L92.1833 65.0996Z" fill="#FFA8A7"/>
<path d="M95.6281 55.5672C99.7881 57.1272 98.8469 60.8296 97.3077 66.6952C94.8299 67.3816 91.8945 65.2236 91.8945 65.2236C92.7083 60.58 93.0177 55.4944 95.6281 55.5672Z" fill="#5276F9"/>
<path opacity="0.3" d="M95.6281 55.5672C99.7881 57.1272 98.8469 60.8296 97.3077 66.6952C94.8299 67.3816 91.8945 65.2236 91.8945 65.2236C92.7083 60.58 93.0177 55.4944 95.6281 55.5672Z" fill="white"/>
<path d="M60.2465 64.1656L60.5689 64.0044C60.6268 63.98 60.6896 63.9694 60.7524 63.9735C60.8151 63.9776 60.876 63.9961 60.9303 64.0278L74.5101 71.924C74.7209 72.0462 74.9018 72.214 75.0394 72.415C75.1771 72.6161 75.2681 72.8454 75.3057 73.0862L76.6993 81.9652C76.7131 82.0518 76.6982 82.1406 76.6569 82.2181C76.6156 82.2955 76.5502 82.3573 76.4705 82.3942L76.1559 82.5476C76.0991 82.5697 76.0379 82.5786 75.9771 82.5736C75.9163 82.5687 75.8574 82.55 75.8049 82.519L62.2355 74.6202C62.0248 74.4978 61.8441 74.33 61.7064 74.129C61.5688 73.9279 61.4777 73.6987 61.4399 73.458L60.0437 64.579C60.0312 64.4976 60.044 64.4144 60.0803 64.3405C60.1165 64.2666 60.1745 64.2055 60.2465 64.1656Z" fill="#E0E0E0"/>
<path d="M67.6551 72.2801C67.9992 72.4954 68.296 72.7783 68.5275 73.1117C68.759 73.4451 68.9204 73.822 69.0019 74.2197C69.0903 74.9139 68.6327 75.1713 67.9749 74.7917C67.6311 74.5754 67.3345 74.2919 67.1031 73.9581C66.8717 73.6244 66.7101 73.2473 66.6281 72.8495C66.5397 72.1683 66.9999 71.9109 67.6551 72.2801Z" fill="white"/>
<path opacity="0.3" d="M76.4415 82.1004L75.0453 73.224C75.0077 72.9829 74.9167 72.7532 74.7791 72.5517C74.6415 72.3502 74.4606 72.1819 74.2497 72.0592L60.6699 64.1656C60.608 64.1292 60.5376 64.1101 60.4658 64.1101C60.3941 64.1101 60.3236 64.1292 60.2617 64.1656L60.5841 64.0044C60.6421 63.98 60.7049 63.9694 60.7676 63.9735C60.8303 63.9776 60.8912 63.9961 60.9455 64.0278L74.5253 71.924C74.7361 72.0462 74.917 72.214 75.0546 72.415C75.1923 72.6161 75.2833 72.8454 75.3209 73.0862L76.7015 81.9652C76.7153 82.0518 76.7004 82.1406 76.6591 82.2181C76.6178 82.2955 76.5524 82.3573 76.4727 82.3942L76.1581 82.5476C76.2508 82.5189 76.3302 82.4581 76.3822 82.3762C76.4341 82.2942 76.4551 82.1964 76.4415 82.1004Z" fill="black"/>
<path d="M84.2403 49.2467C83.6225 48.803 83.193 48.1443 83.0362 47.4C82.8794 46.6558 83.0065 45.8798 83.3927 45.2245C83.0464 45.0714 82.7629 44.8044 82.5893 44.4679C82.5166 44.3056 82.4943 44.1252 82.5254 43.9501C82.5565 43.775 82.6395 43.6133 82.7638 43.486C82.888 43.3587 83.0476 43.2717 83.2219 43.2363C83.3962 43.2009 83.5771 43.2187 83.7411 43.2875C83.6503 43.0243 83.65 42.7382 83.7405 42.4749C83.831 42.2115 84.0069 41.9859 84.2403 41.8341C84.4761 41.7025 84.7502 41.6564 85.016 41.7038C85.2819 41.7512 85.5231 41.8891 85.6989 42.0941C85.6947 41.9232 85.7451 41.7554 85.8429 41.6151C85.9406 41.4748 86.0805 41.3694 86.2423 41.3141C86.5786 41.2265 86.934 41.2492 87.2563 41.3791C87.5813 41.4909 87.8881 41.6391 88.2157 41.7561C88.7807 41.8964 89.36 41.9706 89.9421 41.9771C90.526 41.982 91.0992 42.134 91.6087 42.4191C92.0949 42.7363 92.5265 43.4747 92.2639 44.1091C92.3471 44.0029 92.4516 43.9154 92.5708 43.8523C92.6899 43.7891 92.821 43.7517 92.9555 43.7425C93.0885 43.739 93.2208 43.7641 93.3432 43.8161C93.4657 43.8681 93.5755 43.9459 93.6653 44.0441C93.3013 44.2703 92.9503 44.5121 92.5889 44.7357C92.9529 44.5719 93.4989 44.8293 93.6965 45.1777C93.8658 45.543 93.9332 45.9473 93.8915 46.3477C93.8419 47.8735 93.5686 49.3837 93.0803 50.8301C92.8333 51.5763 92.4745 52.3667 91.7803 52.7125L84.2403 49.2467Z" fill="#37474F"/>
<path d="M88.0887 52.8395L88.2499 54.6231C88.2569 54.7612 88.2215 54.8982 88.1485 55.0157C88.0501 55.2024 88.0123 55.4151 88.0402 55.6243C88.0682 55.8335 88.1605 56.0288 88.3045 56.1831C88.5355 56.3537 88.8155 56.445 89.1027 56.4431C89.6443 56.4725 90.1859 56.3872 90.6922 56.1928C91.1985 55.9983 91.6581 55.6991 92.0407 55.3147C92.1185 55.2336 92.1792 55.1378 92.2194 55.0328C92.2596 54.9279 92.2784 54.816 92.2747 54.7037L92.1577 50.1797L88.0887 52.8395Z" fill="#FFA8A7"/>
<path opacity="0.3" d="M91.8104 50.4141L88.0898 52.8399L88.2328 54.4207C89.096 54.2179 89.967 53.9683 90.6508 53.4119C91.0827 53.0517 91.4158 52.5875 91.6186 52.063C91.8215 51.5386 91.8875 50.9711 91.8104 50.4141Z" fill="black"/>
<path d="M84.0348 45.5709C83.7627 47.6399 83.8987 49.7422 84.4352 51.7589C84.5379 52.2039 84.7033 52.632 84.9266 53.0303C85.1513 53.4314 85.505 53.7448 85.9302 53.9195C86.4502 54.1171 87.0378 54.0209 87.589 53.9195C88.6004 53.7427 89.6352 53.5555 90.5114 53.0225C91.3876 52.4895 92.0844 51.5327 91.9986 50.5109C92.2479 50.6657 92.5322 50.7554 92.8252 50.7717C93.1182 50.7881 93.4106 50.7306 93.6756 50.6045C93.9347 50.4621 94.1545 50.2577 94.3151 50.0095C94.4758 49.7612 94.5723 49.477 94.596 49.1823C94.635 48.6103 94.3048 47.9733 93.7432 47.8615C93.5695 47.8362 93.3923 47.8484 93.2237 47.8973C93.0551 47.9462 92.8989 48.0306 92.7656 48.1449C92.5014 48.3759 92.2719 48.6438 92.0844 48.9405C91.9976 49.0843 91.8815 49.2083 91.7438 49.3045C91.6751 49.3521 91.5934 49.3777 91.5098 49.3777C91.4262 49.3777 91.3445 49.3521 91.2758 49.3045C91.2156 49.2336 91.1723 49.15 91.1494 49.0598C91.1264 48.9697 91.1243 48.8756 91.1432 48.7845L91.2004 47.4845C91.2035 47.3854 91.1783 47.2875 91.1276 47.2023C91.077 47.117 91.003 47.0481 90.9144 47.0035C90.6471 46.8577 90.4412 46.6205 90.3346 46.3353C90.2396 46.0854 90.1844 45.8223 90.1708 45.5553C90.167 45.5053 90.1515 45.4569 90.1256 45.414C90.0996 45.3711 90.0639 45.3349 90.0214 45.3084C89.9789 45.2818 89.9307 45.2656 89.8808 45.2611C89.8309 45.2565 89.7806 45.2638 89.734 45.2823C87.9946 45.9999 85.8288 46.0207 84.0348 45.5709Z" fill="#FFA8A7"/>
<path d="M86.8836 48.7109L85.7188 50.6713L87.1071 50.9313L86.8836 48.7109Z" fill="#F28F8F"/>
<path d="M88.4462 51.6074L87.3906 52.1274C87.4811 52.2474 87.6082 52.3346 87.7527 52.3759C87.8972 52.4172 88.0512 52.4103 88.1914 52.3562C88.3131 52.2794 88.4048 52.1631 88.4512 52.0269C88.4976 51.8906 88.4958 51.7426 88.4462 51.6074Z" fill="#F28F8F"/>
<path opacity="0.3" d="M88.4462 51.6074L87.3906 52.1274C87.4811 52.2474 87.6082 52.3346 87.7527 52.3759C87.8972 52.4172 88.0512 52.4103 88.1914 52.3562C88.3131 52.2794 88.4048 52.1631 88.4512 52.0269C88.4976 51.8906 88.4958 51.7426 88.4462 51.6074Z" fill="black"/>
<path d="M87.8242 52.3814C87.947 52.4072 88.0748 52.3955 88.1908 52.3476C88.2871 52.2927 88.3651 52.2106 88.415 52.1117C88.465 52.0127 88.4846 51.9013 88.4716 51.7912C88.3085 51.7874 88.1502 51.8467 88.0297 51.9566C87.9091 52.0665 87.8355 52.2186 87.8242 52.3814Z" fill="#F28F8F"/>
<path d="M88.8954 48.7884C88.9027 48.8666 88.8867 48.9451 88.8494 49.0142C88.8121 49.0833 88.7552 49.1398 88.6859 49.1767C88.6165 49.2135 88.5378 49.2289 88.4597 49.2211C88.3816 49.2133 88.3075 49.1825 88.2469 49.1327C88.1862 49.0828 88.1416 49.0162 88.1188 48.941C88.0959 48.8659 88.0958 48.7857 88.1185 48.7106C88.1411 48.6354 88.1855 48.5686 88.246 48.5186C88.3066 48.4686 88.3805 48.4376 88.4586 48.4296C88.5641 48.4194 88.6693 48.4515 88.7512 48.5187C88.8331 48.586 88.8849 48.6829 88.8954 48.7884Z" fill="#263238"/>
<path d="M85.5397 48.995C85.5475 49.0733 85.532 49.152 85.495 49.2214C85.4581 49.2908 85.4014 49.3477 85.3322 49.3849C85.2629 49.4221 85.1842 49.438 85.106 49.4305C85.0277 49.423 84.9534 49.3925 84.8925 49.3428C84.8316 49.2931 84.7867 49.2265 84.7636 49.1514C84.7405 49.0762 84.7402 48.9959 84.7628 48.9206C84.7853 48.8453 84.8296 48.7783 84.8901 48.7282C84.9507 48.678 85.0247 48.6469 85.1029 48.6388C85.155 48.6334 85.2076 48.6384 85.2578 48.6534C85.308 48.6684 85.3547 48.6931 85.3953 48.7262C85.4359 48.7593 85.4695 48.8001 85.4943 48.8462C85.5191 48.8924 85.5345 48.9429 85.5397 48.995Z" fill="#263238"/>
<path d="M85.0054 47.4555L84.1864 48.1523C84.1373 48.0472 84.1214 47.9297 84.1409 47.8154C84.1604 47.7011 84.2144 47.5955 84.2955 47.5127C84.3968 47.438 84.5169 47.3931 84.6423 47.383C84.7677 47.3729 84.8934 47.398 85.0054 47.4555Z" fill="#263238"/>
<path d="M88.3984 47.0606L89.3396 47.5806C89.367 47.4679 89.3593 47.3494 89.3175 47.2411C89.2756 47.1328 89.2017 47.0399 89.1056 46.9748C88.9915 46.9219 88.8648 46.9019 88.7398 46.917C88.6149 46.9322 88.4966 46.9819 88.3984 47.0606Z" fill="#263238"/>
</svg>
