<svg width="990" height="320" viewBox="0 0 990 320" fill="none" xmlns="http://www.w3.org/2000/svg">
<rect width="990" height="320" rx="10" fill="#F5F5F5"/>
<path d="M407.178 204V188.6H414.064C415.795 188.6 417.144 188.945 418.112 189.634C419.08 190.309 419.564 191.284 419.564 192.56C419.564 193.821 419.102 194.797 418.178 195.486C417.254 196.161 416.037 196.498 414.526 196.498L414.922 195.706C416.638 195.706 417.965 196.051 418.904 196.74C419.843 197.429 420.312 198.427 420.312 199.732C420.312 201.067 419.821 202.115 418.838 202.878C417.855 203.626 416.403 204 414.482 204H407.178ZM409.994 201.8H414.394C415.391 201.8 416.147 201.617 416.66 201.25C417.173 200.869 417.43 200.289 417.43 199.512C417.43 198.735 417.173 198.17 416.66 197.818C416.147 197.451 415.391 197.268 414.394 197.268H409.994V201.8ZM409.994 195.178H413.822C414.746 195.178 415.45 194.995 415.934 194.628C416.418 194.247 416.66 193.704 416.66 193C416.66 192.267 416.418 191.717 415.934 191.35C415.45 190.983 414.746 190.8 413.822 190.8H409.994V195.178ZM430.39 204V201.624L430.236 201.118V196.96C430.236 196.153 429.994 195.53 429.51 195.09C429.026 194.635 428.293 194.408 427.31 194.408C426.65 194.408 425.997 194.511 425.352 194.716C424.721 194.921 424.186 195.207 423.746 195.574L422.668 193.572C423.299 193.088 424.047 192.729 424.912 192.494C425.792 192.245 426.701 192.12 427.64 192.12C429.341 192.12 430.654 192.531 431.578 193.352C432.517 194.159 432.986 195.413 432.986 197.114V204H430.39ZM426.694 204.154C425.814 204.154 425.044 204.007 424.384 203.714C423.724 203.406 423.211 202.988 422.844 202.46C422.492 201.917 422.316 201.309 422.316 200.634C422.316 199.974 422.47 199.38 422.778 198.852C423.101 198.324 423.621 197.906 424.34 197.598C425.059 197.29 426.012 197.136 427.2 197.136H430.61V198.962H427.398C426.459 198.962 425.829 199.116 425.506 199.424C425.183 199.717 425.022 200.084 425.022 200.524C425.022 201.023 425.22 201.419 425.616 201.712C426.012 202.005 426.562 202.152 427.266 202.152C427.941 202.152 428.542 201.998 429.07 201.69C429.613 201.382 430.001 200.927 430.236 200.326L430.698 201.976C430.434 202.665 429.957 203.201 429.268 203.582C428.593 203.963 427.735 204.154 426.694 204.154ZM444.815 204L440.569 198.368L442.813 196.982L448.049 204H444.815ZM436.389 204V192.252H439.139V204H436.389ZM438.325 199.292V197.004H442.307V199.292H438.325ZM443.077 198.456L440.503 198.148L444.815 192.252H447.763L443.077 198.456ZM456.902 204V201.624L456.748 201.118V196.96C456.748 196.153 456.506 195.53 456.022 195.09C455.538 194.635 454.804 194.408 453.822 194.408C453.162 194.408 452.509 194.511 451.864 194.716C451.233 194.921 450.698 195.207 450.258 195.574L449.18 193.572C449.81 193.088 450.558 192.729 451.424 192.494C452.304 192.245 453.213 192.12 454.152 192.12C455.853 192.12 457.166 192.531 458.09 193.352C459.028 194.159 459.498 195.413 459.498 197.114V204H456.902ZM453.206 204.154C452.326 204.154 451.556 204.007 450.896 203.714C450.236 203.406 449.722 202.988 449.356 202.46C449.004 201.917 448.828 201.309 448.828 200.634C448.828 199.974 448.982 199.38 449.29 198.852C449.612 198.324 450.133 197.906 450.852 197.598C451.57 197.29 452.524 197.136 453.712 197.136H457.122V198.962H453.91C452.971 198.962 452.34 199.116 452.018 199.424C451.695 199.717 451.534 200.084 451.534 200.524C451.534 201.023 451.732 201.419 452.128 201.712C452.524 202.005 453.074 202.152 453.778 202.152C454.452 202.152 455.054 201.998 455.582 201.69C456.124 201.382 456.513 200.927 456.748 200.326L457.21 201.976C456.946 202.665 456.469 203.201 455.78 203.582C455.105 203.963 454.247 204.154 453.206 204.154ZM462.901 204V192.252H465.651V197.026H471.569V192.252H474.319V204H471.569V199.358H465.651V204H462.901ZM483.35 204.154C482.118 204.154 481.018 203.897 480.05 203.384C479.097 202.856 478.349 202.137 477.806 201.228C477.264 200.319 476.992 199.285 476.992 198.126C476.992 196.953 477.264 195.919 477.806 195.024C478.349 194.115 479.097 193.403 480.05 192.89C481.018 192.377 482.118 192.12 483.35 192.12C484.494 192.12 485.499 192.355 486.364 192.824C487.244 193.279 487.912 193.953 488.366 194.848L486.254 196.08C485.902 195.523 485.47 195.112 484.956 194.848C484.458 194.584 483.915 194.452 483.328 194.452C482.654 194.452 482.045 194.599 481.502 194.892C480.96 195.185 480.534 195.611 480.226 196.168C479.918 196.711 479.764 197.363 479.764 198.126C479.764 198.889 479.918 199.549 480.226 200.106C480.534 200.649 480.96 201.067 481.502 201.36C482.045 201.653 482.654 201.8 483.328 201.8C483.915 201.8 484.458 201.668 484.956 201.404C485.47 201.14 485.902 200.729 486.254 200.172L488.366 201.404C487.912 202.284 487.244 202.966 486.364 203.45C485.499 203.919 484.494 204.154 483.35 204.154ZM490.787 204V192.252H493.537V199.996L500.027 192.252H502.535V204H499.785V196.256L493.317 204H490.787ZM506.235 204V192.252H508.985V199.996L515.475 192.252H517.983V204H515.233V196.256L508.765 204H506.235ZM511.933 190.866C510.759 190.866 509.857 190.595 509.227 190.052C508.596 189.495 508.273 188.688 508.259 187.632H510.085C510.099 188.16 510.261 188.578 510.569 188.886C510.891 189.194 511.339 189.348 511.911 189.348C512.468 189.348 512.908 189.194 513.231 188.886C513.568 188.578 513.744 188.16 513.759 187.632H515.629C515.614 188.688 515.284 189.495 514.639 190.052C514.008 190.595 513.106 190.866 511.933 190.866ZM527.762 204V192.252H539.026V204H536.298V193.946L536.936 194.584H529.874L530.512 193.946V204H527.762ZM547.973 204.154C546.77 204.154 545.699 203.897 544.761 203.384C543.822 202.856 543.081 202.137 542.539 201.228C541.996 200.319 541.725 199.285 541.725 198.126C541.725 196.953 541.996 195.919 542.539 195.024C543.081 194.115 543.822 193.403 544.761 192.89C545.699 192.377 546.77 192.12 547.973 192.12C549.19 192.12 550.268 192.377 551.207 192.89C552.16 193.403 552.901 194.107 553.429 195.002C553.971 195.897 554.243 196.938 554.243 198.126C554.243 199.285 553.971 200.319 553.429 201.228C552.901 202.137 552.16 202.856 551.207 203.384C550.268 203.897 549.19 204.154 547.973 204.154ZM547.973 201.8C548.647 201.8 549.249 201.653 549.777 201.36C550.305 201.067 550.715 200.641 551.009 200.084C551.317 199.527 551.471 198.874 551.471 198.126C551.471 197.363 551.317 196.711 551.009 196.168C550.715 195.611 550.305 195.185 549.777 194.892C549.249 194.599 548.655 194.452 547.995 194.452C547.32 194.452 546.719 194.599 546.191 194.892C545.677 195.185 545.267 195.611 544.959 196.168C544.651 196.711 544.497 197.363 544.497 198.126C544.497 198.874 544.651 199.527 544.959 200.084C545.267 200.641 545.677 201.067 546.191 201.36C546.719 201.653 547.313 201.8 547.973 201.8ZM565.385 204L561.139 198.368L563.383 196.982L568.619 204H565.385ZM556.959 204V192.252H559.709V204H556.959ZM558.895 199.292V197.004H562.877V199.292H558.895ZM563.647 198.456L561.073 198.148L565.385 192.252H568.333L563.647 198.456ZM577.472 204V201.624L577.318 201.118V196.96C577.318 196.153 577.076 195.53 576.592 195.09C576.108 194.635 575.375 194.408 574.392 194.408C573.732 194.408 573.079 194.511 572.434 194.716C571.803 194.921 571.268 195.207 570.828 195.574L569.75 193.572C570.381 193.088 571.129 192.729 571.994 192.494C572.874 192.245 573.783 192.12 574.722 192.12C576.423 192.12 577.736 192.531 578.66 193.352C579.599 194.159 580.068 195.413 580.068 197.114V204H577.472ZM573.776 204.154C572.896 204.154 572.126 204.007 571.466 203.714C570.806 203.406 570.293 202.988 569.926 202.46C569.574 201.917 569.398 201.309 569.398 200.634C569.398 199.974 569.552 199.38 569.86 198.852C570.183 198.324 570.703 197.906 571.422 197.598C572.141 197.29 573.094 197.136 574.282 197.136H577.692V198.962H574.48C573.541 198.962 572.911 199.116 572.588 199.424C572.265 199.717 572.104 200.084 572.104 200.524C572.104 201.023 572.302 201.419 572.698 201.712C573.094 202.005 573.644 202.152 574.348 202.152C575.023 202.152 575.624 201.998 576.152 201.69C576.695 201.382 577.083 200.927 577.318 200.326L577.78 201.976C577.516 202.665 577.039 203.201 576.35 203.582C575.675 203.963 574.817 204.154 573.776 204.154ZM589.551 204V192.252H592.301V197.026H598.219V192.252H600.969V204H598.219V199.358H592.301V204H589.551ZM610.133 204.154C608.827 204.154 607.683 203.897 606.701 203.384C605.733 202.856 604.977 202.137 604.435 201.228C603.907 200.319 603.643 199.285 603.643 198.126C603.643 196.953 603.899 195.919 604.413 195.024C604.941 194.115 605.659 193.403 606.569 192.89C607.493 192.377 608.541 192.12 609.715 192.12C610.859 192.12 611.878 192.369 612.773 192.868C613.667 193.367 614.371 194.071 614.885 194.98C615.398 195.889 615.655 196.96 615.655 198.192C615.655 198.309 615.647 198.441 615.633 198.588C615.633 198.735 615.625 198.874 615.611 199.006H605.821V197.18H614.159L613.081 197.752C613.095 197.077 612.956 196.483 612.663 195.97C612.369 195.457 611.966 195.053 611.453 194.76C610.954 194.467 610.375 194.32 609.715 194.32C609.04 194.32 608.446 194.467 607.933 194.76C607.434 195.053 607.038 195.464 606.745 195.992C606.466 196.505 606.327 197.114 606.327 197.818V198.258C606.327 198.962 606.488 199.585 606.811 200.128C607.133 200.671 607.588 201.089 608.175 201.382C608.761 201.675 609.436 201.822 610.199 201.822C610.859 201.822 611.453 201.719 611.981 201.514C612.509 201.309 612.978 200.986 613.389 200.546L614.863 202.24C614.335 202.856 613.667 203.333 612.861 203.67C612.069 203.993 611.159 204.154 610.133 204.154ZM620.653 204V193.924L621.291 194.584H616.517V192.252H627.517V194.584H622.765L623.403 193.924V204H620.653Z" fill="#686868"/>
<path fill-rule="evenodd" clip-rule="evenodd" d="M472.75 170.875V144.75H477.5V168.5H534.5V135.25H506V130.5H534.5V121H506V116.25H536.875L539.25 118.625V170.875L536.875 173.25H475.125L472.75 170.875Z" fill="#686868"/>
<path d="M498.667 127H477.333" stroke="#686868" stroke-width="2" stroke-linecap="round"/>
</svg>
