<svg width="990" height="320" viewBox="0 0 990 320" fill="none" xmlns="http://www.w3.org/2000/svg">
<rect width="990" height="320" rx="10" fill="#F5F5F5"/>
<path d="M405.638 202.482L406.562 200.392C407.222 200.847 407.941 201.199 408.718 201.448C409.51 201.683 410.295 201.807 411.072 201.822C411.849 201.837 412.553 201.749 413.184 201.558C413.829 201.367 414.343 201.081 414.724 200.7C415.105 200.319 415.296 199.842 415.296 199.27C415.296 198.581 415.01 198.067 414.438 197.73C413.881 197.378 413.118 197.202 412.15 197.202H408.564V194.958H411.93C412.795 194.958 413.463 194.782 413.932 194.43C414.416 194.078 414.658 193.601 414.658 193C414.658 192.501 414.497 192.091 414.174 191.768C413.866 191.445 413.441 191.203 412.898 191.042C412.37 190.881 411.769 190.807 411.094 190.822C410.434 190.822 409.745 190.925 409.026 191.13C408.307 191.321 407.625 191.607 406.98 191.988L406.078 189.678C407.046 189.165 408.058 188.805 409.114 188.6C410.185 188.395 411.219 188.336 412.216 188.424C413.213 188.512 414.108 188.739 414.9 189.106C415.707 189.473 416.352 189.957 416.836 190.558C417.32 191.145 417.562 191.841 417.562 192.648C417.562 193.381 417.364 194.034 416.968 194.606C416.587 195.163 416.059 195.596 415.384 195.904C414.709 196.212 413.925 196.366 413.03 196.366L413.14 195.662C414.152 195.662 415.032 195.838 415.78 196.19C416.543 196.527 417.129 196.997 417.54 197.598C417.965 198.199 418.178 198.896 418.178 199.688C418.178 200.436 417.987 201.103 417.606 201.69C417.225 202.262 416.704 202.746 416.044 203.142C415.384 203.523 414.629 203.809 413.778 204C412.927 204.176 412.033 204.242 411.094 204.198C410.155 204.154 409.217 203.993 408.278 203.714C407.354 203.435 406.474 203.025 405.638 202.482ZM428.263 204V201.624L428.109 201.118V196.96C428.109 196.153 427.867 195.53 427.383 195.09C426.899 194.635 426.166 194.408 425.183 194.408C424.523 194.408 423.87 194.511 423.225 194.716C422.594 194.921 422.059 195.207 421.619 195.574L420.541 193.572C421.172 193.088 421.92 192.729 422.785 192.494C423.665 192.245 424.574 192.12 425.513 192.12C427.214 192.12 428.527 192.531 429.451 193.352C430.39 194.159 430.859 195.413 430.859 197.114V204H428.263ZM424.567 204.154C423.687 204.154 422.917 204.007 422.257 203.714C421.597 203.406 421.084 202.988 420.717 202.46C420.365 201.917 420.189 201.309 420.189 200.634C420.189 199.974 420.343 199.38 420.651 198.852C420.974 198.324 421.494 197.906 422.213 197.598C422.932 197.29 423.885 197.136 425.073 197.136H428.483V198.962H425.271C424.332 198.962 423.702 199.116 423.379 199.424C423.056 199.717 422.895 200.084 422.895 200.524C422.895 201.023 423.093 201.419 423.489 201.712C423.885 202.005 424.435 202.152 425.139 202.152C425.814 202.152 426.415 201.998 426.943 201.69C427.486 201.382 427.874 200.927 428.109 200.326L428.571 201.976C428.307 202.665 427.83 203.201 427.141 203.582C426.466 203.963 425.608 204.154 424.567 204.154ZM442.688 204L438.442 198.368L440.686 196.982L445.922 204H442.688ZM434.262 204V192.252H437.012V204H434.262ZM436.198 199.292V197.004H440.18V199.292H436.198ZM440.95 198.456L438.376 198.148L442.688 192.252H445.636L440.95 198.456ZM454.775 204V201.624L454.621 201.118V196.96C454.621 196.153 454.379 195.53 453.895 195.09C453.411 194.635 452.677 194.408 451.695 194.408C451.035 194.408 450.382 194.511 449.737 194.716C449.106 194.921 448.571 195.207 448.131 195.574L447.053 193.572C447.683 193.088 448.431 192.729 449.297 192.494C450.177 192.245 451.086 192.12 452.025 192.12C453.726 192.12 455.039 192.531 455.963 193.352C456.901 194.159 457.371 195.413 457.371 197.114V204H454.775ZM451.079 204.154C450.199 204.154 449.429 204.007 448.769 203.714C448.109 203.406 447.595 202.988 447.229 202.46C446.877 201.917 446.701 201.309 446.701 200.634C446.701 199.974 446.855 199.38 447.163 198.852C447.485 198.324 448.006 197.906 448.725 197.598C449.443 197.29 450.397 197.136 451.585 197.136H454.995V198.962H451.783C450.844 198.962 450.213 199.116 449.891 199.424C449.568 199.717 449.407 200.084 449.407 200.524C449.407 201.023 449.605 201.419 450.001 201.712C450.397 202.005 450.947 202.152 451.651 202.152C452.325 202.152 452.927 201.998 453.455 201.69C453.997 201.382 454.386 200.927 454.621 200.326L455.083 201.976C454.819 202.665 454.342 203.201 453.653 203.582C452.978 203.963 452.12 204.154 451.079 204.154ZM464.341 204.198C465.427 204.198 466.387 204.044 467.223 203.736C468.074 203.428 468.741 203.003 469.225 202.46C469.709 201.903 469.951 201.265 469.951 200.546C469.951 199.651 469.577 198.947 468.829 198.434C468.081 197.906 467.055 197.642 465.749 197.642L465.661 198.236C466.424 198.236 467.099 198.111 467.685 197.862C468.287 197.613 468.756 197.268 469.093 196.828C469.445 196.373 469.621 195.867 469.621 195.31C469.621 194.635 469.379 194.049 468.895 193.55C468.411 193.051 467.751 192.67 466.915 192.406C466.079 192.142 465.126 192.032 464.055 192.076C463.351 192.091 462.64 192.193 461.921 192.384C461.217 192.56 460.491 192.817 459.743 193.154L460.447 195.178C461.093 194.899 461.723 194.687 462.339 194.54C462.97 194.393 463.579 194.32 464.165 194.32C464.723 194.32 465.199 194.379 465.595 194.496C465.991 194.599 466.292 194.76 466.497 194.98C466.717 195.185 466.827 195.427 466.827 195.706C466.827 195.985 466.739 196.227 466.563 196.432C466.387 196.637 466.131 196.791 465.793 196.894C465.471 196.997 465.075 197.048 464.605 197.048H462.559V198.896H464.825C465.573 198.896 466.145 199.021 466.541 199.27C466.952 199.505 467.157 199.857 467.157 200.326C467.157 200.649 467.033 200.935 466.783 201.184C466.549 201.433 466.211 201.624 465.771 201.756C465.331 201.873 464.803 201.932 464.187 201.932C463.469 201.932 462.75 201.844 462.031 201.668C461.313 201.492 460.667 201.243 460.095 200.92L459.325 202.966C460.029 203.362 460.814 203.67 461.679 203.89C462.559 204.095 463.447 204.198 464.341 204.198ZM478.02 204.154C476.817 204.154 475.746 203.897 474.808 203.384C473.869 202.856 473.128 202.137 472.586 201.228C472.043 200.319 471.772 199.285 471.772 198.126C471.772 196.953 472.043 195.919 472.586 195.024C473.128 194.115 473.869 193.403 474.808 192.89C475.746 192.377 476.817 192.12 478.02 192.12C479.237 192.12 480.315 192.377 481.254 192.89C482.207 193.403 482.948 194.107 483.476 195.002C484.018 195.897 484.29 196.938 484.29 198.126C484.29 199.285 484.018 200.319 483.476 201.228C482.948 202.137 482.207 202.856 481.254 203.384C480.315 203.897 479.237 204.154 478.02 204.154ZM478.02 201.8C478.694 201.8 479.296 201.653 479.824 201.36C480.352 201.067 480.762 200.641 481.056 200.084C481.364 199.527 481.518 198.874 481.518 198.126C481.518 197.363 481.364 196.711 481.056 196.168C480.762 195.611 480.352 195.185 479.824 194.892C479.296 194.599 478.702 194.452 478.042 194.452C477.367 194.452 476.766 194.599 476.238 194.892C475.724 195.185 475.314 195.611 475.006 196.168C474.698 196.711 474.544 197.363 474.544 198.126C474.544 198.874 474.698 199.527 475.006 200.084C475.314 200.641 475.724 201.067 476.238 201.36C476.766 201.653 477.36 201.8 478.02 201.8ZM487.006 204V192.252H492.748C494.171 192.252 495.286 192.516 496.092 193.044C496.914 193.572 497.324 194.32 497.324 195.288C497.324 196.241 496.943 196.989 496.18 197.532C495.418 198.06 494.406 198.324 493.144 198.324L493.474 197.642C494.897 197.642 495.953 197.906 496.642 198.434C497.346 198.947 497.698 199.703 497.698 200.7C497.698 201.741 497.31 202.555 496.532 203.142C495.755 203.714 494.574 204 492.99 204H487.006ZM489.624 201.998H492.77C493.518 201.998 494.083 201.881 494.464 201.646C494.846 201.397 495.036 201.023 495.036 200.524C495.036 199.996 494.86 199.607 494.508 199.358C494.156 199.109 493.606 198.984 492.858 198.984H489.624V201.998ZM489.624 197.158H492.506C493.21 197.158 493.738 197.033 494.09 196.784C494.457 196.52 494.64 196.153 494.64 195.684C494.64 195.2 494.457 194.841 494.09 194.606C493.738 194.371 493.21 194.254 492.506 194.254H489.624V197.158ZM506.707 204V192.252H517.971V204H515.243V193.946L515.881 194.584H508.819L509.457 193.946V204H506.707ZM526.918 204.154C525.715 204.154 524.645 203.897 523.706 203.384C522.767 202.856 522.027 202.137 521.484 201.228C520.941 200.319 520.67 199.285 520.67 198.126C520.67 196.953 520.941 195.919 521.484 195.024C522.027 194.115 522.767 193.403 523.706 192.89C524.645 192.377 525.715 192.12 526.918 192.12C528.135 192.12 529.213 192.377 530.152 192.89C531.105 193.403 531.846 194.107 532.374 195.002C532.917 195.897 533.188 196.938 533.188 198.126C533.188 199.285 532.917 200.319 532.374 201.228C531.846 202.137 531.105 202.856 530.152 203.384C529.213 203.897 528.135 204.154 526.918 204.154ZM526.918 201.8C527.593 201.8 528.194 201.653 528.722 201.36C529.25 201.067 529.661 200.641 529.954 200.084C530.262 199.527 530.416 198.874 530.416 198.126C530.416 197.363 530.262 196.711 529.954 196.168C529.661 195.611 529.25 195.185 528.722 194.892C528.194 194.599 527.6 194.452 526.94 194.452C526.265 194.452 525.664 194.599 525.136 194.892C524.623 195.185 524.212 195.611 523.904 196.168C523.596 196.711 523.442 197.363 523.442 198.126C523.442 198.874 523.596 199.527 523.904 200.084C524.212 200.641 524.623 201.067 525.136 201.36C525.664 201.653 526.258 201.8 526.918 201.8ZM544.331 204L540.085 198.368L542.329 196.982L547.565 204H544.331ZM535.905 204V192.252H538.655V204H535.905ZM537.841 199.292V197.004H541.823V199.292H537.841ZM542.593 198.456L540.019 198.148L544.331 192.252H547.279L542.593 198.456ZM556.417 204V201.624L556.263 201.118V196.96C556.263 196.153 556.021 195.53 555.537 195.09C555.053 194.635 554.32 194.408 553.337 194.408C552.677 194.408 552.025 194.511 551.379 194.716C550.749 194.921 550.213 195.207 549.773 195.574L548.695 193.572C549.326 193.088 550.074 192.729 550.939 192.494C551.819 192.245 552.729 192.12 553.667 192.12C555.369 192.12 556.681 192.531 557.605 193.352C558.544 194.159 559.013 195.413 559.013 197.114V204H556.417ZM552.721 204.154C551.841 204.154 551.071 204.007 550.411 203.714C549.751 203.406 549.238 202.988 548.871 202.46C548.519 201.917 548.343 201.309 548.343 200.634C548.343 199.974 548.497 199.38 548.805 198.852C549.128 198.324 549.649 197.906 550.367 197.598C551.086 197.29 552.039 197.136 553.227 197.136H556.637V198.962H553.425C552.487 198.962 551.856 199.116 551.533 199.424C551.211 199.717 551.049 200.084 551.049 200.524C551.049 201.023 551.247 201.419 551.643 201.712C552.039 202.005 552.589 202.152 553.293 202.152C553.968 202.152 554.569 201.998 555.097 201.69C555.64 201.382 556.029 200.927 556.263 200.326L556.725 201.976C556.461 202.665 555.985 203.201 555.295 203.582C554.621 203.963 553.763 204.154 552.721 204.154ZM568.496 204V192.252H571.246V197.026H577.164V192.252H579.914V204H577.164V199.358H571.246V204H568.496ZM589.078 204.154C587.773 204.154 586.629 203.897 585.646 203.384C584.678 202.856 583.923 202.137 583.38 201.228C582.852 200.319 582.588 199.285 582.588 198.126C582.588 196.953 582.845 195.919 583.358 195.024C583.886 194.115 584.605 193.403 585.514 192.89C586.438 192.377 587.487 192.12 588.66 192.12C589.804 192.12 590.823 192.369 591.718 192.868C592.613 193.367 593.317 194.071 593.83 194.98C594.343 195.889 594.6 196.96 594.6 198.192C594.6 198.309 594.593 198.441 594.578 198.588C594.578 198.735 594.571 198.874 594.556 199.006H584.766V197.18H593.104L592.026 197.752C592.041 197.077 591.901 196.483 591.608 195.97C591.315 195.457 590.911 195.053 590.398 194.76C589.899 194.467 589.32 194.32 588.66 194.32C587.985 194.32 587.391 194.467 586.878 194.76C586.379 195.053 585.983 195.464 585.69 195.992C585.411 196.505 585.272 197.114 585.272 197.818V198.258C585.272 198.962 585.433 199.585 585.756 200.128C586.079 200.671 586.533 201.089 587.12 201.382C587.707 201.675 588.381 201.822 589.144 201.822C589.804 201.822 590.398 201.719 590.926 201.514C591.454 201.309 591.923 200.986 592.334 200.546L593.808 202.24C593.28 202.856 592.613 203.333 591.806 203.67C591.014 203.993 590.105 204.154 589.078 204.154ZM599.599 204V193.924L600.237 194.584H595.463V192.252H606.463V194.584H601.711L602.349 193.924V204H599.599Z" fill="#686868"/>
<path d="M552.743 128.349L545.555 94.2507C544.167 86.8116 538.822 82.3711 531.257 82.3711H473.757C469.983 82.3711 466.794 83.4245 464.301 85.5021C461.808 87.5798 460.175 90.5132 459.454 94.2372L452.266 128.349C452.218 128.593 452.194 128.841 452.194 129.09V154.246C452.194 158.059 453.709 161.715 456.405 164.411C459.101 167.107 462.757 168.621 466.569 168.621H538.444C542.257 168.621 545.913 167.107 548.609 164.411C551.305 161.715 552.819 158.059 552.819 154.246V129.09C552.819 128.841 552.793 128.593 552.743 128.349ZM466.493 95.6904C466.493 95.668 466.493 95.6478 466.493 95.6275C467.29 91.488 469.595 89.5631 473.746 89.5631H531.257C535.437 89.5631 537.741 91.4835 538.505 95.6073C538.505 95.6365 538.516 95.6657 538.521 95.6949L544.569 124.418C544.597 124.549 544.595 124.684 544.563 124.814C544.532 124.944 544.471 125.065 544.387 125.169C544.303 125.273 544.196 125.356 544.076 125.414C543.955 125.471 543.823 125.501 543.689 125.501H516.882C515.934 125.496 515.024 125.867 514.35 126.534C513.676 127.2 513.294 128.106 513.288 129.054C513.288 131.913 512.152 134.656 510.13 136.677C508.108 138.699 505.366 139.835 502.507 139.835C499.647 139.835 496.905 138.699 494.883 136.677C492.861 134.656 491.726 131.913 491.726 129.054C491.723 128.584 491.628 128.12 491.447 127.687C491.265 127.254 490.999 126.861 490.666 126.531C490.332 126.2 489.936 125.939 489.502 125.761C489.067 125.584 488.601 125.494 488.132 125.496H461.325C461.191 125.496 461.059 125.467 460.938 125.409C460.817 125.352 460.711 125.268 460.627 125.165C460.542 125.061 460.482 124.94 460.451 124.81C460.419 124.68 460.417 124.544 460.444 124.413L466.493 95.6904Z" fill="#4E4E4E"/>
</svg>
