<svg width="990" height="320" viewBox="0 0 990 320" fill="none" xmlns="http://www.w3.org/2000/svg">
<rect width="990" height="320" rx="10" fill="#F5F5F5"/>
<path d="M405.638 202.482L406.562 200.392C407.222 200.847 407.941 201.199 408.718 201.448C409.51 201.683 410.295 201.807 411.072 201.822C411.849 201.837 412.553 201.749 413.184 201.558C413.829 201.367 414.343 201.081 414.724 200.7C415.105 200.319 415.296 199.842 415.296 199.27C415.296 198.581 415.01 198.067 414.438 197.73C413.881 197.378 413.118 197.202 412.15 197.202H408.564V194.958H411.93C412.795 194.958 413.463 194.782 413.932 194.43C414.416 194.078 414.658 193.601 414.658 193C414.658 192.501 414.497 192.091 414.174 191.768C413.866 191.445 413.441 191.203 412.898 191.042C412.37 190.881 411.769 190.807 411.094 190.822C410.434 190.822 409.745 190.925 409.026 191.13C408.307 191.321 407.625 191.607 406.98 191.988L406.078 189.678C407.046 189.165 408.058 188.805 409.114 188.6C410.185 188.395 411.219 188.336 412.216 188.424C413.213 188.512 414.108 188.739 414.9 189.106C415.707 189.473 416.352 189.957 416.836 190.558C417.32 191.145 417.562 191.841 417.562 192.648C417.562 193.381 417.364 194.034 416.968 194.606C416.587 195.163 416.059 195.596 415.384 195.904C414.709 196.212 413.925 196.366 413.03 196.366L413.14 195.662C414.152 195.662 415.032 195.838 415.78 196.19C416.543 196.527 417.129 196.997 417.54 197.598C417.965 198.199 418.178 198.896 418.178 199.688C418.178 200.436 417.987 201.103 417.606 201.69C417.225 202.262 416.704 202.746 416.044 203.142C415.384 203.523 414.629 203.809 413.778 204C412.927 204.176 412.033 204.242 411.094 204.198C410.155 204.154 409.217 203.993 408.278 203.714C407.354 203.435 406.474 203.025 405.638 202.482ZM428.263 204V201.624L428.109 201.118V196.96C428.109 196.153 427.867 195.53 427.383 195.09C426.899 194.635 426.166 194.408 425.183 194.408C424.523 194.408 423.87 194.511 423.225 194.716C422.594 194.921 422.059 195.207 421.619 195.574L420.541 193.572C421.172 193.088 421.92 192.729 422.785 192.494C423.665 192.245 424.574 192.12 425.513 192.12C427.214 192.12 428.527 192.531 429.451 193.352C430.39 194.159 430.859 195.413 430.859 197.114V204H428.263ZM424.567 204.154C423.687 204.154 422.917 204.007 422.257 203.714C421.597 203.406 421.084 202.988 420.717 202.46C420.365 201.917 420.189 201.309 420.189 200.634C420.189 199.974 420.343 199.38 420.651 198.852C420.974 198.324 421.494 197.906 422.213 197.598C422.932 197.29 423.885 197.136 425.073 197.136H428.483V198.962H425.271C424.332 198.962 423.702 199.116 423.379 199.424C423.056 199.717 422.895 200.084 422.895 200.524C422.895 201.023 423.093 201.419 423.489 201.712C423.885 202.005 424.435 202.152 425.139 202.152C425.814 202.152 426.415 201.998 426.943 201.69C427.486 201.382 427.874 200.927 428.109 200.326L428.571 201.976C428.307 202.665 427.83 203.201 427.141 203.582C426.466 203.963 425.608 204.154 424.567 204.154ZM442.314 202.724V194.584H437.804L437.738 196.476C437.709 197.151 437.665 197.803 437.606 198.434C437.547 199.05 437.452 199.622 437.32 200.15C437.188 200.663 436.997 201.089 436.748 201.426C436.499 201.763 436.169 201.983 435.758 202.086L433.03 201.668C433.47 201.668 433.822 201.529 434.086 201.25C434.365 200.957 434.577 200.561 434.724 200.062C434.885 199.549 435.003 198.969 435.076 198.324C435.149 197.664 435.201 196.982 435.23 196.278L435.384 192.252H445.064V202.724H442.314ZM432.612 206.618V201.668H446.802V206.618H444.228V204H435.164V206.618H432.612ZM456.386 204V201.624L456.232 201.118V196.96C456.232 196.153 455.99 195.53 455.506 195.09C455.022 194.635 454.289 194.408 453.306 194.408C452.646 194.408 451.993 194.511 451.348 194.716C450.717 194.921 450.182 195.207 449.742 195.574L448.664 193.572C449.295 193.088 450.043 192.729 450.908 192.494C451.788 192.245 452.697 192.12 453.636 192.12C455.337 192.12 456.65 192.531 457.574 193.352C458.513 194.159 458.982 195.413 458.982 197.114V204H456.386ZM452.69 204.154C451.81 204.154 451.04 204.007 450.38 203.714C449.72 203.406 449.207 202.988 448.84 202.46C448.488 201.917 448.312 201.309 448.312 200.634C448.312 199.974 448.466 199.38 448.774 198.852C449.097 198.324 449.617 197.906 450.336 197.598C451.055 197.29 452.008 197.136 453.196 197.136H456.606V198.962H453.394C452.455 198.962 451.825 199.116 451.502 199.424C451.179 199.717 451.018 200.084 451.018 200.524C451.018 201.023 451.216 201.419 451.612 201.712C452.008 202.005 452.558 202.152 453.262 202.152C453.937 202.152 454.538 201.998 455.066 201.69C455.609 201.382 455.997 200.927 456.232 200.326L456.694 201.976C456.43 202.665 455.953 203.201 455.264 203.582C454.589 203.963 453.731 204.154 452.69 204.154ZM462.385 204V192.252H465.135V197.026H471.053V192.252H473.803V204H471.053V199.358H465.135V204H462.385ZM477.489 204V192.252H480.239V199.996L486.729 192.252H489.237V204H486.487V196.256L480.019 204H477.489ZM492.936 204V192.252H495.686V199.996L502.176 192.252H504.684V204H501.934V196.256L495.466 204H492.936ZM498.634 190.866C497.461 190.866 496.559 190.595 495.928 190.052C495.297 189.495 494.975 188.688 494.96 187.632H496.786C496.801 188.16 496.962 188.578 497.27 188.886C497.593 189.194 498.04 189.348 498.612 189.348C499.169 189.348 499.609 189.194 499.932 188.886C500.269 188.578 500.445 188.16 500.46 187.632H502.33C502.315 188.688 501.985 189.495 501.34 190.052C500.709 190.595 499.807 190.866 498.634 190.866ZM514.463 204V192.252H525.727V204H522.999V193.946L523.637 194.584H516.575L517.213 193.946V204H514.463ZM534.674 204.154C533.471 204.154 532.401 203.897 531.462 203.384C530.523 202.856 529.783 202.137 529.24 201.228C528.697 200.319 528.426 199.285 528.426 198.126C528.426 196.953 528.697 195.919 529.24 195.024C529.783 194.115 530.523 193.403 531.462 192.89C532.401 192.377 533.471 192.12 534.674 192.12C535.891 192.12 536.969 192.377 537.908 192.89C538.861 193.403 539.602 194.107 540.13 195.002C540.673 195.897 540.944 196.938 540.944 198.126C540.944 199.285 540.673 200.319 540.13 201.228C539.602 202.137 538.861 202.856 537.908 203.384C536.969 203.897 535.891 204.154 534.674 204.154ZM534.674 201.8C535.349 201.8 535.95 201.653 536.478 201.36C537.006 201.067 537.417 200.641 537.71 200.084C538.018 199.527 538.172 198.874 538.172 198.126C538.172 197.363 538.018 196.711 537.71 196.168C537.417 195.611 537.006 195.185 536.478 194.892C535.95 194.599 535.356 194.452 534.696 194.452C534.021 194.452 533.42 194.599 532.892 194.892C532.379 195.185 531.968 195.611 531.66 196.168C531.352 196.711 531.198 197.363 531.198 198.126C531.198 198.874 531.352 199.527 531.66 200.084C531.968 200.641 532.379 201.067 532.892 201.36C533.42 201.653 534.014 201.8 534.674 201.8ZM552.087 204L547.841 198.368L550.085 196.982L555.321 204H552.087ZM543.661 204V192.252H546.411V204H543.661ZM545.597 199.292V197.004H549.579V199.292H545.597ZM550.349 198.456L547.775 198.148L552.087 192.252H555.035L550.349 198.456ZM564.173 204V201.624L564.019 201.118V196.96C564.019 196.153 563.777 195.53 563.293 195.09C562.809 194.635 562.076 194.408 561.093 194.408C560.433 194.408 559.781 194.511 559.135 194.716C558.505 194.921 557.969 195.207 557.529 195.574L556.451 193.572C557.082 193.088 557.83 192.729 558.695 192.494C559.575 192.245 560.485 192.12 561.423 192.12C563.125 192.12 564.437 192.531 565.361 193.352C566.3 194.159 566.769 195.413 566.769 197.114V204H564.173ZM560.477 204.154C559.597 204.154 558.827 204.007 558.167 203.714C557.507 203.406 556.994 202.988 556.627 202.46C556.275 201.917 556.099 201.309 556.099 200.634C556.099 199.974 556.253 199.38 556.561 198.852C556.884 198.324 557.405 197.906 558.123 197.598C558.842 197.29 559.795 197.136 560.983 197.136H564.393V198.962H561.181C560.243 198.962 559.612 199.116 559.289 199.424C558.967 199.717 558.805 200.084 558.805 200.524C558.805 201.023 559.003 201.419 559.399 201.712C559.795 202.005 560.345 202.152 561.049 202.152C561.724 202.152 562.325 201.998 562.853 201.69C563.396 201.382 563.785 200.927 564.019 200.326L564.481 201.976C564.217 202.665 563.741 203.201 563.051 203.582C562.377 203.963 561.519 204.154 560.477 204.154ZM576.252 204V192.252H579.002V197.026H584.92V192.252H587.67V204H584.92V199.358H579.002V204H576.252ZM596.834 204.154C595.528 204.154 594.384 203.897 593.402 203.384C592.434 202.856 591.678 202.137 591.136 201.228C590.608 200.319 590.344 199.285 590.344 198.126C590.344 196.953 590.6 195.919 591.114 195.024C591.642 194.115 592.36 193.403 593.27 192.89C594.194 192.377 595.242 192.12 596.416 192.12C597.56 192.12 598.579 192.369 599.474 192.868C600.368 193.367 601.072 194.071 601.586 194.98C602.099 195.889 602.356 196.96 602.356 198.192C602.356 198.309 602.348 198.441 602.334 198.588C602.334 198.735 602.326 198.874 602.312 199.006H592.522V197.18H600.86L599.782 197.752C599.796 197.077 599.657 196.483 599.364 195.97C599.07 195.457 598.667 195.053 598.154 194.76C597.655 194.467 597.076 194.32 596.416 194.32C595.741 194.32 595.147 194.467 594.634 194.76C594.135 195.053 593.739 195.464 593.446 195.992C593.167 196.505 593.028 197.114 593.028 197.818V198.258C593.028 198.962 593.189 199.585 593.512 200.128C593.834 200.671 594.289 201.089 594.876 201.382C595.462 201.675 596.137 201.822 596.9 201.822C597.56 201.822 598.154 201.719 598.682 201.514C599.21 201.309 599.679 200.986 600.09 200.546L601.564 202.24C601.036 202.856 600.368 203.333 599.562 203.67C598.77 203.993 597.86 204.154 596.834 204.154ZM607.354 204V193.924L607.992 194.584H603.218V192.252H614.218V194.584H609.466L610.104 193.924V204H607.354Z" fill="#686868"/>
<path fill-rule="evenodd" clip-rule="evenodd" d="M472.75 170.875V144.75H477.5V168.5H534.5V135.25H506V130.5H534.5V121H506V116.25H536.875L539.25 118.625V170.875L536.875 173.25H475.125L472.75 170.875Z" fill="#686868"/>
<path d="M498.667 127H477.333" stroke="#686868" stroke-width="2" stroke-linecap="round"/>
</svg>
