<svg width="990" height="320" viewBox="0 0 990 320" fill="none" xmlns="http://www.w3.org/2000/svg">
<rect width="990" height="320" rx="10" fill="#F5F5F5"/>
<path d="M405.198 204L412.128 188.6H414.944L421.896 204H418.904L412.942 190.118H414.086L408.146 204H405.198ZM408.388 200.436L409.158 198.192H417.474L418.244 200.436H408.388ZM430.462 204.154C429.508 204.154 428.636 203.934 427.844 203.494C427.066 203.054 426.443 202.394 425.974 201.514C425.519 200.619 425.292 199.49 425.292 198.126C425.292 196.747 425.512 195.618 425.952 194.738C426.406 193.858 427.022 193.205 427.8 192.78C428.577 192.34 429.464 192.12 430.462 192.12C431.62 192.12 432.64 192.369 433.52 192.868C434.414 193.367 435.118 194.063 435.632 194.958C436.16 195.853 436.424 196.909 436.424 198.126C436.424 199.343 436.16 200.407 435.632 201.316C435.118 202.211 434.414 202.907 433.52 203.406C432.64 203.905 431.62 204.154 430.462 204.154ZM423.95 208.268V192.252H426.568V195.024L426.48 198.148L426.7 201.272V208.268H423.95ZM430.154 201.8C430.814 201.8 431.4 201.653 431.914 201.36C432.442 201.067 432.86 200.641 433.168 200.084C433.476 199.527 433.63 198.874 433.63 198.126C433.63 197.363 433.476 196.711 433.168 196.168C432.86 195.611 432.442 195.185 431.914 194.892C431.4 194.599 430.814 194.452 430.154 194.452C429.494 194.452 428.9 194.599 428.372 194.892C427.844 195.185 427.426 195.611 427.118 196.168C426.81 196.711 426.656 197.363 426.656 198.126C426.656 198.874 426.81 199.527 427.118 200.084C427.426 200.641 427.844 201.067 428.372 201.36C428.9 201.653 429.494 201.8 430.154 201.8ZM444.639 204.154C443.333 204.154 442.189 203.897 441.207 203.384C440.239 202.856 439.483 202.137 438.941 201.228C438.413 200.319 438.149 199.285 438.149 198.126C438.149 196.953 438.405 195.919 438.919 195.024C439.447 194.115 440.165 193.403 441.075 192.89C441.999 192.377 443.047 192.12 444.221 192.12C445.365 192.12 446.384 192.369 447.279 192.868C448.173 193.367 448.877 194.071 449.391 194.98C449.904 195.889 450.161 196.96 450.161 198.192C450.161 198.309 450.153 198.441 450.139 198.588C450.139 198.735 450.131 198.874 450.117 199.006H440.327V197.18H448.665L447.587 197.752C447.601 197.077 447.462 196.483 447.169 195.97C446.875 195.457 446.472 195.053 445.959 194.76C445.46 194.467 444.881 194.32 444.221 194.32C443.546 194.32 442.952 194.467 442.439 194.76C441.94 195.053 441.544 195.464 441.251 195.992C440.972 196.505 440.833 197.114 440.833 197.818V198.258C440.833 198.962 440.994 199.585 441.317 200.128C441.639 200.671 442.094 201.089 442.681 201.382C443.267 201.675 443.942 201.822 444.705 201.822C445.365 201.822 445.959 201.719 446.487 201.514C447.015 201.309 447.484 200.986 447.895 200.546L449.369 202.24C448.841 202.856 448.173 203.333 447.367 203.67C446.575 203.993 445.665 204.154 444.639 204.154ZM453.168 204V192.252H455.918V197.026H461.836V192.252H464.586V204H461.836V199.358H455.918V204H453.168ZM476.324 202.724V194.584H471.814L471.748 196.476C471.718 197.151 471.674 197.803 471.616 198.434C471.557 199.05 471.462 199.622 471.33 200.15C471.198 200.663 471.007 201.089 470.758 201.426C470.508 201.763 470.178 201.983 469.768 202.086L467.04 201.668C467.48 201.668 467.832 201.529 468.096 201.25C468.374 200.957 468.587 200.561 468.734 200.062C468.895 199.549 469.012 198.969 469.086 198.324C469.159 197.664 469.21 196.982 469.24 196.278L469.394 192.252H479.074V202.724H476.324ZM466.622 206.618V201.668H480.812V206.618H478.238V204H469.174V206.618H466.622ZM489.348 204V192.252H500.612V204H497.884V193.946L498.522 194.584H491.46L492.098 193.946V204H489.348ZM509.559 204.154C508.356 204.154 507.285 203.897 506.347 203.384C505.408 202.856 504.667 202.137 504.125 201.228C503.582 200.319 503.311 199.285 503.311 198.126C503.311 196.953 503.582 195.919 504.125 195.024C504.667 194.115 505.408 193.403 506.347 192.89C507.285 192.377 508.356 192.12 509.559 192.12C510.776 192.12 511.854 192.377 512.793 192.89C513.746 193.403 514.487 194.107 515.015 195.002C515.557 195.897 515.829 196.938 515.829 198.126C515.829 199.285 515.557 200.319 515.015 201.228C514.487 202.137 513.746 202.856 512.793 203.384C511.854 203.897 510.776 204.154 509.559 204.154ZM509.559 201.8C510.233 201.8 510.835 201.653 511.363 201.36C511.891 201.067 512.301 200.641 512.595 200.084C512.903 199.527 513.057 198.874 513.057 198.126C513.057 197.363 512.903 196.711 512.595 196.168C512.301 195.611 511.891 195.185 511.363 194.892C510.835 194.599 510.241 194.452 509.581 194.452C508.906 194.452 508.305 194.599 507.777 194.892C507.263 195.185 506.853 195.611 506.545 196.168C506.237 196.711 506.083 197.363 506.083 198.126C506.083 198.874 506.237 199.527 506.545 200.084C506.853 200.641 507.263 201.067 507.777 201.36C508.305 201.653 508.899 201.8 509.559 201.8ZM526.971 204L522.725 198.368L524.969 196.982L530.205 204H526.971ZM518.545 204V192.252H521.295V204H518.545ZM520.481 199.292V197.004H524.463V199.292H520.481ZM525.233 198.456L522.659 198.148L526.971 192.252H529.919L525.233 198.456ZM539.058 204V201.624L538.904 201.118V196.96C538.904 196.153 538.662 195.53 538.178 195.09C537.694 194.635 536.961 194.408 535.978 194.408C535.318 194.408 534.665 194.511 534.02 194.716C533.389 194.921 532.854 195.207 532.414 195.574L531.336 193.572C531.967 193.088 532.715 192.729 533.58 192.494C534.46 192.245 535.369 192.12 536.308 192.12C538.009 192.12 539.322 192.531 540.246 193.352C541.185 194.159 541.654 195.413 541.654 197.114V204H539.058ZM535.362 204.154C534.482 204.154 533.712 204.007 533.052 203.714C532.392 203.406 531.879 202.988 531.512 202.46C531.16 201.917 530.984 201.309 530.984 200.634C530.984 199.974 531.138 199.38 531.446 198.852C531.769 198.324 532.289 197.906 533.008 197.598C533.727 197.29 534.68 197.136 535.868 197.136H539.278V198.962H536.066C535.127 198.962 534.497 199.116 534.174 199.424C533.851 199.717 533.69 200.084 533.69 200.524C533.69 201.023 533.888 201.419 534.284 201.712C534.68 202.005 535.23 202.152 535.934 202.152C536.609 202.152 537.21 201.998 537.738 201.69C538.281 201.382 538.669 200.927 538.904 200.326L539.366 201.976C539.102 202.665 538.625 203.201 537.936 203.582C537.261 203.963 536.403 204.154 535.362 204.154ZM551.137 204V192.252H553.887V197.026H559.805V192.252H562.555V204H559.805V199.358H553.887V204H551.137ZM571.719 204.154C570.413 204.154 569.269 203.897 568.287 203.384C567.319 202.856 566.563 202.137 566.021 201.228C565.493 200.319 565.229 199.285 565.229 198.126C565.229 196.953 565.485 195.919 565.999 195.024C566.527 194.115 567.245 193.403 568.155 192.89C569.079 192.377 570.127 192.12 571.301 192.12C572.445 192.12 573.464 192.369 574.359 192.868C575.253 193.367 575.957 194.071 576.471 194.98C576.984 195.889 577.241 196.96 577.241 198.192C577.241 198.309 577.233 198.441 577.219 198.588C577.219 198.735 577.211 198.874 577.197 199.006H567.407V197.18H575.745L574.667 197.752C574.681 197.077 574.542 196.483 574.249 195.97C573.955 195.457 573.552 195.053 573.039 194.76C572.54 194.467 571.961 194.32 571.301 194.32C570.626 194.32 570.032 194.467 569.519 194.76C569.02 195.053 568.624 195.464 568.331 195.992C568.052 196.505 567.913 197.114 567.913 197.818V198.258C567.913 198.962 568.074 199.585 568.397 200.128C568.719 200.671 569.174 201.089 569.761 201.382C570.347 201.675 571.022 201.822 571.785 201.822C572.445 201.822 573.039 201.719 573.567 201.514C574.095 201.309 574.564 200.986 574.975 200.546L576.449 202.24C575.921 202.856 575.253 203.333 574.447 203.67C573.655 203.993 572.745 204.154 571.719 204.154ZM582.239 204V193.924L582.877 194.584H578.103V192.252H589.103V194.584H584.351L584.989 193.924V204H582.239Z" fill="#686868"/>
<path fill-rule="evenodd" clip-rule="evenodd" d="M472.75 170.875V144.75H477.5V168.5H534.5V135.25H506V130.5H534.5V121H506V116.25H536.875L539.25 118.625V170.875L536.875 173.25H475.125L472.75 170.875Z" fill="#686868"/>
</svg>
