<svg width="40" height="40" viewBox="0 0 40 40" fill="none" xmlns="http://www.w3.org/2000/svg">
<g clip-path="url(#clip0_806_9117)">
<path d="M20 0C14.6969 0 9.60625 2.10844 5.85938 5.85781C2.10863 9.60868 0.00103897 14.6956 0 20C0 25.3022 2.10938 30.3928 5.85938 34.1422C9.60625 37.8916 14.6969 40 20 40C25.3031 40 30.3937 37.8916 34.1406 34.1422C37.8906 30.3928 40 25.3022 40 20C40 14.6978 37.8906 9.60719 34.1406 5.85781C30.3937 2.10844 25.3031 0 20 0Z" fill="url(#paint0_linear_806_9117)"/>
<path d="M9.05535 19.7886C14.8866 17.2486 18.7741 15.5739 20.7179 14.7648C26.2741 12.4545 27.4272 12.0533 28.1803 12.0397C28.346 12.037 28.7147 12.078 28.9554 12.2725C29.1554 12.4365 29.2116 12.6584 29.2397 12.8142C29.2647 12.9698 29.2991 13.3245 29.271 13.6014C28.971 16.7639 27.6679 24.4383 27.0054 27.9804C26.7272 29.4792 26.1741 29.9817 25.6397 30.0308C24.4772 30.1376 23.596 29.2633 22.471 28.5261C20.7116 27.372 19.7179 26.6539 18.0085 25.5279C16.0335 24.2267 17.3147 23.5114 18.4397 22.3426C18.7335 22.0367 23.8522 17.382 23.9491 16.9598C23.9616 16.907 23.9741 16.7101 23.8554 16.6064C23.7397 16.5023 23.5679 16.538 23.4429 16.5661C23.2647 16.6061 20.4554 18.4648 15.0054 22.142C14.2085 22.6901 13.4866 22.9573 12.8366 22.9433C12.1241 22.9279 10.7491 22.5395 9.72723 22.2076C8.47723 21.8004 7.48035 21.5851 7.56785 20.8936C7.6116 20.5336 8.10848 20.1651 9.05535 19.7886Z" fill="white"/>
</g>
<defs>
<linearGradient id="paint0_linear_806_9117" x1="20" y1="0" x2="20" y2="40" gradientUnits="userSpaceOnUse">
<stop stop-color="#2AABEE"/>
<stop offset="1" stop-color="#229ED9"/>
</linearGradient>
<clipPath id="clip0_806_9117">
<rect width="40" height="40" fill="white"/>
</clipPath>
</defs>
</svg>
