<svg width="70" height="70" viewBox="0 0 70 70" fill="none" xmlns="http://www.w3.org/2000/svg">
<path d="M35 70C54.33 70 70 54.33 70 35C70 15.67 54.33 0 35 0C15.67 0 0 15.67 0 35C0 54.33 15.67 70 35 70Z" fill="#E4E4E4"/>
<path d="M35.0026 64.1666C51.1109 64.1666 64.1693 51.1083 64.1693 35C64.1693 18.8917 51.1109 5.83331 35.0026 5.83331C18.8943 5.83331 5.83594 18.8917 5.83594 35C5.83594 51.1083 18.8943 64.1666 35.0026 64.1666Z" fill="#6C63FF"/>
<path d="M32.5223 45.5474C32.4702 45.5474 32.418 45.5461 32.3657 45.5436C31.9044 45.5213 31.4534 45.3996 31.0436 45.1867C30.6338 44.9737 30.2749 44.6747 29.9915 44.31L25.5175 38.5577C24.9965 37.8863 24.7632 37.0358 24.8685 36.1925C24.9739 35.3493 25.4094 34.5823 26.0796 34.0598L26.2405 33.9345C26.9119 33.4136 27.7626 33.1802 28.6058 33.2856C29.4491 33.391 30.2161 33.8265 30.7387 34.4966C30.9909 34.8208 31.3101 35.0867 31.6745 35.2761C32.039 35.4655 32.4401 35.574 32.8503 35.594C33.2606 35.614 33.6703 35.5451 34.0515 35.392C34.4326 35.239 34.7762 35.0054 35.0587 34.7072L44.1433 25.1175C44.4328 24.812 44.7796 24.5664 45.164 24.3948C45.5484 24.2233 45.9629 24.1292 46.3837 24.1178C46.8045 24.1064 47.2234 24.1781 47.6165 24.3286C48.0096 24.4792 48.3692 24.7057 48.6747 24.9952L48.823 25.1357C49.4401 25.7204 49.7997 26.5262 49.8226 27.3759C49.8455 28.2257 49.53 29.0497 48.9453 29.6668L34.8485 44.5464C34.5492 44.8627 34.1886 45.1146 33.7886 45.2867C33.3886 45.4588 32.9578 45.5475 32.5223 45.5474Z" fill="white"/>
</svg>
