<svg width="26" height="25" viewBox="0 0 26 25" fill="none" xmlns="http://www.w3.org/2000/svg">
<path d="M13.0645 0C6.18945 0 0.564453 5.625 0.564453 12.5C0.564453 19.375 6.18945 25 13.0645 25C19.9395 25 25.5645 19.375 25.5645 12.5C25.5645 5.625 19.9395 0 13.0645 0ZM18.3145 10.375L12.3145 16.375C11.8145 16.875 11.0645 16.875 10.5645 16.375L7.81445 13.625C7.31445 13.125 7.31445 12.375 7.81445 11.875C8.31445 11.375 9.06445 11.375 9.56445 11.875L11.4395 13.75L16.5645 8.625C17.0645 8.125 17.8145 8.125 18.3145 8.625C18.8145 9.125 18.8145 9.875 18.3145 10.375Z" fill="#686868"/>
</svg>
