<svg width="17" height="19" viewBox="0 0 17 19" fill="none" xmlns="http://www.w3.org/2000/svg">
<path d="M16.319 2.66843H11.6547V0.723687C11.6547 0.551761 11.5842 0.386877 11.4587 0.265307C11.3333 0.143737 11.1631 0.0754395 10.9857 0.0754395H5.63345C5.45602 0.0754395 5.28585 0.143737 5.16038 0.265307C5.03491 0.386877 4.96443 0.551761 4.96443 0.723687V2.66843H0.300066L0.28125 4.28905H1.66111L2.50116 17.0109C2.52242 17.3399 2.67221 17.6487 2.92007 17.8745C3.16793 18.1003 3.49525 18.2261 3.83545 18.2264H12.7837C13.1237 18.2263 13.4509 18.1009 13.6989 17.8755C13.9469 17.6501 14.097 17.3417 14.1188 17.0129L14.958 4.28905H16.3379L16.319 2.66843ZM4.96443 15.6334L4.5881 5.26142H5.96796L6.34429 15.6334H4.96443ZM8.97858 15.6334H7.64053V5.26142H8.97858V15.6334ZM9.98211 2.66843H6.63699V1.534C6.63699 1.49102 6.65461 1.44979 6.68598 1.4194C6.71734 1.38901 6.75989 1.37194 6.80425 1.37194H9.81486C9.85922 1.37194 9.90176 1.38901 9.93313 1.4194C9.96449 1.44979 9.98211 1.49102 9.98211 1.534V2.66843ZM11.6547 15.6334H10.2748L10.6511 5.26142H12.031L11.6547 15.6334Z" fill="#EF2C2C"/>
</svg>
