<svg width="25" height="17" viewBox="0 0 25 17" fill="none" xmlns="http://www.w3.org/2000/svg">
<path d="M21.1139 0.539937C21.546 0.18979 22.1208 -0.0037861 22.7173 5.61217e-05C23.3138 0.00389834 23.8852 0.204859 24.3109 0.560531C24.7366 0.916204 24.9834 1.39877 24.9992 1.9064C25.015 2.41404 24.7985 2.90703 24.3954 3.28136L12.1589 16.3096C11.9485 16.5026 11.6946 16.6574 11.4123 16.7649C11.1299 16.8724 10.8251 16.9303 10.5159 16.9351C10.2067 16.94 9.89953 16.8918 9.61274 16.7933C9.32595 16.6948 9.06544 16.548 8.84679 16.3619L0.732068 9.45347C0.506086 9.27421 0.324832 9.05803 0.199119 8.81783C0.0734051 8.57763 0.00580698 8.31833 0.000357955 8.05541C-0.00509107 7.79249 0.0517208 7.53132 0.167403 7.2875C0.283086 7.04367 0.455269 6.82218 0.673682 6.63624C0.892095 6.45029 1.15226 6.30371 1.43866 6.20522C1.72507 6.10674 2.03183 6.05837 2.34067 6.06301C2.6495 6.06765 2.95408 6.1252 3.23622 6.23222C3.51836 6.33925 3.77229 6.49356 3.98286 6.68594L10.4047 12.1505L21.0557 0.597377C21.0749 0.577276 21.0953 0.558099 21.117 0.539937H21.1139Z" fill="#686868"/>
</svg>
