<svg width="30" height="30" viewBox="0 0 30 30" fill="none" xmlns="http://www.w3.org/2000/svg">
<rect x="1" y="1" width="28" height="28" rx="14" fill="#F5F5F5" stroke="#385AD4" stroke-width="2"/>
<path d="M21.0466 8.44635C21.3749 8.15689 21.8118 7.99687 22.2652 8.00005C22.7185 8.00322 23.1527 8.16935 23.4763 8.46337C23.7998 8.7574 23.9874 9.15632 23.9994 9.57596C24.0114 9.9956 23.8468 10.4031 23.5405 10.7126L14.2408 21.4826C14.0809 21.6421 13.8879 21.7701 13.6733 21.859C13.4588 21.9478 13.2271 21.9957 12.9921 21.9997C12.7571 22.0038 12.5236 21.9639 12.3057 21.8824C12.0877 21.801 11.8897 21.6797 11.7236 21.5258L5.55637 15.8149C5.38463 15.6667 5.24687 15.488 5.15133 15.2894C5.05579 15.0908 5.00441 14.8765 5.00027 14.6591C4.99613 14.4418 5.03931 14.2259 5.12723 14.0243C5.21514 13.8228 5.346 13.6397 5.512 13.486C5.67799 13.3322 5.87572 13.2111 6.09338 13.1297C6.31105 13.0482 6.54419 13.0083 6.77891 13.0121C7.01362 13.0159 7.2451 13.0635 7.45953 13.152C7.67395 13.2404 7.86694 13.368 8.02698 13.527L12.9076 18.0444L21.0023 8.49383C21.0169 8.47721 21.0324 8.46136 21.0489 8.44635H21.0466Z" fill="#385AD4"/>
</svg>
