<svg width="40" height="40" viewBox="0 0 40 40" fill="none" xmlns="http://www.w3.org/2000/svg">
<rect width="40" height="40" rx="5" fill="#EEEEEE"/>
<path d="M29 21V26C29 28 28 29 26 29H14C12 29 11 28 11 26V21C11 19 12 18 14 18H19.25V22.189L17.53 20.469C17.237 20.176 16.762 20.176 16.469 20.469C16.176 20.762 16.176 21.237 16.469 21.53L19.469 24.53C19.538 24.599 19.6209 24.654 19.7129 24.692C19.8049 24.73 19.902 24.75 20 24.75C20.098 24.75 20.1951 24.73 20.2871 24.692C20.3791 24.654 20.462 24.599 20.531 24.53L23.531 21.53C23.824 21.237 23.824 20.762 23.531 20.469C23.238 20.176 22.763 20.176 22.47 20.469L20.75 22.189V18H26C28 18 29 19 29 21ZM20.75 11C20.75 10.586 20.414 10.25 20 10.25C19.586 10.25 19.25 10.586 19.25 11V18H20.75V11Z" fill="black"/>
</svg>
