<svg width="406" height="236" viewBox="0 0 406 236" fill="none" xmlns="http://www.w3.org/2000/svg">
<g clip-path="url(#clip0_2159_1429)">
<rect width="406" height="236" rx="118" fill="#F7F7FF"/>
<path d="M317.372 144.362C309.773 164.894 294.259 187.12 272.421 193.704C239.424 203.649 235.481 230.496 176.383 228.007C167.751 227.684 159.181 226.415 150.826 224.223C146.741 223.137 142.729 221.79 138.816 220.188C104.289 206.072 86.286 175.002 84.7815 142.495C82.8078 99.7367 112.362 79.3571 131.569 67.4231C150.775 55.4891 173.94 9.25249 232.039 11.2364C240.915 11.5044 249.729 12.8052 258.304 15.1124C277.862 20.4521 297.742 32.2739 309.304 49.5476C310.171 50.8498 310.999 52.1758 311.788 53.5256C327.235 80.0048 327.725 116.363 317.372 144.362Z" fill="#407BFF"/>
<path opacity="0.7" d="M317.372 144.362C309.773 164.894 294.259 187.12 272.421 193.704C239.424 203.649 235.481 230.496 176.383 228.007C167.751 227.684 159.181 226.415 150.826 224.223C146.741 223.137 142.729 221.79 138.816 220.188C104.289 206.072 86.286 175.002 84.7815 142.495C82.8078 99.7367 112.362 79.3571 131.569 67.4231C150.775 55.4891 173.94 9.25249 232.039 11.2364C240.915 11.5044 249.729 12.8052 258.304 15.1124C277.862 20.4521 297.742 32.2739 309.304 49.5476C310.171 50.8498 310.999 52.1758 311.788 53.5256C327.235 80.0048 327.725 116.363 317.372 144.362Z" fill="white"/>
<path opacity="0.3" d="M316.229 15.5C315.679 15.5013 315.145 15.6746 314.699 15.9957C314.254 16.3168 313.92 16.7695 313.745 17.2901H184.939C184.739 16.6978 184.335 16.1959 183.799 15.874C183.263 15.552 182.631 15.431 182.014 15.5324C181.397 15.6338 180.836 15.9511 180.431 16.4276C180.027 16.9042 179.805 17.509 179.805 18.1341C179.805 18.7593 180.027 19.3641 180.431 19.8407C180.836 20.3172 181.397 20.6345 182.014 20.7359C182.631 20.8373 183.263 20.7162 183.799 20.3943C184.335 20.0723 184.739 19.5705 184.939 18.9782H313.719C313.875 19.4356 314.153 19.8414 314.524 20.1511C314.895 20.4608 315.344 20.6625 315.821 20.7341C316.299 20.8057 316.787 20.7443 317.232 20.5569C317.678 20.3694 318.063 20.0629 318.345 19.6712C318.628 19.2794 318.797 18.8174 318.835 18.3357C318.872 17.8541 318.776 17.3715 318.558 16.9407C318.339 16.5099 318.006 16.1476 317.595 15.8935C317.185 15.6393 316.712 15.5032 316.229 15.5Z" fill="black"/>
<g opacity="0.3">
<path d="M215.393 19.4729C217.229 64.1183 218.835 109.192 220.758 153.674L220.569 162.395C220.569 162.395 212.312 162.395 207.967 162.829C203.622 163.262 196.89 163.262 192.111 163.262C187.333 163.262 184.727 161.528 184.727 161.528L185.038 153.664C186.002 109.202 187.042 64.1234 187.72 19.4729" stroke="black" stroke-linecap="round" stroke-linejoin="round"/>
<path d="M194.822 146.295L194.797 151.553" stroke="black" stroke-linecap="round" stroke-linejoin="round"/>
<path d="M195.272 43.8713L194.844 141.628" stroke="black" stroke-linecap="round" stroke-linejoin="round"/>
<path d="M195.383 18.4835L195.281 40.9541" stroke="black" stroke-linecap="round" stroke-linejoin="round"/>
<path d="M202.784 69.8354L201.805 134.922" stroke="black" stroke-linecap="round" stroke-linejoin="round"/>
<path d="M203.548 19.07L202.844 65.7656" stroke="black" stroke-linecap="round" stroke-linejoin="round"/>
<path d="M209.695 87.9353L209.971 148.345" stroke="black" stroke-linecap="round" stroke-linejoin="round"/>
<path d="M209.5 45.0392L209.673 82.9781" stroke="black" stroke-linecap="round" stroke-linejoin="round"/>
<path d="M209.383 19.6514L209.48 40.3727" stroke="black" stroke-linecap="round" stroke-linejoin="round"/>
</g>
<g opacity="0.3">
<path d="M282.022 19.4729C280.258 66.7448 278.008 114.491 276.32 161.513C279.379 161.982 282.463 162.272 285.556 162.38H303.988C306.854 162.318 309.711 162.022 312.53 161.498C311.699 114.506 311.138 66.7601 309.679 19.4882" stroke="black" stroke-linecap="round" stroke-linejoin="round"/>
<path d="M302.602 146.295L302.622 151.553" stroke="black" stroke-linecap="round" stroke-linejoin="round"/>
<path d="M302.148 43.8713L302.577 141.628" stroke="black" stroke-linecap="round" stroke-linejoin="round"/>
<path d="M302.039 18.4835L302.136 40.9541" stroke="black" stroke-linecap="round" stroke-linejoin="round"/>
<path d="M294.633 69.8354L295.617 134.922" stroke="black" stroke-linecap="round" stroke-linejoin="round"/>
<path d="M293.867 19.07L294.571 65.7656" stroke="black" stroke-linecap="round" stroke-linejoin="round"/>
<path d="M287.721 87.9353L287.445 148.345" stroke="black" stroke-linecap="round" stroke-linejoin="round"/>
<path d="M287.916 45.0392L287.742 82.9781" stroke="black" stroke-linecap="round" stroke-linejoin="round"/>
<path d="M288.029 19.6514L287.938 40.3727" stroke="black" stroke-linecap="round" stroke-linejoin="round"/>
</g>
<g opacity="0.3">
<path d="M216.219 32.1617H229.178V47.2832H217.086" stroke="black" stroke-linecap="round" stroke-linejoin="round"/>
<path d="M244.991 32.1974H231.445V47.3648H244.991V32.1974Z" stroke="black" stroke-linecap="round" stroke-linejoin="round"/>
</g>
<g opacity="0.3">
<path d="M281.378 32.1617H268.414V47.2832H280.511" stroke="black" stroke-linecap="round" stroke-linejoin="round"/>
<path d="M252.611 47.3648H266.156V32.1974H252.611V47.3648Z" stroke="black" stroke-linecap="round" stroke-linejoin="round"/>
</g>
<path opacity="0.3" d="M218.36 100.869H245.334V55.535H217.172" stroke="black" stroke-linecap="round" stroke-linejoin="round"/>
<path opacity="0.3" d="M280.011 55.1525H252.445V100.869H277.935" stroke="black" stroke-linecap="round" stroke-linejoin="round"/>
<path opacity="0.3" d="M219.25 111.625H245.336V157.193H221.224" stroke="black" stroke-linecap="round" stroke-linejoin="round"/>
<path opacity="0.3" d="M278.231 111.242H252.445V157.617H275.956" stroke="black" stroke-linecap="round" stroke-linejoin="round"/>
<path opacity="0.3" d="M221.102 160.513H276.319" stroke="black" stroke-linecap="round" stroke-linejoin="round"/>
<path opacity="0.3" d="M216.109 26.9138H281.343" stroke="black" stroke-linecap="round" stroke-linejoin="round"/>
<path opacity="0.3" d="M248.883 27.2249V159.886" stroke="black" stroke-linecap="round" stroke-linejoin="round"/>
<path opacity="0.3" d="M216.938 52.0313H280.397" stroke="black" stroke-linecap="round" stroke-linejoin="round"/>
<path d="M288.75 131.367L295.61 197.06" stroke="#263238" stroke-width="2" stroke-linecap="round" stroke-linejoin="round"/>
<path d="M294.702 186.391L291.484 182.989" stroke="#263238" stroke-width="2" stroke-linecap="round" stroke-linejoin="round"/>
<path d="M292.466 184.009C292.46 183.489 292.342 182.977 292.121 182.506C291.9 182.036 291.581 181.618 291.186 181.281C290.359 180.541 286.009 178.731 285.576 180.261C285.147 181.908 289.6 185.182 292.466 184.009Z" fill="#407BFF" stroke="#263238" stroke-linecap="round" stroke-linejoin="round"/>
<path d="M292.469 184.009L288.328 181.428" stroke="#263238" stroke-width="0.5" stroke-linecap="round" stroke-linejoin="round"/>
<path d="M295.515 194.127L292.297 190.731" stroke="#263238" stroke-width="2" stroke-linecap="round" stroke-linejoin="round"/>
<path d="M293.279 191.746C293.273 191.226 293.155 190.714 292.934 190.243C292.714 189.772 292.395 189.354 291.999 189.017C291.173 188.278 286.822 186.467 286.389 187.997C285.955 189.645 290.408 192.919 293.279 191.746Z" fill="#407BFF" stroke="#263238" stroke-linecap="round" stroke-linejoin="round"/>
<path d="M293.274 191.746L289.133 189.165" stroke="#263238" stroke-width="0.5" stroke-linecap="round" stroke-linejoin="round"/>
<path d="M292.734 167.505L289.516 164.104" stroke="#263238" stroke-width="2" stroke-linecap="round" stroke-linejoin="round"/>
<path d="M290.5 165.124C290.494 164.6 290.375 164.083 290.15 163.61C289.926 163.136 289.602 162.717 289.2 162.38C288.374 161.64 284.029 159.83 283.615 161.36C283.182 163.023 287.629 166.297 290.5 165.124Z" fill="#407BFF" stroke="#263238" stroke-linecap="round" stroke-linejoin="round"/>
<path d="M290.501 165.124L286.359 162.543" stroke="#263238" stroke-width="0.5" stroke-linecap="round" stroke-linejoin="round"/>
<path d="M293.546 175.247L290.328 171.846" stroke="#263238" stroke-width="2" stroke-linecap="round" stroke-linejoin="round"/>
<path d="M291.302 172.866C291.295 172.345 291.178 171.832 290.957 171.361C290.736 170.889 290.417 170.47 290.022 170.132C289.195 169.392 284.845 167.582 284.412 169.112C283.983 170.764 288.435 174.033 291.302 172.866Z" fill="#407BFF" stroke="#263238" stroke-linecap="round" stroke-linejoin="round"/>
<path d="M291.305 172.866L287.164 170.285" stroke="#263238" stroke-width="0.5" stroke-linecap="round" stroke-linejoin="round"/>
<path d="M291.426 154.934L288.203 151.537" stroke="#263238" stroke-width="2" stroke-linecap="round" stroke-linejoin="round"/>
<path d="M289.194 152.552C289.188 152.032 289.071 151.52 288.85 151.049C288.629 150.579 288.31 150.161 287.914 149.824C287.088 149.084 282.738 147.274 282.304 148.804C281.861 150.451 286.313 153.71 289.194 152.552Z" fill="#407BFF" stroke="#263238" stroke-linecap="round" stroke-linejoin="round"/>
<path d="M289.18 152.552L285.039 149.972" stroke="#263238" stroke-width="0.5" stroke-linecap="round" stroke-linejoin="round"/>
<path d="M290.109 142.311L286.891 138.91" stroke="#263238" stroke-width="2" stroke-linecap="round" stroke-linejoin="round"/>
<path d="M287.867 139.94C287.86 139.419 287.743 138.906 287.522 138.435C287.301 137.964 286.982 137.545 286.587 137.206C285.76 136.467 281.41 134.656 280.977 136.186C280.528 137.829 285.001 141.098 287.867 139.94Z" fill="#407BFF" stroke="#263238" stroke-linecap="round" stroke-linejoin="round"/>
<path d="M287.868 139.93L283.727 137.349" stroke="#263238" stroke-width="0.5" stroke-linecap="round" stroke-linejoin="round"/>
<path d="M294.164 181.811L296.612 177.818" stroke="#263238" stroke-width="2" stroke-linecap="round" stroke-linejoin="round"/>
<path d="M295.867 179.016C295.765 178.507 295.774 177.981 295.893 177.475C296.012 176.969 296.238 176.495 296.556 176.084C297.214 175.191 301.09 172.514 301.809 173.916C302.594 175.451 298.912 179.572 295.867 179.016Z" fill="#407BFF" stroke="#263238" stroke-linecap="round" stroke-linejoin="round"/>
<path d="M295.867 179.021L299.595 175.456" stroke="#263238" stroke-width="0.5" stroke-linecap="round" stroke-linejoin="round"/>
<path d="M292.047 161.447L294.495 157.453" stroke="#263238" stroke-width="2" stroke-linecap="round" stroke-linejoin="round"/>
<path d="M293.741 158.652C293.64 158.142 293.65 157.617 293.769 157.111C293.887 156.606 294.113 156.131 294.429 155.719C295.087 154.827 298.963 152.149 299.687 153.552C300.468 155.087 296.791 159.208 293.741 158.652Z" fill="#407BFF" stroke="#263238" stroke-linecap="round" stroke-linejoin="round"/>
<path d="M293.742 158.652L297.47 155.092" stroke="#263238" stroke-width="0.5" stroke-linecap="round" stroke-linejoin="round"/>
<path d="M291.102 152.496L293.55 148.508" stroke="#263238" stroke-width="2" stroke-linecap="round" stroke-linejoin="round"/>
<path d="M292.805 149.706C292.703 149.196 292.712 148.67 292.83 148.163C292.949 147.656 293.175 147.181 293.493 146.769C294.151 145.876 298.027 143.199 298.746 144.601C299.532 146.137 295.849 150.257 292.805 149.706Z" fill="#407BFF" stroke="#263238" stroke-linecap="round" stroke-linejoin="round"/>
<path d="M292.812 149.706L296.541 146.142" stroke="#263238" stroke-width="0.5" stroke-linecap="round" stroke-linejoin="round"/>
<path d="M289.742 139.379L292.19 135.386" stroke="#263238" stroke-width="2" stroke-linecap="round" stroke-linejoin="round"/>
<path d="M291.445 136.584C291.344 136.074 291.352 135.547 291.471 135.041C291.59 134.534 291.816 134.059 292.134 133.647C292.787 132.754 296.668 130.077 297.387 131.479C298.167 133.019 294.49 137.14 291.445 136.584Z" fill="#407BFF" stroke="#263238" stroke-linecap="round" stroke-linejoin="round"/>
<path d="M291.445 136.584L295.173 133.019" stroke="#263238" stroke-width="0.5" stroke-linecap="round" stroke-linejoin="round"/>
<path d="M288.688 130.989C288.586 130.479 288.594 129.953 288.713 129.446C288.832 128.939 289.058 128.464 289.376 128.052C290.034 127.159 293.91 124.482 294.629 125.884C295.42 127.425 291.748 131.545 288.688 130.989Z" fill="#407BFF" stroke="#263238" stroke-linecap="round" stroke-linejoin="round"/>
<path d="M288.695 130.99L292.423 127.425" stroke="#263238" stroke-width="0.5" stroke-linecap="round" stroke-linejoin="round"/>
<path d="M288.911 131.142C288.393 131.189 287.871 131.125 287.38 130.953C286.89 130.782 286.441 130.507 286.065 130.148C285.244 129.403 282.98 125.262 284.459 124.696C286.07 124.079 289.783 128.169 288.911 131.142Z" fill="#407BFF" stroke="#263238" stroke-linecap="round" stroke-linejoin="round"/>
<path d="M288.91 131.142L285.758 127.062" stroke="#263238" stroke-width="0.5" stroke-linecap="round" stroke-linejoin="round"/>
<path d="M307.479 140.736L301.609 197.305" stroke="#263238" stroke-width="2" stroke-linecap="round" stroke-linejoin="round"/>
<path d="M301.984 195.81L299.531 191.817" stroke="#263238" stroke-width="2" stroke-linecap="round" stroke-linejoin="round"/>
<path d="M300.28 193.016C300.381 192.506 300.371 191.98 300.251 191.474C300.132 190.968 299.905 190.494 299.587 190.083C298.929 189.191 295.053 186.513 294.334 187.916C293.548 189.456 297.231 193.572 300.28 193.016Z" fill="#407BFF" stroke="#263238" stroke-linecap="round" stroke-linejoin="round"/>
<path d="M300.282 193.016L296.758 189.639" stroke="#263238" stroke-width="0.5" stroke-linecap="round" stroke-linejoin="round"/>
<path d="M303.945 176.925L301.492 172.932" stroke="#263238" stroke-width="2" stroke-linecap="round" stroke-linejoin="round"/>
<path d="M302.241 174.11C302.342 173.6 302.332 173.074 302.212 172.569C302.093 172.063 301.866 171.588 301.548 171.178C300.89 170.285 297.014 167.608 296.295 169.01C295.509 170.571 299.192 174.686 302.241 174.11Z" fill="#407BFF" stroke="#263238" stroke-linecap="round" stroke-linejoin="round"/>
<path d="M302.238 174.13L298.719 170.754" stroke="#263238" stroke-width="0.5" stroke-linecap="round" stroke-linejoin="round"/>
<path d="M303.135 184.662L300.688 180.674" stroke="#263238" stroke-width="2" stroke-linecap="round" stroke-linejoin="round"/>
<path d="M301.437 181.872C301.539 181.362 301.53 180.835 301.411 180.329C301.293 179.822 301.066 179.347 300.748 178.935C300.091 178.042 296.209 175.365 295.49 176.772C294.705 178.307 298.377 182.428 301.437 181.872Z" fill="#407BFF" stroke="#263238" stroke-linecap="round" stroke-linejoin="round"/>
<path d="M301.433 181.872L297.914 178.496" stroke="#263238" stroke-width="0.5" stroke-linecap="round" stroke-linejoin="round"/>
<path d="M305.25 164.354L302.797 160.36" stroke="#263238" stroke-width="2" stroke-linecap="round" stroke-linejoin="round"/>
<path d="M303.546 161.559C303.646 161.049 303.637 160.523 303.517 160.018C303.397 159.512 303.171 159.037 302.852 158.626C302.195 157.734 298.319 155.056 297.599 156.459C296.814 157.999 300.496 162.115 303.546 161.559Z" fill="#407BFF" stroke="#263238" stroke-linecap="round" stroke-linejoin="round"/>
<path d="M303.548 161.559L300.023 158.183" stroke="#263238" stroke-width="0.5" stroke-linecap="round" stroke-linejoin="round"/>
<path d="M306.55 151.726L304.102 147.733" stroke="#263238" stroke-width="2" stroke-linecap="round" stroke-linejoin="round"/>
<path d="M304.859 148.931C304.959 148.421 304.949 147.896 304.829 147.39C304.709 146.884 304.483 146.41 304.165 145.999C303.507 145.106 299.631 142.429 298.912 143.831C298.127 145.371 301.809 149.487 304.859 148.931Z" fill="#407BFF" stroke="#263238" stroke-linecap="round" stroke-linejoin="round"/>
<path d="M304.852 148.931L301.328 145.555" stroke="#263238" stroke-width="0.5" stroke-linecap="round" stroke-linejoin="round"/>
<path d="M302.398 191.215L305.611 187.814" stroke="#263238" stroke-width="2" stroke-linecap="round" stroke-linejoin="round"/>
<path d="M304.633 188.834C304.638 188.313 304.755 187.799 304.975 187.328C305.196 186.856 305.516 186.437 305.913 186.1C306.739 185.366 311.084 183.55 311.523 185.08C311.946 186.727 307.499 190.002 304.633 188.834Z" fill="#407BFF" stroke="#263238" stroke-linecap="round" stroke-linejoin="round"/>
<path d="M304.633 188.834L309.014 186.115" stroke="#263238" stroke-width="0.5" stroke-linecap="round" stroke-linejoin="round"/>
<path d="M304.508 170.851L307.726 167.449" stroke="#263238" stroke-width="2" stroke-linecap="round" stroke-linejoin="round"/>
<path d="M306.75 168.469C306.757 167.949 306.874 167.436 307.095 166.964C307.316 166.493 307.634 166.074 308.03 165.736C308.856 164.996 313.202 163.186 313.64 164.716C314.069 166.363 309.601 169.637 306.75 168.469Z" fill="#407BFF" stroke="#263238" stroke-linecap="round" stroke-linejoin="round"/>
<path d="M306.75 168.469L311.131 165.751" stroke="#263238" stroke-width="0.5" stroke-linecap="round" stroke-linejoin="round"/>
<path d="M305.438 161.901L308.656 158.499" stroke="#263238" stroke-width="2" stroke-linecap="round" stroke-linejoin="round"/>
<path d="M307.672 159.519C307.678 158.998 307.796 158.485 308.017 158.014C308.237 157.542 308.556 157.124 308.952 156.785C309.778 156.046 314.128 154.235 314.562 155.765C314.99 157.413 310.538 160.687 307.672 159.519Z" fill="#407BFF" stroke="#263238" stroke-linecap="round" stroke-linejoin="round"/>
<path d="M307.672 159.519L312.053 156.801" stroke="#263238" stroke-width="0.5" stroke-linecap="round" stroke-linejoin="round"/>
<path d="M306.797 148.778L310.015 145.377" stroke="#263238" stroke-width="2" stroke-linecap="round" stroke-linejoin="round"/>
<path d="M309.039 146.397C309.045 145.877 309.163 145.364 309.384 144.894C309.604 144.423 309.923 144.005 310.319 143.668C311.145 142.929 315.496 141.118 315.929 142.648C316.358 144.29 311.905 147.59 309.039 146.397Z" fill="#407BFF" stroke="#263238" stroke-linecap="round" stroke-linejoin="round"/>
<path d="M309.039 146.397L313.42 143.678" stroke="#263238" stroke-width="0.5" stroke-linecap="round" stroke-linejoin="round"/>
<path d="M307.5 140.358C307.507 139.838 307.624 139.325 307.845 138.853C308.066 138.382 308.384 137.963 308.78 137.625C309.606 136.885 313.951 135.075 314.39 136.605C314.813 138.252 310.366 141.526 307.5 140.358Z" fill="#407BFF" stroke="#263238" stroke-linecap="round" stroke-linejoin="round"/>
<path d="M307.5 140.358L311.881 137.635" stroke="#263238" stroke-width="0.5" stroke-linecap="round" stroke-linejoin="round"/>
<path d="M307.683 140.552C307.166 140.491 306.669 140.32 306.223 140.051C305.778 139.782 305.396 139.421 305.102 138.991C304.454 138.094 303.088 133.575 304.653 133.325C306.357 133.055 309.146 137.823 307.683 140.552Z" fill="#407BFF" stroke="#263238" stroke-linecap="round" stroke-linejoin="round"/>
<path d="M307.681 140.552L305.438 135.906" stroke="#263238" stroke-width="0.5" stroke-linecap="round" stroke-linejoin="round"/>
<path d="M299.391 113.027V197.305" stroke="#263238" stroke-width="2" stroke-linecap="round" stroke-linejoin="round"/>
<path d="M299.46 186.141L296.609 182.428" stroke="#263238" stroke-width="2" stroke-linecap="round" stroke-linejoin="round"/>
<path d="M297.473 183.54C297.521 183.022 297.458 182.5 297.287 182.01C297.116 181.519 296.842 181.07 296.483 180.694C295.739 179.873 291.602 177.603 291.031 179.082C290.414 180.694 294.499 184.407 297.473 183.54Z" fill="#407BFF" stroke="#263238" stroke-linecap="round" stroke-linejoin="round"/>
<path d="M297.476 183.54L293.625 180.546" stroke="#263238" stroke-width="0.5" stroke-linecap="round" stroke-linejoin="round"/>
<path d="M299.46 169.969L296.609 166.256" stroke="#263238" stroke-width="2" stroke-linecap="round" stroke-linejoin="round"/>
<path d="M297.473 167.368C297.521 166.85 297.458 166.328 297.287 165.837C297.116 165.346 296.842 164.898 296.483 164.522C295.739 163.701 291.602 161.431 291.031 162.91C290.414 164.522 294.499 168.235 297.473 167.368Z" fill="#407BFF" stroke="#263238" stroke-linecap="round" stroke-linejoin="round"/>
<path d="M297.476 167.368L293.625 164.374" stroke="#263238" stroke-width="0.5" stroke-linecap="round" stroke-linejoin="round"/>
<path d="M299.46 150.987L296.609 147.269" stroke="#263238" stroke-width="2" stroke-linecap="round" stroke-linejoin="round"/>
<path d="M297.473 148.38C297.521 147.863 297.458 147.341 297.287 146.85C297.116 146.359 296.842 145.911 296.483 145.535C295.739 144.714 291.602 142.444 291.031 143.923C290.414 145.55 294.499 149.247 297.473 148.38Z" fill="#407BFF" stroke="#263238" stroke-linecap="round" stroke-linejoin="round"/>
<path d="M297.476 148.38L293.625 145.387" stroke="#263238" stroke-width="0.5" stroke-linecap="round" stroke-linejoin="round"/>
<path d="M299.46 138.344L296.609 134.631" stroke="#263238" stroke-width="2" stroke-linecap="round" stroke-linejoin="round"/>
<path d="M297.473 135.743C297.521 135.225 297.458 134.703 297.287 134.212C297.116 133.721 296.842 133.273 296.483 132.897C295.739 132.076 291.602 129.801 291.031 131.285C290.414 132.897 294.499 136.61 297.473 135.743Z" fill="#407BFF" stroke="#263238" stroke-linecap="round" stroke-linejoin="round"/>
<path d="M297.476 135.743L293.625 132.749" stroke="#263238" stroke-width="0.5" stroke-linecap="round" stroke-linejoin="round"/>
<path d="M299.46 125.65L296.609 121.932" stroke="#263238" stroke-width="2" stroke-linecap="round" stroke-linejoin="round"/>
<path d="M297.473 123.049C297.521 122.531 297.457 122.008 297.287 121.516C297.116 121.024 296.842 120.575 296.483 120.198C295.739 119.382 291.602 117.107 291.031 118.591C290.414 120.198 294.499 123.916 297.473 123.049Z" fill="#407BFF" stroke="#263238" stroke-linecap="round" stroke-linejoin="round"/>
<path d="M297.476 123.049L293.625 120.055" stroke="#263238" stroke-width="0.5" stroke-linecap="round" stroke-linejoin="round"/>
<path d="M299.391 191.083L302.242 187.365" stroke="#263238" stroke-width="2" stroke-linecap="round" stroke-linejoin="round"/>
<path d="M301.375 188.482C301.327 187.963 301.39 187.441 301.561 186.949C301.731 186.457 302.005 186.008 302.365 185.631C303.109 184.81 307.245 182.54 307.816 184.019C308.434 185.631 304.348 189.349 301.375 188.482Z" fill="#407BFF" stroke="#263238" stroke-linecap="round" stroke-linejoin="round"/>
<path d="M301.375 188.482L305.455 185.325" stroke="#263238" stroke-width="0.5" stroke-linecap="round" stroke-linejoin="round"/>
<path d="M299.391 165.358L302.242 161.646" stroke="#263238" stroke-width="2" stroke-linecap="round" stroke-linejoin="round"/>
<path d="M301.375 162.757C301.327 162.24 301.39 161.718 301.561 161.227C301.731 160.736 302.006 160.287 302.365 159.912C303.109 159.09 307.245 156.821 307.816 158.3C308.434 159.912 304.348 163.624 301.375 162.757Z" fill="#407BFF" stroke="#263238" stroke-linecap="round" stroke-linejoin="round"/>
<path d="M301.375 162.757L305.455 159.6" stroke="#263238" stroke-width="0.5" stroke-linecap="round" stroke-linejoin="round"/>
<path d="M299.391 152.664L302.242 148.952" stroke="#263238" stroke-width="2" stroke-linecap="round" stroke-linejoin="round"/>
<path d="M301.375 150.063C301.327 149.546 301.39 149.024 301.561 148.533C301.731 148.042 302.006 147.594 302.365 147.218C303.109 146.397 307.245 144.127 307.816 145.606C308.434 147.218 304.348 150.93 301.375 150.063Z" fill="#407BFF" stroke="#263238" stroke-linecap="round" stroke-linejoin="round"/>
<path d="M301.375 150.063L305.455 146.907" stroke="#263238" stroke-width="0.5" stroke-linecap="round" stroke-linejoin="round"/>
<path d="M299.391 135.885L302.242 132.173" stroke="#263238" stroke-width="2" stroke-linecap="round" stroke-linejoin="round"/>
<path d="M301.375 133.31C301.327 132.792 301.39 132.271 301.561 131.78C301.731 131.289 302.006 130.84 302.365 130.464C303.109 129.643 307.245 127.374 307.816 128.853C308.434 130.439 304.348 134.152 301.375 133.31Z" fill="#407BFF" stroke="#263238" stroke-linecap="round" stroke-linejoin="round"/>
<path d="M301.375 133.284L305.455 130.128" stroke="#263238" stroke-width="0.5" stroke-linecap="round" stroke-linejoin="round"/>
<path d="M299.391 122.697L302.242 118.979" stroke="#263238" stroke-width="2" stroke-linecap="round" stroke-linejoin="round"/>
<path d="M301.375 120.096C301.327 119.578 301.39 119.055 301.561 118.563C301.731 118.071 302.005 117.622 302.365 117.245C303.109 116.424 307.245 114.154 307.816 115.633C308.434 117.245 304.348 120.963 301.375 120.096Z" fill="#407BFF" stroke="#263238" stroke-linecap="round" stroke-linejoin="round"/>
<path d="M301.375 120.096L305.455 116.939" stroke="#263238" stroke-width="0.5" stroke-linecap="round" stroke-linejoin="round"/>
<path d="M299.228 114.246C299.177 113.725 299.24 113.2 299.41 112.705C299.581 112.211 299.856 111.759 300.217 111.38C300.962 110.559 305.098 108.289 305.669 109.768C306.286 111.38 302.201 115.113 299.228 114.246Z" fill="#407BFF" stroke="#263238" stroke-linecap="round" stroke-linejoin="round"/>
<path d="M299.227 114.246L303.307 111.089" stroke="#263238" stroke-width="0.5" stroke-linecap="round" stroke-linejoin="round"/>
<path d="M299.423 114.44C298.903 114.433 298.39 114.315 297.919 114.094C297.448 113.872 297.031 113.552 296.694 113.155C295.955 112.329 294.144 107.978 295.674 107.545C297.357 107.101 300.596 111.553 299.423 114.44Z" fill="#407BFF" stroke="#263238" stroke-linecap="round" stroke-linejoin="round"/>
<path d="M299.424 114.42L296.711 110.034" stroke="#263238" stroke-width="0.5" stroke-linecap="round" stroke-linejoin="round"/>
<path d="M80.1016 197.325H319.011" stroke="#263238" stroke-linecap="round" stroke-linejoin="round"/>
<path d="M171.841 45.7532H96.2133C95.043 45.7519 93.8854 45.9954 92.8148 46.4679C91.7441 46.9404 90.7841 47.6316 89.9964 48.497C89.1047 49.3285 88.4043 50.3438 87.9437 51.4728C87.4832 52.6017 87.2735 53.8172 87.3291 55.0352L88.9254 89.8427V183.132C88.9254 185.161 89.7313 187.107 91.166 188.541C92.6007 189.976 94.5465 190.782 96.5754 190.782H170.576C172.697 190.692 174.706 189.809 176.207 188.308C177.707 186.808 178.59 184.798 178.68 182.678V89.399L180.277 54.5915C180.329 53.4508 180.15 52.3114 179.749 51.242C179.349 50.1725 178.736 49.1953 177.948 48.3693C177.16 47.5433 176.212 46.8856 175.162 46.4359C174.113 45.9863 172.983 45.754 171.841 45.7532Z" stroke="#263238" stroke-linecap="round" stroke-linejoin="round"/>
<path d="M96.3594 58.8806V84.2429H171.355V58.8806H96.3594ZM167.652 80.5403H100.062V62.5781H167.652V80.5403Z" fill="#263238" stroke="#263238" stroke-linecap="round" stroke-linejoin="round"/>
<path d="M131.807 98.6351H99.0347C97.6348 98.6351 96.5 99.7699 96.5 101.17V107.203C96.5 108.603 97.6348 109.738 99.0347 109.738H131.807C133.207 109.738 134.342 108.603 134.342 107.203V101.17C134.342 99.7699 133.207 98.6351 131.807 98.6351Z" stroke="#263238" stroke-linecap="round" stroke-linejoin="round"/>
<path d="M104.453 98.7728V109.743" stroke="#263238" stroke-linecap="round" stroke-linejoin="round"/>
<path d="M112.086 98.7728V109.743" stroke="#263238" stroke-linecap="round" stroke-linejoin="round"/>
<path d="M119.711 98.7728V109.743" stroke="#263238" stroke-linecap="round" stroke-linejoin="round"/>
<path d="M127.352 98.7728V109.743" stroke="#263238" stroke-linecap="round" stroke-linejoin="round"/>
<path d="M155.416 104.74H145.97C144.861 104.74 143.961 105.639 143.961 106.749V111.446C143.961 112.556 144.861 113.456 145.97 113.456H155.416C156.525 113.456 157.425 112.556 157.425 111.446V106.749C157.425 105.639 156.525 104.74 155.416 104.74Z" fill="#263238" stroke="#263238" stroke-linecap="round" stroke-linejoin="round"/>
<path d="M108.181 116.771H98.736C97.6262 116.771 96.7266 117.67 96.7266 118.78V125.022C96.7266 126.132 97.6262 127.032 98.736 127.032H108.181C109.291 127.032 110.191 126.132 110.191 125.022V118.78C110.191 117.67 109.291 116.771 108.181 116.771Z" fill="#263238" stroke="#263238" stroke-linecap="round" stroke-linejoin="round"/>
<path d="M123.962 116.771H114.517C113.407 116.771 112.508 117.67 112.508 118.78V125.022C112.508 126.132 113.407 127.032 114.517 127.032H123.962C125.072 127.032 125.972 126.132 125.972 125.022V118.78C125.972 117.67 125.072 116.771 123.962 116.771Z" fill="#263238" stroke="#263238" stroke-linecap="round" stroke-linejoin="round"/>
<path d="M139.744 116.771H130.298C129.189 116.771 128.289 117.67 128.289 118.78V125.022C128.289 126.132 129.189 127.032 130.298 127.032H139.744C140.853 127.032 141.753 126.132 141.753 125.022V118.78C141.753 117.67 140.853 116.771 139.744 116.771Z" fill="#263238" stroke="#263238" stroke-linecap="round" stroke-linejoin="round"/>
<path d="M155.525 116.771H146.08C144.97 116.771 144.07 117.67 144.07 118.78V125.022C144.07 126.132 144.97 127.032 146.08 127.032H155.525C156.635 127.032 157.534 126.132 157.534 125.022V118.78C157.534 117.67 156.635 116.771 155.525 116.771Z" fill="#263238" stroke="#263238" stroke-linecap="round" stroke-linejoin="round"/>
<path d="M171.306 116.771H161.861C160.751 116.771 159.852 117.67 159.852 118.78V125.022C159.852 126.132 160.751 127.032 161.861 127.032H171.306C172.416 127.032 173.316 126.132 173.316 125.022V118.78C173.316 117.67 172.416 116.771 171.306 116.771Z" fill="#263238" stroke="#263238" stroke-linecap="round" stroke-linejoin="round"/>
<path d="M108.181 130.561H98.736C97.6262 130.561 96.7266 131.461 96.7266 132.57V138.813C96.7266 139.923 97.6262 140.822 98.736 140.822H108.181C109.291 140.822 110.191 139.923 110.191 138.813V132.57C110.191 131.461 109.291 130.561 108.181 130.561Z" fill="#263238" stroke="#263238" stroke-linecap="round" stroke-linejoin="round"/>
<path d="M123.962 130.561H114.517C113.407 130.561 112.508 131.461 112.508 132.57V138.813C112.508 139.923 113.407 140.822 114.517 140.822H123.962C125.072 140.822 125.972 139.923 125.972 138.813V132.57C125.972 131.461 125.072 130.561 123.962 130.561Z" fill="#263238" stroke="#263238" stroke-linecap="round" stroke-linejoin="round"/>
<path d="M139.744 130.561H130.298C129.189 130.561 128.289 131.461 128.289 132.57V138.813C128.289 139.923 129.189 140.822 130.298 140.822H139.744C140.853 140.822 141.753 139.923 141.753 138.813V132.57C141.753 131.461 140.853 130.561 139.744 130.561Z" fill="#263238" stroke="#263238" stroke-linecap="round" stroke-linejoin="round"/>
<path d="M155.525 130.561H146.08C144.97 130.561 144.07 131.461 144.07 132.57V138.813C144.07 139.923 144.97 140.822 146.08 140.822H155.525C156.635 140.822 157.534 139.923 157.534 138.813V132.57C157.534 131.461 156.635 130.561 155.525 130.561Z" fill="#263238" stroke="#263238" stroke-linecap="round" stroke-linejoin="round"/>
<path d="M171.306 130.561H161.861C160.751 130.561 159.852 131.461 159.852 132.57V138.813C159.852 139.923 160.751 140.822 161.861 140.822H171.306C172.416 140.822 173.316 139.923 173.316 138.813V132.57C173.316 131.461 172.416 130.561 171.306 130.561Z" fill="#263238" stroke="#263238" stroke-linecap="round" stroke-linejoin="round"/>
<path d="M108.181 144.357H98.736C97.6262 144.357 96.7266 145.256 96.7266 146.366V152.608C96.7266 153.718 97.6262 154.618 98.736 154.618H108.181C109.291 154.618 110.191 153.718 110.191 152.608V146.366C110.191 145.256 109.291 144.357 108.181 144.357Z" fill="#263238" stroke="#263238" stroke-linecap="round" stroke-linejoin="round"/>
<path d="M123.962 144.357H114.517C113.407 144.357 112.508 145.256 112.508 146.366V152.608C112.508 153.718 113.407 154.618 114.517 154.618H123.962C125.072 154.618 125.972 153.718 125.972 152.608V146.366C125.972 145.256 125.072 144.357 123.962 144.357Z" fill="#263238" stroke="#263238" stroke-linecap="round" stroke-linejoin="round"/>
<path d="M139.744 144.357H130.298C129.189 144.357 128.289 145.256 128.289 146.366V152.608C128.289 153.718 129.189 154.618 130.298 154.618H139.744C140.853 154.618 141.753 153.718 141.753 152.608V146.366C141.753 145.256 140.853 144.357 139.744 144.357Z" fill="#263238" stroke="#263238" stroke-linecap="round" stroke-linejoin="round"/>
<path d="M155.525 144.357H146.08C144.97 144.357 144.07 145.256 144.07 146.366V152.608C144.07 153.718 144.97 154.618 146.08 154.618H155.525C156.635 154.618 157.534 153.718 157.534 152.608V146.366C157.534 145.256 156.635 144.357 155.525 144.357Z" fill="#263238" stroke="#263238" stroke-linecap="round" stroke-linejoin="round"/>
<path d="M171.306 144.357H161.861C160.751 144.357 159.852 145.256 159.852 146.366V152.608C159.852 153.718 160.751 154.618 161.861 154.618H171.306C172.416 154.618 173.316 153.718 173.316 152.608V146.366C173.316 145.256 172.416 144.357 171.306 144.357Z" fill="#263238" stroke="#263238" stroke-linecap="round" stroke-linejoin="round"/>
<path d="M108.181 158.152H98.736C97.6262 158.152 96.7266 159.052 96.7266 160.161V166.404C96.7266 167.514 97.6262 168.413 98.736 168.413H108.181C109.291 168.413 110.191 167.514 110.191 166.404V160.161C110.191 159.052 109.291 158.152 108.181 158.152Z" fill="#263238" stroke="#263238" stroke-linecap="round" stroke-linejoin="round"/>
<path d="M123.962 158.152H114.517C113.407 158.152 112.508 159.052 112.508 160.161V166.404C112.508 167.514 113.407 168.413 114.517 168.413H123.962C125.072 168.413 125.972 167.514 125.972 166.404V160.161C125.972 159.052 125.072 158.152 123.962 158.152Z" fill="#263238" stroke="#263238" stroke-linecap="round" stroke-linejoin="round"/>
<path d="M139.744 158.152H130.298C129.189 158.152 128.289 159.052 128.289 160.161V166.404C128.289 167.514 129.189 168.413 130.298 168.413H139.744C140.853 168.413 141.753 167.514 141.753 166.404V160.161C141.753 159.052 140.853 158.152 139.744 158.152Z" fill="#263238" stroke="#263238" stroke-linecap="round" stroke-linejoin="round"/>
<path d="M155.525 158.152H146.08C144.97 158.152 144.07 159.052 144.07 160.161V166.404C144.07 167.514 144.97 168.413 146.08 168.413H155.525C156.635 168.413 157.534 167.514 157.534 166.404V160.161C157.534 159.052 156.635 158.152 155.525 158.152Z" fill="#263238" stroke="#263238" stroke-linecap="round" stroke-linejoin="round"/>
<path d="M108.181 171.948H98.736C97.6262 171.948 96.7266 172.847 96.7266 173.957V180.199C96.7266 181.309 97.6262 182.209 98.736 182.209H108.181C109.291 182.209 110.191 181.309 110.191 180.199V173.957C110.191 172.847 109.291 171.948 108.181 171.948Z" fill="#263238" stroke="#263238" stroke-linecap="round" stroke-linejoin="round"/>
<path d="M123.962 171.948H114.517C113.407 171.948 112.508 172.847 112.508 173.957V180.199C112.508 181.309 113.407 182.209 114.517 182.209H123.962C125.072 182.209 125.972 181.309 125.972 180.199V173.957C125.972 172.847 125.072 171.948 123.962 171.948Z" fill="#263238" stroke="#263238" stroke-linecap="round" stroke-linejoin="round"/>
<path d="M139.744 171.948H130.298C129.189 171.948 128.289 172.847 128.289 173.957V180.199C128.289 181.309 129.189 182.209 130.298 182.209H139.744C140.853 182.209 141.753 181.309 141.753 180.199V173.957C141.753 172.847 140.853 171.948 139.744 171.948Z" fill="#263238" stroke="#263238" stroke-linecap="round" stroke-linejoin="round"/>
<path d="M155.525 171.948H146.08C144.97 171.948 144.07 172.847 144.07 173.957V180.199C144.07 181.309 144.97 182.209 146.08 182.209H155.525C156.635 182.209 157.534 181.309 157.534 180.199V173.957C157.534 172.847 156.635 171.948 155.525 171.948Z" fill="#263238" stroke="#263238" stroke-linecap="round" stroke-linejoin="round"/>
<path d="M171.27 158.152H161.892C161.351 158.152 160.832 158.367 160.449 158.75C160.066 159.132 159.852 159.651 159.852 160.192V180.169C159.852 180.71 160.066 181.229 160.449 181.611C160.832 181.994 161.351 182.209 161.892 182.209H171.27C171.812 182.209 172.33 181.994 172.713 181.611C173.096 181.229 173.31 180.71 173.31 180.169V160.192C173.31 159.651 173.096 159.132 172.713 158.75C172.33 158.367 171.812 158.152 171.27 158.152Z" fill="#263238" stroke="#263238" stroke-linecap="round" stroke-linejoin="round"/>
<path d="M171.306 104.74H161.861C160.751 104.74 159.852 105.639 159.852 106.749V111.446C159.852 112.556 160.751 113.456 161.861 113.456H171.306C172.416 113.456 173.316 112.556 173.316 111.446V106.749C173.316 105.639 172.416 104.74 171.306 104.74Z" fill="#263238" stroke="#263238" stroke-linecap="round" stroke-linejoin="round"/>
<path d="M135.135 71.2991C135.256 71.0791 135.436 70.8974 135.655 70.7748C135.875 70.6522 136.124 70.5935 136.374 70.6055C137.456 70.6055 137.904 71.396 137.904 72.5894V74.2265C137.904 75.5066 137.298 76.3481 136.017 76.3481C134.737 76.3481 134.141 75.5066 134.141 74.2265V73.6655H135.013V74.2877C135.013 75.0425 135.324 75.4964 135.992 75.4964C136.66 75.4964 136.971 75.0425 136.971 74.2877V72.6608C136.971 71.906 136.66 71.4521 135.992 71.4521C135.87 71.4466 135.749 71.4657 135.635 71.5083C135.521 71.5508 135.417 71.616 135.329 71.6998C135.241 71.7837 135.171 71.8844 135.122 71.9961C135.074 72.1078 135.049 72.228 135.048 72.3497V72.5435H134.176L134.401 67.8872H137.736V68.7287H135.273L135.135 71.2991Z" fill="#263238"/>
<path d="M139.23 76.2614H138.883V75.1037H139.77V76.19L139.301 77.3273H138.919L139.23 76.2614Z" fill="#263238"/>
<path d="M144.58 69.8762V70.1363C144.58 70.988 144.279 71.6102 143.621 71.8601C144.315 72.1355 144.58 72.7934 144.58 73.6298V74.252C144.58 75.5423 143.907 76.3481 142.607 76.3481C141.306 76.3481 140.633 75.5423 140.633 74.252V73.64C140.633 72.7934 140.893 72.1559 141.602 71.8703C140.918 71.6102 140.633 70.9982 140.633 70.1465V69.8864C140.633 68.5961 141.316 67.8158 142.607 67.8158C143.897 67.8158 144.58 68.5859 144.58 69.8762ZM141.551 69.8762V70.2842C141.551 71.1002 141.949 71.4572 142.607 71.4572C143.264 71.4572 143.657 71.1002 143.657 70.2842V69.8762C143.657 69.0194 143.264 68.6216 142.607 68.6216C141.949 68.6216 141.551 69.05 141.551 69.8966V69.8762ZM141.551 73.5023V74.2061C141.551 75.068 141.938 75.476 142.607 75.476C143.275 75.476 143.627 75.068 143.657 74.2061V73.5023C143.657 72.6914 143.3 72.2936 142.607 72.2936C141.913 72.2936 141.551 72.7118 141.551 73.5227V73.5023Z" fill="#263238"/>
<path d="M149.176 69.9119V74.1806C149.176 75.5066 148.58 76.3481 147.243 76.3481C145.907 76.3481 145.351 75.5219 145.351 74.2418V74.0837H146.223V74.303C146.223 75.0527 146.545 75.4964 147.218 75.4964C147.891 75.4964 148.238 75.0425 148.238 74.1551V72.2783C148.141 72.5531 147.958 72.7888 147.714 72.9491C147.471 73.1094 147.182 73.1854 146.891 73.1657C145.81 73.1657 145.336 72.4007 145.336 71.192V69.9119C145.336 68.6318 145.958 67.8056 147.248 67.8056C148.539 67.8056 149.176 68.6318 149.176 69.9119ZM146.259 69.8609V71.1206C146.259 71.8703 146.585 72.3293 147.254 72.3293C147.922 72.3293 148.243 71.8703 148.243 71.1206V69.8609C148.243 69.0959 147.937 68.6573 147.254 68.6573C146.57 68.6573 146.259 69.0959 146.259 69.8609Z" fill="#263238"/>
<path d="M153.847 69.9221C153.847 72.4466 151.011 73.3544 151.001 75.2822V75.4148H153.75V76.2614H150.078V75.5423C150.078 72.8393 152.914 72.314 152.914 69.9578C152.914 69.0959 152.628 68.642 151.935 68.642C151.241 68.642 150.95 69.152 150.95 69.8762V70.6157H150.078V69.9374C150.078 68.6573 150.665 67.8056 151.955 67.8056C153.245 67.8056 153.847 68.642 153.847 69.9221Z" fill="#263238"/>
<path d="M155.585 75.1037V76.2614H154.688V75.1037H155.585Z" fill="#263238"/>
<path d="M157.489 71.2991C157.611 71.0783 157.792 70.8961 158.012 70.7734C158.232 70.6507 158.482 70.5925 158.734 70.6055C159.81 70.6055 160.264 71.396 160.264 72.5894V74.2265C160.264 75.5066 159.657 76.3481 158.377 76.3481C157.097 76.3481 156.5 75.5066 156.5 74.2265V73.6655H157.372V74.2877C157.372 75.0425 157.683 75.4964 158.351 75.4964C159.019 75.4964 159.336 75.0425 159.336 74.2877V72.6608C159.336 71.906 159.024 71.4521 158.351 71.4521C158.23 71.4466 158.108 71.4657 157.994 71.5083C157.881 71.5508 157.776 71.616 157.688 71.6998C157.6 71.7837 157.53 71.8844 157.482 71.9961C157.433 72.1078 157.408 72.228 157.408 72.3497V72.5435H156.536L156.76 67.8872H160.065V68.7287H157.622L157.489 71.2991Z" fill="#263238"/>
<path d="M164.939 69.8966V70.07H164.062V69.8558C164.062 69.101 163.751 68.6573 163.073 68.6573C162.394 68.6573 162.053 69.1112 162.053 70.0088V71.8856C162.151 71.6108 162.336 71.3754 162.58 71.2145C162.823 71.0536 163.113 70.9759 163.404 70.9931C164.48 70.9931 164.934 71.7683 164.934 72.977V74.2418C164.934 75.5219 164.302 76.3634 163.022 76.3634C161.741 76.3634 161.094 75.5219 161.094 74.2418V69.9731C161.094 68.6471 161.696 67.8209 163.022 67.8209C164.348 67.8209 164.939 68.6216 164.939 69.8966ZM162.053 73.0331V74.2877C162.053 75.0425 162.364 75.4964 163.047 75.4964C163.73 75.4964 164.067 75.0425 164.067 74.2877V73.0331C164.067 72.2783 163.741 71.8244 163.047 71.8244C162.353 71.8244 162.053 72.2783 162.053 73.0331Z" fill="#263238"/>
<path d="M160.011 197.335L147.398 208.306L164.172 209.315L175.27 198.09L160.011 197.335Z" fill="white" stroke="#263238" stroke-linecap="round" stroke-linejoin="round"/>
<path d="M175.269 198.09L191.416 198.845L181.323 210.575L164.172 209.315L175.269 198.09Z" fill="white" stroke="#263238" stroke-linecap="round" stroke-linejoin="round"/>
<path d="M159.18 200.691L168.839 201.405" stroke="#263238" stroke-linecap="round" stroke-linejoin="round"/>
<path d="M155.055 203.251L167.274 203.96" stroke="#263238" stroke-linecap="round" stroke-linejoin="round"/>
<path d="M153.211 205.383L165.002 206.235" stroke="#263238" stroke-linecap="round" stroke-linejoin="round"/>
<path d="M169.266 206.801L181.485 207.658" stroke="#263238" stroke-linecap="round" stroke-linejoin="round"/>
<path d="M147.398 208.305L147.148 209.315L164.172 210.325V209.315L147.398 208.305Z" fill="#263238" stroke="#263238" stroke-linecap="round" stroke-linejoin="round"/>
<path d="M164.172 209.693V210.325L181.701 211.585L191.289 199.727L190.911 199.1L181.323 210.575L164.172 209.693Z" fill="#263238" stroke="#263238" stroke-linecap="round" stroke-linejoin="round"/>
<path d="M203.02 200.487L193.055 213.349L213.485 214.232L220.421 200.992L203.02 200.487Z" fill="#919191" stroke="#263238" stroke-linecap="round" stroke-linejoin="round"/>
<path d="M192.804 212.595L191.539 213.982L212.602 214.992L213.234 213.349L192.804 212.595Z" fill="#919191" stroke="#263238" stroke-linecap="round" stroke-linejoin="round"/>
<path d="M213.234 213.349L213.484 214.232L220.42 200.992L220.634 201.655L213.601 215.777L212.602 214.992L213.234 213.349Z" fill="#263238" stroke="#263238" stroke-linecap="round" stroke-linejoin="round"/>
<path d="M207.774 204.649L209.182 202.573L206.902 202.497L205.352 204.526L207.774 204.649Z" fill="white" stroke="#263238" stroke-linecap="round" stroke-linejoin="round"/>
<path d="M203.442 205.414L201.065 205.291L200.203 206.347L202.682 206.408L203.442 205.414Z" fill="white" stroke="#263238" stroke-linecap="round" stroke-linejoin="round"/>
<path d="M201.881 209.081L201.039 210.177L203.972 210.279L204.731 209.157L201.881 209.081Z" fill="white" stroke="#263238" stroke-linecap="round" stroke-linejoin="round"/>
<path d="M201.952 207.367L199.417 207.311L198.836 208.02L201.406 208.086L201.952 207.367Z" fill="white" stroke="#263238" stroke-linecap="round" stroke-linejoin="round"/>
<path d="M205.117 210.32L208.6 210.437L209.304 209.28L205.882 209.188L205.117 210.32Z" fill="white" stroke="#263238" stroke-linecap="round" stroke-linejoin="round"/>
<path d="M212.062 206.628L216.066 206.719L216.433 206.062L212.527 205.868L212.062 206.628Z" fill="white" stroke="#263238" stroke-linecap="round" stroke-linejoin="round"/>
<path d="M213.102 204.914L216.967 205.108L218.212 202.869L214.417 202.746L213.102 204.914Z" fill="white" stroke="#263238" stroke-linecap="round" stroke-linejoin="round"/>
<path d="M211.023 208.346L215.098 208.453L215.527 207.688L211.477 207.591L211.023 208.346Z" fill="white" stroke="#263238" stroke-linecap="round" stroke-linejoin="round"/>
<path d="M202.609 208.122L205.384 208.193L205.878 207.459L203.16 207.398L202.609 208.122Z" fill="white" stroke="#263238" stroke-linecap="round" stroke-linejoin="round"/>
<path d="M211.989 204.858L213.295 202.706L210.332 202.609L208.914 204.705L211.989 204.858Z" fill="white" stroke="#263238" stroke-linecap="round" stroke-linejoin="round"/>
<path d="M210.435 209.31L209.727 210.478L213.893 210.616L214.561 209.417L210.435 209.31Z" fill="white" stroke="#263238" stroke-linecap="round" stroke-linejoin="round"/>
<path d="M204.164 204.465L205.699 202.456L203.455 202.384L201.844 204.353L204.164 204.465Z" fill="white" stroke="#263238" stroke-linecap="round" stroke-linejoin="round"/>
<path d="M200.665 209.045L198.049 208.979L197.172 210.045L199.834 210.136L200.665 209.045Z" fill="white" stroke="#263238" stroke-linecap="round" stroke-linejoin="round"/>
<path d="M203.891 206.434L206.522 206.495L207.134 205.597L204.63 205.47L203.891 206.434Z" fill="white" stroke="#263238" stroke-linecap="round" stroke-linejoin="round"/>
<path d="M211.416 205.812L208.279 205.654L207.688 206.526L210.936 206.602L211.416 205.812Z" fill="white" stroke="#263238" stroke-linecap="round" stroke-linejoin="round"/>
<path d="M210.349 207.566L207.034 207.49L206.539 208.224L209.895 208.316L210.349 207.566Z" fill="white" stroke="#263238" stroke-linecap="round" stroke-linejoin="round"/>
<path d="M191.539 213.982L192.85 214.726L213.602 215.777L212.602 214.992L191.539 213.982Z" fill="#263238" stroke="#263238" stroke-linecap="round" stroke-linejoin="round"/>
<path d="M194.969 212.656L195.948 211.269L213.155 211.921L212.013 213.39L194.969 212.656Z" fill="white" stroke="#263238" stroke-linecap="round" stroke-linejoin="round"/>
<path d="M137.343 193.021C141.562 193.021 144.983 191.925 144.983 190.573C144.983 189.221 141.562 188.125 137.343 188.125C133.124 188.125 129.703 189.221 129.703 190.573C129.703 191.925 133.124 193.021 137.343 193.021Z" fill="white" stroke="#263238" stroke-linecap="round" stroke-linejoin="round"/>
<path d="M138.086 181.388L139.106 179.246L139.55 181.546L137.642 199.564C137.633 199.66 137.604 199.753 137.558 199.838C137.513 199.923 137.45 199.998 137.376 200.059C137.301 200.119 137.214 200.165 137.122 200.192C137.029 200.219 136.932 200.227 136.836 200.217C136.643 200.196 136.466 200.1 136.343 199.949C136.221 199.798 136.164 199.604 136.184 199.411L138.086 181.388Z" fill="white" stroke="#263238" stroke-linecap="round" stroke-linejoin="round"/>
<path d="M136.204 199.411C136.195 199.599 136.258 199.783 136.38 199.925C136.502 200.068 136.674 200.158 136.861 200.178C137.048 200.198 137.235 200.145 137.384 200.031C137.533 199.917 137.633 199.75 137.663 199.564L137.994 196.448L136.536 196.31L136.204 199.411Z" fill="white" stroke="#263238" stroke-linecap="round" stroke-linejoin="round"/>
<path d="M136.829 200.217C136.924 200.227 137.021 200.219 137.114 200.192C137.207 200.165 137.293 200.119 137.368 200.059C137.443 199.998 137.505 199.923 137.551 199.838C137.596 199.753 137.625 199.66 137.634 199.564L137.879 197.269L136.421 197.101L136.176 199.411C136.156 199.604 136.213 199.798 136.336 199.949C136.458 200.1 136.635 200.196 136.829 200.217Z" fill="white" stroke="#263238" stroke-linecap="round" stroke-linejoin="round"/>
<path d="M138.088 181.388L138.078 181.505L139.537 181.673L139.547 181.546L139.103 179.246L138.088 181.388Z" fill="white" stroke="#263238" stroke-linecap="round" stroke-linejoin="round"/>
<path d="M142.643 182.958L144.244 181.209L143.994 183.54L136.854 200.186C136.777 200.365 136.632 200.505 136.452 200.578C136.271 200.65 136.07 200.649 135.89 200.574C135.712 200.496 135.571 200.352 135.499 200.171C135.426 199.991 135.428 199.789 135.503 199.61L142.643 182.958Z" fill="#263238" stroke="#263238" stroke-linecap="round" stroke-linejoin="round"/>
<path d="M135.481 199.61C135.404 199.789 135.402 199.991 135.475 200.172C135.548 200.353 135.689 200.497 135.868 200.574C136.048 200.65 136.25 200.652 136.431 200.58C136.611 200.507 136.756 200.366 136.832 200.186L138.066 197.31L136.71 196.744L135.481 199.61Z" fill="white" stroke="#263238" stroke-linecap="round" stroke-linejoin="round"/>
<path d="M135.875 200.574C136.054 200.649 136.256 200.65 136.436 200.578C136.617 200.505 136.761 200.365 136.839 200.186L137.736 198.08L136.39 197.488L135.472 199.625C135.402 199.805 135.405 200.004 135.481 200.181C135.556 200.358 135.697 200.499 135.875 200.574Z" fill="white" stroke="#263238" stroke-linecap="round" stroke-linejoin="round"/>
<path d="M142.64 182.958L142.594 183.066L143.94 183.657L143.991 183.54L144.241 181.209L142.64 182.958Z" fill="white" stroke="#263238" stroke-linecap="round" stroke-linejoin="round"/>
<path d="M135.977 198.814L134.508 198.763L135.084 180.653C135.087 180.557 135.108 180.462 135.148 180.374C135.187 180.287 135.244 180.208 135.314 180.142C135.384 180.076 135.467 180.024 135.557 179.991C135.647 179.957 135.743 179.941 135.839 179.944C135.935 179.947 136.03 179.969 136.118 180.008C136.206 180.048 136.285 180.104 136.351 180.174C136.416 180.244 136.468 180.327 136.502 180.417C136.536 180.507 136.551 180.603 136.548 180.699L135.977 198.814Z" fill="#263238" stroke="#263238" stroke-linecap="round" stroke-linejoin="round"/>
<path d="M136.542 180.699C136.534 180.514 136.456 180.34 136.324 180.21C136.192 180.08 136.017 180.005 135.832 179.999C135.647 179.993 135.467 180.057 135.327 180.179C135.187 180.3 135.099 180.469 135.079 180.653L134.977 183.785L136.445 183.815L136.542 180.699Z" fill="white" stroke="#263238" stroke-linecap="round" stroke-linejoin="round"/>
<path d="M135.839 179.944C135.743 179.941 135.647 179.957 135.557 179.991C135.467 180.024 135.384 180.076 135.314 180.142C135.244 180.208 135.187 180.287 135.148 180.374C135.109 180.462 135.087 180.557 135.084 180.653L135.008 182.964L136.477 183.02L136.548 180.699C136.551 180.603 136.536 180.507 136.502 180.417C136.468 180.327 136.417 180.244 136.351 180.174C136.285 180.104 136.206 180.048 136.118 180.008C136.03 179.969 135.935 179.947 135.839 179.944Z" fill="white" stroke="#263238" stroke-linecap="round" stroke-linejoin="round"/>
<path d="M137.345 193.021C133.123 193.021 129.695 191.924 129.695 190.573V207.867C129.695 209.218 133.112 210.315 137.345 210.315C141.578 210.315 144.995 209.218 144.995 207.867V190.573C144.98 191.924 141.563 193.021 137.345 193.021Z" fill="white" stroke="#263238" stroke-linecap="round" stroke-linejoin="round"/>
<path d="M214.291 169.755C213.373 178.027 212.807 189.645 212.761 197.346H263.129C263.078 189.624 262.512 178.027 261.599 169.755C260.64 161.11 263.328 158.025 265.056 147.855C266.785 137.686 265.827 115.96 264.291 113.843C263.593 112.884 261.945 112.599 260.349 112.573C259.199 116.469 256.986 119.968 253.959 122.676C245.957 129.852 231.152 131.918 220.809 122.126C218.084 119.551 216.178 116.23 215.331 112.578C213.801 112.624 212.271 112.925 211.588 113.843C210.058 115.96 209.089 137.67 210.818 147.855C212.547 158.04 215.25 161.11 214.291 169.755Z" fill="#263238" stroke="#263238" stroke-linecap="round" stroke-linejoin="round"/>
<path d="M259.107 100.201C260.847 109.212 258.337 116.919 252.763 121.917C245.368 128.547 231.675 130.454 222.138 121.407C212.601 112.359 217.395 97.712 221.061 97.712C224.728 97.712 258.475 96.9827 259.107 100.201Z" fill="#263238" stroke="#263238" stroke-linecap="round" stroke-linejoin="round"/>
<path d="M208.303 196.876C208.303 196.876 203.045 197.488 202.31 197.488C201.576 197.488 201.209 198.345 202.188 199.202C203.167 200.059 206.472 199.569 206.472 199.569L208.303 196.876Z" fill="white" stroke="#263238" stroke-linecap="round" stroke-linejoin="round"/>
<path d="M207.773 129.317V134.84C207.773 134.84 198.481 139.568 194.564 141.037C190.648 142.505 187.878 143.811 187.389 146.091C186.899 148.37 182.171 169.581 181.845 172.187C181.519 174.793 179.071 177.246 179.071 178.71C179.03 179.432 179.141 180.155 179.397 180.832C179.397 180.832 180.539 186.212 184.451 188.334C188.363 190.456 191.627 187.824 193.422 186.375C195.217 184.927 196.992 181.158 196.992 181.158C196.992 181.158 195.686 193.719 195.523 194.857C195.419 195.669 195.365 196.486 195.36 197.305H242.168C242.074 187.553 242.565 177.805 243.637 168.112C244.279 162.11 243.127 143.321 241.352 140.572C239.577 137.823 234.829 136.334 230.754 135.192C226.679 134.05 221.457 133.07 221.457 133.07L221.294 130.949L207.773 129.317Z" fill="white" stroke="#263238" stroke-linecap="round" stroke-linejoin="round"/>
<path d="M193.711 161.125L193.094 157.367" stroke="#263238" stroke-linecap="round" stroke-linejoin="round"/>
<path d="M197.006 181.179L194.094 163.471" stroke="#263238" stroke-linecap="round" stroke-linejoin="round"/>
<path d="M214.134 148.069C225.354 149.472 236.992 138.991 238.451 138.033C236.247 136.783 233.376 135.916 230.77 135.187C226.69 134.044 221.473 133.065 221.473 133.065L221.309 130.944L207.769 129.317V134.84C207.769 134.84 201.649 137.951 197.258 139.909C201.799 144.459 207.748 147.335 214.134 148.069Z" fill="white" stroke="#263238" stroke-linecap="round" stroke-linejoin="round"/>
<path d="M207.772 134.84C207.621 137.082 207.35 139.313 206.961 141.526" stroke="#263238" stroke-linecap="round" stroke-linejoin="round"/>
<path d="M221.477 133.065C221.477 133.065 221.803 137.793 222.293 139.425" stroke="#263238" stroke-linecap="round" stroke-linejoin="round"/>
<path d="M226.137 93.8717C223.138 92.1581 216.891 90.9239 213.509 91.6226C209.904 92.3621 205.176 93.9227 201.453 97.1816C194.481 103.302 197.052 112.599 197.664 113.451L198.276 114.307C197.985 116.661 197.535 118.992 196.929 121.284C195.828 125.686 201.208 129.954 207.813 131.188C214.417 132.423 225.061 131.433 232.033 129.358C239.004 127.282 240.239 121.769 237.785 113.573C235.332 105.377 232.685 97.9568 228.651 95.3915C227.749 94.8152 226.907 94.3103 226.137 93.8717Z" fill="#407BFF" stroke="#263238" stroke-linecap="round" stroke-linejoin="round"/>
<path d="M213.008 101.455C213.509 101.328 214.021 101.25 214.538 101.221" stroke="#263238" stroke-linecap="round" stroke-linejoin="round"/>
<path d="M199.863 113.818C199.863 113.818 198.155 113.211 198.884 110.758C199.481 108.769 206.131 103.878 211.293 101.981" stroke="#263238" stroke-linecap="round" stroke-linejoin="round"/>
<path d="M211.57 97.1867C212.131 97.1255 212.713 97.0847 213.32 97.0643" stroke="#263238" stroke-linecap="round" stroke-linejoin="round"/>
<path d="M197.398 108.83C197.398 108.83 199.331 99.4664 209.98 97.4519" stroke="#263238" stroke-linecap="round" stroke-linejoin="round"/>
<path d="M218.142 95.2028C217.183 96.9776 216.041 99.3848 215.766 101.221" stroke="#263238" stroke-linecap="round" stroke-linejoin="round"/>
<path d="M219.559 92.7803C219.559 92.7803 219.412 93.0098 219.172 93.4076" stroke="#263238" stroke-linecap="round" stroke-linejoin="round"/>
<path d="M226.297 99.4205C230.123 102.952 233.055 107.344 234.85 112.232" stroke="#263238" stroke-linecap="round" stroke-linejoin="round"/>
<path d="M222.25 96.4523C223.313 97.0412 224.316 97.733 225.244 98.5178" stroke="#263238" stroke-linecap="round" stroke-linejoin="round"/>
<path d="M236.598 124.747C235.63 126.45 234.037 127.708 232.156 128.256" stroke="#263238" stroke-linecap="round" stroke-linejoin="round"/>
<path d="M226.648 104.648C226.648 104.648 237.782 115.287 237.537 121.162C237.512 121.834 237.411 122.501 237.236 123.151" stroke="#263238" stroke-linecap="round" stroke-linejoin="round"/>
<path d="M228.734 120.05C228.734 120.05 232.157 122.003 230.693 125.553C229.229 129.102 226.898 128.103 226.898 128.103" stroke="#263238" stroke-linecap="round" stroke-linejoin="round"/>
<path d="M215.423 103.536C212.677 106.306 209.56 108.681 206.162 110.595L200.281 113.976C200.281 113.976 203.81 127.057 205.427 129.556C207.044 132.055 209.834 135.727 213.806 135.727C217.779 135.727 223.655 129.995 223.945 128.97C224.236 127.945 225.562 122.646 225.562 122.646C226.225 122.227 226.739 121.61 227.031 120.881C227.224 120.062 227.324 119.224 227.327 118.382C227.327 118.382 220.697 112.063 218.361 109.269C216.955 107.608 215.95 105.647 215.423 103.536Z" fill="white" stroke="#263238" stroke-linecap="round" stroke-linejoin="round"/>
<path d="M210.657 117.026L200.86 116.373C200.774 116.367 200.687 116.38 200.607 116.413C200.527 116.445 200.456 116.496 200.399 116.56C200.342 116.625 200.3 116.702 200.277 116.785C200.255 116.869 200.252 116.956 200.268 117.041C200.564 118.525 201.319 121.855 202.339 122.651C203.665 123.671 207.577 123.513 208.372 123.513C210.06 123.513 211.045 118.948 211.152 118.438C211.154 118.406 211.154 118.374 211.152 118.341V117.607C211.157 117.466 211.109 117.328 211.017 117.22C210.926 117.113 210.797 117.043 210.657 117.026Z" stroke="#263238" stroke-width="2" stroke-linecap="round" stroke-linejoin="round"/>
<path d="M213.719 117.306L223.537 117.571C223.622 117.575 223.705 117.597 223.78 117.638C223.855 117.679 223.92 117.736 223.969 117.805C224.018 117.875 224.051 117.955 224.065 118.039C224.078 118.123 224.072 118.209 224.047 118.29C223.619 119.739 222.553 122.982 221.461 123.676C220.049 124.579 216.167 124.043 215.377 123.972C213.694 123.814 213.138 119.178 213.082 118.658C213.077 118.626 213.077 118.593 213.082 118.561L213.133 117.831C213.137 117.758 213.155 117.687 213.187 117.621C213.218 117.555 213.263 117.496 213.317 117.447C213.372 117.398 213.435 117.361 213.504 117.337C213.573 117.312 213.646 117.302 213.719 117.306Z" stroke="#263238" stroke-width="2" stroke-linecap="round" stroke-linejoin="round"/>
<path d="M210.648 117.026L213.708 117.306" stroke="#263238" stroke-width="2" stroke-linecap="round" stroke-linejoin="round"/>
<path d="M211.352 118.183L213.091 118.24" stroke="#263238" stroke-width="2" stroke-linecap="round" stroke-linejoin="round"/>
<path d="M224.164 117.913L225.74 116.883" stroke="#263238" stroke-width="2" stroke-linecap="round" stroke-linejoin="round"/>
<path d="M218.303 119.489C218.303 120.178 217.987 120.739 217.6 120.739C217.212 120.739 216.891 120.178 216.891 119.489C216.891 118.801 217.207 118.24 217.6 118.24C217.992 118.24 218.303 118.795 218.303 119.489Z" fill="#263238"/>
<path d="M207.553 119.214C207.553 119.907 207.237 120.463 206.85 120.463C206.462 120.463 206.141 119.907 206.141 119.214C206.141 118.52 206.457 117.969 206.85 117.969C207.242 117.969 207.553 118.52 207.553 119.214Z" fill="#263238"/>
<path d="M211.117 120.019C211.117 120.019 209.893 124.91 209.73 125.482C209.567 126.053 210.464 126.624 212.096 126.053" stroke="#263238" stroke-linecap="round" stroke-linejoin="round"/>
<path d="M209.727 128.745C209.727 128.745 212.664 129.475 214.949 128.582" stroke="#263238" stroke-linecap="round" stroke-linejoin="round"/>
<path d="M214.953 116.429C214.953 116.429 216.58 114.552 221.721 116.347" stroke="#263238" stroke-linecap="round" stroke-linejoin="round"/>
<path d="M209.973 116.021C209.973 116.021 206.958 113.655 203.531 115.511" stroke="#263238" stroke-linecap="round" stroke-linejoin="round"/>
<path d="M235.07 152.909C235.07 152.909 234.896 172.422 234.56 176.288C234.223 180.153 235.07 183.52 238.864 185.539C242.658 187.559 247.478 187.39 249.028 186.885C250.579 186.381 256.092 183.52 255.403 179.149C254.715 174.778 250.064 160.141 247.993 153.246C245.922 146.351 245.581 143.153 242.822 140.96C240.063 138.767 239.221 138.175 236.809 139.858" fill="white"/>
<path d="M235.07 152.909C235.07 152.909 234.896 172.422 234.56 176.288C234.223 180.153 235.07 183.52 238.864 185.539C242.658 187.559 247.478 187.39 249.028 186.885C250.579 186.381 256.092 183.52 255.403 179.149C254.715 174.778 250.064 160.141 247.993 153.246C245.922 146.351 245.581 143.153 242.822 140.96C240.063 138.767 239.221 138.175 236.809 139.858" stroke="#263238" stroke-linecap="round" stroke-linejoin="round"/>
<path d="M174.661 194.714L176.783 191.618C176.783 191.618 182.658 189.823 184.943 188.517C187.228 187.212 188.697 183.463 186.412 181.015C184.127 178.567 180.378 177.756 177.767 179.71C175.156 181.663 174.197 185.259 172.713 186.233C171.229 187.207 165.211 188.681 163.579 189.007C161.947 189.333 161.294 190.639 161.621 191.781C161.947 192.924 163.089 197.488 163.905 198.141C164.721 198.794 167.475 200.752 169.449 200.752C171.423 200.752 173.366 198.468 174.039 198.304C174.712 198.141 176.457 196.509 174.661 194.714Z" fill="white" stroke="#263238" stroke-linecap="round" stroke-linejoin="round"/>
<path d="M170.79 189.492C170.79 189.492 170.02 196.677 170.28 196.953C170.569 197.168 170.901 197.316 171.254 197.389C171.606 197.461 171.97 197.455 172.32 197.371C173.157 197.162 174.268 191.725 174.268 190.608C174.183 189.707 173.923 188.831 173.503 188.028" stroke="#263238" stroke-linecap="round" stroke-linejoin="round"/>
<path d="M165.906 190.047C165.906 190.047 168.278 194.306 169.186 194.933L170.093 195.561" stroke="#263238" stroke-linecap="round" stroke-linejoin="round"/>
<path d="M163.32 192.353C163.32 192.353 165.692 196.744 166.89 197.305C168.089 197.866 170.797 198.906 173.52 198.697" stroke="#263238" stroke-linecap="round" stroke-linejoin="round"/>
<path d="M166.287 183.183L169.189 194.913L170.025 195.188L170.168 193.934L167.684 182.831C167.66 182.737 167.617 182.648 167.558 182.571C167.499 182.494 167.425 182.429 167.34 182.382C167.255 182.334 167.161 182.304 167.064 182.293C166.967 182.283 166.87 182.292 166.777 182.321C166.6 182.374 166.451 182.494 166.359 182.654C166.268 182.815 166.242 183.004 166.287 183.183Z" fill="#263238" stroke="#263238" stroke-linecap="round" stroke-linejoin="round"/>
<path d="M165.211 198.978C165.211 198.978 168.271 200.023 169.046 200.161C170.029 200.331 171.04 200.236 171.974 199.885" stroke="#263238" stroke-linecap="round" stroke-linejoin="round"/>
<path d="M174.662 194.714C174.519 194.946 174.322 195.142 174.089 195.284C173.856 195.425 173.593 195.51 173.32 195.53" stroke="#263238" stroke-linecap="round" stroke-linejoin="round"/>
<path d="M237.684 180.74C237.684 180.74 219.834 192.47 218.844 192.98C217.855 193.49 208.078 196.157 206.604 197.014C205.13 197.871 204.156 201.543 203.544 202.762C202.932 203.981 202.32 207.413 202.32 207.413C202.539 207.641 202.808 207.814 203.105 207.921C203.402 208.027 203.72 208.063 204.034 208.025C205.136 207.903 206.36 203.251 206.36 203.251L208.802 199.707C208.802 199.707 207.211 203.251 207.211 204.108C207.211 204.965 206.604 207.291 206.604 207.678C206.604 208.066 207.334 208.535 208.313 208.045C209.292 207.556 210.026 203.884 210.026 203.884L212.107 200.462C212.107 200.462 210.516 205.23 210.026 206.209C209.537 207.189 209.414 207.556 210.761 207.433C212.107 207.311 212.23 205.842 212.597 204.883C212.964 203.925 213.821 202.073 213.821 202.073L216.264 200.36C216.264 200.36 214.678 203.782 214.188 204.639C213.698 205.495 213.209 205.74 214.922 205.74C216.636 205.74 217.733 201.951 217.733 201.951C218.369 201.493 218.982 201.003 219.569 200.482C220.079 199.972 221.894 197.177 221.894 197.177C221.894 197.177 243.666 189.838 246.236 188.614C248.807 187.39 249.047 185.554 248.067 183.968C247.088 182.382 242.784 178.649 237.684 180.74Z" fill="white" stroke="#263238" stroke-linecap="round" stroke-linejoin="round"/>
<path d="M239.496 217.562L223.727 204.404H251.848L239.496 217.562Z" fill="white" stroke="#263238" stroke-linecap="round" stroke-linejoin="round"/>
<path d="M240.158 215.971L233.758 210.198H243.922L240.158 215.971Z" fill="#263238" stroke="#263238" stroke-linecap="round" stroke-linejoin="round"/>
<path d="M287.182 217.562H239.492L246.765 187.304H294.455L287.182 217.562Z" fill="white" stroke="#263238" stroke-linecap="round" stroke-linejoin="round"/>
<path d="M290.645 203.18C281.807 204.583 273.305 209.81 262.865 212.87C255.278 215.08 247.483 216.5 239.604 217.108L239.492 217.577H287.182L290.645 203.18Z" fill="#263238" stroke="#263238" stroke-linecap="round" stroke-linejoin="round"/>
<path d="M268.176 205.383C270.021 205.383 271.517 204.239 271.517 202.828C271.517 201.417 270.021 200.273 268.176 200.273C266.332 200.273 264.836 201.417 264.836 202.828C264.836 204.239 266.332 205.383 268.176 205.383Z" fill="white" stroke="#263238" stroke-linecap="round" stroke-linejoin="round"/>
</g>
<defs>
<clipPath id="clip0_2159_1429">
<rect width="406" height="236" rx="118" fill="white"/>
</clipPath>
</defs>
</svg>
