<svg width="24" height="25" viewBox="0 0 24 25" fill="none" xmlns="http://www.w3.org/2000/svg">
<path d="M11.3631 24.1924C11.7306 24.3886 12.1919 24.3874 12.5594 24.1911C22.5744 18.8111 23.2856 8.29989 23.2769 5.31114C23.2759 5.07093 23.2049 4.8362 23.0726 4.63572C22.9403 4.43524 22.7524 4.2777 22.5319 4.18239L12.4694 -0.27511C12.3092 -0.345699 12.1361 -0.38205 11.9611 -0.381835C11.7861 -0.38162 11.6131 -0.344842 11.4531 -0.273861L1.46062 4.18364C1.24336 4.279 1.0581 4.4348 0.926902 4.63248C0.795703 4.83017 0.724098 5.0614 0.720618 5.29864C0.678118 8.27239 1.27687 18.8061 11.3631 24.1924ZM7.84562 9.86614L10.7119 12.7324L16.0781 7.36614L17.8456 9.13364L10.7119 16.2674L6.07812 11.6336L7.84562 9.86614Z" fill="#2C981B"/>
</svg>
