<svg width="24" height="25" viewBox="0 0 24 25" fill="none" xmlns="http://www.w3.org/2000/svg">
<path d="M11.3592 24.1924C11.7267 24.3886 12.188 24.3874 12.5555 24.1911C22.5705 18.8111 23.2817 8.29989 23.273 5.31114C23.272 5.07093 23.201 4.8362 23.0687 4.63572C22.9364 4.43524 22.7485 4.2777 22.528 4.18239L12.4655 -0.27511C12.3053 -0.345699 12.1322 -0.38205 11.9572 -0.381835C11.7822 -0.38162 11.6092 -0.344842 11.4492 -0.273861L1.45671 4.18364C1.23946 4.279 1.05419 4.4348 0.922996 4.63248C0.791797 4.83017 0.720192 5.0614 0.716711 5.29864C0.674211 8.27239 1.27296 18.8061 11.3592 24.1924ZM7.84171 9.86614L10.708 12.7324L16.0742 7.36614L17.8417 9.13364L10.708 16.2674L6.07421 11.6336L7.84171 9.86614Z" fill="#2C981B"/>
</svg>
