<svg width="23" height="23" viewBox="0 0 23 23" fill="none" xmlns="http://www.w3.org/2000/svg">
<path d="M22.4375 7.59375C22.4375 8.51711 22.2556 9.43142 21.9023 10.2845C21.5489 11.1376 21.031 11.9127 20.3781 12.5656C19.7252 13.2185 18.9501 13.7364 18.097 14.0898C17.2439 14.4431 16.3296 14.625 15.4062 14.625C14.4829 14.625 13.5686 14.4431 12.7155 14.0898C11.8624 13.7364 11.0873 13.2185 10.4344 12.5656C9.78149 11.9127 9.26358 11.1376 8.91022 10.2845C8.55687 9.43142 8.375 8.51711 8.375 7.59375C8.375 5.72895 9.11579 3.94052 10.4344 2.62191C11.753 1.30329 13.5414 0.5625 15.4062 0.5625C17.2711 0.5625 19.0595 1.30329 20.3781 2.62191C21.6967 3.94052 22.4375 5.72895 22.4375 7.59375ZM19.0844 4.69687C19.0118 4.62412 18.9256 4.5664 18.8307 4.52701C18.7358 4.48763 18.634 4.46735 18.5312 4.46735C18.4285 4.46735 18.3267 4.48763 18.2318 4.52701C18.1369 4.5664 18.0507 4.62412 17.9781 4.69687L13.8438 8.83281L12.8344 7.82187C12.7617 7.74924 12.6755 7.69162 12.5806 7.65231C12.4857 7.613 12.384 7.59276 12.2812 7.59276C12.1785 7.59276 12.0768 7.613 11.9819 7.65231C11.887 7.69162 11.8008 7.74924 11.7281 7.82187C11.6555 7.89451 11.5979 7.98075 11.5586 8.07565C11.5192 8.17056 11.499 8.27228 11.499 8.375C11.499 8.47772 11.5192 8.57944 11.5586 8.67435C11.5979 8.76925 11.6555 8.85549 11.7281 8.92813L13.2906 10.4906C13.3632 10.5634 13.4494 10.6211 13.5443 10.6605C13.6392 10.6999 13.741 10.7201 13.8438 10.7201C13.9465 10.7201 14.0483 10.6999 14.1432 10.6605C14.2381 10.6211 14.3243 10.5634 14.3969 10.4906L19.0844 5.80313C19.1571 5.73055 19.2149 5.64434 19.2542 5.54943C19.2936 5.45451 19.3139 5.35276 19.3139 5.25C19.3139 5.14724 19.2936 5.04549 19.2542 4.95057C19.2149 4.85566 19.1571 4.76945 19.0844 4.69687ZM17.75 19.3125V15.8641C18.2953 15.7094 18.8172 15.5047 19.3125 15.25V19.3125C19.3125 20.1413 18.9833 20.9362 18.3972 21.5222C17.8112 22.1083 17.0163 22.4375 16.1875 22.4375H3.6875C2.8587 22.4375 2.06384 22.1083 1.47779 21.5222C0.89174 20.9362 0.5625 20.1413 0.5625 19.3125V9.9375C0.5625 9.1087 0.89174 8.31384 1.47779 7.72779C2.06384 7.14174 2.8587 6.8125 3.6875 6.8125H6.84687C6.80003 7.33228 6.80003 7.85522 6.84687 8.375H3.6875C3.2731 8.375 2.87567 8.53962 2.58265 8.83265C2.28962 9.12567 2.125 9.5231 2.125 9.9375V11.0937L9.9375 15.3L10.7875 14.8422C11.325 15.1859 11.9031 15.4703 12.5125 15.6891L10.3094 16.8766C10.1954 16.9381 10.0678 16.9703 9.93828 16.9703C9.80872 16.9703 9.6812 16.9381 9.56719 16.8766L2.125 12.8672V19.3125C2.125 19.7269 2.28962 20.1243 2.58265 20.4174C2.87567 20.7104 3.2731 20.875 3.6875 20.875H16.1875C16.6019 20.875 16.9993 20.7104 17.2924 20.4174C17.5854 20.1243 17.75 19.7269 17.75 19.3125Z" fill="#2C981B"/>
</svg>
