<svg width="12" height="12" viewBox="0 0 12 12" fill="none" xmlns="http://www.w3.org/2000/svg">
<path fill-rule="evenodd" clip-rule="evenodd" d="M3.79074 8.21011C6.10227 10.5211 8.24375 10.7741 8.87225 10.7973C9.63227 10.8252 10.4075 10.205 10.7426 9.56944C10.2079 8.94206 9.51138 8.45544 8.74819 7.92782C8.2984 8.37751 7.74375 9.21292 7.00458 8.91404C6.58491 8.74434 5.54737 8.2667 4.64076 7.36029C3.73414 6.45388 3.25639 5.41659 3.08665 4.99701C2.78744 4.25738 3.62495 3.70184 4.07506 3.25184C3.54761 2.47624 3.06889 1.76212 2.44264 1.25437C1.79867 1.59117 1.17466 2.36035 1.20297 3.12977C1.2261 3.75812 1.4792 5.89911 3.79074 8.21011ZM8.82804 11.9983C7.96196 11.9664 5.50926 11.6279 2.94072 9.05993C0.372182 6.49199 0.0335531 4.03986 0.00168048 3.17397C-0.0468808 1.85469 0.963972 0.572821 2.13218 0.0722755C2.4063 -0.0451773 2.73831 -0.0236825 3.00078 0.167727C3.96706 0.872402 4.63371 1.94068 5.20622 2.77715C5.45014 3.13353 5.40987 3.61698 5.10019 3.92658L4.28493 4.74166C4.47415 5.15949 4.86019 5.88003 5.49078 6.51047C6.12136 7.1409 6.84207 7.52685 7.26 7.71603L8.07487 6.90135C8.38481 6.59147 8.87043 6.55062 9.22773 6.79811C10.0812 7.3893 11.0836 8.04638 11.8145 8.98216C12.0198 9.24501 12.0503 9.58876 11.9278 9.87445C11.4249 11.0478 10.1521 12.047 8.82804 11.9983Z" fill="#2C981B"/>
<path fill-rule="evenodd" clip-rule="evenodd" d="M11.4343 0.94253C11.669 1.1772 11.669 1.55768 11.4343 1.79235L8.9905 4.23559C8.69709 4.52893 8.22138 4.52893 7.92797 4.23559L6.7592 3.06708C6.52447 2.83241 6.52447 2.45193 6.7592 2.21726C6.99392 1.98259 7.37449 1.98259 7.60922 2.21726L8.45923 3.06708L10.5843 0.94253C10.819 0.707858 11.1996 0.707858 11.4343 0.94253Z" fill="#2C981B"/>
</svg>
