<svg width="48" height="53" viewBox="0 0 48 53" fill="none" xmlns="http://www.w3.org/2000/svg">
<path d="M43 46.25H28.67C27.9542 47.6216 27.0468 48.8843 25.975 50H43C44.3261 50 45.5979 49.4732 46.5355 48.5355C47.4732 47.5979 48 46.3261 48 45V19.57C47.9997 18.244 47.4727 16.9725 46.535 16.035L31.9625 1.465C31.9239 1.42907 31.8829 1.39567 31.84 1.365C31.8091 1.34112 31.7791 1.31611 31.75 1.29C31.578 1.12768 31.3951 0.977325 31.2025 0.84C31.1385 0.798705 31.0717 0.761948 31.0025 0.73L30.8825 0.67L30.7575 0.5975C30.6225 0.52 30.485 0.44 30.3425 0.38C29.8447 0.181158 29.3178 0.064636 28.7825 0.0349998C28.7331 0.0317807 28.6838 0.0259392 28.635 0.0174999C28.5671 0.00702027 28.4987 0.00117349 28.43 0H13C11.6739 0 10.4021 0.526784 9.46447 1.46447C8.52678 2.40215 8 3.67392 8 5V23.745C9.20278 23.2431 10.462 22.8889 11.75 22.69V5C11.75 4.66848 11.8817 4.35054 12.1161 4.11612C12.3505 3.8817 12.6685 3.75 13 3.75H28V15C28 16.3261 28.5268 17.5979 29.4645 18.5355C30.4021 19.4732 31.6739 20 33 20H44.25V45C44.25 45.3315 44.1183 45.6495 43.8839 45.8839C43.6495 46.1183 43.3315 46.25 43 46.25ZM41.445 16.25H33C32.6685 16.25 32.3505 16.1183 32.1161 15.8839C31.8817 15.6495 31.75 15.3315 31.75 15V6.5525L41.445 16.25ZM30.5 38.75C30.5007 40.0126 30.3548 41.2711 30.065 42.5H36.125C37.2853 42.5 38.3981 42.0391 39.2186 41.2186C40.0391 40.3981 40.5 39.2853 40.5 38.125V28.125C40.5 26.9647 40.0391 25.8519 39.2186 25.0314C38.3981 24.2109 37.2853 23.75 36.125 23.75H20.51C22.9313 24.7634 25.072 26.3466 26.75 28.365V27.5H36.125C36.2908 27.5 36.4497 27.5658 36.5669 27.6831C36.6842 27.8003 36.75 27.9592 36.75 28.125V31.25H28.67C29.28 32.425 29.7525 33.68 30.065 35H36.75V38.125C36.75 38.2908 36.6842 38.4497 36.5669 38.5669C36.4497 38.6842 36.2908 38.75 36.125 38.75H30.5ZM28 38.75C28 40.5557 27.6443 42.3437 26.9533 44.0119C26.2623 45.6801 25.2495 47.1959 23.9727 48.4727C22.6959 49.7495 21.1801 50.7623 19.5119 51.4533C17.8437 52.1443 16.0557 52.5 14.25 52.5C12.4443 52.5 10.6563 52.1443 8.9881 51.4533C7.31988 50.7623 5.80409 49.7495 4.52728 48.4727C3.25048 47.1959 2.23766 45.6801 1.54666 44.0119C0.855654 42.3437 0.5 40.5557 0.5 38.75C0.5 35.1033 1.94866 31.6059 4.52728 29.0273C7.10591 26.4487 10.6033 25 14.25 25C17.8967 25 21.3941 26.4487 23.9727 29.0273C26.5513 31.6059 28 35.1033 28 38.75ZM22.635 32.865C22.5189 32.7486 22.3809 32.6562 22.2291 32.5932C22.0772 32.5302 21.9144 32.4978 21.75 32.4978C21.5856 32.4978 21.4228 32.5302 21.2709 32.5932C21.1191 32.6562 20.9811 32.7486 20.865 32.865L11.75 41.9825L7.635 37.865C7.40028 37.6303 7.08194 37.4984 6.75 37.4984C6.41806 37.4984 6.09972 37.6303 5.865 37.865C5.63028 38.0997 5.49842 38.4181 5.49842 38.75C5.49842 39.0819 5.63028 39.4003 5.865 39.635L10.865 44.635C10.9811 44.7514 11.1191 44.8438 11.2709 44.9068C11.4228 44.9698 11.5856 45.0022 11.75 45.0022C11.9144 45.0022 12.0772 44.9698 12.2291 44.9068C12.3809 44.8438 12.5189 44.7514 12.635 44.635L22.635 34.635C22.7514 34.5189 22.8438 34.3809 22.9068 34.2291C22.9698 34.0772 23.0022 33.9144 23.0022 33.75C23.0022 33.5856 22.9698 33.4228 22.9068 33.2709C22.8438 33.1191 22.7514 32.9811 22.635 32.865Z" fill="#EF2C2C"/>
</svg>
