<svg width="20" height="19" viewBox="0 0 20 19" fill="none" xmlns="http://www.w3.org/2000/svg">
<path d="M3.89583 8.23958C5.40299 11.1943 7.80566 13.597 10.7604 15.1042L13.0521 12.8125C13.1857 12.6786 13.3533 12.5836 13.5368 12.5377C13.7203 12.4919 13.9128 12.4968 14.0937 12.5521C15.3003 12.9494 16.563 13.1499 17.8333 13.1458C18.1096 13.1458 18.3746 13.2556 18.5699 13.4509C18.7653 13.6463 18.875 13.9112 18.875 14.1875V17.8333C18.875 18.1096 18.7653 18.3746 18.5699 18.5699C18.3746 18.7653 18.1096 18.875 17.8333 18.875C13.1368 18.875 8.63261 17.0093 5.31165 13.6883C1.99069 10.3674 0.125 5.86321 0.125 1.16667C0.125 0.890399 0.234747 0.625447 0.430097 0.430097C0.625447 0.234747 0.890399 0.125 1.16667 0.125H4.8125C5.08877 0.125 5.35372 0.234747 5.54907 0.430097C5.74442 0.625447 5.85417 0.890399 5.85417 1.16667C5.85231 2.43 6.05276 3.68548 6.44792 4.88542C6.50318 5.06633 6.50814 5.25887 6.46226 5.44239C6.41638 5.6259 6.3214 5.79346 6.1875 5.92708M19.6146 1.90625L18.1354 0.427083L12.625 5.94792L10.2396 3.55208L8.76042 5.03125L12.625 8.88542L19.6146 1.90625Z" fill="#2C981B"/>
</svg>
