<svg width="15" height="11" viewBox="0 0 15 11" fill="none" xmlns="http://www.w3.org/2000/svg">
<path fill-rule="evenodd" clip-rule="evenodd" d="M2.72727 0C1.97416 0 1.36364 0.615608 1.36364 1.375V2.75H2.72727V2.34727L7.45869 7.11812C7.85809 7.52085 8.50565 7.52085 8.90505 7.11812L13.6364 2.34738V9.625H2.72727V8.9375H1.36364V9.625C1.36364 10.3844 1.97416 11 2.72727 11H13.6364C14.3895 11 15 10.3844 15 9.625V1.375C15 0.615608 14.3895 0 13.6364 0H2.72727ZM12.6722 1.375H3.69151L8.18187 5.90278L12.6722 1.375Z" fill="#385AD4"/>
<path d="M1.36364 4.125C0.987079 4.125 0.681818 4.4328 0.681818 4.8125C0.681818 5.1922 0.987079 5.5 1.36364 5.5H3.40909C3.78565 5.5 4.09091 5.1922 4.09091 4.8125C4.09091 4.4328 3.78565 4.125 3.40909 4.125H1.36364Z" fill="#385AD4"/>
<path d="M0 6.875C0 6.4953 0.30526 6.1875 0.681818 6.1875H4.09091C4.46747 6.1875 4.77273 6.4953 4.77273 6.875C4.77273 7.2547 4.46747 7.5625 4.09091 7.5625H0.681818C0.30526 7.5625 0 7.2547 0 6.875Z" fill="#385AD4"/>
</svg>
