<svg width="30" height="30" viewBox="0 0 30 30" fill="none" xmlns="http://www.w3.org/2000/svg">
<path d="M5 6.25C5 5.55964 5.55964 5 6.25 5H11.25C11.9404 5 12.5 5.55964 12.5 6.25V11.25C12.5 11.9404 11.9404 12.5 11.25 12.5H6.25C5.55964 12.5 5 11.9404 5 11.25V6.25Z" stroke="#4E4E4E" stroke-width="2" stroke-linecap="round" stroke-linejoin="round"/>
<path d="M5 18.75C5 18.0596 5.55964 17.5 6.25 17.5H11.25C11.9404 17.5 12.5 18.0596 12.5 18.75V23.75C12.5 24.4404 11.9404 25 11.25 25H6.25C5.55964 25 5 24.4404 5 23.75V18.75Z" stroke="#4E4E4E" stroke-width="2" stroke-linecap="round" stroke-linejoin="round"/>
<path d="M17.5 6.25C17.5 5.55964 18.0596 5 18.75 5H23.75C24.4404 5 25 5.55964 25 6.25V11.25C25 11.9404 24.4404 12.5 23.75 12.5H18.75C18.0596 12.5 17.5 11.9404 17.5 11.25V6.25Z" stroke="#4E4E4E" stroke-width="2" stroke-linecap="round" stroke-linejoin="round"/>
<path d="M17.5 18.75C17.5 18.0596 18.0596 17.5 18.75 17.5H23.75C24.4404 17.5 25 18.0596 25 18.75V23.75C25 24.4404 24.4404 25 23.75 25H18.75C18.0596 25 17.5 24.4404 17.5 23.75V18.75Z" stroke="#4E4E4E" stroke-width="2" stroke-linecap="round" stroke-linejoin="round"/>
</svg>
