<svg width="28" height="28" viewBox="0 0 28 28" fill="none" xmlns="http://www.w3.org/2000/svg">
<path d="M14 15.5V7.5M27 14C27 17.4478 25.6304 20.7544 23.1924 23.1924C20.7544 25.6304 17.4478 27 14 27C10.5522 27 7.24558 25.6304 4.80761 23.1924C2.36964 20.7544 1 17.4478 1 14C1 10.5522 2.36964 7.24558 4.80761 4.80761C7.24558 2.36964 10.5522 1 14 1C17.4478 1 20.7544 2.36964 23.1924 4.80761C25.6304 7.24558 27 10.5522 27 14Z" stroke="#EF2C2C" stroke-width="2" stroke-linecap="round" stroke-linejoin="round"/>
<path d="M15 20C15 20.2652 14.8946 20.5196 14.7071 20.7071C14.5196 20.8946 14.2652 21 14 21C13.7348 21 13.4804 20.8946 13.2929 20.7071C13.1054 20.5196 13 20.2652 13 20C13 19.7348 13.1054 19.4804 13.2929 19.2929C13.4804 19.1054 13.7348 19 14 19C14.2652 19 14.5196 19.1054 14.7071 19.2929C14.8946 19.4804 15 19.7348 15 20Z" fill="#EF2C2C" stroke="#EF2C2C"/>
</svg>
