<svg width="19" height="19" viewBox="0 0 19 19" fill="none" xmlns="http://www.w3.org/2000/svg">
<path d="M18.2992 17.0105C18.4694 17.1824 18.5649 17.4144 18.5649 17.6562C18.5649 17.8981 18.4694 18.1301 18.2992 18.3019C18.126 18.4694 17.8945 18.5631 17.6535 18.5631C17.4126 18.5631 17.1811 18.4694 17.0078 18.3019L9.49728 10.7801L1.98674 18.3019C1.81352 18.4694 1.58199 18.5631 1.34104 18.5631C1.10008 18.5631 0.868553 18.4694 0.695332 18.3019C0.525155 18.1301 0.429688 17.8981 0.429688 17.6562C0.429688 17.4144 0.525155 17.1824 0.695332 17.0105L8.21721 9.5L0.695332 1.98945C0.550819 1.81337 0.476967 1.58983 0.488141 1.36231C0.499315 1.1348 0.594716 0.919571 0.755789 0.758499C0.916861 0.597427 1.13209 0.502026 1.3596 0.490852C1.58712 0.479677 1.81066 0.553529 1.98674 0.698043L9.49728 8.21992L17.0078 0.698043C17.1839 0.553529 17.4075 0.479677 17.635 0.490852C17.8625 0.502026 18.0777 0.597427 18.2388 0.758499C18.3999 0.919571 18.4953 1.1348 18.5064 1.36231C18.5176 1.58983 18.4438 1.81337 18.2992 1.98945L10.7774 9.5L18.2992 17.0105Z" fill="#353536"/>
</svg>
